<?xml version="1.0" encoding="UTF-8"?>
<svg xmlns="http://www.w3.org/2000/svg" xmlns:xlink="http://www.w3.org/1999/xlink" width="226.773438pt" height="140.148438pt" viewBox="0 0 226.773438 140.148438" version="1.1">
<defs>
<clipPath id="clip1">
  <path d="M 0 0 L 226.773438 0 L 226.773438 140.148438 L 0 140.148438 Z M 0 0 "/>
</clipPath>
<clipPath id="clip2">
  <path d="M 0 53.507812 L 74.5 53.507812 L 74.5 131 L 0 131 Z M 0 53.507812 "/>
</clipPath>
</defs>
<g id="surface1">
<g clip-path="url(#clip1)" clip-rule="nonzero">
<path style=" stroke:none;fill-rule:nonzero;fill:rgb(100%,100%,100%);fill-opacity:1;" d="M 0 0 L 226.773438 0 L 226.773438 140.148438 L 0 140.148438 Z M 0 0 "/>
</g>
<path style="fill-rule:nonzero;fill:rgb(84.312439%,84.312439%,100%);fill-opacity:1;stroke-width:0.3985;stroke-linecap:butt;stroke-linejoin:miter;stroke:rgb(0%,0%,100%);stroke-opacity:1;stroke-miterlimit:10;" d="M 15.519531 -124.925781 L 15.519531 -137.113281 L 17.347656 -137.113281 L 17.347656 -124.925781 Z M 58.179688 -124.925781 L 58.179688 -137.113281 L 60.007812 -137.113281 L 60.007812 -124.925781 Z M 58.179688 -124.925781 " transform="matrix(1,0,0,-1,0,0)"/>
<path style="fill-rule:nonzero;fill:rgb(49.803162%,100%,49.803162%);fill-opacity:1;stroke-width:0.3985;stroke-linecap:butt;stroke-linejoin:miter;stroke:rgb(0%,49.803162%,0%);stroke-opacity:1;stroke-miterlimit:10;" d="M 35.324219 -3.035156 L 38.375 -3.035156 L 38.375 -9.128906 L 35.324219 -9.128906 Z M 35.324219 -3.035156 " transform="matrix(1,0,0,-1,0,0)"/>
<path style="fill-rule:nonzero;fill:rgb(84.312439%,84.312439%,100%);fill-opacity:1;stroke-width:0.3985;stroke-linecap:butt;stroke-linejoin:miter;stroke:rgb(0%,0%,100%);stroke-opacity:1;stroke-miterlimit:10;" d="M 29.230469 -14.226562 L 29.230469 -8.601562 C 29.230469 -8.050781 29.675781 -7.605469 30.226562 -7.605469 L 43.472656 -7.605469 C 44.023438 -7.605469 44.46875 -8.050781 44.46875 -8.601562 L 44.46875 -14.226562 C 44.46875 -14.777344 44.023438 -15.222656 43.472656 -15.222656 L 30.226562 -15.222656 C 29.675781 -15.222656 29.230469 -14.777344 29.230469 -14.226562 Z M 29.230469 -14.226562 " transform="matrix(1,0,0,-1,0,0)"/>
<path style="fill-rule:nonzero;fill:rgb(84.312439%,84.312439%,100%);fill-opacity:1;stroke-width:0.3985;stroke-linecap:butt;stroke-linejoin:miter;stroke:rgb(0%,0%,100%);stroke-opacity:1;stroke-miterlimit:10;" d="M 26.183594 -50.269531 L 21.742188 -16.210938 C 21.671875 -15.667969 22.058594 -15.222656 22.609375 -15.222656 L 51.089844 -15.222656 C 51.640625 -15.222656 52.027344 -15.667969 51.957031 -16.210938 L 47.515625 -50.269531 " transform="matrix(1,0,0,-1,0,0)"/>
<path style="fill-rule:nonzero;fill:rgb(84.312439%,84.312439%,100%);fill-opacity:1;stroke-width:0.3985;stroke-linecap:butt;stroke-linejoin:miter;stroke:rgb(0%,0%,100%);stroke-opacity:1;stroke-miterlimit:10;" d="M 17.042969 -59.410156 L 17.042969 -51.265625 C 17.042969 -50.714844 17.488281 -50.269531 18.039062 -50.269531 L 55.660156 -50.269531 C 56.210938 -50.269531 56.65625 -50.714844 56.65625 -51.265625 L 56.65625 -59.410156 " transform="matrix(1,0,0,-1,0,0)"/>
<path style=" stroke:none;fill-rule:nonzero;fill:rgb(84.312439%,84.312439%,100%);fill-opacity:1;" d="M 13.46875 124.925781 L 60.230469 124.925781 C 60.78125 124.925781 61.320312 124.488281 61.429688 123.949219 L 68.644531 89.332031 C 68.753906 88.796875 68.398438 88.359375 67.851562 88.359375 L 62.222656 88.359375 C 61.675781 88.359375 61.320312 87.921875 61.433594 87.382812 L 67.117188 60.382812 C 67.230469 59.84375 66.875 59.410156 66.324219 59.410156 L 7.375 59.410156 C 6.824219 59.410156 6.46875 59.84375 6.582031 60.382812 L 12.265625 87.382812 C 12.378906 87.921875 12.027344 88.359375 11.476562 88.359375 L 5.847656 88.359375 C 5.300781 88.359375 4.945312 88.796875 5.054688 89.332031 L 12.269531 123.949219 C 12.378906 124.488281 12.917969 124.925781 13.46875 124.925781 Z M 13.46875 124.925781 "/>
<g clip-path="url(#clip2)" clip-rule="nonzero">
<path style="fill:none;stroke-width:0.3985;stroke-linecap:butt;stroke-linejoin:miter;stroke:rgb(0%,0%,100%);stroke-opacity:1;stroke-miterlimit:10;" d="M 13.46875 -124.925781 L 60.230469 -124.925781 C 60.78125 -124.925781 61.320312 -124.488281 61.429688 -123.949219 L 68.644531 -89.332031 C 68.753906 -88.796875 68.398438 -88.359375 67.851562 -88.359375 L 62.222656 -88.359375 C 61.675781 -88.359375 61.320312 -87.921875 61.433594 -87.382812 L 67.117188 -60.382812 C 67.230469 -59.84375 66.875 -59.410156 66.324219 -59.410156 L 7.375 -59.410156 C 6.824219 -59.410156 6.46875 -59.84375 6.582031 -60.382812 L 12.265625 -87.382812 C 12.378906 -87.921875 12.027344 -88.359375 11.476562 -88.359375 L 5.847656 -88.359375 C 5.300781 -88.359375 4.945312 -88.796875 5.054688 -89.332031 L 12.269531 -123.949219 C 12.378906 -124.488281 12.917969 -124.925781 13.46875 -124.925781 Z M 13.46875 -124.925781 " transform="matrix(1,0,0,-1,0,0)"/>
</g>
<path style="fill-rule:nonzero;fill:rgb(100%,100%,100%);fill-opacity:1;stroke-width:0.3985;stroke-linecap:butt;stroke-linejoin:miter;stroke:rgb(0%,0%,100%);stroke-opacity:1;stroke-miterlimit:10;" d="M 17.042969 -114.847656 L 17.042969 -74.058594 C 17.042969 -71.859375 18.828125 -70.074219 21.027344 -70.074219 L 52.671875 -70.074219 C 54.871094 -70.074219 56.65625 -71.859375 56.65625 -74.058594 L 56.65625 -114.847656 C 56.65625 -117.046875 54.871094 -118.832031 52.671875 -118.832031 L 21.027344 -118.832031 C 18.828125 -118.832031 17.042969 -117.046875 17.042969 -114.847656 Z M 17.042969 -114.847656 " transform="matrix(1,0,0,-1,0,0)"/>
<path style="fill-rule:nonzero;fill:rgb(49.803162%,100%,49.803162%);fill-opacity:1;stroke-width:0.3985;stroke-linecap:butt;stroke-linejoin:miter;stroke:rgb(0%,49.803162%,0%);stroke-opacity:1;stroke-miterlimit:10;" d="M 35.324219 -70.074219 L 38.375 -70.074219 L 38.375 -115.785156 L 35.324219 -115.785156 Z M 35.324219 -70.074219 " transform="matrix(1,0,0,-1,0,0)"/>
<path style="fill-rule:nonzero;fill:rgb(100%,94.116211%,0%);fill-opacity:1;stroke-width:0.3985;stroke-linecap:butt;stroke-linejoin:miter;stroke:rgb(100%,49.803162%,0%);stroke-opacity:1;stroke-miterlimit:10;" d="M 47.515625 -103.59375 C 47.515625 -97.703125 42.742188 -92.929688 36.851562 -92.929688 C 30.960938 -92.929688 26.183594 -97.703125 26.183594 -103.59375 C 26.183594 -109.484375 30.960938 -114.261719 36.851562 -114.261719 C 42.742188 -114.261719 47.515625 -109.484375 47.515625 -103.59375 Z M 47.515625 -103.59375 " transform="matrix(1,0,0,-1,0,0)"/>
<path style=" stroke:none;fill-rule:nonzero;fill:rgb(100%,0%,0%);fill-opacity:0.15;" d="M 17.042969 88.359375 L 17.042969 114.847656 C 17.042969 117.046875 18.828125 118.832031 21.027344 118.832031 L 52.671875 118.832031 C 54.871094 118.832031 56.65625 117.046875 56.65625 114.847656 L 56.65625 88.359375 "/>
<path style="fill:none;stroke-width:0.3985;stroke-linecap:butt;stroke-linejoin:miter;stroke:rgb(0%,0%,0%);stroke-opacity:1;stroke-miterlimit:10;" d="M 151.652344 -134.988281 L 151.652344 -6.011719 " transform="matrix(1,0,0,-1,0,0)"/>
<path style="fill-rule:nonzero;fill:rgb(84.312439%,84.312439%,100%);fill-opacity:1;stroke-width:0.3985;stroke-linecap:butt;stroke-linejoin:miter;stroke:rgb(0%,0%,100%);stroke-opacity:1;stroke-miterlimit:10;" d="M 133.230469 -31.808594 L 170.078125 -31.808594 L 170.078125 -68.65625 L 133.230469 -68.65625 Z M 133.230469 -31.808594 " transform="matrix(1,0,0,-1,0,0)"/>
<path style=" stroke:none;fill-rule:nonzero;fill:rgb(0%,0%,100%);fill-opacity:1;" d="M 152.839844 50.472656 C 152.730469 50.597656 152.652344 50.691406 152.621094 50.738281 C 152.339844 51.097656 152.136719 51.269531 151.980469 51.269531 C 151.902344 51.269531 151.855469 51.207031 151.855469 51.113281 C 151.855469 51.050781 151.902344 50.894531 151.949219 50.660156 L 152.636719 48.160156 C 152.636719 48.113281 152.667969 47.941406 152.667969 47.878906 C 152.667969 47.519531 152.417969 47.253906 152.074219 47.253906 C 151.886719 47.253906 151.683594 47.316406 151.449219 47.472656 C 150.964844 47.785156 150.542969 48.269531 149.855469 49.363281 C 150.105469 48.597656 150.261719 48.035156 150.261719 47.847656 C 150.261719 47.503906 150.027344 47.253906 149.699219 47.253906 C 149.089844 47.253906 148.386719 47.910156 147.464844 49.347656 L 148.042969 47.269531 L 148.011719 47.253906 C 147.464844 47.363281 147.246094 47.410156 146.417969 47.550781 L 146.417969 47.722656 L 146.667969 47.722656 C 146.933594 47.722656 147.058594 47.785156 147.058594 47.941406 C 147.058594 48.050781 146.839844 48.957031 146.480469 50.222656 C 146.246094 51.035156 146.214844 51.128906 146.089844 51.644531 L 146.839844 51.644531 C 147.308594 50.066406 147.464844 49.691406 147.792969 49.175781 C 148.355469 48.332031 148.949219 47.769531 149.292969 47.769531 C 149.417969 47.769531 149.496094 47.863281 149.496094 48.019531 C 149.496094 48.113281 149.167969 49.316406 148.542969 51.644531 L 149.292969 51.644531 C 149.699219 50.082031 149.886719 49.597656 150.402344 48.878906 C 150.886719 48.207031 151.386719 47.769531 151.683594 47.769531 C 151.792969 47.769531 151.871094 47.863281 151.871094 47.972656 C 151.871094 48.019531 151.855469 48.144531 151.808594 48.332031 L 151.230469 50.613281 C 151.136719 50.988281 151.105469 51.175781 151.105469 51.269531 C 151.105469 51.582031 151.246094 51.738281 151.496094 51.738281 C 151.964844 51.738281 152.402344 51.410156 152.933594 50.660156 L 152.980469 50.597656 Z M 152.839844 50.472656 "/>
<path style=" stroke:none;fill-rule:nonzero;fill:rgb(0%,0%,100%);fill-opacity:1;" d="M 155.296875 48.164062 L 153.96875 48.835938 L 153.96875 48.929688 C 154.0625 48.898438 154.140625 48.867188 154.171875 48.851562 C 154.3125 48.804688 154.4375 48.773438 154.5 48.773438 C 154.65625 48.773438 154.734375 48.882812 154.734375 49.117188 L 154.734375 52.460938 C 154.734375 52.710938 154.671875 52.882812 154.546875 52.945312 C 154.4375 53.007812 154.34375 53.023438 154.03125 53.039062 L 154.03125 53.148438 L 156.0625 53.148438 L 156.0625 53.039062 C 155.484375 53.023438 155.359375 52.960938 155.359375 52.601562 L 155.359375 48.179688 Z M 155.296875 48.164062 "/>
<path style="fill:none;stroke-width:0.3985;stroke-linecap:butt;stroke-linejoin:miter;stroke:rgb(0%,0%,100%);stroke-opacity:1;stroke-miterlimit:10;" d="M 170.078125 -50.230469 L 194.132812 -50.230469 " transform="matrix(1,0,0,-1,0,0)"/>
<path style=" stroke:none;fill-rule:nonzero;fill:rgb(0%,0%,100%);fill-opacity:1;" d="M 197.71875 50.230469 C 196.65625 50.03125 194.929688 49.433594 193.734375 48.738281 L 193.734375 51.726562 C 194.929688 51.027344 196.65625 50.429688 197.71875 50.230469 "/>
<path style=" stroke:none;fill-rule:nonzero;fill:rgb(0%,0%,100%);fill-opacity:1;" d="M 207.675781 46.207031 L 202.707031 46.207031 L 202.707031 46.378906 C 203.347656 46.425781 203.472656 46.488281 203.472656 46.785156 C 203.472656 46.925781 203.425781 47.175781 203.363281 47.425781 L 202.128906 51.832031 C 201.957031 52.425781 201.878906 52.488281 201.316406 52.566406 L 201.316406 52.722656 L 203.832031 52.722656 L 203.832031 52.566406 C 203.253906 52.535156 203.066406 52.425781 203.066406 52.128906 C 203.066406 52.050781 203.097656 51.894531 203.160156 51.675781 L 203.785156 49.457031 C 204.144531 49.472656 204.363281 49.488281 204.582031 49.488281 C 204.972656 49.488281 205.050781 49.488281 205.128906 49.535156 C 205.285156 49.613281 205.347656 49.738281 205.347656 49.941406 C 205.347656 50.097656 205.332031 50.222656 205.269531 50.535156 L 205.441406 50.582031 L 206.207031 48.253906 L 206.019531 48.191406 C 205.582031 49.097656 205.550781 49.097656 203.863281 49.128906 L 204.535156 46.800781 C 204.582031 46.597656 204.722656 46.535156 205.128906 46.535156 C 206.816406 46.535156 207.175781 46.675781 207.175781 47.285156 C 207.175781 47.347656 207.175781 47.394531 207.160156 47.535156 C 207.144531 47.582031 207.144531 47.597656 207.144531 47.722656 L 207.347656 47.738281 Z M 207.675781 46.207031 "/>
<path style=" stroke:none;fill-rule:nonzero;fill:rgb(0%,0%,100%);fill-opacity:1;" d="M 211.457031 55.113281 C 211.457031 55.082031 211.457031 55.066406 211.285156 54.894531 C 210.050781 53.644531 209.722656 51.753906 209.722656 50.222656 C 209.722656 48.488281 210.097656 46.753906 211.332031 45.519531 C 211.457031 45.394531 211.457031 45.378906 211.457031 45.347656 C 211.457031 45.269531 211.425781 45.238281 211.363281 45.238281 C 211.253906 45.238281 210.363281 45.925781 209.769531 47.191406 C 209.269531 48.285156 209.144531 49.394531 209.144531 50.222656 C 209.144531 51.003906 209.253906 52.207031 209.800781 53.347656 C 210.410156 54.566406 211.253906 55.222656 211.363281 55.222656 C 211.425781 55.222656 211.457031 55.191406 211.457031 55.113281 Z M 211.457031 55.113281 "/>
<path style=" stroke:none;fill-rule:nonzero;fill:rgb(0%,0%,100%);fill-opacity:1;" d="M 214.730469 48.457031 L 213.933594 48.457031 L 214.214844 47.425781 C 214.214844 47.410156 214.214844 47.394531 214.214844 47.378906 C 214.214844 47.316406 214.183594 47.285156 214.136719 47.285156 C 214.074219 47.285156 214.042969 47.285156 213.996094 47.363281 C 213.605469 47.878906 212.980469 48.378906 212.667969 48.472656 C 212.417969 48.550781 212.339844 48.613281 212.339844 48.722656 C 212.339844 48.722656 212.339844 48.738281 212.355469 48.769531 L 213.089844 48.769531 L 212.371094 51.519531 C 212.355469 51.613281 212.339844 51.628906 212.308594 51.722656 C 212.230469 52.019531 212.152344 52.378906 212.152344 52.457031 C 212.152344 52.675781 212.355469 52.832031 212.621094 52.832031 C 213.089844 52.832031 213.417969 52.550781 214.042969 51.628906 L 213.917969 51.550781 C 213.417969 52.191406 213.261719 52.347656 213.105469 52.347656 C 213.011719 52.347656 212.949219 52.269531 212.949219 52.144531 C 212.949219 52.128906 212.949219 52.128906 212.964844 52.097656 L 213.839844 48.769531 L 214.683594 48.769531 Z M 214.730469 48.457031 "/>
<path style=" stroke:none;fill-rule:nonzero;fill:rgb(0%,0%,100%);fill-opacity:1;" d="M 218.101562 50.222656 C 218.101562 49.457031 217.992188 48.253906 217.445312 47.113281 C 216.851562 45.894531 215.992188 45.238281 215.898438 45.238281 C 215.835938 45.238281 215.789062 45.285156 215.789062 45.347656 C 215.789062 45.378906 215.789062 45.394531 215.976562 45.582031 C 216.960938 46.566406 217.523438 48.144531 217.523438 50.222656 C 217.523438 51.941406 217.164062 53.691406 215.929688 54.941406 C 215.789062 55.066406 215.789062 55.082031 215.789062 55.113281 C 215.789062 55.175781 215.835938 55.222656 215.898438 55.222656 C 215.992188 55.222656 216.898438 54.535156 217.476562 53.269531 C 217.992188 52.175781 218.101562 51.066406 218.101562 50.222656 Z M 218.101562 50.222656 "/>
<path style="fill:none;stroke-width:0.3985;stroke-linecap:butt;stroke-linejoin:miter;stroke:rgb(0%,0%,100%);stroke-opacity:1;stroke-miterlimit:10;" d="M 92.59375 -18.910156 L 148.066406 -18.910156 " transform="matrix(1,0,0,-1,0,0)"/>
<path style=" stroke:none;fill-rule:nonzero;fill:rgb(0%,0%,100%);fill-opacity:1;" d="M 89.007812 18.910156 C 90.070312 19.109375 91.796875 19.707031 92.992188 20.402344 L 92.992188 17.414062 C 91.796875 18.113281 90.070312 18.710938 89.007812 18.910156 "/>
<path style=" stroke:none;fill-rule:nonzero;fill:rgb(0%,0%,100%);fill-opacity:1;" d="M 151.652344 18.910156 C 150.589844 18.710938 148.863281 18.113281 147.667969 17.414062 L 147.667969 20.402344 C 148.863281 19.707031 150.589844 19.109375 151.652344 18.910156 "/>
<path style=" stroke:none;fill-rule:nonzero;fill:rgb(0%,0%,100%);fill-opacity:1;" d="M 120.027344 12.773438 C 119.949219 12.867188 119.902344 12.929688 119.808594 13.039062 C 119.589844 13.351562 119.464844 13.445312 119.355469 13.445312 C 119.214844 13.445312 119.121094 13.320312 119.042969 13.039062 C 119.027344 12.960938 119.011719 12.898438 119.011719 12.867188 C 118.761719 11.851562 118.652344 11.398438 118.652344 11.257812 C 119.089844 10.476562 119.449219 10.039062 119.621094 10.039062 C 119.683594 10.039062 119.761719 10.070312 119.871094 10.117188 C 119.980469 10.195312 120.058594 10.210938 120.136719 10.210938 C 120.339844 10.210938 120.480469 10.070312 120.480469 9.851562 C 120.480469 9.648438 120.308594 9.492188 120.074219 9.492188 C 119.636719 9.492188 119.261719 9.851562 118.574219 10.914062 L 118.464844 10.367188 C 118.324219 9.679688 118.214844 9.492188 117.933594 9.492188 C 117.714844 9.492188 117.386719 9.570312 116.777344 9.773438 L 116.667969 9.820312 L 116.699219 9.960938 C 117.089844 9.882812 117.167969 9.851562 117.261719 9.851562 C 117.511719 9.851562 117.574219 9.945312 117.714844 10.539062 L 117.996094 11.773438 L 117.183594 12.929688 C 116.980469 13.242188 116.777344 13.414062 116.667969 13.414062 C 116.621094 13.414062 116.511719 13.382812 116.417969 13.320312 C 116.292969 13.257812 116.183594 13.226562 116.089844 13.226562 C 115.902344 13.226562 115.761719 13.367188 115.761719 13.570312 C 115.761719 13.835938 115.964844 13.992188 116.261719 13.992188 C 116.558594 13.992188 116.683594 13.898438 117.183594 13.289062 C 117.449219 12.976562 117.667969 12.710938 118.074219 12.132812 L 118.386719 13.320312 C 118.511719 13.835938 118.636719 13.992188 118.964844 13.992188 C 119.339844 13.992188 119.589844 13.757812 120.167969 12.851562 Z M 120.027344 12.773438 "/>
<path style=" stroke:none;fill-rule:nonzero;fill:rgb(0%,0%,100%);fill-opacity:1;" d="M 122.589844 10.40625 L 121.261719 11.078125 L 121.261719 11.171875 C 121.355469 11.140625 121.433594 11.109375 121.464844 11.09375 C 121.605469 11.046875 121.730469 11.015625 121.792969 11.015625 C 121.949219 11.015625 122.027344 11.125 122.027344 11.359375 L 122.027344 14.703125 C 122.027344 14.953125 121.964844 15.125 121.839844 15.1875 C 121.730469 15.25 121.636719 15.265625 121.324219 15.28125 L 121.324219 15.390625 L 123.355469 15.390625 L 123.355469 15.28125 C 122.777344 15.265625 122.652344 15.203125 122.652344 14.84375 L 122.652344 10.421875 Z M 122.589844 10.40625 "/>
<path style="fill:none;stroke-width:0.3985;stroke-linecap:butt;stroke-linejoin:miter;stroke:rgb(18.823242%,18.823242%,18.823242%);stroke-opacity:1;stroke-miterlimit:10;" d="M 89.007812 -4.167969 L 89.007812 -77.871094 L 223.511719 -77.871094 " transform="matrix(1,0,0,-1,0,0)"/>
<path style="fill:none;stroke-width:0.3985;stroke-linecap:butt;stroke-linejoin:miter;stroke:rgb(18.823242%,18.823242%,18.823242%);stroke-opacity:1;stroke-miterlimit:10;" d="M 89.007812 -4.167969 L 85 -8.175781 M 89.007812 -8.421875 L 85 -12.429688 M 89.007812 -12.671875 L 85 -16.679688 M 89.007812 -16.925781 L 85 -20.933594 M 89.007812 -21.175781 L 85 -25.183594 M 89.007812 -25.429688 L 85 -29.4375 M 89.007812 -29.679688 L 85 -33.6875 M 89.007812 -33.933594 L 85 -37.941406 M 89.007812 -38.183594 L 85 -42.191406 M 89.007812 -42.4375 L 85 -46.445312 M 89.007812 -46.6875 L 85 -50.699219 M 89.007812 -50.941406 L 85 -54.949219 M 89.007812 -55.191406 L 85 -59.203125 M 89.007812 -59.445312 L 85 -63.453125 M 89.007812 -63.695312 L 85 -67.707031 M 89.007812 -67.949219 L 85 -71.957031 M 89.007812 -72.199219 L 85 -76.210938 M 89.007812 -76.453125 L 85 -80.460938 M 91.84375 -77.871094 L 95.851562 -81.878906 M 96.09375 -77.871094 L 100.101562 -81.878906 M 100.347656 -77.871094 L 104.355469 -81.878906 M 104.597656 -77.871094 L 108.605469 -81.878906 M 108.851562 -77.871094 L 112.859375 -81.878906 M 113.101562 -77.871094 L 117.109375 -81.878906 M 117.355469 -77.871094 L 121.363281 -81.878906 M 121.605469 -77.871094 L 125.613281 -81.878906 M 125.859375 -77.871094 L 129.867188 -81.878906 M 130.109375 -77.871094 L 134.117188 -81.878906 M 134.363281 -77.871094 L 138.371094 -81.878906 M 138.613281 -77.871094 L 142.621094 -81.878906 M 142.867188 -77.871094 L 146.875 -81.878906 M 147.117188 -77.871094 L 151.125 -81.878906 M 151.371094 -77.871094 L 155.378906 -81.878906 M 155.621094 -77.871094 L 159.632812 -81.878906 M 159.875 -77.871094 L 163.882812 -81.878906 M 164.125 -77.871094 L 168.136719 -81.878906 M 168.378906 -77.871094 L 172.386719 -81.878906 M 172.628906 -77.871094 L 176.640625 -81.878906 M 176.882812 -77.871094 L 180.890625 -81.878906 M 181.132812 -77.871094 L 185.144531 -81.878906 M 185.386719 -77.871094 L 189.394531 -81.878906 M 189.636719 -77.871094 L 193.648438 -81.878906 M 193.890625 -77.871094 L 197.898438 -81.878906 M 198.140625 -77.871094 L 202.152344 -81.878906 M 202.394531 -77.871094 L 206.402344 -81.878906 M 206.644531 -77.871094 L 210.65625 -81.878906 M 210.898438 -77.871094 L 214.90625 -81.878906 M 215.148438 -77.871094 L 219.160156 -81.878906 " transform="matrix(1,0,0,-1,0,0)"/>
<path style="fill:none;stroke-width:0.3985;stroke-linecap:butt;stroke-linejoin:miter;stroke:rgb(0%,0%,0%);stroke-opacity:1;stroke-miterlimit:10;" d="M 170.078125 -73.265625 C 170.078125 -70.71875 168.015625 -68.65625 165.472656 -68.65625 C 162.929688 -68.65625 160.867188 -70.71875 160.867188 -73.265625 C 160.867188 -75.808594 162.929688 -77.871094 165.472656 -77.871094 C 168.015625 -77.871094 170.078125 -75.808594 170.078125 -73.265625 Z M 142.441406 -73.265625 C 142.441406 -70.71875 140.378906 -68.65625 137.835938 -68.65625 C 135.289062 -68.65625 133.230469 -70.71875 133.230469 -73.265625 C 133.230469 -75.808594 135.289062 -77.871094 137.835938 -77.871094 C 140.378906 -77.871094 142.441406 -75.808594 142.441406 -73.265625 Z M 142.441406 -73.265625 " transform="matrix(1,0,0,-1,0,0)"/>
<path style="fill:none;stroke-width:0.3985;stroke-linecap:butt;stroke-linejoin:miter;stroke:rgb(0%,0%,100%);stroke-opacity:1;stroke-miterlimit:10;" d="M 89.007812 -57.601562 L 100.0625 -57.601562 M 114.804688 -60.367188 L 100.0625 -60.367188 L 100.0625 -53.917969 L 114.804688 -53.917969 " transform="matrix(1,0,0,-1,0,0)"/>
<path style="fill:none;stroke-width:0.3985;stroke-linecap:butt;stroke-linejoin:miter;stroke:rgb(0%,0%,100%);stroke-opacity:1;stroke-miterlimit:10;" d="M 111.117188 -59.445312 L 111.117188 -55.757812 M 111.117188 -57.601562 L 133.230469 -57.601562 " transform="matrix(1,0,0,-1,0,0)"/>
<path style=" stroke:none;fill-rule:nonzero;fill:rgb(0%,0%,100%);fill-opacity:1;" d="M 110.296875 68.375 C 109.75 68.96875 109.359375 69.1875 108.875 69.1875 C 108.3125 69.1875 107.96875 68.765625 107.96875 68.046875 C 107.96875 67.203125 108.3125 66.3125 108.875 65.734375 C 109.171875 65.4375 109.5625 65.25 109.953125 65.25 C 110.1875 65.25 110.328125 65.328125 110.328125 65.453125 C 110.328125 65.5 110.3125 65.546875 110.265625 65.640625 C 110.203125 65.765625 110.1875 65.84375 110.1875 65.921875 C 110.1875 66.171875 110.328125 66.3125 110.578125 66.3125 C 110.84375 66.3125 111.046875 66.109375 111.046875 65.84375 C 111.046875 65.390625 110.59375 65.046875 110 65.046875 C 108.5 65.046875 107.109375 66.5 107.109375 68.046875 C 107.109375 69 107.65625 69.546875 108.578125 69.546875 C 109.3125 69.546875 109.859375 69.234375 110.46875 68.484375 Z M 110.296875 68.375 "/>
<path style=" stroke:none;fill-rule:nonzero;fill:rgb(0%,0%,100%);fill-opacity:1;" d="M 113.378906 65.957031 L 112.050781 66.628906 L 112.050781 66.722656 C 112.144531 66.691406 112.222656 66.660156 112.253906 66.644531 C 112.394531 66.597656 112.519531 66.566406 112.582031 66.566406 C 112.738281 66.566406 112.816406 66.675781 112.816406 66.910156 L 112.816406 70.253906 C 112.816406 70.503906 112.753906 70.675781 112.628906 70.738281 C 112.519531 70.800781 112.425781 70.816406 112.113281 70.832031 L 112.113281 70.941406 L 114.144531 70.941406 L 114.144531 70.832031 C 113.566406 70.816406 113.441406 70.753906 113.441406 70.394531 L 113.441406 65.972656 Z M 113.378906 65.957031 "/>
<path style="fill:none;stroke-width:0.3985;stroke-linecap:butt;stroke-linejoin:miter;stroke:rgb(0%,0%,100%);stroke-opacity:1;stroke-miterlimit:10;" d="M 89.007812 -42.863281 L 89.207031 -42.863281 C 89.828125 -42.863281 90.140625 -40.871094 90.761719 -40.871094 C 91.214844 -40.871094 91.601562 -41.84375 92.007812 -42.863281 C 92.414062 -43.882812 92.804688 -44.855469 93.253906 -44.855469 C 93.707031 -44.855469 94.09375 -43.882812 94.5 -42.863281 C 94.90625 -41.84375 95.292969 -40.871094 95.746094 -40.871094 C 96.195312 -40.871094 96.585938 -41.84375 96.992188 -42.863281 C 97.394531 -43.882812 97.785156 -44.855469 98.234375 -44.855469 C 98.6875 -44.855469 99.074219 -43.882812 99.480469 -42.863281 C 99.886719 -41.84375 100.277344 -40.871094 100.726562 -40.871094 C 101.175781 -40.871094 101.566406 -41.84375 101.972656 -42.863281 C 102.378906 -43.882812 102.765625 -44.855469 103.21875 -44.855469 C 103.667969 -44.855469 104.054688 -43.882812 104.460938 -42.863281 C 104.867188 -41.84375 105.257812 -40.871094 105.707031 -40.871094 C 106.160156 -40.871094 106.546875 -41.84375 106.953125 -42.863281 C 107.359375 -43.882812 107.746094 -44.855469 108.199219 -44.855469 C 108.648438 -44.855469 109.039062 -43.882812 109.445312 -42.863281 C 109.851562 -41.84375 110.238281 -40.871094 110.6875 -40.871094 C 111.140625 -40.871094 111.527344 -41.84375 111.933594 -42.863281 C 112.339844 -43.882812 112.730469 -44.855469 113.179688 -44.855469 C 113.628906 -44.855469 114.019531 -43.882812 114.425781 -42.863281 C 114.832031 -41.84375 115.21875 -40.871094 115.671875 -40.871094 C 116.121094 -40.871094 116.511719 -41.84375 116.914062 -42.863281 C 117.320312 -43.882812 117.710938 -44.855469 118.160156 -44.855469 C 118.613281 -44.855469 119 -43.882812 119.40625 -42.863281 C 119.8125 -41.84375 120.199219 -40.871094 120.652344 -40.871094 C 121.101562 -40.871094 121.492188 -41.84375 121.898438 -42.863281 C 122.304688 -43.882812 122.691406 -44.855469 123.144531 -44.855469 C 123.59375 -44.855469 123.980469 -43.882812 124.386719 -42.863281 C 124.792969 -41.84375 125.183594 -40.871094 125.632812 -40.871094 C 126.085938 -40.871094 126.472656 -41.84375 126.878906 -42.863281 C 127.285156 -43.882812 127.671875 -44.855469 128.125 -44.855469 C 128.574219 -44.855469 128.964844 -43.882812 129.371094 -42.863281 C 129.773438 -41.84375 130.164062 -40.871094 130.613281 -40.871094 C 131.238281 -40.871094 131.546875 -42.863281 132.171875 -42.863281 L 133.230469 -42.863281 " transform="matrix(1,0,0,-1,0,0)"/>
<path style=" stroke:none;fill-rule:nonzero;fill:rgb(0%,0%,100%);fill-opacity:1;" d="M 110.9375 35.746094 L 110.796875 36.011719 C 110.609375 36.324219 110.484375 36.433594 110.34375 36.433594 C 110.125 36.433594 109.921875 36.105469 109.53125 35.152344 C 109.484375 35.011719 109.328125 34.652344 109.171875 34.261719 C 110.625 32.964844 110.9375 32.761719 111.40625 32.730469 L 111.40625 32.574219 L 109.578125 32.574219 L 109.578125 32.730469 L 109.75 32.730469 C 110 32.730469 110.125 32.808594 110.125 32.917969 C 110.125 33.105469 109.640625 33.605469 108.703125 34.308594 C 108.5625 34.417969 108.453125 34.511719 108.28125 34.636719 L 109.46875 30.074219 L 109.421875 30.027344 C 108.84375 30.167969 108.453125 30.230469 107.875 30.292969 L 107.875 30.464844 C 108.34375 30.449219 108.53125 30.527344 108.546875 30.714844 C 108.53125 30.871094 108.453125 31.152344 108.328125 31.605469 C 108.28125 31.746094 108.265625 31.855469 108.234375 31.933594 L 108.21875 32.027344 L 106.953125 36.839844 L 107.703125 36.839844 L 108.171875 35.042969 L 108.59375 34.730469 C 108.75 35.167969 109.015625 35.777344 109.1875 36.136719 C 109.515625 36.761719 109.6875 36.949219 109.984375 36.949219 C 110.375 36.949219 110.640625 36.699219 111.09375 35.855469 Z M 110.9375 35.746094 "/>
<path style=" stroke:none;fill-rule:nonzero;fill:rgb(0%,0%,100%);fill-opacity:1;" d="M 113.378906 33.363281 L 112.050781 34.035156 L 112.050781 34.128906 C 112.144531 34.097656 112.222656 34.066406 112.253906 34.050781 C 112.394531 34.003906 112.519531 33.972656 112.582031 33.972656 C 112.738281 33.972656 112.816406 34.082031 112.816406 34.316406 L 112.816406 37.660156 C 112.816406 37.910156 112.753906 38.082031 112.628906 38.144531 C 112.519531 38.207031 112.425781 38.222656 112.113281 38.238281 L 112.113281 38.347656 L 114.144531 38.347656 L 114.144531 38.238281 C 113.566406 38.222656 113.441406 38.160156 113.441406 37.800781 L 113.441406 33.378906 Z M 113.378906 33.363281 "/>
<path style="fill:none;stroke-width:0.79701;stroke-linecap:butt;stroke-linejoin:miter;stroke:rgb(0%,49.803162%,0%);stroke-opacity:1;stroke-miterlimit:10;" d="M 151.652344 -68.65625 L 183.898438 -124.507812 " transform="matrix(1,0,0,-1,0,0)"/>
<path style=" stroke:none;fill-rule:nonzero;fill:rgb(0%,49.803162%,0%);fill-opacity:1;" d="M 171.652344 99.027344 C 171.636719 99.058594 171.605469 99.089844 171.605469 99.121094 C 171.605469 99.167969 171.667969 99.261719 171.730469 99.261719 C 171.777344 99.261719 171.808594 99.230469 172.089844 98.949219 C 172.167969 98.871094 172.371094 98.683594 172.449219 98.605469 C 172.542969 99.386719 172.824219 100.136719 173.558594 100.136719 C 173.964844 100.136719 174.308594 99.902344 174.511719 99.746094 C 174.652344 99.652344 175.121094 99.261719 175.121094 99.167969 C 175.121094 99.136719 175.089844 99.042969 175.011719 99.042969 C 174.980469 99.042969 174.964844 99.058594 174.871094 99.136719 C 174.230469 99.761719 173.871094 99.917969 173.574219 99.917969 C 173.136719 99.917969 172.964844 99.386719 172.964844 98.621094 C 172.964844 98.558594 172.996094 98.105469 173.027344 98.042969 C 173.042969 98.011719 173.042969 97.996094 173.246094 97.792969 C 174.042969 96.996094 175.464844 95.308594 175.464844 93.761719 C 175.464844 93.589844 175.464844 92.980469 174.871094 92.980469 C 174.042969 92.980469 173.308594 94.621094 173.214844 94.855469 C 172.730469 95.949219 172.417969 97.105469 172.417969 98.292969 Z M 173.074219 97.636719 C 173.089844 97.511719 173.527344 95.308594 174.089844 94.136719 C 174.355469 93.605469 174.574219 93.199219 174.886719 93.199219 C 175.230469 93.199219 175.230469 93.558594 175.230469 93.714844 C 175.230469 95.386719 173.542969 97.136719 173.074219 97.636719 Z M 173.074219 97.636719 "/>
<path style="fill:none;stroke-width:0.3985;stroke-linecap:butt;stroke-linejoin:miter;stroke:rgb(100%,0%,0%);stroke-opacity:1;stroke-miterlimit:10;" d="M 183.898438 -124.507812 L 165.472656 -124.507812 M 165.472656 -126.351562 L 165.472656 -122.664062 " transform="matrix(1,0,0,-1,0,0)"/>
<path style=" stroke:none;fill-rule:nonzero;fill:rgb(100%,0%,0%);fill-opacity:1;" d="M 164.652344 133.433594 C 164.105469 134.027344 163.714844 134.246094 163.230469 134.246094 C 162.667969 134.246094 162.324219 133.824219 162.324219 133.105469 C 162.324219 132.261719 162.667969 131.371094 163.230469 130.792969 C 163.527344 130.496094 163.917969 130.308594 164.308594 130.308594 C 164.542969 130.308594 164.683594 130.386719 164.683594 130.511719 C 164.683594 130.558594 164.667969 130.605469 164.621094 130.699219 C 164.558594 130.824219 164.542969 130.902344 164.542969 130.980469 C 164.542969 131.230469 164.683594 131.371094 164.933594 131.371094 C 165.199219 131.371094 165.402344 131.167969 165.402344 130.902344 C 165.402344 130.449219 164.949219 130.105469 164.355469 130.105469 C 162.855469 130.105469 161.464844 131.558594 161.464844 133.105469 C 161.464844 134.058594 162.011719 134.605469 162.933594 134.605469 C 163.667969 134.605469 164.214844 134.292969 164.824219 133.542969 Z M 164.652344 133.433594 "/>
<path style=" stroke:none;fill-rule:nonzero;fill:rgb(100%,0%,0%);fill-opacity:1;" d="M 169.09375 134.988281 L 169 134.957031 C 168.734375 135.378906 168.625 135.441406 168.296875 135.441406 L 166.53125 135.441406 L 167.78125 134.144531 C 168.4375 133.457031 168.71875 132.894531 168.71875 132.316406 C 168.71875 131.582031 168.125 131.019531 167.359375 131.019531 C 166.953125 131.019531 166.5625 131.175781 166.296875 131.472656 C 166.0625 131.722656 165.953125 131.957031 165.828125 132.488281 L 165.984375 132.519531 C 166.265625 131.800781 166.53125 131.566406 167.046875 131.566406 C 167.671875 131.566406 168.09375 131.988281 168.09375 132.597656 C 168.09375 133.175781 167.75 133.863281 167.125 134.519531 L 165.8125 135.910156 L 165.8125 136.003906 L 168.6875 136.003906 Z M 169.09375 134.988281 "/>
<path style="fill:none;stroke-width:0.3985;stroke-linecap:butt;stroke-linejoin:miter;stroke:rgb(100%,0%,0%);stroke-opacity:1;stroke-miterlimit:10;" d="M 151.652344 -124.488281 L 159.023438 -124.488281 M 173.765625 -127.710938 L 159.023438 -127.710938 L 159.023438 -121.261719 L 173.765625 -121.261719 " transform="matrix(1,0,0,-1,0,0)"/>
<path style="fill-rule:nonzero;fill:rgb(100%,94.116211%,0%);fill-opacity:1;stroke-width:0.3985;stroke-linecap:butt;stroke-linejoin:miter;stroke:rgb(100%,49.803162%,0%);stroke-opacity:1;stroke-miterlimit:10;" d="M 191.269531 -124.507812 C 191.269531 -120.4375 187.96875 -117.136719 183.898438 -117.136719 C 179.828125 -117.136719 176.527344 -120.4375 176.527344 -124.507812 C 176.527344 -128.578125 179.828125 -131.878906 183.898438 -131.878906 C 187.96875 -131.878906 191.269531 -128.578125 191.269531 -124.507812 Z M 191.269531 -124.507812 " transform="matrix(1,0,0,-1,0,0)"/>
<path style=" stroke:none;fill-rule:nonzero;fill:rgb(49.803162%,24.705505%,0%);fill-opacity:1;" d="M 201.765625 124.746094 C 201.65625 124.871094 201.578125 124.964844 201.546875 125.011719 C 201.265625 125.371094 201.0625 125.542969 200.90625 125.542969 C 200.828125 125.542969 200.78125 125.480469 200.78125 125.386719 C 200.78125 125.324219 200.828125 125.167969 200.875 124.933594 L 201.5625 122.433594 C 201.5625 122.386719 201.59375 122.214844 201.59375 122.152344 C 201.59375 121.792969 201.34375 121.527344 201 121.527344 C 200.8125 121.527344 200.609375 121.589844 200.375 121.746094 C 199.890625 122.058594 199.46875 122.542969 198.78125 123.636719 C 199.03125 122.871094 199.1875 122.308594 199.1875 122.121094 C 199.1875 121.777344 198.953125 121.527344 198.625 121.527344 C 198.015625 121.527344 197.3125 122.183594 196.390625 123.621094 L 196.96875 121.542969 L 196.9375 121.527344 C 196.390625 121.636719 196.171875 121.683594 195.34375 121.824219 L 195.34375 121.996094 L 195.59375 121.996094 C 195.859375 121.996094 195.984375 122.058594 195.984375 122.214844 C 195.984375 122.324219 195.765625 123.230469 195.40625 124.496094 C 195.171875 125.308594 195.140625 125.402344 195.015625 125.917969 L 195.765625 125.917969 C 196.234375 124.339844 196.390625 123.964844 196.71875 123.449219 C 197.28125 122.605469 197.875 122.042969 198.21875 122.042969 C 198.34375 122.042969 198.421875 122.136719 198.421875 122.292969 C 198.421875 122.386719 198.09375 123.589844 197.46875 125.917969 L 198.21875 125.917969 C 198.625 124.355469 198.8125 123.871094 199.328125 123.152344 C 199.8125 122.480469 200.3125 122.042969 200.609375 122.042969 C 200.71875 122.042969 200.796875 122.136719 200.796875 122.246094 C 200.796875 122.292969 200.78125 122.417969 200.734375 122.605469 L 200.15625 124.886719 C 200.0625 125.261719 200.03125 125.449219 200.03125 125.542969 C 200.03125 125.855469 200.171875 126.011719 200.421875 126.011719 C 200.890625 126.011719 201.328125 125.683594 201.859375 124.933594 L 201.90625 124.871094 Z M 201.765625 124.746094 "/>
<path style=" stroke:none;fill-rule:nonzero;fill:rgb(49.803162%,24.705505%,0%);fill-opacity:1;" d="M 205.585938 126.40625 L 205.492188 126.375 C 205.226562 126.796875 205.117188 126.859375 204.789062 126.859375 L 203.023438 126.859375 L 204.273438 125.5625 C 204.929688 124.875 205.210938 124.3125 205.210938 123.734375 C 205.210938 123 204.617188 122.4375 203.851562 122.4375 C 203.445312 122.4375 203.054688 122.59375 202.789062 122.890625 C 202.554688 123.140625 202.445312 123.375 202.320312 123.90625 L 202.476562 123.9375 C 202.757812 123.21875 203.023438 122.984375 203.539062 122.984375 C 204.164062 122.984375 204.585938 123.40625 204.585938 124.015625 C 204.585938 124.59375 204.242188 125.28125 203.617188 125.9375 L 202.304688 127.328125 L 202.304688 127.421875 L 205.179688 127.421875 Z M 205.585938 126.40625 "/>
<path style="fill:none;stroke-width:0.3985;stroke-linecap:butt;stroke-linejoin:miter;stroke:rgb(49.803162%,24.705505%,0%);stroke-opacity:1;stroke-miterlimit:10;" d="M 151.652344 -96.296875 C 156.503906 -96.296875 161.273438 -95.019531 162.367188 -94.386719 " transform="matrix(1,0,0,-1,0,0)"/>
<path style=" stroke:none;fill-rule:nonzero;fill:rgb(49.803162%,24.705505%,0%);fill-opacity:1;" d="M 165.472656 92.59375 C 164.453125 92.953125 162.660156 93.296875 161.273438 93.292969 L 162.769531 95.878906 C 163.457031 94.679688 164.652344 93.296875 165.472656 92.59375 "/>
<path style=" stroke:none;fill-rule:nonzero;fill:rgb(49.803162%,24.705505%,0%);fill-opacity:1;" d="M 159.40625 98.890625 C 159.03125 98.890625 158.59375 99.0625 158.171875 99.359375 C 157.40625 99.90625 156.859375 100.984375 156.625 102.390625 C 156.40625 103.6875 156.5625 104.71875 157.0625 105.28125 C 157.390625 105.65625 157.828125 105.859375 158.25 105.859375 C 158.640625 105.859375 159.046875 105.703125 159.484375 105.390625 C 160.25 104.84375 160.796875 103.78125 161.015625 102.4375 C 161.25 101.0625 161.109375 100.046875 160.609375 99.46875 C 160.28125 99.109375 159.859375 98.890625 159.40625 98.890625 Z M 159.96875 102.625 C 159.75 103.765625 159.53125 104.40625 159.15625 104.9375 C 158.921875 105.25 158.5625 105.46875 158.3125 105.46875 C 158.0625 105.46875 157.765625 105.234375 157.671875 104.9375 C 157.453125 104.40625 157.4375 103.765625 157.609375 102.625 Z M 157.703125 102.0625 C 157.90625 100.984375 158.15625 100.328125 158.515625 99.796875 C 158.734375 99.5 159.09375 99.265625 159.34375 99.265625 C 159.59375 99.265625 159.890625 99.5 160 99.796875 C 160.203125 100.328125 160.21875 100.984375 160.0625 102.0625 Z M 157.703125 102.0625 "/>
</g>
</svg>
