<?xml version="1.0" encoding="UTF-8"?>
<svg xmlns="http://www.w3.org/2000/svg" xmlns:xlink="http://www.w3.org/1999/xlink" width="233.528168pt" height="16.522821pt" viewBox="0 0 233.528168 16.522821" version="1.1">
<defs>
<clipPath id="clip1">
  <path d="M 155 1 L 233.527344 1 L 233.527344 9 L 155 9 Z M 155 1 "/>
</clipPath>
<clipPath id="clip2">
  <path d="M 231 11 L 233.527344 11 L 233.527344 15 L 231 15 Z M 231 11 "/>
</clipPath>
<clipPath id="clip3">
  <path d="M 177.109375 9.550781 L 182.109375 9.550781 L 182.109375 16.523438 L 177.109375 16.523438 Z M 177.109375 9.550781 "/>
</clipPath>
<clipPath id="clip4">
  <path d="M 198.109375 9.550781 L 202 9.550781 L 202 16.523438 L 198.109375 16.523438 Z M 198.109375 9.550781 "/>
</clipPath>
<clipPath id="clip5">
  <path d="M 208.109375 12.550781 L 211 12.550781 L 211 16 L 208.109375 16 Z M 208.109375 12.550781 "/>
</clipPath>
<clipPath id="clip6">
  <path d="M 38.109375 12 L 41.109375 12 L 41.109375 16.523438 L 38.109375 16.523438 Z M 38.109375 12 "/>
</clipPath>
<clipPath id="clip7">
  <path d="M 0 0 L 84 0 L 84 15.550781 L 0 15.550781 Z M 0 0 "/>
</clipPath>
</defs>
<g id="surface1">
<g clip-path="url(#clip1)" clip-rule="nonzero">
<path style="fill:none;stroke-width:0.3985;stroke-linecap:butt;stroke-linejoin:miter;stroke:rgb(100%,38.822937%,38.822937%);stroke-opacity:1;stroke-miterlimit:10;" d="M 155.683594 -1.644531 L 233.328125 -1.644531 L 233.328125 -8.113281 L 155.683594 -8.113281 Z M 155.683594 -1.644531 " transform="matrix(1,0,0,-1,0,0)"/>
</g>
<path style=" stroke:none;fill-rule:nonzero;fill:rgb(100%,38.822937%,38.822937%);fill-opacity:1;" d="M 158.171875 13.25 C 158.171875 12.890625 158.171875 11.53125 156.859375 11.53125 C 155.5625 11.53125 155.5625 12.890625 155.5625 13.25 C 155.5625 13.609375 155.5625 14.953125 156.859375 14.953125 C 158.171875 14.953125 158.171875 13.609375 158.171875 13.25 Z M 156.859375 14.78125 C 156.6875 14.78125 156.265625 14.71875 156.140625 14.21875 C 156.0625 13.953125 156.0625 13.59375 156.0625 13.1875 C 156.0625 12.8125 156.0625 12.46875 156.140625 12.1875 C 156.265625 11.765625 156.65625 11.6875 156.859375 11.6875 C 157.234375 11.6875 157.5 11.875 157.59375 12.234375 C 157.671875 12.484375 157.671875 12.890625 157.671875 13.1875 C 157.671875 13.53125 157.671875 13.9375 157.59375 14.234375 C 157.46875 14.71875 157.0625 14.78125 156.859375 14.78125 Z M 156.859375 14.78125 "/>
<path style=" stroke:none;fill-rule:nonzero;fill:rgb(100%,38.822937%,38.822937%);fill-opacity:1;" d="M 159.875 14.546875 C 159.875 14.375 159.734375 14.234375 159.5625 14.234375 C 159.40625 14.234375 159.265625 14.375 159.265625 14.546875 C 159.265625 14.703125 159.390625 14.84375 159.5625 14.84375 C 159.734375 14.84375 159.875 14.703125 159.875 14.546875 Z M 159.875 14.546875 "/>
<path style=" stroke:none;fill-rule:nonzero;fill:rgb(100%,38.822937%,38.822937%);fill-opacity:1;" d="M 162.707031 13.046875 C 163.222656 12.828125 163.378906 12.5625 163.378906 12.28125 C 163.378906 11.765625 162.816406 11.53125 162.269531 11.53125 C 161.644531 11.53125 161.144531 11.875 161.144531 12.375 C 161.144531 12.828125 161.535156 13.03125 161.785156 13.171875 C 161.269531 13.375 160.972656 13.671875 160.972656 14.078125 C 160.972656 14.671875 161.628906 14.953125 162.253906 14.953125 C 162.957031 14.953125 163.550781 14.578125 163.550781 13.984375 C 163.550781 13.453125 163.035156 13.1875 162.707031 13.046875 Z M 161.722656 12.53125 C 161.519531 12.421875 161.441406 12.296875 161.441406 12.171875 C 161.441406 11.859375 161.863281 11.71875 162.253906 11.71875 C 162.660156 11.71875 163.066406 11.90625 163.066406 12.28125 C 163.066406 12.71875 162.503906 12.9375 162.503906 12.9375 C 162.488281 12.9375 162.488281 12.9375 162.441406 12.90625 Z M 162.003906 13.28125 L 162.785156 13.671875 C 162.957031 13.765625 163.207031 13.90625 163.207031 14.171875 C 163.207031 14.578125 162.707031 14.75 162.269531 14.75 C 161.816406 14.75 161.316406 14.53125 161.316406 14.078125 C 161.316406 13.578125 161.847656 13.34375 162.003906 13.28125 Z M 162.003906 13.28125 "/>
<path style=" stroke:none;fill-rule:nonzero;fill:rgb(100%,38.822937%,38.822937%);fill-opacity:1;" d="M 227.035156 11.671875 C 227.035156 11.53125 227.019531 11.53125 226.847656 11.53125 C 226.503906 11.84375 225.941406 11.84375 225.847656 11.84375 L 225.769531 11.84375 L 225.769531 12.0625 L 225.847656 12.0625 C 225.957031 12.0625 226.285156 12.046875 226.582031 11.921875 L 226.582031 14.421875 C 226.582031 14.5625 226.582031 14.625 226.050781 14.625 L 225.800781 14.625 L 225.800781 14.84375 C 226.066406 14.828125 226.519531 14.828125 226.800781 14.828125 C 227.097656 14.828125 227.535156 14.828125 227.816406 14.84375 L 227.816406 14.625 L 227.566406 14.625 C 227.035156 14.625 227.035156 14.5625 227.035156 14.421875 Z M 227.035156 11.671875 "/>
<path style=" stroke:none;fill-rule:nonzero;fill:rgb(100%,38.822937%,38.822937%);fill-opacity:1;" d="M 229.753906 14.546875 C 229.753906 14.375 229.613281 14.234375 229.441406 14.234375 C 229.285156 14.234375 229.144531 14.375 229.144531 14.546875 C 229.144531 14.703125 229.269531 14.84375 229.441406 14.84375 C 229.613281 14.84375 229.753906 14.703125 229.753906 14.546875 Z M 229.753906 14.546875 "/>
<g clip-path="url(#clip2)" clip-rule="nonzero">
<path style=" stroke:none;fill-rule:nonzero;fill:rgb(100%,38.822937%,38.822937%);fill-opacity:1;" d="M 232.433594 11.671875 C 232.433594 11.53125 232.417969 11.53125 232.246094 11.53125 C 231.902344 11.84375 231.339844 11.84375 231.246094 11.84375 L 231.167969 11.84375 L 231.167969 12.0625 L 231.246094 12.0625 C 231.355469 12.0625 231.683594 12.046875 231.980469 11.921875 L 231.980469 14.421875 C 231.980469 14.5625 231.980469 14.625 231.449219 14.625 L 231.199219 14.625 L 231.199219 14.84375 C 231.464844 14.828125 231.917969 14.828125 232.199219 14.828125 C 232.496094 14.828125 232.933594 14.828125 233.214844 14.84375 L 233.214844 14.625 L 232.964844 14.625 C 232.433594 14.625 232.433594 14.5625 232.433594 14.421875 Z M 232.433594 11.671875 "/>
</g>
<g clip-path="url(#clip3)" clip-rule="nonzero">
<path style=" stroke:none;fill-rule:nonzero;fill:rgb(100%,38.822937%,38.822937%);fill-opacity:1;" d="M 182.019531 10.933594 C 182.019531 10.308594 181.488281 9.964844 180.878906 9.964844 C 179.925781 9.964844 179.222656 11.042969 179.050781 11.746094 L 177.957031 16.136719 C 177.941406 16.183594 178.003906 16.230469 178.050781 16.230469 C 178.113281 16.230469 178.175781 16.214844 178.191406 16.167969 L 178.644531 14.308594 C 178.800781 14.636719 179.128906 14.933594 179.691406 14.933594 C 180.675781 14.933594 181.769531 14.230469 181.769531 13.167969 C 181.769531 12.746094 181.582031 12.339844 181.222656 12.105469 C 181.566406 11.886719 182.019531 11.496094 182.019531 10.933594 Z M 180.644531 12.089844 C 180.535156 12.121094 180.488281 12.152344 180.285156 12.152344 C 180.175781 12.152344 180.003906 12.136719 179.957031 12.105469 C 180.035156 12.074219 180.222656 12.058594 180.285156 12.058594 C 180.394531 12.058594 180.550781 12.074219 180.644531 12.089844 Z M 181.566406 10.808594 C 181.566406 11.167969 181.378906 11.714844 180.957031 11.964844 C 180.816406 11.917969 180.691406 11.871094 180.300781 11.871094 C 180.050781 11.871094 179.707031 11.886719 179.707031 12.136719 C 179.707031 12.308594 179.925781 12.339844 180.269531 12.339844 C 180.519531 12.339844 180.722656 12.292969 180.941406 12.230469 C 181.144531 12.386719 181.253906 12.667969 181.253906 12.980469 C 181.253906 13.980469 180.566406 14.746094 179.722656 14.746094 C 179.175781 14.746094 178.800781 14.417969 178.800781 13.855469 C 178.800781 13.792969 178.800781 13.714844 178.816406 13.652344 L 179.285156 11.808594 C 179.441406 11.136719 180.066406 10.152344 180.863281 10.152344 C 181.285156 10.152344 181.566406 10.371094 181.566406 10.808594 Z M 181.566406 10.808594 "/>
</g>
<path style=" stroke:none;fill-rule:nonzero;fill:rgb(100%,38.822937%,38.822937%);fill-opacity:1;" d="M 190.113281 12.527344 C 190.207031 12.527344 190.363281 12.527344 190.363281 12.355469 C 190.363281 12.183594 190.207031 12.183594 190.113281 12.183594 L 185.503906 12.183594 C 185.410156 12.183594 185.238281 12.183594 185.238281 12.355469 C 185.238281 12.527344 185.394531 12.527344 185.503906 12.527344 Z M 190.113281 14.058594 C 190.207031 14.058594 190.363281 14.058594 190.363281 13.902344 C 190.363281 13.714844 190.207031 13.714844 190.113281 13.714844 L 185.503906 13.714844 C 185.394531 13.714844 185.238281 13.714844 185.238281 13.902344 C 185.238281 14.058594 185.410156 14.058594 185.503906 14.058594 Z M 190.113281 14.058594 "/>
<path style=" stroke:none;fill-rule:nonzero;fill:rgb(100%,38.822937%,38.822937%);fill-opacity:1;" d="M 197.90625 12.292969 C 197.90625 12.089844 197.8125 11.792969 197.53125 11.792969 C 197.359375 11.792969 197.171875 12.011719 197.171875 12.183594 C 197.171875 12.417969 197.546875 12.464844 197.546875 12.933594 C 197.546875 13.386719 197.09375 14.386719 196.3125 14.386719 C 195.984375 14.386719 195.703125 14.152344 195.609375 13.839844 C 195.703125 13.699219 195.859375 13.214844 195.859375 13.027344 C 195.859375 12.933594 195.796875 12.824219 195.6875 12.824219 C 195.328125 12.824219 195.296875 13.574219 195.296875 13.824219 C 195.109375 14.074219 194.75 14.386719 194.296875 14.386719 C 193.921875 14.386719 193.65625 14.042969 193.65625 13.574219 C 193.65625 12.761719 194.359375 12.089844 194.359375 11.980469 C 194.359375 11.902344 194.296875 11.824219 194.21875 11.824219 C 194.15625 11.824219 194.109375 11.855469 194.0625 11.917969 C 193.96875 12.027344 193.875 12.183594 193.796875 12.324219 C 193.546875 12.746094 193.375 13.324219 193.375 13.839844 C 193.375 14.386719 193.59375 14.933594 194.234375 14.933594 C 194.703125 14.933594 195.109375 14.636719 195.359375 14.261719 C 195.5 14.683594 195.796875 14.933594 196.25 14.933594 C 197.46875 14.933594 197.90625 12.871094 197.90625 12.292969 Z M 197.90625 12.292969 "/>
<g clip-path="url(#clip4)" clip-rule="nonzero">
<path style=" stroke:none;fill-rule:nonzero;fill:rgb(100%,38.822937%,38.822937%);fill-opacity:1;" d="M 201.894531 9.949219 C 201.941406 9.855469 201.941406 9.839844 201.941406 9.824219 C 201.941406 9.714844 201.847656 9.652344 201.769531 9.652344 C 201.660156 9.652344 201.628906 9.730469 201.582031 9.824219 L 198.988281 16.308594 C 198.941406 16.402344 198.941406 16.417969 198.941406 16.433594 C 198.941406 16.542969 199.035156 16.605469 199.113281 16.605469 C 199.238281 16.605469 199.269531 16.527344 199.300781 16.433594 Z M 201.894531 9.949219 "/>
</g>
<path style=" stroke:none;fill-rule:nonzero;fill:rgb(100%,38.822937%,38.822937%);fill-opacity:1;" d="M 207.257812 12.292969 C 207.257812 12.089844 207.164062 11.792969 206.882812 11.792969 C 206.710938 11.792969 206.523438 12.011719 206.523438 12.183594 C 206.523438 12.417969 206.898438 12.464844 206.898438 12.933594 C 206.898438 13.386719 206.445312 14.386719 205.664062 14.386719 C 205.335938 14.386719 205.054688 14.152344 204.960938 13.839844 C 205.054688 13.699219 205.210938 13.214844 205.210938 13.027344 C 205.210938 12.933594 205.148438 12.824219 205.039062 12.824219 C 204.679688 12.824219 204.648438 13.574219 204.648438 13.824219 C 204.460938 14.074219 204.101562 14.386719 203.648438 14.386719 C 203.273438 14.386719 203.007812 14.042969 203.007812 13.574219 C 203.007812 12.761719 203.710938 12.089844 203.710938 11.980469 C 203.710938 11.902344 203.648438 11.824219 203.570312 11.824219 C 203.507812 11.824219 203.460938 11.855469 203.414062 11.917969 C 203.320312 12.027344 203.226562 12.183594 203.148438 12.324219 C 202.898438 12.746094 202.726562 13.324219 202.726562 13.839844 C 202.726562 14.386719 202.945312 14.933594 203.585938 14.933594 C 204.054688 14.933594 204.460938 14.636719 204.710938 14.261719 C 204.851562 14.683594 205.148438 14.933594 205.601562 14.933594 C 206.820312 14.933594 207.257812 12.871094 207.257812 12.292969 Z M 207.257812 12.292969 "/>
<g clip-path="url(#clip5)" clip-rule="nonzero">
<path style=" stroke:none;fill-rule:nonzero;fill:rgb(100%,38.822937%,38.822937%);fill-opacity:1;" d="M 209.492188 12.695312 C 209.492188 12.554688 209.476562 12.554688 209.304688 12.554688 C 208.960938 12.867188 208.398438 12.867188 208.304688 12.867188 L 208.226562 12.867188 L 208.226562 13.085938 L 208.304688 13.085938 C 208.414062 13.085938 208.742188 13.070312 209.039062 12.945312 L 209.039062 15.445312 C 209.039062 15.585938 209.039062 15.648438 208.507812 15.648438 L 208.257812 15.648438 L 208.257812 15.867188 C 208.523438 15.851562 208.976562 15.851562 209.257812 15.851562 C 209.554688 15.851562 209.992188 15.851562 210.273438 15.867188 L 210.273438 15.648438 L 210.023438 15.648438 C 209.492188 15.648438 209.492188 15.585938 209.492188 15.445312 Z M 209.492188 12.695312 "/>
</g>
<path style=" stroke:none;fill-rule:nonzero;fill:rgb(38.822937%,38.822937%,100%);fill-opacity:1;" d="M 17.148438 12.507812 L 17.976562 12.507812 C 18.632812 12.507812 18.664062 12.632812 18.664062 12.867188 C 18.664062 12.914062 18.664062 12.992188 18.601562 13.210938 C 18.601562 13.242188 18.585938 13.304688 18.585938 13.320312 C 18.585938 13.335938 18.585938 13.429688 18.710938 13.429688 C 18.804688 13.429688 18.835938 13.351562 18.851562 13.257812 L 19.273438 11.554688 C 19.289062 11.539062 19.304688 11.429688 19.304688 11.414062 C 19.304688 11.382812 19.289062 11.304688 19.179688 11.304688 C 19.085938 11.304688 19.070312 11.382812 19.054688 11.476562 C 18.882812 12.101562 18.710938 12.242188 17.992188 12.242188 L 17.226562 12.242188 L 17.726562 10.226562 C 17.789062 9.945312 17.804688 9.929688 18.132812 9.929688 L 19.304688 9.929688 C 20.257812 9.929688 20.523438 10.132812 20.523438 10.820312 C 20.523438 10.976562 20.476562 11.195312 20.476562 11.335938 C 20.476562 11.429688 20.539062 11.476562 20.601562 11.476562 C 20.710938 11.476562 20.726562 11.398438 20.742188 11.273438 L 20.882812 9.914062 C 20.882812 9.867188 20.882812 9.820312 20.882812 9.773438 C 20.882812 9.664062 20.789062 9.664062 20.648438 9.664062 L 16.554688 9.664062 C 16.414062 9.664062 16.320312 9.664062 16.320312 9.804688 C 16.320312 9.929688 16.414062 9.929688 16.539062 9.929688 C 16.601562 9.929688 16.710938 9.929688 16.851562 9.945312 C 17.007812 9.960938 17.039062 9.976562 17.039062 10.054688 C 17.039062 10.101562 17.039062 10.132812 17.007812 10.210938 L 15.945312 14.460938 C 15.882812 14.757812 15.867188 14.820312 15.273438 14.820312 C 15.117188 14.820312 15.023438 14.820312 15.023438 14.976562 C 15.023438 15.007812 15.054688 15.085938 15.148438 15.085938 C 15.320312 15.085938 15.507812 15.054688 15.679688 15.054688 L 16.789062 15.054688 C 16.929688 15.070312 17.226562 15.085938 17.367188 15.085938 C 17.429688 15.085938 17.539062 15.085938 17.539062 14.929688 C 17.539062 14.820312 17.445312 14.820312 17.273438 14.820312 C 17.117188 14.820312 17.054688 14.820312 16.867188 14.804688 C 16.648438 14.789062 16.617188 14.757812 16.617188 14.664062 C 16.617188 14.648438 16.617188 14.601562 16.664062 14.492188 Z M 17.148438 12.507812 "/>
<path style=" stroke:none;fill-rule:nonzero;fill:rgb(38.822937%,38.822937%,100%);fill-opacity:1;" d="M 29.351562 12.429688 C 29.460938 12.429688 29.632812 12.429688 29.632812 12.242188 C 29.632812 12.070312 29.429688 12.070312 29.320312 12.070312 L 24.304688 12.070312 C 24.179688 12.070312 23.992188 12.070312 23.992188 12.242188 C 23.992188 12.429688 24.148438 12.429688 24.273438 12.429688 Z M 29.320312 14.117188 C 29.429688 14.117188 29.632812 14.117188 29.632812 13.945312 C 29.632812 13.757812 29.460938 13.757812 29.351562 13.757812 L 24.273438 13.757812 C 24.148438 13.757812 23.992188 13.757812 23.992188 13.945312 C 23.992188 14.117188 24.179688 14.117188 24.304688 14.117188 Z M 29.320312 14.117188 "/>
<path style=" stroke:none;fill-rule:nonzero;fill:rgb(38.822937%,38.822937%,100%);fill-opacity:1;" d="M 34.976562 12.507812 L 35.804688 12.507812 C 36.460938 12.507812 36.492188 12.632812 36.492188 12.867188 C 36.492188 12.914062 36.492188 12.992188 36.429688 13.210938 C 36.429688 13.242188 36.414062 13.304688 36.414062 13.320312 C 36.414062 13.335938 36.414062 13.429688 36.539062 13.429688 C 36.632812 13.429688 36.664062 13.351562 36.679688 13.257812 L 37.101562 11.554688 C 37.117188 11.539062 37.132812 11.429688 37.132812 11.414062 C 37.132812 11.382812 37.117188 11.304688 37.007812 11.304688 C 36.914062 11.304688 36.898438 11.382812 36.882812 11.476562 C 36.710938 12.101562 36.539062 12.242188 35.820312 12.242188 L 35.054688 12.242188 L 35.554688 10.226562 C 35.617188 9.945312 35.632812 9.929688 35.960938 9.929688 L 37.132812 9.929688 C 38.085938 9.929688 38.351562 10.132812 38.351562 10.820312 C 38.351562 10.976562 38.304688 11.195312 38.304688 11.335938 C 38.304688 11.429688 38.367188 11.476562 38.429688 11.476562 C 38.539062 11.476562 38.554688 11.398438 38.570312 11.273438 L 38.710938 9.914062 C 38.710938 9.867188 38.710938 9.820312 38.710938 9.773438 C 38.710938 9.664062 38.617188 9.664062 38.476562 9.664062 L 34.382812 9.664062 C 34.242188 9.664062 34.148438 9.664062 34.148438 9.804688 C 34.148438 9.929688 34.242188 9.929688 34.367188 9.929688 C 34.429688 9.929688 34.539062 9.929688 34.679688 9.945312 C 34.835938 9.960938 34.867188 9.976562 34.867188 10.054688 C 34.867188 10.101562 34.867188 10.132812 34.835938 10.210938 L 33.773438 14.460938 C 33.710938 14.757812 33.695312 14.820312 33.101562 14.820312 C 32.945312 14.820312 32.851562 14.820312 32.851562 14.976562 C 32.851562 15.007812 32.882812 15.085938 32.976562 15.085938 C 33.148438 15.085938 33.335938 15.054688 33.507812 15.054688 L 34.617188 15.054688 C 34.757812 15.070312 35.054688 15.085938 35.195312 15.085938 C 35.257812 15.085938 35.367188 15.085938 35.367188 14.929688 C 35.367188 14.820312 35.273438 14.820312 35.101562 14.820312 C 34.945312 14.820312 34.882812 14.820312 34.695312 14.804688 C 34.476562 14.789062 34.445312 14.757812 34.445312 14.664062 C 34.445312 14.648438 34.445312 14.601562 34.492188 14.492188 Z M 34.976562 12.507812 "/>
<g clip-path="url(#clip6)" clip-rule="nonzero">
<path style=" stroke:none;fill-rule:nonzero;fill:rgb(38.822937%,38.822937%,100%);fill-opacity:1;" d="M 41.117188 14.285156 C 41.117188 13.847656 41.117188 12.207031 39.648438 12.207031 C 38.179688 12.207031 38.179688 13.847656 38.179688 14.285156 C 38.179688 14.707031 38.179688 16.316406 39.648438 16.316406 C 41.117188 16.316406 41.117188 14.707031 41.117188 14.285156 Z M 39.648438 16.128906 C 39.398438 16.128906 38.992188 16.003906 38.835938 15.503906 C 38.742188 15.160156 38.742188 14.582031 38.742188 14.207031 C 38.742188 13.800781 38.742188 13.347656 38.835938 13.019531 C 38.976562 12.488281 39.429688 12.410156 39.648438 12.410156 C 39.914062 12.410156 40.320312 12.535156 40.445312 12.988281 C 40.539062 13.300781 40.539062 13.738281 40.539062 14.207031 C 40.539062 14.582031 40.539062 15.191406 40.445312 15.519531 C 40.273438 16.050781 39.835938 16.128906 39.648438 16.128906 Z M 39.648438 16.128906 "/>
</g>
<path style=" stroke:none;fill-rule:nonzero;fill:rgb(38.822937%,38.822937%,100%);fill-opacity:1;" d="M 46.226562 11.742188 C 46.226562 11.617188 46.226562 11.539062 46.117188 11.539062 C 46.070312 11.539062 46.054688 11.539062 45.929688 11.664062 C 45.914062 11.664062 45.835938 11.742188 45.820312 11.742188 C 45.804688 11.742188 45.789062 11.742188 45.742188 11.710938 C 45.617188 11.617188 45.382812 11.539062 45.023438 11.539062 C 43.914062 11.539062 43.664062 12.132812 43.664062 12.523438 C 43.664062 12.914062 43.960938 13.148438 43.976562 13.179688 C 44.304688 13.414062 44.476562 13.445312 45.023438 13.539062 C 45.398438 13.617188 46.007812 13.726562 46.007812 14.257812 C 46.007812 14.570312 45.804688 14.945312 45.070312 14.945312 C 44.257812 14.945312 44.023438 14.320312 43.929688 13.898438 C 43.898438 13.789062 43.882812 13.757812 43.789062 13.757812 C 43.664062 13.757812 43.664062 13.820312 43.664062 13.976562 L 43.664062 14.960938 C 43.664062 15.085938 43.664062 15.164062 43.757812 15.164062 C 43.820312 15.164062 43.820312 15.164062 43.960938 15.007812 C 44.007812 14.960938 44.085938 14.867188 44.132812 14.820312 C 44.492188 15.148438 44.867188 15.164062 45.070312 15.164062 C 46.085938 15.164062 46.429688 14.585938 46.429688 14.054688 C 46.429688 13.679688 46.210938 13.117188 45.257812 12.945312 C 45.195312 12.929688 44.742188 12.851562 44.710938 12.851562 C 44.460938 12.789062 44.085938 12.617188 44.085938 12.304688 C 44.085938 12.070312 44.273438 11.726562 45.023438 11.726562 C 45.914062 11.726562 45.960938 12.382812 45.976562 12.601562 C 45.976562 12.664062 46.039062 12.695312 46.085938 12.695312 C 46.226562 12.695312 46.226562 12.632812 46.226562 12.492188 Z M 46.226562 11.742188 "/>
<path style=" stroke:none;fill-rule:nonzero;fill:rgb(38.822937%,38.822937%,100%);fill-opacity:1;" d="M 48.269531 10.179688 C 48.269531 9.945312 48.097656 9.726562 47.832031 9.726562 C 47.597656 9.726562 47.394531 9.914062 47.394531 10.164062 C 47.394531 10.445312 47.628906 10.617188 47.832031 10.617188 C 48.113281 10.617188 48.269531 10.382812 48.269531 10.179688 Z M 47.082031 11.664062 L 47.082031 11.929688 C 47.597656 11.929688 47.660156 11.976562 47.660156 12.367188 L 47.660156 14.460938 C 47.660156 14.820312 47.566406 14.820312 47.050781 14.820312 L 47.050781 15.085938 C 47.363281 15.054688 47.816406 15.054688 47.941406 15.054688 C 48.035156 15.054688 48.519531 15.054688 48.800781 15.085938 L 48.800781 14.820312 C 48.269531 14.820312 48.238281 14.789062 48.238281 14.476562 L 48.238281 11.570312 Z M 47.082031 11.664062 "/>
<path style=" stroke:none;fill-rule:nonzero;fill:rgb(38.822937%,38.822937%,100%);fill-opacity:1;" d="M 52.949219 12.664062 C 52.949219 12.007812 52.636719 11.570312 51.808594 11.570312 C 51.011719 11.570312 50.652344 12.148438 50.558594 12.335938 L 50.558594 11.570312 L 49.402344 11.664062 L 49.402344 11.929688 C 49.949219 11.929688 50.011719 11.976562 50.011719 12.367188 L 50.011719 14.460938 C 50.011719 14.820312 49.917969 14.820312 49.402344 14.820312 L 49.402344 15.085938 C 49.746094 15.054688 50.089844 15.054688 50.308594 15.054688 C 50.542969 15.054688 50.871094 15.054688 51.214844 15.085938 L 51.214844 14.820312 C 50.714844 14.820312 50.605469 14.820312 50.605469 14.460938 L 50.605469 13.023438 C 50.605469 12.179688 51.246094 11.789062 51.730469 11.789062 C 52.214844 11.789062 52.339844 12.132812 52.339844 12.632812 L 52.339844 14.460938 C 52.339844 14.820312 52.246094 14.820312 51.730469 14.820312 L 51.730469 15.085938 C 52.074219 15.054688 52.433594 15.054688 52.636719 15.054688 C 52.871094 15.054688 53.214844 15.054688 53.558594 15.085938 L 53.558594 14.820312 C 53.042969 14.820312 52.949219 14.820312 52.949219 14.460938 Z M 52.949219 12.664062 "/>
<path style=" stroke:none;fill-rule:nonzero;fill:rgb(38.822937%,38.822937%,100%);fill-opacity:1;" d="M 60.300781 12.164062 C 60.300781 11.929688 60.222656 11.570312 59.910156 11.570312 C 59.707031 11.570312 59.488281 11.757812 59.488281 11.992188 C 59.488281 12.101562 59.582031 12.179688 59.675781 12.257812 C 59.785156 12.382812 59.910156 12.585938 59.910156 12.882812 C 59.910156 13.414062 59.363281 14.539062 58.566406 14.539062 C 58.144531 14.539062 57.863281 14.304688 57.769531 13.914062 C 57.894531 13.648438 58.066406 13.210938 58.066406 12.976562 C 58.066406 12.851562 58.003906 12.742188 57.847656 12.742188 C 57.488281 12.742188 57.441406 13.632812 57.441406 13.882812 C 57.160156 14.210938 56.832031 14.539062 56.363281 14.539062 C 55.863281 14.539062 55.628906 14.132812 55.628906 13.664062 C 55.628906 13.289062 55.722656 12.960938 55.878906 12.648438 C 56.113281 12.179688 56.425781 11.882812 56.425781 11.757812 C 56.425781 11.664062 56.347656 11.601562 56.269531 11.601562 C 56.113281 11.601562 56.003906 11.835938 55.910156 11.976562 C 55.566406 12.539062 55.316406 13.289062 55.316406 13.945312 C 55.316406 14.554688 55.550781 15.164062 56.253906 15.164062 C 56.941406 15.164062 57.332031 14.601562 57.503906 14.382812 C 57.628906 14.820312 57.941406 15.164062 58.441406 15.164062 C 59.082031 15.164062 59.410156 14.742188 59.738281 14.195312 C 60.003906 13.773438 60.300781 12.664062 60.300781 12.164062 Z M 60.300781 12.164062 "/>
<path style=" stroke:none;fill-rule:nonzero;fill:rgb(38.822937%,38.822937%,100%);fill-opacity:1;" d="M 62.507812 11.914062 L 63.289062 11.914062 C 63.429688 11.914062 63.523438 11.914062 63.523438 11.757812 C 63.523438 11.648438 63.429688 11.648438 63.289062 11.648438 L 62.570312 11.648438 L 62.851562 10.523438 C 62.882812 10.398438 62.882812 10.367188 62.882812 10.351562 C 62.882812 10.179688 62.757812 10.101562 62.617188 10.101562 C 62.351562 10.101562 62.289062 10.320312 62.210938 10.679688 L 61.960938 11.648438 L 61.195312 11.648438 C 61.039062 11.648438 60.945312 11.648438 60.945312 11.804688 C 60.945312 11.914062 61.039062 11.914062 61.179688 11.914062 L 61.898438 11.914062 L 61.414062 13.820312 C 61.367188 14.023438 61.304688 14.304688 61.304688 14.414062 C 61.304688 14.898438 61.695312 15.164062 62.117188 15.164062 C 62.960938 15.164062 63.445312 14.039062 63.445312 13.945312 C 63.445312 13.851562 63.382812 13.835938 63.335938 13.835938 C 63.242188 13.835938 63.242188 13.867188 63.179688 13.992188 C 63.023438 14.382812 62.617188 14.945312 62.132812 14.945312 C 61.976562 14.945312 61.867188 14.835938 61.867188 14.570312 C 61.867188 14.414062 61.898438 14.335938 61.914062 14.226562 Z M 62.507812 11.914062 "/>
<g clip-path="url(#clip7)" clip-rule="nonzero">
<path style="fill:none;stroke-width:0.3985;stroke-linecap:butt;stroke-linejoin:miter;stroke:rgb(38.822937%,38.822937%,100%);stroke-opacity:1;stroke-miterlimit:10;" d="M 0.394531 -4.878906 L 8.15625 -9.40625 L 8.15625 -8.113281 L 70.273438 -8.113281 L 70.273438 -9.40625 L 78.039062 -4.878906 L 70.273438 -0.347656 L 70.273438 -1.644531 L 8.15625 -1.644531 L 8.15625 -0.347656 Z M 0.394531 -4.878906 " transform="matrix(1,0,0,-1,0,0)"/>
</g>
</g>
</svg>
