<?xml version="1.0" encoding="UTF-8"?>
<svg xmlns="http://www.w3.org/2000/svg" xmlns:xlink="http://www.w3.org/1999/xlink" width="240.669998pt" height="149.110001pt" viewBox="0 0 240.669998 149.110001" version="1.1">
<defs>
<clipPath id="clip1">
  <path d="M 41 17 L 238.984375 17 L 238.984375 114 L 41 114 Z M 41 17 "/>
</clipPath>
</defs>
<g id="surface1">
<path style="fill:none;stroke-width:0.19925;stroke-linecap:butt;stroke-linejoin:miter;stroke:rgb(49.803162%,49.803162%,49.803162%);stroke-opacity:1;stroke-miterlimit:10;" d="M 46.742188 -124.515625 L 46.742188 -120.265625 M 101.667969 -124.515625 L 101.667969 -120.265625 M 156.59375 -124.515625 L 156.59375 -120.265625 M 211.519531 -124.515625 L 211.519531 -120.265625 M 46.742188 -1.976562 L 46.742188 -6.230469 M 101.667969 -1.976562 L 101.667969 -6.230469 M 156.59375 -1.976562 L 156.59375 -6.230469 M 211.519531 -1.976562 L 211.519531 -6.230469 " transform="matrix(1,0,0,-1,0,0)"/>
<path style="fill:none;stroke-width:0.19925;stroke-linecap:butt;stroke-linejoin:miter;stroke:rgb(49.803162%,49.803162%,49.803162%);stroke-opacity:1;stroke-miterlimit:10;" d="M 30.261719 -104.09375 L 34.515625 -104.09375 M 30.261719 -63.246094 L 34.515625 -63.246094 M 30.261719 -22.402344 L 34.515625 -22.402344 M 238.984375 -104.09375 L 234.730469 -104.09375 M 238.984375 -63.246094 L 234.730469 -63.246094 M 238.984375 -22.402344 L 234.730469 -22.402344 " transform="matrix(1,0,0,-1,0,0)"/>
<path style="fill:none;stroke-width:0.3985;stroke-linecap:butt;stroke-linejoin:miter;stroke:currentColor;stroke-opacity:1;stroke-miterlimit:10;" d="M 30.261719 -1.976562 L 238.984375 -1.976562 L 238.984375 -124.515625 L 30.261719 -124.515625 Z M 30.261719 -1.976562 " transform="matrix(1,0,0,-1,0,0)"/>
<path style=" stroke:none;fill-rule:nonzero;fill:currentColor;fill-opacity:1;" d="M 42.3125 131.265625 L 42.078125 131.265625 C 42.0625 131.421875 41.984375 131.828125 41.890625 131.890625 C 41.84375 131.9375 41.3125 131.9375 41.203125 131.9375 L 39.921875 131.9375 C 40.65625 131.296875 40.90625 131.09375 41.3125 130.765625 C 41.828125 130.359375 42.3125 129.921875 42.3125 129.265625 C 42.3125 128.421875 41.578125 127.90625 40.6875 127.90625 C 39.828125 127.90625 39.234375 128.515625 39.234375 129.15625 C 39.234375 129.5 39.53125 129.546875 39.609375 129.546875 C 39.765625 129.546875 39.96875 129.421875 39.96875 129.171875 C 39.96875 129.046875 39.921875 128.796875 39.5625 128.796875 C 39.78125 128.3125 40.25 128.15625 40.578125 128.15625 C 41.28125 128.15625 41.640625 128.703125 41.640625 129.265625 C 41.640625 129.875 41.203125 130.34375 40.984375 130.59375 L 39.3125 132.265625 C 39.234375 132.328125 39.234375 132.34375 39.234375 132.53125 L 42.109375 132.53125 Z M 42.3125 131.265625 "/>
<path style=" stroke:none;fill-rule:nonzero;fill:currentColor;fill-opacity:1;" d="M 46.363281 130.3125 C 46.363281 129.546875 46.269531 128.984375 45.957031 128.5 C 45.738281 128.1875 45.300781 127.90625 44.753906 127.90625 C 43.128906 127.90625 43.128906 129.8125 43.128906 130.3125 C 43.128906 130.8125 43.128906 132.671875 44.753906 132.671875 C 46.363281 132.671875 46.363281 130.8125 46.363281 130.3125 Z M 44.753906 132.46875 C 44.425781 132.46875 44.003906 132.28125 43.863281 131.71875 C 43.769531 131.3125 43.769531 130.734375 43.769531 130.21875 C 43.769531 129.703125 43.769531 129.171875 43.863281 128.796875 C 44.019531 128.25 44.457031 128.09375 44.753906 128.09375 C 45.128906 128.09375 45.488281 128.328125 45.613281 128.734375 C 45.722656 129.109375 45.738281 129.609375 45.738281 130.21875 C 45.738281 130.734375 45.738281 131.25 45.644531 131.6875 C 45.503906 132.328125 45.035156 132.46875 44.753906 132.46875 Z M 44.753906 132.46875 "/>
<path style=" stroke:none;fill-rule:nonzero;fill:currentColor;fill-opacity:1;" d="M 50.332031 130.3125 C 50.332031 129.546875 50.238281 128.984375 49.925781 128.5 C 49.707031 128.1875 49.269531 127.90625 48.722656 127.90625 C 47.097656 127.90625 47.097656 129.8125 47.097656 130.3125 C 47.097656 130.8125 47.097656 132.671875 48.722656 132.671875 C 50.332031 132.671875 50.332031 130.8125 50.332031 130.3125 Z M 48.722656 132.46875 C 48.394531 132.46875 47.972656 132.28125 47.832031 131.71875 C 47.738281 131.3125 47.738281 130.734375 47.738281 130.21875 C 47.738281 129.703125 47.738281 129.171875 47.832031 128.796875 C 47.988281 128.25 48.425781 128.09375 48.722656 128.09375 C 49.097656 128.09375 49.457031 128.328125 49.582031 128.734375 C 49.691406 129.109375 49.707031 129.609375 49.707031 130.21875 C 49.707031 130.734375 49.707031 131.25 49.613281 131.6875 C 49.472656 132.328125 49.003906 132.46875 48.722656 132.46875 Z M 48.722656 132.46875 "/>
<path style=" stroke:none;fill-rule:nonzero;fill:currentColor;fill-opacity:1;" d="M 54.304688 130.3125 C 54.304688 129.546875 54.210938 128.984375 53.898438 128.5 C 53.679688 128.1875 53.242188 127.90625 52.695312 127.90625 C 51.070312 127.90625 51.070312 129.8125 51.070312 130.3125 C 51.070312 130.8125 51.070312 132.671875 52.695312 132.671875 C 54.304688 132.671875 54.304688 130.8125 54.304688 130.3125 Z M 52.695312 132.46875 C 52.367188 132.46875 51.945312 132.28125 51.804688 131.71875 C 51.710938 131.3125 51.710938 130.734375 51.710938 130.21875 C 51.710938 129.703125 51.710938 129.171875 51.804688 128.796875 C 51.960938 128.25 52.398438 128.09375 52.695312 128.09375 C 53.070312 128.09375 53.429688 128.328125 53.554688 128.734375 C 53.664062 129.109375 53.679688 129.609375 53.679688 130.21875 C 53.679688 130.734375 53.679688 131.25 53.585938 131.6875 C 53.445312 132.328125 52.976562 132.46875 52.695312 132.46875 Z M 52.695312 132.46875 "/>
<path style=" stroke:none;fill-rule:nonzero;fill:currentColor;fill-opacity:1;" d="M 97.242188 131.265625 L 97.007812 131.265625 C 96.992188 131.421875 96.914062 131.828125 96.820312 131.890625 C 96.773438 131.9375 96.242188 131.9375 96.132812 131.9375 L 94.851562 131.9375 C 95.585938 131.296875 95.835938 131.09375 96.242188 130.765625 C 96.757812 130.359375 97.242188 129.921875 97.242188 129.265625 C 97.242188 128.421875 96.507812 127.90625 95.617188 127.90625 C 94.757812 127.90625 94.164062 128.515625 94.164062 129.15625 C 94.164062 129.5 94.460938 129.546875 94.539062 129.546875 C 94.695312 129.546875 94.898438 129.421875 94.898438 129.171875 C 94.898438 129.046875 94.851562 128.796875 94.492188 128.796875 C 94.710938 128.3125 95.179688 128.15625 95.507812 128.15625 C 96.210938 128.15625 96.570312 128.703125 96.570312 129.265625 C 96.570312 129.875 96.132812 130.34375 95.914062 130.59375 L 94.242188 132.265625 C 94.164062 132.328125 94.164062 132.34375 94.164062 132.53125 L 97.039062 132.53125 Z M 97.242188 131.265625 "/>
<path style=" stroke:none;fill-rule:nonzero;fill:currentColor;fill-opacity:1;" d="M 101.289062 130.3125 C 101.289062 129.546875 101.195312 128.984375 100.882812 128.5 C 100.664062 128.1875 100.226562 127.90625 99.679688 127.90625 C 98.054688 127.90625 98.054688 129.8125 98.054688 130.3125 C 98.054688 130.8125 98.054688 132.671875 99.679688 132.671875 C 101.289062 132.671875 101.289062 130.8125 101.289062 130.3125 Z M 99.679688 132.46875 C 99.351562 132.46875 98.929688 132.28125 98.789062 131.71875 C 98.695312 131.3125 98.695312 130.734375 98.695312 130.21875 C 98.695312 129.703125 98.695312 129.171875 98.789062 128.796875 C 98.945312 128.25 99.382812 128.09375 99.679688 128.09375 C 100.054688 128.09375 100.414062 128.328125 100.539062 128.734375 C 100.648438 129.109375 100.664062 129.609375 100.664062 130.21875 C 100.664062 130.734375 100.664062 131.25 100.570312 131.6875 C 100.429688 132.328125 99.960938 132.46875 99.679688 132.46875 Z M 99.679688 132.46875 "/>
<path style=" stroke:none;fill-rule:nonzero;fill:currentColor;fill-opacity:1;" d="M 105.183594 131.265625 L 104.949219 131.265625 C 104.933594 131.421875 104.855469 131.828125 104.761719 131.890625 C 104.714844 131.9375 104.183594 131.9375 104.074219 131.9375 L 102.792969 131.9375 C 103.527344 131.296875 103.777344 131.09375 104.183594 130.765625 C 104.699219 130.359375 105.183594 129.921875 105.183594 129.265625 C 105.183594 128.421875 104.449219 127.90625 103.558594 127.90625 C 102.699219 127.90625 102.105469 128.515625 102.105469 129.15625 C 102.105469 129.5 102.402344 129.546875 102.480469 129.546875 C 102.636719 129.546875 102.839844 129.421875 102.839844 129.171875 C 102.839844 129.046875 102.792969 128.796875 102.433594 128.796875 C 102.652344 128.3125 103.121094 128.15625 103.449219 128.15625 C 104.152344 128.15625 104.511719 128.703125 104.511719 129.265625 C 104.511719 129.875 104.074219 130.34375 103.855469 130.59375 L 102.183594 132.265625 C 102.105469 132.328125 102.105469 132.34375 102.105469 132.53125 L 104.980469 132.53125 Z M 105.183594 131.265625 "/>
<path style=" stroke:none;fill-rule:nonzero;fill:currentColor;fill-opacity:1;" d="M 109.230469 130.3125 C 109.230469 129.546875 109.136719 128.984375 108.824219 128.5 C 108.605469 128.1875 108.167969 127.90625 107.621094 127.90625 C 105.996094 127.90625 105.996094 129.8125 105.996094 130.3125 C 105.996094 130.8125 105.996094 132.671875 107.621094 132.671875 C 109.230469 132.671875 109.230469 130.8125 109.230469 130.3125 Z M 107.621094 132.46875 C 107.292969 132.46875 106.871094 132.28125 106.730469 131.71875 C 106.636719 131.3125 106.636719 130.734375 106.636719 130.21875 C 106.636719 129.703125 106.636719 129.171875 106.730469 128.796875 C 106.886719 128.25 107.324219 128.09375 107.621094 128.09375 C 107.996094 128.09375 108.355469 128.328125 108.480469 128.734375 C 108.589844 129.109375 108.605469 129.609375 108.605469 130.21875 C 108.605469 130.734375 108.605469 131.25 108.511719 131.6875 C 108.371094 132.328125 107.902344 132.46875 107.621094 132.46875 Z M 107.621094 132.46875 "/>
<path style=" stroke:none;fill-rule:nonzero;fill:currentColor;fill-opacity:1;" d="M 152.167969 131.265625 L 151.933594 131.265625 C 151.917969 131.421875 151.839844 131.828125 151.746094 131.890625 C 151.699219 131.9375 151.167969 131.9375 151.058594 131.9375 L 149.777344 131.9375 C 150.511719 131.296875 150.761719 131.09375 151.167969 130.765625 C 151.683594 130.359375 152.167969 129.921875 152.167969 129.265625 C 152.167969 128.421875 151.433594 127.90625 150.542969 127.90625 C 149.683594 127.90625 149.089844 128.515625 149.089844 129.15625 C 149.089844 129.5 149.386719 129.546875 149.464844 129.546875 C 149.621094 129.546875 149.824219 129.421875 149.824219 129.171875 C 149.824219 129.046875 149.777344 128.796875 149.417969 128.796875 C 149.636719 128.3125 150.105469 128.15625 150.433594 128.15625 C 151.136719 128.15625 151.496094 128.703125 151.496094 129.265625 C 151.496094 129.875 151.058594 130.34375 150.839844 130.59375 L 149.167969 132.265625 C 149.089844 132.328125 149.089844 132.34375 149.089844 132.53125 L 151.964844 132.53125 Z M 152.167969 131.265625 "/>
<path style=" stroke:none;fill-rule:nonzero;fill:currentColor;fill-opacity:1;" d="M 156.214844 130.3125 C 156.214844 129.546875 156.121094 128.984375 155.808594 128.5 C 155.589844 128.1875 155.152344 127.90625 154.605469 127.90625 C 152.980469 127.90625 152.980469 129.8125 152.980469 130.3125 C 152.980469 130.8125 152.980469 132.671875 154.605469 132.671875 C 156.214844 132.671875 156.214844 130.8125 156.214844 130.3125 Z M 154.605469 132.46875 C 154.277344 132.46875 153.855469 132.28125 153.714844 131.71875 C 153.621094 131.3125 153.621094 130.734375 153.621094 130.21875 C 153.621094 129.703125 153.621094 129.171875 153.714844 128.796875 C 153.871094 128.25 154.308594 128.09375 154.605469 128.09375 C 154.980469 128.09375 155.339844 128.328125 155.464844 128.734375 C 155.574219 129.109375 155.589844 129.609375 155.589844 130.21875 C 155.589844 130.734375 155.589844 131.25 155.496094 131.6875 C 155.355469 132.328125 154.886719 132.46875 154.605469 132.46875 Z M 154.605469 132.46875 "/>
<path style=" stroke:none;fill-rule:nonzero;fill:currentColor;fill-opacity:1;" d="M 160.28125 131.390625 L 160.28125 131.140625 L 159.5 131.140625 L 159.5 128.03125 C 159.5 127.890625 159.5 127.828125 159.359375 127.828125 C 159.265625 127.828125 159.234375 127.828125 159.171875 127.9375 L 156.859375 131.140625 L 156.859375 131.390625 L 158.921875 131.390625 L 158.921875 131.953125 C 158.921875 132.203125 158.921875 132.28125 158.34375 132.28125 L 158.15625 132.28125 L 158.15625 132.53125 C 158.515625 132.515625 158.953125 132.5 159.203125 132.5 C 159.46875 132.5 159.90625 132.515625 160.265625 132.53125 L 160.265625 132.28125 L 160.078125 132.28125 C 159.5 132.28125 159.5 132.203125 159.5 131.953125 L 159.5 131.390625 Z M 158.96875 128.59375 L 158.96875 131.140625 L 157.125 131.140625 Z M 158.96875 128.59375 "/>
<path style=" stroke:none;fill-rule:nonzero;fill:currentColor;fill-opacity:1;" d="M 164.15625 130.3125 C 164.15625 129.546875 164.0625 128.984375 163.75 128.5 C 163.53125 128.1875 163.09375 127.90625 162.546875 127.90625 C 160.921875 127.90625 160.921875 129.8125 160.921875 130.3125 C 160.921875 130.8125 160.921875 132.671875 162.546875 132.671875 C 164.15625 132.671875 164.15625 130.8125 164.15625 130.3125 Z M 162.546875 132.46875 C 162.21875 132.46875 161.796875 132.28125 161.65625 131.71875 C 161.5625 131.3125 161.5625 130.734375 161.5625 130.21875 C 161.5625 129.703125 161.5625 129.171875 161.65625 128.796875 C 161.8125 128.25 162.25 128.09375 162.546875 128.09375 C 162.921875 128.09375 163.28125 128.328125 163.40625 128.734375 C 163.515625 129.109375 163.53125 129.609375 163.53125 130.21875 C 163.53125 130.734375 163.53125 131.25 163.4375 131.6875 C 163.296875 132.328125 162.828125 132.46875 162.546875 132.46875 Z M 162.546875 132.46875 "/>
<path style=" stroke:none;fill-rule:nonzero;fill:currentColor;fill-opacity:1;" d="M 207.09375 131.265625 L 206.859375 131.265625 C 206.84375 131.421875 206.765625 131.828125 206.671875 131.890625 C 206.625 131.9375 206.09375 131.9375 205.984375 131.9375 L 204.703125 131.9375 C 205.4375 131.296875 205.6875 131.09375 206.09375 130.765625 C 206.609375 130.359375 207.09375 129.921875 207.09375 129.265625 C 207.09375 128.421875 206.359375 127.90625 205.46875 127.90625 C 204.609375 127.90625 204.015625 128.515625 204.015625 129.15625 C 204.015625 129.5 204.3125 129.546875 204.390625 129.546875 C 204.546875 129.546875 204.75 129.421875 204.75 129.171875 C 204.75 129.046875 204.703125 128.796875 204.34375 128.796875 C 204.5625 128.3125 205.03125 128.15625 205.359375 128.15625 C 206.0625 128.15625 206.421875 128.703125 206.421875 129.265625 C 206.421875 129.875 205.984375 130.34375 205.765625 130.59375 L 204.09375 132.265625 C 204.015625 132.328125 204.015625 132.34375 204.015625 132.53125 L 206.890625 132.53125 Z M 207.09375 131.265625 "/>
<path style=" stroke:none;fill-rule:nonzero;fill:currentColor;fill-opacity:1;" d="M 211.140625 130.3125 C 211.140625 129.546875 211.046875 128.984375 210.734375 128.5 C 210.515625 128.1875 210.078125 127.90625 209.53125 127.90625 C 207.90625 127.90625 207.90625 129.8125 207.90625 130.3125 C 207.90625 130.8125 207.90625 132.671875 209.53125 132.671875 C 211.140625 132.671875 211.140625 130.8125 211.140625 130.3125 Z M 209.53125 132.46875 C 209.203125 132.46875 208.78125 132.28125 208.640625 131.71875 C 208.546875 131.3125 208.546875 130.734375 208.546875 130.21875 C 208.546875 129.703125 208.546875 129.171875 208.640625 128.796875 C 208.796875 128.25 209.234375 128.09375 209.53125 128.09375 C 209.90625 128.09375 210.265625 128.328125 210.390625 128.734375 C 210.5 129.109375 210.515625 129.609375 210.515625 130.21875 C 210.515625 130.734375 210.515625 131.25 210.421875 131.6875 C 210.28125 132.328125 209.8125 132.46875 209.53125 132.46875 Z M 209.53125 132.46875 "/>
<path style=" stroke:none;fill-rule:nonzero;fill:currentColor;fill-opacity:1;" d="M 212.566406 130.25 C 212.566406 129.6875 212.613281 129.171875 212.878906 128.734375 C 213.113281 128.359375 213.488281 128.109375 213.941406 128.109375 C 214.144531 128.109375 214.425781 128.15625 214.566406 128.34375 C 214.394531 128.359375 214.238281 128.484375 214.238281 128.6875 C 214.238281 128.859375 214.363281 129.015625 214.566406 129.015625 C 214.785156 129.015625 214.910156 128.875 214.910156 128.671875 C 214.910156 128.265625 214.613281 127.90625 213.925781 127.90625 C 212.925781 127.90625 211.894531 128.828125 211.894531 130.328125 C 211.894531 132.125 212.738281 132.671875 213.519531 132.671875 C 214.363281 132.671875 215.097656 132.015625 215.097656 131.109375 C 215.097656 130.21875 214.394531 129.5625 213.582031 129.5625 C 213.019531 129.5625 212.722656 129.9375 212.566406 130.25 Z M 213.519531 132.453125 C 213.160156 132.453125 212.894531 132.25 212.738281 131.9375 C 212.644531 131.734375 212.582031 131.375 212.582031 130.96875 C 212.582031 130.28125 212.988281 129.765625 213.550781 129.765625 C 213.863281 129.765625 214.082031 129.890625 214.253906 130.140625 C 214.425781 130.40625 214.425781 130.703125 214.425781 131.109375 C 214.425781 131.5 214.425781 131.796875 214.238281 132.078125 C 214.082031 132.3125 213.847656 132.453125 213.519531 132.453125 Z M 213.519531 132.453125 "/>
<path style=" stroke:none;fill-rule:nonzero;fill:currentColor;fill-opacity:1;" d="M 219.082031 130.3125 C 219.082031 129.546875 218.988281 128.984375 218.675781 128.5 C 218.457031 128.1875 218.019531 127.90625 217.472656 127.90625 C 215.847656 127.90625 215.847656 129.8125 215.847656 130.3125 C 215.847656 130.8125 215.847656 132.671875 217.472656 132.671875 C 219.082031 132.671875 219.082031 130.8125 219.082031 130.3125 Z M 217.472656 132.46875 C 217.144531 132.46875 216.722656 132.28125 216.582031 131.71875 C 216.488281 131.3125 216.488281 130.734375 216.488281 130.21875 C 216.488281 129.703125 216.488281 129.171875 216.582031 128.796875 C 216.738281 128.25 217.175781 128.09375 217.472656 128.09375 C 217.847656 128.09375 218.207031 128.328125 218.332031 128.734375 C 218.441406 129.109375 218.457031 129.609375 218.457031 130.21875 C 218.457031 130.734375 218.457031 131.25 218.363281 131.6875 C 218.222656 132.328125 217.753906 132.46875 217.472656 132.46875 Z M 217.472656 132.46875 "/>
<path style=" stroke:none;fill-rule:nonzero;fill:currentColor;fill-opacity:1;" d="M 25.101562 101.902344 C 25.101562 101.714844 25.101562 101.714844 24.898438 101.714844 C 24.445312 102.152344 23.820312 102.152344 23.539062 102.152344 L 23.539062 102.402344 C 23.695312 102.402344 24.164062 102.402344 24.539062 102.214844 L 24.539062 105.761719 C 24.539062 105.996094 24.539062 106.089844 23.851562 106.089844 L 23.585938 106.089844 L 23.585938 106.339844 C 23.710938 106.339844 24.570312 106.308594 24.820312 106.308594 C 25.039062 106.308594 25.914062 106.339844 26.070312 106.339844 L 26.070312 106.089844 L 25.804688 106.089844 C 25.101562 106.089844 25.101562 105.996094 25.101562 105.761719 Z M 25.101562 101.902344 "/>
<path style=" stroke:none;fill-rule:nonzero;fill:currentColor;fill-opacity:1;" d="M 26.289062 64.226562 L 26.054688 64.226562 C 26.039062 64.382812 25.960938 64.789062 25.867188 64.851562 C 25.820312 64.898438 25.289062 64.898438 25.179688 64.898438 L 23.898438 64.898438 C 24.632812 64.257812 24.882812 64.054688 25.289062 63.726562 C 25.804688 63.320312 26.289062 62.882812 26.289062 62.226562 C 26.289062 61.382812 25.554688 60.867188 24.664062 60.867188 C 23.804688 60.867188 23.210938 61.476562 23.210938 62.117188 C 23.210938 62.460938 23.507812 62.507812 23.585938 62.507812 C 23.742188 62.507812 23.945312 62.382812 23.945312 62.132812 C 23.945312 62.007812 23.898438 61.757812 23.539062 61.757812 C 23.757812 61.273438 24.226562 61.117188 24.554688 61.117188 C 25.257812 61.117188 25.617188 61.664062 25.617188 62.226562 C 25.617188 62.835938 25.179688 63.304688 24.960938 63.554688 L 23.289062 65.226562 C 23.210938 65.289062 23.210938 65.304688 23.210938 65.492188 L 26.085938 65.492188 Z M 26.289062 64.226562 "/>
<path style=" stroke:none;fill-rule:nonzero;fill:currentColor;fill-opacity:1;" d="M 24.679688 22.320312 C 25.226562 22.320312 25.617188 22.695312 25.617188 23.445312 C 25.617188 24.304688 25.101562 24.570312 24.710938 24.570312 C 24.429688 24.570312 23.804688 24.492188 23.523438 24.070312 C 23.851562 24.070312 23.929688 23.835938 23.929688 23.679688 C 23.929688 23.460938 23.757812 23.304688 23.539062 23.304688 C 23.351562 23.304688 23.148438 23.429688 23.148438 23.710938 C 23.148438 24.367188 23.867188 24.789062 24.710938 24.789062 C 25.679688 24.789062 26.351562 24.132812 26.351562 23.445312 C 26.351562 22.898438 25.914062 22.351562 25.148438 22.195312 C 25.867188 21.929688 26.132812 21.414062 26.132812 20.976562 C 26.132812 20.429688 25.507812 20.023438 24.726562 20.023438 C 23.960938 20.023438 23.367188 20.398438 23.367188 20.960938 C 23.367188 21.195312 23.523438 21.320312 23.726562 21.320312 C 23.945312 21.320312 24.085938 21.164062 24.085938 20.976562 C 24.085938 20.773438 23.945312 20.617188 23.726562 20.601562 C 23.976562 20.304688 24.445312 20.226562 24.710938 20.226562 C 25.023438 20.226562 25.460938 20.382812 25.460938 20.976562 C 25.460938 21.273438 25.367188 21.601562 25.179688 21.804688 C 24.960938 22.070312 24.757812 22.085938 24.414062 22.117188 C 24.242188 22.132812 24.226562 22.132812 24.195312 22.132812 C 24.179688 22.132812 24.117188 22.148438 24.117188 22.226562 C 24.117188 22.320312 24.179688 22.320312 24.304688 22.320312 Z M 24.679688 22.320312 "/>
<path style="fill:none;stroke-width:0.19925;stroke-linecap:butt;stroke-linejoin:miter;stroke:rgb(49.803162%,49.803162%,49.803162%);stroke-opacity:1;stroke-miterlimit:10;" d="M 74.203125 -124.515625 L 74.203125 -120.265625 M 129.128906 -124.515625 L 129.128906 -120.265625 M 184.054688 -124.515625 L 184.054688 -120.265625 M 74.203125 -1.976562 L 74.203125 -6.230469 M 129.128906 -1.976562 L 129.128906 -6.230469 M 184.054688 -1.976562 L 184.054688 -6.230469 " transform="matrix(1,0,0,-1,0,0)"/>
<g clip-path="url(#clip1)" clip-rule="nonzero">
<path style="fill:none;stroke-width:0.3985;stroke-linecap:butt;stroke-linejoin:miter;stroke:rgb(100%,38.822937%,38.822937%);stroke-opacity:1;stroke-miterlimit:10;" d="M 46.742188 -108.164062 L 49.488281 -106.859375 L 52.234375 -105.738281 L 54.980469 -104.550781 L 57.726562 -103.894531 L 60.472656 -102.734375 L 63.21875 -101.777344 L 65.964844 -100.945312 L 68.710938 -100.238281 L 71.457031 -99.296875 L 74.203125 -98.332031 L 76.949219 -96.839844 L 79.695312 -95.140625 L 82.441406 -93.433594 L 85.1875 -91.175781 L 87.9375 -88.761719 L 90.683594 -86.582031 L 93.429688 -83.519531 L 96.175781 -80.773438 L 98.921875 -77.535156 L 101.667969 -74.417969 L 104.414062 -71.894531 L 107.160156 -68.941406 L 109.90625 -66.796875 L 112.652344 -66.238281 L 115.398438 -65.21875 L 118.144531 -65.472656 L 120.890625 -62.492188 L 123.636719 -57.238281 L 126.382812 -53.496094 L 129.128906 -49.707031 L 131.875 -46.105469 L 134.621094 -43.773438 L 137.371094 -39.53125 L 140.117188 -36.4375 L 142.863281 -32.5 L 145.609375 -29.765625 L 148.355469 -27.347656 L 151.101562 -25.523438 L 153.847656 -24.136719 L 156.59375 -23.515625 L 159.339844 -23.265625 L 162.085938 -24.03125 L 164.832031 -24.59375 L 167.578125 -25.222656 L 170.324219 -26.125 L 173.070312 -26.851562 L 175.816406 -26.277344 L 178.5625 -26.828125 L 181.308594 -27.347656 L 184.054688 -27.871094 L 186.804688 -27.480469 L 189.550781 -26.074219 L 192.296875 -25.304688 L 195.042969 -24.378906 L 197.789062 -23.105469 L 200.535156 -23.957031 L 203.28125 -25.234375 L 206.027344 -26.753906 L 208.773438 -28.71875 L 211.519531 -30.460938 L 214.265625 -32.722656 L 217.011719 -35.175781 L 219.757812 -37.699219 L 222.503906 -41.011719 L 225.25 -43.484375 L 227.996094 -44.546875 L 230.742188 -45.664062 L 233.488281 -46.820312 L 236.238281 -47.984375 L 238.984375 -49.132812 " transform="matrix(1,0,0,-1,0,0)"/>
</g>
<path style="fill:none;stroke-width:0.3985;stroke-linecap:butt;stroke-linejoin:miter;stroke:rgb(38.822937%,38.822937%,100%);stroke-opacity:1;stroke-miterlimit:10;" d="M 31.257812 -113.804688 C 31.257812 -113.257812 30.8125 -112.808594 30.261719 -112.808594 C 29.710938 -112.808594 29.265625 -113.257812 29.265625 -113.804688 C 29.265625 -114.355469 29.710938 -114.800781 30.261719 -114.800781 C 30.8125 -114.800781 31.257812 -114.355469 31.257812 -113.804688 Z M 31.257812 -113.804688 " transform="matrix(1,0,0,-1,0,0)"/>
<path style="fill:none;stroke-width:0.3985;stroke-linecap:butt;stroke-linejoin:miter;stroke:rgb(38.822937%,38.822937%,100%);stroke-opacity:1;stroke-miterlimit:10;" d="M 34.003906 -114.261719 C 34.003906 -113.714844 33.558594 -113.265625 33.007812 -113.265625 C 32.460938 -113.265625 32.011719 -113.714844 32.011719 -114.261719 C 32.011719 -114.8125 32.460938 -115.261719 33.007812 -115.261719 C 33.558594 -115.261719 34.003906 -114.8125 34.003906 -114.261719 Z M 34.003906 -114.261719 " transform="matrix(1,0,0,-1,0,0)"/>
<path style="fill:none;stroke-width:0.3985;stroke-linecap:butt;stroke-linejoin:miter;stroke:rgb(38.822937%,38.822937%,100%);stroke-opacity:1;stroke-miterlimit:10;" d="M 36.75 -112.890625 C 36.75 -112.339844 36.304688 -111.894531 35.753906 -111.894531 C 35.207031 -111.894531 34.757812 -112.339844 34.757812 -112.890625 C 34.757812 -113.441406 35.207031 -113.886719 35.753906 -113.886719 C 36.304688 -113.886719 36.75 -113.441406 36.75 -112.890625 Z M 36.75 -112.890625 " transform="matrix(1,0,0,-1,0,0)"/>
<path style="fill:none;stroke-width:0.3985;stroke-linecap:butt;stroke-linejoin:miter;stroke:rgb(38.822937%,38.822937%,100%);stroke-opacity:1;stroke-miterlimit:10;" d="M 39.5 -111.914062 C 39.5 -111.363281 39.050781 -110.917969 38.5 -110.917969 C 37.953125 -110.917969 37.503906 -111.363281 37.503906 -111.914062 C 37.503906 -112.464844 37.953125 -112.910156 38.5 -112.910156 C 39.050781 -112.910156 39.5 -112.464844 39.5 -111.914062 Z M 39.5 -111.914062 " transform="matrix(1,0,0,-1,0,0)"/>
<path style="fill:none;stroke-width:0.3985;stroke-linecap:butt;stroke-linejoin:miter;stroke:rgb(38.822937%,38.822937%,100%);stroke-opacity:1;stroke-miterlimit:10;" d="M 42.246094 -110.796875 C 42.246094 -110.246094 41.796875 -109.800781 41.25 -109.800781 C 40.699219 -109.800781 40.253906 -110.246094 40.253906 -110.796875 C 40.253906 -111.347656 40.699219 -111.792969 41.25 -111.792969 C 41.796875 -111.792969 42.246094 -111.347656 42.246094 -110.796875 Z M 42.246094 -110.796875 " transform="matrix(1,0,0,-1,0,0)"/>
<path style="fill:none;stroke-width:0.3985;stroke-linecap:butt;stroke-linejoin:miter;stroke:rgb(38.822937%,38.822937%,100%);stroke-opacity:1;stroke-miterlimit:10;" d="M 44.992188 -109.488281 C 44.992188 -108.9375 44.542969 -108.492188 43.996094 -108.492188 C 43.445312 -108.492188 43 -108.9375 43 -109.488281 C 43 -110.039062 43.445312 -110.484375 43.996094 -110.484375 C 44.542969 -110.484375 44.992188 -110.039062 44.992188 -109.488281 Z M 44.992188 -109.488281 " transform="matrix(1,0,0,-1,0,0)"/>
<path style="fill:none;stroke-width:0.3985;stroke-linecap:butt;stroke-linejoin:miter;stroke:rgb(38.822937%,38.822937%,100%);stroke-opacity:1;stroke-miterlimit:10;" d="M 47.738281 -108.648438 C 47.738281 -108.097656 47.292969 -107.652344 46.742188 -107.652344 C 46.191406 -107.652344 45.746094 -108.097656 45.746094 -108.648438 C 45.746094 -109.199219 46.191406 -109.644531 46.742188 -109.644531 C 47.292969 -109.644531 47.738281 -109.199219 47.738281 -108.648438 Z M 47.738281 -108.648438 " transform="matrix(1,0,0,-1,0,0)"/>
<path style="fill:none;stroke-width:0.3985;stroke-linecap:butt;stroke-linejoin:miter;stroke:rgb(38.822937%,38.822937%,100%);stroke-opacity:1;stroke-miterlimit:10;" d="M 50.484375 -107.925781 C 50.484375 -107.375 50.039062 -106.929688 49.488281 -106.929688 C 48.9375 -106.929688 48.492188 -107.375 48.492188 -107.925781 C 48.492188 -108.472656 48.9375 -108.921875 49.488281 -108.921875 C 50.039062 -108.921875 50.484375 -108.472656 50.484375 -107.925781 Z M 50.484375 -107.925781 " transform="matrix(1,0,0,-1,0,0)"/>
<path style="fill:none;stroke-width:0.3985;stroke-linecap:butt;stroke-linejoin:miter;stroke:rgb(38.822937%,38.822937%,100%);stroke-opacity:1;stroke-miterlimit:10;" d="M 53.230469 -106.632812 C 53.230469 -106.082031 52.785156 -105.636719 52.234375 -105.636719 C 51.683594 -105.636719 51.238281 -106.082031 51.238281 -106.632812 C 51.238281 -107.183594 51.683594 -107.628906 52.234375 -107.628906 C 52.785156 -107.628906 53.230469 -107.183594 53.230469 -106.632812 Z M 53.230469 -106.632812 " transform="matrix(1,0,0,-1,0,0)"/>
<path style="fill:none;stroke-width:0.3985;stroke-linecap:butt;stroke-linejoin:miter;stroke:rgb(38.822937%,38.822937%,100%);stroke-opacity:1;stroke-miterlimit:10;" d="M 55.976562 -105.351562 C 55.976562 -104.800781 55.53125 -104.355469 54.980469 -104.355469 C 54.429688 -104.355469 53.984375 -104.800781 53.984375 -105.351562 C 53.984375 -105.902344 54.429688 -106.347656 54.980469 -106.347656 C 55.53125 -106.347656 55.976562 -105.902344 55.976562 -105.351562 Z M 55.976562 -105.351562 " transform="matrix(1,0,0,-1,0,0)"/>
<path style="fill:none;stroke-width:0.3985;stroke-linecap:butt;stroke-linejoin:miter;stroke:rgb(38.822937%,38.822937%,100%);stroke-opacity:1;stroke-miterlimit:10;" d="M 58.722656 -104.582031 C 58.722656 -104.03125 58.277344 -103.585938 57.726562 -103.585938 C 57.175781 -103.585938 56.730469 -104.03125 56.730469 -104.582031 C 56.730469 -105.132812 57.175781 -105.578125 57.726562 -105.578125 C 58.277344 -105.578125 58.722656 -105.132812 58.722656 -104.582031 Z M 58.722656 -104.582031 " transform="matrix(1,0,0,-1,0,0)"/>
<path style="fill:none;stroke-width:0.3985;stroke-linecap:butt;stroke-linejoin:miter;stroke:rgb(38.822937%,38.822937%,100%);stroke-opacity:1;stroke-miterlimit:10;" d="M 61.46875 -103.8125 C 61.46875 -103.261719 61.023438 -102.816406 60.472656 -102.816406 C 59.921875 -102.816406 59.476562 -103.261719 59.476562 -103.8125 C 59.476562 -104.359375 59.921875 -104.808594 60.472656 -104.808594 C 61.023438 -104.808594 61.46875 -104.359375 61.46875 -103.8125 Z M 61.46875 -103.8125 " transform="matrix(1,0,0,-1,0,0)"/>
<path style="fill:none;stroke-width:0.3985;stroke-linecap:butt;stroke-linejoin:miter;stroke:rgb(38.822937%,38.822937%,100%);stroke-opacity:1;stroke-miterlimit:10;" d="M 64.214844 -102.523438 C 64.214844 -101.972656 63.769531 -101.527344 63.21875 -101.527344 C 62.667969 -101.527344 62.222656 -101.972656 62.222656 -102.523438 C 62.222656 -103.074219 62.667969 -103.519531 63.21875 -103.519531 C 63.769531 -103.519531 64.214844 -103.074219 64.214844 -102.523438 Z M 64.214844 -102.523438 " transform="matrix(1,0,0,-1,0,0)"/>
<path style="fill:none;stroke-width:0.3985;stroke-linecap:butt;stroke-linejoin:miter;stroke:rgb(38.822937%,38.822937%,100%);stroke-opacity:1;stroke-miterlimit:10;" d="M 66.960938 -101.226562 C 66.960938 -100.675781 66.515625 -100.230469 65.964844 -100.230469 C 65.414062 -100.230469 64.96875 -100.675781 64.96875 -101.226562 C 64.96875 -101.777344 65.414062 -102.222656 65.964844 -102.222656 C 66.515625 -102.222656 66.960938 -101.777344 66.960938 -101.226562 Z M 66.960938 -101.226562 " transform="matrix(1,0,0,-1,0,0)"/>
<path style="fill:none;stroke-width:0.3985;stroke-linecap:butt;stroke-linejoin:miter;stroke:rgb(38.822937%,38.822937%,100%);stroke-opacity:1;stroke-miterlimit:10;" d="M 69.707031 -99.914062 C 69.707031 -99.363281 69.261719 -98.917969 68.710938 -98.917969 C 68.160156 -98.917969 67.714844 -99.363281 67.714844 -99.914062 C 67.714844 -100.464844 68.160156 -100.910156 68.710938 -100.910156 C 69.261719 -100.910156 69.707031 -100.464844 69.707031 -99.914062 Z M 69.707031 -99.914062 " transform="matrix(1,0,0,-1,0,0)"/>
<path style="fill:none;stroke-width:0.3985;stroke-linecap:butt;stroke-linejoin:miter;stroke:rgb(38.822937%,38.822937%,100%);stroke-opacity:1;stroke-miterlimit:10;" d="M 72.453125 -98.605469 C 72.453125 -98.058594 72.007812 -97.609375 71.457031 -97.609375 C 70.90625 -97.609375 70.460938 -98.058594 70.460938 -98.605469 C 70.460938 -99.15625 70.90625 -99.605469 71.457031 -99.605469 C 72.007812 -99.605469 72.453125 -99.15625 72.453125 -98.605469 Z M 72.453125 -98.605469 " transform="matrix(1,0,0,-1,0,0)"/>
<path style="fill:none;stroke-width:0.3985;stroke-linecap:butt;stroke-linejoin:miter;stroke:rgb(38.822937%,38.822937%,100%);stroke-opacity:1;stroke-miterlimit:10;" d="M 75.199219 -96.195312 C 75.199219 -95.644531 74.753906 -95.199219 74.203125 -95.199219 C 73.652344 -95.199219 73.207031 -95.644531 73.207031 -96.195312 C 73.207031 -96.742188 73.652344 -97.191406 74.203125 -97.191406 C 74.753906 -97.191406 75.199219 -96.742188 75.199219 -96.195312 Z M 75.199219 -96.195312 " transform="matrix(1,0,0,-1,0,0)"/>
<path style="fill:none;stroke-width:0.3985;stroke-linecap:butt;stroke-linejoin:miter;stroke:rgb(38.822937%,38.822937%,100%);stroke-opacity:1;stroke-miterlimit:10;" d="M 77.945312 -94.792969 C 77.945312 -94.242188 77.5 -93.796875 76.949219 -93.796875 C 76.398438 -93.796875 75.953125 -94.242188 75.953125 -94.792969 C 75.953125 -95.34375 76.398438 -95.789062 76.949219 -95.789062 C 77.5 -95.789062 77.945312 -95.34375 77.945312 -94.792969 Z M 77.945312 -94.792969 " transform="matrix(1,0,0,-1,0,0)"/>
<path style="fill:none;stroke-width:0.3985;stroke-linecap:butt;stroke-linejoin:miter;stroke:rgb(38.822937%,38.822937%,100%);stroke-opacity:1;stroke-miterlimit:10;" d="M 80.691406 -92.75 C 80.691406 -92.199219 80.246094 -91.753906 79.695312 -91.753906 C 79.144531 -91.753906 78.699219 -92.199219 78.699219 -92.75 C 78.699219 -93.300781 79.144531 -93.746094 79.695312 -93.746094 C 80.246094 -93.746094 80.691406 -93.300781 80.691406 -92.75 Z M 80.691406 -92.75 " transform="matrix(1,0,0,-1,0,0)"/>
<path style="fill:none;stroke-width:0.3985;stroke-linecap:butt;stroke-linejoin:miter;stroke:rgb(38.822937%,38.822937%,100%);stroke-opacity:1;stroke-miterlimit:10;" d="M 83.4375 -90.769531 C 83.4375 -90.21875 82.992188 -89.773438 82.441406 -89.773438 C 81.894531 -89.773438 81.445312 -90.21875 81.445312 -90.769531 C 81.445312 -91.320312 81.894531 -91.765625 82.441406 -91.765625 C 82.992188 -91.765625 83.4375 -91.320312 83.4375 -90.769531 Z M 83.4375 -90.769531 " transform="matrix(1,0,0,-1,0,0)"/>
<path style="fill:none;stroke-width:0.3985;stroke-linecap:butt;stroke-linejoin:miter;stroke:rgb(38.822937%,38.822937%,100%);stroke-opacity:1;stroke-miterlimit:10;" d="M 86.183594 -88.15625 C 86.183594 -87.605469 85.738281 -87.160156 85.1875 -87.160156 C 84.640625 -87.160156 84.191406 -87.605469 84.191406 -88.15625 C 84.191406 -88.703125 84.640625 -89.152344 85.1875 -89.152344 C 85.738281 -89.152344 86.183594 -88.703125 86.183594 -88.15625 Z M 86.183594 -88.15625 " transform="matrix(1,0,0,-1,0,0)"/>
<path style="fill:none;stroke-width:0.3985;stroke-linecap:butt;stroke-linejoin:miter;stroke:rgb(38.822937%,38.822937%,100%);stroke-opacity:1;stroke-miterlimit:10;" d="M 88.933594 -85.8125 C 88.933594 -85.261719 88.484375 -84.8125 87.9375 -84.8125 C 87.386719 -84.8125 86.9375 -85.261719 86.9375 -85.8125 C 86.9375 -86.359375 87.386719 -86.808594 87.9375 -86.808594 C 88.484375 -86.808594 88.933594 -86.359375 88.933594 -85.8125 Z M 88.933594 -85.8125 " transform="matrix(1,0,0,-1,0,0)"/>
<path style="fill:none;stroke-width:0.3985;stroke-linecap:butt;stroke-linejoin:miter;stroke:rgb(38.822937%,38.822937%,100%);stroke-opacity:1;stroke-miterlimit:10;" d="M 91.679688 -83.519531 C 91.679688 -82.96875 91.230469 -82.523438 90.683594 -82.523438 C 90.132812 -82.523438 89.6875 -82.96875 89.6875 -83.519531 C 89.6875 -84.070312 90.132812 -84.515625 90.683594 -84.515625 C 91.230469 -84.515625 91.679688 -84.070312 91.679688 -83.519531 Z M 91.679688 -83.519531 " transform="matrix(1,0,0,-1,0,0)"/>
<path style="fill:none;stroke-width:0.3985;stroke-linecap:butt;stroke-linejoin:miter;stroke:rgb(38.822937%,38.822937%,100%);stroke-opacity:1;stroke-miterlimit:10;" d="M 94.425781 -79.746094 C 94.425781 -79.195312 93.976562 -78.75 93.429688 -78.75 C 92.878906 -78.75 92.433594 -79.195312 92.433594 -79.746094 C 92.433594 -80.292969 92.878906 -80.742188 93.429688 -80.742188 C 93.976562 -80.742188 94.425781 -80.292969 94.425781 -79.746094 Z M 94.425781 -79.746094 " transform="matrix(1,0,0,-1,0,0)"/>
<path style="fill:none;stroke-width:0.3985;stroke-linecap:butt;stroke-linejoin:miter;stroke:rgb(38.822937%,38.822937%,100%);stroke-opacity:1;stroke-miterlimit:10;" d="M 97.171875 -76.625 C 97.171875 -76.074219 96.726562 -75.628906 96.175781 -75.628906 C 95.625 -75.628906 95.179688 -76.074219 95.179688 -76.625 C 95.179688 -77.175781 95.625 -77.621094 96.175781 -77.621094 C 96.726562 -77.621094 97.171875 -77.175781 97.171875 -76.625 Z M 97.171875 -76.625 " transform="matrix(1,0,0,-1,0,0)"/>
<path style="fill:none;stroke-width:0.3985;stroke-linecap:butt;stroke-linejoin:miter;stroke:rgb(38.822937%,38.822937%,100%);stroke-opacity:1;stroke-miterlimit:10;" d="M 99.917969 -72.539062 C 99.917969 -71.988281 99.472656 -71.542969 98.921875 -71.542969 C 98.371094 -71.542969 97.925781 -71.988281 97.925781 -72.539062 C 97.925781 -73.089844 98.371094 -73.535156 98.921875 -73.535156 C 99.472656 -73.535156 99.917969 -73.089844 99.917969 -72.539062 Z M 99.917969 -72.539062 " transform="matrix(1,0,0,-1,0,0)"/>
<path style="fill:none;stroke-width:0.3985;stroke-linecap:butt;stroke-linejoin:miter;stroke:rgb(38.822937%,38.822937%,100%);stroke-opacity:1;stroke-miterlimit:10;" d="M 102.664062 -67.089844 C 102.664062 -66.539062 102.21875 -66.09375 101.667969 -66.09375 C 101.117188 -66.09375 100.671875 -66.539062 100.671875 -67.089844 C 100.671875 -67.640625 101.117188 -68.085938 101.667969 -68.085938 C 102.21875 -68.085938 102.664062 -67.640625 102.664062 -67.089844 Z M 102.664062 -67.089844 " transform="matrix(1,0,0,-1,0,0)"/>
<path style=" stroke:none;fill-rule:nonzero;fill:currentColor;fill-opacity:1;" d="M 122.796875 142.84375 L 122.859375 142.921875 C 123.3125 142.578125 123.65625 142.28125 123.90625 142 C 124.15625 141.734375 124.359375 141.484375 124.53125 141.234375 C 124.703125 140.984375 124.859375 140.75 125.015625 140.5 L 126.984375 140.5 L 126.984375 142.21875 L 125.28125 142.21875 L 124.640625 141.734375 L 124.6875 142.828125 L 124.6875 144.28125 L 123.453125 144.28125 L 122.796875 144.265625 L 123.109375 144.578125 C 123.390625 144.515625 123.640625 144.484375 123.859375 144.484375 L 126.984375 144.484375 L 126.984375 145.984375 L 126.9375 147.375 C 127.109375 147.34375 127.328125 147.265625 127.59375 147.140625 L 127.5625 146.109375 L 127.5625 144.484375 L 130.828125 144.484375 C 130.859375 144.484375 130.875 144.46875 130.890625 144.453125 C 130.890625 144.4375 130.875 144.40625 130.84375 144.375 L 130.15625 143.671875 L 129.734375 144.28125 L 127.5625 144.265625 L 127.5625 142.40625 L 129.890625 142.40625 C 129.9375 142.421875 129.96875 142.40625 129.96875 142.390625 C 129.984375 142.375 129.953125 142.34375 129.9375 142.328125 L 129.28125 141.6875 L 128.890625 142.21875 L 127.5625 142.21875 L 127.5625 140.515625 L 130.5625 140.5 C 130.59375 140.5 130.609375 140.484375 130.609375 140.46875 C 130.625 140.453125 130.625 140.421875 130.59375 140.40625 L 129.890625 139.703125 L 129.4375 140.28125 L 125.125 140.28125 L 125.46875 139.671875 L 125.734375 139.53125 C 125.765625 139.515625 125.796875 139.5 125.796875 139.484375 C 125.796875 139.46875 125.765625 139.453125 125.734375 139.421875 L 125.015625 139.03125 L 124.921875 139.328125 C 124.90625 139.453125 124.828125 139.65625 124.703125 139.953125 C 124.59375 140.25 124.421875 140.578125 124.234375 140.9375 C 124.046875 141.28125 123.890625 141.53125 123.78125 141.6875 C 123.65625 141.84375 123.34375 142.21875 122.796875 142.84375 Z M 125.203125 144.265625 L 125.203125 142.40625 L 126.984375 142.40625 L 126.984375 144.28125 Z M 125.203125 144.265625 "/>
<path style=" stroke:none;fill-rule:nonzero;fill:currentColor;fill-opacity:1;" d="M 133.921875 139 C 133.828125 139.34375 133.734375 139.671875 133.625 139.96875 C 133.5 140.265625 133.296875 140.734375 133 141.375 C 132.703125 142 132.375 142.578125 132.046875 143.0625 L 131.796875 143.421875 C 131.75 143.453125 131.703125 143.546875 131.640625 143.640625 L 131.75 143.703125 C 132.0625 143.359375 132.296875 143.09375 132.421875 142.90625 C 132.5625 142.71875 132.765625 142.421875 133.03125 142.03125 L 133.03125 146.171875 L 132.984375 147.15625 L 133.140625 147.09375 C 133.25 147.0625 133.3125 147.03125 133.359375 147.015625 C 133.40625 147 133.46875 146.953125 133.546875 146.890625 L 133.5 146 L 133.5 141.984375 L 133.734375 141.84375 C 133.8125 141.796875 133.84375 141.75 133.828125 141.734375 C 133.828125 141.703125 133.796875 141.6875 133.75 141.65625 L 133.390625 141.453125 C 133.765625 140.8125 134.109375 140.21875 134.421875 139.671875 L 134.71875 139.53125 C 134.734375 139.515625 134.765625 139.5 134.765625 139.484375 C 134.75 139.46875 134.734375 139.453125 134.71875 139.4375 Z M 135.953125 143.25 L 135.9375 143.640625 C 135.921875 143.734375 135.90625 143.90625 135.859375 144.171875 C 135.8125 144.421875 135.765625 144.703125 135.703125 144.953125 C 135.640625 145.21875 135.515625 145.484375 135.34375 145.75 C 135.1875 146.015625 134.953125 146.28125 134.65625 146.53125 C 134.359375 146.765625 134 147.03125 133.609375 147.296875 L 133.6875 147.421875 C 134.03125 147.234375 134.359375 147.03125 134.671875 146.828125 C 134.96875 146.625 135.25 146.421875 135.5 146.203125 C 135.75 145.984375 135.9375 145.703125 136.078125 145.34375 C 136.21875 144.96875 136.3125 144.640625 136.375 144.34375 C 136.421875 144.03125 136.46875 143.671875 136.53125 143.25 L 138.125 143.25 L 138.078125 144.265625 C 138.0625 144.765625 138.046875 145.078125 138.046875 145.203125 C 138.015625 145.34375 138 145.5 137.984375 145.71875 C 137.953125 145.921875 137.921875 146.078125 137.890625 146.1875 C 137.859375 146.296875 137.796875 146.390625 137.6875 146.46875 C 137.59375 146.546875 137.171875 146.484375 136.4375 146.296875 L 136.40625 146.421875 C 136.703125 146.546875 136.859375 146.609375 136.921875 146.640625 C 136.984375 146.671875 137.046875 146.703125 137.125 146.765625 C 137.203125 146.828125 137.25 146.890625 137.28125 147 C 137.328125 147.09375 137.34375 147.203125 137.375 147.359375 C 137.703125 147.234375 137.9375 147.09375 138.0625 146.96875 C 138.1875 146.84375 138.28125 146.703125 138.34375 146.546875 C 138.421875 146.40625 138.453125 146.203125 138.484375 145.96875 C 138.5 145.75 138.53125 145.4375 138.546875 145.03125 C 138.578125 144.640625 138.609375 144.140625 138.640625 143.5625 L 138.890625 143.40625 C 138.96875 143.34375 139.015625 143.3125 139.015625 143.296875 C 139.015625 143.296875 138.96875 143.25 138.890625 143.171875 L 138.3125 142.71875 L 138.03125 143.0625 L 135.359375 143.0625 L 134.921875 143.015625 L 135.1875 143.390625 L 135.34375 143.3125 C 135.34375 143.3125 135.40625 143.3125 135.5 143.28125 C 135.59375 143.265625 135.671875 143.25 135.6875 143.25 Z M 135.890625 139.421875 L 135.859375 139.703125 C 135.859375 139.796875 135.8125 139.96875 135.75 140.1875 C 135.6875 140.4375 135.609375 140.65625 135.53125 140.875 C 135.46875 141.078125 135.34375 141.359375 135.203125 141.703125 C 135.046875 142.0625 134.90625 142.359375 134.765625 142.625 C 134.609375 142.890625 134.34375 143.296875 133.96875 143.84375 L 134.078125 143.921875 C 134.609375 143.296875 134.96875 142.828125 135.1875 142.46875 C 135.40625 142.125 135.625 141.734375 135.859375 141.265625 C 136.09375 140.796875 136.28125 140.390625 136.4375 140.046875 L 136.65625 139.9375 C 136.71875 139.921875 136.765625 139.890625 136.765625 139.875 C 136.765625 139.859375 136.734375 139.828125 136.671875 139.796875 Z M 137.375 139.09375 L 137.40625 139.375 C 137.40625 139.390625 137.4375 139.484375 137.46875 139.640625 C 137.5 139.78125 137.5625 140.0625 137.671875 140.484375 C 137.75 140.90625 137.890625 141.265625 138.0625 141.5625 C 138.234375 141.84375 138.40625 142.078125 138.5625 142.28125 C 138.71875 142.484375 138.859375 142.65625 138.984375 142.765625 C 139.109375 142.890625 139.265625 143.015625 139.453125 143.15625 C 139.5625 143 139.671875 142.890625 139.78125 142.828125 C 139.875 142.765625 140.015625 142.734375 140.203125 142.71875 L 140.203125 142.609375 L 139.78125 142.46875 C 139.640625 142.4375 139.40625 142.296875 139.078125 142.046875 C 138.734375 141.8125 138.46875 141.484375 138.28125 141.109375 C 138.078125 140.71875 137.96875 140.453125 137.921875 140.328125 C 137.875 140.171875 137.828125 139.953125 137.765625 139.65625 L 137.96875 139.5 C 138.03125 139.453125 138.0625 139.421875 138.0625 139.40625 C 138.046875 139.390625 138.015625 139.375 137.953125 139.359375 Z M 137.375 139.09375 "/>
<path style=" stroke:none;fill-rule:nonzero;fill:currentColor;fill-opacity:1;" d="M 145.371094 142.359375 L 146.230469 142.359375 C 146.386719 142.359375 146.496094 142.359375 146.496094 142.203125 C 146.496094 142.09375 146.402344 142.09375 146.246094 142.09375 L 145.449219 142.09375 L 145.808594 140.59375 C 145.808594 140.453125 145.699219 140.34375 145.542969 140.34375 C 145.246094 140.34375 145.183594 140.59375 145.152344 140.6875 L 144.808594 142.09375 L 143.964844 142.09375 C 143.792969 142.09375 143.683594 142.09375 143.683594 142.25 C 143.683594 142.359375 143.777344 142.359375 143.933594 142.359375 L 144.746094 142.359375 L 144.121094 144.8125 C 144.058594 145.078125 144.058594 145.09375 144.058594 145.21875 C 144.058594 145.75 144.464844 146.046875 144.933594 146.046875 C 145.855469 146.046875 146.386719 144.765625 146.386719 144.671875 C 146.386719 144.625 146.355469 144.5625 146.277344 144.5625 C 146.183594 144.5625 146.167969 144.59375 146.105469 144.75 C 145.839844 145.390625 145.386719 145.828125 144.949219 145.828125 C 144.761719 145.828125 144.652344 145.71875 144.652344 145.421875 C 144.652344 145.21875 144.683594 145.109375 144.714844 144.96875 Z M 145.371094 142.359375 "/>
<path style=" stroke:none;fill-rule:nonzero;fill:currentColor;fill-opacity:1;" d="M 9.996094 100.1875 L 10.761719 100.265625 C 10.886719 100.265625 11.105469 100.296875 11.417969 100.359375 C 11.699219 100.40625 12.167969 100.53125 12.792969 100.703125 C 13.417969 100.890625 13.949219 101.3125 14.402344 101.96875 C 14.855469 102.625 15.199219 103.140625 15.449219 103.53125 L 15.558594 103.46875 L 15.074219 102.484375 C 14.996094 102.3125 14.824219 102.046875 14.574219 101.71875 C 14.292969 101.390625 13.996094 101.0625 13.683594 100.765625 C 13.371094 100.46875 12.964844 100.234375 12.511719 100.09375 C 12.042969 99.953125 11.636719 99.859375 11.292969 99.796875 C 10.949219 99.75 10.527344 99.6875 9.996094 99.625 L 9.996094 99.46875 L 10.761719 99.375 C 10.949219 99.359375 11.214844 99.296875 11.574219 99.203125 C 11.917969 99.09375 12.214844 99 12.464844 98.890625 C 12.699219 98.78125 13.011719 98.609375 13.371094 98.390625 C 13.714844 98.171875 14.027344 97.90625 14.292969 97.578125 C 14.574219 97.265625 14.855469 96.875 15.152344 96.390625 C 14.996094 96.21875 14.886719 96.078125 14.824219 95.984375 C 14.777344 95.890625 14.730469 95.65625 14.730469 95.28125 L 14.605469 95.28125 C 14.496094 95.75 14.355469 96.171875 14.183594 96.515625 C 14.042969 96.875 13.714844 97.3125 13.246094 97.875 C 12.761719 98.421875 12.167969 98.78125 11.480469 98.953125 C 10.777344 99.125 10.292969 99.21875 9.996094 99.28125 L 9.996094 95.625 C 9.996094 95.578125 9.996094 95.5625 9.980469 95.546875 C 9.964844 95.546875 9.933594 95.546875 9.917969 95.5625 L 9.183594 96.234375 L 9.792969 96.796875 L 9.792969 99.59375 L 8.777344 99.5 C 8.683594 99.5 8.355469 99.484375 7.824219 99.4375 L 7.699219 99.21875 C 7.667969 99.140625 7.636719 99.109375 7.605469 99.109375 C 7.589844 99.09375 7.558594 99.15625 7.496094 99.296875 L 7.183594 100.109375 L 7.667969 100.09375 C 7.808594 100.078125 8.074219 100.078125 8.511719 100.09375 C 8.917969 100.109375 9.199219 100.109375 9.324219 100.125 C 9.449219 100.125 9.605469 100.140625 9.792969 100.15625 L 9.792969 102.609375 L 9.777344 103.59375 L 10.183594 103.265625 C 10.105469 103.09375 10.058594 102.953125 10.027344 102.859375 C 10.011719 102.75 9.996094 102.609375 9.996094 102.453125 Z M 9.996094 100.1875 "/>
<path style=" stroke:none;fill-rule:nonzero;fill:currentColor;fill-opacity:1;" d="M 10.667969 94.753906 L 11.011719 94.457031 L 10.949219 94.269531 C 10.933594 94.191406 10.902344 93.972656 10.902344 93.566406 L 10.917969 90.847656 L 14.308594 90.847656 C 14.449219 90.847656 14.527344 90.878906 14.558594 90.894531 C 14.589844 90.941406 14.605469 91.035156 14.605469 91.191406 C 14.621094 91.347656 14.574219 91.785156 14.464844 92.472656 L 14.605469 92.472656 C 14.714844 92.003906 14.824219 91.707031 14.902344 91.582031 C 15.011719 91.457031 15.121094 91.378906 15.214844 91.332031 C 15.324219 91.285156 15.433594 91.253906 15.542969 91.222656 C 15.496094 91.035156 15.417969 90.847656 15.324219 90.660156 C 15.214844 90.488281 15.136719 90.378906 15.042969 90.332031 C 14.949219 90.285156 14.839844 90.253906 14.730469 90.253906 L 10.902344 90.253906 L 10.902344 86.582031 C 10.902344 86.535156 10.886719 86.519531 10.855469 86.488281 C 10.839844 86.472656 10.777344 86.519531 10.667969 86.613281 L 10.058594 87.300781 L 10.699219 87.800781 L 10.699219 90.253906 L 8.511719 90.253906 L 8.355469 90.066406 L 8.355469 87.347656 C 8.355469 87.316406 8.355469 87.285156 8.324219 87.253906 C 8.292969 87.238281 8.230469 87.300781 8.121094 87.410156 L 7.574219 88.035156 L 8.152344 88.488281 L 8.152344 93.207031 L 8.121094 94.050781 L 8.449219 93.785156 C 8.386719 93.566406 8.355469 93.269531 8.355469 92.847656 L 8.355469 90.847656 L 10.699219 90.847656 L 10.699219 93.863281 Z M 10.667969 94.753906 "/>
<path style=" stroke:none;fill-rule:nonzero;fill:currentColor;fill-opacity:1;" d="M 12.308594 78.726562 C 11.183594 78.726562 10.308594 79.554688 10.308594 80.570312 C 10.308594 81.101562 10.636719 81.492188 11.167969 81.742188 C 10.246094 81.742188 9.746094 81.648438 9.277344 81.398438 C 8.902344 81.226562 8.386719 80.789062 8.386719 80.117188 C 8.386719 79.945312 8.417969 79.523438 8.746094 79.320312 C 8.746094 79.648438 8.917969 79.804688 9.152344 79.804688 C 9.386719 79.804688 9.574219 79.632812 9.574219 79.382812 C 9.574219 79.132812 9.402344 78.960938 9.136719 78.960938 C 8.636719 78.960938 8.167969 79.320312 8.167969 80.132812 C 8.167969 81.289062 9.308594 82.554688 11.308594 82.554688 C 13.730469 82.554688 14.339844 81.460938 14.339844 80.617188 C 14.339844 79.632812 13.496094 78.726562 12.308594 78.726562 Z M 12.308594 79.539062 C 12.730469 79.539062 13.183594 79.539062 13.511719 79.710938 C 14.027344 79.992188 14.089844 80.382812 14.089844 80.632812 C 14.089844 81.148438 13.667969 81.445312 13.402344 81.539062 C 12.996094 81.710938 12.246094 81.726562 12.105469 81.726562 C 11.511719 81.726562 10.542969 81.445312 10.542969 80.585938 C 10.542969 80.445312 10.542969 80.007812 11.089844 79.710938 C 11.433594 79.539062 11.871094 79.539062 12.308594 79.539062 Z M 12.308594 79.539062 "/>
<path style=" stroke:none;fill-rule:nonzero;fill:currentColor;fill-opacity:1;" d="M 12.339844 74.199219 C 11.261719 74.199219 10.371094 74.964844 10.371094 75.949219 C 10.371094 76.371094 10.511719 76.808594 10.839844 77.136719 L 9.074219 77.136719 C 9.152344 76.855469 9.199219 76.574219 9.199219 76.308594 C 9.199219 75.199219 8.402344 74.558594 8.277344 74.558594 C 8.199219 74.558594 8.167969 74.605469 8.167969 74.652344 C 8.167969 74.652344 8.167969 74.683594 8.214844 74.777344 C 8.371094 75.199219 8.449219 75.605469 8.449219 75.980469 C 8.449219 76.371094 8.371094 76.777344 8.214844 77.183594 C 8.167969 77.277344 8.167969 77.292969 8.167969 77.292969 C 8.167969 77.402344 8.246094 77.402344 8.402344 77.402344 L 11.042969 77.402344 C 11.199219 77.402344 11.308594 77.402344 11.308594 77.277344 C 11.308594 77.214844 11.261719 77.183594 11.183594 77.136719 C 10.808594 76.855469 10.589844 76.433594 10.589844 75.964844 C 10.589844 74.996094 11.980469 74.996094 12.292969 74.996094 C 12.574219 74.996094 13.136719 74.996094 13.542969 75.261719 C 13.917969 75.496094 14.089844 75.871094 14.089844 76.230469 C 14.089844 76.746094 13.746094 77.355469 13.089844 77.574219 C 13.089844 77.574219 13.105469 77.511719 13.105469 77.449219 C 13.105469 77.261719 12.996094 76.996094 12.667969 76.996094 C 12.386719 76.996094 12.230469 77.199219 12.230469 77.449219 C 12.230469 77.636719 12.339844 77.886719 12.699219 77.886719 C 13.511719 77.886719 14.339844 77.199219 14.339844 76.199219 C 14.339844 75.121094 13.449219 74.199219 12.339844 74.199219 Z M 12.339844 74.199219 "/>
<path style=" stroke:none;fill-rule:nonzero;fill:currentColor;fill-opacity:1;" d="M 15.464844 70.324219 L 15.589844 70.277344 C 15.480469 69.464844 15.386719 68.871094 15.308594 68.511719 C 15.214844 68.136719 15.027344 67.605469 14.746094 66.886719 C 14.464844 66.167969 14.121094 65.605469 13.699219 65.199219 C 13.308594 64.792969 12.902344 64.417969 12.542969 64.089844 C 12.167969 63.777344 11.917969 63.542969 11.777344 63.417969 L 11.699219 63.167969 C 11.683594 63.027344 11.636719 62.933594 11.605469 62.933594 C 11.574219 62.917969 11.542969 62.964844 11.496094 63.027344 L 10.964844 63.730469 L 11.371094 64.105469 L 11.371094 67.121094 C 11.121094 66.902344 10.855469 66.667969 10.589844 66.433594 L 10.542969 66.199219 C 10.542969 66.136719 10.527344 66.089844 10.511719 66.089844 C 10.496094 66.074219 10.464844 66.105469 10.417969 66.152344 L 9.933594 66.808594 L 9.933594 63.574219 L 10.386719 63.574219 C 10.292969 63.246094 10.230469 63.089844 10.214844 63.042969 C 10.199219 63.027344 10.183594 62.980469 10.152344 62.949219 L 9.246094 62.996094 L 8.574219 62.996094 L 8.449219 62.792969 C 8.402344 62.699219 8.355469 62.667969 8.355469 62.667969 C 8.339844 62.667969 8.324219 62.714844 8.292969 62.808594 L 7.996094 63.605469 L 8.792969 63.574219 L 9.746094 63.574219 L 9.746094 65.746094 L 7.964844 65.746094 L 7.839844 65.542969 C 7.792969 65.480469 7.761719 65.449219 7.746094 65.449219 C 7.746094 65.449219 7.730469 65.480469 7.699219 65.542969 L 7.355469 66.339844 L 8.214844 66.308594 L 9.746094 66.308594 L 9.746094 68.339844 L 8.621094 68.339844 L 8.480469 68.121094 C 8.449219 68.058594 8.417969 68.011719 8.402344 68.011719 L 8.339844 68.167969 L 8.042969 68.902344 L 8.761719 68.855469 L 9.636719 68.855469 L 9.839844 69.183594 L 10.292969 68.574219 L 9.933594 68.261719 L 9.933594 66.855469 C 10.183594 66.980469 10.417969 67.105469 10.636719 67.246094 C 10.839844 67.371094 11.136719 67.574219 11.527344 67.855469 C 11.917969 68.136719 12.277344 68.449219 12.589844 68.792969 C 12.902344 69.121094 13.261719 69.527344 13.652344 70.011719 L 13.746094 69.949219 C 13.605469 69.683594 13.480469 69.480469 13.386719 69.339844 C 13.277344 69.183594 13.136719 68.980469 12.933594 68.730469 C 12.714844 68.464844 12.402344 68.121094 11.980469 67.667969 C 12.183594 67.433594 12.386719 67.246094 12.589844 67.121094 C 12.792969 66.996094 12.996094 66.902344 13.183594 66.855469 C 13.371094 66.777344 13.480469 66.746094 13.496094 66.699219 C 13.511719 66.683594 13.527344 66.652344 13.511719 66.621094 C 13.511719 66.480469 13.433594 66.371094 13.261719 66.292969 C 13.183594 66.246094 13.089844 66.246094 13.011719 66.246094 C 12.917969 66.261719 12.824219 66.292969 12.730469 66.371094 C 12.636719 66.433594 12.542969 66.511719 12.480469 66.605469 C 12.417969 66.699219 12.214844 67.011719 11.871094 67.558594 C 11.777344 67.480469 11.683594 67.402344 11.574219 67.308594 L 11.574219 64.152344 C 11.980469 64.402344 12.324219 64.652344 12.605469 64.871094 C 12.917969 65.105469 13.277344 65.464844 13.746094 65.996094 C 14.183594 66.496094 14.542969 67.152344 14.824219 67.902344 C 15.089844 68.667969 15.308594 69.480469 15.464844 70.324219 Z M 15.464844 70.324219 "/>
<path style=" stroke:none;fill-rule:nonzero;fill:currentColor;fill-opacity:1;" d="M 15.246094 61.3125 L 15.339844 61.28125 C 14.667969 59.71875 13.933594 58.734375 13.136719 58.296875 C 12.339844 57.890625 11.667969 57.609375 11.089844 57.515625 C 10.527344 57.40625 10.121094 57.34375 9.855469 57.3125 C 9.605469 57.296875 9.371094 57.265625 9.183594 57.234375 L 9.574219 57.1875 C 9.792969 57.171875 10.058594 57.125 10.449219 57.0625 C 10.792969 57 11.277344 56.875 11.855469 56.703125 C 12.449219 56.546875 13.027344 56.21875 13.574219 55.734375 C 14.152344 55.265625 14.667969 54.6875 15.136719 54 L 14.902344 53.75 C 14.839844 53.703125 14.792969 53.609375 14.761719 53.484375 C 14.730469 53.359375 14.730469 53.1875 14.746094 52.953125 L 14.636719 52.9375 C 14.449219 53.4375 14.183594 53.953125 13.855469 54.5 C 13.527344 55.03125 13.074219 55.5 12.496094 55.90625 C 11.917969 56.3125 11.277344 56.59375 10.574219 56.75 C 9.871094 56.90625 9.339844 57 9.027344 57.046875 C 8.699219 57.078125 8.496094 57.09375 8.417969 57.09375 C 8.324219 57.09375 8.214844 57.09375 8.074219 57.078125 L 7.917969 56.828125 C 7.855469 56.75 7.824219 56.71875 7.808594 56.734375 C 7.792969 56.734375 7.777344 56.765625 7.746094 56.8125 L 7.371094 57.78125 L 8.339844 57.765625 C 8.652344 57.75 9.074219 57.765625 9.558594 57.828125 C 10.058594 57.875 10.605469 57.96875 11.167969 58.09375 C 11.730469 58.234375 12.246094 58.421875 12.714844 58.65625 C 13.183594 58.90625 13.558594 59.171875 13.855469 59.484375 C 14.152344 59.796875 14.417969 60.109375 14.652344 60.4375 C 14.886719 60.75 15.089844 61.046875 15.246094 61.3125 Z M 15.246094 61.3125 "/>
<path style=" stroke:none;fill-rule:nonzero;fill:currentColor;fill-opacity:1;" d="M 8.574219 50.972656 L 10.027344 50.910156 L 13.308594 50.910156 L 14.855469 50.988281 C 14.777344 50.707031 14.667969 50.503906 14.558594 50.363281 L 13.792969 50.363281 L 13.792969 46.082031 L 14.777344 46.082031 C 14.667969 45.785156 14.542969 45.582031 14.433594 45.441406 L 13.339844 45.503906 L 9.371094 45.503906 L 9.167969 45.285156 C 9.121094 45.207031 9.089844 45.175781 9.058594 45.175781 C 9.042969 45.175781 8.996094 45.222656 8.933594 45.316406 L 8.542969 45.894531 L 8.996094 46.207031 L 8.996094 50.316406 Z M 13.574219 50.363281 L 9.199219 50.363281 L 9.199219 46.082031 L 13.574219 46.082031 Z M 13.574219 50.363281 "/>
<path style=" stroke:none;fill-rule:nonzero;fill:currentColor;fill-opacity:1;" d="M 11.449219 38.066406 C 12.152344 38.066406 13.230469 37.972656 14.246094 37.472656 C 15.339844 36.941406 15.933594 36.160156 15.933594 36.082031 C 15.933594 36.019531 15.902344 35.988281 15.839844 35.988281 C 15.808594 35.988281 15.792969 35.988281 15.636719 36.144531 C 14.511719 37.253906 12.824219 37.550781 11.449219 37.550781 C 9.886719 37.550781 8.324219 37.207031 7.199219 36.097656 C 7.089844 35.988281 7.074219 35.988281 7.058594 35.988281 C 6.996094 35.988281 6.964844 36.019531 6.964844 36.082031 C 6.964844 36.160156 7.574219 36.972656 8.714844 37.503906 C 9.699219 37.957031 10.699219 38.066406 11.449219 38.066406 Z M 11.449219 38.066406 "/>
<path style=" stroke:none;fill-rule:nonzero;fill:currentColor;fill-opacity:1;" d="M 12.152344 34.398438 L 12.214844 34.320312 C 11.917969 34.039062 11.652344 33.804688 11.433594 33.617188 C 11.199219 33.445312 10.777344 33.148438 10.152344 32.742188 L 14.339844 32.742188 L 15.402344 32.789062 C 15.371094 32.710938 15.324219 32.601562 15.246094 32.476562 C 15.183594 32.367188 15.121094 32.273438 15.074219 32.210938 L 14.339844 32.257812 L 10.152344 32.257812 L 10.074219 32.117188 C 10.042969 32.070312 10.027344 32.039062 9.996094 32.039062 C 9.980469 32.039062 9.933594 32.070312 9.902344 32.101562 L 9.605469 32.507812 C 9.042969 32.242188 8.449219 31.976562 7.824219 31.710938 L 7.730469 31.445312 C 7.699219 31.382812 7.667969 31.351562 7.636719 31.351562 C 7.621094 31.351562 7.589844 31.382812 7.542969 31.445312 L 7.121094 32.101562 C 7.574219 32.242188 8.011719 32.382812 8.402344 32.507812 C 8.792969 32.648438 9.261719 32.835938 9.761719 33.054688 C 10.277344 33.273438 10.699219 33.476562 11.011719 33.664062 C 11.324219 33.851562 11.699219 34.101562 12.152344 34.398438 Z M 7.855469 27.882812 L 8.308594 28.273438 L 8.386719 30.867188 L 8.371094 31.351562 L 8.730469 31.007812 L 8.667969 30.835938 C 8.652344 30.757812 8.605469 30.523438 8.574219 30.164062 L 8.496094 28.195312 L 9.402344 28.773438 C 9.433594 28.789062 9.746094 29.007812 10.339844 29.414062 C 10.917969 29.835938 11.386719 30.148438 11.714844 30.351562 C 12.042969 30.570312 12.371094 30.773438 12.683594 30.945312 C 12.996094 31.117188 13.277344 31.242188 13.542969 31.289062 C 13.714844 31.304688 13.933594 31.304688 14.167969 31.257812 C 14.417969 31.226562 14.605469 31.070312 14.699219 30.804688 C 14.792969 30.539062 14.855469 30.257812 14.871094 29.898438 C 14.886719 29.554688 14.886719 29.023438 14.886719 28.351562 C 14.886719 27.867188 14.871094 27.445312 14.839844 27.117188 C 14.824219 26.789062 14.761719 26.570312 14.667969 26.445312 C 14.574219 26.320312 14.402344 26.210938 14.167969 26.085938 L 13.996094 26.289062 C 13.964844 26.351562 13.886719 26.382812 13.761719 26.414062 C 13.621094 26.445312 13.464844 26.460938 13.277344 26.460938 C 13.074219 26.460938 12.808594 26.460938 12.480469 26.476562 L 12.480469 26.585938 L 13.277344 26.695312 C 13.511719 26.726562 13.699219 26.757812 13.839844 26.789062 C 13.980469 26.820312 14.089844 26.867188 14.152344 26.914062 C 14.214844 26.976562 14.261719 27.101562 14.292969 27.273438 C 14.355469 27.460938 14.371094 27.898438 14.386719 28.617188 C 14.386719 28.773438 14.371094 29.070312 14.371094 29.492188 C 14.355469 29.929688 14.339844 30.210938 14.308594 30.351562 C 14.277344 30.476562 14.214844 30.585938 14.136719 30.664062 C 14.058594 30.742188 13.933594 30.773438 13.777344 30.773438 C 13.636719 30.789062 13.449219 30.757812 13.230469 30.664062 C 13.011719 30.585938 12.667969 30.398438 12.230469 30.132812 C 11.792969 29.851562 11.199219 29.445312 10.464844 28.945312 C 9.730469 28.414062 9.292969 28.132812 9.183594 28.023438 C 9.058594 27.929688 8.886719 27.789062 8.652344 27.601562 L 8.496094 27.273438 C 8.480469 27.226562 8.464844 27.210938 8.433594 27.195312 C 8.417969 27.195312 8.386719 27.226562 8.355469 27.257812 Z M 7.855469 27.882812 "/>
<path style=" stroke:none;fill-rule:nonzero;fill:currentColor;fill-opacity:1;" d="M 15.839844 24.617188 C 15.902344 24.617188 15.933594 24.585938 15.933594 24.523438 C 15.933594 24.445312 15.324219 23.632812 14.183594 23.101562 C 13.199219 22.648438 12.199219 22.539062 11.449219 22.539062 C 10.746094 22.539062 9.667969 22.632812 8.652344 23.132812 C 7.542969 23.664062 6.964844 24.445312 6.964844 24.523438 C 6.964844 24.585938 6.996094 24.617188 7.058594 24.617188 C 7.074219 24.617188 7.089844 24.617188 7.261719 24.445312 C 8.152344 23.570312 9.574219 23.054688 11.449219 23.054688 C 12.980469 23.054688 14.558594 23.382812 15.683594 24.507812 C 15.792969 24.617188 15.808594 24.617188 15.839844 24.617188 Z M 15.839844 24.617188 "/>
<path style="fill:none;stroke-width:0.3985;stroke-linecap:butt;stroke-linejoin:miter;stroke:currentColor;stroke-opacity:1;stroke-miterlimit:10;" d="M 36.722656 -5.851562 L 80.035156 -5.851562 L 80.035156 -33.0625 L 36.722656 -33.0625 Z M 36.722656 -5.851562 " transform="matrix(1,0,0,-1,0,0)"/>
<path style="fill:none;stroke-width:0.3985;stroke-linecap:butt;stroke-linejoin:miter;stroke:rgb(38.822937%,38.822937%,100%);stroke-opacity:1;stroke-miterlimit:10;" d="M 49.410156 -13.695312 C 49.410156 -13.144531 48.964844 -12.699219 48.414062 -12.699219 C 47.863281 -12.699219 47.417969 -13.144531 47.417969 -13.695312 C 47.417969 -14.246094 47.863281 -14.691406 48.414062 -14.691406 C 48.964844 -14.691406 49.410156 -14.246094 49.410156 -13.695312 Z M 49.410156 -13.695312 " transform="matrix(1,0,0,-1,0,0)"/>
<path style=" stroke:none;fill-rule:nonzero;fill:currentColor;fill-opacity:1;" d="M 59.3125 17.382812 L 59.359375 17.492188 C 59.890625 17.320312 60.296875 17.164062 60.609375 17.039062 C 60.890625 16.898438 61.140625 16.757812 61.3125 16.601562 C 61.5 16.445312 61.65625 16.304688 61.796875 16.164062 L 62.1875 16.507812 C 62.234375 16.554688 62.328125 16.664062 62.46875 16.804688 C 62.546875 16.914062 62.609375 16.960938 62.640625 16.945312 C 62.671875 16.945312 62.71875 16.898438 62.765625 16.804688 C 62.8125 16.710938 62.828125 16.632812 62.84375 16.554688 C 62.84375 16.445312 62.8125 16.367188 62.765625 16.289062 C 62.71875 16.210938 62.625 16.132812 62.484375 16.070312 C 62.359375 15.992188 62.203125 15.929688 62.0625 15.835938 L 62.265625 15.507812 C 62.359375 15.398438 62.5 15.132812 62.71875 14.710938 L 62.921875 14.601562 C 63 14.570312 63.046875 14.539062 63.046875 14.507812 C 63.046875 14.492188 63.015625 14.429688 62.921875 14.367188 L 62.453125 13.976562 L 62.1875 14.335938 L 61.359375 14.351562 L 61.53125 14.085938 L 61.65625 14.007812 C 61.6875 13.992188 61.703125 13.976562 61.71875 13.960938 C 61.71875 13.945312 61.71875 13.929688 61.703125 13.929688 L 61.109375 13.648438 L 60.984375 14.054688 C 60.96875 14.101562 60.9375 14.195312 60.859375 14.382812 L 59.46875 14.398438 L 59.734375 14.710938 L 59.84375 14.648438 C 59.890625 14.601562 60.03125 14.585938 60.234375 14.570312 L 60.78125 14.554688 L 60.5625 14.960938 C 60.53125 15.023438 60.4375 15.164062 60.28125 15.414062 C 60.796875 15.617188 61.078125 15.742188 61.171875 15.789062 C 61.25 15.851562 61.328125 15.898438 61.421875 15.960938 L 61.140625 16.273438 C 61.03125 16.398438 60.84375 16.554688 60.578125 16.710938 C 60.328125 16.882812 60.109375 17.007812 59.953125 17.085938 C 59.796875 17.164062 59.59375 17.273438 59.3125 17.382812 Z M 60.796875 15.351562 L 61.265625 14.539062 L 62.25 14.507812 C 62.109375 14.882812 61.984375 15.132812 61.921875 15.257812 C 61.84375 15.398438 61.75 15.523438 61.671875 15.664062 Z M 59.34375 13.929688 L 59.421875 14.023438 L 59.9375 13.632812 C 60.03125 13.554688 60.21875 13.382812 60.5 13.101562 C 60.765625 12.835938 61.03125 12.523438 61.3125 12.179688 L 61.3125 13.054688 L 61.265625 13.679688 C 61.5 13.617188 61.671875 13.539062 61.78125 13.460938 L 61.75 13.023438 L 61.75 12.492188 L 62.171875 12.757812 C 62.265625 12.835938 62.390625 12.945312 62.484375 13.117188 C 62.59375 13.289062 62.671875 13.382812 62.734375 13.429688 C 62.78125 13.460938 62.84375 13.445312 62.921875 13.367188 C 63 13.289062 63.03125 13.195312 63 13.085938 C 62.984375 12.992188 62.9375 12.898438 62.84375 12.804688 C 62.765625 12.710938 62.640625 12.648438 62.484375 12.585938 C 62.34375 12.507812 62.203125 12.460938 62.09375 12.414062 C 61.984375 12.382812 61.859375 12.335938 61.75 12.304688 L 61.75 11.992188 L 63.390625 11.992188 C 63.453125 11.992188 63.5 11.992188 63.515625 11.976562 C 63.53125 11.945312 63.5 11.914062 63.453125 11.867188 L 63.03125 11.414062 L 62.703125 11.820312 L 61.75 11.820312 L 61.75 10.351562 L 61.953125 10.273438 C 62.0625 10.226562 62.0625 10.164062 61.9375 10.117188 L 61.265625 9.835938 L 61.3125 10.632812 L 61.3125 11.820312 L 60.03125 11.820312 L 59.46875 11.804688 L 59.765625 12.101562 C 59.9375 12.023438 60.0625 11.992188 60.171875 11.992188 L 60.90625 11.992188 C 60.703125 12.335938 60.546875 12.585938 60.4375 12.742188 C 60.3125 12.898438 60.171875 13.070312 60 13.273438 C 59.828125 13.476562 59.703125 13.617188 59.625 13.679688 C 59.546875 13.757812 59.453125 13.835938 59.34375 13.929688 Z M 59.84375 10.445312 L 60.125 10.757812 C 60.203125 10.851562 60.25 10.960938 60.296875 11.070312 L 60.40625 11.492188 C 60.453125 11.554688 60.5 11.585938 60.546875 11.601562 C 60.578125 11.601562 60.640625 11.570312 60.734375 11.476562 C 60.8125 11.398438 60.84375 11.304688 60.8125 11.164062 C 60.78125 11.023438 60.71875 10.914062 60.609375 10.804688 C 60.5 10.726562 60.265625 10.570312 59.875 10.367188 Z M 62.765625 10.148438 L 62.75 10.179688 C 62.734375 10.179688 62.734375 10.210938 62.71875 10.257812 C 62.71875 10.289062 62.671875 10.382812 62.609375 10.539062 C 62.546875 10.679688 62.5 10.773438 62.453125 10.851562 L 62.03125 11.570312 C 62 11.601562 62 11.601562 62 11.601562 L 62.015625 11.632812 C 62.03125 11.648438 62.046875 11.648438 62.0625 11.648438 C 62.078125 11.648438 62.15625 11.585938 62.265625 11.460938 L 62.921875 10.789062 C 62.984375 10.726562 63.03125 10.695312 63.0625 10.679688 L 63.265625 10.679688 C 63.296875 10.664062 63.296875 10.664062 63.3125 10.648438 C 63.3125 10.632812 63.296875 10.617188 63.234375 10.570312 Z M 62.046875 17.382812 L 62.078125 17.492188 C 62.65625 17.304688 63.109375 17.132812 63.390625 16.976562 C 63.671875 16.820312 63.9375 16.648438 64.15625 16.445312 C 64.375 16.242188 64.578125 16.023438 64.78125 15.773438 C 65 16.070312 65.203125 16.320312 65.40625 16.554688 C 65.59375 16.773438 65.734375 16.929688 65.8125 16.992188 C 65.890625 17.070312 65.984375 17.148438 66.078125 17.210938 L 66.21875 17.023438 C 66.234375 16.976562 66.3125 16.945312 66.421875 16.898438 C 66.546875 16.867188 66.71875 16.867188 66.890625 16.882812 L 66.90625 16.804688 C 66.5625 16.648438 66.328125 16.523438 66.1875 16.429688 C 66.046875 16.335938 65.890625 16.226562 65.734375 16.101562 C 65.59375 15.976562 65.453125 15.867188 65.375 15.773438 C 65.28125 15.664062 65.1875 15.523438 65.0625 15.351562 L 65.28125 14.867188 C 65.328125 14.757812 65.390625 14.585938 65.46875 14.304688 C 65.5625 14.023438 65.625 13.742188 65.671875 13.476562 C 65.734375 13.179688 65.8125 12.695312 65.9375 11.976562 L 66.875 11.976562 C 66.890625 11.976562 66.921875 11.976562 66.9375 11.960938 C 66.9375 11.945312 66.921875 11.914062 66.875 11.867188 L 66.34375 11.320312 L 65.9375 11.804688 L 64.15625 11.804688 C 64.34375 11.289062 64.515625 10.835938 64.65625 10.476562 L 64.875 10.382812 C 64.921875 10.351562 64.953125 10.335938 64.953125 10.320312 C 64.953125 10.289062 64.9375 10.273438 64.875 10.242188 L 64.1875 9.867188 L 64.0625 10.632812 C 64.015625 10.851562 63.96875 11.085938 63.90625 11.304688 C 63.84375 11.539062 63.765625 11.820312 63.65625 12.148438 C 63.5625 12.476562 63.453125 12.757812 63.359375 12.992188 C 63.265625 13.226562 63.125 13.554688 62.90625 13.960938 L 63.015625 14.023438 C 63.3125 13.570312 63.515625 13.257812 63.609375 13.054688 C 63.703125 12.867188 63.796875 12.648438 63.921875 12.382812 L 64 13.085938 C 64.03125 13.320312 64.078125 13.570312 64.125 13.882812 C 64.1875 14.195312 64.25 14.445312 64.328125 14.664062 C 64.390625 14.867188 64.46875 15.117188 64.578125 15.398438 C 64.375 15.679688 64.15625 15.945312 63.921875 16.210938 C 63.671875 16.492188 63.375 16.710938 63.03125 16.914062 C 62.671875 17.101562 62.34375 17.257812 62.046875 17.382812 Z M 65.421875 11.976562 L 65.328125 12.945312 C 65.296875 13.148438 65.265625 13.414062 65.203125 13.726562 C 65.125 14.039062 65.0625 14.273438 65.015625 14.414062 C 64.984375 14.554688 64.90625 14.726562 64.796875 14.960938 L 64.609375 14.492188 C 64.5625 14.335938 64.484375 14.085938 64.390625 13.726562 C 64.296875 13.367188 64.21875 13.039062 64.1875 12.773438 C 64.140625 12.523438 64.109375 12.242188 64.09375 11.976562 Z M 65.421875 11.976562 "/>
<path style=" stroke:none;fill-rule:nonzero;fill:currentColor;fill-opacity:1;" d="M 67.300781 14.023438 L 67.691406 14.554688 L 67.972656 14.320312 C 68.066406 14.226562 68.285156 14.085938 68.613281 13.898438 L 68.613281 16.226562 C 68.613281 16.335938 68.613281 16.398438 68.582031 16.445312 C 68.566406 16.492188 68.519531 16.507812 68.457031 16.539062 C 68.394531 16.554688 68.066406 16.523438 67.472656 16.414062 L 67.457031 16.539062 C 67.722656 16.601562 67.894531 16.664062 67.972656 16.695312 C 68.066406 16.726562 68.128906 16.773438 68.160156 16.835938 C 68.207031 16.898438 68.222656 16.960938 68.222656 17.023438 C 68.238281 17.070312 68.238281 17.132812 68.238281 17.179688 C 68.503906 17.101562 68.707031 17.023438 68.832031 16.929688 C 68.957031 16.820312 69.035156 16.742188 69.035156 16.664062 C 69.050781 16.570312 69.066406 16.476562 69.066406 16.367188 L 69.066406 13.617188 L 70.191406 12.945312 L 70.128906 12.851562 L 69.066406 13.320312 L 69.066406 11.992188 L 70.285156 11.992188 C 70.300781 11.992188 70.316406 11.976562 70.332031 11.960938 C 70.332031 11.945312 70.332031 11.929688 70.300781 11.898438 L 69.785156 11.429688 L 69.441406 11.820312 L 69.066406 11.820312 L 69.066406 10.554688 L 69.300781 10.429688 C 69.363281 10.382812 69.410156 10.367188 69.410156 10.335938 C 69.394531 10.320312 69.363281 10.289062 69.300781 10.257812 L 68.582031 9.914062 L 68.628906 10.789062 L 68.628906 11.820312 L 68.066406 11.820312 L 67.410156 11.789062 L 67.660156 12.085938 C 67.800781 12.023438 67.988281 11.992188 68.191406 11.992188 L 68.613281 11.992188 L 68.613281 13.554688 C 68.175781 13.726562 67.738281 13.882812 67.300781 14.023438 Z M 68.972656 17.195312 L 69.050781 17.257812 C 69.675781 16.742188 70.082031 16.304688 70.285156 15.945312 C 70.472656 15.570312 70.613281 15.242188 70.691406 14.960938 C 70.753906 14.648438 70.785156 14.398438 70.816406 14.179688 C 70.832031 13.960938 70.847656 13.773438 70.847656 13.617188 L 72.269531 13.617188 L 72.269531 14.851562 L 71.582031 14.851562 L 71.035156 14.539062 L 71.082031 15.476562 L 71.082031 16.554688 L 71.019531 17.382812 L 71.144531 17.335938 L 71.332031 17.242188 C 71.394531 17.210938 71.441406 17.179688 71.503906 17.148438 L 71.503906 16.648438 L 73.613281 16.648438 L 73.613281 17.242188 C 73.816406 17.164062 74.003906 17.070312 74.144531 16.976562 L 74.097656 16.398438 L 74.097656 15.195312 L 74.285156 15.054688 C 74.347656 15.007812 74.378906 14.976562 74.378906 14.976562 C 74.378906 14.960938 74.347656 14.929688 74.285156 14.882812 L 73.800781 14.492188 L 73.535156 14.851562 L 72.707031 14.851562 L 72.707031 13.617188 L 74.738281 13.617188 C 74.800781 13.617188 74.847656 13.601562 74.847656 13.585938 C 74.847656 13.554688 74.816406 13.523438 74.769531 13.460938 L 74.238281 12.992188 L 73.847656 13.445312 L 72.707031 13.445312 L 72.707031 12.757812 L 72.941406 12.632812 C 72.972656 12.617188 72.988281 12.601562 72.988281 12.585938 C 72.988281 12.585938 72.988281 12.570312 72.972656 12.570312 L 72.222656 12.210938 L 72.269531 12.835938 L 72.269531 13.429688 L 70.878906 13.429688 L 70.910156 12.054688 L 73.566406 12.054688 L 73.566406 12.476562 C 73.769531 12.382812 73.941406 12.320312 74.066406 12.242188 L 74.035156 11.710938 L 74.035156 10.898438 L 74.222656 10.757812 C 74.316406 10.710938 74.363281 10.679688 74.363281 10.664062 C 74.363281 10.664062 74.316406 10.617188 74.207031 10.539062 L 73.753906 10.210938 L 73.488281 10.554688 L 71.144531 10.554688 L 70.457031 10.195312 L 70.472656 11.054688 C 70.472656 11.320312 70.457031 11.742188 70.441406 12.304688 C 70.425781 12.867188 70.410156 13.351562 70.378906 13.742188 C 70.363281 14.132812 70.316406 14.492188 70.269531 14.789062 C 70.207031 15.117188 70.128906 15.414062 70.035156 15.679688 C 69.925781 15.929688 69.785156 16.179688 69.628906 16.398438 C 69.457031 16.632812 69.238281 16.898438 68.972656 17.195312 Z M 70.925781 11.867188 L 70.957031 10.710938 L 73.566406 10.710938 L 73.566406 11.867188 Z M 71.503906 16.476562 L 71.503906 15.023438 L 73.613281 15.023438 L 73.613281 16.476562 Z M 71.503906 16.476562 "/>
<path style="fill:none;stroke-width:0.3985;stroke-linecap:butt;stroke-linejoin:miter;stroke:rgb(100%,38.822937%,38.822937%);stroke-opacity:1;stroke-miterlimit:10;" d="M 39.910156 -25.304688 L 56.917969 -25.304688 " transform="matrix(1,0,0,-1,0,0)"/>
<path style=" stroke:none;fill-rule:nonzero;fill:currentColor;fill-opacity:1;" d="M 59.375 24.289062 L 59.625 24.632812 C 59.765625 24.570312 59.890625 24.539062 59.953125 24.523438 C 60.03125 24.507812 60.109375 24.507812 60.203125 24.507812 L 60.8125 24.507812 L 60.8125 27.820312 C 60.796875 27.929688 60.671875 27.976562 60.421875 27.960938 C 60.203125 27.945312 59.9375 27.929688 59.609375 27.882812 L 59.59375 27.992188 C 59.859375 28.070312 60.046875 28.132812 60.15625 28.179688 C 60.25 28.242188 60.34375 28.289062 60.40625 28.367188 C 60.453125 28.429688 60.484375 28.492188 60.5 28.539062 C 60.515625 28.601562 60.53125 28.648438 60.546875 28.710938 C 60.640625 28.695312 60.765625 28.632812 60.921875 28.523438 C 61.078125 28.429688 61.171875 28.335938 61.21875 28.273438 C 61.25 28.195312 61.265625 28.132812 61.265625 28.070312 L 61.265625 24.507812 L 62.109375 24.507812 L 61.703125 25.398438 L 61.765625 25.460938 C 62.03125 25.101562 62.203125 24.882812 62.3125 24.804688 C 62.421875 24.710938 62.515625 24.648438 62.609375 24.632812 L 62.765625 24.601562 C 62.8125 24.585938 62.84375 24.570312 62.859375 24.554688 C 62.859375 24.523438 62.828125 24.476562 62.734375 24.414062 L 62.28125 24.023438 L 62.046875 24.320312 L 59.9375 24.320312 Z M 61.765625 22.195312 L 61.234375 23.085938 C 61.203125 23.117188 61.15625 23.210938 61.0625 23.335938 C 60.71875 23.117188 60.515625 22.992188 60.453125 22.976562 C 60.40625 22.945312 60.34375 22.914062 60.25 22.898438 L 60.203125 22.960938 C 60.53125 23.242188 60.734375 23.445312 60.8125 23.570312 C 60.890625 23.695312 60.953125 23.820312 60.96875 23.929688 C 61 24.054688 61.015625 24.117188 61.03125 24.148438 C 61.03125 24.164062 61.0625 24.195312 61.125 24.242188 C 61.1875 24.289062 61.25 24.257812 61.34375 24.148438 C 61.4375 24.039062 61.46875 23.945312 61.453125 23.851562 C 61.4375 23.773438 61.40625 23.695312 61.359375 23.632812 C 61.296875 23.554688 61.25 23.492188 61.203125 23.429688 L 61.46875 23.132812 L 61.921875 22.664062 C 62.078125 22.507812 62.203125 22.414062 62.3125 22.382812 L 62.5 22.351562 C 62.53125 22.351562 62.5625 22.335938 62.5625 22.304688 C 62.578125 22.289062 62.546875 22.226562 62.453125 22.132812 L 62.015625 21.695312 L 61.6875 22.007812 L 60 22.007812 L 59.40625 21.976562 L 59.65625 22.320312 L 59.84375 22.242188 C 59.890625 22.210938 60.046875 22.195312 60.296875 22.195312 Z M 61.453125 28.757812 L 61.484375 28.882812 C 62.09375 28.710938 62.65625 28.523438 63.203125 28.273438 C 63.734375 28.039062 64.078125 27.773438 64.234375 27.476562 C 64.390625 27.195312 64.5 26.929688 64.53125 26.679688 C 64.578125 26.429688 64.609375 26.117188 64.625 25.710938 C 64.65625 25.304688 64.671875 24.929688 64.71875 24.585938 L 64.84375 24.523438 C 64.9375 24.476562 64.984375 24.445312 64.984375 24.429688 C 65 24.414062 64.953125 24.382812 64.859375 24.335938 L 64.25 24.070312 L 64.25 24.742188 C 64.25 24.914062 64.25 25.226562 64.21875 25.679688 C 64.203125 26.132812 64.15625 26.492188 64.09375 26.773438 C 64.03125 27.054688 63.859375 27.351562 63.59375 27.648438 C 63.328125 27.960938 62.609375 28.335938 61.453125 28.757812 Z M 64.109375 23.445312 C 64.296875 23.054688 64.515625 22.648438 64.75 22.210938 L 66.75 22.210938 C 66.78125 22.210938 66.796875 22.210938 66.796875 22.179688 C 66.8125 22.164062 66.796875 22.148438 66.75 22.101562 L 66.203125 21.585938 L 65.8125 22.039062 L 63.375 22.039062 L 62.6875 22.007812 L 62.96875 22.320312 L 63.203125 22.242188 C 63.234375 22.226562 63.40625 22.226562 63.703125 22.226562 L 64.203125 22.226562 C 64.171875 22.367188 64.125 22.554688 64.078125 22.789062 C 64.015625 23.039062 63.984375 23.179688 63.96875 23.242188 C 63.953125 23.304688 63.9375 23.367188 63.90625 23.445312 L 63.515625 23.445312 L 62.953125 23.132812 L 62.984375 23.898438 L 62.984375 26.273438 L 62.953125 27.273438 L 63.015625 27.242188 L 63.1875 27.164062 L 63.328125 27.117188 C 63.359375 27.101562 63.390625 27.085938 63.4375 27.070312 L 63.40625 26.460938 L 63.40625 23.648438 L 65.65625 23.648438 L 65.65625 26.257812 L 65.625 27.023438 C 65.875 26.945312 66.046875 26.882812 66.140625 26.804688 L 66.09375 26.023438 L 66.09375 23.820312 L 66.28125 23.664062 C 66.359375 23.601562 66.40625 23.570312 66.40625 23.554688 C 66.40625 23.554688 66.359375 23.507812 66.25 23.429688 L 65.828125 23.117188 L 65.59375 23.445312 Z M 64.71875 27.148438 C 65.171875 27.476562 65.46875 27.726562 65.578125 27.882812 C 65.703125 28.039062 65.796875 28.179688 65.875 28.335938 C 65.96875 28.476562 66.03125 28.585938 66.0625 28.664062 C 66.09375 28.742188 66.109375 28.804688 66.140625 28.820312 C 66.15625 28.820312 66.171875 28.835938 66.203125 28.835938 C 66.25 28.835938 66.3125 28.820312 66.359375 28.742188 C 66.421875 28.695312 66.46875 28.601562 66.484375 28.476562 C 66.515625 28.351562 66.5 28.257812 66.484375 28.179688 C 66.453125 28.085938 66.328125 27.945312 66.078125 27.773438 C 65.828125 27.585938 65.390625 27.367188 64.75 27.085938 Z M 64.71875 27.148438 "/>
<path style=" stroke:none;fill-rule:nonzero;fill:currentColor;fill-opacity:1;" d="M 69.347656 23.148438 L 69.222656 23.523438 L 68.707031 24.992188 C 68.472656 25.617188 68.332031 25.992188 68.300781 26.101562 C 68.253906 26.226562 68.207031 26.304688 68.144531 26.335938 C 68.097656 26.398438 68.035156 26.414062 67.957031 26.429688 C 67.894531 26.445312 67.753906 26.429688 67.535156 26.414062 L 67.519531 26.523438 C 67.863281 26.617188 68.082031 26.695312 68.160156 26.789062 C 68.207031 26.867188 68.238281 27.039062 68.222656 27.304688 C 68.222656 27.570312 68.191406 27.804688 68.160156 27.976562 C 68.113281 28.179688 68.097656 28.320312 68.097656 28.398438 C 68.113281 28.460938 68.128906 28.507812 68.160156 28.554688 C 68.191406 28.585938 68.253906 28.632812 68.332031 28.664062 C 68.410156 28.710938 68.472656 28.742188 68.519531 28.726562 C 68.628906 28.710938 68.707031 28.617188 68.722656 28.429688 C 68.722656 28.320312 68.722656 28.195312 68.707031 28.070312 C 68.691406 27.945312 68.660156 27.789062 68.644531 27.601562 C 68.582031 27.257812 68.566406 27.007812 68.566406 26.882812 C 68.566406 26.742188 68.582031 26.585938 68.597656 26.429688 C 68.613281 26.242188 68.644531 26.101562 68.675781 25.960938 C 68.707031 25.835938 68.785156 25.554688 68.910156 25.148438 C 69.019531 24.726562 69.207031 24.085938 69.441406 23.210938 Z M 67.519531 23.460938 L 67.800781 23.789062 C 67.894531 23.898438 67.972656 24.070312 68.035156 24.273438 C 68.097656 24.492188 68.144531 24.617188 68.160156 24.648438 C 68.175781 24.664062 68.191406 24.695312 68.191406 24.710938 C 68.207031 24.726562 68.238281 24.726562 68.269531 24.726562 C 68.316406 24.726562 68.363281 24.695312 68.441406 24.617188 C 68.519531 24.554688 68.566406 24.460938 68.550781 24.335938 C 68.550781 24.226562 68.519531 24.117188 68.457031 24.023438 C 68.394531 23.929688 68.300781 23.835938 68.128906 23.742188 C 67.988281 23.648438 67.800781 23.539062 67.566406 23.398438 Z M 68.050781 21.757812 C 68.253906 21.960938 68.378906 22.132812 68.441406 22.210938 C 68.488281 22.304688 68.535156 22.382812 68.566406 22.445312 C 68.582031 22.507812 68.628906 22.601562 68.707031 22.757812 C 68.769531 22.914062 68.816406 22.992188 68.832031 23.007812 C 68.863281 23.039062 68.878906 23.039062 68.894531 23.039062 C 68.925781 23.054688 68.988281 23.007812 69.097656 22.898438 C 69.207031 22.789062 69.222656 22.648438 69.160156 22.445312 C 69.082031 22.242188 68.738281 21.976562 68.097656 21.679688 Z M 68.832031 28.710938 L 68.894531 28.820312 C 69.707031 28.429688 70.238281 28.007812 70.472656 27.539062 C 70.722656 27.070312 70.863281 26.632812 70.925781 26.242188 C 70.972656 25.851562 71.003906 25.492188 71.003906 25.179688 C 71.019531 24.882812 71.019531 24.585938 71.019531 24.320312 L 71.019531 23.554688 L 71.222656 23.382812 C 71.222656 23.367188 71.238281 23.351562 71.238281 23.351562 C 71.253906 23.335938 71.222656 23.320312 71.175781 23.289062 L 70.582031 23.070312 L 70.628906 23.882812 L 70.628906 24.960938 C 70.628906 25.179688 70.613281 25.460938 70.597656 25.773438 C 70.566406 26.101562 70.535156 26.398438 70.488281 26.648438 C 70.441406 26.914062 70.347656 27.148438 70.222656 27.382812 C 70.082031 27.617188 69.910156 27.835938 69.675781 28.085938 C 69.441406 28.304688 69.175781 28.523438 68.832031 28.710938 Z M 69.644531 21.820312 L 69.691406 23.039062 L 69.691406 25.773438 L 69.628906 26.804688 C 69.910156 26.726562 70.066406 26.679688 70.082031 26.679688 C 70.082031 26.664062 70.113281 26.648438 70.144531 26.632812 L 70.097656 25.523438 L 70.097656 22.273438 L 71.582031 22.273438 L 71.582031 25.523438 L 71.550781 26.523438 C 71.738281 26.476562 71.910156 26.414062 72.035156 26.351562 L 71.988281 25.539062 L 71.988281 22.382812 L 72.160156 22.226562 C 72.207031 22.195312 72.222656 22.179688 72.222656 22.164062 C 72.222656 22.164062 72.175781 22.132812 72.082031 22.054688 L 71.707031 21.773438 L 71.488281 22.085938 L 70.175781 22.085938 Z M 70.863281 27.117188 C 71.066406 27.273438 71.253906 27.429688 71.425781 27.617188 C 71.597656 27.804688 71.707031 27.976562 71.785156 28.132812 C 71.847656 28.289062 71.894531 28.382812 71.910156 28.429688 C 71.941406 28.460938 71.972656 28.492188 72.003906 28.492188 C 72.050781 28.492188 72.082031 28.445312 72.128906 28.367188 C 72.191406 28.289062 72.222656 28.195312 72.222656 28.085938 C 72.222656 27.976562 72.207031 27.882812 72.175781 27.773438 C 72.144531 27.679688 72.003906 27.554688 71.769531 27.445312 C 71.519531 27.320312 71.238281 27.179688 70.894531 27.039062 Z M 72.566406 28.070312 L 72.910156 28.210938 C 73.003906 28.257812 73.097656 28.304688 73.175781 28.398438 C 73.253906 28.476562 73.300781 28.554688 73.316406 28.601562 C 73.347656 28.664062 73.363281 28.742188 73.378906 28.851562 C 73.644531 28.757812 73.816406 28.664062 73.925781 28.554688 C 74.019531 28.445312 74.082031 28.335938 74.097656 28.226562 C 74.128906 28.132812 74.128906 27.945312 74.128906 27.726562 L 74.128906 22.085938 L 74.300781 21.960938 C 74.347656 21.945312 74.378906 21.914062 74.363281 21.898438 C 74.363281 21.882812 74.332031 21.851562 74.269531 21.820312 L 73.675781 21.539062 L 73.722656 22.867188 L 73.722656 27.539062 C 73.722656 27.695312 73.722656 27.820312 73.707031 27.882812 C 73.707031 27.960938 73.675781 28.023438 73.628906 28.070312 C 73.597656 28.101562 73.503906 28.117188 73.347656 28.101562 C 73.207031 28.085938 72.941406 28.039062 72.582031 27.945312 Z M 72.613281 22.632812 L 72.660156 23.726562 L 72.660156 25.804688 L 72.613281 26.914062 C 72.769531 26.882812 72.925781 26.820312 73.113281 26.742188 L 73.050781 25.757812 L 73.050781 23.179688 L 73.269531 23.007812 C 73.269531 22.992188 73.285156 22.992188 73.285156 22.976562 C 73.300781 22.960938 73.269531 22.929688 73.191406 22.898438 Z M 72.613281 22.632812 "/>
</g>
</svg>
