<?xml version="1.0" encoding="UTF-8"?>
<svg xmlns="http://www.w3.org/2000/svg" xmlns:xlink="http://www.w3.org/1999/xlink" width="106.344673pt" height="70.416748pt" viewBox="0 0 106.344673 70.416748" version="1.1">
<defs>
<clipPath id="clip1">
  <path d="M 0 0 L 106.34375 0 L 106.34375 70.417969 L 0 70.417969 Z M 0 0 "/>
</clipPath>
</defs>
<g id="surface1">
<path style=" stroke:none;fill-rule:nonzero;fill:rgb(75.292969%,92.547607%,94.900513%);fill-opacity:1;" d="M 53.011719 55.929688 C 46.890625 51.097656 42.960938 43.613281 42.960938 35.207031 C 42.960938 26.769531 46.925781 19.253906 53.089844 14.421875 L 52.996094 14.359375 C 48.53125 10.886719 42.917969 8.820312 36.820312 8.820312 C 22.246094 8.820312 10.429688 20.632812 10.429688 35.207031 C 10.429688 49.78125 22.246094 61.597656 36.820312 61.597656 C 42.960938 61.597656 48.613281 59.5 53.097656 55.980469 Z M 53.011719 55.929688 "/>
<path style=" stroke:none;fill-rule:nonzero;fill:rgb(0%,0%,0%);fill-opacity:1;" d="M 12.613281 13.503906 L 15.960938 7.601562 L 16.890625 7.601562 L 17.867188 13.503906 L 17.101562 13.503906 L 16.8125 11.804688 L 14.425781 11.804688 L 13.480469 13.503906 Z M 14.765625 11.195312 L 16.71875 11.195312 L 16.488281 9.714844 C 16.398438 9.125 16.34375 8.636719 16.324219 8.246094 C 16.1875 8.582031 15.992188 8.984375 15.734375 9.449219 Z M 14.765625 11.195312 "/>
<g clip-path="url(#clip1)" clip-rule="nonzero">
<path style="fill:none;stroke-width:0.1875;stroke-linecap:butt;stroke-linejoin:miter;stroke:rgb(0%,39.99939%,59.999084%);stroke-opacity:1;stroke-miterlimit:4;" d="M 0.09375 0.09375 L 106.25 0.09375 L 106.25 70.324219 L 0.09375 70.324219 Z M 0.09375 0.09375 "/>
</g>
<path style="fill:none;stroke-width:0.375;stroke-linecap:butt;stroke-linejoin:miter;stroke:rgb(0%,39.99939%,59.999084%);stroke-opacity:1;stroke-miterlimit:4;" d="M 53.183594 55.980469 C 48.699219 59.5 43.050781 61.597656 36.90625 61.597656 C 22.332031 61.597656 10.519531 49.78125 10.519531 35.207031 C 10.519531 20.632812 22.332031 8.820312 36.90625 8.820312 C 43.003906 8.820312 48.617188 10.886719 53.085938 14.359375 "/>
<path style="fill:none;stroke-width:0.375;stroke-linecap:butt;stroke-linejoin:miter;stroke:rgb(0%,39.99939%,59.999084%);stroke-opacity:1;stroke-miterlimit:4;" d="M 53.085938 14.359375 C 59.296875 19.1875 63.296875 26.730469 63.296875 35.207031 C 63.296875 43.640625 59.339844 51.148438 53.183594 55.980469 "/>
<path style="fill:none;stroke-width:0.375;stroke-linecap:butt;stroke-linejoin:miter;stroke:rgb(0%,39.99939%,59.999084%);stroke-opacity:1;stroke-miterlimit:4;" d="M 53.097656 55.929688 C 46.976562 51.097656 43.050781 43.613281 43.050781 35.207031 C 43.050781 26.769531 47.011719 19.253906 53.179688 14.421875 "/>
<path style="fill:none;stroke-width:0.375;stroke-linecap:butt;stroke-linejoin:miter;stroke:rgb(0%,39.99939%,59.999084%);stroke-opacity:1;stroke-miterlimit:4;" d="M 53.179688 14.421875 C 57.660156 10.914062 63.304688 8.820312 69.4375 8.820312 C 84.011719 8.820312 95.824219 20.632812 95.824219 35.207031 C 95.824219 49.78125 84.011719 61.597656 69.4375 61.597656 C 63.269531 61.597656 57.59375 59.480469 53.097656 55.929688 "/>
<path style=" stroke:none;fill-rule:nonzero;fill:rgb(0%,0%,0%);fill-opacity:1;" d="M 89.015625 13.503906 L 90.253906 7.601562 L 92.082031 7.601562 C 92.414062 7.601562 92.664062 7.613281 92.824219 7.640625 C 93.085938 7.6875 93.308594 7.765625 93.492188 7.878906 C 93.671875 7.992188 93.8125 8.148438 93.910156 8.347656 C 94.011719 8.542969 94.0625 8.761719 94.0625 9 C 94.0625 9.328125 93.972656 9.613281 93.792969 9.859375 C 93.613281 10.105469 93.339844 10.292969 92.972656 10.421875 C 93.292969 10.527344 93.53125 10.6875 93.691406 10.898438 C 93.847656 11.109375 93.929688 11.355469 93.929688 11.636719 C 93.929688 11.960938 93.835938 12.273438 93.648438 12.570312 C 93.460938 12.867188 93.214844 13.097656 92.90625 13.261719 C 92.597656 13.425781 92.257812 13.503906 91.878906 13.503906 Z M 89.949219 12.835938 L 91.292969 12.835938 C 91.648438 12.835938 91.890625 12.824219 92.015625 12.800781 C 92.265625 12.757812 92.46875 12.683594 92.621094 12.582031 C 92.777344 12.476562 92.902344 12.339844 92.988281 12.171875 C 93.078125 12.003906 93.121094 11.824219 93.121094 11.640625 C 93.121094 11.363281 93.035156 11.152344 92.863281 11.011719 C 92.6875 10.867188 92.359375 10.792969 91.875 10.792969 L 90.375 10.792969 Z M 90.515625 10.121094 L 91.710938 10.121094 C 92.285156 10.121094 92.695312 10.03125 92.945312 9.847656 C 93.199219 9.664062 93.324219 9.398438 93.324219 9.050781 C 93.324219 8.882812 93.285156 8.738281 93.207031 8.617188 C 93.128906 8.5 93.023438 8.410156 92.894531 8.355469 C 92.765625 8.300781 92.519531 8.273438 92.160156 8.273438 L 90.902344 8.273438 Z M 90.515625 10.121094 "/>
</g>
</svg>
