<?xml version="1.0" encoding="UTF-8"?>
<svg xmlns="http://www.w3.org/2000/svg" xmlns:xlink="http://www.w3.org/1999/xlink" width="95.064644pt" height="86.285248pt" viewBox="0 0 95.064644 86.285248" version="1.1">
<defs>
<clipPath id="clip1">
  <path d="M 91 0 L 95.066406 0 L 95.066406 2 L 91 2 Z M 91 0 "/>
</clipPath>
<clipPath id="clip2">
  <path d="M 44 77 L 49 77 L 49 86.285156 L 44 86.285156 Z M 44 77 "/>
</clipPath>
</defs>
<g id="surface1">
<path style="fill-rule:nonzero;fill:rgb(100%,0%,0%);fill-opacity:0.1;stroke-width:0.3985;stroke-linecap:butt;stroke-linejoin:miter;stroke:currentColor;stroke-opacity:1;stroke-miterlimit:10;" d="M 66.339844 -15.738281 L 61.878906 -10.742188 C 61.515625 -10.332031 60.824219 -9.792969 60.335938 -9.53125 L 56.191406 -7.332031 C 55.707031 -7.070312 54.925781 -7.085938 54.449219 -7.359375 L 2.476562 -37.367188 C 2 -37.644531 1.449219 -38.28125 1.25 -38.792969 L 0.324219 -41.164062 C 0.125 -41.679688 0.183594 -42.480469 0.460938 -42.957031 L 10.800781 -60.871094 C 11.078125 -61.347656 11.742188 -61.800781 12.285156 -61.882812 L 14.800781 -62.265625 C 15.34375 -62.347656 16.171875 -62.191406 16.648438 -61.917969 L 68.625 -31.910156 C 69.101562 -31.632812 69.503906 -30.964844 69.523438 -30.414062 L 69.6875 -25.726562 C 69.707031 -25.175781 69.582031 -24.308594 69.410156 -23.785156 L 67.316406 -17.425781 C 67.144531 -16.902344 66.707031 -16.148438 66.339844 -15.738281 Z M 66.339844 -15.738281 " transform="matrix(1,0,0,-1,0,0)"/>
<path style="fill-rule:nonzero;fill:rgb(100%,69.018555%,69.018555%);fill-opacity:1;stroke-width:0.3985;stroke-linecap:butt;stroke-linejoin:miter;stroke:rgb(100%,0%,0%);stroke-opacity:1;stroke-miterlimit:10;" d="M 37.542969 -33.488281 C 37.152344 -32.808594 36.285156 -32.578125 35.609375 -32.96875 C 34.929688 -33.359375 34.699219 -34.226562 35.089844 -34.90625 C 35.480469 -35.582031 36.347656 -35.816406 37.027344 -35.425781 C 37.703125 -35.03125 37.9375 -34.164062 37.542969 -33.488281 Z M 37.542969 -33.488281 " transform="matrix(1,0,0,-1,0,0)"/>
<path style=" stroke:none;fill-rule:nonzero;fill:rgb(100%,0%,0%);fill-opacity:1;" d="M 37.589844 29.503906 C 37.042969 30.097656 36.652344 30.316406 36.167969 30.316406 C 35.605469 30.316406 35.261719 29.894531 35.261719 29.175781 C 35.261719 28.332031 35.605469 27.441406 36.167969 26.863281 C 36.464844 26.566406 36.855469 26.378906 37.246094 26.378906 C 37.480469 26.378906 37.621094 26.457031 37.621094 26.582031 C 37.621094 26.628906 37.605469 26.675781 37.558594 26.769531 C 37.496094 26.894531 37.480469 26.972656 37.480469 27.050781 C 37.480469 27.300781 37.621094 27.441406 37.871094 27.441406 C 38.136719 27.441406 38.339844 27.238281 38.339844 26.972656 C 38.339844 26.519531 37.886719 26.175781 37.292969 26.175781 C 35.792969 26.175781 34.402344 27.628906 34.402344 29.175781 C 34.402344 30.128906 34.949219 30.675781 35.871094 30.675781 C 36.605469 30.675781 37.152344 30.363281 37.761719 29.613281 Z M 37.589844 29.503906 "/>
<path style="fill-rule:nonzero;fill:rgb(69.018555%,69.018555%,69.018555%);fill-opacity:1;stroke-width:0.3985;stroke-linecap:butt;stroke-linejoin:miter;stroke:currentColor;stroke-opacity:1;stroke-miterlimit:10;" d="M 20.359375 -43.410156 C 19.96875 -42.730469 19.101562 -42.5 18.421875 -42.890625 C 17.746094 -43.28125 17.511719 -44.148438 17.90625 -44.828125 C 18.296875 -45.503906 19.164062 -45.738281 19.839844 -45.34375 C 20.519531 -44.953125 20.75 -44.085938 20.359375 -43.410156 Z M 20.359375 -43.410156 " transform="matrix(1,0,0,-1,0,0)"/>
<path style=" stroke:none;fill-rule:nonzero;fill:currentColor;fill-opacity:1;" d="M 13.863281 41.835938 C 12.378906 41.835938 10.894531 43.382812 10.894531 44.945312 C 10.894531 45.804688 11.457031 46.335938 12.363281 46.335938 C 13.019531 46.335938 13.660156 46.039062 14.238281 45.476562 C 14.894531 44.820312 15.300781 43.976562 15.300781 43.226562 C 15.300781 42.398438 14.722656 41.835938 13.863281 41.835938 Z M 13.753906 42.039062 C 14.175781 42.039062 14.457031 42.414062 14.457031 42.976562 C 14.457031 43.710938 14.128906 44.695312 13.691406 45.351562 C 13.316406 45.882812 12.941406 46.132812 12.519531 46.132812 C 12.050781 46.132812 11.738281 45.773438 11.738281 45.226562 C 11.738281 44.476562 12.019531 43.601562 12.519531 42.898438 C 12.894531 42.335938 13.316406 42.039062 13.753906 42.039062 Z M 13.753906 42.039062 "/>
<path style="fill-rule:nonzero;fill:rgb(69.018555%,69.018555%,100%);fill-opacity:1;stroke-width:0.3985;stroke-linecap:butt;stroke-linejoin:miter;stroke:currentColor;stroke-opacity:1;stroke-miterlimit:10;" d="M 19.695312 -30.917969 L 19.148438 -30.253906 L 18.820312 -30.113281 L 7.160156 -36.847656 L 7.117188 -37.199219 L 7.421875 -38.003906 L 9.121094 -40.949219 L 9.667969 -41.617188 L 9.996094 -41.753906 L 21.65625 -35.023438 L 21.699219 -34.671875 L 21.394531 -33.863281 Z M 19.695312 -30.917969 " transform="matrix(1,0,0,-1,0,0)"/>
<path style="fill-rule:nonzero;fill:rgb(69.018555%,69.018555%,100%);fill-opacity:1;stroke-width:0.3985;stroke-linecap:butt;stroke-linejoin:miter;stroke:currentColor;stroke-opacity:1;stroke-miterlimit:10;" d="M 29.144531 -47.285156 L 28.597656 -46.617188 L 28.269531 -46.480469 L 16.609375 -53.210938 L 16.566406 -53.5625 L 16.871094 -54.371094 L 18.570312 -57.316406 L 19.117188 -57.980469 L 19.445312 -58.121094 L 31.105469 -51.390625 L 31.148438 -51.039062 L 30.84375 -50.230469 Z M 29.144531 -47.285156 " transform="matrix(1,0,0,-1,0,0)"/>
<path style="fill-rule:nonzero;fill:rgb(69.018555%,69.018555%,100%);fill-opacity:1;stroke-width:0.3985;stroke-linecap:butt;stroke-linejoin:miter;stroke:currentColor;stroke-opacity:1;stroke-miterlimit:10;" d="M 53.113281 -10.234375 L 52.457031 -9.675781 L 52.113281 -9.59375 L 41.796875 -18.25 L 41.816406 -18.601562 L 42.253906 -19.34375 L 44.441406 -21.949219 L 45.097656 -22.511719 L 45.441406 -22.589844 L 55.753906 -13.9375 L 55.738281 -13.582031 L 55.296875 -12.839844 Z M 53.113281 -10.234375 " transform="matrix(1,0,0,-1,0,0)"/>
<path style="fill-rule:nonzero;fill:rgb(69.018555%,69.018555%,100%);fill-opacity:1;stroke-width:0.3985;stroke-linecap:butt;stroke-linejoin:miter;stroke:currentColor;stroke-opacity:1;stroke-miterlimit:10;" d="M 62.5625 -26.601562 L 61.90625 -26.039062 L 61.5625 -25.960938 L 51.246094 -34.613281 L 51.265625 -34.96875 L 51.703125 -35.710938 L 53.890625 -38.316406 L 54.542969 -38.875 L 54.890625 -38.957031 L 65.203125 -30.300781 L 65.183594 -29.949219 L 64.746094 -29.207031 Z M 62.5625 -26.601562 " transform="matrix(1,0,0,-1,0,0)"/>
<path style="fill:none;stroke-width:0.3985;stroke-linecap:butt;stroke-linejoin:miter;stroke:currentColor;stroke-opacity:1;stroke-miterlimit:10;" d="M 19.132812 -44.117188 L 84.765625 -6.226562 " transform="matrix(1,0,0,-1,0,0)"/>
<path style=" stroke:none;fill-rule:nonzero;fill:currentColor;fill-opacity:1;" d="M 87.871094 4.433594 C 86.851562 4.792969 85.054688 5.136719 83.671875 5.128906 L 85.164062 7.71875 C 85.851562 6.515625 87.050781 5.136719 87.871094 4.433594 "/>
<g clip-path="url(#clip1)" clip-rule="nonzero">
<path style=" stroke:none;fill-rule:nonzero;fill:currentColor;fill-opacity:1;" d="M 95.066406 1.671875 L 93.832031 0 L 93.207031 0 L 91.972656 1.671875 L 92.316406 1.671875 L 93.519531 0.640625 L 94.738281 1.671875 Z M 95.066406 1.671875 "/>
</g>
<path style=" stroke:none;fill-rule:nonzero;fill:currentColor;fill-opacity:1;" d="M 93.605469 7.558594 C 93.355469 7.886719 93.292969 7.964844 93.183594 8.074219 C 93.027344 8.246094 92.871094 8.339844 92.777344 8.339844 C 92.699219 8.339844 92.621094 8.261719 92.621094 8.183594 C 92.621094 8.089844 92.652344 7.949219 92.714844 7.746094 C 92.714844 7.714844 92.746094 7.652344 92.777344 7.574219 L 92.777344 7.527344 L 93.652344 4.324219 L 93.636719 4.308594 C 92.621094 4.496094 92.417969 4.527344 92.027344 4.558594 L 92.027344 4.714844 C 92.558594 4.714844 92.667969 4.746094 92.667969 4.949219 C 92.667969 5.027344 92.636719 5.183594 92.574219 5.386719 L 92.089844 7.152344 C 91.933594 7.730469 91.871094 8.042969 91.871094 8.246094 C 91.871094 8.605469 92.027344 8.808594 92.339844 8.808594 C 92.792969 8.808594 93.167969 8.511719 93.730469 7.667969 Z M 93.527344 2.183594 C 93.246094 2.183594 93.058594 2.402344 93.058594 2.714844 C 93.058594 3.027344 93.246094 3.230469 93.527344 3.230469 C 93.792969 3.230469 94.011719 3.011719 94.011719 2.730469 C 94.011719 2.433594 93.792969 2.183594 93.527344 2.183594 Z M 93.527344 2.183594 "/>
<path style="fill:none;stroke-width:0.3985;stroke-linecap:butt;stroke-linejoin:miter;stroke:currentColor;stroke-opacity:1;stroke-miterlimit:10;" d="M 19.132812 -44.117188 L 38.597656 -77.835938 " transform="matrix(1,0,0,-1,0,0)"/>
<path style=" stroke:none;fill-rule:nonzero;fill:currentColor;fill-opacity:1;" d="M 40.390625 80.941406 C 40.035156 79.921875 39.6875 78.128906 39.695312 76.742188 L 37.105469 78.238281 C 38.308594 78.925781 39.6875 80.121094 40.390625 80.941406 "/>
<path style=" stroke:none;fill-rule:nonzero;fill:currentColor;fill-opacity:1;" d="M 49.207031 77.195312 L 47.972656 75.523438 L 47.347656 75.523438 L 46.113281 77.195312 L 46.457031 77.195312 L 47.660156 76.164062 L 48.878906 77.195312 Z M 49.207031 77.195312 "/>
<g clip-path="url(#clip2)" clip-rule="nonzero">
<path style=" stroke:none;fill-rule:nonzero;fill:currentColor;fill-opacity:1;" d="M 47.859375 79.847656 L 47.828125 79.832031 C 46.9375 79.988281 46.4375 80.066406 46.140625 80.082031 L 46.140625 80.238281 L 46.40625 80.238281 L 46.46875 80.222656 C 46.546875 80.222656 46.75 80.269531 46.796875 80.316406 C 46.84375 80.347656 46.875 80.441406 46.875 80.550781 C 46.875 80.644531 46.828125 80.910156 46.71875 81.347656 L 46 84.253906 C 45.65625 85.613281 45.421875 86.050781 45.03125 86.050781 C 44.90625 86.050781 44.84375 86.019531 44.84375 85.941406 C 44.84375 85.910156 44.859375 85.894531 44.890625 85.832031 C 44.953125 85.753906 44.984375 85.707031 44.984375 85.628906 C 44.984375 85.425781 44.796875 85.253906 44.5625 85.253906 C 44.34375 85.253906 44.171875 85.441406 44.171875 85.675781 C 44.171875 86.019531 44.5 86.285156 44.953125 86.285156 C 45.828125 86.285156 46.421875 85.535156 46.828125 83.941406 Z M 47.65625 77.707031 C 47.390625 77.707031 47.1875 77.925781 47.1875 78.238281 C 47.1875 78.550781 47.375 78.753906 47.671875 78.753906 C 47.921875 78.753906 48.15625 78.535156 48.15625 78.253906 C 48.15625 77.957031 47.921875 77.707031 47.65625 77.707031 Z M 47.65625 77.707031 "/>
</g>
</g>
</svg>
