<?xml version="1.0" encoding="UTF-8"?>
<svg xmlns="http://www.w3.org/2000/svg" xmlns:xlink="http://www.w3.org/1999/xlink" width="170.567627pt" height="184.946014pt" viewBox="0 0 170.567627 184.946014" version="1.1">
<defs>
<clipPath id="clip1">
  <path d="M 19.816406 1.300781 L 169.261719 1.300781 L 169.261719 165.121094 L 19.816406 165.121094 Z M 19.816406 1.300781 "/>
</clipPath>
<clipPath id="clip2">
  <path d="M 168 168 L 170.566406 168 L 170.566406 174 L 168 174 Z M 168 168 "/>
</clipPath>
<clipPath id="clip3">
  <path d="M 11.152344 0 L 17 0 L 17 3 L 11.152344 3 Z M 11.152344 0 "/>
</clipPath>
<clipPath id="clip4">
  <path d="M 90 177 L 93 177 L 93 184.945312 L 90 184.945312 Z M 90 177 "/>
</clipPath>
<clipPath id="clip5">
  <path d="M 104 177 L 106 177 L 106 184.945312 L 104 184.945312 Z M 104 177 "/>
</clipPath>
</defs>
<g id="surface1">
<g clip-path="url(#clip1)" clip-rule="nonzero">
<path style="fill:none;stroke-width:0.3985;stroke-linecap:butt;stroke-linejoin:miter;stroke:currentColor;stroke-opacity:1;stroke-miterlimit:10;" d="M 19.816406 -165.121094 L 26.046875 -158.292969 L 32.269531 -151.46875 L 38.5 -144.640625 L 44.722656 -137.816406 L 50.953125 -130.992188 L 57.179688 -124.164062 L 63.402344 -117.339844 L 69.632812 -110.515625 L 75.859375 -103.6875 L 82.085938 -96.863281 L 88.3125 -90.035156 L 94.535156 -83.210938 L 100.765625 -76.386719 L 106.992188 -69.558594 L 119.445312 -55.910156 L 125.671875 -49.082031 L 131.898438 -42.257812 L 138.125 -35.429688 L 150.578125 -21.78125 L 156.804688 -14.953125 L 169.257812 -1.304688 " transform="matrix(1,0,0,-1,0,0)"/>
</g>
<path style="fill:none;stroke-width:0.19925;stroke-linecap:butt;stroke-linejoin:miter;stroke:rgb(49.803162%,49.803162%,49.803162%);stroke-opacity:1;stroke-miterlimit:10;" d="M 19.816406 -165.121094 L 19.816406 -160.875 M 49.707031 -165.121094 L 49.707031 -160.875 M 79.59375 -165.121094 L 79.59375 -160.875 M 109.480469 -165.121094 L 109.480469 -160.875 M 139.371094 -165.121094 L 139.371094 -160.875 M 169.257812 -165.121094 L 169.257812 -160.875 M 19.816406 -1.300781 L 19.816406 -5.546875 M 49.707031 -1.300781 L 49.707031 -5.546875 M 79.59375 -1.300781 L 79.59375 -5.546875 M 109.480469 -1.300781 L 109.480469 -5.546875 M 139.371094 -1.300781 L 139.371094 -5.546875 M 169.257812 -1.300781 L 169.257812 -5.546875 " transform="matrix(1,0,0,-1,0,0)"/>
<path style="fill:none;stroke-width:0.19925;stroke-linecap:butt;stroke-linejoin:miter;stroke:rgb(49.803162%,49.803162%,49.803162%);stroke-opacity:1;stroke-miterlimit:10;" d="M 19.816406 -165.121094 L 24.058594 -165.121094 M 19.816406 -132.355469 L 24.058594 -132.355469 M 19.816406 -99.59375 L 24.058594 -99.59375 M 19.816406 -66.828125 L 24.058594 -66.828125 M 19.816406 -34.066406 L 24.058594 -34.066406 M 19.816406 -1.304688 L 24.058594 -1.304688 M 169.261719 -165.121094 L 165.019531 -165.121094 M 169.261719 -132.355469 L 165.019531 -132.355469 M 169.261719 -99.59375 L 165.019531 -99.59375 M 169.261719 -66.828125 L 165.019531 -66.828125 M 169.261719 -34.066406 L 165.019531 -34.066406 M 169.261719 -1.304688 L 165.019531 -1.304688 " transform="matrix(1,0,0,-1,0,0)"/>
<path style="fill:none;stroke-width:0.3985;stroke-linecap:butt;stroke-linejoin:miter;stroke:currentColor;stroke-opacity:1;stroke-miterlimit:10;" d="M 19.816406 -1.300781 L 169.261719 -1.300781 L 169.261719 -165.121094 L 19.816406 -165.121094 Z M 19.816406 -1.300781 " transform="matrix(1,0,0,-1,0,0)"/>
<path style=" stroke:none;fill-rule:nonzero;fill:currentColor;fill-opacity:1;" d="M 21.425781 170.914062 C 21.425781 170.148438 21.332031 169.585938 21.019531 169.101562 C 20.800781 168.789062 20.363281 168.507812 19.816406 168.507812 C 18.191406 168.507812 18.191406 170.414062 18.191406 170.914062 C 18.191406 171.414062 18.191406 173.273438 19.816406 173.273438 C 21.425781 173.273438 21.425781 171.414062 21.425781 170.914062 Z M 19.816406 173.070312 C 19.488281 173.070312 19.066406 172.882812 18.925781 172.320312 C 18.832031 171.914062 18.832031 171.335938 18.832031 170.820312 C 18.832031 170.304688 18.832031 169.773438 18.925781 169.398438 C 19.082031 168.851562 19.519531 168.695312 19.816406 168.695312 C 20.191406 168.695312 20.550781 168.929688 20.675781 169.335938 C 20.785156 169.710938 20.800781 170.210938 20.800781 170.820312 C 20.800781 171.335938 20.800781 171.851562 20.707031 172.289062 C 20.566406 172.929688 20.097656 173.070312 19.816406 173.070312 Z M 19.816406 173.070312 "/>
<path style=" stroke:none;fill-rule:nonzero;fill:currentColor;fill-opacity:1;" d="M 48.144531 170.914062 C 48.144531 170.148438 48.050781 169.585938 47.738281 169.101562 C 47.519531 168.789062 47.082031 168.507812 46.535156 168.507812 C 44.910156 168.507812 44.910156 170.414062 44.910156 170.914062 C 44.910156 171.414062 44.910156 173.273438 46.535156 173.273438 C 48.144531 173.273438 48.144531 171.414062 48.144531 170.914062 Z M 46.535156 173.070312 C 46.207031 173.070312 45.785156 172.882812 45.644531 172.320312 C 45.550781 171.914062 45.550781 171.335938 45.550781 170.820312 C 45.550781 170.304688 45.550781 169.773438 45.644531 169.398438 C 45.800781 168.851562 46.238281 168.695312 46.535156 168.695312 C 46.910156 168.695312 47.269531 168.929688 47.394531 169.335938 C 47.503906 169.710938 47.519531 170.210938 47.519531 170.820312 C 47.519531 171.335938 47.519531 171.851562 47.425781 172.289062 C 47.285156 172.929688 46.816406 173.070312 46.535156 173.070312 Z M 46.535156 173.070312 "/>
<path style=" stroke:none;fill-rule:nonzero;fill:currentColor;fill-opacity:1;" d="M 50.097656 172.742188 C 50.097656 172.492188 49.894531 172.335938 49.707031 172.335938 C 49.472656 172.335938 49.300781 172.523438 49.300781 172.726562 C 49.300781 172.976562 49.503906 173.132812 49.691406 173.132812 C 49.925781 173.132812 50.097656 172.945312 50.097656 172.742188 Z M 50.097656 172.742188 "/>
<path style=" stroke:none;fill-rule:nonzero;fill:currentColor;fill-opacity:1;" d="M 54.402344 171.867188 L 54.167969 171.867188 C 54.152344 172.023438 54.074219 172.429688 53.980469 172.492188 C 53.933594 172.539062 53.402344 172.539062 53.292969 172.539062 L 52.011719 172.539062 C 52.746094 171.898438 52.996094 171.695312 53.402344 171.367188 C 53.917969 170.960938 54.402344 170.523438 54.402344 169.867188 C 54.402344 169.023438 53.667969 168.507812 52.777344 168.507812 C 51.917969 168.507812 51.324219 169.117188 51.324219 169.757812 C 51.324219 170.101562 51.621094 170.148438 51.699219 170.148438 C 51.855469 170.148438 52.058594 170.023438 52.058594 169.773438 C 52.058594 169.648438 52.011719 169.398438 51.652344 169.398438 C 51.871094 168.914062 52.339844 168.757812 52.667969 168.757812 C 53.371094 168.757812 53.730469 169.304688 53.730469 169.867188 C 53.730469 170.476562 53.292969 170.945312 53.074219 171.195312 L 51.402344 172.867188 C 51.324219 172.929688 51.324219 172.945312 51.324219 173.132812 L 54.199219 173.132812 Z M 54.402344 171.867188 "/>
<path style=" stroke:none;fill-rule:nonzero;fill:currentColor;fill-opacity:1;" d="M 78.03125 170.914062 C 78.03125 170.148438 77.9375 169.585938 77.625 169.101562 C 77.40625 168.789062 76.96875 168.507812 76.421875 168.507812 C 74.796875 168.507812 74.796875 170.414062 74.796875 170.914062 C 74.796875 171.414062 74.796875 173.273438 76.421875 173.273438 C 78.03125 173.273438 78.03125 171.414062 78.03125 170.914062 Z M 76.421875 173.070312 C 76.09375 173.070312 75.671875 172.882812 75.53125 172.320312 C 75.4375 171.914062 75.4375 171.335938 75.4375 170.820312 C 75.4375 170.304688 75.4375 169.773438 75.53125 169.398438 C 75.6875 168.851562 76.125 168.695312 76.421875 168.695312 C 76.796875 168.695312 77.15625 168.929688 77.28125 169.335938 C 77.390625 169.710938 77.40625 170.210938 77.40625 170.820312 C 77.40625 171.335938 77.40625 171.851562 77.3125 172.289062 C 77.171875 172.929688 76.703125 173.070312 76.421875 173.070312 Z M 76.421875 173.070312 "/>
<path style=" stroke:none;fill-rule:nonzero;fill:currentColor;fill-opacity:1;" d="M 79.988281 172.742188 C 79.988281 172.492188 79.785156 172.335938 79.597656 172.335938 C 79.363281 172.335938 79.191406 172.523438 79.191406 172.726562 C 79.191406 172.976562 79.394531 173.132812 79.582031 173.132812 C 79.816406 173.132812 79.988281 172.945312 79.988281 172.742188 Z M 79.988281 172.742188 "/>
<path style=" stroke:none;fill-rule:nonzero;fill:currentColor;fill-opacity:1;" d="M 84.464844 171.992188 L 84.464844 171.742188 L 83.683594 171.742188 L 83.683594 168.632812 C 83.683594 168.492188 83.683594 168.429688 83.542969 168.429688 C 83.449219 168.429688 83.417969 168.429688 83.355469 168.539062 L 81.042969 171.742188 L 81.042969 171.992188 L 83.105469 171.992188 L 83.105469 172.554688 C 83.105469 172.804688 83.105469 172.882812 82.527344 172.882812 L 82.339844 172.882812 L 82.339844 173.132812 C 82.699219 173.117188 83.136719 173.101562 83.386719 173.101562 C 83.652344 173.101562 84.089844 173.117188 84.449219 173.132812 L 84.449219 172.882812 L 84.261719 172.882812 C 83.683594 172.882812 83.683594 172.804688 83.683594 172.554688 L 83.683594 171.992188 Z M 83.152344 169.195312 L 83.152344 171.742188 L 81.308594 171.742188 Z M 83.152344 169.195312 "/>
<path style=" stroke:none;fill-rule:nonzero;fill:currentColor;fill-opacity:1;" d="M 107.917969 170.914062 C 107.917969 170.148438 107.824219 169.585938 107.511719 169.101562 C 107.292969 168.789062 106.855469 168.507812 106.308594 168.507812 C 104.683594 168.507812 104.683594 170.414062 104.683594 170.914062 C 104.683594 171.414062 104.683594 173.273438 106.308594 173.273438 C 107.917969 173.273438 107.917969 171.414062 107.917969 170.914062 Z M 106.308594 173.070312 C 105.980469 173.070312 105.558594 172.882812 105.417969 172.320312 C 105.324219 171.914062 105.324219 171.335938 105.324219 170.820312 C 105.324219 170.304688 105.324219 169.773438 105.417969 169.398438 C 105.574219 168.851562 106.011719 168.695312 106.308594 168.695312 C 106.683594 168.695312 107.042969 168.929688 107.167969 169.335938 C 107.277344 169.710938 107.292969 170.210938 107.292969 170.820312 C 107.292969 171.335938 107.292969 171.851562 107.199219 172.289062 C 107.058594 172.929688 106.589844 173.070312 106.308594 173.070312 Z M 106.308594 173.070312 "/>
<path style=" stroke:none;fill-rule:nonzero;fill:currentColor;fill-opacity:1;" d="M 109.875 172.742188 C 109.875 172.492188 109.671875 172.335938 109.484375 172.335938 C 109.25 172.335938 109.078125 172.523438 109.078125 172.726562 C 109.078125 172.976562 109.28125 173.132812 109.46875 173.132812 C 109.703125 173.132812 109.875 172.945312 109.875 172.742188 Z M 109.875 172.742188 "/>
<path style=" stroke:none;fill-rule:nonzero;fill:currentColor;fill-opacity:1;" d="M 111.710938 170.851562 C 111.710938 170.289062 111.757812 169.773438 112.023438 169.335938 C 112.257812 168.960938 112.632812 168.710938 113.085938 168.710938 C 113.289062 168.710938 113.570312 168.757812 113.710938 168.945312 C 113.539062 168.960938 113.382812 169.085938 113.382812 169.289062 C 113.382812 169.460938 113.507812 169.617188 113.710938 169.617188 C 113.929688 169.617188 114.054688 169.476562 114.054688 169.273438 C 114.054688 168.867188 113.757812 168.507812 113.070312 168.507812 C 112.070312 168.507812 111.039062 169.429688 111.039062 170.929688 C 111.039062 172.726562 111.882812 173.273438 112.664062 173.273438 C 113.507812 173.273438 114.242188 172.617188 114.242188 171.710938 C 114.242188 170.820312 113.539062 170.164062 112.726562 170.164062 C 112.164062 170.164062 111.867188 170.539062 111.710938 170.851562 Z M 112.664062 173.054688 C 112.304688 173.054688 112.039062 172.851562 111.882812 172.539062 C 111.789062 172.335938 111.726562 171.976562 111.726562 171.570312 C 111.726562 170.882812 112.132812 170.367188 112.695312 170.367188 C 113.007812 170.367188 113.226562 170.492188 113.398438 170.742188 C 113.570312 171.007812 113.570312 171.304688 113.570312 171.710938 C 113.570312 172.101562 113.570312 172.398438 113.382812 172.679688 C 113.226562 172.914062 112.992188 173.054688 112.664062 173.054688 Z M 112.664062 173.054688 "/>
<path style=" stroke:none;fill-rule:nonzero;fill:currentColor;fill-opacity:1;" d="M 137.808594 170.914062 C 137.808594 170.148438 137.714844 169.585938 137.402344 169.101562 C 137.183594 168.789062 136.746094 168.507812 136.199219 168.507812 C 134.574219 168.507812 134.574219 170.414062 134.574219 170.914062 C 134.574219 171.414062 134.574219 173.273438 136.199219 173.273438 C 137.808594 173.273438 137.808594 171.414062 137.808594 170.914062 Z M 136.199219 173.070312 C 135.871094 173.070312 135.449219 172.882812 135.308594 172.320312 C 135.214844 171.914062 135.214844 171.335938 135.214844 170.820312 C 135.214844 170.304688 135.214844 169.773438 135.308594 169.398438 C 135.464844 168.851562 135.902344 168.695312 136.199219 168.695312 C 136.574219 168.695312 136.933594 168.929688 137.058594 169.335938 C 137.167969 169.710938 137.183594 170.210938 137.183594 170.820312 C 137.183594 171.335938 137.183594 171.851562 137.089844 172.289062 C 136.949219 172.929688 136.480469 173.070312 136.199219 173.070312 Z M 136.199219 173.070312 "/>
<path style=" stroke:none;fill-rule:nonzero;fill:currentColor;fill-opacity:1;" d="M 139.761719 172.742188 C 139.761719 172.492188 139.558594 172.335938 139.371094 172.335938 C 139.136719 172.335938 138.964844 172.523438 138.964844 172.726562 C 138.964844 172.976562 139.167969 173.132812 139.355469 173.132812 C 139.589844 173.132812 139.761719 172.945312 139.761719 172.742188 Z M 139.761719 172.742188 "/>
<path style=" stroke:none;fill-rule:nonzero;fill:currentColor;fill-opacity:1;" d="M 143.019531 170.617188 C 143.566406 170.351562 143.910156 170.023438 143.910156 169.539062 C 143.910156 168.867188 143.207031 168.507812 142.535156 168.507812 C 141.769531 168.507812 141.144531 169.007812 141.144531 169.664062 C 141.144531 169.992188 141.300781 170.226562 141.425781 170.367188 C 141.550781 170.523438 141.597656 170.554688 142.003906 170.789062 C 141.613281 170.960938 140.925781 171.335938 140.925781 172.070312 C 140.925781 172.835938 141.722656 173.273438 142.519531 173.273438 C 143.410156 173.273438 144.128906 172.710938 144.128906 171.960938 C 144.128906 171.492188 143.863281 171.101562 143.457031 170.867188 C 143.363281 170.804688 143.128906 170.679688 143.019531 170.617188 Z M 141.894531 169.960938 C 141.707031 169.851562 141.519531 169.664062 141.519531 169.398438 C 141.519531 168.960938 142.019531 168.710938 142.519531 168.710938 C 143.066406 168.710938 143.550781 169.054688 143.550781 169.539062 C 143.550781 170.164062 142.816406 170.476562 142.816406 170.476562 C 142.800781 170.476562 142.785156 170.476562 142.738281 170.445312 Z M 142.222656 170.929688 L 143.191406 171.476562 C 143.363281 171.585938 143.707031 171.789062 143.707031 172.195312 C 143.707031 172.726562 143.128906 173.054688 142.535156 173.054688 C 141.894531 173.054688 141.347656 172.632812 141.347656 172.070312 C 141.347656 171.554688 141.722656 171.148438 142.222656 170.929688 Z M 142.222656 170.929688 "/>
<g clip-path="url(#clip2)" clip-rule="nonzero">
<path style=" stroke:none;fill-rule:nonzero;fill:currentColor;fill-opacity:1;" d="M 169.597656 168.695312 C 169.597656 168.507812 169.597656 168.507812 169.394531 168.507812 C 168.941406 168.945312 168.316406 168.945312 168.035156 168.945312 L 168.035156 169.195312 C 168.191406 169.195312 168.660156 169.195312 169.035156 169.007812 L 169.035156 172.554688 C 169.035156 172.789062 169.035156 172.882812 168.347656 172.882812 L 168.082031 172.882812 L 168.082031 173.132812 C 168.207031 173.132812 169.066406 173.101562 169.316406 173.101562 C 169.535156 173.101562 170.410156 173.132812 170.566406 173.132812 L 170.566406 172.882812 L 170.300781 172.882812 C 169.597656 172.882812 169.597656 172.789062 169.597656 172.554688 Z M 169.597656 168.695312 "/>
</g>
<path style=" stroke:none;fill-rule:nonzero;fill:currentColor;fill-opacity:1;" d="M 14.078125 163.511719 C 13.3125 163.511719 12.75 163.605469 12.265625 163.917969 C 11.953125 164.136719 11.671875 164.574219 11.671875 165.121094 C 11.671875 166.746094 13.578125 166.746094 14.078125 166.746094 C 14.578125 166.746094 16.4375 166.746094 16.4375 165.121094 C 16.4375 163.511719 14.578125 163.511719 14.078125 163.511719 Z M 16.234375 165.121094 C 16.234375 165.449219 16.046875 165.871094 15.484375 166.011719 C 15.078125 166.105469 14.5 166.105469 13.984375 166.105469 C 13.46875 166.105469 12.9375 166.105469 12.5625 166.011719 C 12.015625 165.855469 11.859375 165.417969 11.859375 165.121094 C 11.859375 164.746094 12.09375 164.386719 12.5 164.261719 C 12.875 164.152344 13.375 164.136719 13.984375 164.136719 C 14.5 164.136719 15.015625 164.136719 15.453125 164.230469 C 16.09375 164.371094 16.234375 164.839844 16.234375 165.121094 Z M 16.234375 165.121094 "/>
<path style=" stroke:none;fill-rule:nonzero;fill:currentColor;fill-opacity:1;" d="M 14.078125 133.917969 C 13.3125 133.917969 12.75 134.011719 12.265625 134.324219 C 11.953125 134.542969 11.671875 134.980469 11.671875 135.527344 C 11.671875 137.152344 13.578125 137.152344 14.078125 137.152344 C 14.578125 137.152344 16.4375 137.152344 16.4375 135.527344 C 16.4375 133.917969 14.578125 133.917969 14.078125 133.917969 Z M 16.234375 135.527344 C 16.234375 135.855469 16.046875 136.277344 15.484375 136.417969 C 15.078125 136.511719 14.5 136.511719 13.984375 136.511719 C 13.46875 136.511719 12.9375 136.511719 12.5625 136.417969 C 12.015625 136.261719 11.859375 135.824219 11.859375 135.527344 C 11.859375 135.152344 12.09375 134.792969 12.5 134.667969 C 12.875 134.558594 13.375 134.542969 13.984375 134.542969 C 14.5 134.542969 15.015625 134.542969 15.453125 134.636719 C 16.09375 134.777344 16.234375 135.246094 16.234375 135.527344 Z M 16.234375 135.527344 "/>
<path style=" stroke:none;fill-rule:nonzero;fill:currentColor;fill-opacity:1;" d="M 15.90625 131.960938 C 15.65625 131.960938 15.5 132.164062 15.5 132.351562 C 15.5 132.585938 15.6875 132.757812 15.890625 132.757812 C 16.140625 132.757812 16.296875 132.554688 16.296875 132.367188 C 16.296875 132.132812 16.109375 131.960938 15.90625 131.960938 Z M 15.90625 131.960938 "/>
<path style=" stroke:none;fill-rule:nonzero;fill:currentColor;fill-opacity:1;" d="M 15.03125 127.65625 L 15.03125 127.890625 C 15.1875 127.90625 15.59375 127.984375 15.65625 128.078125 C 15.703125 128.125 15.703125 128.65625 15.703125 128.765625 L 15.703125 130.046875 C 15.0625 129.3125 14.859375 129.0625 14.53125 128.65625 C 14.125 128.140625 13.6875 127.65625 13.03125 127.65625 C 12.1875 127.65625 11.671875 128.390625 11.671875 129.28125 C 11.671875 130.140625 12.28125 130.734375 12.921875 130.734375 C 13.265625 130.734375 13.3125 130.4375 13.3125 130.359375 C 13.3125 130.203125 13.1875 130 12.9375 130 C 12.8125 130 12.5625 130.046875 12.5625 130.40625 C 12.078125 130.1875 11.921875 129.71875 11.921875 129.390625 C 11.921875 128.6875 12.46875 128.328125 13.03125 128.328125 C 13.640625 128.328125 14.109375 128.765625 14.359375 128.984375 L 16.03125 130.65625 C 16.09375 130.734375 16.109375 130.734375 16.296875 130.734375 L 16.296875 127.859375 Z M 15.03125 127.65625 "/>
<path style=" stroke:none;fill-rule:nonzero;fill:currentColor;fill-opacity:1;" d="M 14.078125 101.152344 C 13.3125 101.152344 12.75 101.246094 12.265625 101.558594 C 11.953125 101.777344 11.671875 102.214844 11.671875 102.761719 C 11.671875 104.386719 13.578125 104.386719 14.078125 104.386719 C 14.578125 104.386719 16.4375 104.386719 16.4375 102.761719 C 16.4375 101.152344 14.578125 101.152344 14.078125 101.152344 Z M 16.234375 102.761719 C 16.234375 103.089844 16.046875 103.511719 15.484375 103.652344 C 15.078125 103.746094 14.5 103.746094 13.984375 103.746094 C 13.46875 103.746094 12.9375 103.746094 12.5625 103.652344 C 12.015625 103.496094 11.859375 103.058594 11.859375 102.761719 C 11.859375 102.386719 12.09375 102.027344 12.5 101.902344 C 12.875 101.792969 13.375 101.777344 13.984375 101.777344 C 14.5 101.777344 15.015625 101.777344 15.453125 101.871094 C 16.09375 102.011719 16.234375 102.480469 16.234375 102.761719 Z M 16.234375 102.761719 "/>
<path style=" stroke:none;fill-rule:nonzero;fill:currentColor;fill-opacity:1;" d="M 15.90625 99.199219 C 15.65625 99.199219 15.5 99.402344 15.5 99.589844 C 15.5 99.824219 15.6875 99.996094 15.890625 99.996094 C 16.140625 99.996094 16.296875 99.792969 16.296875 99.605469 C 16.296875 99.371094 16.109375 99.199219 15.90625 99.199219 Z M 15.90625 99.199219 "/>
<path style=" stroke:none;fill-rule:nonzero;fill:currentColor;fill-opacity:1;" d="M 15.15625 94.722656 L 14.90625 94.722656 L 14.90625 95.503906 L 11.796875 95.503906 C 11.65625 95.503906 11.59375 95.503906 11.59375 95.644531 C 11.59375 95.738281 11.59375 95.769531 11.703125 95.832031 L 14.90625 98.144531 L 15.15625 98.144531 L 15.15625 96.082031 L 15.71875 96.082031 C 15.96875 96.082031 16.046875 96.082031 16.046875 96.660156 L 16.046875 96.847656 L 16.296875 96.847656 C 16.28125 96.488281 16.265625 96.050781 16.265625 95.800781 C 16.265625 95.535156 16.28125 95.097656 16.296875 94.738281 L 16.046875 94.738281 L 16.046875 94.925781 C 16.046875 95.503906 15.96875 95.503906 15.71875 95.503906 L 15.15625 95.503906 Z M 12.359375 96.035156 L 14.90625 96.035156 L 14.90625 97.878906 Z M 12.359375 96.035156 "/>
<path style=" stroke:none;fill-rule:nonzero;fill:currentColor;fill-opacity:1;" d="M 14.078125 68.390625 C 13.3125 68.390625 12.75 68.484375 12.265625 68.796875 C 11.953125 69.015625 11.671875 69.453125 11.671875 70 C 11.671875 71.625 13.578125 71.625 14.078125 71.625 C 14.578125 71.625 16.4375 71.625 16.4375 70 C 16.4375 68.390625 14.578125 68.390625 14.078125 68.390625 Z M 16.234375 70 C 16.234375 70.328125 16.046875 70.75 15.484375 70.890625 C 15.078125 70.984375 14.5 70.984375 13.984375 70.984375 C 13.46875 70.984375 12.9375 70.984375 12.5625 70.890625 C 12.015625 70.734375 11.859375 70.296875 11.859375 70 C 11.859375 69.625 12.09375 69.265625 12.5 69.140625 C 12.875 69.03125 13.375 69.015625 13.984375 69.015625 C 14.5 69.015625 15.015625 69.015625 15.453125 69.109375 C 16.09375 69.25 16.234375 69.71875 16.234375 70 Z M 16.234375 70 "/>
<path style=" stroke:none;fill-rule:nonzero;fill:currentColor;fill-opacity:1;" d="M 15.90625 66.433594 C 15.65625 66.433594 15.5 66.636719 15.5 66.824219 C 15.5 67.058594 15.6875 67.230469 15.890625 67.230469 C 16.140625 67.230469 16.296875 67.027344 16.296875 66.839844 C 16.296875 66.605469 16.109375 66.433594 15.90625 66.433594 Z M 15.90625 66.433594 "/>
<path style=" stroke:none;fill-rule:nonzero;fill:currentColor;fill-opacity:1;" d="M 14.015625 64.597656 C 13.453125 64.597656 12.9375 64.550781 12.5 64.285156 C 12.125 64.050781 11.875 63.675781 11.875 63.222656 C 11.875 63.019531 11.921875 62.738281 12.109375 62.597656 C 12.125 62.769531 12.25 62.925781 12.453125 62.925781 C 12.625 62.925781 12.78125 62.800781 12.78125 62.597656 C 12.78125 62.378906 12.640625 62.253906 12.4375 62.253906 C 12.03125 62.253906 11.671875 62.550781 11.671875 63.238281 C 11.671875 64.238281 12.59375 65.269531 14.09375 65.269531 C 15.890625 65.269531 16.4375 64.425781 16.4375 63.644531 C 16.4375 62.800781 15.78125 62.066406 14.875 62.066406 C 13.984375 62.066406 13.328125 62.769531 13.328125 63.582031 C 13.328125 64.144531 13.703125 64.441406 14.015625 64.597656 Z M 16.21875 63.644531 C 16.21875 64.003906 16.015625 64.269531 15.703125 64.425781 C 15.5 64.519531 15.140625 64.582031 14.734375 64.582031 C 14.046875 64.582031 13.53125 64.175781 13.53125 63.613281 C 13.53125 63.300781 13.65625 63.082031 13.90625 62.910156 C 14.171875 62.738281 14.46875 62.738281 14.875 62.738281 C 15.265625 62.738281 15.5625 62.738281 15.84375 62.925781 C 16.078125 63.082031 16.21875 63.316406 16.21875 63.644531 Z M 16.21875 63.644531 "/>
<path style=" stroke:none;fill-rule:nonzero;fill:currentColor;fill-opacity:1;" d="M 14.078125 35.625 C 13.3125 35.625 12.75 35.71875 12.265625 36.03125 C 11.953125 36.25 11.671875 36.6875 11.671875 37.234375 C 11.671875 38.859375 13.578125 38.859375 14.078125 38.859375 C 14.578125 38.859375 16.4375 38.859375 16.4375 37.234375 C 16.4375 35.625 14.578125 35.625 14.078125 35.625 Z M 16.234375 37.234375 C 16.234375 37.5625 16.046875 37.984375 15.484375 38.125 C 15.078125 38.21875 14.5 38.21875 13.984375 38.21875 C 13.46875 38.21875 12.9375 38.21875 12.5625 38.125 C 12.015625 37.96875 11.859375 37.53125 11.859375 37.234375 C 11.859375 36.859375 12.09375 36.5 12.5 36.375 C 12.875 36.265625 13.375 36.25 13.984375 36.25 C 14.5 36.25 15.015625 36.25 15.453125 36.34375 C 16.09375 36.484375 16.234375 36.953125 16.234375 37.234375 Z M 16.234375 37.234375 "/>
<path style=" stroke:none;fill-rule:nonzero;fill:currentColor;fill-opacity:1;" d="M 15.90625 33.671875 C 15.65625 33.671875 15.5 33.875 15.5 34.0625 C 15.5 34.296875 15.6875 34.46875 15.890625 34.46875 C 16.140625 34.46875 16.296875 34.265625 16.296875 34.078125 C 16.296875 33.84375 16.109375 33.671875 15.90625 33.671875 Z M 15.90625 33.671875 "/>
<path style=" stroke:none;fill-rule:nonzero;fill:currentColor;fill-opacity:1;" d="M 13.78125 30.414062 C 13.515625 29.867188 13.1875 29.523438 12.703125 29.523438 C 12.03125 29.523438 11.671875 30.226562 11.671875 30.898438 C 11.671875 31.664062 12.171875 32.289062 12.828125 32.289062 C 13.15625 32.289062 13.390625 32.132812 13.53125 32.007812 C 13.6875 31.882812 13.71875 31.835938 13.953125 31.429688 C 14.125 31.820312 14.5 32.507812 15.234375 32.507812 C 16 32.507812 16.4375 31.710938 16.4375 30.914062 C 16.4375 30.023438 15.875 29.304688 15.125 29.304688 C 14.65625 29.304688 14.265625 29.570312 14.03125 29.976562 C 13.96875 30.070312 13.84375 30.304688 13.78125 30.414062 Z M 13.125 31.539062 C 13.015625 31.726562 12.828125 31.914062 12.5625 31.914062 C 12.125 31.914062 11.875 31.414062 11.875 30.914062 C 11.875 30.367188 12.21875 29.882812 12.703125 29.882812 C 13.328125 29.882812 13.640625 30.617188 13.640625 30.617188 C 13.640625 30.632812 13.640625 30.648438 13.609375 30.695312 Z M 14.09375 31.210938 L 14.640625 30.242188 C 14.75 30.070312 14.953125 29.726562 15.359375 29.726562 C 15.890625 29.726562 16.21875 30.304688 16.21875 30.898438 C 16.21875 31.539062 15.796875 32.085938 15.234375 32.085938 C 14.71875 32.085938 14.3125 31.710938 14.09375 31.210938 Z M 14.09375 31.210938 "/>
<g clip-path="url(#clip3)" clip-rule="nonzero">
<path style=" stroke:none;fill-rule:nonzero;fill:currentColor;fill-opacity:1;" d="M 11.859375 0.960938 C 11.671875 0.960938 11.671875 0.960938 11.671875 1.164062 C 12.109375 1.617188 12.109375 2.242188 12.109375 2.523438 L 12.359375 2.523438 C 12.359375 2.367188 12.359375 1.898438 12.171875 1.523438 L 15.71875 1.523438 C 15.953125 1.523438 16.046875 1.523438 16.046875 2.210938 L 16.046875 2.476562 L 16.296875 2.476562 C 16.296875 2.351562 16.265625 1.492188 16.265625 1.242188 C 16.265625 1.023438 16.296875 0.148438 16.296875 -0.0078125 L 16.046875 -0.0078125 L 16.046875 0.257812 C 16.046875 0.960938 15.953125 0.960938 15.71875 0.960938 Z M 11.859375 0.960938 "/>
</g>
<path style=" stroke:none;fill-rule:nonzero;fill:currentColor;fill-opacity:1;" d="M 84.195312 182.476562 C 84.132812 182.710938 83.898438 183.085938 83.539062 183.085938 C 83.523438 183.085938 83.304688 183.085938 83.164062 182.992188 C 83.445312 182.898438 83.476562 182.648438 83.476562 182.601562 C 83.476562 182.445312 83.351562 182.351562 83.195312 182.351562 C 82.992188 182.351562 82.789062 182.507812 82.789062 182.773438 C 82.789062 183.117188 83.179688 183.273438 83.523438 183.273438 C 83.851562 183.273438 84.132812 183.085938 84.304688 182.789062 C 84.476562 183.148438 84.851562 183.273438 85.132812 183.273438 C 85.945312 183.273438 86.367188 182.414062 86.367188 182.210938 C 86.367188 182.117188 86.273438 182.117188 86.257812 182.117188 C 86.148438 182.117188 86.148438 182.164062 86.117188 182.242188 C 85.976562 182.726562 85.554688 183.085938 85.164062 183.085938 C 84.882812 183.085938 84.742188 182.898438 84.742188 182.632812 C 84.742188 182.445312 84.914062 181.820312 85.101562 181.039062 C 85.242188 180.507812 85.554688 180.335938 85.789062 180.335938 C 85.804688 180.335938 86.007812 180.335938 86.164062 180.429688 C 85.945312 180.492188 85.851562 180.695312 85.851562 180.820312 C 85.851562 180.960938 85.976562 181.070312 86.132812 181.070312 C 86.289062 181.070312 86.523438 180.945312 86.523438 180.648438 C 86.523438 180.257812 86.070312 180.132812 85.804688 180.132812 C 85.445312 180.132812 85.164062 180.367188 85.023438 180.632812 C 84.898438 180.351562 84.570312 180.132812 84.179688 180.132812 C 83.398438 180.132812 82.960938 180.992188 82.960938 181.210938 C 82.960938 181.289062 83.054688 181.289062 83.070312 181.289062 C 83.164062 181.289062 83.164062 181.273438 83.210938 181.179688 C 83.382812 180.632812 83.820312 180.335938 84.164062 180.335938 C 84.398438 180.335938 84.585938 180.460938 84.585938 180.789062 C 84.585938 180.929688 84.492188 181.273438 84.429688 181.523438 Z M 84.195312 182.476562 "/>
<g clip-path="url(#clip4)" clip-rule="nonzero">
<path style=" stroke:none;fill-rule:nonzero;fill:currentColor;fill-opacity:1;" d="M 92.273438 184.867188 C 92.273438 184.820312 92.257812 184.804688 92.210938 184.757812 C 91.273438 183.914062 90.945312 182.742188 90.945312 181.476562 C 90.945312 179.585938 91.664062 178.664062 92.226562 178.148438 C 92.257812 178.117188 92.273438 178.101562 92.273438 178.070312 C 92.273438 177.992188 92.195312 177.992188 92.132812 177.992188 C 90.820312 178.914062 90.460938 180.398438 90.460938 181.460938 C 90.460938 182.445312 90.757812 183.976562 92.132812 184.945312 C 92.195312 184.945312 92.273438 184.945312 92.273438 184.867188 Z M 92.273438 184.867188 "/>
</g>
<path style=" stroke:none;fill-rule:nonzero;fill:currentColor;fill-opacity:1;" d="M 96.757812 183.210938 L 96.757812 182.960938 C 96.507812 182.960938 96.351562 182.945312 96.148438 182.695312 L 95.023438 181.320312 C 95.882812 180.664062 96.117188 180.476562 96.585938 180.460938 L 96.585938 180.210938 C 96.445312 180.226562 96.257812 180.242188 96.117188 180.242188 C 95.835938 180.242188 95.554688 180.226562 95.289062 180.210938 L 95.289062 180.460938 C 95.367188 180.476562 95.414062 180.523438 95.414062 180.585938 C 95.414062 180.695312 95.273438 180.820312 95.195312 180.882812 L 94.164062 181.679688 L 94.164062 178.367188 L 93.117188 178.445312 L 93.117188 178.695312 C 93.585938 178.695312 93.632812 178.757812 93.632812 179.085938 L 93.632812 182.664062 C 93.632812 182.960938 93.570312 182.960938 93.117188 182.960938 L 93.117188 183.210938 C 93.367188 183.195312 93.632812 183.179688 93.882812 183.179688 C 94.148438 183.179688 94.398438 183.195312 94.664062 183.210938 L 94.664062 182.960938 C 94.210938 182.960938 94.132812 182.960938 94.132812 182.664062 L 94.132812 181.992188 L 94.648438 181.601562 L 95.398438 182.554688 C 95.476562 182.632812 95.554688 182.742188 95.554688 182.835938 C 95.554688 182.945312 95.429688 182.960938 95.367188 182.960938 L 95.367188 183.210938 C 95.460938 183.210938 95.945312 183.179688 96.148438 183.179688 C 96.351562 183.179688 96.554688 183.195312 96.757812 183.210938 Z M 96.757812 183.210938 "/>
<path style=" stroke:none;fill-rule:nonzero;fill:currentColor;fill-opacity:1;" d="M 103.207031 183.210938 L 103.207031 182.960938 C 102.753906 182.960938 102.691406 182.960938 102.691406 182.664062 L 102.691406 181.101562 C 102.691406 180.492188 102.378906 180.132812 101.644531 180.132812 C 101.082031 180.132812 100.707031 180.429688 100.519531 180.789062 C 100.378906 180.289062 100.003906 180.132812 99.503906 180.132812 C 98.925781 180.132812 98.566406 180.445312 98.363281 180.820312 L 98.363281 180.132812 L 97.332031 180.210938 L 97.332031 180.460938 C 97.800781 180.460938 97.863281 180.507812 97.863281 180.851562 L 97.863281 182.664062 C 97.863281 182.960938 97.785156 182.960938 97.332031 182.960938 L 97.332031 183.210938 C 97.332031 183.210938 97.832031 183.179688 98.128906 183.179688 C 98.378906 183.179688 98.863281 183.210938 98.925781 183.210938 L 98.925781 182.960938 C 98.472656 182.960938 98.410156 182.960938 98.410156 182.664062 L 98.410156 181.398438 C 98.410156 180.679688 98.988281 180.335938 99.441406 180.335938 C 99.925781 180.335938 99.988281 180.710938 99.988281 181.070312 L 99.988281 182.664062 C 99.988281 182.960938 99.925781 182.960938 99.472656 182.960938 L 99.472656 183.210938 C 99.472656 183.210938 99.972656 183.179688 100.269531 183.179688 C 100.519531 183.179688 101.003906 183.210938 101.066406 183.210938 L 101.066406 182.960938 C 100.613281 182.960938 100.550781 182.960938 100.550781 182.664062 L 100.550781 181.398438 C 100.550781 180.679688 101.128906 180.335938 101.582031 180.335938 C 102.066406 180.335938 102.128906 180.710938 102.128906 181.070312 L 102.128906 182.664062 C 102.128906 182.960938 102.066406 182.960938 101.613281 182.960938 L 101.613281 183.210938 C 101.613281 183.210938 102.113281 183.179688 102.410156 183.179688 C 102.660156 183.179688 103.144531 183.210938 103.207031 183.210938 Z M 103.207031 183.210938 "/>
<g clip-path="url(#clip5)" clip-rule="nonzero">
<path style=" stroke:none;fill-rule:nonzero;fill:currentColor;fill-opacity:1;" d="M 105.800781 181.476562 C 105.800781 180.492188 105.503906 178.960938 104.128906 177.992188 C 104.082031 177.992188 104.003906 177.992188 104.003906 178.070312 C 104.003906 178.101562 104.019531 178.117188 104.066406 178.179688 C 104.660156 178.726562 105.332031 179.664062 105.332031 181.460938 C 105.332031 182.914062 104.878906 184.023438 104.128906 184.695312 C 104.003906 184.820312 104.003906 184.820312 104.003906 184.867188 C 104.003906 184.898438 104.019531 184.945312 104.082031 184.945312 C 104.175781 184.945312 104.832031 184.492188 105.300781 183.617188 C 105.597656 183.039062 105.800781 182.289062 105.800781 181.476562 Z M 105.800781 181.476562 "/>
</g>
<path style=" stroke:none;fill-rule:nonzero;fill:currentColor;fill-opacity:1;" d="M 2.59375 91.300781 C 2.5 91.269531 2.484375 91.269531 2.4375 91.269531 C 2.296875 91.269531 2.21875 91.378906 2.21875 91.503906 C 2.21875 91.582031 2.25 91.707031 2.375 91.785156 C 2.421875 91.816406 2.640625 91.863281 2.78125 91.894531 L 3.359375 92.050781 C 3.53125 92.082031 4.40625 92.300781 4.484375 92.332031 C 4.484375 92.332031 5.09375 92.644531 5.09375 93.175781 C 5.09375 93.660156 4.640625 93.660156 4.515625 93.660156 C 4.140625 93.660156 3.703125 93.503906 3.15625 93.285156 C 2.9375 93.207031 2.859375 93.175781 2.734375 93.175781 C 2.40625 93.175781 2.140625 93.457031 2.140625 93.832031 C 2.140625 94.535156 3.09375 94.847656 3.21875 94.847656 C 3.296875 94.847656 3.296875 94.753906 3.296875 94.722656 C 3.296875 94.628906 3.265625 94.628906 3.1875 94.597656 C 2.609375 94.425781 2.34375 94.128906 2.34375 93.847656 C 2.34375 93.738281 2.421875 93.675781 2.578125 93.675781 C 2.75 93.675781 2.890625 93.738281 2.984375 93.769531 C 3.84375 94.113281 4.09375 94.175781 4.40625 94.175781 C 4.515625 94.175781 4.84375 94.175781 5.078125 93.910156 C 5.25 93.691406 5.28125 93.394531 5.28125 93.207031 C 5.28125 92.925781 5.1875 92.675781 4.96875 92.457031 C 5.359375 92.535156 5.65625 92.613281 6 92.910156 C 6.21875 93.097656 6.4375 93.378906 6.4375 93.753906 C 6.4375 93.800781 6.4375 94.128906 6.21875 94.269531 C 6.171875 93.894531 5.84375 93.894531 5.828125 93.894531 C 5.609375 93.894531 5.5625 94.097656 5.5625 94.160156 C 5.5625 94.332031 5.703125 94.566406 6.03125 94.566406 C 6.375 94.566406 6.640625 94.238281 6.640625 93.738281 C 6.640625 93.035156 6.09375 92.175781 5.21875 91.957031 Z M 2.59375 91.300781 "/>
<path style=" stroke:none;fill-rule:nonzero;fill:currentColor;fill-opacity:1;" d="M 6.875 85.589844 C 6.828125 85.589844 6.8125 85.605469 6.765625 85.652344 C 5.921875 86.589844 4.75 86.917969 3.484375 86.917969 C 1.59375 86.917969 0.671875 86.199219 0.15625 85.636719 C 0.125 85.605469 0.109375 85.589844 0.078125 85.589844 C 0 85.589844 0 85.667969 0 85.730469 C 0.921875 87.042969 2.40625 87.402344 3.46875 87.402344 C 4.453125 87.402344 5.984375 87.105469 6.953125 85.730469 C 6.953125 85.667969 6.953125 85.589844 6.875 85.589844 Z M 6.875 85.589844 "/>
<path style=" stroke:none;fill-rule:nonzero;fill:currentColor;fill-opacity:1;" d="M 5.21875 81.105469 L 4.96875 81.105469 C 4.96875 81.355469 4.953125 81.511719 4.703125 81.714844 L 3.328125 82.839844 C 2.671875 81.980469 2.484375 81.746094 2.46875 81.277344 L 2.21875 81.277344 C 2.234375 81.417969 2.25 81.605469 2.25 81.746094 C 2.25 82.027344 2.234375 82.308594 2.21875 82.574219 L 2.46875 82.574219 C 2.484375 82.496094 2.53125 82.449219 2.59375 82.449219 C 2.703125 82.449219 2.828125 82.589844 2.890625 82.667969 L 3.6875 83.699219 L 0.375 83.699219 L 0.453125 84.746094 L 0.703125 84.746094 C 0.703125 84.277344 0.765625 84.230469 1.09375 84.230469 L 4.671875 84.230469 C 4.96875 84.230469 4.96875 84.292969 4.96875 84.746094 L 5.21875 84.746094 C 5.203125 84.496094 5.1875 84.230469 5.1875 83.980469 C 5.1875 83.714844 5.203125 83.464844 5.21875 83.199219 L 4.96875 83.199219 C 4.96875 83.652344 4.96875 83.730469 4.671875 83.730469 L 4 83.730469 L 3.609375 83.214844 L 4.5625 82.464844 C 4.640625 82.386719 4.75 82.308594 4.84375 82.308594 C 4.953125 82.308594 4.96875 82.433594 4.96875 82.496094 L 5.21875 82.496094 C 5.21875 82.402344 5.1875 81.917969 5.1875 81.714844 C 5.1875 81.511719 5.203125 81.308594 5.21875 81.105469 Z M 5.21875 81.105469 "/>
<path style=" stroke:none;fill-rule:nonzero;fill:currentColor;fill-opacity:1;" d="M 5.21875 74.652344 L 4.96875 74.652344 C 4.96875 75.105469 4.96875 75.167969 4.671875 75.167969 L 3.109375 75.167969 C 2.5 75.167969 2.140625 75.480469 2.140625 76.214844 C 2.140625 76.777344 2.4375 77.152344 2.796875 77.339844 C 2.296875 77.480469 2.140625 77.855469 2.140625 78.355469 C 2.140625 78.933594 2.453125 79.292969 2.828125 79.496094 L 2.140625 79.496094 L 2.21875 80.527344 L 2.46875 80.527344 C 2.46875 80.058594 2.515625 79.996094 2.859375 79.996094 L 4.671875 79.996094 C 4.96875 79.996094 4.96875 80.074219 4.96875 80.527344 L 5.21875 80.527344 C 5.21875 80.527344 5.1875 80.027344 5.1875 79.730469 C 5.1875 79.480469 5.21875 78.996094 5.21875 78.933594 L 4.96875 78.933594 C 4.96875 79.386719 4.96875 79.449219 4.671875 79.449219 L 3.40625 79.449219 C 2.6875 79.449219 2.34375 78.871094 2.34375 78.417969 C 2.34375 77.933594 2.71875 77.871094 3.078125 77.871094 L 4.671875 77.871094 C 4.96875 77.871094 4.96875 77.933594 4.96875 78.386719 L 5.21875 78.386719 C 5.21875 78.386719 5.1875 77.886719 5.1875 77.589844 C 5.1875 77.339844 5.21875 76.855469 5.21875 76.792969 L 4.96875 76.792969 C 4.96875 77.246094 4.96875 77.308594 4.671875 77.308594 L 3.40625 77.308594 C 2.6875 77.308594 2.34375 76.730469 2.34375 76.277344 C 2.34375 75.792969 2.71875 75.730469 3.078125 75.730469 L 4.671875 75.730469 C 4.96875 75.730469 4.96875 75.792969 4.96875 76.246094 L 5.21875 76.246094 C 5.21875 76.246094 5.1875 75.746094 5.1875 75.449219 C 5.1875 75.199219 5.21875 74.714844 5.21875 74.652344 Z M 5.21875 74.652344 "/>
<path style=" stroke:none;fill-rule:nonzero;fill:currentColor;fill-opacity:1;" d="M 3.484375 72.058594 C 2.5 72.058594 0.96875 72.355469 0 73.730469 C 0 73.777344 0 73.855469 0.078125 73.855469 C 0.109375 73.855469 0.125 73.839844 0.1875 73.792969 C 0.734375 73.199219 1.671875 72.527344 3.46875 72.527344 C 4.921875 72.527344 6.03125 72.980469 6.703125 73.730469 C 6.828125 73.855469 6.828125 73.855469 6.875 73.855469 C 6.90625 73.855469 6.953125 73.839844 6.953125 73.777344 C 6.953125 73.683594 6.5 73.027344 5.625 72.558594 C 5.046875 72.261719 4.296875 72.058594 3.484375 72.058594 Z M 3.484375 72.058594 "/>
</g>
</svg>
