<?xml version="1.0" encoding="UTF-8"?>
<svg xmlns="http://www.w3.org/2000/svg" xmlns:xlink="http://www.w3.org/1999/xlink" width="578pt" height="615pt" viewBox="0 0 578 615" version="1.1">
<g id="surface1">
<path style=" stroke:none;fill-rule:nonzero;fill:rgb(0%,0%,0%);fill-opacity:1;" d="M 252.335938 613.328125 C 234.976562 612.652344 208.753906 610.9375 194.0625 609.519531 C 134.742188 603.785156 138.46875 604.550781 130.933594 596.511719 C 127.183594 592.507812 126.84375 590.808594 126.300781 573.304688 C 125.980469 562.917969 126.5625 546.410156 127.597656 536.621094 C 129.585938 517.824219 132.828125 384.882812 133.164062 308.472656 C 133.367188 262.007812 131.792969 243.714844 126.535156 231.617188 L 124.078125 225.953125 L 106.628906 244.261719 C 92.625 258.953125 88.269531 262.589844 84.566406 262.691406 C 80.058594 262.816406 63.828125 255.691406 47.574219 246.453125 C 43.121094 243.925781 35.835938 239.789062 31.386719 237.261719 C 26.933594 234.734375 19.761719 230.835938 15.449219 228.597656 C -1.3125 219.894531 -4.316406 208.769531 5.886719 193.164062 C 9.222656 188.058594 12.320312 183.519531 12.765625 183.074219 C 13.214844 182.628906 15.621094 178.453125 18.113281 173.789062 C 24.574219 161.71875 44.539062 131.191406 49.597656 125.652344 C 50.710938 124.433594 51.621094 123.015625 51.621094 122.5 C 51.621094 121 60.339844 109.324219 77.214844 88.230469 C 90.484375 71.640625 94.765625 67.480469 105.035156 61.191406 C 111.714844 57.101562 122.277344 51.878906 128.507812 49.578125 C 134.738281 47.277344 143.84375 43.53125 148.742188 41.25 C 153.636719 38.96875 162.90625 35.011719 169.34375 32.453125 C 181.050781 27.800781 211.324219 12.5 214.214844 9.773438 C 215.0625 8.976562 217.402344 8.324219 219.414062 8.324219 C 221.425781 8.324219 224.46875 6.832031 226.167969 5.003906 C 231.414062 -0.621094 237.394531 -1.1875 249.242188 2.820312 C 265.570312 8.339844 299.863281 11.078125 319.910156 8.460938 C 328.59375 7.328125 339.753906 5.011719 344.710938 3.316406 C 356.023438 -0.550781 362.519531 -0.585938 367.449219 3.199219 C 369.574219 4.828125 380.414062 10.578125 391.542969 15.976562 C 412.742188 26.261719 448.324219 43.117188 453.863281 45.5 C 493.960938 62.742188 499.492188 67.566406 520.566406 103.683594 C 525.535156 112.195312 530.945312 121.128906 532.589844 123.53125 C 534.238281 125.933594 539.140625 135.035156 543.492188 143.753906 C 547.839844 152.476562 557.410156 171.265625 564.761719 185.503906 C 572.898438 201.261719 578.082031 213.214844 578.011719 216.050781 C 577.90625 220.429688 570.796875 230 567.644531 230 C 566.90625 230 563.21875 231.957031 559.449219 234.347656 C 552.128906 239 538.878906 246.277344 519.65625 256.210938 C 503.183594 264.71875 495.390625 264.71875 487.261719 256.199219 C 484.027344 252.8125 479.570312 247.535156 477.355469 244.46875 C 472.574219 237.855469 461.316406 226.761719 459.386719 226.761719 C 456.886719 226.761719 454.730469 232.828125 451.242188 249.6875 C 446.117188 274.460938 445.132812 293.019531 446.757812 334.363281 C 447.5625 354.832031 448.90625 402.160156 449.742188 439.539062 C 450.582031 476.914062 452.039062 525.753906 452.984375 548.066406 C 454.210938 577.039062 454.203125 590.066406 452.957031 593.644531 C 450.355469 601.097656 442.511719 604.066406 419.0625 606.46875 C 340.226562 614.542969 334.472656 614.972656 308.179688 614.757812 C 294.828125 614.648438 269.695312 614.007812 252.335938 613.328125 Z M 252.335938 613.328125 "/>
</g>
</svg>
