<?xml version="1.0" encoding="UTF-8"?>
<svg xmlns="http://www.w3.org/2000/svg" xmlns:xlink="http://www.w3.org/1999/xlink" width="218.675644pt" height="134.476624pt" viewBox="0 0 218.675644 134.476624" version="1.1">
<defs>
<clipPath id="clip1">
  <path d="M 10 122 L 56 122 L 56 134.476562 L 10 134.476562 Z M 10 122 "/>
</clipPath>
<clipPath id="clip2">
  <path d="M 10 121 L 56 121 L 56 134.476562 L 10 134.476562 Z M 10 121 "/>
</clipPath>
<clipPath id="clip3">
  <path d="M 0 50.671875 L 69.664062 50.671875 L 69.664062 128 L 0 128 Z M 0 50.671875 "/>
</clipPath>
<clipPath id="clip4">
  <path d="M 83 1 L 218.675781 1 L 218.675781 76 L 83 76 Z M 83 1 "/>
</clipPath>
<clipPath id="clip5">
  <path d="M 74 0 L 218.675781 0 L 218.675781 85 L 74 85 Z M 74 0 "/>
</clipPath>
<clipPath id="clip6">
  <path d="M 166 108 L 193 108 L 193 134.476562 L 166 134.476562 Z M 166 108 "/>
</clipPath>
</defs>
<g id="surface1">
<g clip-path="url(#clip1)" clip-rule="nonzero">
<path style=" stroke:none;fill-rule:nonzero;fill:rgb(84.312439%,84.312439%,100%);fill-opacity:1;" d="M 10.683594 122.089844 L 10.683594 134.277344 L 12.511719 134.277344 L 12.511719 122.089844 Z M 53.34375 122.089844 L 53.34375 134.277344 L 55.171875 134.277344 L 55.171875 122.089844 Z M 53.34375 122.089844 "/>
</g>
<g clip-path="url(#clip2)" clip-rule="nonzero">
<path style="fill:none;stroke-width:0.3985;stroke-linecap:butt;stroke-linejoin:miter;stroke:rgb(0%,0%,100%);stroke-opacity:1;stroke-miterlimit:10;" d="M 10.683594 -122.089844 L 10.683594 -134.277344 L 12.511719 -134.277344 L 12.511719 -122.089844 Z M 53.34375 -122.089844 L 53.34375 -134.277344 L 55.171875 -134.277344 L 55.171875 -122.089844 Z M 53.34375 -122.089844 " transform="matrix(1,0,0,-1,0,0)"/>
</g>
<path style="fill-rule:nonzero;fill:rgb(49.803162%,100%,49.803162%);fill-opacity:1;stroke-width:0.3985;stroke-linecap:butt;stroke-linejoin:miter;stroke:rgb(0%,49.803162%,0%);stroke-opacity:1;stroke-miterlimit:10;" d="M 30.488281 -0.199219 L 33.539062 -0.199219 L 33.539062 -6.292969 L 30.488281 -6.292969 Z M 30.488281 -0.199219 " transform="matrix(1,0,0,-1,0,0)"/>
<path style="fill-rule:nonzero;fill:rgb(84.312439%,84.312439%,100%);fill-opacity:1;stroke-width:0.3985;stroke-linecap:butt;stroke-linejoin:miter;stroke:rgb(0%,0%,100%);stroke-opacity:1;stroke-miterlimit:10;" d="M 24.394531 -11.390625 L 24.394531 -5.765625 C 24.394531 -5.214844 24.839844 -4.769531 25.390625 -4.769531 L 38.636719 -4.769531 C 39.1875 -4.769531 39.632812 -5.214844 39.632812 -5.765625 L 39.632812 -11.390625 C 39.632812 -11.941406 39.1875 -12.386719 38.636719 -12.386719 L 25.390625 -12.386719 C 24.839844 -12.386719 24.394531 -11.941406 24.394531 -11.390625 Z M 24.394531 -11.390625 " transform="matrix(1,0,0,-1,0,0)"/>
<path style="fill-rule:nonzero;fill:rgb(84.312439%,84.312439%,100%);fill-opacity:1;stroke-width:0.3985;stroke-linecap:butt;stroke-linejoin:miter;stroke:rgb(0%,0%,100%);stroke-opacity:1;stroke-miterlimit:10;" d="M 21.347656 -47.433594 L 16.90625 -13.375 C 16.835938 -12.832031 17.222656 -12.386719 17.773438 -12.386719 L 46.253906 -12.386719 C 46.804688 -12.386719 47.191406 -12.832031 47.121094 -13.375 L 42.679688 -47.433594 " transform="matrix(1,0,0,-1,0,0)"/>
<path style="fill-rule:nonzero;fill:rgb(84.312439%,84.312439%,100%);fill-opacity:1;stroke-width:0.3985;stroke-linecap:butt;stroke-linejoin:miter;stroke:rgb(0%,0%,100%);stroke-opacity:1;stroke-miterlimit:10;" d="M 12.207031 -56.574219 L 12.207031 -48.429688 C 12.207031 -47.878906 12.652344 -47.433594 13.203125 -47.433594 L 50.824219 -47.433594 C 51.375 -47.433594 51.820312 -47.878906 51.820312 -48.429688 L 51.820312 -56.574219 " transform="matrix(1,0,0,-1,0,0)"/>
<path style=" stroke:none;fill-rule:nonzero;fill:rgb(84.312439%,84.312439%,100%);fill-opacity:1;" d="M 8.632812 122.089844 L 55.394531 122.089844 C 55.945312 122.089844 56.484375 121.652344 56.59375 121.113281 L 63.808594 86.496094 C 63.917969 85.960938 63.5625 85.523438 63.015625 85.523438 L 57.386719 85.523438 C 56.839844 85.523438 56.484375 85.085938 56.597656 84.546875 L 62.28125 57.546875 C 62.394531 57.007812 62.039062 56.574219 61.488281 56.574219 L 2.539062 56.574219 C 1.988281 56.574219 1.632812 57.007812 1.746094 57.546875 L 7.429688 84.546875 C 7.542969 85.085938 7.191406 85.523438 6.640625 85.523438 L 1.011719 85.523438 C 0.464844 85.523438 0.109375 85.960938 0.21875 86.496094 L 7.433594 121.113281 C 7.542969 121.652344 8.082031 122.089844 8.632812 122.089844 Z M 8.632812 122.089844 "/>
<g clip-path="url(#clip3)" clip-rule="nonzero">
<path style="fill:none;stroke-width:0.3985;stroke-linecap:butt;stroke-linejoin:miter;stroke:rgb(0%,0%,100%);stroke-opacity:1;stroke-miterlimit:10;" d="M 8.632812 -122.089844 L 55.394531 -122.089844 C 55.945312 -122.089844 56.484375 -121.652344 56.59375 -121.113281 L 63.808594 -86.496094 C 63.917969 -85.960938 63.5625 -85.523438 63.015625 -85.523438 L 57.386719 -85.523438 C 56.839844 -85.523438 56.484375 -85.085938 56.597656 -84.546875 L 62.28125 -57.546875 C 62.394531 -57.007812 62.039062 -56.574219 61.488281 -56.574219 L 2.539062 -56.574219 C 1.988281 -56.574219 1.632812 -57.007812 1.746094 -57.546875 L 7.429688 -84.546875 C 7.542969 -85.085938 7.191406 -85.523438 6.640625 -85.523438 L 1.011719 -85.523438 C 0.464844 -85.523438 0.109375 -85.960938 0.21875 -86.496094 L 7.433594 -121.113281 C 7.542969 -121.652344 8.082031 -122.089844 8.632812 -122.089844 Z M 8.632812 -122.089844 " transform="matrix(1,0,0,-1,0,0)"/>
</g>
<path style="fill-rule:nonzero;fill:rgb(100%,100%,100%);fill-opacity:1;stroke-width:0.3985;stroke-linecap:butt;stroke-linejoin:miter;stroke:rgb(0%,0%,100%);stroke-opacity:1;stroke-miterlimit:10;" d="M 12.207031 -112.011719 L 12.207031 -71.222656 C 12.207031 -69.023438 13.992188 -67.238281 16.191406 -67.238281 L 47.835938 -67.238281 C 50.035156 -67.238281 51.820312 -69.023438 51.820312 -71.222656 L 51.820312 -112.011719 C 51.820312 -114.210938 50.035156 -115.996094 47.835938 -115.996094 L 16.191406 -115.996094 C 13.992188 -115.996094 12.207031 -114.210938 12.207031 -112.011719 Z M 12.207031 -112.011719 " transform="matrix(1,0,0,-1,0,0)"/>
<path style="fill-rule:nonzero;fill:rgb(49.803162%,100%,49.803162%);fill-opacity:1;stroke-width:0.3985;stroke-linecap:butt;stroke-linejoin:miter;stroke:rgb(0%,49.803162%,0%);stroke-opacity:1;stroke-miterlimit:10;" d="M 30.488281 -67.238281 L 33.539062 -67.238281 L 33.539062 -112.949219 L 30.488281 -112.949219 Z M 30.488281 -67.238281 " transform="matrix(1,0,0,-1,0,0)"/>
<path style="fill-rule:nonzero;fill:rgb(100%,94.116211%,0%);fill-opacity:1;stroke-width:0.3985;stroke-linecap:butt;stroke-linejoin:miter;stroke:rgb(100%,49.803162%,0%);stroke-opacity:1;stroke-miterlimit:10;" d="M 42.679688 -100.757812 C 42.679688 -94.867188 37.90625 -90.09375 32.015625 -90.09375 C 26.125 -90.09375 21.347656 -94.867188 21.347656 -100.757812 C 21.347656 -106.648438 26.125 -111.425781 32.015625 -111.425781 C 37.90625 -111.425781 42.679688 -106.648438 42.679688 -100.757812 Z M 42.679688 -100.757812 " transform="matrix(1,0,0,-1,0,0)"/>
<path style=" stroke:none;fill-rule:nonzero;fill:rgb(100%,0%,0%);fill-opacity:0.15;" d="M 12.207031 85.523438 L 12.207031 112.011719 C 12.207031 114.210938 13.992188 115.996094 16.191406 115.996094 L 47.835938 115.996094 C 50.035156 115.996094 51.820312 114.210938 51.820312 112.011719 L 51.820312 85.523438 "/>
<path style="fill:none;stroke-width:0.3985;stroke-linecap:butt;stroke-linejoin:miter;stroke:currentColor;stroke-opacity:1;stroke-miterlimit:10;" d="M 146.816406 -132.152344 L 146.816406 -3.175781 " transform="matrix(1,0,0,-1,0,0)"/>
<path style="fill-rule:nonzero;fill:rgb(84.312439%,84.312439%,100%);fill-opacity:1;stroke-width:0.3985;stroke-linecap:butt;stroke-linejoin:miter;stroke:rgb(0%,0%,100%);stroke-opacity:1;stroke-miterlimit:10;" d="M 128.394531 -28.972656 L 165.242188 -28.972656 L 165.242188 -65.820312 L 128.394531 -65.820312 Z M 128.394531 -28.972656 " transform="matrix(1,0,0,-1,0,0)"/>
<path style=" stroke:none;fill-rule:nonzero;fill:rgb(0%,0%,100%);fill-opacity:1;" d="M 148.003906 47.636719 C 147.894531 47.761719 147.816406 47.855469 147.785156 47.902344 C 147.503906 48.261719 147.300781 48.433594 147.144531 48.433594 C 147.066406 48.433594 147.019531 48.371094 147.019531 48.277344 C 147.019531 48.214844 147.066406 48.058594 147.113281 47.824219 L 147.800781 45.324219 C 147.800781 45.277344 147.832031 45.105469 147.832031 45.042969 C 147.832031 44.683594 147.582031 44.417969 147.238281 44.417969 C 147.050781 44.417969 146.847656 44.480469 146.613281 44.636719 C 146.128906 44.949219 145.707031 45.433594 145.019531 46.527344 C 145.269531 45.761719 145.425781 45.199219 145.425781 45.011719 C 145.425781 44.667969 145.191406 44.417969 144.863281 44.417969 C 144.253906 44.417969 143.550781 45.074219 142.628906 46.511719 L 143.207031 44.433594 L 143.175781 44.417969 C 142.628906 44.527344 142.410156 44.574219 141.582031 44.714844 L 141.582031 44.886719 L 141.832031 44.886719 C 142.097656 44.886719 142.222656 44.949219 142.222656 45.105469 C 142.222656 45.214844 142.003906 46.121094 141.644531 47.386719 C 141.410156 48.199219 141.378906 48.292969 141.253906 48.808594 L 142.003906 48.808594 C 142.472656 47.230469 142.628906 46.855469 142.957031 46.339844 C 143.519531 45.496094 144.113281 44.933594 144.457031 44.933594 C 144.582031 44.933594 144.660156 45.027344 144.660156 45.183594 C 144.660156 45.277344 144.332031 46.480469 143.707031 48.808594 L 144.457031 48.808594 C 144.863281 47.246094 145.050781 46.761719 145.566406 46.042969 C 146.050781 45.371094 146.550781 44.933594 146.847656 44.933594 C 146.957031 44.933594 147.035156 45.027344 147.035156 45.136719 C 147.035156 45.183594 147.019531 45.308594 146.972656 45.496094 L 146.394531 47.777344 C 146.300781 48.152344 146.269531 48.339844 146.269531 48.433594 C 146.269531 48.746094 146.410156 48.902344 146.660156 48.902344 C 147.128906 48.902344 147.566406 48.574219 148.097656 47.824219 L 148.144531 47.761719 Z M 148.003906 47.636719 "/>
<path style=" stroke:none;fill-rule:nonzero;fill:rgb(0%,0%,100%);fill-opacity:1;" d="M 150.460938 45.328125 L 149.132812 46 L 149.132812 46.09375 C 149.226562 46.0625 149.304688 46.03125 149.335938 46.015625 C 149.476562 45.96875 149.601562 45.9375 149.664062 45.9375 C 149.820312 45.9375 149.898438 46.046875 149.898438 46.28125 L 149.898438 49.625 C 149.898438 49.875 149.835938 50.046875 149.710938 50.109375 C 149.601562 50.171875 149.507812 50.1875 149.195312 50.203125 L 149.195312 50.3125 L 151.226562 50.3125 L 151.226562 50.203125 C 150.648438 50.1875 150.523438 50.125 150.523438 49.765625 L 150.523438 45.34375 Z M 150.460938 45.328125 "/>
<path style="fill:none;stroke-width:0.3985;stroke-linecap:butt;stroke-linejoin:miter;stroke:rgb(0%,0%,100%);stroke-opacity:1;stroke-miterlimit:10;" d="M 165.242188 -47.394531 L 189.296875 -47.394531 " transform="matrix(1,0,0,-1,0,0)"/>
<path style=" stroke:none;fill-rule:nonzero;fill:rgb(0%,0%,100%);fill-opacity:1;" d="M 192.882812 47.394531 C 191.820312 47.195312 190.09375 46.597656 188.898438 45.902344 L 188.898438 48.890625 C 190.09375 48.191406 191.820312 47.59375 192.882812 47.394531 "/>
<path style=" stroke:none;fill-rule:nonzero;fill:rgb(0%,0%,100%);fill-opacity:1;" d="M 202.839844 43.371094 L 197.871094 43.371094 L 197.871094 43.542969 C 198.511719 43.589844 198.636719 43.652344 198.636719 43.949219 C 198.636719 44.089844 198.589844 44.339844 198.527344 44.589844 L 197.292969 48.996094 C 197.121094 49.589844 197.042969 49.652344 196.480469 49.730469 L 196.480469 49.886719 L 198.996094 49.886719 L 198.996094 49.730469 C 198.417969 49.699219 198.230469 49.589844 198.230469 49.292969 C 198.230469 49.214844 198.261719 49.058594 198.324219 48.839844 L 198.949219 46.621094 C 199.308594 46.636719 199.527344 46.652344 199.746094 46.652344 C 200.136719 46.652344 200.214844 46.652344 200.292969 46.699219 C 200.449219 46.777344 200.511719 46.902344 200.511719 47.105469 C 200.511719 47.261719 200.496094 47.386719 200.433594 47.699219 L 200.605469 47.746094 L 201.371094 45.417969 L 201.183594 45.355469 C 200.746094 46.261719 200.714844 46.261719 199.027344 46.292969 L 199.699219 43.964844 C 199.746094 43.761719 199.886719 43.699219 200.292969 43.699219 C 201.980469 43.699219 202.339844 43.839844 202.339844 44.449219 C 202.339844 44.511719 202.339844 44.558594 202.324219 44.699219 C 202.308594 44.746094 202.308594 44.761719 202.308594 44.886719 L 202.511719 44.902344 Z M 202.839844 43.371094 "/>
<path style=" stroke:none;fill-rule:nonzero;fill:rgb(0%,0%,100%);fill-opacity:1;" d="M 206.621094 52.277344 C 206.621094 52.246094 206.621094 52.230469 206.449219 52.058594 C 205.214844 50.808594 204.886719 48.917969 204.886719 47.386719 C 204.886719 45.652344 205.261719 43.917969 206.496094 42.683594 C 206.621094 42.558594 206.621094 42.542969 206.621094 42.511719 C 206.621094 42.433594 206.589844 42.402344 206.527344 42.402344 C 206.417969 42.402344 205.527344 43.089844 204.933594 44.355469 C 204.433594 45.449219 204.308594 46.558594 204.308594 47.386719 C 204.308594 48.167969 204.417969 49.371094 204.964844 50.511719 C 205.574219 51.730469 206.417969 52.386719 206.527344 52.386719 C 206.589844 52.386719 206.621094 52.355469 206.621094 52.277344 Z M 206.621094 52.277344 "/>
<path style=" stroke:none;fill-rule:nonzero;fill:rgb(0%,0%,100%);fill-opacity:1;" d="M 209.894531 45.621094 L 209.097656 45.621094 L 209.378906 44.589844 C 209.378906 44.574219 209.378906 44.558594 209.378906 44.542969 C 209.378906 44.480469 209.347656 44.449219 209.300781 44.449219 C 209.238281 44.449219 209.207031 44.449219 209.160156 44.527344 C 208.769531 45.042969 208.144531 45.542969 207.832031 45.636719 C 207.582031 45.714844 207.503906 45.777344 207.503906 45.886719 C 207.503906 45.886719 207.503906 45.902344 207.519531 45.933594 L 208.253906 45.933594 L 207.535156 48.683594 C 207.519531 48.777344 207.503906 48.792969 207.472656 48.886719 C 207.394531 49.183594 207.316406 49.542969 207.316406 49.621094 C 207.316406 49.839844 207.519531 49.996094 207.785156 49.996094 C 208.253906 49.996094 208.582031 49.714844 209.207031 48.792969 L 209.082031 48.714844 C 208.582031 49.355469 208.425781 49.511719 208.269531 49.511719 C 208.175781 49.511719 208.113281 49.433594 208.113281 49.308594 C 208.113281 49.292969 208.113281 49.292969 208.128906 49.261719 L 209.003906 45.933594 L 209.847656 45.933594 Z M 209.894531 45.621094 "/>
<path style=" stroke:none;fill-rule:nonzero;fill:rgb(0%,0%,100%);fill-opacity:1;" d="M 213.265625 47.386719 C 213.265625 46.621094 213.15625 45.417969 212.609375 44.277344 C 212.015625 43.058594 211.15625 42.402344 211.0625 42.402344 C 211 42.402344 210.953125 42.449219 210.953125 42.511719 C 210.953125 42.542969 210.953125 42.558594 211.140625 42.746094 C 212.125 43.730469 212.6875 45.308594 212.6875 47.386719 C 212.6875 49.105469 212.328125 50.855469 211.09375 52.105469 C 210.953125 52.230469 210.953125 52.246094 210.953125 52.277344 C 210.953125 52.339844 211 52.386719 211.0625 52.386719 C 211.15625 52.386719 212.0625 51.699219 212.640625 50.433594 C 213.15625 49.339844 213.265625 48.230469 213.265625 47.386719 Z M 213.265625 47.386719 "/>
<path style="fill:none;stroke-width:0.3985;stroke-linecap:butt;stroke-linejoin:miter;stroke:rgb(0%,0%,100%);stroke-opacity:1;stroke-miterlimit:10;" d="M 87.757812 -16.074219 L 143.230469 -16.074219 " transform="matrix(1,0,0,-1,0,0)"/>
<path style=" stroke:none;fill-rule:nonzero;fill:rgb(0%,0%,100%);fill-opacity:1;" d="M 84.171875 16.074219 C 85.234375 16.273438 86.960938 16.871094 88.15625 17.566406 L 88.15625 14.578125 C 86.960938 15.277344 85.234375 15.875 84.171875 16.074219 "/>
<path style=" stroke:none;fill-rule:nonzero;fill:rgb(0%,0%,100%);fill-opacity:1;" d="M 146.816406 16.074219 C 145.753906 15.875 144.027344 15.277344 142.832031 14.578125 L 142.832031 17.566406 C 144.027344 16.871094 145.753906 16.273438 146.816406 16.074219 "/>
<path style=" stroke:none;fill-rule:nonzero;fill:rgb(0%,0%,100%);fill-opacity:1;" d="M 115.191406 9.9375 C 115.113281 10.03125 115.066406 10.09375 114.972656 10.203125 C 114.753906 10.515625 114.628906 10.609375 114.519531 10.609375 C 114.378906 10.609375 114.285156 10.484375 114.207031 10.203125 C 114.191406 10.125 114.175781 10.0625 114.175781 10.03125 C 113.925781 9.015625 113.816406 8.5625 113.816406 8.421875 C 114.253906 7.640625 114.613281 7.203125 114.785156 7.203125 C 114.847656 7.203125 114.925781 7.234375 115.035156 7.28125 C 115.144531 7.359375 115.222656 7.375 115.300781 7.375 C 115.503906 7.375 115.644531 7.234375 115.644531 7.015625 C 115.644531 6.8125 115.472656 6.65625 115.238281 6.65625 C 114.800781 6.65625 114.425781 7.015625 113.738281 8.078125 L 113.628906 7.53125 C 113.488281 6.84375 113.378906 6.65625 113.097656 6.65625 C 112.878906 6.65625 112.550781 6.734375 111.941406 6.9375 L 111.832031 6.984375 L 111.863281 7.125 C 112.253906 7.046875 112.332031 7.015625 112.425781 7.015625 C 112.675781 7.015625 112.738281 7.109375 112.878906 7.703125 L 113.160156 8.9375 L 112.347656 10.09375 C 112.144531 10.40625 111.941406 10.578125 111.832031 10.578125 C 111.785156 10.578125 111.675781 10.546875 111.582031 10.484375 C 111.457031 10.421875 111.347656 10.390625 111.253906 10.390625 C 111.066406 10.390625 110.925781 10.53125 110.925781 10.734375 C 110.925781 11 111.128906 11.15625 111.425781 11.15625 C 111.722656 11.15625 111.847656 11.0625 112.347656 10.453125 C 112.613281 10.140625 112.832031 9.875 113.238281 9.296875 L 113.550781 10.484375 C 113.675781 11 113.800781 11.15625 114.128906 11.15625 C 114.503906 11.15625 114.753906 10.921875 115.332031 10.015625 Z M 115.191406 9.9375 "/>
<path style=" stroke:none;fill-rule:nonzero;fill:rgb(0%,0%,100%);fill-opacity:1;" d="M 117.753906 7.570312 L 116.425781 8.242188 L 116.425781 8.335938 C 116.519531 8.304688 116.597656 8.273438 116.628906 8.257812 C 116.769531 8.210938 116.894531 8.179688 116.957031 8.179688 C 117.113281 8.179688 117.191406 8.289062 117.191406 8.523438 L 117.191406 11.867188 C 117.191406 12.117188 117.128906 12.289062 117.003906 12.351562 C 116.894531 12.414062 116.800781 12.429688 116.488281 12.445312 L 116.488281 12.554688 L 118.519531 12.554688 L 118.519531 12.445312 C 117.941406 12.429688 117.816406 12.367188 117.816406 12.007812 L 117.816406 7.585938 Z M 117.753906 7.570312 "/>
<g clip-path="url(#clip4)" clip-rule="nonzero">
<path style="fill:none;stroke-width:0.3985;stroke-linecap:butt;stroke-linejoin:miter;stroke:currentColor;stroke-opacity:1;stroke-miterlimit:10;" d="M 84.171875 -1.332031 L 84.171875 -75.035156 L 218.675781 -75.035156 " transform="matrix(1,0,0,-1,0,0)"/>
</g>
<g clip-path="url(#clip5)" clip-rule="nonzero">
<path style="fill:none;stroke-width:0.3985;stroke-linecap:butt;stroke-linejoin:miter;stroke:currentColor;stroke-opacity:1;stroke-miterlimit:10;" d="M 84.171875 -1.332031 L 80.164062 -5.339844 M 84.171875 -5.585938 L 80.164062 -9.59375 M 84.171875 -9.835938 L 80.164062 -13.84375 M 84.171875 -14.089844 L 80.164062 -18.097656 M 84.171875 -18.339844 L 80.164062 -22.347656 M 84.171875 -22.59375 L 80.164062 -26.601562 M 84.171875 -26.84375 L 80.164062 -30.851562 M 84.171875 -31.097656 L 80.164062 -35.105469 M 84.171875 -35.347656 L 80.164062 -39.355469 M 84.171875 -39.601562 L 80.164062 -43.609375 M 84.171875 -43.851562 L 80.164062 -47.863281 M 84.171875 -48.105469 L 80.164062 -52.113281 M 84.171875 -52.355469 L 80.164062 -56.367188 M 84.171875 -56.609375 L 80.164062 -60.617188 M 84.171875 -60.859375 L 80.164062 -64.871094 M 84.171875 -65.113281 L 80.164062 -69.121094 M 84.171875 -69.363281 L 80.164062 -73.375 M 84.171875 -73.617188 L 80.164062 -77.625 M 87.007812 -75.035156 L 91.015625 -79.042969 M 91.257812 -75.035156 L 95.265625 -79.042969 M 95.511719 -75.035156 L 99.519531 -79.042969 M 99.761719 -75.035156 L 103.769531 -79.042969 M 104.015625 -75.035156 L 108.023438 -79.042969 M 108.265625 -75.035156 L 112.273438 -79.042969 M 112.519531 -75.035156 L 116.527344 -79.042969 M 116.769531 -75.035156 L 120.777344 -79.042969 M 121.023438 -75.035156 L 125.03125 -79.042969 M 125.273438 -75.035156 L 129.28125 -79.042969 M 129.527344 -75.035156 L 133.535156 -79.042969 M 133.777344 -75.035156 L 137.785156 -79.042969 M 138.03125 -75.035156 L 142.039062 -79.042969 M 142.28125 -75.035156 L 146.289062 -79.042969 M 146.535156 -75.035156 L 150.542969 -79.042969 M 150.785156 -75.035156 L 154.796875 -79.042969 M 155.039062 -75.035156 L 159.046875 -79.042969 M 159.289062 -75.035156 L 163.300781 -79.042969 M 163.542969 -75.035156 L 167.550781 -79.042969 M 167.792969 -75.035156 L 171.804688 -79.042969 M 172.046875 -75.035156 L 176.054688 -79.042969 M 176.296875 -75.035156 L 180.308594 -79.042969 M 180.550781 -75.035156 L 184.558594 -79.042969 M 184.800781 -75.035156 L 188.8125 -79.042969 M 189.054688 -75.035156 L 193.0625 -79.042969 M 193.304688 -75.035156 L 197.316406 -79.042969 M 197.558594 -75.035156 L 201.566406 -79.042969 M 201.808594 -75.035156 L 205.820312 -79.042969 M 206.0625 -75.035156 L 210.070312 -79.042969 M 210.3125 -75.035156 L 214.324219 -79.042969 " transform="matrix(1,0,0,-1,0,0)"/>
</g>
<path style="fill:none;stroke-width:0.3985;stroke-linecap:butt;stroke-linejoin:miter;stroke:currentColor;stroke-opacity:1;stroke-miterlimit:10;" d="M 165.242188 -70.429688 C 165.242188 -67.882812 163.179688 -65.820312 160.636719 -65.820312 C 158.09375 -65.820312 156.03125 -67.882812 156.03125 -70.429688 C 156.03125 -72.972656 158.09375 -75.035156 160.636719 -75.035156 C 163.179688 -75.035156 165.242188 -72.972656 165.242188 -70.429688 Z M 137.605469 -70.429688 C 137.605469 -67.882812 135.542969 -65.820312 133 -65.820312 C 130.453125 -65.820312 128.394531 -67.882812 128.394531 -70.429688 C 128.394531 -72.972656 130.453125 -75.035156 133 -75.035156 C 135.542969 -75.035156 137.605469 -72.972656 137.605469 -70.429688 Z M 137.605469 -70.429688 " transform="matrix(1,0,0,-1,0,0)"/>
<path style="fill:none;stroke-width:0.3985;stroke-linecap:butt;stroke-linejoin:miter;stroke:rgb(0%,0%,100%);stroke-opacity:1;stroke-miterlimit:10;" d="M 84.171875 -54.765625 L 95.226562 -54.765625 M 109.96875 -57.53125 L 95.226562 -57.53125 L 95.226562 -51.082031 L 109.96875 -51.082031 " transform="matrix(1,0,0,-1,0,0)"/>
<path style="fill:none;stroke-width:0.3985;stroke-linecap:butt;stroke-linejoin:miter;stroke:rgb(0%,0%,100%);stroke-opacity:1;stroke-miterlimit:10;" d="M 106.28125 -56.609375 L 106.28125 -52.921875 M 106.28125 -54.765625 L 128.394531 -54.765625 " transform="matrix(1,0,0,-1,0,0)"/>
<path style=" stroke:none;fill-rule:nonzero;fill:rgb(0%,0%,100%);fill-opacity:1;" d="M 105.460938 65.539062 C 104.914062 66.132812 104.523438 66.351562 104.039062 66.351562 C 103.476562 66.351562 103.132812 65.929688 103.132812 65.210938 C 103.132812 64.367188 103.476562 63.476562 104.039062 62.898438 C 104.335938 62.601562 104.726562 62.414062 105.117188 62.414062 C 105.351562 62.414062 105.492188 62.492188 105.492188 62.617188 C 105.492188 62.664062 105.476562 62.710938 105.429688 62.804688 C 105.367188 62.929688 105.351562 63.007812 105.351562 63.085938 C 105.351562 63.335938 105.492188 63.476562 105.742188 63.476562 C 106.007812 63.476562 106.210938 63.273438 106.210938 63.007812 C 106.210938 62.554688 105.757812 62.210938 105.164062 62.210938 C 103.664062 62.210938 102.273438 63.664062 102.273438 65.210938 C 102.273438 66.164062 102.820312 66.710938 103.742188 66.710938 C 104.476562 66.710938 105.023438 66.398438 105.632812 65.648438 Z M 105.460938 65.539062 "/>
<path style=" stroke:none;fill-rule:nonzero;fill:rgb(0%,0%,100%);fill-opacity:1;" d="M 108.542969 63.121094 L 107.214844 63.792969 L 107.214844 63.886719 C 107.308594 63.855469 107.386719 63.824219 107.417969 63.808594 C 107.558594 63.761719 107.683594 63.730469 107.746094 63.730469 C 107.902344 63.730469 107.980469 63.839844 107.980469 64.074219 L 107.980469 67.417969 C 107.980469 67.667969 107.917969 67.839844 107.792969 67.902344 C 107.683594 67.964844 107.589844 67.980469 107.277344 67.996094 L 107.277344 68.105469 L 109.308594 68.105469 L 109.308594 67.996094 C 108.730469 67.980469 108.605469 67.917969 108.605469 67.558594 L 108.605469 63.136719 Z M 108.542969 63.121094 "/>
<path style="fill:none;stroke-width:0.3985;stroke-linecap:butt;stroke-linejoin:miter;stroke:rgb(0%,0%,100%);stroke-opacity:1;stroke-miterlimit:10;" d="M 84.171875 -40.027344 L 84.371094 -40.027344 C 84.992188 -40.027344 85.304688 -38.035156 85.925781 -38.035156 C 86.378906 -38.035156 86.765625 -39.007812 87.171875 -40.027344 C 87.578125 -41.046875 87.96875 -42.019531 88.417969 -42.019531 C 88.871094 -42.019531 89.257812 -41.046875 89.664062 -40.027344 C 90.070312 -39.007812 90.457031 -38.035156 90.910156 -38.035156 C 91.359375 -38.035156 91.75 -39.007812 92.15625 -40.027344 C 92.558594 -41.046875 92.949219 -42.019531 93.398438 -42.019531 C 93.851562 -42.019531 94.238281 -41.046875 94.644531 -40.027344 C 95.050781 -39.007812 95.441406 -38.035156 95.890625 -38.035156 C 96.339844 -38.035156 96.730469 -39.007812 97.136719 -40.027344 C 97.542969 -41.046875 97.929688 -42.019531 98.382812 -42.019531 C 98.832031 -42.019531 99.21875 -41.046875 99.625 -40.027344 C 100.03125 -39.007812 100.421875 -38.035156 100.871094 -38.035156 C 101.324219 -38.035156 101.710938 -39.007812 102.117188 -40.027344 C 102.523438 -41.046875 102.910156 -42.019531 103.363281 -42.019531 C 103.8125 -42.019531 104.203125 -41.046875 104.609375 -40.027344 C 105.015625 -39.007812 105.402344 -38.035156 105.851562 -38.035156 C 106.304688 -38.035156 106.691406 -39.007812 107.097656 -40.027344 C 107.503906 -41.046875 107.894531 -42.019531 108.34375 -42.019531 C 108.792969 -42.019531 109.183594 -41.046875 109.589844 -40.027344 C 109.996094 -39.007812 110.382812 -38.035156 110.835938 -38.035156 C 111.285156 -38.035156 111.675781 -39.007812 112.078125 -40.027344 C 112.484375 -41.046875 112.875 -42.019531 113.324219 -42.019531 C 113.777344 -42.019531 114.164062 -41.046875 114.570312 -40.027344 C 114.976562 -39.007812 115.363281 -38.035156 115.816406 -38.035156 C 116.265625 -38.035156 116.65625 -39.007812 117.0625 -40.027344 C 117.46875 -41.046875 117.855469 -42.019531 118.308594 -42.019531 C 118.757812 -42.019531 119.144531 -41.046875 119.550781 -40.027344 C 119.957031 -39.007812 120.347656 -38.035156 120.796875 -38.035156 C 121.25 -38.035156 121.636719 -39.007812 122.042969 -40.027344 C 122.449219 -41.046875 122.835938 -42.019531 123.289062 -42.019531 C 123.738281 -42.019531 124.128906 -41.046875 124.535156 -40.027344 C 124.9375 -39.007812 125.328125 -38.035156 125.777344 -38.035156 C 126.402344 -38.035156 126.710938 -40.027344 127.335938 -40.027344 L 128.394531 -40.027344 " transform="matrix(1,0,0,-1,0,0)"/>
<path style=" stroke:none;fill-rule:nonzero;fill:rgb(0%,0%,100%);fill-opacity:1;" d="M 106.101562 32.910156 L 105.960938 33.175781 C 105.773438 33.488281 105.648438 33.597656 105.507812 33.597656 C 105.289062 33.597656 105.085938 33.269531 104.695312 32.316406 C 104.648438 32.175781 104.492188 31.816406 104.335938 31.425781 C 105.789062 30.128906 106.101562 29.925781 106.570312 29.894531 L 106.570312 29.738281 L 104.742188 29.738281 L 104.742188 29.894531 L 104.914062 29.894531 C 105.164062 29.894531 105.289062 29.972656 105.289062 30.082031 C 105.289062 30.269531 104.804688 30.769531 103.867188 31.472656 C 103.726562 31.582031 103.617188 31.675781 103.445312 31.800781 L 104.632812 27.238281 L 104.585938 27.191406 C 104.007812 27.332031 103.617188 27.394531 103.039062 27.457031 L 103.039062 27.628906 C 103.507812 27.613281 103.695312 27.691406 103.710938 27.878906 C 103.695312 28.035156 103.617188 28.316406 103.492188 28.769531 C 103.445312 28.910156 103.429688 29.019531 103.398438 29.097656 L 103.382812 29.191406 L 102.117188 34.003906 L 102.867188 34.003906 L 103.335938 32.207031 L 103.757812 31.894531 C 103.914062 32.332031 104.179688 32.941406 104.351562 33.300781 C 104.679688 33.925781 104.851562 34.113281 105.148438 34.113281 C 105.539062 34.113281 105.804688 33.863281 106.257812 33.019531 Z M 106.101562 32.910156 "/>
<path style=" stroke:none;fill-rule:nonzero;fill:rgb(0%,0%,100%);fill-opacity:1;" d="M 108.542969 30.527344 L 107.214844 31.199219 L 107.214844 31.292969 C 107.308594 31.261719 107.386719 31.230469 107.417969 31.214844 C 107.558594 31.167969 107.683594 31.136719 107.746094 31.136719 C 107.902344 31.136719 107.980469 31.246094 107.980469 31.480469 L 107.980469 34.824219 C 107.980469 35.074219 107.917969 35.246094 107.792969 35.308594 C 107.683594 35.371094 107.589844 35.386719 107.277344 35.402344 L 107.277344 35.511719 L 109.308594 35.511719 L 109.308594 35.402344 C 108.730469 35.386719 108.605469 35.324219 108.605469 34.964844 L 108.605469 30.542969 Z M 108.542969 30.527344 "/>
<path style="fill:none;stroke-width:0.79701;stroke-linecap:butt;stroke-linejoin:miter;stroke:rgb(0%,49.803162%,0%);stroke-opacity:1;stroke-miterlimit:10;" d="M 146.816406 -65.820312 L 179.0625 -121.671875 " transform="matrix(1,0,0,-1,0,0)"/>
<path style=" stroke:none;fill-rule:nonzero;fill:rgb(0%,49.803162%,0%);fill-opacity:1;" d="M 166.816406 96.191406 C 166.800781 96.222656 166.769531 96.253906 166.769531 96.285156 C 166.769531 96.332031 166.832031 96.425781 166.894531 96.425781 C 166.941406 96.425781 166.972656 96.394531 167.253906 96.113281 C 167.332031 96.035156 167.535156 95.847656 167.613281 95.769531 C 167.707031 96.550781 167.988281 97.300781 168.722656 97.300781 C 169.128906 97.300781 169.472656 97.066406 169.675781 96.910156 C 169.816406 96.816406 170.285156 96.425781 170.285156 96.332031 C 170.285156 96.300781 170.253906 96.207031 170.175781 96.207031 C 170.144531 96.207031 170.128906 96.222656 170.035156 96.300781 C 169.394531 96.925781 169.035156 97.082031 168.738281 97.082031 C 168.300781 97.082031 168.128906 96.550781 168.128906 95.785156 C 168.128906 95.722656 168.160156 95.269531 168.191406 95.207031 C 168.207031 95.175781 168.207031 95.160156 168.410156 94.957031 C 169.207031 94.160156 170.628906 92.472656 170.628906 90.925781 C 170.628906 90.753906 170.628906 90.144531 170.035156 90.144531 C 169.207031 90.144531 168.472656 91.785156 168.378906 92.019531 C 167.894531 93.113281 167.582031 94.269531 167.582031 95.457031 Z M 168.238281 94.800781 C 168.253906 94.675781 168.691406 92.472656 169.253906 91.300781 C 169.519531 90.769531 169.738281 90.363281 170.050781 90.363281 C 170.394531 90.363281 170.394531 90.722656 170.394531 90.878906 C 170.394531 92.550781 168.707031 94.300781 168.238281 94.800781 Z M 168.238281 94.800781 "/>
<path style="fill:none;stroke-width:0.3985;stroke-linecap:butt;stroke-linejoin:miter;stroke:rgb(100%,0%,0%);stroke-opacity:1;stroke-miterlimit:10;" d="M 179.0625 -121.671875 L 160.636719 -121.671875 M 160.636719 -123.515625 L 160.636719 -119.828125 " transform="matrix(1,0,0,-1,0,0)"/>
<path style=" stroke:none;fill-rule:nonzero;fill:rgb(100%,0%,0%);fill-opacity:1;" d="M 159.816406 130.597656 C 159.269531 131.191406 158.878906 131.410156 158.394531 131.410156 C 157.832031 131.410156 157.488281 130.988281 157.488281 130.269531 C 157.488281 129.425781 157.832031 128.535156 158.394531 127.957031 C 158.691406 127.660156 159.082031 127.472656 159.472656 127.472656 C 159.707031 127.472656 159.847656 127.550781 159.847656 127.675781 C 159.847656 127.722656 159.832031 127.769531 159.785156 127.863281 C 159.722656 127.988281 159.707031 128.066406 159.707031 128.144531 C 159.707031 128.394531 159.847656 128.535156 160.097656 128.535156 C 160.363281 128.535156 160.566406 128.332031 160.566406 128.066406 C 160.566406 127.613281 160.113281 127.269531 159.519531 127.269531 C 158.019531 127.269531 156.628906 128.722656 156.628906 130.269531 C 156.628906 131.222656 157.175781 131.769531 158.097656 131.769531 C 158.832031 131.769531 159.378906 131.457031 159.988281 130.707031 Z M 159.816406 130.597656 "/>
<path style=" stroke:none;fill-rule:nonzero;fill:rgb(100%,0%,0%);fill-opacity:1;" d="M 164.257812 132.152344 L 164.164062 132.121094 C 163.898438 132.542969 163.789062 132.605469 163.460938 132.605469 L 161.695312 132.605469 L 162.945312 131.308594 C 163.601562 130.621094 163.882812 130.058594 163.882812 129.480469 C 163.882812 128.746094 163.289062 128.183594 162.523438 128.183594 C 162.117188 128.183594 161.726562 128.339844 161.460938 128.636719 C 161.226562 128.886719 161.117188 129.121094 160.992188 129.652344 L 161.148438 129.683594 C 161.429688 128.964844 161.695312 128.730469 162.210938 128.730469 C 162.835938 128.730469 163.257812 129.152344 163.257812 129.761719 C 163.257812 130.339844 162.914062 131.027344 162.289062 131.683594 L 160.976562 133.074219 L 160.976562 133.167969 L 163.851562 133.167969 Z M 164.257812 132.152344 "/>
<path style="fill:none;stroke-width:0.3985;stroke-linecap:butt;stroke-linejoin:miter;stroke:rgb(100%,0%,0%);stroke-opacity:1;stroke-miterlimit:10;" d="M 146.816406 -121.652344 L 154.1875 -121.652344 M 168.929688 -124.875 L 154.1875 -124.875 L 154.1875 -118.425781 L 168.929688 -118.425781 " transform="matrix(1,0,0,-1,0,0)"/>
<path style=" stroke:none;fill-rule:nonzero;fill:rgb(100%,94.116211%,0%);fill-opacity:1;" d="M 186.433594 121.671875 C 186.433594 117.601562 183.132812 114.300781 179.0625 114.300781 C 174.992188 114.300781 171.691406 117.601562 171.691406 121.671875 C 171.691406 125.742188 174.992188 129.042969 179.0625 129.042969 C 183.132812 129.042969 186.433594 125.742188 186.433594 121.671875 Z M 186.433594 121.671875 "/>
<g clip-path="url(#clip6)" clip-rule="nonzero">
<path style="fill:none;stroke-width:0.3985;stroke-linecap:butt;stroke-linejoin:miter;stroke:rgb(100%,49.803162%,0%);stroke-opacity:1;stroke-miterlimit:10;" d="M 186.433594 -121.671875 C 186.433594 -117.601562 183.132812 -114.300781 179.0625 -114.300781 C 174.992188 -114.300781 171.691406 -117.601562 171.691406 -121.671875 C 171.691406 -125.742188 174.992188 -129.042969 179.0625 -129.042969 C 183.132812 -129.042969 186.433594 -125.742188 186.433594 -121.671875 Z M 186.433594 -121.671875 " transform="matrix(1,0,0,-1,0,0)"/>
</g>
<path style=" stroke:none;fill-rule:nonzero;fill:rgb(49.803162%,24.705505%,0%);fill-opacity:1;" d="M 196.929688 121.910156 C 196.820312 122.035156 196.742188 122.128906 196.710938 122.175781 C 196.429688 122.535156 196.226562 122.707031 196.070312 122.707031 C 195.992188 122.707031 195.945312 122.644531 195.945312 122.550781 C 195.945312 122.488281 195.992188 122.332031 196.039062 122.097656 L 196.726562 119.597656 C 196.726562 119.550781 196.757812 119.378906 196.757812 119.316406 C 196.757812 118.957031 196.507812 118.691406 196.164062 118.691406 C 195.976562 118.691406 195.773438 118.753906 195.539062 118.910156 C 195.054688 119.222656 194.632812 119.707031 193.945312 120.800781 C 194.195312 120.035156 194.351562 119.472656 194.351562 119.285156 C 194.351562 118.941406 194.117188 118.691406 193.789062 118.691406 C 193.179688 118.691406 192.476562 119.347656 191.554688 120.785156 L 192.132812 118.707031 L 192.101562 118.691406 C 191.554688 118.800781 191.335938 118.847656 190.507812 118.988281 L 190.507812 119.160156 L 190.757812 119.160156 C 191.023438 119.160156 191.148438 119.222656 191.148438 119.378906 C 191.148438 119.488281 190.929688 120.394531 190.570312 121.660156 C 190.335938 122.472656 190.304688 122.566406 190.179688 123.082031 L 190.929688 123.082031 C 191.398438 121.503906 191.554688 121.128906 191.882812 120.613281 C 192.445312 119.769531 193.039062 119.207031 193.382812 119.207031 C 193.507812 119.207031 193.585938 119.300781 193.585938 119.457031 C 193.585938 119.550781 193.257812 120.753906 192.632812 123.082031 L 193.382812 123.082031 C 193.789062 121.519531 193.976562 121.035156 194.492188 120.316406 C 194.976562 119.644531 195.476562 119.207031 195.773438 119.207031 C 195.882812 119.207031 195.960938 119.300781 195.960938 119.410156 C 195.960938 119.457031 195.945312 119.582031 195.898438 119.769531 L 195.320312 122.050781 C 195.226562 122.425781 195.195312 122.613281 195.195312 122.707031 C 195.195312 123.019531 195.335938 123.175781 195.585938 123.175781 C 196.054688 123.175781 196.492188 122.847656 197.023438 122.097656 L 197.070312 122.035156 Z M 196.929688 121.910156 "/>
<path style=" stroke:none;fill-rule:nonzero;fill:rgb(49.803162%,24.705505%,0%);fill-opacity:1;" d="M 200.746094 123.574219 L 200.652344 123.542969 C 200.386719 123.964844 200.277344 124.027344 199.949219 124.027344 L 198.183594 124.027344 L 199.433594 122.730469 C 200.089844 122.042969 200.371094 121.480469 200.371094 120.902344 C 200.371094 120.167969 199.777344 119.605469 199.011719 119.605469 C 198.605469 119.605469 198.214844 119.761719 197.949219 120.058594 C 197.714844 120.308594 197.605469 120.542969 197.480469 121.074219 L 197.636719 121.105469 C 197.917969 120.386719 198.183594 120.152344 198.699219 120.152344 C 199.324219 120.152344 199.746094 120.574219 199.746094 121.183594 C 199.746094 121.761719 199.402344 122.449219 198.777344 123.105469 L 197.464844 124.496094 L 197.464844 124.589844 L 200.339844 124.589844 Z M 200.746094 123.574219 "/>
<path style="fill:none;stroke-width:0.3985;stroke-linecap:butt;stroke-linejoin:miter;stroke:rgb(49.803162%,24.705505%,0%);stroke-opacity:1;stroke-miterlimit:10;" d="M 146.816406 -93.460938 C 151.667969 -93.460938 156.4375 -92.183594 157.53125 -91.550781 " transform="matrix(1,0,0,-1,0,0)"/>
<path style=" stroke:none;fill-rule:nonzero;fill:rgb(49.803162%,24.705505%,0%);fill-opacity:1;" d="M 160.636719 89.757812 C 159.617188 90.117188 157.824219 90.460938 156.4375 90.457031 L 157.933594 93.042969 C 158.621094 91.84375 159.816406 90.460938 160.636719 89.757812 "/>
<path style=" stroke:none;fill-rule:nonzero;fill:rgb(49.803162%,24.705505%,0%);fill-opacity:1;" d="M 154.570312 96.054688 C 154.195312 96.054688 153.757812 96.226562 153.335938 96.523438 C 152.570312 97.070312 152.023438 98.148438 151.789062 99.554688 C 151.570312 100.851562 151.726562 101.882812 152.226562 102.445312 C 152.554688 102.820312 152.992188 103.023438 153.414062 103.023438 C 153.804688 103.023438 154.210938 102.867188 154.648438 102.554688 C 155.414062 102.007812 155.960938 100.945312 156.179688 99.601562 C 156.414062 98.226562 156.273438 97.210938 155.773438 96.632812 C 155.445312 96.273438 155.023438 96.054688 154.570312 96.054688 Z M 155.132812 99.789062 C 154.914062 100.929688 154.695312 101.570312 154.320312 102.101562 C 154.085938 102.414062 153.726562 102.632812 153.476562 102.632812 C 153.226562 102.632812 152.929688 102.398438 152.835938 102.101562 C 152.617188 101.570312 152.601562 100.929688 152.773438 99.789062 Z M 152.867188 99.226562 C 153.070312 98.148438 153.320312 97.492188 153.679688 96.960938 C 153.898438 96.664062 154.257812 96.429688 154.507812 96.429688 C 154.757812 96.429688 155.054688 96.664062 155.164062 96.960938 C 155.367188 97.492188 155.382812 98.148438 155.226562 99.226562 Z M 152.867188 99.226562 "/>
</g>
</svg>
