<?xml version="1.0" encoding="UTF-8"?>
<svg xmlns="http://www.w3.org/2000/svg" xmlns:xlink="http://www.w3.org/1999/xlink" width="240.669998pt" height="149.110001pt" viewBox="0 0 240.669998 149.110001" version="1.1">
<defs>
<clipPath id="clip1">
  <path d="M 30.265625 17 L 238.984375 17 L 238.984375 121 L 30.265625 121 Z M 30.265625 17 "/>
</clipPath>
<clipPath id="clip2">
  <path d="M 30.265625 35 L 238.984375 35 L 238.984375 102 L 30.265625 102 Z M 30.265625 35 "/>
</clipPath>
</defs>
<g id="surface1">
<g clip-path="url(#clip1)" clip-rule="nonzero">
<path style="fill:none;stroke-width:0.3985;stroke-linecap:butt;stroke-linejoin:miter;stroke:rgb(38.822937%,38.822937%,100%);stroke-opacity:1;stroke-miterlimit:10;" d="M 30.265625 -36.953125 L 30.78125 -47.367188 L 31.292969 -59.136719 L 31.808594 -71.617188 L 32.324219 -83.503906 L 32.839844 -94.742188 L 33.355469 -104.09375 L 33.871094 -110.820312 L 34.386719 -114.390625 L 34.902344 -114.625 L 35.417969 -111.851562 L 35.933594 -105.804688 L 36.449219 -96.71875 L 36.964844 -85.65625 L 37.480469 -73.859375 L 37.996094 -61.144531 L 38.511719 -49.460938 L 39.023438 -39.195312 L 39.539062 -30.257812 L 40.054688 -25.15625 L 40.570312 -22.796875 L 41.085938 -23.503906 L 41.601562 -27.839844 L 42.117188 -35.480469 L 42.632812 -45.449219 L 43.148438 -56.71875 L 43.664062 -69.019531 L 44.179688 -81.410156 L 44.695312 -92.472656 L 45.210938 -102.179688 L 45.726562 -109.433594 L 46.242188 -113.769531 L 46.753906 -114.949219 L 47.269531 -113.003906 L 47.785156 -107.308594 L 48.300781 -98.460938 L 48.816406 -88.019531 L 49.332031 -76.484375 L 49.847656 -63.769531 L 50.363281 -52.234375 L 50.878906 -41.824219 L 51.394531 -32.738281 L 51.910156 -26.925781 L 52.425781 -23.621094 L 52.9375 -23.679688 L 53.457031 -27.308594 L 53.972656 -34.183594 L 54.484375 -43.238281 L 55 -53.886719 L 55.515625 -66.335938 L 56.03125 -78.726562 L 56.546875 -89.933594 L 57.0625 -100.140625 L 57.578125 -107.695312 L 58.09375 -112.769531 L 58.609375 -114.566406 L 59.125 -114.09375 L 59.640625 -108.667969 L 60.15625 -101.261719 L 60.667969 -91.617188 L 61.1875 -79.996094 L 61.703125 -67.398438 L 62.214844 -55.777344 L 62.730469 -45.304688 L 63.246094 -35.214844 L 63.761719 -28.785156 L 64.277344 -25.007812 L 64.792969 -24.535156 L 65.308594 -26.925781 L 65.824219 -32.882812 L 66.339844 -41.230469 L 66.855469 -51.941406 L 67.371094 -63.621094 L 67.886719 -75.894531 L 68.398438 -87.574219 L 68.914062 -98.285156 L 69.433594 -106.25 L 69.945312 -112.265625 L 70.460938 -114.566406 L 70.976562 -114.183594 L 71.492188 -109.847656 L 72.007812 -102.945312 L 72.523438 -93.710938 L 73.039062 -82.679688 L 73.554688 -70.761719 L 74.070312 -59.078125 L 74.585938 -47.132812 L 75.101562 -37.398438 L 75.617188 -29.816406 L 76.128906 -25.773438 L 76.644531 -24.210938 L 77.164062 -26.011719 L 77.675781 -31.703125 L 78.191406 -39.699219 L 78.707031 -49.90625 L 79.222656 -61.292969 L 79.738281 -73.445312 L 80.253906 -85.480469 L 80.769531 -96.128906 L 81.285156 -104.507812 L 81.800781 -110.734375 L 82.316406 -113.359375 L 82.832031 -113.59375 L 83.347656 -110.261719 L 83.859375 -104.300781 L 84.375 -95.273438 L 84.890625 -84.949219 L 85.40625 -72.945312 L 85.921875 -61.085938 L 86.4375 -49.460938 L 86.953125 -39.460938 L 87.46875 -31.644531 L 87.984375 -26.601562 L 88.5 -25.039062 L 89.015625 -25.746094 L 89.53125 -30.496094 L 90.046875 -37.929688 L 90.5625 -47.632812 L 91.078125 -58.753906 L 91.589844 -70.703125 L 92.105469 -82.589844 L 92.621094 -93.476562 L 93.136719 -102.621094 L 93.652344 -109.492188 L 94.167969 -113.0625 L 94.683594 -113.59375 L 95.199219 -111.382812 L 95.714844 -105.660156 L 96.230469 -97.105469 L 96.746094 -87.605469 L 97.261719 -75.804688 L 97.777344 -63.679688 L 98.292969 -52.414062 L 98.808594 -41.351562 L 99.320312 -33.179688 L 99.835938 -27.605469 L 100.351562 -24.890625 L 100.867188 -25.273438 L 101.382812 -29.109375 L 101.898438 -36.070312 L 102.414062 -45.539062 L 102.929688 -56.453125 L 103.445312 -67.957031 L 103.960938 -80.261719 L 104.476562 -91.117188 L 104.992188 -100.4375 L 105.507812 -107.753906 L 106.023438 -112.382812 L 106.539062 -113.890625 L 107.050781 -111.675781 L 107.566406 -107.015625 L 108.082031 -98.960938 L 108.597656 -89.226562 L 109.113281 -78.078125 L 109.628906 -65.746094 L 110.144531 -54.242188 L 110.660156 -43.710938 L 111.175781 -35.363281 L 111.691406 -28.960938 L 112.207031 -25.363281 L 112.722656 -25.332031 L 113.238281 -28.339844 L 113.753906 -34.832031 L 114.269531 -43.296875 L 114.78125 -53.738281 L 115.296875 -65.304688 L 115.8125 -77.222656 L 116.328125 -88.667969 L 116.84375 -98.429688 L 117.359375 -105.953125 L 117.875 -111.324219 L 118.390625 -113.238281 L 118.90625 -112.03125 L 119.421875 -107.902344 L 119.9375 -100.644531 L 120.453125 -91.558594 L 120.96875 -80.4375 L 121.484375 -68.8125 L 122 -57.308594 L 122.511719 -45.953125 L 123.027344 -36.71875 L 123.542969 -29.992188 L 124.058594 -26.1875 L 124.574219 -25.449219 L 125.089844 -27.75 L 125.605469 -33.296875 L 126.121094 -41.496094 L 126.636719 -51.617188 L 127.152344 -62.855469 L 127.667969 -74.800781 L 128.183594 -86.1875 L 128.699219 -96.21875 L 129.214844 -104.507812 L 129.730469 -109.964844 L 130.242188 -112.828125 L 130.757812 -112.445312 L 131.273438 -108.960938 L 131.789062 -102.648438 L 132.304688 -93.886719 L 132.820312 -82.945312 L 133.335938 -71.292969 L 133.851562 -59.847656 L 134.367188 -48.8125 L 134.882812 -38.929688 L 135.398438 -31.761719 L 135.914062 -27.015625 L 136.425781 -25.273438 L 136.945312 -27.132812 L 137.460938 -31.703125 L 137.972656 -39.195312 L 138.488281 -49.460938 L 139.003906 -60.320312 L 139.519531 -72 L 140.035156 -83.683594 L 140.550781 -93.859375 L 141.066406 -102.589844 L 141.582031 -108.785156 L 142.097656 -112 L 142.613281 -112.058594 L 143.128906 -109.699219 L 143.644531 -103.800781 L 144.15625 -95.363281 L 144.675781 -84.949219 L 145.191406 -73.417969 L 145.703125 -61.703125 L 146.21875 -50.40625 L 146.734375 -40.90625 L 147.25 -32.882812 L 147.765625 -27.957031 L 148.28125 -25.6875 L 148.796875 -26.1875 L 149.3125 -30.40625 L 149.828125 -37.605469 L 150.34375 -47.160156 L 150.859375 -57.839844 L 151.375 -69.492188 L 151.886719 -81.054688 L 152.402344 -91.46875 L 152.921875 -100.703125 L 153.433594 -107.398438 L 153.949219 -111.351562 L 154.464844 -112.238281 L 154.980469 -110.347656 L 155.496094 -104.832031 L 156.011719 -96.839844 L 156.527344 -87.042969 L 157.042969 -76.128906 L 157.558594 -64.449219 L 158.074219 -53.003906 L 158.589844 -42.558594 L 159.105469 -34.417969 L 159.617188 -28.84375 L 160.132812 -25.832031 L 160.652344 -26.039062 L 161.164062 -29.402344 L 161.679688 -35.894531 L 162.195312 -44.566406 L 162.710938 -55.246094 L 163.226562 -66.1875 L 163.742188 -78.253906 L 164.257812 -88.933594 L 164.773438 -98.578125 L 165.289062 -105.984375 L 165.804688 -110.261719 L 166.320312 -111.972656 L 166.835938 -110.792969 L 167.347656 -106.191406 L 167.863281 -99.019531 L 168.378906 -89.523438 L 168.894531 -78.285156 L 169.410156 -66.660156 L 169.925781 -55.332031 L 170.441406 -44.949219 L 170.957031 -36.335938 L 171.472656 -29.964844 L 171.988281 -26.6875 L 172.503906 -26.421875 L 173.019531 -28.753906 L 173.535156 -34.625 L 174.050781 -42.648438 L 174.566406 -52.824219 L 175.078125 -64.035156 L 175.59375 -75.597656 L 176.109375 -86.542969 L 176.625 -96.308594 L 177.140625 -104.066406 L 177.65625 -109.550781 L 178.171875 -111.441406 L 178.6875 -111.085938 L 179.203125 -107.25 L 179.71875 -100.554688 L 180.234375 -91.972656 L 180.75 -81.320312 L 181.265625 -69.667969 L 181.78125 -58.3125 L 182.296875 -47.605469 L 182.808594 -38.28125 L 183.324219 -31.558594 L 183.839844 -27.484375 L 184.355469 -26.453125 L 184.871094 -28.253906 L 185.386719 -33.269531 L 185.902344 -41.203125 L 186.417969 -50.644531 L 186.933594 -61.320312 L 187.449219 -73.03125 L 187.964844 -84.035156 L 188.480469 -94.09375 L 188.996094 -102.441406 L 189.511719 -108.167969 L 190.027344 -111.085938 L 190.539062 -110.9375 L 191.054688 -108.105469 L 191.570312 -102.089844 L 192.085938 -93.621094 L 192.601562 -83.800781 L 193.117188 -72.441406 L 193.632812 -60.789062 L 194.148438 -50.289062 L 194.664062 -40.671875 L 195.179688 -33.121094 L 195.695312 -28.28125 L 196.210938 -26.660156 L 196.726562 -27.691406 L 197.242188 -31.941406 L 197.757812 -39.019531 L 198.269531 -48.371094 L 198.785156 -58.8125 L 199.300781 -70.378906 L 199.816406 -81.410156 L 200.332031 -91.910156 L 200.847656 -100.4375 L 201.363281 -107.105469 L 201.878906 -110.40625 L 202.394531 -110.9375 L 202.910156 -108.84375 L 203.425781 -103.328125 L 203.941406 -95.394531 L 204.457031 -85.539062 L 204.972656 -74.535156 L 205.488281 -63.328125 L 206 -52.265625 L 206.515625 -42.824219 L 207.03125 -34.535156 L 207.546875 -29.34375 L 208.0625 -27.160156 L 208.578125 -27.398438 L 209.09375 -30.878906 L 209.609375 -37.339844 L 210.125 -45.894531 L 210.640625 -56.632812 L 211.15625 -67.691406 L 211.671875 -78.992188 L 212.1875 -89.464844 L 212.703125 -98.636719 L 213.21875 -105.453125 L 213.730469 -109.730469 L 214.246094 -110.851562 L 214.761719 -109.199219 L 215.277344 -104.65625 L 215.792969 -97.429688 L 216.308594 -88.429688 L 216.824219 -77.457031 L 217.339844 -66.277344 L 217.855469 -55.449219 L 218.371094 -45.007812 L 218.886719 -36.867188 L 219.402344 -30.730469 L 219.914062 -27.871094 L 220.433594 -27.484375 L 220.949219 -30.140625 L 221.460938 -35.894531 L 221.976562 -44.003906 L 222.492188 -53.917969 L 223.007812 -64.949219 L 223.523438 -76.128906 L 224.039062 -86.867188 L 224.554688 -96.25 L 225.070312 -103.769531 L 225.585938 -108.550781 L 226.101562 -110.347656 L 226.617188 -109.671875 L 227.132812 -106.070312 L 227.644531 -99.109375 L 228.164062 -90.378906 L 228.679688 -79.730469 L 229.191406 -68.578125 L 229.707031 -57.75 L 230.222656 -47.605469 L 230.738281 -38.753906 L 231.253906 -32.441406 L 231.769531 -28.339844 L 232.285156 -27.542969 L 232.800781 -29.90625 L 233.316406 -35.273438 L 233.832031 -42.738281 L 234.347656 -52.175781 L 234.863281 -62.914062 L 235.375 -73.769531 L 235.890625 -84.773438 L 236.410156 -94.566406 L 236.921875 -102.855469 L 237.4375 -108.371094 L 237.953125 -111.175781 L 238.46875 -111.058594 L 238.984375 -107.457031 " transform="matrix(1,0,0,-1,0,0)"/>
</g>
<g clip-path="url(#clip2)" clip-rule="nonzero">
<path style="fill:none;stroke-width:0.3985;stroke-linecap:butt;stroke-linejoin:miter;stroke:rgb(100%,38.822937%,38.822937%);stroke-opacity:1;stroke-miterlimit:10;" d="M 30.265625 -40.667969 L 30.78125 -48.277344 L 31.292969 -57.273438 L 31.808594 -65.917969 L 32.324219 -74.148438 L 32.839844 -81.433594 L 33.355469 -87.394531 L 33.871094 -92.023438 L 34.386719 -94.707031 L 34.902344 -96.066406 L 35.417969 -96.09375 L 35.933594 -94.324219 L 36.449219 -91.847656 L 36.964844 -88.515625 L 37.480469 -84.53125 L 37.996094 -79.515625 L 38.511719 -74.738281 L 39.023438 -69.488281 L 39.539062 -65.121094 L 40.054688 -61.050781 L 40.570312 -56.949219 L 41.085938 -53.558594 L 41.601562 -50.667969 L 42.117188 -48.867188 L 42.632812 -48.453125 L 43.148438 -48.453125 L 43.664062 -49.605469 L 44.179688 -52.113281 L 44.695312 -55.769531 L 45.210938 -60.046875 L 45.726562 -65.476562 L 46.242188 -70.84375 L 46.753906 -76.152344 L 47.269531 -81.199219 L 47.785156 -85.535156 L 48.300781 -89.132812 L 48.816406 -91.167969 L 49.332031 -92.496094 L 49.847656 -92.464844 L 50.363281 -90.046875 L 50.878906 -86.683594 L 51.394531 -82.585938 L 51.910156 -77.128906 L 52.425781 -71.523438 L 52.9375 -65.769531 L 53.457031 -60.222656 L 53.972656 -55.917969 L 54.484375 -52.082031 L 55 -49.988281 L 55.515625 -48.777344 L 56.03125 -48.808594 L 56.546875 -50.34375 L 57.0625 -52.789062 L 57.578125 -56.359375 L 58.09375 -60.609375 L 58.609375 -65.710938 L 59.125 -69.929688 L 59.640625 -74.914062 L 60.15625 -78.808594 L 60.667969 -82.464844 L 61.1875 -84.648438 L 61.703125 -86.449219 L 62.214844 -86.507812 L 62.730469 -86.539062 L 63.246094 -84.707031 L 63.761719 -82.703125 L 64.277344 -79.042969 L 64.792969 -75.59375 L 65.308594 -71.757812 L 65.824219 -68.011719 L 66.339844 -64.382812 L 66.855469 -61.050781 L 67.371094 -58.570312 L 67.886719 -56.59375 L 68.398438 -55.503906 L 68.914062 -55.238281 L 69.433594 -55.296875 L 69.945312 -56.980469 L 70.460938 -58.75 L 70.976562 -61.257812 L 71.492188 -64.234375 L 72.007812 -67.65625 L 72.523438 -70.609375 L 73.039062 -73.644531 L 73.554688 -76.566406 L 74.070312 -78.75 L 74.585938 -80.460938 L 75.101562 -81.492188 L 75.617188 -81.582031 L 76.128906 -81.609375 L 76.644531 -80.519531 L 77.164062 -78.75 L 77.675781 -76.625 L 78.191406 -73.765625 L 78.707031 -71.199219 L 79.222656 -68.160156 L 79.738281 -65.503906 L 80.253906 -63.027344 L 80.769531 -60.785156 L 81.285156 -59.28125 L 81.800781 -58.777344 L 82.316406 -58.75 L 82.832031 -58.835938 L 83.347656 -60.28125 L 83.859375 -62.082031 L 84.375 -63.910156 L 84.890625 -66.269531 L 85.40625 -68.835938 L 85.921875 -71.316406 L 86.4375 -73.527344 L 86.953125 -75.386719 L 87.46875 -77.007812 L 87.984375 -78.277344 L 88.5 -78.601562 L 89.015625 -78.691406 L 89.53125 -78.21875 L 90.046875 -77.007812 L 90.5625 -75.386719 L 91.078125 -73.558594 L 91.589844 -71.550781 L 92.105469 -69.398438 L 92.621094 -67.363281 L 93.136719 -65.414062 L 93.652344 -63.675781 L 94.167969 -62.644531 L 94.683594 -62.023438 L 95.199219 -61.847656 L 95.714844 -61.789062 L 96.230469 -62.230469 L 96.746094 -63.261719 L 97.261719 -64.589844 L 97.777344 -66.300781 L 98.292969 -68.101562 L 98.808594 -69.898438 L 99.320312 -71.757812 L 99.835938 -73.46875 L 100.351562 -74.679688 L 100.867188 -75.5625 L 101.382812 -76.125 L 101.898438 -76.152344 L 102.414062 -76.152344 L 102.929688 -75.417969 L 103.445312 -74.5625 L 103.960938 -73.292969 L 104.476562 -71.609375 L 104.992188 -69.691406 L 105.507812 -68.160156 L 106.023438 -66.714844 L 106.539062 -65.679688 L 107.050781 -64.441406 L 107.566406 -63.851562 L 108.082031 -63.882812 L 108.597656 -63.792969 L 109.113281 -63.851562 L 109.628906 -64.472656 L 110.144531 -65.859375 L 110.660156 -67.007812 L 111.175781 -68.246094 L 111.691406 -69.488281 L 112.207031 -70.875 L 112.722656 -71.90625 L 113.238281 -73.113281 L 113.753906 -73.644531 L 114.269531 -74.03125 L 114.78125 -74.117188 L 115.296875 -74.117188 L 115.8125 -74.03125 L 116.328125 -73.234375 L 116.84375 -72.199219 L 117.359375 -71.167969 L 117.875 -69.871094 L 118.390625 -68.835938 L 118.90625 -67.835938 L 119.421875 -66.800781 L 119.9375 -66.125 L 120.96875 -65.710938 L 121.484375 -65.742188 L 122 -65.742188 L 122.511719 -65.976562 L 123.027344 -66.742188 L 123.542969 -67.863281 L 124.058594 -68.453125 L 124.574219 -69.632812 L 125.089844 -70.488281 L 125.605469 -71.199219 L 126.121094 -71.875 L 126.636719 -72.140625 L 127.152344 -72.523438 L 127.667969 -72.585938 L 128.183594 -72.585938 L 128.699219 -72.496094 L 129.214844 -72.140625 L 129.730469 -71.402344 L 130.242188 -70.726562 L 130.757812 -69.664062 L 131.273438 -68.925781 L 131.789062 -68.160156 L 132.304688 -67.71875 L 132.820312 -66.859375 L 133.335938 -66.832031 L 133.851562 -66.714844 L 134.367188 -66.714844 L 134.882812 -66.683594 L 135.398438 -66.773438 L 135.914062 -67.835938 L 136.425781 -68.042969 L 136.945312 -68.957031 L 137.460938 -69.605469 L 137.972656 -70.195312 L 138.488281 -71.050781 L 139.003906 -71.199219 L 139.519531 -71.730469 L 140.035156 -71.789062 L 141.066406 -71.789062 L 141.582031 -71.757812 L 142.097656 -71.199219 L 142.613281 -70.695312 L 143.128906 -69.839844 L 143.644531 -69.28125 L 144.15625 -68.511719 L 144.675781 -68.101562 L 145.191406 -67.570312 L 145.703125 -67.304688 L 146.21875 -67.066406 L 146.734375 -66.949219 L 147.25 -67.097656 L 147.765625 -67.214844 L 148.28125 -67.71875 L 148.796875 -68.367188 L 149.3125 -69.191406 L 149.828125 -69.632812 L 150.34375 -70.253906 L 150.859375 -70.933594 L 151.375 -71.257812 L 151.886719 -71.464844 L 152.402344 -71.582031 L 152.921875 -71.582031 L 153.433594 -71.550781 L 153.949219 -71.402344 L 154.464844 -71.050781 L 154.980469 -70.488281 L 155.496094 -69.632812 L 156.011719 -69.074219 L 156.527344 -68.394531 L 157.042969 -68.011719 L 157.558594 -67.511719 L 158.074219 -67.390625 L 158.589844 -67.332031 L 159.105469 -67.332031 L 159.617188 -67.363281 L 160.132812 -67.628906 L 160.652344 -68.042969 L 161.164062 -68.75 L 161.679688 -69.398438 L 162.195312 -69.839844 L 162.710938 -70.429688 L 163.742188 -71.078125 L 164.257812 -71.257812 L 165.289062 -71.375 L 165.804688 -71.285156 L 166.320312 -71.078125 L 166.835938 -70.578125 L 167.347656 -70.164062 L 167.863281 -69.488281 L 168.378906 -69.042969 L 168.894531 -68.542969 L 169.410156 -68.277344 L 169.925781 -67.894531 L 170.441406 -67.777344 L 170.957031 -67.746094 L 171.472656 -67.746094 L 171.988281 -67.777344 L 172.503906 -68.042969 L 173.019531 -68.511719 L 173.535156 -69.164062 L 174.050781 -69.488281 L 174.566406 -70.195312 L 175.078125 -70.34375 L 175.59375 -70.992188 L 176.109375 -71.109375 L 177.140625 -71.109375 L 177.65625 -71.140625 L 178.171875 -71.078125 L 178.6875 -70.933594 L 179.203125 -70.195312 L 179.71875 -69.664062 L 180.234375 -69.28125 L 180.75 -69.042969 L 181.265625 -68.335938 L 181.78125 -68.070312 L 182.296875 -67.835938 L 182.808594 -67.777344 L 183.839844 -67.777344 L 184.355469 -67.835938 L 184.871094 -68.1875 L 185.386719 -68.601562 L 185.902344 -69.25 L 186.417969 -69.605469 L 186.933594 -70.136719 L 187.449219 -70.402344 L 187.964844 -70.609375 L 188.480469 -70.902344 L 188.996094 -71.078125 L 189.511719 -71.078125 L 190.027344 -71.140625 L 190.539062 -71.050781 L 191.054688 -70.609375 L 191.570312 -69.988281 L 192.085938 -69.515625 L 192.601562 -69.074219 L 193.117188 -68.75 L 193.632812 -68.1875 L 194.148438 -68.011719 L 194.664062 -67.921875 L 195.179688 -67.6875 L 196.210938 -67.6875 L 196.726562 -67.804688 L 197.242188 -68.277344 L 197.757812 -68.835938 L 198.269531 -69.339844 L 198.785156 -69.605469 L 199.300781 -70.195312 L 199.816406 -70.578125 L 200.332031 -70.902344 L 200.847656 -71.050781 L 201.363281 -71.109375 L 202.394531 -71.109375 L 202.910156 -70.992188 L 203.425781 -70.195312 L 203.941406 -70.019531 L 204.457031 -69.308594 L 204.972656 -69.132812 L 205.488281 -68.511719 L 206 -68.101562 L 206.515625 -68.101562 L 207.03125 -68.011719 L 207.546875 -67.953125 L 208.0625 -67.921875 L 208.578125 -67.980469 L 209.09375 -68.160156 L 209.609375 -68.453125 L 210.125 -68.957031 L 210.640625 -69.339844 L 211.15625 -69.871094 L 211.671875 -70.078125 L 212.1875 -70.578125 L 212.703125 -70.8125 L 213.21875 -70.8125 L 213.730469 -71.078125 L 214.246094 -71.078125 L 214.761719 -70.992188 L 215.277344 -70.753906 L 215.792969 -70.195312 L 216.308594 -69.605469 L 216.824219 -69.398438 L 217.339844 -68.691406 L 217.855469 -68.660156 L 218.371094 -68.1875 L 218.886719 -67.894531 L 219.402344 -67.894531 L 219.914062 -67.835938 L 220.433594 -67.804688 L 220.949219 -67.921875 L 221.460938 -68.277344 L 221.976562 -68.691406 L 222.492188 -69.28125 L 223.007812 -69.457031 L 223.523438 -69.988281 L 224.039062 -70.253906 L 224.554688 -70.578125 L 225.070312 -70.753906 L 225.585938 -70.933594 L 226.101562 -71.050781 L 226.617188 -71.050781 L 227.132812 -70.960938 L 227.644531 -70.753906 L 228.164062 -70.019531 L 228.679688 -69.753906 L 229.191406 -69.308594 L 229.707031 -68.898438 L 230.222656 -68.425781 L 230.738281 -68.335938 L 231.253906 -68.160156 L 231.769531 -68.042969 L 232.285156 -67.921875 L 232.800781 -68.070312 L 233.316406 -68.394531 L 233.832031 -68.75 L 234.347656 -69.398438 L 234.863281 -69.515625 L 235.375 -70.019531 L 235.890625 -70.3125 L 236.410156 -70.84375 L 236.921875 -71.464844 L 237.4375 -71.464844 L 237.953125 -71.640625 L 238.46875 -71.933594 L 238.984375 -71.667969 " transform="matrix(1,0,0,-1,0,0)"/>
</g>
<path style="fill:none;stroke-width:0.19925;stroke-linecap:butt;stroke-linejoin:miter;stroke:rgb(49.803162%,49.803162%,49.803162%);stroke-opacity:1;stroke-miterlimit:10;" d="M 30.265625 -124.515625 L 30.265625 -120.265625 M 55 -124.515625 L 55 -120.265625 M 79.738281 -124.515625 L 79.738281 -120.265625 M 104.476562 -124.515625 L 104.476562 -120.265625 M 129.214844 -124.515625 L 129.214844 -120.265625 M 153.949219 -124.515625 L 153.949219 -120.265625 M 178.6875 -124.515625 L 178.6875 -120.265625 M 203.425781 -124.515625 L 203.425781 -120.265625 M 228.164062 -124.515625 L 228.164062 -120.265625 M 30.265625 -1.976562 L 30.265625 -6.226562 M 55 -1.976562 L 55 -6.226562 M 79.738281 -1.976562 L 79.738281 -6.226562 M 104.476562 -1.976562 L 104.476562 -6.226562 M 129.214844 -1.976562 L 129.214844 -6.226562 M 153.949219 -1.976562 L 153.949219 -6.226562 M 178.6875 -1.976562 L 178.6875 -6.226562 M 203.425781 -1.976562 L 203.425781 -6.226562 M 228.164062 -1.976562 L 228.164062 -6.226562 " transform="matrix(1,0,0,-1,0,0)"/>
<path style="fill:none;stroke-width:0.19925;stroke-linecap:butt;stroke-linejoin:miter;stroke:rgb(49.803162%,49.803162%,49.803162%);stroke-opacity:1;stroke-miterlimit:10;" d="M 30.265625 -106.226562 L 34.515625 -106.226562 M 30.265625 -69.648438 L 34.515625 -69.648438 M 30.265625 -33.070312 L 34.515625 -33.070312 M 238.984375 -106.226562 L 234.730469 -106.226562 M 238.984375 -69.648438 L 234.730469 -69.648438 M 238.984375 -33.070312 L 234.730469 -33.070312 " transform="matrix(1,0,0,-1,0,0)"/>
<path style="fill:none;stroke-width:0.3985;stroke-linecap:butt;stroke-linejoin:miter;stroke:rgb(0%,0%,0%);stroke-opacity:1;stroke-miterlimit:10;" d="M 30.265625 -1.976562 L 238.984375 -1.976562 L 238.984375 -124.515625 L 30.265625 -124.515625 Z M 30.265625 -1.976562 " transform="matrix(1,0,0,-1,0,0)"/>
<path style=" stroke:none;fill-rule:nonzero;fill:rgb(0%,0%,0%);fill-opacity:1;" d="M 31.871094 130.3125 C 31.871094 129.546875 31.777344 128.984375 31.464844 128.5 C 31.246094 128.1875 30.808594 127.90625 30.261719 127.90625 C 28.636719 127.90625 28.636719 129.8125 28.636719 130.3125 C 28.636719 130.8125 28.636719 132.671875 30.261719 132.671875 C 31.871094 132.671875 31.871094 130.8125 31.871094 130.3125 Z M 30.261719 132.46875 C 29.933594 132.46875 29.511719 132.28125 29.371094 131.71875 C 29.277344 131.3125 29.277344 130.734375 29.277344 130.21875 C 29.277344 129.703125 29.277344 129.171875 29.371094 128.796875 C 29.527344 128.25 29.964844 128.09375 30.261719 128.09375 C 30.636719 128.09375 30.996094 128.328125 31.121094 128.734375 C 31.230469 129.109375 31.246094 129.609375 31.246094 130.21875 C 31.246094 130.734375 31.246094 131.25 31.152344 131.6875 C 31.011719 132.328125 30.542969 132.46875 30.261719 132.46875 Z M 30.261719 132.46875 "/>
<path style=" stroke:none;fill-rule:nonzero;fill:rgb(0%,0%,0%);fill-opacity:1;" d="M 56.53125 131.265625 L 56.296875 131.265625 C 56.28125 131.421875 56.203125 131.828125 56.109375 131.890625 C 56.0625 131.9375 55.53125 131.9375 55.421875 131.9375 L 54.140625 131.9375 C 54.875 131.296875 55.125 131.09375 55.53125 130.765625 C 56.046875 130.359375 56.53125 129.921875 56.53125 129.265625 C 56.53125 128.421875 55.796875 127.90625 54.90625 127.90625 C 54.046875 127.90625 53.453125 128.515625 53.453125 129.15625 C 53.453125 129.5 53.75 129.546875 53.828125 129.546875 C 53.984375 129.546875 54.1875 129.421875 54.1875 129.171875 C 54.1875 129.046875 54.140625 128.796875 53.78125 128.796875 C 54 128.3125 54.46875 128.15625 54.796875 128.15625 C 55.5 128.15625 55.859375 128.703125 55.859375 129.265625 C 55.859375 129.875 55.421875 130.34375 55.203125 130.59375 L 53.53125 132.265625 C 53.453125 132.328125 53.453125 132.34375 53.453125 132.53125 L 56.328125 132.53125 Z M 56.53125 131.265625 "/>
<path style=" stroke:none;fill-rule:nonzero;fill:rgb(0%,0%,0%);fill-opacity:1;" d="M 81.441406 131.390625 L 81.441406 131.140625 L 80.660156 131.140625 L 80.660156 128.03125 C 80.660156 127.890625 80.660156 127.828125 80.519531 127.828125 C 80.425781 127.828125 80.394531 127.828125 80.332031 127.9375 L 78.019531 131.140625 L 78.019531 131.390625 L 80.082031 131.390625 L 80.082031 131.953125 C 80.082031 132.203125 80.082031 132.28125 79.503906 132.28125 L 79.316406 132.28125 L 79.316406 132.53125 C 79.675781 132.515625 80.113281 132.5 80.363281 132.5 C 80.628906 132.5 81.066406 132.515625 81.425781 132.53125 L 81.425781 132.28125 L 81.238281 132.28125 C 80.660156 132.28125 80.660156 132.203125 80.660156 131.953125 L 80.660156 131.390625 Z M 80.128906 128.59375 L 80.128906 131.140625 L 78.285156 131.140625 Z M 80.128906 128.59375 "/>
<path style=" stroke:none;fill-rule:nonzero;fill:rgb(0%,0%,0%);fill-opacity:1;" d="M 103.535156 130.25 C 103.535156 129.6875 103.582031 129.171875 103.847656 128.734375 C 104.082031 128.359375 104.457031 128.109375 104.910156 128.109375 C 105.113281 128.109375 105.394531 128.15625 105.535156 128.34375 C 105.363281 128.359375 105.207031 128.484375 105.207031 128.6875 C 105.207031 128.859375 105.332031 129.015625 105.535156 129.015625 C 105.753906 129.015625 105.878906 128.875 105.878906 128.671875 C 105.878906 128.265625 105.582031 127.90625 104.894531 127.90625 C 103.894531 127.90625 102.863281 128.828125 102.863281 130.328125 C 102.863281 132.125 103.707031 132.671875 104.488281 132.671875 C 105.332031 132.671875 106.066406 132.015625 106.066406 131.109375 C 106.066406 130.21875 105.363281 129.5625 104.550781 129.5625 C 103.988281 129.5625 103.691406 129.9375 103.535156 130.25 Z M 104.488281 132.453125 C 104.128906 132.453125 103.863281 132.25 103.707031 131.9375 C 103.613281 131.734375 103.550781 131.375 103.550781 130.96875 C 103.550781 130.28125 103.957031 129.765625 104.519531 129.765625 C 104.832031 129.765625 105.050781 129.890625 105.222656 130.140625 C 105.394531 130.40625 105.394531 130.703125 105.394531 131.109375 C 105.394531 131.5 105.394531 131.796875 105.207031 132.078125 C 105.050781 132.3125 104.816406 132.453125 104.488281 132.453125 Z M 104.488281 132.453125 "/>
<path style=" stroke:none;fill-rule:nonzero;fill:rgb(0%,0%,0%);fill-opacity:1;" d="M 129.695312 130.015625 C 130.242188 129.75 130.585938 129.421875 130.585938 128.9375 C 130.585938 128.265625 129.882812 127.90625 129.210938 127.90625 C 128.445312 127.90625 127.820312 128.40625 127.820312 129.0625 C 127.820312 129.390625 127.976562 129.625 128.101562 129.765625 C 128.226562 129.921875 128.273438 129.953125 128.679688 130.1875 C 128.289062 130.359375 127.601562 130.734375 127.601562 131.46875 C 127.601562 132.234375 128.398438 132.671875 129.195312 132.671875 C 130.085938 132.671875 130.804688 132.109375 130.804688 131.359375 C 130.804688 130.890625 130.539062 130.5 130.132812 130.265625 C 130.039062 130.203125 129.804688 130.078125 129.695312 130.015625 Z M 128.570312 129.359375 C 128.382812 129.25 128.195312 129.0625 128.195312 128.796875 C 128.195312 128.359375 128.695312 128.109375 129.195312 128.109375 C 129.742188 128.109375 130.226562 128.453125 130.226562 128.9375 C 130.226562 129.5625 129.492188 129.875 129.492188 129.875 C 129.476562 129.875 129.460938 129.875 129.414062 129.84375 Z M 128.898438 130.328125 L 129.867188 130.875 C 130.039062 130.984375 130.382812 131.1875 130.382812 131.59375 C 130.382812 132.125 129.804688 132.453125 129.210938 132.453125 C 128.570312 132.453125 128.023438 132.03125 128.023438 131.46875 C 128.023438 130.953125 128.398438 130.546875 128.898438 130.328125 Z M 128.898438 130.328125 "/>
<path style=" stroke:none;fill-rule:nonzero;fill:rgb(0%,0%,0%);fill-opacity:1;" d="M 152.308594 128.09375 C 152.308594 127.90625 152.308594 127.90625 152.105469 127.90625 C 151.652344 128.34375 151.027344 128.34375 150.746094 128.34375 L 150.746094 128.59375 C 150.902344 128.59375 151.371094 128.59375 151.746094 128.40625 L 151.746094 131.953125 C 151.746094 132.1875 151.746094 132.28125 151.058594 132.28125 L 150.792969 132.28125 L 150.792969 132.53125 C 150.917969 132.53125 151.777344 132.5 152.027344 132.5 C 152.246094 132.5 153.121094 132.53125 153.277344 132.53125 L 153.277344 132.28125 L 153.011719 132.28125 C 152.308594 132.28125 152.308594 132.1875 152.308594 131.953125 Z M 152.308594 128.09375 "/>
<path style=" stroke:none;fill-rule:nonzero;fill:rgb(0%,0%,0%);fill-opacity:1;" d="M 157.542969 130.3125 C 157.542969 129.546875 157.449219 128.984375 157.136719 128.5 C 156.917969 128.1875 156.480469 127.90625 155.933594 127.90625 C 154.308594 127.90625 154.308594 129.8125 154.308594 130.3125 C 154.308594 130.8125 154.308594 132.671875 155.933594 132.671875 C 157.542969 132.671875 157.542969 130.8125 157.542969 130.3125 Z M 155.933594 132.46875 C 155.605469 132.46875 155.183594 132.28125 155.042969 131.71875 C 154.949219 131.3125 154.949219 130.734375 154.949219 130.21875 C 154.949219 129.703125 154.949219 129.171875 155.042969 128.796875 C 155.199219 128.25 155.636719 128.09375 155.933594 128.09375 C 156.308594 128.09375 156.667969 128.328125 156.792969 128.734375 C 156.902344 129.109375 156.917969 129.609375 156.917969 130.21875 C 156.917969 130.734375 156.917969 131.25 156.824219 131.6875 C 156.683594 132.328125 156.214844 132.46875 155.933594 132.46875 Z M 155.933594 132.46875 "/>
<path style=" stroke:none;fill-rule:nonzero;fill:rgb(0%,0%,0%);fill-opacity:1;" d="M 177.042969 128.09375 C 177.042969 127.90625 177.042969 127.90625 176.839844 127.90625 C 176.386719 128.34375 175.761719 128.34375 175.480469 128.34375 L 175.480469 128.59375 C 175.636719 128.59375 176.105469 128.59375 176.480469 128.40625 L 176.480469 131.953125 C 176.480469 132.1875 176.480469 132.28125 175.792969 132.28125 L 175.527344 132.28125 L 175.527344 132.53125 C 175.652344 132.53125 176.511719 132.5 176.761719 132.5 C 176.980469 132.5 177.855469 132.53125 178.011719 132.53125 L 178.011719 132.28125 L 177.746094 132.28125 C 177.042969 132.28125 177.042969 132.1875 177.042969 131.953125 Z M 177.042969 128.09375 "/>
<path style=" stroke:none;fill-rule:nonzero;fill:rgb(0%,0%,0%);fill-opacity:1;" d="M 182.203125 131.265625 L 181.96875 131.265625 C 181.953125 131.421875 181.875 131.828125 181.78125 131.890625 C 181.734375 131.9375 181.203125 131.9375 181.09375 131.9375 L 179.8125 131.9375 C 180.546875 131.296875 180.796875 131.09375 181.203125 130.765625 C 181.71875 130.359375 182.203125 129.921875 182.203125 129.265625 C 182.203125 128.421875 181.46875 127.90625 180.578125 127.90625 C 179.71875 127.90625 179.125 128.515625 179.125 129.15625 C 179.125 129.5 179.421875 129.546875 179.5 129.546875 C 179.65625 129.546875 179.859375 129.421875 179.859375 129.171875 C 179.859375 129.046875 179.8125 128.796875 179.453125 128.796875 C 179.671875 128.3125 180.140625 128.15625 180.46875 128.15625 C 181.171875 128.15625 181.53125 128.703125 181.53125 129.265625 C 181.53125 129.875 181.09375 130.34375 180.875 130.59375 L 179.203125 132.265625 C 179.125 132.328125 179.125 132.34375 179.125 132.53125 L 182 132.53125 Z M 182.203125 131.265625 "/>
<path style=" stroke:none;fill-rule:nonzero;fill:rgb(0%,0%,0%);fill-opacity:1;" d="M 201.78125 128.09375 C 201.78125 127.90625 201.78125 127.90625 201.578125 127.90625 C 201.125 128.34375 200.5 128.34375 200.21875 128.34375 L 200.21875 128.59375 C 200.375 128.59375 200.84375 128.59375 201.21875 128.40625 L 201.21875 131.953125 C 201.21875 132.1875 201.21875 132.28125 200.53125 132.28125 L 200.265625 132.28125 L 200.265625 132.53125 C 200.390625 132.53125 201.25 132.5 201.5 132.5 C 201.71875 132.5 202.59375 132.53125 202.75 132.53125 L 202.75 132.28125 L 202.484375 132.28125 C 201.78125 132.28125 201.78125 132.1875 201.78125 131.953125 Z M 201.78125 128.09375 "/>
<path style=" stroke:none;fill-rule:nonzero;fill:rgb(0%,0%,0%);fill-opacity:1;" d="M 207.113281 131.390625 L 207.113281 131.140625 L 206.332031 131.140625 L 206.332031 128.03125 C 206.332031 127.890625 206.332031 127.828125 206.191406 127.828125 C 206.097656 127.828125 206.066406 127.828125 206.003906 127.9375 L 203.691406 131.140625 L 203.691406 131.390625 L 205.753906 131.390625 L 205.753906 131.953125 C 205.753906 132.203125 205.753906 132.28125 205.175781 132.28125 L 204.988281 132.28125 L 204.988281 132.53125 C 205.347656 132.515625 205.785156 132.5 206.035156 132.5 C 206.300781 132.5 206.738281 132.515625 207.097656 132.53125 L 207.097656 132.28125 L 206.910156 132.28125 C 206.332031 132.28125 206.332031 132.203125 206.332031 131.953125 L 206.332031 131.390625 Z M 205.800781 128.59375 L 205.800781 131.140625 L 203.957031 131.140625 Z M 205.800781 128.59375 "/>
<path style=" stroke:none;fill-rule:nonzero;fill:rgb(0%,0%,0%);fill-opacity:1;" d="M 226.519531 128.09375 C 226.519531 127.90625 226.519531 127.90625 226.316406 127.90625 C 225.863281 128.34375 225.238281 128.34375 224.957031 128.34375 L 224.957031 128.59375 C 225.113281 128.59375 225.582031 128.59375 225.957031 128.40625 L 225.957031 131.953125 C 225.957031 132.1875 225.957031 132.28125 225.269531 132.28125 L 225.003906 132.28125 L 225.003906 132.53125 C 225.128906 132.53125 225.988281 132.5 226.238281 132.5 C 226.457031 132.5 227.332031 132.53125 227.488281 132.53125 L 227.488281 132.28125 L 227.222656 132.28125 C 226.519531 132.28125 226.519531 132.1875 226.519531 131.953125 Z M 226.519531 128.09375 "/>
<path style=" stroke:none;fill-rule:nonzero;fill:rgb(0%,0%,0%);fill-opacity:1;" d="M 229.207031 130.25 C 229.207031 129.6875 229.253906 129.171875 229.519531 128.734375 C 229.753906 128.359375 230.128906 128.109375 230.582031 128.109375 C 230.785156 128.109375 231.066406 128.15625 231.207031 128.34375 C 231.035156 128.359375 230.878906 128.484375 230.878906 128.6875 C 230.878906 128.859375 231.003906 129.015625 231.207031 129.015625 C 231.425781 129.015625 231.550781 128.875 231.550781 128.671875 C 231.550781 128.265625 231.253906 127.90625 230.566406 127.90625 C 229.566406 127.90625 228.535156 128.828125 228.535156 130.328125 C 228.535156 132.125 229.378906 132.671875 230.160156 132.671875 C 231.003906 132.671875 231.738281 132.015625 231.738281 131.109375 C 231.738281 130.21875 231.035156 129.5625 230.222656 129.5625 C 229.660156 129.5625 229.363281 129.9375 229.207031 130.25 Z M 230.160156 132.453125 C 229.800781 132.453125 229.535156 132.25 229.378906 131.9375 C 229.285156 131.734375 229.222656 131.375 229.222656 130.96875 C 229.222656 130.28125 229.628906 129.765625 230.191406 129.765625 C 230.503906 129.765625 230.722656 129.890625 230.894531 130.140625 C 231.066406 130.40625 231.066406 130.703125 231.066406 131.109375 C 231.066406 131.5 231.066406 131.796875 230.878906 132.078125 C 230.722656 132.3125 230.488281 132.453125 230.160156 132.453125 Z M 230.160156 132.453125 "/>
<path style=" stroke:none;fill-rule:nonzero;fill:rgb(0%,0%,0%);fill-opacity:1;" d="M 17.761719 106.480469 C 17.871094 106.480469 18.042969 106.480469 18.042969 106.324219 C 18.042969 106.136719 17.871094 106.136719 17.761719 106.136719 L 13.605469 106.136719 C 13.496094 106.136719 13.324219 106.136719 13.324219 106.308594 C 13.324219 106.480469 13.480469 106.480469 13.605469 106.480469 Z M 17.761719 106.480469 "/>
<path style=" stroke:none;fill-rule:nonzero;fill:rgb(0%,0%,0%);fill-opacity:1;" d="M 22.316406 106.792969 L 22.082031 106.792969 C 22.066406 106.949219 21.988281 107.355469 21.894531 107.417969 C 21.847656 107.464844 21.316406 107.464844 21.207031 107.464844 L 19.925781 107.464844 C 20.660156 106.824219 20.910156 106.621094 21.316406 106.292969 C 21.832031 105.886719 22.316406 105.449219 22.316406 104.792969 C 22.316406 103.949219 21.582031 103.433594 20.691406 103.433594 C 19.832031 103.433594 19.238281 104.042969 19.238281 104.683594 C 19.238281 105.027344 19.535156 105.074219 19.613281 105.074219 C 19.769531 105.074219 19.972656 104.949219 19.972656 104.699219 C 19.972656 104.574219 19.925781 104.324219 19.566406 104.324219 C 19.785156 103.839844 20.253906 103.683594 20.582031 103.683594 C 21.285156 103.683594 21.644531 104.230469 21.644531 104.792969 C 21.644531 105.402344 21.207031 105.871094 20.988281 106.121094 L 19.316406 107.792969 C 19.238281 107.855469 19.238281 107.871094 19.238281 108.058594 L 22.113281 108.058594 Z M 22.316406 106.792969 "/>
<path style=" stroke:none;fill-rule:nonzero;fill:rgb(0%,0%,0%);fill-opacity:1;" d="M 26.367188 105.839844 C 26.367188 105.074219 26.273438 104.511719 25.960938 104.027344 C 25.742188 103.714844 25.304688 103.433594 24.757812 103.433594 C 23.132812 103.433594 23.132812 105.339844 23.132812 105.839844 C 23.132812 106.339844 23.132812 108.199219 24.757812 108.199219 C 26.367188 108.199219 26.367188 106.339844 26.367188 105.839844 Z M 24.757812 107.996094 C 24.429688 107.996094 24.007812 107.808594 23.867188 107.246094 C 23.773438 106.839844 23.773438 106.261719 23.773438 105.746094 C 23.773438 105.230469 23.773438 104.699219 23.867188 104.324219 C 24.023438 103.777344 24.460938 103.621094 24.757812 103.621094 C 25.132812 103.621094 25.492188 103.855469 25.617188 104.261719 C 25.726562 104.636719 25.742188 105.136719 25.742188 105.746094 C 25.742188 106.261719 25.742188 106.777344 25.648438 107.214844 C 25.507812 107.855469 25.039062 107.996094 24.757812 107.996094 Z M 24.757812 107.996094 "/>
<path style=" stroke:none;fill-rule:nonzero;fill:rgb(0%,0%,0%);fill-opacity:1;" d="M 26.367188 69.675781 C 26.367188 68.910156 26.273438 68.347656 25.960938 67.863281 C 25.742188 67.550781 25.304688 67.269531 24.757812 67.269531 C 23.132812 67.269531 23.132812 69.175781 23.132812 69.675781 C 23.132812 70.175781 23.132812 72.035156 24.757812 72.035156 C 26.367188 72.035156 26.367188 70.175781 26.367188 69.675781 Z M 24.757812 71.832031 C 24.429688 71.832031 24.007812 71.644531 23.867188 71.082031 C 23.773438 70.675781 23.773438 70.097656 23.773438 69.582031 C 23.773438 69.066406 23.773438 68.535156 23.867188 68.160156 C 24.023438 67.613281 24.460938 67.457031 24.757812 67.457031 C 25.132812 67.457031 25.492188 67.691406 25.617188 68.097656 C 25.726562 68.472656 25.742188 68.972656 25.742188 69.582031 C 25.742188 70.097656 25.742188 70.613281 25.648438 71.050781 C 25.507812 71.691406 25.039062 71.832031 24.757812 71.832031 Z M 24.757812 71.832031 "/>
<path style=" stroke:none;fill-rule:nonzero;fill:rgb(0%,0%,0%);fill-opacity:1;" d="M 22.316406 34.050781 L 22.082031 34.050781 C 22.066406 34.207031 21.988281 34.613281 21.894531 34.675781 C 21.847656 34.722656 21.316406 34.722656 21.207031 34.722656 L 19.925781 34.722656 C 20.660156 34.082031 20.910156 33.878906 21.316406 33.550781 C 21.832031 33.144531 22.316406 32.707031 22.316406 32.050781 C 22.316406 31.207031 21.582031 30.691406 20.691406 30.691406 C 19.832031 30.691406 19.238281 31.300781 19.238281 31.941406 C 19.238281 32.285156 19.535156 32.332031 19.613281 32.332031 C 19.769531 32.332031 19.972656 32.207031 19.972656 31.957031 C 19.972656 31.832031 19.925781 31.582031 19.566406 31.582031 C 19.785156 31.097656 20.253906 30.941406 20.582031 30.941406 C 21.285156 30.941406 21.644531 31.488281 21.644531 32.050781 C 21.644531 32.660156 21.207031 33.128906 20.988281 33.378906 L 19.316406 35.050781 C 19.238281 35.113281 19.238281 35.128906 19.238281 35.316406 L 22.113281 35.316406 Z M 22.316406 34.050781 "/>
<path style=" stroke:none;fill-rule:nonzero;fill:rgb(0%,0%,0%);fill-opacity:1;" d="M 26.367188 33.097656 C 26.367188 32.332031 26.273438 31.769531 25.960938 31.285156 C 25.742188 30.972656 25.304688 30.691406 24.757812 30.691406 C 23.132812 30.691406 23.132812 32.597656 23.132812 33.097656 C 23.132812 33.597656 23.132812 35.457031 24.757812 35.457031 C 26.367188 35.457031 26.367188 33.597656 26.367188 33.097656 Z M 24.757812 35.253906 C 24.429688 35.253906 24.007812 35.066406 23.867188 34.503906 C 23.773438 34.097656 23.773438 33.519531 23.773438 33.003906 C 23.773438 32.488281 23.773438 31.957031 23.867188 31.582031 C 24.023438 31.035156 24.460938 30.878906 24.757812 30.878906 C 25.132812 30.878906 25.492188 31.113281 25.617188 31.519531 C 25.726562 31.894531 25.742188 32.394531 25.742188 33.003906 C 25.742188 33.519531 25.742188 34.035156 25.648438 34.472656 C 25.507812 35.113281 25.039062 35.253906 24.757812 35.253906 Z M 24.757812 35.253906 "/>
<path style=" stroke:none;fill-rule:nonzero;fill:rgb(0%,0%,0%);fill-opacity:1;" d="M 118.53125 138.675781 L 118.578125 139.660156 L 118.578125 144.019531 L 118.484375 145.066406 C 118.671875 145.003906 118.796875 144.957031 118.859375 144.925781 C 118.921875 144.878906 119 144.832031 119.0625 144.785156 L 119.0625 144.144531 L 120.703125 144.144531 L 120.703125 144.785156 C 120.90625 144.722656 121.09375 144.628906 121.25 144.519531 L 121.21875 143.863281 L 121.21875 139.410156 L 121.40625 139.269531 C 121.484375 139.222656 121.53125 139.191406 121.515625 139.175781 C 121.515625 139.144531 121.5 139.128906 121.4375 139.082031 L 120.84375 138.675781 L 120.578125 139.082031 L 119.1875 139.082031 Z M 119.0625 143.925781 L 119.0625 141.613281 L 120.703125 141.613281 L 120.703125 143.925781 Z M 119.0625 141.378906 L 119.0625 139.269531 L 120.703125 139.269531 L 120.703125 141.378906 Z M 124.3125 140.128906 L 122.15625 140.128906 L 121.453125 140.097656 L 121.734375 140.410156 C 121.984375 140.363281 122.1875 140.332031 122.34375 140.332031 L 124.3125 140.332031 L 124.3125 144.863281 C 124.3125 144.972656 124.296875 145.050781 124.234375 145.128906 C 124.171875 145.175781 124.046875 145.191406 123.828125 145.175781 C 123.625 145.144531 123.421875 145.113281 123.25 145.082031 C 123.0625 145.066406 122.90625 145.035156 122.796875 145.019531 L 122.765625 145.113281 L 123.15625 145.269531 C 123.421875 145.363281 123.609375 145.472656 123.6875 145.535156 C 123.796875 145.628906 123.859375 145.707031 123.890625 145.800781 C 123.9375 145.910156 123.96875 146.019531 123.984375 146.144531 C 124.40625 145.988281 124.671875 145.847656 124.75 145.691406 C 124.828125 145.535156 124.875 145.347656 124.875 145.113281 L 124.875 140.332031 L 126.34375 140.332031 C 126.40625 140.332031 126.453125 140.332031 126.46875 140.300781 C 126.46875 140.269531 126.46875 140.238281 126.421875 140.207031 L 125.75 139.550781 L 125.296875 140.128906 L 124.875 140.128906 L 124.875 138.316406 L 125.09375 138.160156 C 125.15625 138.113281 125.203125 138.082031 125.203125 138.082031 C 125.1875 138.050781 125.15625 138.035156 125.078125 137.988281 L 124.25 137.660156 L 124.3125 138.753906 Z M 122.015625 141.410156 L 122.296875 141.785156 C 122.34375 141.863281 122.40625 141.972656 122.46875 142.128906 C 122.53125 142.285156 122.578125 142.457031 122.609375 142.613281 C 122.65625 142.769531 122.671875 142.925781 122.671875 143.050781 C 122.671875 143.191406 122.703125 143.269531 122.71875 143.332031 C 122.75 143.363281 122.796875 143.394531 122.859375 143.410156 C 122.953125 143.425781 123.046875 143.378906 123.140625 143.253906 C 123.21875 143.144531 123.28125 143.019531 123.28125 142.894531 C 123.3125 142.628906 123.21875 142.378906 123.015625 142.144531 C 122.8125 141.925781 122.5 141.660156 122.0625 141.347656 Z M 122.015625 141.410156 "/>
<path style=" stroke:none;fill-rule:nonzero;fill:rgb(0%,0%,0%);fill-opacity:1;" d="M 127.636719 144.160156 L 127.574219 146.082031 C 127.808594 146.035156 128.027344 145.957031 128.183594 145.847656 L 128.152344 144.378906 L 128.152344 139.535156 L 128.433594 139.347656 C 128.480469 139.316406 128.511719 139.269531 128.511719 139.253906 C 128.511719 139.222656 128.480469 139.191406 128.449219 139.175781 L 127.574219 138.816406 L 127.636719 140.457031 Z M 128.433594 137.863281 C 128.667969 138.175781 128.824219 138.394531 128.855469 138.472656 C 128.902344 138.550781 128.949219 138.660156 129.011719 138.816406 C 129.074219 138.957031 129.105469 139.082031 129.105469 139.175781 C 129.121094 139.269531 129.136719 139.347656 129.167969 139.394531 C 129.199219 139.441406 129.246094 139.457031 129.324219 139.472656 C 129.386719 139.472656 129.464844 139.441406 129.542969 139.363281 C 129.605469 139.300781 129.667969 139.222656 129.699219 139.144531 C 129.746094 139.019531 129.746094 138.910156 129.714844 138.785156 C 129.683594 138.691406 129.558594 138.535156 129.308594 138.347656 C 129.074219 138.160156 128.792969 137.972656 128.496094 137.785156 Z M 129.496094 144.457031 C 129.730469 144.378906 129.917969 144.300781 130.074219 144.238281 L 130.074219 143.863281 L 132.011719 143.863281 L 132.011719 144.347656 C 132.308594 144.253906 132.511719 144.160156 132.605469 144.082031 L 132.542969 143.238281 L 132.542969 140.707031 L 132.746094 140.519531 C 132.808594 140.472656 132.839844 140.425781 132.839844 140.394531 C 132.824219 140.378906 132.792969 140.332031 132.761719 140.300781 L 132.152344 139.941406 L 131.902344 140.347656 L 130.136719 140.332031 L 129.511719 139.972656 L 129.558594 141.113281 L 129.558594 143.128906 Z M 130.074219 143.660156 L 130.074219 142.144531 L 132.011719 142.144531 L 132.011719 143.660156 Z M 130.074219 141.941406 L 130.074219 140.550781 L 132.011719 140.550781 L 132.011719 141.925781 Z M 131.136719 138.597656 L 130.058594 138.582031 L 130.480469 138.957031 L 130.683594 138.910156 C 130.792969 138.878906 131.136719 138.847656 131.699219 138.816406 L 133.996094 138.816406 L 133.996094 144.894531 C 133.996094 145.050781 133.964844 145.144531 133.917969 145.207031 C 133.855469 145.269531 133.746094 145.300781 133.605469 145.285156 L 132.527344 145.175781 L 132.527344 145.332031 L 132.949219 145.441406 C 133.136719 145.488281 133.277344 145.550781 133.371094 145.628906 C 133.449219 145.691406 133.511719 145.785156 133.542969 145.863281 C 133.574219 145.957031 133.574219 146.035156 133.589844 146.144531 C 133.902344 146.019531 134.121094 145.894531 134.261719 145.800781 C 134.402344 145.691406 134.464844 145.597656 134.511719 145.519531 C 134.527344 145.441406 134.542969 145.300781 134.542969 145.113281 L 134.542969 138.988281 L 134.792969 138.753906 C 134.839844 138.722656 134.871094 138.691406 134.886719 138.675781 C 134.886719 138.660156 134.839844 138.628906 134.777344 138.582031 L 134.167969 138.144531 L 133.824219 138.597656 Z M 131.136719 138.597656 "/>
<path style=" stroke:none;fill-rule:nonzero;fill:rgb(0%,0%,0%);fill-opacity:1;" d="M 141.339844 141.863281 C 141.339844 142.566406 141.433594 143.644531 141.933594 144.660156 C 142.464844 145.753906 143.246094 146.347656 143.324219 146.347656 C 143.386719 146.347656 143.417969 146.316406 143.417969 146.253906 C 143.417969 146.222656 143.417969 146.207031 143.261719 146.050781 C 142.152344 144.925781 141.855469 143.238281 141.855469 141.863281 C 141.855469 140.300781 142.199219 138.738281 143.308594 137.613281 C 143.417969 137.503906 143.417969 137.488281 143.417969 137.472656 C 143.417969 137.410156 143.386719 137.378906 143.324219 137.378906 C 143.246094 137.378906 142.433594 137.988281 141.902344 139.128906 C 141.449219 140.113281 141.339844 141.113281 141.339844 141.863281 Z M 141.339844 141.863281 "/>
<path style=" stroke:none;fill-rule:nonzero;fill:rgb(0%,0%,0%);fill-opacity:1;" d="M 147.929688 143.410156 C 147.929688 143.003906 147.757812 142.753906 147.554688 142.550781 C 147.257812 142.253906 146.929688 142.191406 146.273438 142.066406 C 146.039062 142.019531 145.382812 141.910156 145.382812 141.394531 C 145.382812 141.113281 145.585938 140.722656 146.398438 140.722656 C 147.367188 140.722656 147.429688 141.472656 147.445312 141.691406 C 147.460938 141.800781 147.460938 141.863281 147.570312 141.863281 C 147.695312 141.863281 147.695312 141.800781 147.695312 141.628906 L 147.695312 140.769531 C 147.695312 140.613281 147.695312 140.535156 147.601562 140.535156 C 147.554688 140.535156 147.539062 140.535156 147.414062 140.644531 C 147.398438 140.660156 147.320312 140.738281 147.257812 140.785156 C 146.992188 140.582031 146.710938 140.535156 146.398438 140.535156 C 145.210938 140.535156 144.929688 141.191406 144.929688 141.644531 C 144.929688 141.925781 145.054688 142.160156 145.257812 142.363281 C 145.554688 142.644531 145.898438 142.707031 146.351562 142.785156 C 146.820312 142.878906 146.960938 142.894531 147.164062 143.050781 C 147.257812 143.128906 147.476562 143.300781 147.476562 143.628906 C 147.476562 144.425781 146.570312 144.425781 146.445312 144.425781 C 145.539062 144.425781 145.304688 143.660156 145.195312 143.175781 C 145.164062 143.082031 145.148438 143.035156 145.054688 143.035156 C 144.929688 143.035156 144.929688 143.113281 144.929688 143.269531 L 144.929688 144.410156 C 144.929688 144.566406 144.929688 144.644531 145.023438 144.644531 C 145.085938 144.644531 145.085938 144.644531 145.257812 144.472656 C 145.289062 144.410156 145.382812 144.300781 145.429688 144.253906 C 145.804688 144.628906 146.226562 144.644531 146.445312 144.644531 C 147.554688 144.644531 147.929688 144.003906 147.929688 143.410156 Z M 147.929688 143.410156 "/>
<path style=" stroke:none;fill-rule:nonzero;fill:rgb(0%,0%,0%);fill-opacity:1;" d="M 149.449219 146.253906 C 149.449219 146.316406 149.480469 146.347656 149.542969 146.347656 C 149.621094 146.347656 150.433594 145.738281 150.964844 144.597656 C 151.417969 143.613281 151.527344 142.613281 151.527344 141.863281 C 151.527344 141.160156 151.433594 140.082031 150.933594 139.066406 C 150.402344 137.957031 149.621094 137.378906 149.542969 137.378906 C 149.480469 137.378906 149.449219 137.410156 149.449219 137.472656 C 149.449219 137.488281 149.449219 137.503906 149.621094 137.675781 C 150.496094 138.566406 151.011719 139.988281 151.011719 141.863281 C 151.011719 143.394531 150.683594 144.972656 149.558594 146.097656 C 149.449219 146.207031 149.449219 146.222656 149.449219 146.253906 Z M 149.449219 146.253906 "/>
<path style=" stroke:none;fill-rule:nonzero;fill:rgb(0%,0%,0%);fill-opacity:1;" d="M 6.65625 82.804688 L 7.328125 82.445312 L 7.15625 82.242188 C 7.078125 82.148438 6.890625 81.851562 6.609375 81.367188 L 9.3125 81.367188 C 9.375 81.367188 9.4375 81.398438 9.453125 81.414062 C 9.484375 81.460938 9.5 81.523438 9.515625 81.632812 C 9.515625 81.757812 9.46875 82.054688 9.375 82.539062 L 9.515625 82.554688 C 9.625 82.179688 9.71875 81.945312 9.796875 81.882812 C 9.859375 81.820312 9.9375 81.773438 10.03125 81.757812 C 10.109375 81.757812 10.1875 81.726562 10.25 81.726562 C 10.1875 81.429688 10.09375 81.226562 9.9375 81.070312 C 9.8125 80.914062 9.671875 80.851562 9.515625 80.851562 L 6.34375 80.851562 L 5.640625 79.695312 L 5.53125 79.726562 C 5.6875 80.117188 5.84375 80.476562 6 80.851562 L 4.234375 80.835938 L 4.25 79.460938 L 5.5625 79.476562 C 6.015625 79.476562 6.46875 79.507812 6.921875 79.539062 C 7.375 79.554688 7.828125 79.632812 8.265625 79.757812 C 8.703125 79.882812 9.078125 80.054688 9.375 80.273438 C 9.671875 80.492188 9.9375 80.710938 10.203125 80.929688 L 10.328125 80.867188 C 9.984375 80.476562 9.640625 80.148438 9.28125 79.882812 C 8.90625 79.617188 8.515625 79.414062 8.09375 79.289062 C 7.671875 79.148438 7.265625 79.085938 6.90625 79.054688 C 6.546875 79.023438 6.21875 78.992188 5.921875 78.992188 L 5.921875 78.398438 L 9.1875 78.398438 C 9.3125 78.398438 9.40625 78.429688 9.5 78.445312 C 9.578125 78.476562 9.65625 78.554688 9.71875 78.664062 L 10.265625 78.148438 L 9.921875 77.898438 C 9.890625 77.882812 9.78125 77.757812 9.5625 77.539062 C 9.375 77.320312 9.25 77.179688 9.1875 77.101562 C 9.140625 77.023438 9.046875 76.882812 8.9375 76.695312 L 8.8125 76.757812 C 9.015625 77.148438 9.234375 77.523438 9.4375 77.914062 L 5.921875 77.914062 L 5.921875 77.289062 L 6.28125 77.242188 C 6.515625 77.226562 6.8125 77.179688 7.15625 77.117188 C 7.515625 77.039062 7.859375 76.914062 8.203125 76.742188 C 8.53125 76.554688 8.828125 76.367188 9.078125 76.179688 C 9.328125 75.992188 9.640625 75.710938 10 75.351562 L 9.859375 75.242188 C 9.734375 75.179688 9.703125 74.945312 9.734375 74.539062 L 9.609375 74.507812 C 9.421875 74.898438 9.21875 75.242188 9.015625 75.554688 C 8.8125 75.851562 8.546875 76.085938 8.265625 76.257812 C 7.953125 76.429688 7.71875 76.554688 7.515625 76.664062 L 7.328125 76.304688 L 7.0625 75.648438 C 7.015625 75.570312 6.953125 75.460938 6.875 75.289062 L 6.90625 75.054688 C 6.90625 75.007812 6.90625 74.976562 6.875 74.960938 C 6.859375 74.960938 6.8125 74.976562 6.75 75.023438 L 6.234375 75.445312 C 6.59375 75.742188 6.953125 76.164062 7.328125 76.726562 C 7.078125 76.835938 6.84375 76.914062 6.640625 76.976562 C 6.453125 77.023438 6.203125 77.070312 5.921875 77.117188 L 5.921875 74.742188 C 5.921875 74.710938 5.921875 74.679688 5.890625 74.664062 C 5.859375 74.648438 5.796875 74.695312 5.671875 74.820312 L 5.203125 75.304688 L 5.71875 75.695312 L 5.71875 78.976562 L 4.671875 78.945312 C 4.46875 78.945312 3.921875 78.945312 3.0625 78.929688 L 3.0625 75.117188 C 3.0625 75.101562 3.046875 75.070312 3.015625 75.054688 C 3 75.023438 2.9375 75.070312 2.84375 75.164062 L 2.359375 75.695312 L 2.84375 76.101562 L 2.84375 78.867188 L 2.484375 79.523438 L 3.1875 79.476562 C 3.25 79.476562 3.375 79.476562 3.578125 79.460938 C 3.796875 79.460938 3.984375 79.460938 4.15625 79.460938 L 3.546875 80.070312 L 4.03125 80.429688 L 4.03125 80.835938 L 2.625 80.851562 L 2.46875 80.632812 C 2.4375 80.570312 2.40625 80.539062 2.390625 80.539062 C 2.375 80.539062 2.328125 80.601562 2.265625 80.757812 L 2 81.429688 L 2.921875 81.367188 L 4.03125 81.367188 L 4.03125 82.148438 L 4.015625 82.695312 L 4.359375 82.398438 L 4.28125 82.257812 C 4.265625 82.226562 4.265625 82.039062 4.25 81.695312 L 4.234375 81.367188 L 6.171875 81.367188 C 6.40625 81.914062 6.5625 82.398438 6.65625 82.804688 Z M 4.328125 76.460938 L 4.328125 78.070312 L 4.296875 78.554688 L 4.65625 78.257812 L 4.59375 78.132812 C 4.546875 78.085938 4.53125 77.898438 4.53125 77.570312 L 4.53125 75.523438 C 4.53125 75.476562 4.53125 75.445312 4.5 75.445312 C 4.46875 75.429688 4.390625 75.507812 4.234375 75.679688 L 3.875 76.101562 Z M 4.328125 76.460938 "/>
<path style=" stroke:none;fill-rule:nonzero;fill:rgb(0%,0%,0%);fill-opacity:1;" d="M 3.40625 73.511719 L 4.53125 73.449219 L 7.609375 73.449219 L 8.859375 73.527344 C 8.828125 73.371094 8.796875 73.261719 8.765625 73.214844 C 8.75 73.152344 8.6875 73.058594 8.59375 72.964844 L 7.671875 73.027344 L 3.984375 73.027344 L 3.984375 72.339844 L 9.09375 72.339844 L 10.40625 72.402344 C 10.390625 72.324219 10.359375 72.214844 10.328125 72.121094 C 10.265625 72.027344 10.234375 71.949219 10.21875 71.933594 C 10.203125 71.902344 10.171875 71.871094 10.125 71.824219 L 9.0625 71.886719 L 8.421875 71.886719 L 8.484375 71.636719 C 8.5 71.558594 8.546875 71.480469 8.640625 71.433594 C 8.71875 71.371094 8.8125 71.324219 8.90625 71.292969 C 8.78125 70.996094 8.65625 70.824219 8.53125 70.777344 C 8.390625 70.730469 8.234375 70.699219 8.046875 70.714844 L 4.109375 70.730469 L 3.953125 70.574219 C 3.875 70.496094 3.84375 70.464844 3.8125 70.464844 C 3.796875 70.449219 3.75 70.496094 3.703125 70.574219 L 3.40625 71.011719 L 3.78125 71.292969 L 3.78125 71.886719 L 2.546875 71.886719 L 2.421875 71.714844 C 2.390625 71.652344 2.359375 71.621094 2.34375 71.621094 C 2.3125 71.621094 2.28125 71.667969 2.234375 71.746094 L 1.96875 72.402344 L 3.0625 72.339844 L 3.78125 72.339844 L 3.78125 72.886719 Z M 8.234375 71.886719 L 3.984375 71.886719 L 3.984375 71.167969 L 7.875 71.167969 L 8.265625 71.214844 C 8.328125 71.214844 8.3125 71.433594 8.234375 71.886719 Z M 2.625 70.605469 L 3.0625 70.152344 C 2.9375 69.855469 2.875 69.464844 2.875 68.996094 L 2.875 66.027344 C 2.875 65.949219 2.859375 65.902344 2.84375 65.902344 C 2.828125 65.886719 2.78125 65.917969 2.71875 65.980469 L 2.125 66.574219 L 2.65625 66.949219 L 2.65625 70.089844 Z M 6.265625 69.605469 L 5.875 70.246094 L 6.875 70.183594 L 9.328125 70.183594 L 10.34375 70.246094 C 10.328125 70.136719 10.3125 70.042969 10.265625 69.949219 C 10.21875 69.855469 10.203125 69.777344 10.171875 69.714844 L 9.640625 69.714844 L 9.640625 66.777344 L 10.3125 66.777344 C 10.28125 66.574219 10.203125 66.402344 10.0625 66.246094 L 9.34375 66.308594 L 6.5625 66.308594 L 6.421875 66.121094 C 6.390625 66.058594 6.359375 66.027344 6.34375 66.027344 C 6.3125 66.042969 6.28125 66.074219 6.234375 66.121094 L 5.859375 66.605469 L 6.265625 66.917969 Z M 7.640625 69.714844 L 6.46875 69.714844 L 6.484375 68.542969 L 7.640625 68.542969 Z M 9.4375 69.714844 L 7.875 69.714844 L 7.875 68.542969 L 9.4375 68.542969 Z M 7.640625 68.089844 L 6.484375 68.089844 L 6.484375 66.777344 L 7.640625 66.777344 Z M 9.4375 68.089844 L 7.875 68.089844 L 7.875 66.777344 L 9.4375 66.777344 Z M 3.40625 69.761719 L 4.296875 69.699219 L 5.015625 69.699219 L 5.921875 69.761719 C 5.921875 69.605469 5.859375 69.433594 5.734375 69.261719 L 5.4375 69.261719 L 5.4375 67.324219 L 5.8125 67.324219 C 5.796875 67.214844 5.78125 67.136719 5.75 67.074219 C 5.734375 67.011719 5.671875 66.933594 5.59375 66.855469 L 4.9375 66.886719 L 4.078125 66.886719 L 3.921875 66.667969 C 3.875 66.605469 3.859375 66.574219 3.828125 66.574219 C 3.8125 66.574219 3.765625 66.621094 3.6875 66.699219 L 3.359375 67.121094 L 3.75 67.449219 L 3.765625 69.230469 Z M 5.21875 69.261719 L 3.984375 69.261719 L 3.984375 67.324219 L 5.21875 67.324219 Z M 5.21875 69.261719 "/>
<path style=" stroke:none;fill-rule:nonzero;fill:rgb(0%,0%,0%);fill-opacity:1;" d="M 6.234375 59.574219 C 6.9375 59.574219 8.015625 59.480469 9.03125 58.980469 C 10.125 58.449219 10.71875 57.667969 10.71875 57.589844 C 10.71875 57.527344 10.6875 57.496094 10.625 57.496094 C 10.59375 57.496094 10.578125 57.496094 10.421875 57.652344 C 9.296875 58.761719 7.609375 59.058594 6.234375 59.058594 C 4.671875 59.058594 3.109375 58.714844 1.984375 57.605469 C 1.875 57.496094 1.859375 57.496094 1.84375 57.496094 C 1.78125 57.496094 1.75 57.527344 1.75 57.589844 C 1.75 57.667969 2.359375 58.480469 3.5 59.011719 C 4.484375 59.464844 5.484375 59.574219 6.234375 59.574219 Z M 6.234375 59.574219 "/>
<path style=" stroke:none;fill-rule:nonzero;fill:rgb(0%,0%,0%);fill-opacity:1;" d="M 6.984375 51.484375 C 5.859375 51.484375 4.953125 52.375 4.953125 53.421875 C 4.953125 53.90625 5.15625 54.359375 5.515625 54.703125 L 4.953125 54.703125 L 5.0625 56.03125 L 5.328125 56.03125 C 5.328125 55.390625 5.390625 55.34375 5.78125 55.34375 L 9.96875 55.34375 C 10.390625 55.34375 10.390625 55.4375 10.390625 56.03125 L 10.65625 56.03125 C 10.640625 55.609375 10.640625 55.4375 10.640625 55 C 10.640625 54.578125 10.640625 54.453125 10.65625 53.984375 L 10.390625 53.984375 C 10.390625 54.578125 10.390625 54.671875 9.96875 54.671875 L 8.484375 54.671875 C 8.71875 54.4375 9.015625 54.140625 9.015625 53.546875 C 9.015625 52.46875 8.15625 51.484375 6.984375 51.484375 Z M 6.984375 52.265625 C 8 52.265625 8.796875 52.875 8.796875 53.59375 C 8.796875 54 8.5625 54.34375 8.25 54.5625 C 8.0625 54.671875 8.046875 54.671875 7.875 54.671875 L 5.90625 54.671875 C 5.390625 54.375 5.203125 53.875 5.203125 53.5 C 5.203125 52.796875 6.015625 52.265625 6.984375 52.265625 Z M 6.984375 52.265625 "/>
<path style=" stroke:none;fill-rule:nonzero;fill:rgb(0%,0%,0%);fill-opacity:1;" d="M 8.921875 46.703125 L 8.640625 46.703125 C 8.640625 47.0625 8.640625 47.328125 8.390625 47.53125 L 6.90625 48.703125 C 6.828125 48.765625 6.8125 48.765625 6.8125 48.765625 C 6.8125 48.765625 5.9375 48.0625 5.859375 48 C 5.5625 47.71875 5.34375 47.40625 5.328125 46.859375 L 5.0625 46.859375 C 5.078125 47.125 5.078125 47.359375 5.078125 47.625 C 5.078125 47.96875 5.078125 48.125 5.0625 48.484375 L 5.328125 48.484375 C 5.359375 48.359375 5.421875 48.234375 5.609375 48.234375 C 5.75 48.234375 5.84375 48.3125 5.90625 48.359375 L 6.609375 48.9375 L 5.71875 49.640625 C 5.640625 49.703125 5.625 49.71875 5.5625 49.71875 C 5.453125 49.71875 5.34375 49.609375 5.328125 49.40625 L 5.0625 49.40625 C 5.078125 49.75 5.078125 49.984375 5.078125 50.390625 C 5.078125 50.390625 5.078125 50.921875 5.0625 51.265625 L 5.328125 51.265625 C 5.328125 50.640625 5.359375 50.625 5.875 50.21875 L 7.03125 49.296875 L 8.09375 50.15625 C 8.625 50.609375 8.640625 51.125 8.640625 51.3125 L 8.921875 51.3125 C 8.890625 51.046875 8.890625 50.8125 8.890625 50.546875 C 8.890625 50.265625 8.90625 49.96875 8.921875 49.6875 L 8.640625 49.6875 C 8.609375 49.90625 8.46875 49.9375 8.375 49.9375 C 8.34375 49.9375 8.21875 49.9375 8.0625 49.8125 C 7.78125 49.59375 7.515625 49.359375 7.25 49.125 L 8.15625 48.421875 C 8.34375 48.25 8.359375 48.25 8.421875 48.25 C 8.515625 48.25 8.640625 48.34375 8.640625 48.5625 L 8.921875 48.5625 C 8.90625 48.1875 8.890625 47.96875 8.890625 47.578125 C 8.890625 47.578125 8.890625 47.046875 8.921875 46.703125 Z M 8.921875 46.703125 "/>
<path style=" stroke:none;fill-rule:nonzero;fill:rgb(0%,0%,0%);fill-opacity:1;" d="M 10.625 45.375 C 10.6875 45.375 10.71875 45.34375 10.71875 45.28125 C 10.71875 45.203125 10.109375 44.390625 8.96875 43.859375 C 7.984375 43.40625 6.984375 43.296875 6.234375 43.296875 C 5.53125 43.296875 4.453125 43.390625 3.4375 43.890625 C 2.328125 44.421875 1.75 45.203125 1.75 45.28125 C 1.75 45.34375 1.78125 45.375 1.84375 45.375 C 1.859375 45.375 1.875 45.375 2.046875 45.203125 C 2.9375 44.328125 4.359375 43.8125 6.234375 43.8125 C 7.765625 43.8125 9.34375 44.140625 10.46875 45.265625 C 10.578125 45.375 10.59375 45.375 10.625 45.375 Z M 10.625 45.375 "/>
<path style="fill:none;stroke-width:0.3985;stroke-linecap:butt;stroke-linejoin:miter;stroke:rgb(0%,0%,0%);stroke-opacity:1;stroke-miterlimit:10;" d="M 106.148438 -4.625 L 234.609375 -4.625 L 234.609375 -21.824219 L 106.148438 -21.824219 Z M 106.148438 -4.625 " transform="matrix(1,0,0,-1,0,0)"/>
<path style="fill:none;stroke-width:0.3985;stroke-linecap:butt;stroke-linejoin:miter;stroke:rgb(38.822937%,38.822937%,100%);stroke-opacity:1;stroke-miterlimit:10;" d="M 109.335938 -13.226562 L 126.34375 -13.226562 " transform="matrix(1,0,0,-1,0,0)"/>
<path style=" stroke:none;fill-rule:nonzero;fill:rgb(0%,0%,0%);fill-opacity:1;" d="M 128.921875 17.4375 L 128.984375 17.578125 C 129.796875 17.234375 130.40625 16.9375 130.828125 16.6875 C 131.21875 16.4375 131.625 16.109375 131.984375 15.703125 C 132.359375 15.3125 132.625 14.890625 132.78125 14.453125 C 132.9375 14.015625 133.046875 13.625 133.109375 13.3125 C 133.171875 13 133.21875 12.6875 133.265625 12.40625 L 134 12.40625 L 134 16.828125 C 134 17 134.046875 17.125 134.15625 17.203125 C 134.25 17.265625 134.421875 17.3125 134.65625 17.3125 L 135.453125 17.34375 C 136.5625 17.375 137.265625 17.34375 137.5625 17.234375 C 137.84375 17.140625 138.015625 17.015625 138.078125 16.859375 C 138.125 16.703125 138.171875 16.578125 138.203125 16.46875 L 138.015625 16.390625 C 137.96875 16.375 137.890625 16.296875 137.828125 16.1875 C 137.75 16.0625 137.6875 15.90625 137.6875 15.71875 C 137.65625 15.53125 137.65625 15.328125 137.65625 15.125 C 137.65625 14.921875 137.65625 14.734375 137.671875 14.5625 L 137.515625 14.5625 L 137.484375 14.890625 L 137.40625 15.6875 C 137.375 15.96875 137.34375 16.1875 137.3125 16.3125 C 137.28125 16.4375 137.234375 16.5625 137.140625 16.65625 C 137.046875 16.734375 136.78125 16.796875 136.3125 16.78125 C 135.84375 16.765625 135.53125 16.765625 135.359375 16.78125 C 135.1875 16.78125 135.0625 16.765625 134.96875 16.765625 C 134.828125 16.734375 134.734375 16.703125 134.6875 16.640625 C 134.65625 16.59375 134.625 16.5 134.625 16.359375 L 134.625 12.40625 L 137.5 12.40625 C 137.59375 12.421875 137.65625 12.40625 137.65625 12.375 C 137.671875 12.34375 137.640625 12.296875 137.5625 12.21875 L 136.921875 11.546875 L 136.34375 12.171875 L 133.28125 12.171875 L 133.359375 11.1875 L 133.46875 9.703125 L 136.8125 9.6875 C 136.921875 9.6875 136.96875 9.6875 136.984375 9.640625 C 137 9.625 136.96875 9.5625 136.890625 9.484375 L 136.203125 8.84375 L 135.640625 9.453125 L 130.890625 9.453125 L 130.09375 9.421875 L 130.46875 9.859375 L 130.59375 9.78125 C 130.609375 9.765625 130.6875 9.75 130.828125 9.71875 C 130.96875 9.703125 131.046875 9.6875 131.09375 9.6875 L 132.796875 9.6875 L 132.78125 10.375 L 132.71875 11.5 C 132.71875 11.5625 132.703125 11.78125 132.671875 12.171875 L 130.265625 12.171875 L 129.4375 12.140625 L 129.90625 12.5625 C 130.109375 12.453125 130.3125 12.40625 130.5 12.40625 L 132.65625 12.40625 L 132.578125 13.046875 C 132.53125 13.375 132.375 13.9375 132.09375 14.71875 C 131.828125 15.5 131.046875 16.25 129.796875 16.953125 L 129.109375 17.34375 C 129.0625 17.359375 129.015625 17.390625 128.921875 17.4375 Z M 128.921875 17.4375 "/>
<path style=" stroke:none;fill-rule:nonzero;fill:rgb(0%,0%,0%);fill-opacity:1;" d="M 139.417969 8.84375 L 139.480469 10.46875 L 139.480469 16.296875 L 139.402344 17.90625 C 139.699219 17.8125 139.917969 17.703125 140.042969 17.59375 L 139.964844 16.234375 L 139.964844 14.546875 C 140.402344 14.65625 140.652344 14.78125 140.714844 14.90625 C 140.792969 15.03125 140.839844 15.15625 140.871094 15.296875 C 141.152344 15.203125 141.371094 15.109375 141.511719 15.03125 C 141.652344 14.921875 141.777344 14.78125 141.886719 14.609375 C 142.011719 14.421875 142.058594 14.203125 142.058594 13.984375 C 142.058594 13.75 142.027344 13.515625 141.980469 13.265625 C 141.917969 13.03125 141.824219 12.796875 141.683594 12.578125 C 141.542969 12.359375 141.371094 12.109375 141.152344 11.828125 L 141.871094 10.234375 C 141.964844 10.015625 142.074219 9.859375 142.183594 9.765625 L 142.496094 9.578125 C 142.542969 9.546875 142.558594 9.53125 142.558594 9.53125 C 142.558594 9.5 142.527344 9.46875 142.449219 9.40625 L 141.839844 8.953125 L 141.480469 9.4375 L 140.199219 9.4375 Z M 139.964844 14.328125 L 139.964844 9.6875 L 141.605469 9.6875 L 140.824219 11.796875 L 141.152344 12.359375 C 141.292969 12.609375 141.402344 12.875 141.449219 13.15625 C 141.511719 13.4375 141.542969 13.6875 141.527344 13.90625 C 141.527344 14.125 141.464844 14.265625 141.371094 14.34375 C 141.261719 14.421875 141.136719 14.453125 140.996094 14.46875 C 140.871094 14.484375 140.542969 14.421875 139.964844 14.328125 Z M 140.964844 16.765625 L 141.417969 17.1875 L 141.542969 17.109375 C 141.605469 17.0625 141.792969 17.03125 142.089844 17.03125 L 147.933594 17.03125 C 148.011719 17.03125 148.058594 17.015625 148.058594 17 C 148.074219 16.984375 148.058594 16.9375 147.996094 16.875 L 147.355469 16.21875 L 146.808594 16.796875 L 146.574219 16.796875 L 146.574219 9.875 L 146.902344 9.625 C 146.964844 9.578125 146.996094 9.53125 146.996094 9.5 C 146.996094 9.46875 146.933594 9.421875 146.839844 9.359375 L 146.230469 8.921875 L 145.839844 9.4375 L 143.464844 9.4375 L 142.636719 8.84375 L 142.699219 10.078125 L 142.699219 16.796875 L 141.324219 16.796875 Z M 146.027344 16.796875 L 143.246094 16.796875 L 143.246094 14.21875 L 146.027344 14.21875 Z M 143.246094 13.96875 L 143.246094 12.015625 L 146.027344 12.015625 L 146.027344 13.96875 Z M 143.246094 11.78125 L 143.246094 9.6875 L 146.027344 9.6875 L 146.027344 11.78125 Z M 143.246094 11.78125 "/>
<path style=" stroke:none;fill-rule:nonzero;fill:rgb(0%,0%,0%);fill-opacity:1;" d="M 148.941406 17.375 L 149.035156 17.4375 L 149.332031 17.171875 C 149.785156 16.78125 150.160156 16.28125 150.457031 15.671875 C 150.753906 15.0625 150.957031 14.453125 151.035156 13.8125 C 151.128906 13.1875 151.175781 12.328125 151.191406 11.28125 L 156.128906 11.28125 L 156.128906 11.828125 C 156.175781 11.8125 156.285156 11.796875 156.425781 11.734375 C 156.582031 11.703125 156.660156 11.65625 156.691406 11.640625 C 156.707031 11.609375 156.738281 11.578125 156.769531 11.53125 L 156.738281 10.78125 L 156.738281 9.6875 L 157.003906 9.421875 C 157.003906 9.421875 157.066406 9.359375 157.066406 9.359375 C 157.066406 9.359375 157.003906 9.3125 157.003906 9.3125 L 156.285156 8.8125 L 156.019531 9.3125 L 151.253906 9.3125 L 150.519531 8.921875 L 150.535156 10.03125 C 150.566406 10.71875 150.566406 11.53125 150.550781 12.46875 C 150.535156 13.140625 150.503906 13.703125 150.441406 14.171875 C 150.363281 14.640625 150.253906 15.09375 150.066406 15.546875 C 149.878906 16 149.707031 16.359375 149.535156 16.609375 C 149.347656 16.859375 149.160156 17.109375 148.941406 17.375 Z M 151.191406 11.046875 L 151.222656 9.53125 L 156.128906 9.53125 L 156.128906 11.046875 Z M 152.410156 11.78125 L 152.457031 12.90625 L 152.457031 16.4375 C 152.457031 16.703125 152.535156 16.90625 152.691406 17.03125 C 152.832031 17.15625 153.269531 17.234375 153.972656 17.234375 L 155.378906 17.234375 C 156.097656 17.234375 156.597656 17.203125 156.847656 17.125 C 157.097656 17.0625 157.285156 16.984375 157.410156 16.875 C 157.550781 16.765625 157.628906 16.6875 157.644531 16.625 C 157.691406 16.5625 157.707031 16.5 157.738281 16.40625 C 157.519531 16.21875 157.394531 16.0625 157.347656 15.9375 C 157.316406 15.796875 157.300781 15.640625 157.316406 15.4375 C 157.332031 15.21875 157.347656 15 157.363281 14.734375 L 157.207031 14.734375 L 157.066406 15.5 L 156.957031 16.078125 C 156.925781 16.21875 156.847656 16.359375 156.738281 16.484375 C 156.628906 16.59375 156.285156 16.65625 155.753906 16.65625 C 155.207031 16.65625 154.800781 16.65625 154.550781 16.671875 C 154.082031 16.6875 153.769531 16.6875 153.597656 16.65625 C 153.425781 16.625 153.300781 16.5625 153.238281 16.5 C 153.160156 16.421875 153.128906 16.328125 153.128906 16.21875 L 153.128906 15 C 154.066406 14.515625 154.722656 14.15625 155.050781 13.953125 C 155.378906 13.75 155.816406 13.46875 156.347656 13.078125 L 156.644531 13.046875 C 156.722656 13.046875 156.753906 13.03125 156.753906 13.015625 C 156.753906 12.984375 156.738281 12.96875 156.707031 12.9375 L 155.988281 12.265625 L 155.738281 12.640625 C 155.691406 12.71875 155.488281 12.9375 155.128906 13.28125 C 154.769531 13.625 154.441406 13.90625 154.113281 14.125 C 153.816406 14.328125 153.488281 14.53125 153.128906 14.75 L 153.128906 12.53125 L 153.425781 12.28125 C 153.488281 12.25 153.519531 12.21875 153.503906 12.203125 C 153.503906 12.171875 153.457031 12.15625 153.394531 12.125 Z M 152.410156 11.78125 "/>
<path style=" stroke:none;fill-rule:nonzero;fill:rgb(0%,0%,0%);fill-opacity:1;" d="M 161.859375 12.84375 L 161.578125 13.15625 C 161.328125 13.453125 160.9375 13.796875 160.375 14.203125 C 159.84375 14.59375 159.234375 14.9375 158.609375 15.21875 L 158.625 15.375 C 158.984375 15.265625 159.25 15.171875 159.453125 15.09375 C 159.65625 15 159.890625 14.890625 160.140625 14.765625 L 160.140625 16.953125 L 160.09375 17.890625 L 160.421875 17.78125 C 160.5 17.765625 160.53125 17.765625 160.5625 17.734375 C 160.578125 17.734375 160.625 17.703125 160.671875 17.671875 L 160.671875 16.9375 L 162.140625 16.9375 L 162.140625 17.65625 C 162.359375 17.609375 162.484375 17.578125 162.53125 17.5625 C 162.578125 17.5625 162.65625 17.53125 162.75 17.484375 L 162.703125 16.734375 L 162.6875 14.953125 L 162.890625 14.765625 C 162.953125 14.734375 162.96875 14.703125 162.96875 14.6875 C 162.96875 14.671875 162.921875 14.625 162.84375 14.578125 L 162.3125 14.203125 L 162.015625 14.625 L 160.75 14.609375 L 160.609375 14.53125 L 160.859375 14.34375 L 161.34375 14.015625 C 161.6875 13.765625 162.09375 13.359375 162.5625 12.828125 L 164.328125 12.84375 L 164.734375 13.40625 C 164.78125 13.46875 164.90625 13.578125 165.125 13.765625 C 165.328125 13.953125 165.65625 14.15625 166.0625 14.40625 L 165.875 14.578125 L 164.5625 14.578125 L 163.921875 14.234375 L 163.96875 15.171875 L 163.96875 16.796875 L 163.921875 17.84375 C 164.1875 17.765625 164.375 17.6875 164.46875 17.59375 L 164.46875 16.9375 L 166.015625 16.9375 L 166.015625 17.625 L 166.109375 17.578125 L 166.34375 17.5 C 166.40625 17.46875 166.5 17.421875 166.609375 17.375 L 166.5625 16.65625 L 166.5625 15 L 166.671875 14.90625 C 166.703125 14.875 166.71875 14.859375 166.734375 14.84375 C 166.75 14.8125 166.703125 14.78125 166.640625 14.734375 C 166.75 14.78125 166.96875 14.875 167.328125 15.015625 C 167.421875 14.84375 167.5 14.734375 167.5625 14.6875 L 167.796875 14.5625 C 167.90625 14.53125 168 14.515625 168.09375 14.515625 L 168.125 14.375 C 167.453125 14.3125 166.8125 14.15625 166.21875 13.9375 C 165.609375 13.6875 165.203125 13.484375 165.015625 13.3125 C 164.828125 13.125 164.671875 12.96875 164.5625 12.84375 L 167.703125 12.84375 C 167.796875 12.84375 167.828125 12.828125 167.859375 12.796875 C 167.859375 12.78125 167.828125 12.734375 167.765625 12.6875 L 166.984375 12 L 166.515625 12.609375 L 165.515625 12.609375 C 165.640625 12.4375 165.703125 12.3125 165.703125 12.171875 C 165.703125 12.09375 165.65625 12 165.5625 11.859375 C 165.484375 11.734375 165.125 11.609375 164.5 11.484375 L 164.4375 11.59375 C 164.65625 11.75 164.8125 11.890625 164.921875 12.03125 C 165.046875 12.15625 165.140625 12.34375 165.25 12.609375 L 162.75 12.609375 L 163.0625 12.203125 L 163.34375 11.84375 C 163.359375 11.78125 163.421875 11.71875 163.5 11.625 L 163.78125 11.5625 C 163.859375 11.546875 163.890625 11.53125 163.90625 11.515625 C 163.90625 11.484375 163.859375 11.453125 163.78125 11.390625 L 163.03125 10.921875 L 162.890625 11.265625 C 162.875 11.359375 162.765625 11.53125 162.59375 11.8125 C 162.421875 12.078125 162.234375 12.34375 162.046875 12.609375 L 159.4375 12.609375 L 158.703125 12.578125 L 159.046875 13 C 159.296875 12.890625 159.625 12.84375 160.03125 12.84375 Z M 160.671875 16.734375 L 160.671875 14.84375 L 162.140625 14.84375 L 162.140625 16.734375 Z M 164.46875 16.71875 L 164.46875 14.796875 L 166.015625 14.796875 L 166.015625 16.71875 Z M 160.0625 8.84375 L 160.109375 9.59375 L 160.109375 11.125 L 160.0625 11.875 L 160.21875 11.84375 L 160.390625 11.78125 C 160.46875 11.75 160.5625 11.703125 160.640625 11.640625 L 160.640625 11.09375 L 162.140625 11.09375 L 162.140625 11.59375 C 162.421875 11.515625 162.640625 11.4375 162.75 11.375 L 162.703125 10.71875 L 162.703125 9.5625 L 162.921875 9.359375 C 162.96875 9.328125 163 9.296875 163 9.265625 L 162.875 9.171875 L 162.34375 8.765625 L 162.046875 9.203125 L 160.6875 9.203125 Z M 160.640625 10.859375 L 160.640625 9.4375 L 162.140625 9.4375 L 162.140625 10.859375 Z M 164.15625 8.78125 L 164.203125 9.484375 L 164.203125 10.796875 L 164.15625 11.515625 C 164.34375 11.453125 164.53125 11.390625 164.71875 11.296875 L 164.71875 11.09375 L 166.34375 11.09375 L 166.34375 11.515625 C 166.640625 11.40625 166.8125 11.34375 166.828125 11.34375 C 166.859375 11.328125 166.890625 11.3125 166.921875 11.28125 L 166.875 10.625 L 166.875 9.515625 L 167.109375 9.328125 C 167.15625 9.296875 167.1875 9.265625 167.171875 9.234375 C 167.171875 9.203125 167.140625 9.171875 167.0625 9.109375 L 166.515625 8.75 L 166.21875 9.1875 L 164.875 9.171875 Z M 164.71875 10.859375 L 164.71875 9.40625 L 166.34375 9.40625 L 166.34375 10.859375 Z M 164.71875 10.859375 "/>
<path style="fill:none;stroke-width:0.3985;stroke-linecap:butt;stroke-linejoin:miter;stroke:rgb(100%,38.822937%,38.822937%);stroke-opacity:1;stroke-miterlimit:10;" d="M 170.574219 -13.226562 L 187.585938 -13.226562 " transform="matrix(1,0,0,-1,0,0)"/>
<path style=" stroke:none;fill-rule:nonzero;fill:rgb(0%,0%,0%);fill-opacity:1;" d="M 190.039062 15.109375 L 190.085938 15.234375 C 190.304688 15.125 190.554688 14.96875 190.867188 14.734375 C 191.179688 14.515625 191.460938 14.265625 191.742188 14.015625 C 192.039062 13.765625 192.398438 13.375 192.867188 12.859375 L 192.867188 16.671875 L 192.804688 17.921875 C 193.070312 17.828125 193.273438 17.734375 193.414062 17.625 L 193.398438 16.984375 L 193.382812 15.46875 L 196.789062 15.46875 L 196.789062 16.953125 C 196.789062 17.0625 196.757812 17.140625 196.726562 17.1875 C 196.679688 17.234375 196.570312 17.25 196.382812 17.234375 C 196.195312 17.21875 195.820312 17.15625 195.226562 17.078125 L 195.210938 17.25 C 195.585938 17.328125 195.820312 17.390625 195.960938 17.453125 C 196.070312 17.53125 196.164062 17.609375 196.226562 17.703125 C 196.289062 17.78125 196.320312 17.84375 196.335938 17.890625 C 196.335938 17.9375 196.351562 18.015625 196.367188 18.109375 C 196.617188 18.03125 196.851562 17.953125 197.070312 17.859375 C 197.273438 17.75 197.382812 17.59375 197.382812 17.375 L 197.382812 12.578125 L 197.585938 12.40625 C 197.695312 12.34375 197.742188 12.28125 197.742188 12.28125 C 197.742188 12.265625 197.679688 12.203125 197.554688 12.109375 L 197.007812 11.734375 L 196.648438 12.1875 L 193.351562 12.1875 L 193.914062 11.28125 C 193.976562 11.203125 194.117188 10.96875 194.335938 10.5625 L 199.179688 10.578125 C 199.210938 10.578125 199.242188 10.546875 199.257812 10.515625 C 199.289062 10.484375 199.210938 10.390625 199.023438 10.21875 L 198.429688 9.671875 L 197.929688 10.328125 L 194.429688 10.328125 L 194.960938 9.359375 L 195.226562 9.234375 C 195.320312 9.203125 195.382812 9.171875 195.382812 9.140625 C 195.382812 9.125 195.320312 9.09375 195.210938 9.03125 L 194.382812 8.609375 L 194.273438 9.0625 C 194.242188 9.171875 194.179688 9.34375 194.101562 9.5625 C 194.007812 9.765625 193.898438 10.03125 193.757812 10.328125 L 190.929688 10.328125 L 190.054688 10.28125 L 190.429688 10.71875 L 190.664062 10.625 C 190.757812 10.59375 190.976562 10.578125 191.320312 10.578125 L 193.632812 10.578125 C 193.398438 11.0625 193.070312 11.640625 192.648438 12.3125 C 192.242188 12.96875 191.773438 13.546875 191.289062 13.984375 C 190.804688 14.453125 190.382812 14.8125 190.039062 15.109375 Z M 193.382812 15.234375 L 193.382812 13.96875 L 196.789062 13.96875 L 196.789062 15.234375 Z M 193.382812 13.734375 L 193.382812 12.421875 L 196.789062 12.421875 L 196.789062 13.734375 Z M 193.382812 13.734375 "/>
<path style=" stroke:none;fill-rule:nonzero;fill:rgb(0%,0%,0%);fill-opacity:1;" d="M 200.660156 8.984375 L 200.722656 10.609375 L 200.722656 16.4375 L 200.644531 18.046875 C 200.941406 17.953125 201.160156 17.84375 201.285156 17.734375 L 201.207031 16.375 L 201.207031 14.6875 C 201.644531 14.796875 201.894531 14.921875 201.957031 15.046875 C 202.035156 15.171875 202.082031 15.296875 202.113281 15.4375 C 202.394531 15.34375 202.613281 15.25 202.753906 15.171875 C 202.894531 15.0625 203.019531 14.921875 203.128906 14.75 C 203.253906 14.5625 203.300781 14.34375 203.300781 14.125 C 203.300781 13.890625 203.269531 13.65625 203.222656 13.40625 C 203.160156 13.171875 203.066406 12.9375 202.925781 12.71875 C 202.785156 12.5 202.613281 12.25 202.394531 11.96875 L 203.113281 10.375 C 203.207031 10.15625 203.316406 10 203.425781 9.90625 L 203.738281 9.71875 C 203.785156 9.6875 203.800781 9.671875 203.800781 9.671875 C 203.800781 9.640625 203.769531 9.609375 203.691406 9.546875 L 203.082031 9.09375 L 202.722656 9.578125 L 201.441406 9.578125 Z M 201.207031 14.46875 L 201.207031 9.828125 L 202.847656 9.828125 L 202.066406 11.9375 L 202.394531 12.5 C 202.535156 12.75 202.644531 13.015625 202.691406 13.296875 C 202.753906 13.578125 202.785156 13.828125 202.769531 14.046875 C 202.769531 14.265625 202.707031 14.40625 202.613281 14.484375 C 202.503906 14.5625 202.378906 14.59375 202.238281 14.609375 C 202.113281 14.625 201.785156 14.5625 201.207031 14.46875 Z M 202.207031 16.90625 L 202.660156 17.328125 L 202.785156 17.25 C 202.847656 17.203125 203.035156 17.171875 203.332031 17.171875 L 209.175781 17.171875 C 209.253906 17.171875 209.300781 17.15625 209.300781 17.140625 C 209.316406 17.125 209.300781 17.078125 209.238281 17.015625 L 208.597656 16.359375 L 208.050781 16.9375 L 207.816406 16.9375 L 207.816406 10.015625 L 208.144531 9.765625 C 208.207031 9.71875 208.238281 9.671875 208.238281 9.640625 C 208.238281 9.609375 208.175781 9.5625 208.082031 9.5 L 207.472656 9.0625 L 207.082031 9.578125 L 204.707031 9.578125 L 203.878906 8.984375 L 203.941406 10.21875 L 203.941406 16.9375 L 202.566406 16.9375 Z M 207.269531 16.9375 L 204.488281 16.9375 L 204.488281 14.359375 L 207.269531 14.359375 Z M 204.488281 14.109375 L 204.488281 12.15625 L 207.269531 12.15625 L 207.269531 14.109375 Z M 204.488281 11.921875 L 204.488281 9.828125 L 207.269531 9.828125 L 207.269531 11.921875 Z M 204.488281 11.921875 "/>
<path style=" stroke:none;fill-rule:nonzero;fill:rgb(0%,0%,0%);fill-opacity:1;" d="M 210.183594 17.515625 L 210.277344 17.578125 L 210.574219 17.3125 C 211.027344 16.921875 211.402344 16.421875 211.699219 15.8125 C 211.996094 15.203125 212.199219 14.59375 212.277344 13.953125 C 212.371094 13.328125 212.417969 12.46875 212.433594 11.421875 L 217.371094 11.421875 L 217.371094 11.96875 C 217.417969 11.953125 217.527344 11.9375 217.667969 11.875 C 217.824219 11.84375 217.902344 11.796875 217.933594 11.78125 C 217.949219 11.75 217.980469 11.71875 218.011719 11.671875 L 217.980469 10.921875 L 217.980469 9.828125 L 218.246094 9.5625 C 218.246094 9.5625 218.308594 9.5 218.308594 9.5 C 218.308594 9.5 218.246094 9.453125 218.246094 9.453125 L 217.527344 8.953125 L 217.261719 9.453125 L 212.496094 9.453125 L 211.761719 9.0625 L 211.777344 10.171875 C 211.808594 10.859375 211.808594 11.671875 211.792969 12.609375 C 211.777344 13.28125 211.746094 13.84375 211.683594 14.3125 C 211.605469 14.78125 211.496094 15.234375 211.308594 15.6875 C 211.121094 16.140625 210.949219 16.5 210.777344 16.75 C 210.589844 17 210.402344 17.25 210.183594 17.515625 Z M 212.433594 11.1875 L 212.464844 9.671875 L 217.371094 9.671875 L 217.371094 11.1875 Z M 213.652344 11.921875 L 213.699219 13.046875 L 213.699219 16.578125 C 213.699219 16.84375 213.777344 17.046875 213.933594 17.171875 C 214.074219 17.296875 214.511719 17.375 215.214844 17.375 L 216.621094 17.375 C 217.339844 17.375 217.839844 17.34375 218.089844 17.265625 C 218.339844 17.203125 218.527344 17.125 218.652344 17.015625 C 218.792969 16.90625 218.871094 16.828125 218.886719 16.765625 C 218.933594 16.703125 218.949219 16.640625 218.980469 16.546875 C 218.761719 16.359375 218.636719 16.203125 218.589844 16.078125 C 218.558594 15.9375 218.542969 15.78125 218.558594 15.578125 C 218.574219 15.359375 218.589844 15.140625 218.605469 14.875 L 218.449219 14.875 L 218.308594 15.640625 L 218.199219 16.21875 C 218.167969 16.359375 218.089844 16.5 217.980469 16.625 C 217.871094 16.734375 217.527344 16.796875 216.996094 16.796875 C 216.449219 16.796875 216.042969 16.796875 215.792969 16.8125 C 215.324219 16.828125 215.011719 16.828125 214.839844 16.796875 C 214.667969 16.765625 214.542969 16.703125 214.480469 16.640625 C 214.402344 16.5625 214.371094 16.46875 214.371094 16.359375 L 214.371094 15.140625 C 215.308594 14.65625 215.964844 14.296875 216.292969 14.09375 C 216.621094 13.890625 217.058594 13.609375 217.589844 13.21875 L 217.886719 13.1875 C 217.964844 13.1875 217.996094 13.171875 217.996094 13.15625 C 217.996094 13.125 217.980469 13.109375 217.949219 13.078125 L 217.230469 12.40625 L 216.980469 12.78125 C 216.933594 12.859375 216.730469 13.078125 216.371094 13.421875 C 216.011719 13.765625 215.683594 14.046875 215.355469 14.265625 C 215.058594 14.46875 214.730469 14.671875 214.371094 14.890625 L 214.371094 12.671875 L 214.667969 12.421875 C 214.730469 12.390625 214.761719 12.359375 214.746094 12.34375 C 214.746094 12.3125 214.699219 12.296875 214.636719 12.265625 Z M 213.652344 11.921875 "/>
<path style=" stroke:none;fill-rule:nonzero;fill:rgb(0%,0%,0%);fill-opacity:1;" d="M 223.101562 12.984375 L 222.820312 13.296875 C 222.570312 13.59375 222.179688 13.9375 221.617188 14.34375 C 221.085938 14.734375 220.476562 15.078125 219.851562 15.359375 L 219.867188 15.515625 C 220.226562 15.40625 220.492188 15.3125 220.695312 15.234375 C 220.898438 15.140625 221.132812 15.03125 221.382812 14.90625 L 221.382812 17.09375 L 221.335938 18.03125 L 221.664062 17.921875 C 221.742188 17.90625 221.773438 17.90625 221.804688 17.875 C 221.820312 17.875 221.867188 17.84375 221.914062 17.8125 L 221.914062 17.078125 L 223.382812 17.078125 L 223.382812 17.796875 C 223.601562 17.75 223.726562 17.71875 223.773438 17.703125 C 223.820312 17.703125 223.898438 17.671875 223.992188 17.625 L 223.945312 16.875 L 223.929688 15.09375 L 224.132812 14.90625 C 224.195312 14.875 224.210938 14.84375 224.210938 14.828125 C 224.210938 14.8125 224.164062 14.765625 224.085938 14.71875 L 223.554688 14.34375 L 223.257812 14.765625 L 221.992188 14.75 L 221.851562 14.671875 L 222.101562 14.484375 L 222.585938 14.15625 C 222.929688 13.90625 223.335938 13.5 223.804688 12.96875 L 225.570312 12.984375 L 225.976562 13.546875 C 226.023438 13.609375 226.148438 13.71875 226.367188 13.90625 C 226.570312 14.09375 226.898438 14.296875 227.304688 14.546875 L 227.117188 14.71875 L 225.804688 14.71875 L 225.164062 14.375 L 225.210938 15.3125 L 225.210938 16.9375 L 225.164062 17.984375 C 225.429688 17.90625 225.617188 17.828125 225.710938 17.734375 L 225.710938 17.078125 L 227.257812 17.078125 L 227.257812 17.765625 L 227.351562 17.71875 L 227.585938 17.640625 C 227.648438 17.609375 227.742188 17.5625 227.851562 17.515625 L 227.804688 16.796875 L 227.804688 15.140625 L 227.914062 15.046875 C 227.945312 15.015625 227.960938 15 227.976562 14.984375 C 227.992188 14.953125 227.945312 14.921875 227.882812 14.875 C 227.992188 14.921875 228.210938 15.015625 228.570312 15.15625 C 228.664062 14.984375 228.742188 14.875 228.804688 14.828125 L 229.039062 14.703125 C 229.148438 14.671875 229.242188 14.65625 229.335938 14.65625 L 229.367188 14.515625 C 228.695312 14.453125 228.054688 14.296875 227.460938 14.078125 C 226.851562 13.828125 226.445312 13.625 226.257812 13.453125 C 226.070312 13.265625 225.914062 13.109375 225.804688 12.984375 L 228.945312 12.984375 C 229.039062 12.984375 229.070312 12.96875 229.101562 12.9375 C 229.101562 12.921875 229.070312 12.875 229.007812 12.828125 L 228.226562 12.140625 L 227.757812 12.75 L 226.757812 12.75 C 226.882812 12.578125 226.945312 12.453125 226.945312 12.3125 C 226.945312 12.234375 226.898438 12.140625 226.804688 12 C 226.726562 11.875 226.367188 11.75 225.742188 11.625 L 225.679688 11.734375 C 225.898438 11.890625 226.054688 12.03125 226.164062 12.171875 C 226.289062 12.296875 226.382812 12.484375 226.492188 12.75 L 223.992188 12.75 L 224.304688 12.34375 L 224.585938 11.984375 C 224.601562 11.921875 224.664062 11.859375 224.742188 11.765625 L 225.023438 11.703125 C 225.101562 11.6875 225.132812 11.671875 225.148438 11.65625 C 225.148438 11.625 225.101562 11.59375 225.023438 11.53125 L 224.273438 11.0625 L 224.132812 11.40625 C 224.117188 11.5 224.007812 11.671875 223.835938 11.953125 C 223.664062 12.21875 223.476562 12.484375 223.289062 12.75 L 220.679688 12.75 L 219.945312 12.71875 L 220.289062 13.140625 C 220.539062 13.03125 220.867188 12.984375 221.273438 12.984375 Z M 221.914062 16.875 L 221.914062 14.984375 L 223.382812 14.984375 L 223.382812 16.875 Z M 225.710938 16.859375 L 225.710938 14.9375 L 227.257812 14.9375 L 227.257812 16.859375 Z M 221.304688 8.984375 L 221.351562 9.734375 L 221.351562 11.265625 L 221.304688 12.015625 L 221.460938 11.984375 L 221.632812 11.921875 C 221.710938 11.890625 221.804688 11.84375 221.882812 11.78125 L 221.882812 11.234375 L 223.382812 11.234375 L 223.382812 11.734375 C 223.664062 11.65625 223.882812 11.578125 223.992188 11.515625 L 223.945312 10.859375 L 223.945312 9.703125 L 224.164062 9.5 C 224.210938 9.46875 224.242188 9.4375 224.242188 9.40625 L 224.117188 9.3125 L 223.585938 8.90625 L 223.289062 9.34375 L 221.929688 9.34375 Z M 221.882812 11 L 221.882812 9.578125 L 223.382812 9.578125 L 223.382812 11 Z M 225.398438 8.921875 L 225.445312 9.625 L 225.445312 10.9375 L 225.398438 11.65625 C 225.585938 11.59375 225.773438 11.53125 225.960938 11.4375 L 225.960938 11.234375 L 227.585938 11.234375 L 227.585938 11.65625 C 227.882812 11.546875 228.054688 11.484375 228.070312 11.484375 C 228.101562 11.46875 228.132812 11.453125 228.164062 11.421875 L 228.117188 10.765625 L 228.117188 9.65625 L 228.351562 9.46875 C 228.398438 9.4375 228.429688 9.40625 228.414062 9.375 C 228.414062 9.34375 228.382812 9.3125 228.304688 9.25 L 227.757812 8.890625 L 227.460938 9.328125 L 226.117188 9.3125 Z M 225.960938 11 L 225.960938 9.546875 L 227.585938 9.546875 L 227.585938 11 Z M 225.960938 11 "/>
</g>
</svg>
