<?xml version="1.0" encoding="UTF-8"?>
<svg xmlns="http://www.w3.org/2000/svg" xmlns:xlink="http://www.w3.org/1999/xlink" width="227.770004pt" height="141.139999pt" viewBox="0 0 227.770004 141.139999" version="1.1">
<defs>
<clipPath id="clip1">
  <path d="M 125 110 L 206 110 L 206 140.640625 L 125 140.640625 Z M 125 110 "/>
</clipPath>
<clipPath id="clip2">
  <path d="M 72 0.492188 L 227.273438 0.492188 L 227.273438 140.640625 L 72 140.640625 Z M 72 0.492188 "/>
</clipPath>
</defs>
<g id="surface1">
<path style="fill-rule:nonzero;fill:rgb(84.312439%,84.312439%,100%);fill-opacity:1;stroke-width:0.79701;stroke-linecap:butt;stroke-linejoin:miter;stroke:rgb(38.822937%,38.822937%,100%);stroke-opacity:1;stroke-miterlimit:10;" d="M 6.382812 -136.613281 L 6.382812 -11.109375 L 37.351562 -11.109375 L 37.351562 -12.738281 L 8.011719 -12.738281 L 8.011719 -22.519531 L 66.6875 -22.519531 L 66.6875 -12.738281 L 37.351562 -12.738281 L 37.351562 -11.109375 L 68.316406 -11.109375 L 68.316406 -136.613281 L 66.6875 -136.613281 L 66.6875 -35.558594 L 8.011719 -35.558594 L 8.011719 -136.613281 Z M 6.382812 -136.613281 " transform="matrix(1,0,0,-1,0,0)"/>
<path style=" stroke:none;fill-rule:nonzero;fill:rgb(100%,100%,100%);fill-opacity:1;" d="M 32.980469 27.582031 L 32.824219 25.769531 L 27.652344 25.769531 L 27.480469 27.582031 L 27.730469 27.582031 C 27.839844 26.238281 28.027344 26.035156 29.246094 26.035156 C 29.402344 26.035156 29.652344 26.035156 29.714844 26.050781 C 29.855469 26.082031 29.871094 26.160156 29.871094 26.363281 L 29.871094 30.503906 C 29.871094 30.785156 29.871094 30.894531 29.042969 30.894531 L 28.730469 30.894531 L 28.730469 31.160156 C 29.027344 31.128906 29.886719 31.128906 30.230469 31.128906 C 30.574219 31.128906 31.433594 31.128906 31.730469 31.160156 L 31.730469 30.894531 L 31.433594 30.894531 C 30.605469 30.894531 30.605469 30.785156 30.605469 30.503906 L 30.605469 26.363281 C 30.605469 26.175781 30.605469 26.082031 30.761719 26.050781 C 30.839844 26.035156 31.074219 26.035156 31.230469 26.035156 C 32.449219 26.035156 32.621094 26.238281 32.730469 27.582031 Z M 32.980469 27.582031 "/>
<path style=" stroke:none;fill-rule:nonzero;fill:rgb(100%,100%,100%);fill-opacity:1;" d="M 40.65625 31.160156 L 40.65625 30.894531 L 40.484375 30.894531 C 39.859375 30.894531 39.84375 30.816406 39.84375 30.519531 L 39.84375 26.363281 C 39.84375 26.066406 39.859375 25.988281 40.484375 25.988281 L 40.65625 25.988281 L 40.65625 25.722656 L 39.3125 25.722656 C 39.09375 25.722656 39.078125 25.738281 39.015625 25.878906 L 37.171875 30.410156 L 35.328125 25.894531 C 35.25 25.738281 35.25 25.722656 35.03125 25.722656 L 33.6875 25.722656 L 33.6875 25.988281 L 33.859375 25.988281 C 34.46875 25.988281 34.484375 26.066406 34.484375 26.363281 L 34.484375 30.300781 C 34.484375 30.519531 34.484375 30.894531 33.6875 30.894531 L 33.6875 31.160156 C 34.046875 31.128906 34.421875 31.128906 34.625 31.128906 C 34.828125 31.128906 35.203125 31.128906 35.5625 31.160156 L 35.5625 30.894531 C 34.765625 30.894531 34.765625 30.519531 34.765625 30.300781 L 34.765625 26.066406 L 36.78125 30.972656 C 36.828125 31.066406 36.859375 31.160156 36.96875 31.160156 C 37.078125 31.160156 37.109375 31.066406 37.15625 30.972656 L 39.1875 26.003906 L 39.1875 30.519531 C 39.1875 30.816406 39.171875 30.894531 38.5625 30.894531 L 38.390625 30.894531 L 38.390625 31.160156 L 39.515625 31.128906 Z M 40.65625 31.160156 "/>
<path style=" stroke:none;fill-rule:nonzero;fill:rgb(100%,100%,100%);fill-opacity:1;" d="M 47.035156 28.488281 C 47.035156 26.957031 45.878906 25.722656 44.441406 25.722656 L 41.410156 25.722656 L 41.410156 25.988281 L 41.597656 25.988281 C 42.207031 25.988281 42.222656 26.066406 42.222656 26.363281 L 42.222656 30.519531 C 42.222656 30.816406 42.207031 30.894531 41.597656 30.894531 L 41.410156 30.894531 L 41.410156 31.160156 L 44.441406 31.160156 C 45.878906 31.160156 47.035156 29.972656 47.035156 28.488281 Z M 46.222656 28.488281 C 46.222656 28.894531 46.222656 29.675781 45.722656 30.253906 C 45.457031 30.582031 44.941406 30.894531 44.222656 30.894531 L 43.316406 30.894531 C 42.941406 30.894531 42.925781 30.847656 42.925781 30.566406 L 42.925781 26.300781 C 42.925781 26.035156 42.941406 25.988281 43.316406 25.988281 L 44.222656 25.988281 C 44.847656 25.988281 45.363281 26.238281 45.722656 26.628906 C 46.222656 27.238281 46.222656 28.097656 46.222656 28.488281 Z M 46.222656 28.488281 "/>
<path style="fill-rule:nonzero;fill:rgb(100%,96.076965%,39.99939%);fill-opacity:1;stroke-width:0.79701;stroke-linecap:butt;stroke-linejoin:miter;stroke:rgb(100%,49.803162%,0%);stroke-opacity:1;stroke-miterlimit:10;" d="M 29.199219 -4.589844 L 45.5 -4.589844 L 45.5 -17.628906 L 29.199219 -17.628906 Z M 29.199219 -4.589844 " transform="matrix(1,0,0,-1,0,0)"/>
<path style="fill-rule:nonzero;fill:rgb(84.312439%,84.312439%,100%);fill-opacity:1;stroke-width:0.79701;stroke-linecap:butt;stroke-linejoin:miter;stroke:rgb(38.822937%,38.822937%,100%);stroke-opacity:1;stroke-miterlimit:10;" d="M 132.3125 -84.738281 L 198.644531 -84.738281 L 198.644531 -121.589844 L 132.3125 -121.589844 Z M 132.3125 -84.738281 " transform="matrix(1,0,0,-1,0,0)"/>
<path style=" stroke:none;fill-rule:nonzero;fill:rgb(38.822937%,38.822937%,100%);fill-opacity:1;" d="M 159.742188 103.96875 C 159.710938 104.125 159.648438 104.359375 159.648438 104.40625 C 159.648438 104.578125 159.789062 104.671875 159.945312 104.671875 C 160.070312 104.671875 160.242188 104.59375 160.320312 104.390625 C 160.320312 104.375 160.445312 103.90625 160.507812 103.65625 L 160.726562 102.765625 C 160.773438 102.53125 160.835938 102.3125 160.898438 102.09375 C 160.929688 101.921875 161.007812 101.625 161.023438 101.59375 C 161.164062 101.28125 161.695312 100.375 162.648438 100.375 C 163.101562 100.375 163.179688 100.75 163.179688 101.078125 C 163.179688 101.328125 163.117188 101.609375 163.039062 101.90625 L 162.757812 103.0625 L 162.554688 103.8125 C 162.523438 104.015625 162.429688 104.359375 162.429688 104.40625 C 162.429688 104.578125 162.570312 104.671875 162.710938 104.671875 C 163.023438 104.671875 163.085938 104.421875 163.164062 104.109375 C 163.304688 103.546875 163.679688 102.09375 163.757812 101.703125 C 163.789062 101.578125 164.320312 100.375 165.414062 100.375 C 165.835938 100.375 165.945312 100.71875 165.945312 101.078125 C 165.945312 101.640625 165.523438 102.78125 165.320312 103.3125 C 165.242188 103.546875 165.195312 103.65625 165.195312 103.859375 C 165.195312 104.328125 165.539062 104.671875 166.007812 104.671875 C 166.945312 104.671875 167.320312 103.21875 167.320312 103.140625 C 167.320312 103.03125 167.226562 103.03125 167.195312 103.03125 C 167.101562 103.03125 167.101562 103.0625 167.054688 103.21875 C 166.898438 103.75 166.585938 104.453125 166.039062 104.453125 C 165.867188 104.453125 165.789062 104.359375 165.789062 104.125 C 165.789062 103.875 165.882812 103.640625 165.976562 103.421875 C 166.164062 102.890625 166.585938 101.796875 166.585938 101.21875 C 166.585938 100.578125 166.179688 100.15625 165.429688 100.15625 C 164.695312 100.15625 164.179688 100.59375 163.804688 101.125 C 163.804688 101 163.773438 100.65625 163.492188 100.421875 C 163.242188 100.203125 162.929688 100.15625 162.679688 100.15625 C 161.773438 100.15625 161.289062 100.796875 161.117188 101.03125 C 161.070312 100.453125 160.648438 100.15625 160.195312 100.15625 C 159.742188 100.15625 159.554688 100.546875 159.460938 100.71875 C 159.289062 101.078125 159.164062 101.65625 159.164062 101.6875 C 159.164062 101.796875 159.257812 101.796875 159.273438 101.796875 C 159.382812 101.796875 159.382812 101.78125 159.445312 101.5625 C 159.617188 100.859375 159.820312 100.375 160.179688 100.375 C 160.335938 100.375 160.476562 100.453125 160.476562 100.828125 C 160.476562 101.046875 160.445312 101.15625 160.320312 101.671875 Z M 159.742188 103.96875 "/>
<path style=" stroke:none;fill-rule:nonzero;fill:rgb(38.822937%,38.822937%,100%);fill-opacity:1;" d="M 169.945312 101.621094 C 169.945312 101.433594 169.945312 101.433594 169.742188 101.433594 C 169.289062 101.871094 168.664062 101.871094 168.382812 101.871094 L 168.382812 102.121094 C 168.539062 102.121094 169.007812 102.121094 169.382812 101.933594 L 169.382812 105.480469 C 169.382812 105.714844 169.382812 105.808594 168.695312 105.808594 L 168.429688 105.808594 L 168.429688 106.058594 C 168.554688 106.058594 169.414062 106.027344 169.664062 106.027344 C 169.882812 106.027344 170.757812 106.058594 170.914062 106.058594 L 170.914062 105.808594 L 170.648438 105.808594 C 169.945312 105.808594 169.945312 105.714844 169.945312 105.480469 Z M 169.945312 101.621094 "/>
<path style="fill:none;stroke-width:0.79701;stroke-linecap:butt;stroke-linejoin:miter;stroke:rgb(38.822937%,38.822937%,100%);stroke-opacity:1;stroke-miterlimit:10;" d="M 198.644531 -103.164062 L 219.777344 -103.164062 " transform="matrix(1,0,0,-1,0,0)"/>
<path style=" stroke:none;fill-rule:nonzero;fill:rgb(38.822937%,38.822937%,100%);fill-opacity:1;" d="M 224.4375 103.164062 C 223.058594 102.90625 220.8125 102.128906 219.257812 101.222656 L 219.257812 105.109375 C 220.8125 104.203125 223.058594 103.425781 224.4375 103.164062 "/>
<path style=" stroke:none;fill-rule:nonzero;fill:rgb(38.822937%,38.822937%,100%);fill-opacity:1;" d="M 204.988281 93.722656 L 205.957031 93.722656 C 206.707031 93.722656 206.785156 93.878906 206.785156 94.160156 C 206.785156 94.238281 206.785156 94.347656 206.722656 94.660156 C 206.691406 94.707031 206.691406 94.738281 206.691406 94.769531 C 206.691406 94.847656 206.753906 94.878906 206.800781 94.878906 C 206.910156 94.878906 206.910156 94.847656 206.957031 94.675781 L 207.503906 92.503906 C 207.535156 92.394531 207.535156 92.378906 207.535156 92.347656 C 207.535156 92.332031 207.519531 92.238281 207.410156 92.238281 C 207.316406 92.238281 207.300781 92.285156 207.269531 92.457031 C 207.050781 93.222656 206.832031 93.410156 205.972656 93.410156 L 205.066406 93.410156 L 205.707031 90.878906 C 205.800781 90.519531 205.816406 90.488281 206.253906 90.488281 L 207.566406 90.488281 C 208.785156 90.488281 209.019531 90.816406 209.019531 91.582031 C 209.019531 91.816406 209.019531 91.847656 208.988281 92.128906 C 208.972656 92.253906 208.972656 92.269531 208.972656 92.300781 C 208.972656 92.347656 209.003906 92.425781 209.097656 92.425781 C 209.207031 92.425781 209.207031 92.363281 209.222656 92.175781 L 209.425781 90.441406 C 209.457031 90.175781 209.410156 90.175781 209.160156 90.175781 L 204.269531 90.175781 C 204.082031 90.175781 203.972656 90.175781 203.972656 90.378906 C 203.972656 90.488281 204.066406 90.488281 204.253906 90.488281 C 204.628906 90.488281 204.910156 90.488281 204.910156 90.660156 C 204.910156 90.707031 204.910156 90.722656 204.847656 90.910156 L 203.535156 96.175781 C 203.441406 96.566406 203.425781 96.644531 202.628906 96.644531 C 202.457031 96.644531 202.347656 96.644531 202.347656 96.832031 C 202.347656 96.957031 202.472656 96.957031 202.503906 96.957031 C 202.785156 96.957031 203.535156 96.925781 203.816406 96.925781 C 204.144531 96.925781 204.972656 96.957031 205.300781 96.957031 C 205.394531 96.957031 205.503906 96.957031 205.503906 96.769531 C 205.503906 96.691406 205.457031 96.660156 205.457031 96.660156 C 205.425781 96.644531 205.394531 96.644531 205.175781 96.644531 C 204.957031 96.644531 204.910156 96.644531 204.660156 96.628906 C 204.363281 96.597656 204.332031 96.550781 204.332031 96.425781 C 204.332031 96.410156 204.332031 96.347656 204.378906 96.207031 Z M 204.988281 93.722656 "/>
<path style=" stroke:none;fill-rule:nonzero;fill:rgb(38.822937%,38.822937%,100%);fill-opacity:1;" d="M 213.058594 99.347656 C 213.058594 99.316406 213.058594 99.300781 212.886719 99.128906 C 211.652344 97.878906 211.324219 95.988281 211.324219 94.457031 C 211.324219 92.722656 211.699219 90.988281 212.933594 89.753906 C 213.058594 89.628906 213.058594 89.613281 213.058594 89.582031 C 213.058594 89.503906 213.027344 89.472656 212.964844 89.472656 C 212.855469 89.472656 211.964844 90.160156 211.371094 91.425781 C 210.871094 92.519531 210.746094 93.628906 210.746094 94.457031 C 210.746094 95.238281 210.855469 96.441406 211.402344 97.582031 C 212.011719 98.800781 212.855469 99.457031 212.964844 99.457031 C 213.027344 99.457031 213.058594 99.425781 213.058594 99.347656 Z M 213.058594 99.347656 "/>
<path style=" stroke:none;fill-rule:nonzero;fill:rgb(38.822937%,38.822937%,100%);fill-opacity:1;" d="M 215.683594 92.972656 L 216.621094 92.972656 C 216.824219 92.972656 216.933594 92.972656 216.933594 92.769531 C 216.933594 92.660156 216.824219 92.660156 216.652344 92.660156 L 215.777344 92.660156 C 216.136719 91.238281 216.183594 91.050781 216.183594 90.988281 C 216.183594 90.816406 216.058594 90.722656 215.886719 90.722656 C 215.855469 90.722656 215.574219 90.722656 215.496094 91.082031 L 215.105469 92.660156 L 214.167969 92.660156 C 213.964844 92.660156 213.871094 92.660156 213.871094 92.847656 C 213.871094 92.972656 213.949219 92.972656 214.152344 92.972656 L 215.027344 92.972656 C 214.308594 95.800781 214.261719 95.972656 214.261719 96.144531 C 214.261719 96.691406 214.636719 97.066406 215.183594 97.066406 C 216.199219 97.066406 216.761719 95.613281 216.761719 95.535156 C 216.761719 95.425781 216.683594 95.425781 216.652344 95.425781 C 216.558594 95.425781 216.542969 95.457031 216.496094 95.566406 C 216.074219 96.613281 215.542969 96.847656 215.199219 96.847656 C 214.996094 96.847656 214.886719 96.722656 214.886719 96.394531 C 214.886719 96.144531 214.917969 96.082031 214.949219 95.910156 Z M 215.683594 92.972656 "/>
<path style=" stroke:none;fill-rule:nonzero;fill:rgb(38.822937%,38.822937%,100%);fill-opacity:1;" d="M 220.109375 94.457031 C 220.109375 93.691406 220 92.488281 219.453125 91.347656 C 218.859375 90.128906 218 89.472656 217.90625 89.472656 C 217.84375 89.472656 217.796875 89.519531 217.796875 89.582031 C 217.796875 89.613281 217.796875 89.628906 217.984375 89.816406 C 218.96875 90.800781 219.53125 92.378906 219.53125 94.457031 C 219.53125 96.175781 219.171875 97.925781 217.9375 99.175781 C 217.796875 99.300781 217.796875 99.316406 217.796875 99.347656 C 217.796875 99.410156 217.84375 99.457031 217.90625 99.457031 C 218 99.457031 218.90625 98.769531 219.484375 97.503906 C 220 96.410156 220.109375 95.300781 220.109375 94.457031 Z M 220.109375 94.457031 "/>
<path style="fill:none;stroke-width:0.79701;stroke-linecap:butt;stroke-linejoin:miter;stroke:rgb(38.822937%,38.822937%,100%);stroke-opacity:1;stroke-miterlimit:10;" d="M 92.753906 -70 L 127.648438 -70 " transform="matrix(1,0,0,-1,0,0)"/>
<path style=" stroke:none;fill-rule:nonzero;fill:rgb(38.822937%,38.822937%,100%);fill-opacity:1;" d="M 88.089844 70 C 89.472656 70.257812 91.714844 71.035156 93.269531 71.941406 L 93.269531 68.058594 C 91.714844 68.964844 89.472656 69.742188 88.089844 70 "/>
<path style=" stroke:none;fill-rule:nonzero;fill:rgb(38.822937%,38.822937%,100%);fill-opacity:1;" d="M 132.3125 70 C 130.929688 69.742188 128.683594 68.964844 127.128906 68.058594 L 127.128906 71.941406 C 128.683594 71.035156 130.929688 70.257812 132.3125 70 "/>
<path style=" stroke:none;fill-rule:nonzero;fill:rgb(38.822937%,38.822937%,100%);fill-opacity:1;" d="M 108.445312 61.769531 C 108.507812 61.519531 108.742188 60.597656 109.429688 60.597656 C 109.476562 60.597656 109.726562 60.597656 109.929688 60.722656 C 109.648438 60.785156 109.460938 61.019531 109.460938 61.269531 C 109.460938 61.425781 109.570312 61.613281 109.835938 61.613281 C 110.054688 61.613281 110.367188 61.441406 110.367188 61.035156 C 110.367188 60.519531 109.789062 60.378906 109.445312 60.378906 C 108.867188 60.378906 108.523438 60.910156 108.398438 61.128906 C 108.148438 60.472656 107.617188 60.378906 107.320312 60.378906 C 106.289062 60.378906 105.710938 61.660156 105.710938 61.910156 C 105.710938 62.019531 105.820312 62.019531 105.835938 62.019531 C 105.914062 62.019531 105.945312 61.988281 105.960938 61.910156 C 106.304688 60.847656 106.960938 60.597656 107.304688 60.597656 C 107.492188 60.597656 107.835938 60.691406 107.835938 61.269531 C 107.835938 61.582031 107.664062 62.238281 107.304688 63.644531 C 107.148438 64.253906 106.789062 64.675781 106.351562 64.675781 C 106.289062 64.675781 106.070312 64.675781 105.851562 64.550781 C 106.101562 64.488281 106.320312 64.285156 106.320312 64.003906 C 106.320312 63.738281 106.101562 63.660156 105.960938 63.660156 C 105.648438 63.660156 105.414062 63.910156 105.414062 64.238281 C 105.414062 64.691406 105.898438 64.894531 106.335938 64.894531 C 107.007812 64.894531 107.367188 64.191406 107.382812 64.144531 C 107.507812 64.503906 107.867188 64.894531 108.460938 64.894531 C 109.492188 64.894531 110.054688 63.613281 110.054688 63.363281 C 110.054688 63.253906 109.976562 63.253906 109.945312 63.253906 C 109.851562 63.253906 109.835938 63.300781 109.804688 63.363281 C 109.476562 64.441406 108.804688 64.675781 108.492188 64.675781 C 108.101562 64.675781 107.945312 64.363281 107.945312 64.019531 C 107.945312 63.800781 107.992188 63.582031 108.101562 63.144531 Z M 108.445312 61.769531 "/>
<path style=" stroke:none;fill-rule:nonzero;fill:rgb(38.822937%,38.822937%,100%);fill-opacity:1;" d="M 113.140625 61.84375 C 113.140625 61.65625 113.140625 61.65625 112.9375 61.65625 C 112.484375 62.09375 111.859375 62.09375 111.578125 62.09375 L 111.578125 62.34375 C 111.734375 62.34375 112.203125 62.34375 112.578125 62.15625 L 112.578125 65.703125 C 112.578125 65.9375 112.578125 66.03125 111.890625 66.03125 L 111.625 66.03125 L 111.625 66.28125 C 111.75 66.28125 112.609375 66.25 112.859375 66.25 C 113.078125 66.25 113.953125 66.28125 114.109375 66.28125 L 114.109375 66.03125 L 113.84375 66.03125 C 113.140625 66.03125 113.140625 65.9375 113.140625 65.703125 Z M 113.140625 61.84375 "/>
<g clip-path="url(#clip1)" clip-rule="nonzero">
<path style="fill:none;stroke-width:0.79701;stroke-linecap:butt;stroke-linejoin:miter;stroke:rgb(0%,0%,0%);stroke-opacity:1;stroke-miterlimit:10;" d="M 194.40625 -126.199219 C 194.40625 -123.957031 192.589844 -122.144531 190.351562 -122.144531 C 188.113281 -122.144531 186.296875 -123.957031 186.296875 -126.199219 C 186.296875 -128.4375 188.113281 -130.25 190.351562 -130.25 C 192.589844 -130.25 194.40625 -128.4375 194.40625 -126.199219 Z M 144.65625 -126.199219 C 144.65625 -123.957031 142.839844 -122.144531 140.601562 -122.144531 C 138.363281 -122.144531 136.550781 -123.957031 136.550781 -126.199219 C 136.550781 -128.4375 138.363281 -130.25 140.601562 -130.25 C 142.839844 -130.25 144.65625 -128.4375 144.65625 -126.199219 Z M 144.65625 -126.199219 " transform="matrix(1,0,0,-1,0,0)"/>
</g>
<path style="fill:none;stroke-width:0.79701;stroke-linecap:butt;stroke-linejoin:miter;stroke:rgb(38.822937%,38.822937%,100%);stroke-opacity:1;stroke-miterlimit:10;" d="M 88.089844 -110.535156 L 99.144531 -110.535156 M 113.886719 -113.300781 L 99.144531 -113.300781 L 99.144531 -106.851562 L 113.886719 -106.851562 " transform="matrix(1,0,0,-1,0,0)"/>
<path style="fill:none;stroke-width:0.79701;stroke-linecap:butt;stroke-linejoin:miter;stroke:rgb(38.822937%,38.822937%,100%);stroke-opacity:1;stroke-miterlimit:10;" d="M 110.199219 -112.378906 L 110.199219 -108.691406 M 110.199219 -110.535156 L 132.3125 -110.535156 " transform="matrix(1,0,0,-1,0,0)"/>
<path style=" stroke:none;fill-rule:nonzero;fill:rgb(38.822937%,38.822937%,100%);fill-opacity:1;" d="M 109.761719 118.746094 C 109.589844 118.746094 109.464844 118.746094 109.324219 118.871094 C 109.152344 119.027344 109.136719 119.199219 109.136719 119.261719 C 109.136719 119.511719 109.324219 119.621094 109.511719 119.621094 C 109.792969 119.621094 110.058594 119.371094 110.058594 118.980469 C 110.058594 118.496094 109.589844 118.121094 108.886719 118.121094 C 107.542969 118.121094 106.214844 119.542969 106.214844 120.949219 C 106.214844 121.855469 106.792969 122.636719 107.839844 122.636719 C 109.261719 122.636719 110.089844 121.574219 110.089844 121.464844 C 110.089844 121.402344 110.042969 121.324219 109.980469 121.324219 C 109.917969 121.324219 109.902344 121.355469 109.839844 121.433594 C 109.058594 122.417969 107.964844 122.417969 107.855469 122.417969 C 107.230469 122.417969 106.949219 121.933594 106.949219 121.324219 C 106.949219 120.917969 107.152344 119.949219 107.496094 119.339844 C 107.808594 118.761719 108.355469 118.339844 108.902344 118.339844 C 109.230469 118.339844 109.621094 118.464844 109.761719 118.746094 Z M 109.761719 118.746094 "/>
<path style=" stroke:none;fill-rule:nonzero;fill:rgb(38.822937%,38.822937%,100%);fill-opacity:1;" d="M 112.449219 119.585938 C 112.449219 119.398438 112.449219 119.398438 112.246094 119.398438 C 111.792969 119.835938 111.167969 119.835938 110.886719 119.835938 L 110.886719 120.085938 C 111.042969 120.085938 111.511719 120.085938 111.886719 119.898438 L 111.886719 123.445312 C 111.886719 123.679688 111.886719 123.773438 111.199219 123.773438 L 110.933594 123.773438 L 110.933594 124.023438 C 111.058594 124.023438 111.917969 123.992188 112.167969 123.992188 C 112.386719 123.992188 113.261719 124.023438 113.417969 124.023438 L 113.417969 123.773438 L 113.152344 123.773438 C 112.449219 123.773438 112.449219 123.679688 112.449219 123.445312 Z M 112.449219 119.585938 "/>
<path style="fill:none;stroke-width:0.79701;stroke-linecap:butt;stroke-linejoin:miter;stroke:rgb(38.822937%,38.822937%,100%);stroke-opacity:1;stroke-miterlimit:10;" d="M 88.089844 -95.796875 L 88.289062 -95.796875 C 88.914062 -95.796875 89.222656 -93.804688 89.847656 -93.804688 C 90.296875 -93.804688 90.6875 -94.777344 91.089844 -95.796875 C 91.496094 -96.816406 91.886719 -97.789062 92.335938 -97.789062 C 92.789062 -97.789062 93.175781 -96.816406 93.582031 -95.796875 C 93.988281 -94.777344 94.375 -93.804688 94.828125 -93.804688 C 95.277344 -93.804688 95.667969 -94.777344 96.074219 -95.796875 C 96.480469 -96.816406 96.867188 -97.789062 97.316406 -97.789062 C 97.769531 -97.789062 98.15625 -96.816406 98.5625 -95.796875 C 98.96875 -94.777344 99.359375 -93.804688 99.808594 -93.804688 C 100.261719 -93.804688 100.648438 -94.777344 101.054688 -95.796875 C 101.460938 -96.816406 101.847656 -97.789062 102.300781 -97.789062 C 102.75 -97.789062 103.140625 -96.816406 103.546875 -95.796875 C 103.949219 -94.777344 104.339844 -93.804688 104.789062 -93.804688 C 105.242188 -93.804688 105.628906 -94.777344 106.035156 -95.796875 C 106.441406 -96.816406 106.832031 -97.789062 107.28125 -97.789062 C 107.730469 -97.789062 108.121094 -96.816406 108.527344 -95.796875 C 108.933594 -94.777344 109.320312 -93.804688 109.773438 -93.804688 C 110.222656 -93.804688 110.609375 -94.777344 111.015625 -95.796875 C 111.421875 -96.816406 111.8125 -97.789062 112.261719 -97.789062 C 112.714844 -97.789062 113.101562 -96.816406 113.507812 -95.796875 C 113.914062 -94.777344 114.300781 -93.804688 114.753906 -93.804688 C 115.203125 -93.804688 115.59375 -94.777344 116 -95.796875 C 116.40625 -96.816406 116.792969 -97.789062 117.242188 -97.789062 C 117.695312 -97.789062 118.082031 -96.816406 118.488281 -95.796875 C 118.894531 -94.777344 119.285156 -93.804688 119.734375 -93.804688 C 120.183594 -93.804688 120.574219 -94.777344 120.980469 -95.796875 C 121.386719 -96.816406 121.773438 -97.789062 122.226562 -97.789062 C 122.675781 -97.789062 123.066406 -96.816406 123.46875 -95.796875 C 123.875 -94.777344 124.265625 -93.804688 124.714844 -93.804688 C 125.167969 -93.804688 125.554688 -94.777344 125.960938 -95.796875 C 126.367188 -96.816406 126.753906 -97.789062 127.207031 -97.789062 C 127.65625 -97.789062 128.046875 -96.816406 128.453125 -95.796875 C 128.859375 -94.777344 129.246094 -93.804688 129.695312 -93.804688 C 130.320312 -93.804688 130.632812 -95.796875 131.253906 -95.796875 L 132.3125 -95.796875 " transform="matrix(1,0,0,-1,0,0)"/>
<path style=" stroke:none;fill-rule:nonzero;fill:rgb(38.822937%,38.822937%,100%);fill-opacity:1;" d="M 108.230469 82.773438 C 108.230469 82.773438 108.230469 82.664062 108.105469 82.664062 C 107.871094 82.664062 107.152344 82.742188 106.886719 82.773438 C 106.808594 82.773438 106.699219 82.789062 106.699219 82.960938 C 106.699219 83.085938 106.792969 83.085938 106.933594 83.085938 C 107.417969 83.085938 107.433594 83.148438 107.433594 83.257812 L 107.402344 83.460938 L 105.964844 89.195312 C 105.917969 89.335938 105.917969 89.351562 105.917969 89.414062 C 105.917969 89.648438 106.121094 89.695312 106.214844 89.695312 C 106.339844 89.695312 106.480469 89.601562 106.542969 89.492188 C 106.589844 89.398438 107.042969 87.554688 107.105469 87.304688 C 107.449219 87.335938 108.261719 87.492188 108.261719 88.148438 C 108.261719 88.226562 108.261719 88.257812 108.230469 88.367188 C 108.214844 88.476562 108.199219 88.601562 108.199219 88.710938 C 108.199219 89.289062 108.589844 89.695312 109.105469 89.695312 C 109.402344 89.695312 109.683594 89.539062 109.902344 89.164062 C 110.152344 88.726562 110.261719 88.179688 110.261719 88.164062 C 110.261719 88.054688 110.167969 88.054688 110.136719 88.054688 C 110.042969 88.054688 110.027344 88.101562 109.996094 88.242188 C 109.792969 88.960938 109.574219 89.476562 109.136719 89.476562 C 108.933594 89.476562 108.808594 89.367188 108.808594 89.007812 C 108.808594 88.835938 108.855469 88.601562 108.886719 88.445312 C 108.933594 88.273438 108.933594 88.242188 108.933594 88.132812 C 108.933594 87.492188 108.308594 87.210938 107.449219 87.085938 C 107.761719 86.914062 108.089844 86.601562 108.308594 86.351562 C 108.792969 85.820312 109.246094 85.398438 109.730469 85.398438 C 109.792969 85.398438 109.808594 85.398438 109.824219 85.414062 C 109.949219 85.429688 109.949219 85.429688 110.042969 85.492188 C 110.058594 85.492188 110.058594 85.507812 110.074219 85.523438 C 109.605469 85.554688 109.511719 85.945312 109.511719 86.070312 C 109.511719 86.226562 109.621094 86.414062 109.886719 86.414062 C 110.152344 86.414062 110.433594 86.195312 110.433594 85.804688 C 110.433594 85.507812 110.199219 85.179688 109.761719 85.179688 C 109.480469 85.179688 109.027344 85.257812 108.308594 86.054688 C 107.964844 86.429688 107.574219 86.835938 107.199219 86.976562 Z M 108.230469 82.773438 "/>
<path style=" stroke:none;fill-rule:nonzero;fill:rgb(38.822937%,38.822937%,100%);fill-opacity:1;" d="M 112.886719 86.644531 C 112.886719 86.457031 112.886719 86.457031 112.683594 86.457031 C 112.230469 86.894531 111.605469 86.894531 111.324219 86.894531 L 111.324219 87.144531 C 111.480469 87.144531 111.949219 87.144531 112.324219 86.957031 L 112.324219 90.503906 C 112.324219 90.738281 112.324219 90.832031 111.636719 90.832031 L 111.371094 90.832031 L 111.371094 91.082031 C 111.496094 91.082031 112.355469 91.050781 112.605469 91.050781 C 112.824219 91.050781 113.699219 91.082031 113.855469 91.082031 L 113.855469 90.832031 L 113.589844 90.832031 C 112.886719 90.832031 112.886719 90.738281 112.886719 90.503906 Z M 112.886719 86.644531 "/>
<path style="fill:none;stroke-width:0.79701;stroke-linecap:butt;stroke-linejoin:miter;stroke:rgb(29.019165%,70.979309%,29.019165%);stroke-opacity:1;stroke-miterlimit:10;" d="M 132.3125 -49.730469 L 132.511719 -49.730469 C 133.132812 -49.730469 133.445312 -47.738281 134.066406 -47.738281 C 134.519531 -47.738281 134.90625 -48.710938 135.3125 -49.730469 C 135.71875 -50.753906 136.105469 -51.722656 136.558594 -51.722656 C 137.007812 -51.722656 137.398438 -50.753906 137.804688 -49.730469 C 138.210938 -48.710938 138.597656 -47.738281 139.046875 -47.738281 C 139.5 -47.738281 139.886719 -48.710938 140.292969 -49.730469 C 140.699219 -50.753906 141.089844 -51.722656 141.539062 -51.722656 C 141.988281 -51.722656 142.378906 -50.753906 142.785156 -49.730469 C 143.191406 -48.710938 143.578125 -47.738281 144.03125 -47.738281 C 144.480469 -47.738281 144.871094 -48.710938 145.273438 -49.730469 C 145.679688 -50.753906 146.070312 -51.722656 146.519531 -51.722656 C 146.972656 -51.722656 147.359375 -50.753906 147.765625 -49.730469 C 148.171875 -48.710938 148.558594 -47.738281 149.011719 -47.738281 C 149.460938 -47.738281 149.851562 -48.710938 150.257812 -49.730469 C 150.664062 -50.753906 151.050781 -51.722656 151.503906 -51.722656 C 151.953125 -51.722656 152.339844 -50.753906 152.746094 -49.730469 C 153.152344 -48.710938 153.542969 -47.738281 153.992188 -47.738281 C 154.445312 -47.738281 154.832031 -48.710938 155.238281 -49.730469 C 155.644531 -50.753906 156.03125 -51.722656 156.484375 -51.722656 C 156.933594 -51.722656 157.324219 -50.753906 157.730469 -49.730469 C 158.132812 -48.710938 158.523438 -47.738281 158.972656 -47.738281 C 159.425781 -47.738281 159.8125 -48.710938 160.21875 -49.730469 C 160.625 -50.753906 161.015625 -51.722656 161.464844 -51.722656 C 161.914062 -51.722656 162.304688 -50.753906 162.710938 -49.730469 C 163.117188 -48.710938 163.503906 -47.738281 163.957031 -47.738281 C 164.40625 -47.738281 164.792969 -48.710938 165.199219 -49.730469 C 165.605469 -50.753906 165.996094 -51.722656 166.445312 -51.722656 C 167.070312 -51.722656 167.378906 -49.730469 168.003906 -49.730469 L 169.164062 -49.730469 " transform="matrix(1,0,0,-1,0,0)"/>
<path style=" stroke:none;fill-rule:nonzero;fill:rgb(29.019165%,70.979309%,29.019165%);fill-opacity:1;" d="M 148.769531 36.710938 C 148.769531 36.710938 148.769531 36.601562 148.644531 36.601562 C 148.410156 36.601562 147.691406 36.679688 147.425781 36.710938 C 147.347656 36.710938 147.238281 36.726562 147.238281 36.898438 C 147.238281 37.023438 147.332031 37.023438 147.472656 37.023438 C 147.957031 37.023438 147.972656 37.085938 147.972656 37.195312 L 147.941406 37.398438 L 146.503906 43.132812 C 146.457031 43.273438 146.457031 43.289062 146.457031 43.351562 C 146.457031 43.585938 146.660156 43.632812 146.753906 43.632812 C 146.878906 43.632812 147.019531 43.539062 147.082031 43.429688 C 147.128906 43.335938 147.582031 41.492188 147.644531 41.242188 C 147.988281 41.273438 148.800781 41.429688 148.800781 42.085938 C 148.800781 42.164062 148.800781 42.195312 148.769531 42.304688 C 148.753906 42.414062 148.738281 42.539062 148.738281 42.648438 C 148.738281 43.226562 149.128906 43.632812 149.644531 43.632812 C 149.941406 43.632812 150.222656 43.476562 150.441406 43.101562 C 150.691406 42.664062 150.800781 42.117188 150.800781 42.101562 C 150.800781 41.992188 150.707031 41.992188 150.675781 41.992188 C 150.582031 41.992188 150.566406 42.039062 150.535156 42.179688 C 150.332031 42.898438 150.113281 43.414062 149.675781 43.414062 C 149.472656 43.414062 149.347656 43.304688 149.347656 42.945312 C 149.347656 42.773438 149.394531 42.539062 149.425781 42.382812 C 149.472656 42.210938 149.472656 42.179688 149.472656 42.070312 C 149.472656 41.429688 148.847656 41.148438 147.988281 41.023438 C 148.300781 40.851562 148.628906 40.539062 148.847656 40.289062 C 149.332031 39.757812 149.785156 39.335938 150.269531 39.335938 C 150.332031 39.335938 150.347656 39.335938 150.363281 39.351562 C 150.488281 39.367188 150.488281 39.367188 150.582031 39.429688 C 150.597656 39.429688 150.597656 39.445312 150.613281 39.460938 C 150.144531 39.492188 150.050781 39.882812 150.050781 40.007812 C 150.050781 40.164062 150.160156 40.351562 150.425781 40.351562 C 150.691406 40.351562 150.972656 40.132812 150.972656 39.742188 C 150.972656 39.445312 150.738281 39.117188 150.300781 39.117188 C 150.019531 39.117188 149.566406 39.195312 148.847656 39.992188 C 148.503906 40.367188 148.113281 40.773438 147.738281 40.914062 Z M 148.769531 36.710938 "/>
<path style=" stroke:none;fill-rule:nonzero;fill:rgb(29.019165%,70.979309%,29.019165%);fill-opacity:1;" d="M 154.609375 43.75 L 154.375 43.75 C 154.359375 43.90625 154.28125 44.3125 154.1875 44.375 C 154.140625 44.421875 153.609375 44.421875 153.5 44.421875 L 152.21875 44.421875 C 152.953125 43.78125 153.203125 43.578125 153.609375 43.25 C 154.125 42.84375 154.609375 42.40625 154.609375 41.75 C 154.609375 40.90625 153.875 40.390625 152.984375 40.390625 C 152.125 40.390625 151.53125 41 151.53125 41.640625 C 151.53125 41.984375 151.828125 42.03125 151.90625 42.03125 C 152.0625 42.03125 152.265625 41.90625 152.265625 41.65625 C 152.265625 41.53125 152.21875 41.28125 151.859375 41.28125 C 152.078125 40.796875 152.546875 40.640625 152.875 40.640625 C 153.578125 40.640625 153.9375 41.1875 153.9375 41.75 C 153.9375 42.359375 153.5 42.828125 153.28125 43.078125 L 151.609375 44.75 C 151.53125 44.8125 151.53125 44.828125 151.53125 45.015625 L 154.40625 45.015625 Z M 154.609375 43.75 "/>
<path style="fill-rule:nonzero;fill:rgb(100%,96.076965%,39.99939%);fill-opacity:1;stroke-width:0.79701;stroke-linecap:butt;stroke-linejoin:miter;stroke:rgb(100%,49.803162%,0%);stroke-opacity:1;stroke-miterlimit:10;" d="M 169.164062 -38.675781 L 196.800781 -38.675781 L 196.800781 -75.527344 L 169.164062 -75.527344 Z M 169.164062 -38.675781 " transform="matrix(1,0,0,-1,0,0)"/>
<path style=" stroke:none;fill-rule:nonzero;fill:rgb(49.803162%,24.705505%,0%);fill-opacity:1;" d="M 177.246094 57.90625 C 177.214844 58.0625 177.152344 58.296875 177.152344 58.34375 C 177.152344 58.515625 177.292969 58.609375 177.449219 58.609375 C 177.574219 58.609375 177.746094 58.53125 177.824219 58.328125 C 177.824219 58.3125 177.949219 57.84375 178.011719 57.59375 L 178.230469 56.703125 C 178.277344 56.46875 178.339844 56.25 178.402344 56.03125 C 178.433594 55.859375 178.511719 55.5625 178.527344 55.53125 C 178.667969 55.21875 179.199219 54.3125 180.152344 54.3125 C 180.605469 54.3125 180.683594 54.6875 180.683594 55.015625 C 180.683594 55.265625 180.621094 55.546875 180.542969 55.84375 L 180.261719 57 L 180.058594 57.75 C 180.027344 57.953125 179.933594 58.296875 179.933594 58.34375 C 179.933594 58.515625 180.074219 58.609375 180.214844 58.609375 C 180.527344 58.609375 180.589844 58.359375 180.667969 58.046875 C 180.808594 57.484375 181.183594 56.03125 181.261719 55.640625 C 181.292969 55.515625 181.824219 54.3125 182.917969 54.3125 C 183.339844 54.3125 183.449219 54.65625 183.449219 55.015625 C 183.449219 55.578125 183.027344 56.71875 182.824219 57.25 C 182.746094 57.484375 182.699219 57.59375 182.699219 57.796875 C 182.699219 58.265625 183.042969 58.609375 183.511719 58.609375 C 184.449219 58.609375 184.824219 57.15625 184.824219 57.078125 C 184.824219 56.96875 184.730469 56.96875 184.699219 56.96875 C 184.605469 56.96875 184.605469 57 184.558594 57.15625 C 184.402344 57.6875 184.089844 58.390625 183.542969 58.390625 C 183.371094 58.390625 183.292969 58.296875 183.292969 58.0625 C 183.292969 57.8125 183.386719 57.578125 183.480469 57.359375 C 183.667969 56.828125 184.089844 55.734375 184.089844 55.15625 C 184.089844 54.515625 183.683594 54.09375 182.933594 54.09375 C 182.199219 54.09375 181.683594 54.53125 181.308594 55.0625 C 181.308594 54.9375 181.277344 54.59375 180.996094 54.359375 C 180.746094 54.140625 180.433594 54.09375 180.183594 54.09375 C 179.277344 54.09375 178.792969 54.734375 178.621094 54.96875 C 178.574219 54.390625 178.152344 54.09375 177.699219 54.09375 C 177.246094 54.09375 177.058594 54.484375 176.964844 54.65625 C 176.792969 55.015625 176.667969 55.59375 176.667969 55.625 C 176.667969 55.734375 176.761719 55.734375 176.777344 55.734375 C 176.886719 55.734375 176.886719 55.71875 176.949219 55.5 C 177.121094 54.796875 177.324219 54.3125 177.683594 54.3125 C 177.839844 54.3125 177.980469 54.390625 177.980469 54.765625 C 177.980469 54.984375 177.949219 55.09375 177.824219 55.609375 Z M 177.246094 57.90625 "/>
<path style=" stroke:none;fill-rule:nonzero;fill:rgb(49.803162%,24.705505%,0%);fill-opacity:1;" d="M 188.636719 58.730469 L 188.402344 58.730469 C 188.386719 58.886719 188.308594 59.292969 188.214844 59.355469 C 188.167969 59.402344 187.636719 59.402344 187.527344 59.402344 L 186.246094 59.402344 C 186.980469 58.761719 187.230469 58.558594 187.636719 58.230469 C 188.152344 57.824219 188.636719 57.386719 188.636719 56.730469 C 188.636719 55.886719 187.902344 55.371094 187.011719 55.371094 C 186.152344 55.371094 185.558594 55.980469 185.558594 56.621094 C 185.558594 56.964844 185.855469 57.011719 185.933594 57.011719 C 186.089844 57.011719 186.292969 56.886719 186.292969 56.636719 C 186.292969 56.511719 186.246094 56.261719 185.886719 56.261719 C 186.105469 55.777344 186.574219 55.621094 186.902344 55.621094 C 187.605469 55.621094 187.964844 56.167969 187.964844 56.730469 C 187.964844 57.339844 187.527344 57.808594 187.308594 58.058594 L 185.636719 59.730469 C 185.558594 59.792969 185.558594 59.808594 185.558594 59.996094 L 188.433594 59.996094 Z M 188.636719 58.730469 "/>
<path style="fill:none;stroke-width:0.79701;stroke-linecap:butt;stroke-linejoin:miter;stroke:rgb(0%,0%,0%);stroke-opacity:1;stroke-miterlimit:10;" d="M 177.820312 -80.132812 C 177.820312 -77.894531 176.007812 -76.082031 173.769531 -76.082031 C 171.53125 -76.082031 169.714844 -77.894531 169.714844 -80.132812 C 169.714844 -82.371094 171.53125 -84.1875 173.769531 -84.1875 C 176.007812 -84.1875 177.820312 -82.371094 177.820312 -80.132812 Z M 196.246094 -80.132812 C 196.246094 -77.894531 194.433594 -76.082031 192.195312 -76.082031 C 189.957031 -76.082031 188.140625 -77.894531 188.140625 -80.132812 C 188.140625 -82.371094 189.957031 -84.1875 192.195312 -84.1875 C 194.433594 -84.1875 196.246094 -82.371094 196.246094 -80.132812 Z M 196.246094 -80.132812 " transform="matrix(1,0,0,-1,0,0)"/>
<path style="fill:none;stroke-width:0.79701;stroke-linecap:butt;stroke-linejoin:miter;stroke:rgb(100%,49.803162%,0%);stroke-opacity:1;stroke-miterlimit:10;" d="M 182.980469 -38.675781 L 182.980469 -5.511719 " transform="matrix(1,0,0,-1,0,0)"/>
<path style="fill:none;stroke-width:0.79701;stroke-linecap:butt;stroke-linejoin:miter;stroke:rgb(100%,49.803162%,0%);stroke-opacity:1;stroke-miterlimit:10;" d="M 136.972656 -22.09375 L 178.132812 -22.09375 " transform="matrix(1,0,0,-1,0,0)"/>
<path style=" stroke:none;fill-rule:nonzero;fill:rgb(100%,49.803162%,0%);fill-opacity:1;" d="M 132.3125 22.09375 C 133.691406 22.351562 135.9375 23.128906 137.492188 24.035156 L 137.492188 20.152344 C 135.9375 21.058594 133.691406 21.835938 132.3125 22.09375 "/>
<path style=" stroke:none;fill-rule:nonzero;fill:rgb(100%,49.803162%,0%);fill-opacity:1;" d="M 182.796875 22.09375 C 181.414062 21.835938 179.171875 21.058594 177.617188 20.152344 L 177.617188 24.035156 C 179.171875 23.128906 181.414062 22.351562 182.796875 22.09375 "/>
<path style=" stroke:none;fill-rule:nonzero;fill:rgb(100%,49.803162%,0%);fill-opacity:1;" d="M 155.800781 13.863281 C 155.863281 13.613281 156.097656 12.691406 156.785156 12.691406 C 156.832031 12.691406 157.082031 12.691406 157.285156 12.816406 C 157.003906 12.878906 156.816406 13.113281 156.816406 13.363281 C 156.816406 13.519531 156.925781 13.707031 157.191406 13.707031 C 157.410156 13.707031 157.722656 13.535156 157.722656 13.128906 C 157.722656 12.613281 157.144531 12.472656 156.800781 12.472656 C 156.222656 12.472656 155.878906 13.003906 155.753906 13.222656 C 155.503906 12.566406 154.972656 12.472656 154.675781 12.472656 C 153.644531 12.472656 153.066406 13.753906 153.066406 14.003906 C 153.066406 14.113281 153.175781 14.113281 153.191406 14.113281 C 153.269531 14.113281 153.300781 14.082031 153.316406 14.003906 C 153.660156 12.941406 154.316406 12.691406 154.660156 12.691406 C 154.847656 12.691406 155.191406 12.785156 155.191406 13.363281 C 155.191406 13.675781 155.019531 14.332031 154.660156 15.738281 C 154.503906 16.347656 154.144531 16.769531 153.707031 16.769531 C 153.644531 16.769531 153.425781 16.769531 153.207031 16.644531 C 153.457031 16.582031 153.675781 16.378906 153.675781 16.097656 C 153.675781 15.832031 153.457031 15.753906 153.316406 15.753906 C 153.003906 15.753906 152.769531 16.003906 152.769531 16.332031 C 152.769531 16.785156 153.253906 16.988281 153.691406 16.988281 C 154.363281 16.988281 154.722656 16.285156 154.738281 16.238281 C 154.863281 16.597656 155.222656 16.988281 155.816406 16.988281 C 156.847656 16.988281 157.410156 15.707031 157.410156 15.457031 C 157.410156 15.347656 157.332031 15.347656 157.300781 15.347656 C 157.207031 15.347656 157.191406 15.394531 157.160156 15.457031 C 156.832031 16.535156 156.160156 16.769531 155.847656 16.769531 C 155.457031 16.769531 155.300781 16.457031 155.300781 16.113281 C 155.300781 15.894531 155.347656 15.675781 155.457031 15.238281 Z M 155.800781 13.863281 "/>
<path style=" stroke:none;fill-rule:nonzero;fill:rgb(100%,49.803162%,0%);fill-opacity:1;" d="M 161.679688 17.109375 L 161.445312 17.109375 C 161.429688 17.265625 161.351562 17.671875 161.257812 17.734375 C 161.210938 17.78125 160.679688 17.78125 160.570312 17.78125 L 159.289062 17.78125 C 160.023438 17.140625 160.273438 16.9375 160.679688 16.609375 C 161.195312 16.203125 161.679688 15.765625 161.679688 15.109375 C 161.679688 14.265625 160.945312 13.75 160.054688 13.75 C 159.195312 13.75 158.601562 14.359375 158.601562 15 C 158.601562 15.34375 158.898438 15.390625 158.976562 15.390625 C 159.132812 15.390625 159.335938 15.265625 159.335938 15.015625 C 159.335938 14.890625 159.289062 14.640625 158.929688 14.640625 C 159.148438 14.15625 159.617188 14 159.945312 14 C 160.648438 14 161.007812 14.546875 161.007812 15.109375 C 161.007812 15.71875 160.570312 16.1875 160.351562 16.4375 L 158.679688 18.109375 C 158.601562 18.171875 158.601562 18.1875 158.601562 18.375 L 161.476562 18.375 Z M 161.679688 17.109375 "/>
<path style="fill:none;stroke-width:0.79701;stroke-linecap:butt;stroke-linejoin:miter;stroke:rgb(100%,38.822937%,38.822937%);stroke-opacity:1;stroke-miterlimit:10;" d="M 132.3125 -64.472656 L 143.367188 -64.472656 M 158.105469 -67.238281 L 143.367188 -67.238281 L 143.367188 -60.789062 L 158.105469 -60.789062 " transform="matrix(1,0,0,-1,0,0)"/>
<path style="fill:none;stroke-width:0.79701;stroke-linecap:butt;stroke-linejoin:miter;stroke:rgb(100%,38.822937%,38.822937%);stroke-opacity:1;stroke-miterlimit:10;" d="M 154.421875 -66.316406 L 154.421875 -62.628906 M 154.421875 -64.472656 L 169.164062 -64.472656 " transform="matrix(1,0,0,-1,0,0)"/>
<path style=" stroke:none;fill-rule:nonzero;fill:rgb(100%,38.822937%,38.822937%);fill-opacity:1;" d="M 153.984375 72.683594 C 153.8125 72.683594 153.6875 72.683594 153.546875 72.808594 C 153.375 72.964844 153.359375 73.136719 153.359375 73.199219 C 153.359375 73.449219 153.546875 73.558594 153.734375 73.558594 C 154.015625 73.558594 154.28125 73.308594 154.28125 72.917969 C 154.28125 72.433594 153.8125 72.058594 153.109375 72.058594 C 151.765625 72.058594 150.4375 73.480469 150.4375 74.886719 C 150.4375 75.792969 151.015625 76.574219 152.0625 76.574219 C 153.484375 76.574219 154.3125 75.511719 154.3125 75.402344 C 154.3125 75.339844 154.265625 75.261719 154.203125 75.261719 C 154.140625 75.261719 154.125 75.292969 154.0625 75.371094 C 153.28125 76.355469 152.1875 76.355469 152.078125 76.355469 C 151.453125 76.355469 151.171875 75.871094 151.171875 75.261719 C 151.171875 74.855469 151.375 73.886719 151.71875 73.277344 C 152.03125 72.699219 152.578125 72.277344 153.125 72.277344 C 153.453125 72.277344 153.84375 72.402344 153.984375 72.683594 Z M 153.984375 72.683594 "/>
<path style=" stroke:none;fill-rule:nonzero;fill:rgb(100%,38.822937%,38.822937%);fill-opacity:1;" d="M 157.859375 76.695312 L 157.625 76.695312 C 157.609375 76.851562 157.53125 77.257812 157.4375 77.320312 C 157.390625 77.367188 156.859375 77.367188 156.75 77.367188 L 155.46875 77.367188 C 156.203125 76.726562 156.453125 76.523438 156.859375 76.195312 C 157.375 75.789062 157.859375 75.351562 157.859375 74.695312 C 157.859375 73.851562 157.125 73.335938 156.234375 73.335938 C 155.375 73.335938 154.78125 73.945312 154.78125 74.585938 C 154.78125 74.929688 155.078125 74.976562 155.15625 74.976562 C 155.3125 74.976562 155.515625 74.851562 155.515625 74.601562 C 155.515625 74.476562 155.46875 74.226562 155.109375 74.226562 C 155.328125 73.742188 155.796875 73.585938 156.125 73.585938 C 156.828125 73.585938 157.1875 74.132812 157.1875 74.695312 C 157.1875 75.304688 156.75 75.773438 156.53125 76.023438 L 154.859375 77.695312 C 154.78125 77.757812 154.78125 77.773438 154.78125 77.960938 L 157.65625 77.960938 Z M 157.859375 76.695312 "/>
<path style="fill:none;stroke-width:0.79701;stroke-linecap:butt;stroke-linejoin:miter;stroke:rgb(0%,0%,0%);stroke-opacity:1;stroke-miterlimit:10;" d="M 88.089844 -5.511719 L 88.089844 -130.804688 L 222.597656 -130.804688 " transform="matrix(1,0,0,-1,0,0)"/>
<g clip-path="url(#clip2)" clip-rule="nonzero">
<path style="fill:none;stroke-width:0.79701;stroke-linecap:butt;stroke-linejoin:miter;stroke:rgb(0%,0%,0%);stroke-opacity:1;stroke-miterlimit:10;" d="M 88.089844 -5.511719 L 84.082031 -9.519531 M 88.089844 -9.761719 L 84.082031 -13.773438 M 88.089844 -14.015625 L 84.082031 -18.023438 M 88.089844 -18.265625 L 84.082031 -22.277344 M 88.089844 -22.519531 L 84.082031 -26.527344 M 88.089844 -26.769531 L 84.082031 -30.78125 M 88.089844 -31.023438 L 84.082031 -35.03125 M 88.089844 -35.273438 L 84.082031 -39.285156 M 88.089844 -39.527344 L 84.082031 -43.535156 M 88.089844 -43.777344 L 84.082031 -47.789062 M 88.089844 -48.03125 L 84.082031 -52.039062 M 88.089844 -52.28125 L 84.082031 -56.292969 M 88.089844 -56.535156 L 84.082031 -60.542969 M 88.089844 -60.785156 L 84.082031 -64.796875 M 88.089844 -65.039062 L 84.082031 -69.046875 M 88.089844 -69.292969 L 84.082031 -73.300781 M 88.089844 -73.542969 L 84.082031 -77.550781 M 88.089844 -77.796875 L 84.082031 -81.804688 M 88.089844 -82.046875 L 84.082031 -86.054688 M 88.089844 -86.300781 L 84.082031 -90.308594 M 88.089844 -90.550781 L 84.082031 -94.558594 M 88.089844 -94.804688 L 84.082031 -98.8125 M 88.089844 -99.054688 L 84.082031 -103.0625 M 88.089844 -103.308594 L 84.082031 -107.316406 M 88.089844 -107.558594 L 84.082031 -111.566406 M 88.089844 -111.8125 L 84.082031 -115.820312 M 88.089844 -116.0625 L 84.082031 -120.070312 M 88.089844 -120.316406 L 84.082031 -124.324219 M 88.089844 -124.566406 L 84.082031 -128.574219 M 88.089844 -128.820312 L 84.082031 -132.828125 M 90.359375 -130.804688 L 94.367188 -134.8125 M 94.609375 -130.804688 L 98.617188 -134.8125 M 98.863281 -130.804688 L 102.871094 -134.8125 M 103.113281 -130.804688 L 107.121094 -134.8125 M 107.367188 -130.804688 L 111.375 -134.8125 M 111.617188 -130.804688 L 115.625 -134.8125 M 115.871094 -130.804688 L 119.878906 -134.8125 M 120.121094 -130.804688 L 124.128906 -134.8125 M 124.375 -130.804688 L 128.382812 -134.8125 M 128.625 -130.804688 L 132.632812 -134.8125 M 132.878906 -130.804688 L 136.886719 -134.8125 M 137.128906 -130.804688 L 141.136719 -134.8125 M 141.382812 -130.804688 L 145.390625 -134.8125 M 145.632812 -130.804688 L 149.640625 -134.8125 M 149.886719 -130.804688 L 153.894531 -134.8125 M 154.136719 -130.804688 L 158.144531 -134.8125 M 158.390625 -130.804688 L 162.398438 -134.8125 M 162.640625 -130.804688 L 166.652344 -134.8125 M 166.894531 -130.804688 L 170.902344 -134.8125 M 171.144531 -130.804688 L 175.15625 -134.8125 M 175.398438 -130.804688 L 179.40625 -134.8125 M 179.648438 -130.804688 L 183.660156 -134.8125 M 183.902344 -130.804688 L 187.910156 -134.8125 M 188.152344 -130.804688 L 192.164062 -134.8125 M 192.40625 -130.804688 L 196.414062 -134.8125 M 196.65625 -130.804688 L 200.667969 -134.8125 M 200.910156 -130.804688 L 204.917969 -134.8125 M 205.160156 -130.804688 L 209.171875 -134.8125 M 209.414062 -130.804688 L 213.421875 -134.8125 M 213.664062 -130.804688 L 217.675781 -134.8125 M 217.917969 -130.804688 L 221.925781 -134.8125 " transform="matrix(1,0,0,-1,0,0)"/>
</g>
<path style="fill:none;stroke-width:0.79701;stroke-linecap:butt;stroke-linejoin:miter;stroke:rgb(38.822937%,38.822937%,100%);stroke-opacity:1;stroke-miterlimit:10;" d="M 132.3125 -84.738281 L 132.3125 -5.511719 " transform="matrix(1,0,0,-1,0,0)"/>
</g>
</svg>
