<?xml version="1.0" encoding="UTF-8"?>
<svg xmlns="http://www.w3.org/2000/svg" xmlns:xlink="http://www.w3.org/1999/xlink" width="227.770004pt" height="141.139999pt" viewBox="0 0 227.770004 141.139999" version="1.1">
<defs>
<clipPath id="clip1">
  <path d="M 47 112 L 112 112 L 112 140.640625 L 47 140.640625 Z M 47 112 "/>
</clipPath>
<clipPath id="clip2">
  <path d="M 0.5 78 L 70 78 L 70 108 L 0.5 108 Z M 0.5 78 "/>
</clipPath>
<clipPath id="clip3">
  <path d="M 0.5 37 L 164 37 L 164 140.640625 L 0.5 140.640625 Z M 0.5 37 "/>
</clipPath>
</defs>
<g id="surface1">
<path style="fill:none;stroke-width:0.79701;stroke-linecap:butt;stroke-linejoin:miter;stroke:rgb(0%,67.0578%,93.331909%);stroke-opacity:1;stroke-miterlimit:10;" d="M 101.128906 -101.75 L 128.359375 -101.75 " transform="matrix(1,0,0,-1,0,0)"/>
<path style=" stroke:none;fill-rule:nonzero;fill:rgb(0%,67.0578%,93.331909%);fill-opacity:1;" d="M 133.019531 101.75 C 131.640625 101.488281 129.394531 100.710938 127.839844 99.804688 L 127.839844 103.691406 C 129.394531 102.785156 131.640625 102.007812 133.019531 101.75 "/>
<path style=" stroke:none;fill-rule:nonzero;fill:rgb(0%,67.0578%,93.331909%);fill-opacity:1;" d="M 139.753906 101.003906 L 140.722656 101.003906 C 141.472656 101.003906 141.550781 101.160156 141.550781 101.441406 C 141.550781 101.519531 141.550781 101.628906 141.488281 101.941406 C 141.457031 101.988281 141.457031 102.019531 141.457031 102.050781 C 141.457031 102.128906 141.519531 102.160156 141.566406 102.160156 C 141.675781 102.160156 141.675781 102.128906 141.722656 101.957031 L 142.269531 99.785156 C 142.300781 99.675781 142.300781 99.660156 142.300781 99.628906 C 142.300781 99.613281 142.285156 99.519531 142.175781 99.519531 C 142.082031 99.519531 142.066406 99.566406 142.035156 99.738281 C 141.816406 100.503906 141.597656 100.691406 140.738281 100.691406 L 139.832031 100.691406 L 140.472656 98.160156 C 140.566406 97.800781 140.582031 97.769531 141.019531 97.769531 L 142.332031 97.769531 C 143.550781 97.769531 143.785156 98.097656 143.785156 98.863281 C 143.785156 99.097656 143.785156 99.128906 143.753906 99.410156 C 143.738281 99.535156 143.738281 99.550781 143.738281 99.582031 C 143.738281 99.628906 143.769531 99.707031 143.863281 99.707031 C 143.972656 99.707031 143.972656 99.644531 143.988281 99.457031 L 144.191406 97.722656 C 144.222656 97.457031 144.175781 97.457031 143.925781 97.457031 L 139.035156 97.457031 C 138.847656 97.457031 138.738281 97.457031 138.738281 97.660156 C 138.738281 97.769531 138.832031 97.769531 139.019531 97.769531 C 139.394531 97.769531 139.675781 97.769531 139.675781 97.941406 C 139.675781 97.988281 139.675781 98.003906 139.613281 98.191406 L 138.300781 103.457031 C 138.207031 103.847656 138.191406 103.925781 137.394531 103.925781 C 137.222656 103.925781 137.113281 103.925781 137.113281 104.113281 C 137.113281 104.238281 137.238281 104.238281 137.269531 104.238281 C 137.550781 104.238281 138.300781 104.207031 138.582031 104.207031 C 138.910156 104.207031 139.738281 104.238281 140.066406 104.238281 C 140.160156 104.238281 140.269531 104.238281 140.269531 104.050781 C 140.269531 103.972656 140.222656 103.941406 140.222656 103.941406 C 140.191406 103.925781 140.160156 103.925781 139.941406 103.925781 C 139.722656 103.925781 139.675781 103.925781 139.425781 103.910156 C 139.128906 103.878906 139.097656 103.832031 139.097656 103.707031 C 139.097656 103.691406 139.097656 103.628906 139.144531 103.488281 Z M 139.753906 101.003906 "/>
<path style=" stroke:none;fill-rule:nonzero;fill:rgb(0%,67.0578%,93.331909%);fill-opacity:1;" d="M 147.824219 106.628906 C 147.824219 106.597656 147.824219 106.582031 147.652344 106.410156 C 146.417969 105.160156 146.089844 103.269531 146.089844 101.738281 C 146.089844 100.003906 146.464844 98.269531 147.699219 97.035156 C 147.824219 96.910156 147.824219 96.894531 147.824219 96.863281 C 147.824219 96.785156 147.792969 96.753906 147.730469 96.753906 C 147.621094 96.753906 146.730469 97.441406 146.136719 98.707031 C 145.636719 99.800781 145.511719 100.910156 145.511719 101.738281 C 145.511719 102.519531 145.621094 103.722656 146.167969 104.863281 C 146.777344 106.082031 147.621094 106.738281 147.730469 106.738281 C 147.792969 106.738281 147.824219 106.707031 147.824219 106.628906 Z M 147.824219 106.628906 "/>
<path style=" stroke:none;fill-rule:nonzero;fill:rgb(0%,67.0578%,93.331909%);fill-opacity:1;" d="M 150.449219 100.253906 L 151.386719 100.253906 C 151.589844 100.253906 151.699219 100.253906 151.699219 100.050781 C 151.699219 99.941406 151.589844 99.941406 151.417969 99.941406 L 150.542969 99.941406 C 150.902344 98.519531 150.949219 98.332031 150.949219 98.269531 C 150.949219 98.097656 150.824219 98.003906 150.652344 98.003906 C 150.621094 98.003906 150.339844 98.003906 150.261719 98.363281 L 149.871094 99.941406 L 148.933594 99.941406 C 148.730469 99.941406 148.636719 99.941406 148.636719 100.128906 C 148.636719 100.253906 148.714844 100.253906 148.917969 100.253906 L 149.792969 100.253906 C 149.074219 103.082031 149.027344 103.253906 149.027344 103.425781 C 149.027344 103.972656 149.402344 104.347656 149.949219 104.347656 C 150.964844 104.347656 151.527344 102.894531 151.527344 102.816406 C 151.527344 102.707031 151.449219 102.707031 151.417969 102.707031 C 151.324219 102.707031 151.308594 102.738281 151.261719 102.847656 C 150.839844 103.894531 150.308594 104.128906 149.964844 104.128906 C 149.761719 104.128906 149.652344 104.003906 149.652344 103.675781 C 149.652344 103.425781 149.683594 103.363281 149.714844 103.191406 Z M 150.449219 100.253906 "/>
<path style=" stroke:none;fill-rule:nonzero;fill:rgb(0%,67.0578%,93.331909%);fill-opacity:1;" d="M 154.875 101.738281 C 154.875 100.972656 154.765625 99.769531 154.21875 98.628906 C 153.625 97.410156 152.765625 96.753906 152.671875 96.753906 C 152.609375 96.753906 152.5625 96.800781 152.5625 96.863281 C 152.5625 96.894531 152.5625 96.910156 152.75 97.097656 C 153.734375 98.082031 154.296875 99.660156 154.296875 101.738281 C 154.296875 103.457031 153.9375 105.207031 152.703125 106.457031 C 152.5625 106.582031 152.5625 106.597656 152.5625 106.628906 C 152.5625 106.691406 152.609375 106.738281 152.671875 106.738281 C 152.765625 106.738281 153.671875 106.050781 154.25 104.785156 C 154.765625 103.691406 154.875 102.582031 154.875 101.738281 Z M 154.875 101.738281 "/>
<path style=" stroke:none;fill-rule:nonzero;fill:rgb(0%,67.0578%,93.331909%);fill-opacity:1;" d="M 165.480469 100.972656 C 165.636719 100.972656 165.824219 100.972656 165.824219 100.785156 C 165.824219 100.582031 165.636719 100.582031 165.496094 100.582031 L 159.527344 100.582031 C 159.386719 100.582031 159.199219 100.582031 159.199219 100.785156 C 159.199219 100.972656 159.386719 100.972656 159.527344 100.972656 Z M 165.496094 102.910156 C 165.636719 102.910156 165.824219 102.910156 165.824219 102.707031 C 165.824219 102.519531 165.636719 102.519531 165.480469 102.519531 L 159.527344 102.519531 C 159.386719 102.519531 159.199219 102.519531 159.199219 102.707031 C 159.199219 102.910156 159.386719 102.910156 159.527344 102.910156 Z M 165.496094 102.910156 "/>
<path style=" stroke:none;fill-rule:nonzero;fill:rgb(0%,67.0578%,93.331909%);fill-opacity:1;" d="M 172.175781 101.003906 L 173.144531 101.003906 C 173.894531 101.003906 173.972656 101.160156 173.972656 101.441406 C 173.972656 101.519531 173.972656 101.628906 173.910156 101.941406 C 173.878906 101.988281 173.878906 102.019531 173.878906 102.050781 C 173.878906 102.128906 173.941406 102.160156 173.988281 102.160156 C 174.097656 102.160156 174.097656 102.128906 174.144531 101.957031 L 174.691406 99.785156 C 174.722656 99.675781 174.722656 99.660156 174.722656 99.628906 C 174.722656 99.613281 174.707031 99.519531 174.597656 99.519531 C 174.503906 99.519531 174.488281 99.566406 174.457031 99.738281 C 174.238281 100.503906 174.019531 100.691406 173.160156 100.691406 L 172.253906 100.691406 L 172.894531 98.160156 C 172.988281 97.800781 173.003906 97.769531 173.441406 97.769531 L 174.753906 97.769531 C 175.972656 97.769531 176.207031 98.097656 176.207031 98.863281 C 176.207031 99.097656 176.207031 99.128906 176.175781 99.410156 C 176.160156 99.535156 176.160156 99.550781 176.160156 99.582031 C 176.160156 99.628906 176.191406 99.707031 176.285156 99.707031 C 176.394531 99.707031 176.394531 99.644531 176.410156 99.457031 L 176.613281 97.722656 C 176.644531 97.457031 176.597656 97.457031 176.347656 97.457031 L 171.457031 97.457031 C 171.269531 97.457031 171.160156 97.457031 171.160156 97.660156 C 171.160156 97.769531 171.253906 97.769531 171.441406 97.769531 C 171.816406 97.769531 172.097656 97.769531 172.097656 97.941406 C 172.097656 97.988281 172.097656 98.003906 172.035156 98.191406 L 170.722656 103.457031 C 170.628906 103.847656 170.613281 103.925781 169.816406 103.925781 C 169.644531 103.925781 169.535156 103.925781 169.535156 104.113281 C 169.535156 104.238281 169.660156 104.238281 169.691406 104.238281 C 169.972656 104.238281 170.722656 104.207031 171.003906 104.207031 C 171.332031 104.207031 172.160156 104.238281 172.488281 104.238281 C 172.582031 104.238281 172.691406 104.238281 172.691406 104.050781 C 172.691406 103.972656 172.644531 103.941406 172.644531 103.941406 C 172.613281 103.925781 172.582031 103.925781 172.363281 103.925781 C 172.144531 103.925781 172.097656 103.925781 171.847656 103.910156 C 171.550781 103.878906 171.519531 103.832031 171.519531 103.707031 C 171.519531 103.691406 171.519531 103.628906 171.566406 103.488281 Z M 172.175781 101.003906 "/>
<path style=" stroke:none;fill-rule:nonzero;fill:rgb(0%,67.0578%,93.331909%);fill-opacity:1;" d="M 179.160156 103.515625 C 179.160156 102.75 179.066406 102.1875 178.753906 101.703125 C 178.535156 101.390625 178.097656 101.109375 177.550781 101.109375 C 175.925781 101.109375 175.925781 103.015625 175.925781 103.515625 C 175.925781 104.015625 175.925781 105.875 177.550781 105.875 C 179.160156 105.875 179.160156 104.015625 179.160156 103.515625 Z M 177.550781 105.671875 C 177.222656 105.671875 176.800781 105.484375 176.660156 104.921875 C 176.566406 104.515625 176.566406 103.9375 176.566406 103.421875 C 176.566406 102.90625 176.566406 102.375 176.660156 102 C 176.816406 101.453125 177.253906 101.296875 177.550781 101.296875 C 177.925781 101.296875 178.285156 101.53125 178.410156 101.9375 C 178.519531 102.3125 178.535156 102.8125 178.535156 103.421875 C 178.535156 103.9375 178.535156 104.453125 178.441406 104.890625 C 178.300781 105.53125 177.832031 105.671875 177.550781 105.671875 Z M 177.550781 105.671875 "/>
<path style=" stroke:none;fill-rule:nonzero;fill:rgb(0%,67.0578%,93.331909%);fill-opacity:1;" d="M 185.289062 102.957031 C 185.289062 102.441406 184.992188 102.128906 184.867188 102.019531 C 184.539062 101.691406 184.148438 101.613281 183.726562 101.535156 C 183.164062 101.425781 182.507812 101.300781 182.507812 100.722656 C 182.507812 100.363281 182.757812 99.957031 183.617188 99.957031 C 184.710938 99.957031 184.773438 100.863281 184.789062 101.160156 C 184.789062 101.253906 184.898438 101.253906 184.898438 101.253906 C 185.039062 101.253906 185.039062 101.207031 185.039062 101.019531 L 185.039062 100.003906 C 185.039062 99.847656 185.039062 99.769531 184.929688 99.769531 C 184.882812 99.769531 184.851562 99.769531 184.726562 99.894531 C 184.695312 99.925781 184.601562 100.019531 184.554688 100.050781 C 184.179688 99.769531 183.773438 99.769531 183.617188 99.769531 C 182.398438 99.769531 182.023438 100.441406 182.023438 101.003906 C 182.023438 101.347656 182.179688 101.628906 182.445312 101.847656 C 182.773438 102.097656 183.054688 102.160156 183.773438 102.300781 C 183.992188 102.347656 184.804688 102.503906 184.804688 103.222656 C 184.804688 103.722656 184.460938 104.128906 183.679688 104.128906 C 182.835938 104.128906 182.476562 103.566406 182.289062 102.707031 C 182.257812 102.582031 182.257812 102.550781 182.148438 102.550781 C 182.023438 102.550781 182.023438 102.613281 182.023438 102.785156 L 182.023438 104.113281 C 182.023438 104.285156 182.023438 104.347656 182.132812 104.347656 C 182.179688 104.347656 182.195312 104.332031 182.382812 104.144531 C 182.398438 104.128906 182.398438 104.113281 182.585938 103.925781 C 183.023438 104.332031 183.476562 104.347656 183.679688 104.347656 C 184.820312 104.347656 185.289062 103.675781 185.289062 102.957031 Z M 185.289062 102.957031 "/>
<path style=" stroke:none;fill-rule:nonzero;fill:rgb(0%,67.0578%,93.331909%);fill-opacity:1;" d="M 188.089844 104.238281 L 188.089844 103.925781 C 187.417969 103.925781 187.386719 103.878906 187.386719 103.488281 L 187.386719 99.832031 L 185.996094 99.941406 L 185.996094 100.253906 C 186.636719 100.253906 186.730469 100.316406 186.730469 100.800781 L 186.730469 103.488281 C 186.730469 103.925781 186.621094 103.925781 185.949219 103.925781 L 185.949219 104.238281 L 187.042969 104.207031 C 187.402344 104.207031 187.746094 104.222656 188.089844 104.238281 Z M 187.527344 98.222656 C 187.527344 97.941406 187.308594 97.691406 187.011719 97.691406 C 186.667969 97.691406 186.464844 97.972656 186.464844 98.222656 C 186.464844 98.488281 186.699219 98.738281 186.996094 98.738281 C 187.339844 98.738281 187.527344 98.472656 187.527344 98.222656 Z M 187.527344 98.222656 "/>
<path style=" stroke:none;fill-rule:nonzero;fill:rgb(0%,67.0578%,93.331909%);fill-opacity:1;" d="M 193.71875 104.238281 L 193.71875 103.925781 C 193.203125 103.925781 192.953125 103.925781 192.953125 103.628906 L 192.953125 101.722656 C 192.953125 100.863281 192.953125 100.566406 192.640625 100.207031 C 192.5 100.035156 192.171875 99.832031 191.59375 99.832031 C 190.859375 99.832031 190.390625 100.253906 190.109375 100.878906 L 190.109375 99.832031 L 188.703125 99.941406 L 188.703125 100.253906 C 189.40625 100.253906 189.484375 100.316406 189.484375 100.816406 L 189.484375 103.488281 C 189.484375 103.925781 189.375 103.925781 188.703125 103.925781 L 188.703125 104.238281 L 189.84375 104.207031 L 190.953125 104.238281 L 190.953125 103.925781 C 190.28125 103.925781 190.171875 103.925781 190.171875 103.488281 L 190.171875 101.644531 C 190.171875 100.613281 190.890625 100.050781 191.515625 100.050781 C 192.15625 100.050781 192.265625 100.582031 192.265625 101.160156 L 192.265625 103.488281 C 192.265625 103.925781 192.15625 103.925781 191.484375 103.925781 L 191.484375 104.238281 L 192.609375 104.207031 Z M 193.71875 104.238281 "/>
<path style=" stroke:none;fill-rule:nonzero;fill:rgb(0%,67.0578%,93.331909%);fill-opacity:1;" d="M 197.226562 106.628906 C 197.226562 106.597656 197.226562 106.582031 197.054688 106.410156 C 195.820312 105.160156 195.492188 103.269531 195.492188 101.738281 C 195.492188 100.003906 195.867188 98.269531 197.101562 97.035156 C 197.226562 96.910156 197.226562 96.894531 197.226562 96.863281 C 197.226562 96.785156 197.195312 96.753906 197.132812 96.753906 C 197.023438 96.753906 196.132812 97.441406 195.539062 98.707031 C 195.039062 99.800781 194.914062 100.910156 194.914062 101.738281 C 194.914062 102.519531 195.023438 103.722656 195.570312 104.863281 C 196.179688 106.082031 197.023438 106.738281 197.132812 106.738281 C 197.195312 106.738281 197.226562 106.707031 197.226562 106.628906 Z M 197.226562 106.628906 "/>
<path style=" stroke:none;fill-rule:nonzero;fill:rgb(0%,67.0578%,93.331909%);fill-opacity:1;" d="M 203.835938 100.535156 C 203.835938 100.082031 203.664062 99.832031 203.429688 99.832031 C 203.179688 99.832031 202.914062 100.066406 202.914062 100.300781 C 202.914062 100.394531 202.960938 100.503906 203.054688 100.597656 C 203.226562 100.753906 203.414062 101.019531 203.414062 101.441406 C 203.414062 101.832031 203.210938 102.410156 202.914062 102.863281 C 202.617188 103.285156 202.242188 103.628906 201.773438 103.628906 C 201.210938 103.628906 200.898438 103.269531 200.804688 102.738281 C 200.914062 102.472656 201.148438 101.832031 201.148438 101.550781 C 201.148438 101.441406 201.101562 101.332031 200.960938 101.332031 C 200.882812 101.332031 200.773438 101.363281 200.695312 101.503906 C 200.585938 101.707031 200.460938 102.347656 200.460938 102.707031 C 200.132812 103.175781 199.742188 103.628906 199.117188 103.628906 C 198.445312 103.628906 198.242188 103.035156 198.242188 102.488281 C 198.242188 101.238281 199.257812 100.191406 199.257812 100.066406 C 199.257812 99.957031 199.179688 99.878906 199.070312 99.878906 C 198.945312 99.878906 198.867188 100.003906 198.804688 100.097656 C 198.304688 100.832031 197.929688 102.019531 197.929688 102.925781 C 197.929688 103.613281 198.148438 104.347656 198.976562 104.347656 C 199.679688 104.347656 200.148438 103.847656 200.507812 103.300781 C 200.601562 103.878906 200.992188 104.347656 201.601562 104.347656 C 202.382812 104.347656 202.851562 103.738281 203.210938 102.988281 C 203.460938 102.503906 203.835938 101.144531 203.835938 100.535156 Z M 203.835938 100.535156 "/>
<path style=" stroke:none;fill-rule:nonzero;fill:rgb(0%,67.0578%,93.331909%);fill-opacity:1;" d="M 206.402344 100.253906 L 207.339844 100.253906 C 207.542969 100.253906 207.652344 100.253906 207.652344 100.050781 C 207.652344 99.941406 207.542969 99.941406 207.371094 99.941406 L 206.496094 99.941406 C 206.855469 98.519531 206.902344 98.332031 206.902344 98.269531 C 206.902344 98.097656 206.777344 98.003906 206.605469 98.003906 C 206.574219 98.003906 206.292969 98.003906 206.214844 98.363281 L 205.824219 99.941406 L 204.886719 99.941406 C 204.683594 99.941406 204.589844 99.941406 204.589844 100.128906 C 204.589844 100.253906 204.667969 100.253906 204.871094 100.253906 L 205.746094 100.253906 C 205.027344 103.082031 204.980469 103.253906 204.980469 103.425781 C 204.980469 103.972656 205.355469 104.347656 205.902344 104.347656 C 206.917969 104.347656 207.480469 102.894531 207.480469 102.816406 C 207.480469 102.707031 207.402344 102.707031 207.371094 102.707031 C 207.277344 102.707031 207.261719 102.738281 207.214844 102.847656 C 206.792969 103.894531 206.261719 104.128906 205.917969 104.128906 C 205.714844 104.128906 205.605469 104.003906 205.605469 103.675781 C 205.605469 103.425781 205.636719 103.363281 205.667969 103.191406 Z M 206.402344 100.253906 "/>
<path style=" stroke:none;fill-rule:nonzero;fill:rgb(0%,67.0578%,93.331909%);fill-opacity:1;" d="M 210.835938 101.738281 C 210.835938 100.972656 210.726562 99.769531 210.179688 98.628906 C 209.585938 97.410156 208.726562 96.753906 208.632812 96.753906 C 208.570312 96.753906 208.523438 96.800781 208.523438 96.863281 C 208.523438 96.894531 208.523438 96.910156 208.710938 97.097656 C 209.695312 98.082031 210.257812 99.660156 210.257812 101.738281 C 210.257812 103.457031 209.898438 105.207031 208.664062 106.457031 C 208.523438 106.582031 208.523438 106.597656 208.523438 106.628906 C 208.523438 106.691406 208.570312 106.738281 208.632812 106.738281 C 208.726562 106.738281 209.632812 106.050781 210.210938 104.785156 C 210.726562 103.691406 210.835938 102.582031 210.835938 101.738281 Z M 210.835938 101.738281 "/>
<path style="fill:none;stroke-width:0.79701;stroke-linecap:butt;stroke-linejoin:miter;stroke:rgb(38.822937%,38.822937%,100%);stroke-opacity:1;stroke-miterlimit:10;" d="M 12.25 -65.605469 L 75.207031 -65.605469 " transform="matrix(1,0,0,-1,0,0)"/>
<path style=" stroke:none;fill-rule:nonzero;fill:rgb(38.822937%,38.822937%,100%);fill-opacity:1;" d="M 7.585938 65.605469 C 8.96875 65.867188 11.210938 66.640625 12.765625 67.550781 L 12.765625 63.664062 C 11.210938 64.570312 8.96875 65.347656 7.585938 65.605469 "/>
<path style=" stroke:none;fill-rule:nonzero;fill:rgb(38.822937%,38.822937%,100%);fill-opacity:1;" d="M 79.871094 65.605469 C 78.488281 65.347656 76.242188 64.570312 74.6875 63.664062 L 74.6875 67.550781 C 76.242188 66.640625 78.488281 65.867188 79.871094 65.605469 "/>
<path style=" stroke:none;fill-rule:nonzero;fill:rgb(38.822937%,38.822937%,100%);fill-opacity:1;" d="M 41.972656 57.378906 C 42.035156 57.128906 42.269531 56.207031 42.957031 56.207031 C 43.003906 56.207031 43.253906 56.207031 43.457031 56.332031 C 43.175781 56.394531 42.988281 56.628906 42.988281 56.878906 C 42.988281 57.035156 43.097656 57.222656 43.363281 57.222656 C 43.582031 57.222656 43.894531 57.050781 43.894531 56.644531 C 43.894531 56.128906 43.316406 55.988281 42.972656 55.988281 C 42.394531 55.988281 42.050781 56.519531 41.925781 56.738281 C 41.675781 56.082031 41.144531 55.988281 40.847656 55.988281 C 39.816406 55.988281 39.238281 57.269531 39.238281 57.519531 C 39.238281 57.628906 39.347656 57.628906 39.363281 57.628906 C 39.441406 57.628906 39.472656 57.597656 39.488281 57.519531 C 39.832031 56.457031 40.488281 56.207031 40.832031 56.207031 C 41.019531 56.207031 41.363281 56.300781 41.363281 56.878906 C 41.363281 57.191406 41.191406 57.847656 40.832031 59.253906 C 40.675781 59.863281 40.316406 60.285156 39.878906 60.285156 C 39.816406 60.285156 39.597656 60.285156 39.378906 60.160156 C 39.628906 60.097656 39.847656 59.894531 39.847656 59.613281 C 39.847656 59.347656 39.628906 59.269531 39.488281 59.269531 C 39.175781 59.269531 38.941406 59.519531 38.941406 59.847656 C 38.941406 60.300781 39.425781 60.503906 39.863281 60.503906 C 40.535156 60.503906 40.894531 59.800781 40.910156 59.753906 C 41.035156 60.113281 41.394531 60.503906 41.988281 60.503906 C 43.019531 60.503906 43.582031 59.222656 43.582031 58.972656 C 43.582031 58.863281 43.503906 58.863281 43.472656 58.863281 C 43.378906 58.863281 43.363281 58.910156 43.332031 58.972656 C 43.003906 60.050781 42.332031 60.285156 42.019531 60.285156 C 41.628906 60.285156 41.472656 59.972656 41.472656 59.628906 C 41.472656 59.410156 41.519531 59.191406 41.628906 58.753906 Z M 41.972656 57.378906 "/>
<path style=" stroke:none;fill-rule:nonzero;fill:rgb(38.822937%,38.822937%,100%);fill-opacity:1;" d="M 46.667969 57.449219 C 46.667969 57.261719 46.667969 57.261719 46.464844 57.261719 C 46.011719 57.699219 45.386719 57.699219 45.105469 57.699219 L 45.105469 57.949219 C 45.261719 57.949219 45.730469 57.949219 46.105469 57.761719 L 46.105469 61.308594 C 46.105469 61.542969 46.105469 61.636719 45.417969 61.636719 L 45.152344 61.636719 L 45.152344 61.886719 C 45.277344 61.886719 46.136719 61.855469 46.386719 61.855469 C 46.605469 61.855469 47.480469 61.886719 47.636719 61.886719 L 47.636719 61.636719 L 47.371094 61.636719 C 46.667969 61.636719 46.667969 61.542969 46.667969 61.308594 Z M 46.667969 57.449219 "/>
<path style="fill:none;stroke-width:0.79701;stroke-linecap:butt;stroke-linejoin:miter;stroke:rgb(38.822937%,38.822937%,100%);stroke-opacity:1;stroke-miterlimit:10;" d="M 7.585938 -48.597656 L 7.585938 -31.589844 " transform="matrix(1,0,0,-1,0,0)"/>
<path style=" stroke:none;fill-rule:nonzero;fill:rgb(38.822937%,38.822937%,100%);fill-opacity:1;" d="M 6.828125 23.363281 C 6.890625 23.113281 7.125 22.191406 7.8125 22.191406 C 7.859375 22.191406 8.109375 22.191406 8.3125 22.316406 C 8.03125 22.378906 7.84375 22.613281 7.84375 22.863281 C 7.84375 23.019531 7.953125 23.207031 8.21875 23.207031 C 8.4375 23.207031 8.75 23.035156 8.75 22.628906 C 8.75 22.113281 8.171875 21.972656 7.828125 21.972656 C 7.25 21.972656 6.90625 22.503906 6.78125 22.722656 C 6.53125 22.066406 6 21.972656 5.703125 21.972656 C 4.671875 21.972656 4.09375 23.253906 4.09375 23.503906 C 4.09375 23.613281 4.203125 23.613281 4.21875 23.613281 C 4.296875 23.613281 4.328125 23.582031 4.34375 23.503906 C 4.6875 22.441406 5.34375 22.191406 5.6875 22.191406 C 5.875 22.191406 6.21875 22.285156 6.21875 22.863281 C 6.21875 23.175781 6.046875 23.832031 5.6875 25.238281 C 5.53125 25.847656 5.171875 26.269531 4.734375 26.269531 C 4.671875 26.269531 4.453125 26.269531 4.234375 26.144531 C 4.484375 26.082031 4.703125 25.878906 4.703125 25.597656 C 4.703125 25.332031 4.484375 25.253906 4.34375 25.253906 C 4.03125 25.253906 3.796875 25.503906 3.796875 25.832031 C 3.796875 26.285156 4.28125 26.488281 4.71875 26.488281 C 5.390625 26.488281 5.75 25.785156 5.765625 25.738281 C 5.890625 26.097656 6.25 26.488281 6.84375 26.488281 C 7.875 26.488281 8.4375 25.207031 8.4375 24.957031 C 8.4375 24.847656 8.359375 24.847656 8.328125 24.847656 C 8.234375 24.847656 8.21875 24.894531 8.1875 24.957031 C 7.859375 26.035156 7.1875 26.269531 6.875 26.269531 C 6.484375 26.269531 6.328125 25.957031 6.328125 25.613281 C 6.328125 25.394531 6.375 25.175781 6.484375 24.738281 Z M 6.828125 23.363281 "/>
<path style=" stroke:none;fill-rule:nonzero;fill:rgb(38.822937%,38.822937%,100%);fill-opacity:1;" d="M 12.789062 25.652344 C 12.789062 24.886719 12.695312 24.324219 12.382812 23.839844 C 12.164062 23.527344 11.726562 23.246094 11.179688 23.246094 C 9.554688 23.246094 9.554688 25.152344 9.554688 25.652344 C 9.554688 26.152344 9.554688 28.011719 11.179688 28.011719 C 12.789062 28.011719 12.789062 26.152344 12.789062 25.652344 Z M 11.179688 27.808594 C 10.851562 27.808594 10.429688 27.621094 10.289062 27.058594 C 10.195312 26.652344 10.195312 26.074219 10.195312 25.558594 C 10.195312 25.042969 10.195312 24.511719 10.289062 24.136719 C 10.445312 23.589844 10.882812 23.433594 11.179688 23.433594 C 11.554688 23.433594 11.914062 23.667969 12.039062 24.074219 C 12.148438 24.449219 12.164062 24.949219 12.164062 25.558594 C 12.164062 26.074219 12.164062 26.589844 12.070312 27.027344 C 11.929688 27.667969 11.460938 27.808594 11.179688 27.808594 Z M 11.179688 27.808594 "/>
<g clip-path="url(#clip1)" clip-rule="nonzero">
<path style="fill:none;stroke-width:0.79701;stroke-linecap:butt;stroke-linejoin:miter;stroke:rgb(0%,0%,0%);stroke-opacity:1;stroke-miterlimit:10;" d="M 100.492188 -128.324219 C 100.492188 -125.742188 98.398438 -123.648438 95.816406 -123.648438 C 93.230469 -123.648438 91.136719 -125.742188 91.136719 -128.324219 C 91.136719 -130.90625 93.230469 -133 95.816406 -133 C 98.398438 -133 100.492188 -130.90625 100.492188 -128.324219 Z M 68.601562 -128.324219 C 68.601562 -125.742188 66.507812 -123.648438 63.925781 -123.648438 C 61.339844 -123.648438 59.246094 -125.742188 59.246094 -128.324219 C 59.246094 -130.90625 61.339844 -133 63.925781 -133 C 66.507812 -133 68.601562 -130.90625 68.601562 -128.324219 Z M 68.601562 -128.324219 " transform="matrix(1,0,0,-1,0,0)"/>
</g>
<path style="fill:none;stroke-width:0.79701;stroke-linecap:butt;stroke-linejoin:miter;stroke:rgb(100%,38.822937%,38.822937%);stroke-opacity:1;stroke-miterlimit:10;" d="M 7.585938 -110.253906 L 20.34375 -110.253906 M 37.351562 -113.441406 L 20.34375 -113.441406 L 20.34375 -106 L 37.351562 -106 " transform="matrix(1,0,0,-1,0,0)"/>
<path style="fill:none;stroke-width:0.79701;stroke-linecap:butt;stroke-linejoin:miter;stroke:rgb(100%,38.822937%,38.822937%);stroke-opacity:1;stroke-miterlimit:10;" d="M 33.097656 -112.378906 L 33.097656 -108.125 M 33.097656 -110.253906 L 58.609375 -110.253906 " transform="matrix(1,0,0,-1,0,0)"/>
<path style=" stroke:none;fill-rule:nonzero;fill:rgb(100%,38.822937%,38.822937%);fill-opacity:1;" d="M 32.660156 118.464844 C 32.488281 118.464844 32.363281 118.464844 32.222656 118.589844 C 32.050781 118.746094 32.035156 118.917969 32.035156 118.980469 C 32.035156 119.230469 32.222656 119.339844 32.410156 119.339844 C 32.691406 119.339844 32.957031 119.089844 32.957031 118.699219 C 32.957031 118.214844 32.488281 117.839844 31.785156 117.839844 C 30.441406 117.839844 29.113281 119.261719 29.113281 120.667969 C 29.113281 121.574219 29.691406 122.355469 30.738281 122.355469 C 32.160156 122.355469 32.988281 121.292969 32.988281 121.183594 C 32.988281 121.121094 32.941406 121.042969 32.878906 121.042969 C 32.816406 121.042969 32.800781 121.074219 32.738281 121.152344 C 31.957031 122.136719 30.863281 122.136719 30.753906 122.136719 C 30.128906 122.136719 29.847656 121.652344 29.847656 121.042969 C 29.847656 120.636719 30.050781 119.667969 30.394531 119.058594 C 30.707031 118.480469 31.253906 118.058594 31.800781 118.058594 C 32.128906 118.058594 32.519531 118.183594 32.660156 118.464844 Z M 32.660156 118.464844 "/>
<path style=" stroke:none;fill-rule:nonzero;fill:rgb(100%,38.822937%,38.822937%);fill-opacity:1;" d="M 35.347656 119.304688 C 35.347656 119.117188 35.347656 119.117188 35.144531 119.117188 C 34.691406 119.554688 34.066406 119.554688 33.785156 119.554688 L 33.785156 119.804688 C 33.941406 119.804688 34.410156 119.804688 34.785156 119.617188 L 34.785156 123.164062 C 34.785156 123.398438 34.785156 123.492188 34.097656 123.492188 L 33.832031 123.492188 L 33.832031 123.742188 C 33.957031 123.742188 34.816406 123.710938 35.066406 123.710938 C 35.285156 123.710938 36.160156 123.742188 36.316406 123.742188 L 36.316406 123.492188 L 36.050781 123.492188 C 35.347656 123.492188 35.347656 123.398438 35.347656 123.164062 Z M 35.347656 119.304688 "/>
<g clip-path="url(#clip2)" clip-rule="nonzero">
<path style="fill:none;stroke-width:0.79701;stroke-linecap:butt;stroke-linejoin:miter;stroke:rgb(29.019165%,70.979309%,29.019165%);stroke-opacity:1;stroke-miterlimit:10;" d="M 7.585938 -93.246094 L 9.578125 -93.246094 C 10.449219 -93.246094 10.886719 -90.257812 11.757812 -90.257812 C 12.390625 -90.257812 12.933594 -91.714844 13.5 -93.246094 C 14.070312 -94.773438 14.613281 -96.234375 15.246094 -96.234375 C 15.875 -96.234375 16.417969 -94.773438 16.988281 -93.246094 C 17.554688 -91.714844 18.101562 -90.257812 18.730469 -90.257812 C 19.363281 -90.257812 19.90625 -91.714844 20.476562 -93.246094 C 21.042969 -94.773438 21.585938 -96.234375 22.21875 -96.234375 C 22.851562 -96.234375 23.394531 -94.773438 23.960938 -93.246094 C 24.53125 -91.714844 25.074219 -90.257812 25.707031 -90.257812 C 26.335938 -90.257812 26.878906 -91.714844 27.449219 -93.246094 C 28.015625 -94.773438 28.5625 -96.234375 29.191406 -96.234375 C 29.824219 -96.234375 30.367188 -94.773438 30.9375 -93.246094 C 31.503906 -91.714844 32.046875 -90.257812 32.679688 -90.257812 C 33.3125 -90.257812 33.855469 -91.714844 34.421875 -93.246094 C 34.992188 -94.773438 35.535156 -96.234375 36.167969 -96.234375 C 36.796875 -96.234375 37.339844 -94.773438 37.910156 -93.246094 C 38.476562 -91.714844 39.023438 -90.257812 39.652344 -90.257812 C 40.285156 -90.257812 40.828125 -91.714844 41.398438 -93.246094 C 41.964844 -94.773438 42.507812 -96.234375 43.140625 -96.234375 C 43.769531 -96.234375 44.316406 -94.773438 44.882812 -93.246094 C 45.453125 -91.714844 45.996094 -90.257812 46.628906 -90.257812 C 47.257812 -90.257812 47.800781 -91.714844 48.371094 -93.246094 C 48.9375 -94.773438 49.484375 -96.234375 50.113281 -96.234375 C 50.746094 -96.234375 51.289062 -94.773438 51.859375 -93.246094 C 52.425781 -91.714844 52.96875 -90.257812 53.601562 -90.257812 C 54.472656 -90.257812 54.910156 -93.246094 55.78125 -93.246094 L 58.609375 -93.246094 " transform="matrix(1,0,0,-1,0,0)"/>
</g>
<path style=" stroke:none;fill-rule:nonzero;fill:rgb(29.019165%,70.979309%,29.019165%);fill-opacity:1;" d="M 31.128906 80.222656 C 31.128906 80.222656 31.128906 80.113281 31.003906 80.113281 C 30.769531 80.113281 30.050781 80.191406 29.785156 80.222656 C 29.707031 80.222656 29.597656 80.238281 29.597656 80.410156 C 29.597656 80.535156 29.691406 80.535156 29.832031 80.535156 C 30.316406 80.535156 30.332031 80.597656 30.332031 80.707031 L 30.300781 80.910156 L 28.863281 86.644531 C 28.816406 86.785156 28.816406 86.800781 28.816406 86.863281 C 28.816406 87.097656 29.019531 87.144531 29.113281 87.144531 C 29.238281 87.144531 29.378906 87.050781 29.441406 86.941406 C 29.488281 86.847656 29.941406 85.003906 30.003906 84.753906 C 30.347656 84.785156 31.160156 84.941406 31.160156 85.597656 C 31.160156 85.675781 31.160156 85.707031 31.128906 85.816406 C 31.113281 85.925781 31.097656 86.050781 31.097656 86.160156 C 31.097656 86.738281 31.488281 87.144531 32.003906 87.144531 C 32.300781 87.144531 32.582031 86.988281 32.800781 86.613281 C 33.050781 86.175781 33.160156 85.628906 33.160156 85.613281 C 33.160156 85.503906 33.066406 85.503906 33.035156 85.503906 C 32.941406 85.503906 32.925781 85.550781 32.894531 85.691406 C 32.691406 86.410156 32.472656 86.925781 32.035156 86.925781 C 31.832031 86.925781 31.707031 86.816406 31.707031 86.457031 C 31.707031 86.285156 31.753906 86.050781 31.785156 85.894531 C 31.832031 85.722656 31.832031 85.691406 31.832031 85.582031 C 31.832031 84.941406 31.207031 84.660156 30.347656 84.535156 C 30.660156 84.363281 30.988281 84.050781 31.207031 83.800781 C 31.691406 83.269531 32.144531 82.847656 32.628906 82.847656 C 32.691406 82.847656 32.707031 82.847656 32.722656 82.863281 C 32.847656 82.878906 32.847656 82.878906 32.941406 82.941406 C 32.957031 82.941406 32.957031 82.957031 32.972656 82.972656 C 32.503906 83.003906 32.410156 83.394531 32.410156 83.519531 C 32.410156 83.675781 32.519531 83.863281 32.785156 83.863281 C 33.050781 83.863281 33.332031 83.644531 33.332031 83.253906 C 33.332031 82.957031 33.097656 82.628906 32.660156 82.628906 C 32.378906 82.628906 31.925781 82.707031 31.207031 83.503906 C 30.863281 83.878906 30.472656 84.285156 30.097656 84.425781 Z M 31.128906 80.222656 "/>
<path style=" stroke:none;fill-rule:nonzero;fill:rgb(29.019165%,70.979309%,29.019165%);fill-opacity:1;" d="M 35.785156 84.09375 C 35.785156 83.90625 35.785156 83.90625 35.582031 83.90625 C 35.128906 84.34375 34.503906 84.34375 34.222656 84.34375 L 34.222656 84.59375 C 34.378906 84.59375 34.847656 84.59375 35.222656 84.40625 L 35.222656 87.953125 C 35.222656 88.1875 35.222656 88.28125 34.535156 88.28125 L 34.269531 88.28125 L 34.269531 88.53125 C 34.394531 88.53125 35.253906 88.5 35.503906 88.5 C 35.722656 88.5 36.597656 88.53125 36.753906 88.53125 L 36.753906 88.28125 L 36.488281 88.28125 C 35.785156 88.28125 35.785156 88.1875 35.785156 87.953125 Z M 35.785156 84.09375 "/>
<path style="fill:none;stroke-width:0.79701;stroke-linecap:butt;stroke-linejoin:miter;stroke:rgb(0%,0%,0%);stroke-opacity:1;stroke-miterlimit:10;" d="M 79.871094 -101.75 L 79.871094 -50.722656 " transform="matrix(1,0,0,-1,0,0)"/>
<path style="fill-rule:nonzero;fill:rgb(84.312439%,84.312439%,100%);fill-opacity:1;stroke-width:0.79701;stroke-linecap:butt;stroke-linejoin:miter;stroke:rgb(38.822937%,38.822937%,100%);stroke-opacity:1;stroke-miterlimit:10;" d="M 58.609375 -80.488281 L 101.128906 -80.488281 L 101.128906 -123.007812 L 58.609375 -123.007812 Z M 58.609375 -80.488281 " transform="matrix(1,0,0,-1,0,0)"/>
<path style=" stroke:none;fill-rule:nonzero;fill:rgb(38.822937%,38.822937%,100%);fill-opacity:1;" d="M 74.136719 102.550781 C 74.105469 102.707031 74.042969 102.941406 74.042969 102.988281 C 74.042969 103.160156 74.183594 103.253906 74.339844 103.253906 C 74.464844 103.253906 74.636719 103.175781 74.714844 102.972656 C 74.714844 102.957031 74.839844 102.488281 74.902344 102.238281 L 75.121094 101.347656 C 75.167969 101.113281 75.230469 100.894531 75.292969 100.675781 C 75.324219 100.503906 75.402344 100.207031 75.417969 100.175781 C 75.558594 99.863281 76.089844 98.957031 77.042969 98.957031 C 77.496094 98.957031 77.574219 99.332031 77.574219 99.660156 C 77.574219 99.910156 77.511719 100.191406 77.433594 100.488281 L 77.152344 101.644531 L 76.949219 102.394531 C 76.917969 102.597656 76.824219 102.941406 76.824219 102.988281 C 76.824219 103.160156 76.964844 103.253906 77.105469 103.253906 C 77.417969 103.253906 77.480469 103.003906 77.558594 102.691406 C 77.699219 102.128906 78.074219 100.675781 78.152344 100.285156 C 78.183594 100.160156 78.714844 98.957031 79.808594 98.957031 C 80.230469 98.957031 80.339844 99.300781 80.339844 99.660156 C 80.339844 100.222656 79.917969 101.363281 79.714844 101.894531 C 79.636719 102.128906 79.589844 102.238281 79.589844 102.441406 C 79.589844 102.910156 79.933594 103.253906 80.402344 103.253906 C 81.339844 103.253906 81.714844 101.800781 81.714844 101.722656 C 81.714844 101.613281 81.621094 101.613281 81.589844 101.613281 C 81.496094 101.613281 81.496094 101.644531 81.449219 101.800781 C 81.292969 102.332031 80.980469 103.035156 80.433594 103.035156 C 80.261719 103.035156 80.183594 102.941406 80.183594 102.707031 C 80.183594 102.457031 80.277344 102.222656 80.371094 102.003906 C 80.558594 101.472656 80.980469 100.378906 80.980469 99.800781 C 80.980469 99.160156 80.574219 98.738281 79.824219 98.738281 C 79.089844 98.738281 78.574219 99.175781 78.199219 99.707031 C 78.199219 99.582031 78.167969 99.238281 77.886719 99.003906 C 77.636719 98.785156 77.324219 98.738281 77.074219 98.738281 C 76.167969 98.738281 75.683594 99.378906 75.511719 99.613281 C 75.464844 99.035156 75.042969 98.738281 74.589844 98.738281 C 74.136719 98.738281 73.949219 99.128906 73.855469 99.300781 C 73.683594 99.660156 73.558594 100.238281 73.558594 100.269531 C 73.558594 100.378906 73.652344 100.378906 73.667969 100.378906 C 73.777344 100.378906 73.777344 100.363281 73.839844 100.144531 C 74.011719 99.441406 74.214844 98.957031 74.574219 98.957031 C 74.730469 98.957031 74.871094 99.035156 74.871094 99.410156 C 74.871094 99.628906 74.839844 99.738281 74.714844 100.253906 Z M 74.136719 102.550781 "/>
<path style=" stroke:none;fill-rule:nonzero;fill:rgb(38.822937%,38.822937%,100%);fill-opacity:1;" d="M 84.335938 100.203125 C 84.335938 100.015625 84.335938 100.015625 84.132812 100.015625 C 83.679688 100.453125 83.054688 100.453125 82.773438 100.453125 L 82.773438 100.703125 C 82.929688 100.703125 83.398438 100.703125 83.773438 100.515625 L 83.773438 104.0625 C 83.773438 104.296875 83.773438 104.390625 83.085938 104.390625 L 82.820312 104.390625 L 82.820312 104.640625 C 82.945312 104.640625 83.804688 104.609375 84.054688 104.609375 C 84.273438 104.609375 85.148438 104.640625 85.304688 104.640625 L 85.304688 104.390625 L 85.039062 104.390625 C 84.335938 104.390625 84.335938 104.296875 84.335938 104.0625 Z M 84.335938 100.203125 "/>
<path style="fill:none;stroke-width:0.79701;stroke-linecap:butt;stroke-linejoin:miter;stroke:rgb(0%,0%,0%);stroke-opacity:1;stroke-miterlimit:10;" d="M 7.585938 -48.597656 L 7.585938 -133.640625 L 152.152344 -133.640625 " transform="matrix(1,0,0,-1,0,0)"/>
<g clip-path="url(#clip3)" clip-rule="nonzero">
<path style="fill:none;stroke-width:0.79701;stroke-linecap:butt;stroke-linejoin:miter;stroke:rgb(0%,0%,0%);stroke-opacity:1;stroke-miterlimit:10;" d="M 7.585938 -48.597656 L 3.578125 -52.605469 M 7.585938 -52.851562 L 3.578125 -56.859375 M 7.585938 -57.101562 L 3.578125 -61.109375 M 7.585938 -61.355469 L 3.578125 -65.363281 M 7.585938 -65.605469 L 3.578125 -69.613281 M 7.585938 -69.859375 L 3.578125 -73.867188 M 7.585938 -74.109375 L 3.578125 -78.121094 M 7.585938 -78.363281 L 3.578125 -82.371094 M 7.585938 -82.613281 L 3.578125 -86.625 M 7.585938 -86.867188 L 3.578125 -90.875 M 7.585938 -91.117188 L 3.578125 -95.128906 M 7.585938 -95.371094 L 3.578125 -99.378906 M 7.585938 -99.621094 L 3.578125 -103.632812 M 7.585938 -103.875 L 3.578125 -107.882812 M 7.585938 -108.125 L 3.578125 -112.136719 M 7.585938 -112.378906 L 3.578125 -116.386719 M 7.585938 -116.628906 L 3.578125 -120.640625 M 7.585938 -120.882812 L 3.578125 -124.890625 M 7.585938 -125.132812 L 3.578125 -129.144531 M 7.585938 -129.386719 L 3.578125 -133.394531 M 7.585938 -133.636719 L 3.578125 -137.648438 M 11.835938 -133.640625 L 15.847656 -137.648438 M 16.089844 -133.640625 L 20.097656 -137.648438 M 20.339844 -133.640625 L 24.351562 -137.648438 M 24.59375 -133.640625 L 28.601562 -137.648438 M 28.84375 -133.640625 L 32.855469 -137.648438 M 33.097656 -133.640625 L 37.105469 -137.648438 M 37.347656 -133.640625 L 41.359375 -137.648438 M 41.601562 -133.640625 L 45.609375 -137.648438 M 45.851562 -133.640625 L 49.863281 -137.648438 M 50.105469 -133.640625 L 54.113281 -137.648438 M 54.359375 -133.640625 L 58.367188 -137.648438 M 58.609375 -133.640625 L 62.617188 -137.648438 M 62.863281 -133.640625 L 66.871094 -137.648438 M 67.113281 -133.640625 L 71.121094 -137.648438 M 71.367188 -133.640625 L 75.375 -137.648438 M 75.617188 -133.640625 L 79.625 -137.648438 M 79.871094 -133.640625 L 83.878906 -137.648438 M 84.121094 -133.640625 L 88.128906 -137.648438 M 88.375 -133.640625 L 92.382812 -137.648438 M 92.625 -133.640625 L 96.632812 -137.648438 M 96.878906 -133.640625 L 100.886719 -137.648438 M 101.128906 -133.640625 L 105.136719 -137.648438 M 105.382812 -133.640625 L 109.390625 -137.648438 M 109.632812 -133.640625 L 113.640625 -137.648438 M 113.886719 -133.640625 L 117.894531 -137.648438 M 118.136719 -133.640625 L 122.144531 -137.648438 M 122.390625 -133.640625 L 126.398438 -137.648438 M 126.640625 -133.640625 L 130.652344 -137.648438 M 130.894531 -133.640625 L 134.902344 -137.648438 M 135.144531 -133.640625 L 139.15625 -137.648438 M 139.398438 -133.640625 L 143.40625 -137.648438 M 143.648438 -133.640625 L 147.660156 -137.648438 M 147.902344 -133.640625 L 151.910156 -137.648438 " transform="matrix(1,0,0,-1,0,0)"/>
</g>
<path style="fill:none;stroke-width:0.79701;stroke-linecap:butt;stroke-linejoin:miter;stroke:rgb(0%,67.0578%,93.331909%);stroke-opacity:1;stroke-miterlimit:10;" d="M 170.578125 -25.210938 L 197.808594 -25.210938 " transform="matrix(1,0,0,-1,0,0)"/>
<path style=" stroke:none;fill-rule:nonzero;fill:rgb(0%,67.0578%,93.331909%);fill-opacity:1;" d="M 202.46875 25.210938 C 201.089844 24.953125 198.84375 24.175781 197.289062 23.269531 L 197.289062 27.15625 C 198.84375 26.246094 201.089844 25.472656 202.46875 25.210938 "/>
<path style=" stroke:none;fill-rule:nonzero;fill:rgb(0%,67.0578%,93.331909%);fill-opacity:1;" d="M 209.203125 24.46875 L 210.171875 24.46875 C 210.921875 24.46875 211 24.625 211 24.90625 C 211 24.984375 211 25.09375 210.9375 25.40625 C 210.90625 25.453125 210.90625 25.484375 210.90625 25.515625 C 210.90625 25.59375 210.96875 25.625 211.015625 25.625 C 211.125 25.625 211.125 25.59375 211.171875 25.421875 L 211.71875 23.25 C 211.75 23.140625 211.75 23.125 211.75 23.09375 C 211.75 23.078125 211.734375 22.984375 211.625 22.984375 C 211.53125 22.984375 211.515625 23.03125 211.484375 23.203125 C 211.265625 23.96875 211.046875 24.15625 210.1875 24.15625 L 209.28125 24.15625 L 209.921875 21.625 C 210.015625 21.265625 210.03125 21.234375 210.46875 21.234375 L 211.78125 21.234375 C 213 21.234375 213.234375 21.5625 213.234375 22.328125 C 213.234375 22.5625 213.234375 22.59375 213.203125 22.875 C 213.1875 23 213.1875 23.015625 213.1875 23.046875 C 213.1875 23.09375 213.21875 23.171875 213.3125 23.171875 C 213.421875 23.171875 213.421875 23.109375 213.4375 22.921875 L 213.640625 21.1875 C 213.671875 20.921875 213.625 20.921875 213.375 20.921875 L 208.484375 20.921875 C 208.296875 20.921875 208.1875 20.921875 208.1875 21.125 C 208.1875 21.234375 208.28125 21.234375 208.46875 21.234375 C 208.84375 21.234375 209.125 21.234375 209.125 21.40625 C 209.125 21.453125 209.125 21.46875 209.0625 21.65625 L 207.75 26.921875 C 207.65625 27.3125 207.640625 27.390625 206.84375 27.390625 C 206.671875 27.390625 206.5625 27.390625 206.5625 27.578125 C 206.5625 27.703125 206.6875 27.703125 206.71875 27.703125 C 207 27.703125 207.75 27.671875 208.03125 27.671875 C 208.359375 27.671875 209.1875 27.703125 209.515625 27.703125 C 209.609375 27.703125 209.71875 27.703125 209.71875 27.515625 C 209.71875 27.4375 209.671875 27.40625 209.671875 27.40625 C 209.640625 27.390625 209.609375 27.390625 209.390625 27.390625 C 209.171875 27.390625 209.125 27.390625 208.875 27.375 C 208.578125 27.34375 208.546875 27.296875 208.546875 27.171875 C 208.546875 27.15625 208.546875 27.09375 208.59375 26.953125 Z M 209.203125 24.46875 "/>
<path style=" stroke:none;fill-rule:nonzero;fill:rgb(0%,67.0578%,93.331909%);fill-opacity:1;" d="M 217.277344 30.09375 C 217.277344 30.0625 217.277344 30.046875 217.105469 29.875 C 215.871094 28.625 215.542969 26.734375 215.542969 25.203125 C 215.542969 23.46875 215.917969 21.734375 217.152344 20.5 C 217.277344 20.375 217.277344 20.359375 217.277344 20.328125 C 217.277344 20.25 217.246094 20.21875 217.183594 20.21875 C 217.074219 20.21875 216.183594 20.90625 215.589844 22.171875 C 215.089844 23.265625 214.964844 24.375 214.964844 25.203125 C 214.964844 25.984375 215.074219 27.1875 215.621094 28.328125 C 216.230469 29.546875 217.074219 30.203125 217.183594 30.203125 C 217.246094 30.203125 217.277344 30.171875 217.277344 30.09375 Z M 217.277344 30.09375 "/>
<path style=" stroke:none;fill-rule:nonzero;fill:rgb(0%,67.0578%,93.331909%);fill-opacity:1;" d="M 219.898438 23.71875 L 220.835938 23.71875 C 221.039062 23.71875 221.148438 23.71875 221.148438 23.515625 C 221.148438 23.40625 221.039062 23.40625 220.867188 23.40625 L 219.992188 23.40625 C 220.351562 21.984375 220.398438 21.796875 220.398438 21.734375 C 220.398438 21.5625 220.273438 21.46875 220.101562 21.46875 C 220.070312 21.46875 219.789062 21.46875 219.710938 21.828125 L 219.320312 23.40625 L 218.382812 23.40625 C 218.179688 23.40625 218.085938 23.40625 218.085938 23.59375 C 218.085938 23.71875 218.164062 23.71875 218.367188 23.71875 L 219.242188 23.71875 C 218.523438 26.546875 218.476562 26.71875 218.476562 26.890625 C 218.476562 27.4375 218.851562 27.8125 219.398438 27.8125 C 220.414062 27.8125 220.976562 26.359375 220.976562 26.28125 C 220.976562 26.171875 220.898438 26.171875 220.867188 26.171875 C 220.773438 26.171875 220.757812 26.203125 220.710938 26.3125 C 220.289062 27.359375 219.757812 27.59375 219.414062 27.59375 C 219.210938 27.59375 219.101562 27.46875 219.101562 27.140625 C 219.101562 26.890625 219.132812 26.828125 219.164062 26.65625 Z M 219.898438 23.71875 "/>
<path style=" stroke:none;fill-rule:nonzero;fill:rgb(0%,67.0578%,93.331909%);fill-opacity:1;" d="M 224.324219 25.203125 C 224.324219 24.4375 224.214844 23.234375 223.667969 22.09375 C 223.074219 20.875 222.214844 20.21875 222.121094 20.21875 C 222.058594 20.21875 222.011719 20.265625 222.011719 20.328125 C 222.011719 20.359375 222.011719 20.375 222.199219 20.5625 C 223.183594 21.546875 223.746094 23.125 223.746094 25.203125 C 223.746094 26.921875 223.386719 28.671875 222.152344 29.921875 C 222.011719 30.046875 222.011719 30.0625 222.011719 30.09375 C 222.011719 30.15625 222.058594 30.203125 222.121094 30.203125 C 222.214844 30.203125 223.121094 29.515625 223.699219 28.25 C 224.214844 27.15625 224.324219 26.046875 224.324219 25.203125 Z M 224.324219 25.203125 "/>
<path style="fill:none;stroke-width:0.79701;stroke-linecap:butt;stroke-linejoin:miter;stroke:rgb(100%,38.822937%,38.822937%);stroke-opacity:1;stroke-miterlimit:10;" d="M 128.058594 -37.96875 L 115.714844 -37.96875 " transform="matrix(1,0,0,-1,0,0)"/>
<path style=" stroke:none;fill-rule:nonzero;fill:rgb(100%,38.822937%,38.822937%);fill-opacity:1;" d="M 111.050781 37.96875 C 112.433594 38.226562 114.679688 39.003906 116.230469 39.910156 L 116.230469 36.027344 C 114.679688 36.933594 112.433594 37.710938 111.050781 37.96875 "/>
<path style=" stroke:none;fill-rule:nonzero;fill:rgb(100%,38.822937%,38.822937%);fill-opacity:1;" d="M 92.339844 36.765625 C 92.167969 36.765625 92.042969 36.765625 91.902344 36.890625 C 91.730469 37.046875 91.714844 37.21875 91.714844 37.28125 C 91.714844 37.53125 91.902344 37.640625 92.089844 37.640625 C 92.371094 37.640625 92.636719 37.390625 92.636719 37 C 92.636719 36.515625 92.167969 36.140625 91.464844 36.140625 C 90.121094 36.140625 88.792969 37.5625 88.792969 38.96875 C 88.792969 39.875 89.371094 40.65625 90.417969 40.65625 C 91.839844 40.65625 92.667969 39.59375 92.667969 39.484375 C 92.667969 39.421875 92.621094 39.34375 92.558594 39.34375 C 92.496094 39.34375 92.480469 39.375 92.417969 39.453125 C 91.636719 40.4375 90.542969 40.4375 90.433594 40.4375 C 89.808594 40.4375 89.527344 39.953125 89.527344 39.34375 C 89.527344 38.9375 89.730469 37.96875 90.074219 37.359375 C 90.386719 36.78125 90.933594 36.359375 91.480469 36.359375 C 91.808594 36.359375 92.199219 36.484375 92.339844 36.765625 Z M 92.339844 36.765625 "/>
<path style=" stroke:none;fill-rule:nonzero;fill:rgb(100%,38.822937%,38.822937%);fill-opacity:1;" d="M 95.027344 37.605469 C 95.027344 37.417969 95.027344 37.417969 94.824219 37.417969 C 94.371094 37.855469 93.746094 37.855469 93.464844 37.855469 L 93.464844 38.105469 C 93.621094 38.105469 94.089844 38.105469 94.464844 37.917969 L 94.464844 41.464844 C 94.464844 41.699219 94.464844 41.792969 93.777344 41.792969 L 93.511719 41.792969 L 93.511719 42.042969 C 93.636719 42.042969 94.496094 42.011719 94.746094 42.011719 C 94.964844 42.011719 95.839844 42.042969 95.996094 42.042969 L 95.996094 41.792969 L 95.730469 41.792969 C 95.027344 41.792969 95.027344 41.699219 95.027344 41.464844 Z M 95.027344 37.605469 "/>
<path style=" stroke:none;fill-rule:nonzero;fill:rgb(100%,38.822937%,38.822937%);fill-opacity:1;" d="M 100.816406 34.40625 C 100.816406 34.140625 100.597656 33.875 100.300781 33.875 C 99.957031 33.875 99.753906 34.15625 99.753906 34.40625 C 99.753906 34.671875 99.988281 34.9375 100.285156 34.9375 C 100.628906 34.9375 100.816406 34.65625 100.816406 34.40625 Z M 100.816406 34.40625 "/>
<path style=" stroke:none;fill-rule:nonzero;fill:rgb(100%,38.822937%,38.822937%);fill-opacity:1;" d="M 100.496094 37.53125 C 100.558594 37.28125 100.792969 36.359375 101.480469 36.359375 C 101.527344 36.359375 101.777344 36.359375 101.980469 36.484375 C 101.699219 36.546875 101.511719 36.78125 101.511719 37.03125 C 101.511719 37.1875 101.621094 37.375 101.886719 37.375 C 102.105469 37.375 102.417969 37.203125 102.417969 36.796875 C 102.417969 36.28125 101.839844 36.140625 101.496094 36.140625 C 100.917969 36.140625 100.574219 36.671875 100.449219 36.890625 C 100.199219 36.234375 99.667969 36.140625 99.371094 36.140625 C 98.339844 36.140625 97.761719 37.421875 97.761719 37.671875 C 97.761719 37.78125 97.871094 37.78125 97.886719 37.78125 C 97.964844 37.78125 97.996094 37.75 98.011719 37.671875 C 98.355469 36.609375 99.011719 36.359375 99.355469 36.359375 C 99.542969 36.359375 99.886719 36.453125 99.886719 37.03125 C 99.886719 37.34375 99.714844 38 99.355469 39.40625 C 99.199219 40.015625 98.839844 40.4375 98.402344 40.4375 C 98.339844 40.4375 98.121094 40.4375 97.902344 40.3125 C 98.152344 40.25 98.371094 40.046875 98.371094 39.765625 C 98.371094 39.5 98.152344 39.421875 98.011719 39.421875 C 97.699219 39.421875 97.464844 39.671875 97.464844 40 C 97.464844 40.453125 97.949219 40.65625 98.386719 40.65625 C 99.058594 40.65625 99.417969 39.953125 99.433594 39.90625 C 99.558594 40.265625 99.917969 40.65625 100.511719 40.65625 C 101.542969 40.65625 102.105469 39.375 102.105469 39.125 C 102.105469 39.015625 102.027344 39.015625 101.996094 39.015625 C 101.902344 39.015625 101.886719 39.0625 101.855469 39.125 C 101.527344 40.203125 100.855469 40.4375 100.542969 40.4375 C 100.152344 40.4375 99.996094 40.125 99.996094 39.78125 C 99.996094 39.5625 100.042969 39.34375 100.152344 38.90625 Z M 100.496094 37.53125 "/>
<path style=" stroke:none;fill-rule:nonzero;fill:rgb(100%,38.822937%,38.822937%);fill-opacity:1;" d="M 105.191406 37.605469 C 105.191406 37.417969 105.191406 37.417969 104.988281 37.417969 C 104.535156 37.855469 103.910156 37.855469 103.628906 37.855469 L 103.628906 38.105469 C 103.785156 38.105469 104.253906 38.105469 104.628906 37.917969 L 104.628906 41.464844 C 104.628906 41.699219 104.628906 41.792969 103.941406 41.792969 L 103.675781 41.792969 L 103.675781 42.042969 C 103.800781 42.042969 104.660156 42.011719 104.910156 42.011719 C 105.128906 42.011719 106.003906 42.042969 106.160156 42.042969 L 106.160156 41.792969 L 105.894531 41.792969 C 105.191406 41.792969 105.191406 41.699219 105.191406 41.464844 Z M 105.191406 37.605469 "/>
<path style="fill:none;stroke-width:0.79701;stroke-linecap:butt;stroke-linejoin:miter;stroke:rgb(38.822937%,38.822937%,100%);stroke-opacity:1;stroke-miterlimit:10;" d="M 128.058594 -25.210938 L 79.570312 -25.210938 " transform="matrix(1,0,0,-1,0,0)"/>
<path style=" stroke:none;fill-rule:nonzero;fill:rgb(38.822937%,38.822937%,100%);fill-opacity:1;" d="M 74.910156 25.210938 C 76.289062 25.472656 78.535156 26.246094 80.089844 27.15625 L 80.089844 23.269531 C 78.535156 24.175781 76.289062 24.953125 74.910156 25.210938 "/>
<path style=" stroke:none;fill-rule:nonzero;fill:rgb(38.822937%,38.822937%,100%);fill-opacity:1;" d="M 48.683594 27.199219 C 48.652344 27.355469 48.589844 27.589844 48.589844 27.636719 C 48.589844 27.808594 48.730469 27.902344 48.886719 27.902344 C 49.011719 27.902344 49.183594 27.824219 49.261719 27.621094 C 49.261719 27.605469 49.386719 27.136719 49.449219 26.886719 L 49.667969 25.996094 C 49.714844 25.761719 49.777344 25.542969 49.839844 25.324219 C 49.871094 25.152344 49.949219 24.855469 49.964844 24.824219 C 50.105469 24.511719 50.636719 23.605469 51.589844 23.605469 C 52.042969 23.605469 52.121094 23.980469 52.121094 24.308594 C 52.121094 24.558594 52.058594 24.839844 51.980469 25.136719 L 51.699219 26.292969 L 51.496094 27.042969 C 51.464844 27.246094 51.371094 27.589844 51.371094 27.636719 C 51.371094 27.808594 51.511719 27.902344 51.652344 27.902344 C 51.964844 27.902344 52.027344 27.652344 52.105469 27.339844 C 52.246094 26.777344 52.621094 25.324219 52.699219 24.933594 C 52.730469 24.808594 53.261719 23.605469 54.355469 23.605469 C 54.777344 23.605469 54.886719 23.949219 54.886719 24.308594 C 54.886719 24.871094 54.464844 26.011719 54.261719 26.542969 C 54.183594 26.777344 54.136719 26.886719 54.136719 27.089844 C 54.136719 27.558594 54.480469 27.902344 54.949219 27.902344 C 55.886719 27.902344 56.261719 26.449219 56.261719 26.371094 C 56.261719 26.261719 56.167969 26.261719 56.136719 26.261719 C 56.042969 26.261719 56.042969 26.292969 55.996094 26.449219 C 55.839844 26.980469 55.527344 27.683594 54.980469 27.683594 C 54.808594 27.683594 54.730469 27.589844 54.730469 27.355469 C 54.730469 27.105469 54.824219 26.871094 54.917969 26.652344 C 55.105469 26.121094 55.527344 25.027344 55.527344 24.449219 C 55.527344 23.808594 55.121094 23.386719 54.371094 23.386719 C 53.636719 23.386719 53.121094 23.824219 52.746094 24.355469 C 52.746094 24.230469 52.714844 23.886719 52.433594 23.652344 C 52.183594 23.433594 51.871094 23.386719 51.621094 23.386719 C 50.714844 23.386719 50.230469 24.027344 50.058594 24.261719 C 50.011719 23.683594 49.589844 23.386719 49.136719 23.386719 C 48.683594 23.386719 48.496094 23.777344 48.402344 23.949219 C 48.230469 24.308594 48.105469 24.886719 48.105469 24.917969 C 48.105469 25.027344 48.199219 25.027344 48.214844 25.027344 C 48.324219 25.027344 48.324219 25.011719 48.386719 24.792969 C 48.558594 24.089844 48.761719 23.605469 49.121094 23.605469 C 49.277344 23.605469 49.417969 23.683594 49.417969 24.058594 C 49.417969 24.277344 49.386719 24.386719 49.261719 24.902344 Z M 48.683594 27.199219 "/>
<path style=" stroke:none;fill-rule:nonzero;fill:rgb(38.822937%,38.822937%,100%);fill-opacity:1;" d="M 58.886719 24.847656 C 58.886719 24.660156 58.886719 24.660156 58.683594 24.660156 C 58.230469 25.097656 57.605469 25.097656 57.324219 25.097656 L 57.324219 25.347656 C 57.480469 25.347656 57.949219 25.347656 58.324219 25.160156 L 58.324219 28.707031 C 58.324219 28.941406 58.324219 29.035156 57.636719 29.035156 L 57.371094 29.035156 L 57.371094 29.285156 C 57.496094 29.285156 58.355469 29.253906 58.605469 29.253906 C 58.824219 29.253906 59.699219 29.285156 59.855469 29.285156 L 59.855469 29.035156 L 59.589844 29.035156 C 58.886719 29.035156 58.886719 28.941406 58.886719 28.707031 Z M 58.886719 24.847656 "/>
<path style=" stroke:none;fill-rule:nonzero;fill:rgb(38.822937%,38.822937%,100%);fill-opacity:1;" d="M 63.691406 21.621094 C 63.691406 21.386719 63.488281 21.121094 63.191406 21.121094 C 62.910156 21.121094 62.691406 21.339844 62.691406 21.621094 C 62.691406 21.902344 62.910156 22.121094 63.191406 22.121094 C 63.488281 22.121094 63.691406 21.855469 63.691406 21.621094 Z M 65.613281 21.621094 C 65.613281 21.339844 65.394531 21.121094 65.113281 21.121094 C 64.816406 21.121094 64.613281 21.386719 64.613281 21.621094 C 64.613281 21.855469 64.816406 22.121094 65.113281 22.121094 C 65.394531 22.121094 65.613281 21.902344 65.613281 21.621094 Z M 65.613281 21.621094 "/>
<path style=" stroke:none;fill-rule:nonzero;fill:rgb(38.822937%,38.822937%,100%);fill-opacity:1;" d="M 64.355469 24.777344 C 64.417969 24.527344 64.652344 23.605469 65.339844 23.605469 C 65.386719 23.605469 65.636719 23.605469 65.839844 23.730469 C 65.558594 23.792969 65.371094 24.027344 65.371094 24.277344 C 65.371094 24.433594 65.480469 24.621094 65.746094 24.621094 C 65.964844 24.621094 66.277344 24.449219 66.277344 24.042969 C 66.277344 23.527344 65.699219 23.386719 65.355469 23.386719 C 64.777344 23.386719 64.433594 23.917969 64.308594 24.136719 C 64.058594 23.480469 63.527344 23.386719 63.230469 23.386719 C 62.199219 23.386719 61.621094 24.667969 61.621094 24.917969 C 61.621094 25.027344 61.730469 25.027344 61.746094 25.027344 C 61.824219 25.027344 61.855469 24.996094 61.871094 24.917969 C 62.214844 23.855469 62.871094 23.605469 63.214844 23.605469 C 63.402344 23.605469 63.746094 23.699219 63.746094 24.277344 C 63.746094 24.589844 63.574219 25.246094 63.214844 26.652344 C 63.058594 27.261719 62.699219 27.683594 62.261719 27.683594 C 62.199219 27.683594 61.980469 27.683594 61.761719 27.558594 C 62.011719 27.496094 62.230469 27.292969 62.230469 27.011719 C 62.230469 26.746094 62.011719 26.667969 61.871094 26.667969 C 61.558594 26.667969 61.324219 26.917969 61.324219 27.246094 C 61.324219 27.699219 61.808594 27.902344 62.246094 27.902344 C 62.917969 27.902344 63.277344 27.199219 63.292969 27.152344 C 63.417969 27.511719 63.777344 27.902344 64.371094 27.902344 C 65.402344 27.902344 65.964844 26.621094 65.964844 26.371094 C 65.964844 26.261719 65.886719 26.261719 65.855469 26.261719 C 65.761719 26.261719 65.746094 26.308594 65.714844 26.371094 C 65.386719 27.449219 64.714844 27.683594 64.402344 27.683594 C 64.011719 27.683594 63.855469 27.371094 63.855469 27.027344 C 63.855469 26.808594 63.902344 26.589844 64.011719 26.152344 Z M 64.355469 24.777344 "/>
<path style=" stroke:none;fill-rule:nonzero;fill:rgb(38.822937%,38.822937%,100%);fill-opacity:1;" d="M 69.046875 24.847656 C 69.046875 24.660156 69.046875 24.660156 68.84375 24.660156 C 68.390625 25.097656 67.765625 25.097656 67.484375 25.097656 L 67.484375 25.347656 C 67.640625 25.347656 68.109375 25.347656 68.484375 25.160156 L 68.484375 28.707031 C 68.484375 28.941406 68.484375 29.035156 67.796875 29.035156 L 67.53125 29.035156 L 67.53125 29.285156 C 67.65625 29.285156 68.515625 29.253906 68.765625 29.253906 C 68.984375 29.253906 69.859375 29.285156 70.015625 29.285156 L 70.015625 29.035156 L 69.75 29.035156 C 69.046875 29.035156 69.046875 28.941406 69.046875 28.707031 Z M 69.046875 24.847656 "/>
<path style="fill:none;stroke-width:0.79701;stroke-linecap:butt;stroke-linejoin:miter;stroke:rgb(29.019165%,70.979309%,29.019165%);stroke-opacity:1;stroke-miterlimit:10;" d="M 128.058594 -12.457031 L 100.832031 -12.457031 " transform="matrix(1,0,0,-1,0,0)"/>
<path style=" stroke:none;fill-rule:nonzero;fill:rgb(29.019165%,70.979309%,29.019165%);fill-opacity:1;" d="M 96.167969 12.457031 C 97.550781 12.714844 99.796875 13.492188 101.351562 14.398438 L 101.351562 10.511719 C 99.796875 11.417969 97.550781 12.195312 96.167969 12.457031 "/>
<path style=" stroke:none;fill-rule:nonzero;fill:rgb(29.019165%,70.979309%,29.019165%);fill-opacity:1;" d="M 75.492188 8.355469 C 75.492188 8.355469 75.492188 8.246094 75.367188 8.246094 C 75.132812 8.246094 74.414062 8.324219 74.148438 8.355469 C 74.070312 8.355469 73.960938 8.371094 73.960938 8.542969 C 73.960938 8.667969 74.054688 8.667969 74.195312 8.667969 C 74.679688 8.667969 74.695312 8.730469 74.695312 8.839844 L 74.664062 9.042969 L 73.226562 14.777344 C 73.179688 14.917969 73.179688 14.933594 73.179688 14.996094 C 73.179688 15.230469 73.382812 15.277344 73.476562 15.277344 C 73.601562 15.277344 73.742188 15.183594 73.804688 15.074219 C 73.851562 14.980469 74.304688 13.136719 74.367188 12.886719 C 74.710938 12.917969 75.523438 13.074219 75.523438 13.730469 C 75.523438 13.808594 75.523438 13.839844 75.492188 13.949219 C 75.476562 14.058594 75.460938 14.183594 75.460938 14.292969 C 75.460938 14.871094 75.851562 15.277344 76.367188 15.277344 C 76.664062 15.277344 76.945312 15.121094 77.164062 14.746094 C 77.414062 14.308594 77.523438 13.761719 77.523438 13.746094 C 77.523438 13.636719 77.429688 13.636719 77.398438 13.636719 C 77.304688 13.636719 77.289062 13.683594 77.257812 13.824219 C 77.054688 14.542969 76.835938 15.058594 76.398438 15.058594 C 76.195312 15.058594 76.070312 14.949219 76.070312 14.589844 C 76.070312 14.417969 76.117188 14.183594 76.148438 14.027344 C 76.195312 13.855469 76.195312 13.824219 76.195312 13.714844 C 76.195312 13.074219 75.570312 12.792969 74.710938 12.667969 C 75.023438 12.496094 75.351562 12.183594 75.570312 11.933594 C 76.054688 11.402344 76.507812 10.980469 76.992188 10.980469 C 77.054688 10.980469 77.070312 10.980469 77.085938 10.996094 C 77.210938 11.011719 77.210938 11.011719 77.304688 11.074219 C 77.320312 11.074219 77.320312 11.089844 77.335938 11.105469 C 76.867188 11.136719 76.773438 11.527344 76.773438 11.652344 C 76.773438 11.808594 76.882812 11.996094 77.148438 11.996094 C 77.414062 11.996094 77.695312 11.777344 77.695312 11.386719 C 77.695312 11.089844 77.460938 10.761719 77.023438 10.761719 C 76.742188 10.761719 76.289062 10.839844 75.570312 11.636719 C 75.226562 12.011719 74.835938 12.417969 74.460938 12.558594 Z M 75.492188 8.355469 "/>
<path style=" stroke:none;fill-rule:nonzero;fill:rgb(29.019165%,70.979309%,29.019165%);fill-opacity:1;" d="M 80.144531 12.226562 C 80.144531 12.039062 80.144531 12.039062 79.941406 12.039062 C 79.488281 12.476562 78.863281 12.476562 78.582031 12.476562 L 78.582031 12.726562 C 78.738281 12.726562 79.207031 12.726562 79.582031 12.539062 L 79.582031 16.085938 C 79.582031 16.320312 79.582031 16.414062 78.894531 16.414062 L 78.628906 16.414062 L 78.628906 16.664062 C 78.753906 16.664062 79.613281 16.632812 79.863281 16.632812 C 80.082031 16.632812 80.957031 16.664062 81.113281 16.664062 L 81.113281 16.414062 L 80.847656 16.414062 C 80.144531 16.414062 80.144531 16.320312 80.144531 16.085938 Z M 80.144531 12.226562 "/>
<path style=" stroke:none;fill-rule:nonzero;fill:rgb(29.019165%,70.979309%,29.019165%);fill-opacity:1;" d="M 85.613281 12.152344 C 85.675781 11.902344 85.910156 10.980469 86.597656 10.980469 C 86.644531 10.980469 86.894531 10.980469 87.097656 11.105469 C 86.816406 11.167969 86.628906 11.402344 86.628906 11.652344 C 86.628906 11.808594 86.738281 11.996094 87.003906 11.996094 C 87.222656 11.996094 87.535156 11.824219 87.535156 11.417969 C 87.535156 10.902344 86.957031 10.761719 86.613281 10.761719 C 86.035156 10.761719 85.691406 11.292969 85.566406 11.511719 C 85.316406 10.855469 84.785156 10.761719 84.488281 10.761719 C 83.457031 10.761719 82.878906 12.042969 82.878906 12.292969 C 82.878906 12.402344 82.988281 12.402344 83.003906 12.402344 C 83.082031 12.402344 83.113281 12.371094 83.128906 12.292969 C 83.472656 11.230469 84.128906 10.980469 84.472656 10.980469 C 84.660156 10.980469 85.003906 11.074219 85.003906 11.652344 C 85.003906 11.964844 84.832031 12.621094 84.472656 14.027344 C 84.316406 14.636719 83.957031 15.058594 83.519531 15.058594 C 83.457031 15.058594 83.238281 15.058594 83.019531 14.933594 C 83.269531 14.871094 83.488281 14.667969 83.488281 14.386719 C 83.488281 14.121094 83.269531 14.042969 83.128906 14.042969 C 82.816406 14.042969 82.582031 14.292969 82.582031 14.621094 C 82.582031 15.074219 83.066406 15.277344 83.503906 15.277344 C 84.175781 15.277344 84.535156 14.574219 84.550781 14.527344 C 84.675781 14.886719 85.035156 15.277344 85.628906 15.277344 C 86.660156 15.277344 87.222656 13.996094 87.222656 13.746094 C 87.222656 13.636719 87.144531 13.636719 87.113281 13.636719 C 87.019531 13.636719 87.003906 13.683594 86.972656 13.746094 C 86.644531 14.824219 85.972656 15.058594 85.660156 15.058594 C 85.269531 15.058594 85.113281 14.746094 85.113281 14.402344 C 85.113281 14.183594 85.160156 13.964844 85.269531 13.527344 Z M 85.613281 12.152344 "/>
<path style=" stroke:none;fill-rule:nonzero;fill:rgb(29.019165%,70.979309%,29.019165%);fill-opacity:1;" d="M 90.308594 12.226562 C 90.308594 12.039062 90.308594 12.039062 90.105469 12.039062 C 89.652344 12.476562 89.027344 12.476562 88.746094 12.476562 L 88.746094 12.726562 C 88.902344 12.726562 89.371094 12.726562 89.746094 12.539062 L 89.746094 16.085938 C 89.746094 16.320312 89.746094 16.414062 89.058594 16.414062 L 88.792969 16.414062 L 88.792969 16.664062 C 88.917969 16.664062 89.777344 16.632812 90.027344 16.632812 C 90.246094 16.632812 91.121094 16.664062 91.277344 16.664062 L 91.277344 16.414062 L 91.011719 16.414062 C 90.308594 16.414062 90.308594 16.320312 90.308594 16.085938 Z M 90.308594 12.226562 "/>
<path style="fill-rule:nonzero;fill:rgb(84.312439%,84.312439%,100%);fill-opacity:1;stroke-width:0.79701;stroke-linecap:butt;stroke-linejoin:miter;stroke:rgb(38.822937%,38.822937%,100%);stroke-opacity:1;stroke-miterlimit:10;" d="M 128.058594 -3.953125 L 170.578125 -3.953125 L 170.578125 -46.472656 L 128.058594 -46.472656 Z M 128.058594 -3.953125 " transform="matrix(1,0,0,-1,0,0)"/>
<path style=" stroke:none;fill-rule:nonzero;fill:rgb(38.822937%,38.822937%,100%);fill-opacity:1;" d="M 143.585938 26.015625 C 143.554688 26.171875 143.492188 26.40625 143.492188 26.453125 C 143.492188 26.625 143.632812 26.71875 143.789062 26.71875 C 143.914062 26.71875 144.085938 26.640625 144.164062 26.4375 C 144.164062 26.421875 144.289062 25.953125 144.351562 25.703125 L 144.570312 24.8125 C 144.617188 24.578125 144.679688 24.359375 144.742188 24.140625 C 144.773438 23.96875 144.851562 23.671875 144.867188 23.640625 C 145.007812 23.328125 145.539062 22.421875 146.492188 22.421875 C 146.945312 22.421875 147.023438 22.796875 147.023438 23.125 C 147.023438 23.375 146.960938 23.65625 146.882812 23.953125 L 146.601562 25.109375 L 146.398438 25.859375 C 146.367188 26.0625 146.273438 26.40625 146.273438 26.453125 C 146.273438 26.625 146.414062 26.71875 146.554688 26.71875 C 146.867188 26.71875 146.929688 26.46875 147.007812 26.15625 C 147.148438 25.59375 147.523438 24.140625 147.601562 23.75 C 147.632812 23.625 148.164062 22.421875 149.257812 22.421875 C 149.679688 22.421875 149.789062 22.765625 149.789062 23.125 C 149.789062 23.6875 149.367188 24.828125 149.164062 25.359375 C 149.085938 25.59375 149.039062 25.703125 149.039062 25.90625 C 149.039062 26.375 149.382812 26.71875 149.851562 26.71875 C 150.789062 26.71875 151.164062 25.265625 151.164062 25.1875 C 151.164062 25.078125 151.070312 25.078125 151.039062 25.078125 C 150.945312 25.078125 150.945312 25.109375 150.898438 25.265625 C 150.742188 25.796875 150.429688 26.5 149.882812 26.5 C 149.710938 26.5 149.632812 26.40625 149.632812 26.171875 C 149.632812 25.921875 149.726562 25.6875 149.820312 25.46875 C 150.007812 24.9375 150.429688 23.84375 150.429688 23.265625 C 150.429688 22.625 150.023438 22.203125 149.273438 22.203125 C 148.539062 22.203125 148.023438 22.640625 147.648438 23.171875 C 147.648438 23.046875 147.617188 22.703125 147.335938 22.46875 C 147.085938 22.25 146.773438 22.203125 146.523438 22.203125 C 145.617188 22.203125 145.132812 22.84375 144.960938 23.078125 C 144.914062 22.5 144.492188 22.203125 144.039062 22.203125 C 143.585938 22.203125 143.398438 22.59375 143.304688 22.765625 C 143.132812 23.125 143.007812 23.703125 143.007812 23.734375 C 143.007812 23.84375 143.101562 23.84375 143.117188 23.84375 C 143.226562 23.84375 143.226562 23.828125 143.289062 23.609375 C 143.460938 22.90625 143.664062 22.421875 144.023438 22.421875 C 144.179688 22.421875 144.320312 22.5 144.320312 22.875 C 144.320312 23.09375 144.289062 23.203125 144.164062 23.71875 Z M 143.585938 26.015625 "/>
<path style=" stroke:none;fill-rule:nonzero;fill:rgb(38.822937%,38.822937%,100%);fill-opacity:1;" d="M 153.785156 23.667969 C 153.785156 23.480469 153.785156 23.480469 153.582031 23.480469 C 153.128906 23.917969 152.503906 23.917969 152.222656 23.917969 L 152.222656 24.167969 C 152.378906 24.167969 152.847656 24.167969 153.222656 23.980469 L 153.222656 27.527344 C 153.222656 27.761719 153.222656 27.855469 152.535156 27.855469 L 152.269531 27.855469 L 152.269531 28.105469 C 152.394531 28.105469 153.253906 28.074219 153.503906 28.074219 C 153.722656 28.074219 154.597656 28.105469 154.753906 28.105469 L 154.753906 27.855469 L 154.488281 27.855469 C 153.785156 27.855469 153.785156 27.761719 153.785156 27.527344 Z M 153.785156 23.667969 "/>
</g>
</svg>
