<?xml version="1.0" encoding="UTF-8"?>
<svg xmlns="http://www.w3.org/2000/svg" xmlns:xlink="http://www.w3.org/1999/xlink" width="227.770004pt" height="141.139999pt" viewBox="0 0 227.770004 141.139999" version="1.1">
<defs>
<clipPath id="clip1">
  <path d="M 18 0.492188 L 57 0.492188 L 57 27 L 18 27 Z M 18 0.492188 "/>
</clipPath>
<clipPath id="clip2">
  <path d="M 0.5 48 L 81 48 L 81 137 L 0.5 137 Z M 0.5 48 "/>
</clipPath>
<clipPath id="clip3">
  <path d="M 74 0.492188 L 227.273438 0.492188 L 227.273438 94 L 74 94 Z M 74 0.492188 "/>
</clipPath>
<clipPath id="clip4">
  <path d="M 165 106 L 204 106 L 204 140.640625 L 165 140.640625 Z M 165 106 "/>
</clipPath>
</defs>
<g id="surface1">
<path style="fill-rule:nonzero;fill:rgb(84.312439%,84.312439%,100%);fill-opacity:1;stroke-width:0.79701;stroke-linecap:butt;stroke-linejoin:miter;stroke:rgb(38.822937%,38.822937%,100%);stroke-opacity:1;stroke-miterlimit:10;" d="M 16.019531 -125.417969 L 16.019531 -137.605469 L 17.847656 -137.605469 L 17.847656 -125.417969 Z M 58.679688 -125.417969 L 58.679688 -137.605469 L 60.507812 -137.605469 L 60.507812 -125.417969 Z M 58.679688 -125.417969 " transform="matrix(1,0,0,-1,0,0)"/>
<path style="fill-rule:nonzero;fill:rgb(49.803162%,100%,49.803162%);fill-opacity:1;stroke-width:0.79701;stroke-linecap:butt;stroke-linejoin:miter;stroke:rgb(29.019165%,70.979309%,29.019165%);stroke-opacity:1;stroke-miterlimit:10;" d="M 35.824219 -3.527344 L 38.875 -3.527344 L 38.875 -9.621094 L 35.824219 -9.621094 Z M 35.824219 -3.527344 " transform="matrix(1,0,0,-1,0,0)"/>
<path style=" stroke:none;fill-rule:nonzero;fill:rgb(84.312439%,84.312439%,100%);fill-opacity:1;" d="M 29.730469 14.71875 L 29.730469 9.09375 C 29.730469 8.542969 30.175781 8.097656 30.726562 8.097656 L 43.972656 8.097656 C 44.523438 8.097656 44.96875 8.542969 44.96875 9.09375 L 44.96875 14.71875 C 44.96875 15.269531 44.523438 15.714844 43.972656 15.714844 L 30.726562 15.714844 C 30.175781 15.714844 29.730469 15.269531 29.730469 14.71875 Z M 29.730469 14.71875 "/>
<g clip-path="url(#clip1)" clip-rule="nonzero">
<path style="fill:none;stroke-width:0.79701;stroke-linecap:butt;stroke-linejoin:miter;stroke:rgb(38.822937%,38.822937%,100%);stroke-opacity:1;stroke-miterlimit:10;" d="M 29.730469 -14.71875 L 29.730469 -9.09375 C 29.730469 -8.542969 30.175781 -8.097656 30.726562 -8.097656 L 43.972656 -8.097656 C 44.523438 -8.097656 44.96875 -8.542969 44.96875 -9.09375 L 44.96875 -14.71875 C 44.96875 -15.269531 44.523438 -15.714844 43.972656 -15.714844 L 30.726562 -15.714844 C 30.175781 -15.714844 29.730469 -15.269531 29.730469 -14.71875 Z M 29.730469 -14.71875 " transform="matrix(1,0,0,-1,0,0)"/>
</g>
<path style="fill-rule:nonzero;fill:rgb(84.312439%,84.312439%,100%);fill-opacity:1;stroke-width:0.79701;stroke-linecap:butt;stroke-linejoin:miter;stroke:rgb(38.822937%,38.822937%,100%);stroke-opacity:1;stroke-miterlimit:10;" d="M 26.683594 -50.761719 L 22.242188 -16.703125 C 22.171875 -16.160156 22.558594 -15.714844 23.109375 -15.714844 L 51.589844 -15.714844 C 52.140625 -15.714844 52.527344 -16.160156 52.457031 -16.703125 L 48.015625 -50.761719 " transform="matrix(1,0,0,-1,0,0)"/>
<path style="fill-rule:nonzero;fill:rgb(84.312439%,84.312439%,100%);fill-opacity:1;stroke-width:0.79701;stroke-linecap:butt;stroke-linejoin:miter;stroke:rgb(38.822937%,38.822937%,100%);stroke-opacity:1;stroke-miterlimit:10;" d="M 17.542969 -59.902344 L 17.542969 -51.757812 C 17.542969 -51.207031 17.988281 -50.761719 18.539062 -50.761719 L 56.160156 -50.761719 C 56.710938 -50.761719 57.15625 -51.207031 57.15625 -51.757812 L 57.15625 -59.902344 " transform="matrix(1,0,0,-1,0,0)"/>
<path style="fill-rule:nonzero;fill:rgb(49.803162%,100%,49.803162%);fill-opacity:1;stroke-width:0.79701;stroke-linecap:butt;stroke-linejoin:miter;stroke:rgb(29.019165%,70.979309%,29.019165%);stroke-opacity:1;stroke-miterlimit:10;" d="M 35.824219 -70.566406 L 38.875 -70.566406 L 38.875 -116.277344 L 35.824219 -116.277344 Z M 35.824219 -70.566406 " transform="matrix(1,0,0,-1,0,0)"/>
<path style="fill-rule:nonzero;fill:rgb(100%,96.076965%,39.99939%);fill-opacity:1;stroke-width:0.79701;stroke-linecap:butt;stroke-linejoin:miter;stroke:rgb(100%,49.803162%,0%);stroke-opacity:1;stroke-miterlimit:10;" d="M 48.015625 -104.085938 C 48.015625 -98.195312 43.242188 -93.421875 37.351562 -93.421875 C 31.460938 -93.421875 26.683594 -98.195312 26.683594 -104.085938 C 26.683594 -109.976562 31.460938 -114.753906 37.351562 -114.753906 C 43.242188 -114.753906 48.015625 -109.976562 48.015625 -104.085938 Z M 48.015625 -104.085938 " transform="matrix(1,0,0,-1,0,0)"/>
<path style=" stroke:none;fill-rule:nonzero;fill:rgb(100%,49.803162%,49.803162%);fill-opacity:0.3;" d="M 17.542969 88.851562 L 17.542969 119.324219 L 57.15625 119.324219 L 57.15625 88.851562 "/>
<path style=" stroke:none;fill-rule:evenodd;fill:rgb(84.312439%,84.312439%,100%);fill-opacity:1;" d="M 13.96875 125.417969 L 60.730469 125.417969 C 61.28125 125.417969 61.820312 124.980469 61.929688 124.441406 L 69.144531 89.824219 C 69.253906 89.289062 68.898438 88.851562 68.351562 88.851562 L 62.722656 88.851562 C 62.175781 88.851562 61.820312 88.414062 61.933594 87.875 L 67.617188 60.875 C 67.730469 60.335938 67.375 59.902344 66.824219 59.902344 L 7.875 59.902344 C 7.324219 59.902344 6.96875 60.335938 7.082031 60.875 L 12.765625 87.875 C 12.878906 88.414062 12.527344 88.851562 11.976562 88.851562 L 6.347656 88.851562 C 5.800781 88.851562 5.445312 89.289062 5.554688 89.824219 L 12.769531 124.441406 C 12.878906 124.980469 13.417969 125.417969 13.96875 125.417969 Z M 17.542969 118.328125 L 17.542969 71.5625 C 17.542969 71.011719 17.988281 70.566406 18.539062 70.566406 L 56.160156 70.566406 C 56.710938 70.566406 57.15625 71.011719 57.15625 71.5625 L 57.15625 118.328125 C 57.15625 118.878906 56.710938 119.324219 56.160156 119.324219 L 18.539062 119.324219 C 17.988281 119.324219 17.542969 118.878906 17.542969 118.328125 Z M 17.542969 118.328125 "/>
<g clip-path="url(#clip2)" clip-rule="nonzero">
<path style="fill:none;stroke-width:0.79701;stroke-linecap:butt;stroke-linejoin:miter;stroke:rgb(38.822937%,38.822937%,100%);stroke-opacity:1;stroke-miterlimit:10;" d="M 13.96875 -125.417969 L 60.730469 -125.417969 C 61.28125 -125.417969 61.820312 -124.980469 61.929688 -124.441406 L 69.144531 -89.824219 C 69.253906 -89.289062 68.898438 -88.851562 68.351562 -88.851562 L 62.722656 -88.851562 C 62.175781 -88.851562 61.820312 -88.414062 61.933594 -87.875 L 67.617188 -60.875 C 67.730469 -60.335938 67.375 -59.902344 66.824219 -59.902344 L 7.875 -59.902344 C 7.324219 -59.902344 6.96875 -60.335938 7.082031 -60.875 L 12.765625 -87.875 C 12.878906 -88.414062 12.527344 -88.851562 11.976562 -88.851562 L 6.347656 -88.851562 C 5.800781 -88.851562 5.445312 -89.289062 5.554688 -89.824219 L 12.769531 -124.441406 C 12.878906 -124.980469 13.417969 -125.417969 13.96875 -125.417969 Z M 17.542969 -118.328125 L 17.542969 -71.5625 C 17.542969 -71.011719 17.988281 -70.566406 18.539062 -70.566406 L 56.160156 -70.566406 C 56.710938 -70.566406 57.15625 -71.011719 57.15625 -71.5625 L 57.15625 -118.328125 C 57.15625 -118.878906 56.710938 -119.324219 56.160156 -119.324219 L 18.539062 -119.324219 C 17.988281 -119.324219 17.542969 -118.878906 17.542969 -118.328125 Z M 17.542969 -118.328125 " transform="matrix(1,0,0,-1,0,0)"/>
</g>
<path style="fill:none;stroke-width:0.79701;stroke-linecap:butt;stroke-linejoin:miter;stroke:rgb(38.822937%,38.822937%,100%);stroke-opacity:1;stroke-miterlimit:10;" d="M 170.578125 -50.722656 L 193.554688 -50.722656 " transform="matrix(1,0,0,-1,0,0)"/>
<path style=" stroke:none;fill-rule:nonzero;fill:rgb(38.822937%,38.822937%,100%);fill-opacity:1;" d="M 198.21875 50.722656 C 196.835938 50.464844 194.589844 49.6875 193.039062 48.78125 L 193.039062 52.667969 C 194.589844 51.761719 196.835938 50.984375 198.21875 50.722656 "/>
<path style=" stroke:none;fill-rule:nonzero;fill:rgb(38.822937%,38.822937%,100%);fill-opacity:1;" d="M 204.953125 49.980469 L 205.921875 49.980469 C 206.671875 49.980469 206.75 50.136719 206.75 50.417969 C 206.75 50.496094 206.75 50.605469 206.6875 50.917969 C 206.65625 50.964844 206.65625 50.996094 206.65625 51.027344 C 206.65625 51.105469 206.71875 51.136719 206.765625 51.136719 C 206.875 51.136719 206.875 51.105469 206.921875 50.933594 L 207.46875 48.761719 C 207.5 48.652344 207.5 48.636719 207.5 48.605469 C 207.5 48.589844 207.484375 48.496094 207.375 48.496094 C 207.28125 48.496094 207.265625 48.542969 207.234375 48.714844 C 207.015625 49.480469 206.796875 49.667969 205.9375 49.667969 L 205.03125 49.667969 L 205.671875 47.136719 C 205.765625 46.777344 205.78125 46.746094 206.21875 46.746094 L 207.53125 46.746094 C 208.75 46.746094 208.984375 47.074219 208.984375 47.839844 C 208.984375 48.074219 208.984375 48.105469 208.953125 48.386719 C 208.9375 48.511719 208.9375 48.527344 208.9375 48.558594 C 208.9375 48.605469 208.96875 48.683594 209.0625 48.683594 C 209.171875 48.683594 209.171875 48.621094 209.1875 48.433594 L 209.390625 46.699219 C 209.421875 46.433594 209.375 46.433594 209.125 46.433594 L 204.234375 46.433594 C 204.046875 46.433594 203.9375 46.433594 203.9375 46.636719 C 203.9375 46.746094 204.03125 46.746094 204.21875 46.746094 C 204.59375 46.746094 204.875 46.746094 204.875 46.917969 C 204.875 46.964844 204.875 46.980469 204.8125 47.167969 L 203.5 52.433594 C 203.40625 52.824219 203.390625 52.902344 202.59375 52.902344 C 202.421875 52.902344 202.3125 52.902344 202.3125 53.089844 C 202.3125 53.214844 202.4375 53.214844 202.46875 53.214844 C 202.75 53.214844 203.5 53.183594 203.78125 53.183594 C 204.109375 53.183594 204.9375 53.214844 205.265625 53.214844 C 205.359375 53.214844 205.46875 53.214844 205.46875 53.027344 C 205.46875 52.949219 205.421875 52.917969 205.421875 52.917969 C 205.390625 52.902344 205.359375 52.902344 205.140625 52.902344 C 204.921875 52.902344 204.875 52.902344 204.625 52.886719 C 204.328125 52.855469 204.296875 52.808594 204.296875 52.683594 C 204.296875 52.667969 204.296875 52.605469 204.34375 52.464844 Z M 204.953125 49.980469 "/>
<path style=" stroke:none;fill-rule:nonzero;fill:rgb(38.822937%,38.822937%,100%);fill-opacity:1;" d="M 213.023438 55.605469 C 213.023438 55.574219 213.023438 55.558594 212.851562 55.386719 C 211.617188 54.136719 211.289062 52.246094 211.289062 50.714844 C 211.289062 48.980469 211.664062 47.246094 212.898438 46.011719 C 213.023438 45.886719 213.023438 45.871094 213.023438 45.839844 C 213.023438 45.761719 212.992188 45.730469 212.929688 45.730469 C 212.820312 45.730469 211.929688 46.417969 211.335938 47.683594 C 210.835938 48.777344 210.710938 49.886719 210.710938 50.714844 C 210.710938 51.496094 210.820312 52.699219 211.367188 53.839844 C 211.976562 55.058594 212.820312 55.714844 212.929688 55.714844 C 212.992188 55.714844 213.023438 55.683594 213.023438 55.605469 Z M 213.023438 55.605469 "/>
<path style=" stroke:none;fill-rule:nonzero;fill:rgb(38.822937%,38.822937%,100%);fill-opacity:1;" d="M 215.648438 49.230469 L 216.585938 49.230469 C 216.789062 49.230469 216.898438 49.230469 216.898438 49.027344 C 216.898438 48.917969 216.789062 48.917969 216.617188 48.917969 L 215.742188 48.917969 C 216.101562 47.496094 216.148438 47.308594 216.148438 47.246094 C 216.148438 47.074219 216.023438 46.980469 215.851562 46.980469 C 215.820312 46.980469 215.539062 46.980469 215.460938 47.339844 L 215.070312 48.917969 L 214.132812 48.917969 C 213.929688 48.917969 213.835938 48.917969 213.835938 49.105469 C 213.835938 49.230469 213.914062 49.230469 214.117188 49.230469 L 214.992188 49.230469 C 214.273438 52.058594 214.226562 52.230469 214.226562 52.402344 C 214.226562 52.949219 214.601562 53.324219 215.148438 53.324219 C 216.164062 53.324219 216.726562 51.871094 216.726562 51.792969 C 216.726562 51.683594 216.648438 51.683594 216.617188 51.683594 C 216.523438 51.683594 216.507812 51.714844 216.460938 51.824219 C 216.039062 52.871094 215.507812 53.105469 215.164062 53.105469 C 214.960938 53.105469 214.851562 52.980469 214.851562 52.652344 C 214.851562 52.402344 214.882812 52.339844 214.914062 52.167969 Z M 215.648438 49.230469 "/>
<path style=" stroke:none;fill-rule:nonzero;fill:rgb(38.822937%,38.822937%,100%);fill-opacity:1;" d="M 220.074219 50.714844 C 220.074219 49.949219 219.964844 48.746094 219.417969 47.605469 C 218.824219 46.386719 217.964844 45.730469 217.871094 45.730469 C 217.808594 45.730469 217.761719 45.777344 217.761719 45.839844 C 217.761719 45.871094 217.761719 45.886719 217.949219 46.074219 C 218.933594 47.058594 219.496094 48.636719 219.496094 50.714844 C 219.496094 52.433594 219.136719 54.183594 217.902344 55.433594 C 217.761719 55.558594 217.761719 55.574219 217.761719 55.605469 C 217.761719 55.667969 217.808594 55.714844 217.871094 55.714844 C 217.964844 55.714844 218.871094 55.027344 219.449219 53.761719 C 219.964844 52.667969 220.074219 51.558594 220.074219 50.714844 Z M 220.074219 50.714844 "/>
<path style="fill:none;stroke-width:0.79701;stroke-linecap:butt;stroke-linejoin:miter;stroke:rgb(38.822937%,38.822937%,100%);stroke-opacity:1;stroke-miterlimit:10;" d="M 94.171875 -19.402344 L 147.492188 -19.402344 " transform="matrix(1,0,0,-1,0,0)"/>
<path style=" stroke:none;fill-rule:nonzero;fill:rgb(38.822937%,38.822937%,100%);fill-opacity:1;" d="M 89.507812 19.402344 C 90.890625 19.660156 93.132812 20.4375 94.6875 21.34375 L 94.6875 17.457031 C 93.132812 18.363281 90.890625 19.140625 89.507812 19.402344 "/>
<path style=" stroke:none;fill-rule:nonzero;fill:rgb(38.822937%,38.822937%,100%);fill-opacity:1;" d="M 152.152344 19.402344 C 150.773438 19.140625 148.527344 18.363281 146.972656 17.457031 L 146.972656 21.34375 C 148.527344 20.4375 150.773438 19.660156 152.152344 19.402344 "/>
<path style=" stroke:none;fill-rule:nonzero;fill:rgb(38.822937%,38.822937%,100%);fill-opacity:1;" d="M 119.078125 11.171875 C 119.140625 10.921875 119.375 10 120.0625 10 C 120.109375 10 120.359375 10 120.5625 10.125 C 120.28125 10.1875 120.09375 10.421875 120.09375 10.671875 C 120.09375 10.828125 120.203125 11.015625 120.46875 11.015625 C 120.6875 11.015625 121 10.84375 121 10.4375 C 121 9.921875 120.421875 9.78125 120.078125 9.78125 C 119.5 9.78125 119.15625 10.3125 119.03125 10.53125 C 118.78125 9.875 118.25 9.78125 117.953125 9.78125 C 116.921875 9.78125 116.34375 11.0625 116.34375 11.3125 C 116.34375 11.421875 116.453125 11.421875 116.46875 11.421875 C 116.546875 11.421875 116.578125 11.390625 116.59375 11.3125 C 116.9375 10.25 117.59375 10 117.9375 10 C 118.125 10 118.46875 10.09375 118.46875 10.671875 C 118.46875 10.984375 118.296875 11.640625 117.9375 13.046875 C 117.78125 13.65625 117.421875 14.078125 116.984375 14.078125 C 116.921875 14.078125 116.703125 14.078125 116.484375 13.953125 C 116.734375 13.890625 116.953125 13.6875 116.953125 13.40625 C 116.953125 13.140625 116.734375 13.0625 116.59375 13.0625 C 116.28125 13.0625 116.046875 13.3125 116.046875 13.640625 C 116.046875 14.09375 116.53125 14.296875 116.96875 14.296875 C 117.640625 14.296875 118 13.59375 118.015625 13.546875 C 118.140625 13.90625 118.5 14.296875 119.09375 14.296875 C 120.125 14.296875 120.6875 13.015625 120.6875 12.765625 C 120.6875 12.65625 120.609375 12.65625 120.578125 12.65625 C 120.484375 12.65625 120.46875 12.703125 120.4375 12.765625 C 120.109375 13.84375 119.4375 14.078125 119.125 14.078125 C 118.734375 14.078125 118.578125 13.765625 118.578125 13.421875 C 118.578125 13.203125 118.625 12.984375 118.734375 12.546875 Z M 119.078125 11.171875 "/>
<path style=" stroke:none;fill-rule:nonzero;fill:rgb(38.822937%,38.822937%,100%);fill-opacity:1;" d="M 123.769531 11.246094 C 123.769531 11.058594 123.769531 11.058594 123.566406 11.058594 C 123.113281 11.496094 122.488281 11.496094 122.207031 11.496094 L 122.207031 11.746094 C 122.363281 11.746094 122.832031 11.746094 123.207031 11.558594 L 123.207031 15.105469 C 123.207031 15.339844 123.207031 15.433594 122.519531 15.433594 L 122.253906 15.433594 L 122.253906 15.683594 C 122.378906 15.683594 123.238281 15.652344 123.488281 15.652344 C 123.707031 15.652344 124.582031 15.683594 124.738281 15.683594 L 124.738281 15.433594 L 124.472656 15.433594 C 123.769531 15.433594 123.769531 15.339844 123.769531 15.105469 Z M 123.769531 11.246094 "/>
<path style="fill:none;stroke-width:0.79701;stroke-linecap:butt;stroke-linejoin:miter;stroke:rgb(0%,0%,0%);stroke-opacity:1;stroke-miterlimit:10;" d="M 170.027344 -73.757812 C 170.027344 -71.515625 168.210938 -69.703125 165.972656 -69.703125 C 163.734375 -69.703125 161.917969 -71.515625 161.917969 -73.757812 C 161.917969 -75.996094 163.734375 -77.808594 165.972656 -77.808594 C 168.210938 -77.808594 170.027344 -75.996094 170.027344 -73.757812 Z M 142.386719 -73.757812 C 142.386719 -71.515625 140.574219 -69.703125 138.335938 -69.703125 C 136.097656 -69.703125 134.28125 -71.515625 134.28125 -73.757812 C 134.28125 -75.996094 136.097656 -77.808594 138.335938 -77.808594 C 140.574219 -77.808594 142.386719 -75.996094 142.386719 -73.757812 Z M 142.386719 -73.757812 " transform="matrix(1,0,0,-1,0,0)"/>
<path style="fill:none;stroke-width:0.79701;stroke-linecap:butt;stroke-linejoin:miter;stroke:rgb(38.822937%,38.822937%,100%);stroke-opacity:1;stroke-miterlimit:10;" d="M 89.507812 -58.09375 L 100.5625 -58.09375 M 115.304688 -60.859375 L 100.5625 -60.859375 L 100.5625 -54.410156 L 115.304688 -54.410156 " transform="matrix(1,0,0,-1,0,0)"/>
<path style="fill:none;stroke-width:0.79701;stroke-linecap:butt;stroke-linejoin:miter;stroke:rgb(38.822937%,38.822937%,100%);stroke-opacity:1;stroke-miterlimit:10;" d="M 111.617188 -59.9375 L 111.617188 -56.25 M 111.617188 -58.09375 L 133.730469 -58.09375 " transform="matrix(1,0,0,-1,0,0)"/>
<path style=" stroke:none;fill-rule:nonzero;fill:rgb(38.822937%,38.822937%,100%);fill-opacity:1;" d="M 111.179688 66.308594 C 111.007812 66.308594 110.882812 66.308594 110.742188 66.433594 C 110.570312 66.589844 110.554688 66.761719 110.554688 66.824219 C 110.554688 67.074219 110.742188 67.183594 110.929688 67.183594 C 111.210938 67.183594 111.476562 66.933594 111.476562 66.542969 C 111.476562 66.058594 111.007812 65.683594 110.304688 65.683594 C 108.960938 65.683594 107.632812 67.105469 107.632812 68.511719 C 107.632812 69.417969 108.210938 70.199219 109.257812 70.199219 C 110.679688 70.199219 111.507812 69.136719 111.507812 69.027344 C 111.507812 68.964844 111.460938 68.886719 111.398438 68.886719 C 111.335938 68.886719 111.320312 68.917969 111.257812 68.996094 C 110.476562 69.980469 109.382812 69.980469 109.273438 69.980469 C 108.648438 69.980469 108.367188 69.496094 108.367188 68.886719 C 108.367188 68.480469 108.570312 67.511719 108.914062 66.902344 C 109.226562 66.324219 109.773438 65.902344 110.320312 65.902344 C 110.648438 65.902344 111.039062 66.027344 111.179688 66.308594 Z M 111.179688 66.308594 "/>
<path style=" stroke:none;fill-rule:nonzero;fill:rgb(38.822937%,38.822937%,100%);fill-opacity:1;" d="M 113.867188 67.144531 C 113.867188 66.957031 113.867188 66.957031 113.664062 66.957031 C 113.210938 67.394531 112.585938 67.394531 112.304688 67.394531 L 112.304688 67.644531 C 112.460938 67.644531 112.929688 67.644531 113.304688 67.457031 L 113.304688 71.003906 C 113.304688 71.238281 113.304688 71.332031 112.617188 71.332031 L 112.351562 71.332031 L 112.351562 71.582031 C 112.476562 71.582031 113.335938 71.550781 113.585938 71.550781 C 113.804688 71.550781 114.679688 71.582031 114.835938 71.582031 L 114.835938 71.332031 L 114.570312 71.332031 C 113.867188 71.332031 113.867188 71.238281 113.867188 71.003906 Z M 113.867188 67.144531 "/>
<path style="fill:none;stroke-width:0.79701;stroke-linecap:butt;stroke-linejoin:miter;stroke:rgb(38.822937%,38.822937%,100%);stroke-opacity:1;stroke-miterlimit:10;" d="M 89.507812 -43.355469 L 89.707031 -43.355469 C 90.328125 -43.355469 90.640625 -41.363281 91.261719 -41.363281 C 91.714844 -41.363281 92.101562 -42.335938 92.507812 -43.355469 C 92.914062 -44.375 93.304688 -45.347656 93.753906 -45.347656 C 94.207031 -45.347656 94.59375 -44.375 95 -43.355469 C 95.40625 -42.335938 95.792969 -41.363281 96.246094 -41.363281 C 96.695312 -41.363281 97.085938 -42.335938 97.492188 -43.355469 C 97.894531 -44.375 98.285156 -45.347656 98.734375 -45.347656 C 99.1875 -45.347656 99.574219 -44.375 99.980469 -43.355469 C 100.386719 -42.335938 100.777344 -41.363281 101.226562 -41.363281 C 101.675781 -41.363281 102.066406 -42.335938 102.472656 -43.355469 C 102.878906 -44.375 103.265625 -45.347656 103.71875 -45.347656 C 104.167969 -45.347656 104.554688 -44.375 104.960938 -43.355469 C 105.367188 -42.335938 105.757812 -41.363281 106.207031 -41.363281 C 106.660156 -41.363281 107.046875 -42.335938 107.453125 -43.355469 C 107.859375 -44.375 108.246094 -45.347656 108.699219 -45.347656 C 109.148438 -45.347656 109.539062 -44.375 109.945312 -43.355469 C 110.351562 -42.335938 110.738281 -41.363281 111.1875 -41.363281 C 111.640625 -41.363281 112.027344 -42.335938 112.433594 -43.355469 C 112.839844 -44.375 113.230469 -45.347656 113.679688 -45.347656 C 114.128906 -45.347656 114.519531 -44.375 114.925781 -43.355469 C 115.332031 -42.335938 115.71875 -41.363281 116.171875 -41.363281 C 116.621094 -41.363281 117.011719 -42.335938 117.414062 -43.355469 C 117.820312 -44.375 118.210938 -45.347656 118.660156 -45.347656 C 119.113281 -45.347656 119.5 -44.375 119.90625 -43.355469 C 120.3125 -42.335938 120.699219 -41.363281 121.152344 -41.363281 C 121.601562 -41.363281 121.992188 -42.335938 122.398438 -43.355469 C 122.804688 -44.375 123.191406 -45.347656 123.644531 -45.347656 C 124.09375 -45.347656 124.480469 -44.375 124.886719 -43.355469 C 125.292969 -42.335938 125.683594 -41.363281 126.132812 -41.363281 C 126.585938 -41.363281 126.972656 -42.335938 127.378906 -43.355469 C 127.785156 -44.375 128.171875 -45.347656 128.625 -45.347656 C 129.074219 -45.347656 129.464844 -44.375 129.871094 -43.355469 C 130.273438 -42.335938 130.664062 -41.363281 131.113281 -41.363281 C 131.738281 -41.363281 132.046875 -43.355469 132.671875 -43.355469 L 133.730469 -43.355469 " transform="matrix(1,0,0,-1,0,0)"/>
<path style=" stroke:none;fill-rule:nonzero;fill:rgb(38.822937%,38.822937%,100%);fill-opacity:1;" d="M 109.648438 30.332031 C 109.648438 30.332031 109.648438 30.222656 109.523438 30.222656 C 109.289062 30.222656 108.570312 30.300781 108.304688 30.332031 C 108.226562 30.332031 108.117188 30.347656 108.117188 30.519531 C 108.117188 30.644531 108.210938 30.644531 108.351562 30.644531 C 108.835938 30.644531 108.851562 30.707031 108.851562 30.816406 L 108.820312 31.019531 L 107.382812 36.753906 C 107.335938 36.894531 107.335938 36.910156 107.335938 36.972656 C 107.335938 37.207031 107.539062 37.253906 107.632812 37.253906 C 107.757812 37.253906 107.898438 37.160156 107.960938 37.050781 C 108.007812 36.957031 108.460938 35.113281 108.523438 34.863281 C 108.867188 34.894531 109.679688 35.050781 109.679688 35.707031 C 109.679688 35.785156 109.679688 35.816406 109.648438 35.925781 C 109.632812 36.035156 109.617188 36.160156 109.617188 36.269531 C 109.617188 36.847656 110.007812 37.253906 110.523438 37.253906 C 110.820312 37.253906 111.101562 37.097656 111.320312 36.722656 C 111.570312 36.285156 111.679688 35.738281 111.679688 35.722656 C 111.679688 35.613281 111.585938 35.613281 111.554688 35.613281 C 111.460938 35.613281 111.445312 35.660156 111.414062 35.800781 C 111.210938 36.519531 110.992188 37.035156 110.554688 37.035156 C 110.351562 37.035156 110.226562 36.925781 110.226562 36.566406 C 110.226562 36.394531 110.273438 36.160156 110.304688 36.003906 C 110.351562 35.832031 110.351562 35.800781 110.351562 35.691406 C 110.351562 35.050781 109.726562 34.769531 108.867188 34.644531 C 109.179688 34.472656 109.507812 34.160156 109.726562 33.910156 C 110.210938 33.378906 110.664062 32.957031 111.148438 32.957031 C 111.210938 32.957031 111.226562 32.957031 111.242188 32.972656 C 111.367188 32.988281 111.367188 32.988281 111.460938 33.050781 C 111.476562 33.050781 111.476562 33.066406 111.492188 33.082031 C 111.023438 33.113281 110.929688 33.503906 110.929688 33.628906 C 110.929688 33.785156 111.039062 33.972656 111.304688 33.972656 C 111.570312 33.972656 111.851562 33.753906 111.851562 33.363281 C 111.851562 33.066406 111.617188 32.738281 111.179688 32.738281 C 110.898438 32.738281 110.445312 32.816406 109.726562 33.613281 C 109.382812 33.988281 108.992188 34.394531 108.617188 34.535156 Z M 109.648438 30.332031 "/>
<path style=" stroke:none;fill-rule:nonzero;fill:rgb(38.822937%,38.822937%,100%);fill-opacity:1;" d="M 114.304688 34.203125 C 114.304688 34.015625 114.304688 34.015625 114.101562 34.015625 C 113.648438 34.453125 113.023438 34.453125 112.742188 34.453125 L 112.742188 34.703125 C 112.898438 34.703125 113.367188 34.703125 113.742188 34.515625 L 113.742188 38.0625 C 113.742188 38.296875 113.742188 38.390625 113.054688 38.390625 L 112.789062 38.390625 L 112.789062 38.640625 C 112.914062 38.640625 113.773438 38.609375 114.023438 38.609375 C 114.242188 38.609375 115.117188 38.640625 115.273438 38.640625 L 115.273438 38.390625 L 115.007812 38.390625 C 114.304688 38.390625 114.304688 38.296875 114.304688 38.0625 Z M 114.304688 34.203125 "/>
<path style="fill:none;stroke-width:0.79701;stroke-linecap:butt;stroke-linejoin:miter;stroke:rgb(100%,49.803162%,0%);stroke-opacity:1;stroke-miterlimit:10;" d="M 152.152344 -96.789062 C 157.003906 -96.789062 161.773438 -95.511719 161.933594 -95.417969 " transform="matrix(1,0,0,-1,0,0)"/>
<path style=" stroke:none;fill-rule:nonzero;fill:rgb(100%,49.803162%,0%);fill-opacity:1;" d="M 165.972656 93.085938 C 164.648438 93.550781 162.316406 94 160.515625 93.992188 L 162.457031 97.359375 C 163.351562 95.796875 164.90625 94 165.972656 93.085938 "/>
<path style=" stroke:none;fill-rule:nonzero;fill:rgb(100%,49.803162%,0%);fill-opacity:1;" d="M 161.363281 101.5 C 161.363281 100.84375 161.191406 99.453125 160.175781 99.453125 C 158.785156 99.453125 157.253906 102.265625 157.253906 104.546875 C 157.253906 105.484375 157.535156 106.59375 158.441406 106.59375 C 159.847656 106.59375 161.363281 103.734375 161.363281 101.5 Z M 158.300781 102.859375 C 158.472656 102.234375 158.675781 101.4375 159.082031 100.71875 C 159.347656 100.234375 159.707031 99.671875 160.160156 99.671875 C 160.644531 99.671875 160.707031 100.3125 160.707031 100.875 C 160.707031 101.375 160.628906 101.875 160.394531 102.859375 Z M 160.300781 103.1875 C 160.191406 103.640625 159.988281 104.484375 159.597656 105.203125 C 159.253906 105.890625 158.878906 106.375 158.441406 106.375 C 158.113281 106.375 157.910156 106.078125 157.910156 105.15625 C 157.910156 104.734375 157.972656 104.15625 158.222656 103.1875 Z M 160.300781 103.1875 "/>
<path style="fill:none;stroke-width:0.79701;stroke-linecap:butt;stroke-linejoin:miter;stroke:rgb(0%,0%,0%);stroke-opacity:1;stroke-miterlimit:10;" d="M 89.507812 -4.660156 L 89.507812 -78.363281 L 224.011719 -78.363281 " transform="matrix(1,0,0,-1,0,0)"/>
<g clip-path="url(#clip3)" clip-rule="nonzero">
<path style="fill:none;stroke-width:0.79701;stroke-linecap:butt;stroke-linejoin:miter;stroke:rgb(0%,0%,0%);stroke-opacity:1;stroke-miterlimit:10;" d="M 89.507812 -4.660156 L 85.5 -8.667969 M 89.507812 -8.914062 L 85.5 -12.921875 M 89.507812 -13.164062 L 85.5 -17.171875 M 89.507812 -17.417969 L 85.5 -21.425781 M 89.507812 -21.667969 L 85.5 -25.675781 M 89.507812 -25.921875 L 85.5 -29.929688 M 89.507812 -30.171875 L 85.5 -34.179688 M 89.507812 -34.425781 L 85.5 -38.433594 M 89.507812 -38.675781 L 85.5 -42.683594 M 89.507812 -42.929688 L 85.5 -46.9375 M 89.507812 -47.179688 L 85.5 -51.191406 M 89.507812 -51.433594 L 85.5 -55.441406 M 89.507812 -55.683594 L 85.5 -59.695312 M 89.507812 -59.9375 L 85.5 -63.945312 M 89.507812 -64.1875 L 85.5 -68.199219 M 89.507812 -68.441406 L 85.5 -72.449219 M 89.507812 -72.691406 L 85.5 -76.703125 M 89.507812 -76.945312 L 85.5 -80.953125 M 92.34375 -78.363281 L 96.351562 -82.371094 M 96.59375 -78.363281 L 100.601562 -82.371094 M 100.847656 -78.363281 L 104.855469 -82.371094 M 105.097656 -78.363281 L 109.105469 -82.371094 M 109.351562 -78.363281 L 113.359375 -82.371094 M 113.601562 -78.363281 L 117.609375 -82.371094 M 117.855469 -78.363281 L 121.863281 -82.371094 M 122.105469 -78.363281 L 126.113281 -82.371094 M 126.359375 -78.363281 L 130.367188 -82.371094 M 130.609375 -78.363281 L 134.617188 -82.371094 M 134.863281 -78.363281 L 138.871094 -82.371094 M 139.113281 -78.363281 L 143.121094 -82.371094 M 143.367188 -78.363281 L 147.375 -82.371094 M 147.617188 -78.363281 L 151.625 -82.371094 M 151.871094 -78.363281 L 155.878906 -82.371094 M 156.121094 -78.363281 L 160.132812 -82.371094 M 160.375 -78.363281 L 164.382812 -82.371094 M 164.625 -78.363281 L 168.636719 -82.371094 M 168.878906 -78.363281 L 172.886719 -82.371094 M 173.128906 -78.363281 L 177.140625 -82.371094 M 177.382812 -78.363281 L 181.390625 -82.371094 M 181.632812 -78.363281 L 185.644531 -82.371094 M 185.886719 -78.363281 L 189.894531 -82.371094 M 190.136719 -78.363281 L 194.148438 -82.371094 M 194.390625 -78.363281 L 198.398438 -82.371094 M 198.640625 -78.363281 L 202.652344 -82.371094 M 202.894531 -78.363281 L 206.902344 -82.371094 M 207.144531 -78.363281 L 211.15625 -82.371094 M 211.398438 -78.363281 L 215.40625 -82.371094 M 215.648438 -78.363281 L 219.660156 -82.371094 " transform="matrix(1,0,0,-1,0,0)"/>
</g>
<path style="fill:none;stroke-width:0.79701;stroke-linecap:butt;stroke-linejoin:miter;stroke:rgb(29.019165%,70.979309%,29.019165%);stroke-opacity:1;stroke-miterlimit:10;" d="M 152.152344 -69.148438 L 184.398438 -125 " transform="matrix(1,0,0,-1,0,0)"/>
<path style=" stroke:none;fill-rule:nonzero;fill:rgb(29.019165%,70.979309%,29.019165%);fill-opacity:1;" d="M 172.152344 99.550781 C 172.136719 99.582031 172.105469 99.613281 172.105469 99.644531 C 172.105469 99.691406 172.167969 99.785156 172.230469 99.785156 C 172.277344 99.785156 172.308594 99.753906 172.589844 99.472656 C 172.667969 99.394531 172.871094 99.207031 172.949219 99.128906 C 173.042969 99.910156 173.324219 100.660156 174.058594 100.660156 C 174.464844 100.660156 174.808594 100.425781 175.011719 100.269531 C 175.152344 100.175781 175.621094 99.785156 175.621094 99.691406 C 175.621094 99.660156 175.589844 99.566406 175.511719 99.566406 C 175.480469 99.566406 175.464844 99.582031 175.371094 99.660156 C 174.730469 100.285156 174.371094 100.441406 174.074219 100.441406 C 173.636719 100.441406 173.464844 99.910156 173.464844 99.144531 C 173.464844 99.082031 173.496094 98.628906 173.527344 98.566406 C 173.542969 98.535156 173.542969 98.519531 173.746094 98.316406 C 174.542969 97.519531 175.964844 95.832031 175.964844 94.285156 C 175.964844 94.113281 175.964844 93.503906 175.371094 93.503906 C 174.542969 93.503906 173.808594 95.144531 173.714844 95.378906 C 173.230469 96.472656 172.917969 97.628906 172.917969 98.816406 Z M 173.574219 98.160156 C 173.589844 98.035156 174.027344 95.832031 174.589844 94.660156 C 174.855469 94.128906 175.074219 93.722656 175.386719 93.722656 C 175.730469 93.722656 175.730469 94.082031 175.730469 94.238281 C 175.730469 95.910156 174.042969 97.660156 173.574219 98.160156 Z M 173.574219 98.160156 "/>
<path style="fill:none;stroke-width:0.79701;stroke-linecap:butt;stroke-linejoin:miter;stroke:rgb(100%,38.822937%,38.822937%);stroke-opacity:1;stroke-miterlimit:10;" d="M 184.398438 -125 L 165.972656 -125 M 165.972656 -126.84375 L 165.972656 -123.15625 " transform="matrix(1,0,0,-1,0,0)"/>
<path style=" stroke:none;fill-rule:nonzero;fill:rgb(100%,38.822937%,38.822937%);fill-opacity:1;" d="M 165.535156 131.367188 C 165.363281 131.367188 165.238281 131.367188 165.097656 131.492188 C 164.925781 131.648438 164.910156 131.820312 164.910156 131.882812 C 164.910156 132.132812 165.097656 132.242188 165.285156 132.242188 C 165.566406 132.242188 165.832031 131.992188 165.832031 131.601562 C 165.832031 131.117188 165.363281 130.742188 164.660156 130.742188 C 163.316406 130.742188 161.988281 132.164062 161.988281 133.570312 C 161.988281 134.476562 162.566406 135.257812 163.613281 135.257812 C 165.035156 135.257812 165.863281 134.195312 165.863281 134.085938 C 165.863281 134.023438 165.816406 133.945312 165.753906 133.945312 C 165.691406 133.945312 165.675781 133.976562 165.613281 134.054688 C 164.832031 135.039062 163.738281 135.039062 163.628906 135.039062 C 163.003906 135.039062 162.722656 134.554688 162.722656 133.945312 C 162.722656 133.539062 162.925781 132.570312 163.269531 131.960938 C 163.582031 131.382812 164.128906 130.960938 164.675781 130.960938 C 165.003906 130.960938 165.394531 131.085938 165.535156 131.367188 Z M 165.535156 131.367188 "/>
<path style=" stroke:none;fill-rule:nonzero;fill:rgb(100%,38.822937%,38.822937%);fill-opacity:1;" d="M 169.410156 135.378906 L 169.175781 135.378906 C 169.160156 135.535156 169.082031 135.941406 168.988281 136.003906 C 168.941406 136.050781 168.410156 136.050781 168.300781 136.050781 L 167.019531 136.050781 C 167.753906 135.410156 168.003906 135.207031 168.410156 134.878906 C 168.925781 134.472656 169.410156 134.035156 169.410156 133.378906 C 169.410156 132.535156 168.675781 132.019531 167.785156 132.019531 C 166.925781 132.019531 166.332031 132.628906 166.332031 133.269531 C 166.332031 133.613281 166.628906 133.660156 166.707031 133.660156 C 166.863281 133.660156 167.066406 133.535156 167.066406 133.285156 C 167.066406 133.160156 167.019531 132.910156 166.660156 132.910156 C 166.878906 132.425781 167.347656 132.269531 167.675781 132.269531 C 168.378906 132.269531 168.738281 132.816406 168.738281 133.378906 C 168.738281 133.988281 168.300781 134.457031 168.082031 134.707031 L 166.410156 136.378906 C 166.332031 136.441406 166.332031 136.457031 166.332031 136.644531 L 169.207031 136.644531 Z M 169.410156 135.378906 "/>
<path style="fill:none;stroke-width:0.79701;stroke-linecap:butt;stroke-linejoin:miter;stroke:rgb(100%,38.822937%,38.822937%);stroke-opacity:1;stroke-miterlimit:10;" d="M 152.152344 -124.980469 L 159.523438 -124.980469 M 174.265625 -128.203125 L 159.523438 -128.203125 L 159.523438 -121.753906 L 174.265625 -121.753906 " transform="matrix(1,0,0,-1,0,0)"/>
<path style=" stroke:none;fill-rule:nonzero;fill:rgb(100%,96.076965%,39.99939%);fill-opacity:1;" d="M 191.769531 125 C 191.769531 120.929688 188.46875 117.628906 184.398438 117.628906 C 180.328125 117.628906 177.027344 120.929688 177.027344 125 C 177.027344 129.070312 180.328125 132.371094 184.398438 132.371094 C 188.46875 132.371094 191.769531 129.070312 191.769531 125 Z M 191.769531 125 "/>
<g clip-path="url(#clip4)" clip-rule="nonzero">
<path style="fill:none;stroke-width:0.79701;stroke-linecap:butt;stroke-linejoin:miter;stroke:rgb(100%,49.803162%,0%);stroke-opacity:1;stroke-miterlimit:10;" d="M 191.769531 -125 C 191.769531 -120.929688 188.46875 -117.628906 184.398438 -117.628906 C 180.328125 -117.628906 177.027344 -120.929688 177.027344 -125 C 177.027344 -129.070312 180.328125 -132.371094 184.398438 -132.371094 C 188.46875 -132.371094 191.769531 -129.070312 191.769531 -125 Z M 191.769531 -125 " transform="matrix(1,0,0,-1,0,0)"/>
</g>
<path style=" stroke:none;fill-rule:nonzero;fill:rgb(100%,49.803162%,0%);fill-opacity:1;" d="M 196.464844 125.804688 C 196.433594 125.960938 196.371094 126.195312 196.371094 126.242188 C 196.371094 126.414062 196.511719 126.507812 196.667969 126.507812 C 196.792969 126.507812 196.964844 126.429688 197.042969 126.226562 C 197.042969 126.210938 197.167969 125.742188 197.230469 125.492188 L 197.449219 124.601562 C 197.496094 124.367188 197.558594 124.148438 197.621094 123.929688 C 197.652344 123.757812 197.730469 123.460938 197.746094 123.429688 C 197.886719 123.117188 198.417969 122.210938 199.371094 122.210938 C 199.824219 122.210938 199.902344 122.585938 199.902344 122.914062 C 199.902344 123.164062 199.839844 123.445312 199.761719 123.742188 L 199.480469 124.898438 L 199.277344 125.648438 C 199.246094 125.851562 199.152344 126.195312 199.152344 126.242188 C 199.152344 126.414062 199.292969 126.507812 199.433594 126.507812 C 199.746094 126.507812 199.808594 126.257812 199.886719 125.945312 C 200.027344 125.382812 200.402344 123.929688 200.480469 123.539062 C 200.511719 123.414062 201.042969 122.210938 202.136719 122.210938 C 202.558594 122.210938 202.667969 122.554688 202.667969 122.914062 C 202.667969 123.476562 202.246094 124.617188 202.042969 125.148438 C 201.964844 125.382812 201.917969 125.492188 201.917969 125.695312 C 201.917969 126.164062 202.261719 126.507812 202.730469 126.507812 C 203.667969 126.507812 204.042969 125.054688 204.042969 124.976562 C 204.042969 124.867188 203.949219 124.867188 203.917969 124.867188 C 203.824219 124.867188 203.824219 124.898438 203.777344 125.054688 C 203.621094 125.585938 203.308594 126.289062 202.761719 126.289062 C 202.589844 126.289062 202.511719 126.195312 202.511719 125.960938 C 202.511719 125.710938 202.605469 125.476562 202.699219 125.257812 C 202.886719 124.726562 203.308594 123.632812 203.308594 123.054688 C 203.308594 122.414062 202.902344 121.992188 202.152344 121.992188 C 201.417969 121.992188 200.902344 122.429688 200.527344 122.960938 C 200.527344 122.835938 200.496094 122.492188 200.214844 122.257812 C 199.964844 122.039062 199.652344 121.992188 199.402344 121.992188 C 198.496094 121.992188 198.011719 122.632812 197.839844 122.867188 C 197.792969 122.289062 197.371094 121.992188 196.917969 121.992188 C 196.464844 121.992188 196.277344 122.382812 196.183594 122.554688 C 196.011719 122.914062 195.886719 123.492188 195.886719 123.523438 C 195.886719 123.632812 195.980469 123.632812 195.996094 123.632812 C 196.105469 123.632812 196.105469 123.617188 196.167969 123.398438 C 196.339844 122.695312 196.542969 122.210938 196.902344 122.210938 C 197.058594 122.210938 197.199219 122.289062 197.199219 122.664062 C 197.199219 122.882812 197.167969 122.992188 197.042969 123.507812 Z M 196.464844 125.804688 "/>
<path style=" stroke:none;fill-rule:nonzero;fill:rgb(100%,49.803162%,0%);fill-opacity:1;" d="M 207.851562 126.625 L 207.617188 126.625 C 207.601562 126.78125 207.523438 127.1875 207.429688 127.25 C 207.382812 127.296875 206.851562 127.296875 206.742188 127.296875 L 205.460938 127.296875 C 206.195312 126.65625 206.445312 126.453125 206.851562 126.125 C 207.367188 125.71875 207.851562 125.28125 207.851562 124.625 C 207.851562 123.78125 207.117188 123.265625 206.226562 123.265625 C 205.367188 123.265625 204.773438 123.875 204.773438 124.515625 C 204.773438 124.859375 205.070312 124.90625 205.148438 124.90625 C 205.304688 124.90625 205.507812 124.78125 205.507812 124.53125 C 205.507812 124.40625 205.460938 124.15625 205.101562 124.15625 C 205.320312 123.671875 205.789062 123.515625 206.117188 123.515625 C 206.820312 123.515625 207.179688 124.0625 207.179688 124.625 C 207.179688 125.234375 206.742188 125.703125 206.523438 125.953125 L 204.851562 127.625 C 204.773438 127.6875 204.773438 127.703125 204.773438 127.890625 L 207.648438 127.890625 Z M 207.851562 126.625 "/>
<path style="fill:none;stroke-width:0.79701;stroke-linecap:butt;stroke-linejoin:miter;stroke:rgb(0%,0%,0%);stroke-opacity:1;stroke-miterlimit:10;" d="M 152.152344 -135.480469 L 152.152344 -6.503906 " transform="matrix(1,0,0,-1,0,0)"/>
<path style="fill-rule:nonzero;fill:rgb(84.312439%,84.312439%,100%);fill-opacity:1;stroke-width:0.79701;stroke-linecap:butt;stroke-linejoin:miter;stroke:rgb(38.822937%,38.822937%,100%);stroke-opacity:1;stroke-miterlimit:10;" d="M 133.730469 -32.300781 L 170.578125 -32.300781 L 170.578125 -69.148438 L 133.730469 -69.148438 Z M 133.730469 -32.300781 " transform="matrix(1,0,0,-1,0,0)"/>
<path style=" stroke:none;fill-rule:nonzero;fill:rgb(38.822937%,38.822937%,100%);fill-opacity:1;" d="M 146.421875 51.527344 C 146.390625 51.683594 146.328125 51.917969 146.328125 51.964844 C 146.328125 52.136719 146.46875 52.230469 146.625 52.230469 C 146.75 52.230469 146.921875 52.152344 147 51.949219 C 147 51.933594 147.125 51.464844 147.1875 51.214844 L 147.40625 50.324219 C 147.453125 50.089844 147.515625 49.871094 147.578125 49.652344 C 147.609375 49.480469 147.6875 49.183594 147.703125 49.152344 C 147.84375 48.839844 148.375 47.933594 149.328125 47.933594 C 149.78125 47.933594 149.859375 48.308594 149.859375 48.636719 C 149.859375 48.886719 149.796875 49.167969 149.71875 49.464844 L 149.4375 50.621094 L 149.234375 51.371094 C 149.203125 51.574219 149.109375 51.917969 149.109375 51.964844 C 149.109375 52.136719 149.25 52.230469 149.390625 52.230469 C 149.703125 52.230469 149.765625 51.980469 149.84375 51.667969 C 149.984375 51.105469 150.359375 49.652344 150.4375 49.261719 C 150.46875 49.136719 151 47.933594 152.09375 47.933594 C 152.515625 47.933594 152.625 48.277344 152.625 48.636719 C 152.625 49.199219 152.203125 50.339844 152 50.871094 C 151.921875 51.105469 151.875 51.214844 151.875 51.417969 C 151.875 51.886719 152.21875 52.230469 152.6875 52.230469 C 153.625 52.230469 154 50.777344 154 50.699219 C 154 50.589844 153.90625 50.589844 153.875 50.589844 C 153.78125 50.589844 153.78125 50.621094 153.734375 50.777344 C 153.578125 51.308594 153.265625 52.011719 152.71875 52.011719 C 152.546875 52.011719 152.46875 51.917969 152.46875 51.683594 C 152.46875 51.433594 152.5625 51.199219 152.65625 50.980469 C 152.84375 50.449219 153.265625 49.355469 153.265625 48.777344 C 153.265625 48.136719 152.859375 47.714844 152.109375 47.714844 C 151.375 47.714844 150.859375 48.152344 150.484375 48.683594 C 150.484375 48.558594 150.453125 48.214844 150.171875 47.980469 C 149.921875 47.761719 149.609375 47.714844 149.359375 47.714844 C 148.453125 47.714844 147.96875 48.355469 147.796875 48.589844 C 147.75 48.011719 147.328125 47.714844 146.875 47.714844 C 146.421875 47.714844 146.234375 48.105469 146.140625 48.277344 C 145.96875 48.636719 145.84375 49.214844 145.84375 49.246094 C 145.84375 49.355469 145.9375 49.355469 145.953125 49.355469 C 146.0625 49.355469 146.0625 49.339844 146.125 49.121094 C 146.296875 48.417969 146.5 47.933594 146.859375 47.933594 C 147.015625 47.933594 147.15625 48.011719 147.15625 48.386719 C 147.15625 48.605469 147.125 48.714844 147 49.230469 Z M 146.421875 51.527344 "/>
<path style=" stroke:none;fill-rule:nonzero;fill:rgb(38.822937%,38.822937%,100%);fill-opacity:1;" d="M 156.621094 49.179688 C 156.621094 48.992188 156.621094 48.992188 156.417969 48.992188 C 155.964844 49.429688 155.339844 49.429688 155.058594 49.429688 L 155.058594 49.679688 C 155.214844 49.679688 155.683594 49.679688 156.058594 49.492188 L 156.058594 53.039062 C 156.058594 53.273438 156.058594 53.367188 155.371094 53.367188 L 155.105469 53.367188 L 155.105469 53.617188 C 155.230469 53.617188 156.089844 53.585938 156.339844 53.585938 C 156.558594 53.585938 157.433594 53.617188 157.589844 53.617188 L 157.589844 53.367188 L 157.324219 53.367188 C 156.621094 53.367188 156.621094 53.273438 156.621094 53.039062 Z M 156.621094 49.179688 "/>
</g>
</svg>
