<?xml version="1.0" encoding="UTF-8"?>
<svg xmlns="http://www.w3.org/2000/svg" xmlns:xlink="http://www.w3.org/1999/xlink" width="240.669998pt" height="149.110001pt" viewBox="0 0 240.669998 149.110001" version="1.1">
<defs>
<clipPath id="clip1">
  <path d="M 30.265625 17 L 238.976562 17 L 238.976562 124.515625 L 30.265625 124.515625 Z M 30.265625 17 "/>
</clipPath>
<clipPath id="clip2">
  <path d="M 30.265625 47 L 238.976562 47 L 238.976562 101 L 30.265625 101 Z M 30.265625 47 "/>
</clipPath>
</defs>
<g id="surface1">
<g clip-path="url(#clip1)" clip-rule="nonzero">
<path style="fill:none;stroke-width:0.3985;stroke-linecap:butt;stroke-linejoin:miter;stroke:rgb(38.822937%,38.822937%,100%);stroke-opacity:1;stroke-miterlimit:10;" d="M 30.265625 -70.054688 C 30.265625 -70.054688 31.289062 -70.042969 31.683594 -70.15625 C 32.078125 -70.269531 32.710938 -70.773438 33.105469 -70.878906 C 33.496094 -70.984375 34.128906 -70.863281 34.523438 -70.917969 C 34.917969 -70.976562 35.550781 -71.222656 35.941406 -71.292969 C 36.335938 -71.359375 36.96875 -71.378906 37.363281 -71.414062 C 37.757812 -71.449219 38.390625 -71.53125 38.78125 -71.539062 C 39.175781 -71.542969 39.808594 -71.464844 40.203125 -71.457031 C 40.597656 -71.449219 41.226562 -71.507812 41.621094 -71.476562 C 42.015625 -71.445312 42.648438 -71.28125 43.042969 -71.230469 C 43.4375 -71.179688 44.066406 -71.164062 44.460938 -71.105469 C 44.855469 -71.046875 45.488281 -70.851562 45.882812 -70.816406 C 46.277344 -70.78125 46.90625 -70.375 47.300781 -70.859375 C 47.695312 -71.34375 48.328125 -73.15625 48.722656 -74.304688 C 49.117188 -75.449219 49.746094 -77.347656 50.140625 -79.109375 C 50.535156 -80.875 51.167969 -84.390625 51.5625 -87.011719 C 51.953125 -89.632812 52.585938 -94.824219 52.980469 -98.007812 C 53.375 -101.191406 54.007812 -107.113281 54.402344 -109.953125 C 54.792969 -112.789062 55.425781 -117.085938 55.820312 -118.472656 C 56.214844 -119.855469 56.847656 -120.828125 57.242188 -119.9375 C 57.632812 -119.046875 58.265625 -115.320312 58.660156 -112.054688 C 59.054688 -108.792969 59.6875 -101.449219 60.078125 -96.417969 C 60.472656 -91.390625 61.105469 -81.671875 61.5 -75.808594 C 61.894531 -69.945312 62.527344 -59.722656 62.917969 -54.167969 C 63.3125 -48.617188 63.945312 -39.859375 64.339844 -35.789062 C 64.734375 -31.71875 65.363281 -26.609375 65.757812 -24.832031 C 66.152344 -23.058594 66.785156 -22.144531 67.179688 -22.996094 C 67.574219 -23.851562 68.203125 -27.625 68.597656 -30.980469 C 68.992188 -34.335938 69.625 -42.0625 70.019531 -47.175781 C 70.414062 -52.289062 71.042969 -61.996094 71.4375 -67.824219 C 71.832031 -73.65625 72.464844 -83.769531 72.859375 -89.199219 C 73.253906 -94.625 73.882812 -103.007812 74.277344 -106.941406 C 74.671875 -110.871094 75.304688 -115.886719 75.699219 -117.542969 C 76.089844 -119.199219 76.722656 -119.804688 77.117188 -118.882812 C 77.511719 -117.964844 78.144531 -114.195312 78.539062 -110.921875 C 78.929688 -107.648438 79.5625 -100.292969 79.957031 -95.285156 C 80.351562 -90.273438 80.984375 -80.585938 81.375 -74.820312 C 81.769531 -69.050781 82.402344 -59.171875 82.796875 -53.714844 C 83.191406 -48.257812 83.824219 -39.496094 84.214844 -35.5 C 84.609375 -31.503906 85.242188 -26.566406 85.636719 -24.914062 C 86.03125 -23.265625 86.664062 -22.554688 87.054688 -23.59375 C 87.449219 -24.636719 88.082031 -28.96875 88.476562 -32.425781 C 88.871094 -35.882812 89.5 -43.429688 89.894531 -48.515625 C 90.289062 -53.601562 90.921875 -63.371094 91.316406 -69.082031 C 91.710938 -74.796875 92.339844 -84.453125 92.734375 -89.691406 C 93.128906 -94.929688 93.761719 -103.050781 94.15625 -106.835938 C 94.550781 -110.625 95.179688 -115.457031 95.574219 -116.984375 C 95.96875 -118.515625 96.601562 -118.894531 96.996094 -117.851562 C 97.390625 -116.8125 98.019531 -112.847656 98.414062 -109.476562 C 98.808594 -106.109375 99.441406 -98.582031 99.835938 -93.570312 C 100.226562 -88.558594 100.859375 -79.042969 101.253906 -73.355469 C 101.648438 -67.664062 102.28125 -57.851562 102.675781 -52.558594 C 103.066406 -47.265625 103.699219 -38.980469 104.09375 -35.210938 C 104.488281 -31.441406 105.121094 -26.871094 105.511719 -25.390625 C 105.90625 -23.90625 106.539062 -23.46875 106.933594 -24.523438 C 107.328125 -25.578125 107.960938 -29.511719 108.351562 -33.003906 C 108.746094 -36.496094 109.378906 -44.609375 109.773438 -49.691406 C 110.167969 -54.773438 110.800781 -63.976562 111.191406 -69.621094 C 111.585938 -75.261719 112.21875 -85.207031 112.613281 -90.351562 C 113.007812 -95.5 113.636719 -103.121094 114.03125 -106.710938 C 114.425781 -110.304688 115.058594 -114.828125 115.453125 -116.242188 C 115.847656 -117.660156 116.476562 -117.972656 116.871094 -116.925781 C 117.265625 -115.875 117.898438 -112.050781 118.292969 -108.691406 C 118.6875 -105.335938 119.316406 -97.660156 119.710938 -92.726562 C 120.105469 -87.789062 120.738281 -78.722656 121.132812 -73.128906 C 121.527344 -67.53125 122.15625 -57.585938 122.550781 -52.394531 C 122.945312 -47.203125 123.578125 -39.347656 123.972656 -35.703125 C 124.363281 -32.0625 124.996094 -27.527344 125.390625 -26.152344 C 125.785156 -24.78125 126.417969 -24.632812 126.8125 -25.800781 C 127.203125 -26.972656 127.835938 -31.117188 128.230469 -34.589844 C 128.625 -38.066406 129.257812 -45.816406 129.648438 -50.847656 C 130.042969 -55.875 130.675781 -65.308594 131.070312 -70.835938 C 131.464844 -76.363281 132.097656 -85.703125 132.488281 -90.683594 C 132.882812 -95.664062 133.515625 -103.234375 133.910156 -106.734375 C 134.304688 -110.234375 134.933594 -114.640625 135.328125 -115.914062 C 135.722656 -117.183594 136.355469 -117.039062 136.75 -115.894531 C 137.144531 -114.746094 137.773438 -110.984375 138.167969 -107.640625 C 138.5625 -104.296875 139.195312 -96.757812 139.589844 -91.796875 C 139.984375 -86.835938 140.613281 -77.417969 141.007812 -71.890625 C 141.402344 -66.359375 142.035156 -56.96875 142.429688 -51.941406 C 142.824219 -46.910156 143.453125 -39.164062 143.847656 -35.644531 C 144.242188 -32.121094 144.875 -27.820312 145.269531 -26.566406 C 145.660156 -25.3125 146.292969 -25.359375 146.6875 -26.605469 C 147.082031 -27.855469 147.714844 -32.070312 148.109375 -35.558594 C 148.5 -39.050781 149.132812 -46.796875 149.527344 -51.753906 C 149.921875 -56.710938 150.554688 -65.855469 150.949219 -71.292969 C 151.339844 -76.726562 151.972656 -86.023438 152.367188 -90.929688 C 152.761719 -95.839844 153.394531 -103.3125 153.785156 -106.671875 C 154.179688 -110.027344 154.8125 -113.957031 155.207031 -115.128906 C 155.601562 -116.304688 156.234375 -116.335938 156.625 -115.128906 C 157.019531 -113.925781 157.652344 -109.863281 158.046875 -106.445312 C 158.441406 -103.023438 159.070312 -95.378906 159.464844 -90.476562 C 159.859375 -85.574219 160.492188 -76.53125 160.886719 -71.105469 C 161.28125 -65.679688 161.910156 -56.335938 162.304688 -51.382812 C 162.699219 -46.429688 163.332031 -38.796875 163.726562 -35.414062 C 164.121094 -32.035156 164.75 -28.160156 165.144531 -27.019531 C 165.539062 -25.878906 166.171875 -25.867188 166.566406 -27.183594 C 166.960938 -28.5 167.589844 -32.945312 167.984375 -36.507812 C 168.378906 -40.074219 169.011719 -47.925781 169.40625 -52.867188 C 169.796875 -57.8125 170.429688 -66.765625 170.824219 -72.136719 C 171.21875 -77.507812 171.851562 -86.75 172.246094 -91.570312 C 172.636719 -96.390625 173.269531 -103.664062 173.664062 -106.878906 C 174.058594 -110.09375 174.691406 -113.699219 175.085938 -114.738281 C 175.476562 -115.777344 176.109375 -115.640625 176.503906 -114.367188 C 176.898438 -113.09375 177.53125 -109.007812 177.921875 -105.558594 C 178.316406 -102.105469 178.949219 -94.371094 179.34375 -89.488281 C 179.738281 -84.601562 180.371094 -75.714844 180.761719 -70.34375 C 181.15625 -64.96875 181.789062 -55.628906 182.183594 -50.765625 C 182.578125 -45.898438 183.207031 -38.484375 183.601562 -35.273438 C 183.996094 -32.058594 184.628906 -28.621094 185.023438 -27.597656 C 185.417969 -26.574219 186.046875 -26.5625 186.441406 -27.90625 C 186.835938 -29.253906 187.46875 -33.710938 187.863281 -37.292969 C 188.257812 -40.878906 188.886719 -48.753906 189.28125 -53.734375 C 189.675781 -58.714844 190.308594 -67.886719 190.703125 -73.1875 C 191.097656 -78.492188 191.726562 -87.324219 192.121094 -91.960938 C 192.515625 -96.601562 193.148438 -103.5625 193.542969 -106.628906 C 193.933594 -109.699219 194.566406 -113.140625 194.960938 -114.078125 C 195.355469 -115.011719 195.988281 -114.734375 196.382812 -113.375 C 196.773438 -112.015625 197.40625 -107.714844 197.800781 -104.277344 C 198.195312 -100.84375 198.828125 -93.476562 199.21875 -88.621094 C 199.613281 -83.765625 200.246094 -74.578125 200.640625 -69.289062 C 201.035156 -64 201.667969 -55.164062 202.058594 -50.496094 C 202.453125 -45.828125 203.085938 -38.75 203.480469 -35.644531 C 203.875 -32.535156 204.507812 -29.050781 204.898438 -28.09375 C 205.292969 -27.132812 205.925781 -27.265625 206.320312 -28.730469 C 206.714844 -30.199219 207.34375 -35.140625 207.738281 -38.675781 C 208.132812 -42.210938 208.765625 -49.359375 209.160156 -54.210938 C 209.554688 -59.058594 210.183594 -68.320312 210.578125 -73.621094 C 210.972656 -78.925781 211.605469 -87.882812 212 -92.4375 C 212.394531 -96.992188 213.023438 -103.507812 213.417969 -106.445312 C 213.8125 -109.382812 214.445312 -112.734375 214.839844 -113.601562 C 215.234375 -114.46875 215.863281 -114.132812 216.257812 -112.695312 C 216.652344 -111.257812 217.285156 -106.757812 217.679688 -103.246094 C 218.070312 -99.738281 218.703125 -92.183594 219.097656 -87.402344 C 219.492188 -82.621094 220.125 -73.964844 220.519531 -68.796875 C 220.910156 -63.625 221.542969 -54.796875 221.9375 -50.144531 C 222.332031 -45.496094 222.964844 -38.289062 223.355469 -35.273438 C 223.75 -32.253906 224.382812 -29.191406 224.777344 -28.402344 C 225.171875 -27.613281 225.804688 -28.082031 226.195312 -29.578125 C 226.589844 -31.070312 227.222656 -35.585938 227.617188 -39.171875 C 228.011719 -42.757812 228.640625 -50.578125 229.035156 -55.425781 C 229.429688 -60.277344 230.0625 -68.992188 230.457031 -74.117188 C 230.851562 -79.242188 231.480469 -87.90625 231.875 -92.355469 C 232.269531 -96.800781 232.902344 -103.269531 233.296875 -106.175781 C 233.691406 -109.082031 234.320312 -112.523438 234.714844 -113.292969 C 235.109375 -114.0625 235.742188 -113.277344 236.136719 -111.726562 C 236.53125 -110.175781 237.160156 -105.570312 237.554688 -102.113281 C 237.949219 -98.65625 238.976562 -86.804688 238.976562 -86.804688 " transform="matrix(1,0,0,-1,0,0)"/>
</g>
<g clip-path="url(#clip2)" clip-rule="nonzero">
<path style="fill:none;stroke-width:0.3985;stroke-linecap:butt;stroke-linejoin:miter;stroke:rgb(100%,38.822937%,38.822937%);stroke-opacity:1;stroke-miterlimit:10;" d="M 30.265625 -70.054688 C 30.265625 -70.054688 31.289062 -70.054688 31.683594 -70.054688 C 32.078125 -70.054688 32.710938 -70.054688 33.105469 -70.054688 C 33.496094 -70.054688 34.128906 -70.054688 34.523438 -70.054688 C 34.917969 -70.054688 35.550781 -70.054688 35.941406 -70.054688 C 36.335938 -70.054688 36.96875 -70.046875 37.363281 -70.054688 C 37.757812 -70.058594 38.390625 -70.082031 38.78125 -70.09375 C 39.175781 -70.105469 39.808594 -70.128906 40.203125 -70.136719 C 40.597656 -70.140625 41.226562 -70.128906 41.621094 -70.136719 C 42.015625 -70.144531 42.648438 -70.1875 43.042969 -70.199219 C 43.4375 -70.207031 44.066406 -70.136719 44.460938 -70.199219 C 44.855469 -70.257812 45.488281 -70.453125 45.882812 -70.632812 C 46.277344 -70.808594 46.90625 -71.0625 47.300781 -71.476562 C 47.695312 -71.890625 48.328125 -72.945312 48.722656 -73.621094 C 49.117188 -74.296875 49.746094 -75.585938 50.140625 -76.34375 C 50.535156 -77.105469 51.167969 -78.230469 51.5625 -79.089844 C 51.953125 -79.949219 52.585938 -81.566406 52.980469 -82.535156 C 53.375 -83.5 54.007812 -85.144531 54.402344 -86.0625 C 54.792969 -86.980469 55.425781 -88.355469 55.820312 -89.15625 C 56.214844 -89.957031 56.847656 -91.15625 57.242188 -91.839844 C 57.632812 -92.519531 58.265625 -93.621094 58.660156 -94.066406 C 59.054688 -94.511719 59.6875 -95.097656 60.078125 -95.035156 C 60.472656 -94.972656 61.105469 -94.539062 61.5 -93.613281 C 61.894531 -92.683594 62.527344 -90.113281 62.917969 -88.351562 C 63.3125 -86.589844 63.945312 -83.175781 64.339844 -80.925781 C 64.734375 -78.675781 65.363281 -74.457031 65.757812 -72.136719 C 66.152344 -69.816406 66.785156 -66.21875 67.179688 -64.195312 C 67.574219 -62.171875 68.203125 -59.027344 68.597656 -57.550781 C 68.992188 -56.078125 69.625 -54.214844 70.019531 -53.570312 C 70.414062 -52.925781 71.042969 -52.730469 71.4375 -52.910156 C 71.832031 -53.089844 72.464844 -54.0625 72.859375 -54.871094 C 73.253906 -55.675781 73.882812 -57.460938 74.277344 -58.726562 C 74.671875 -59.992188 75.304688 -62.511719 75.699219 -63.988281 C 76.089844 -65.464844 76.722656 -68.054688 77.117188 -69.371094 C 77.511719 -70.691406 78.144531 -72.449219 78.539062 -73.5 C 78.929688 -74.546875 79.5625 -76.257812 79.957031 -76.921875 C 80.351562 -77.589844 80.984375 -78.117188 81.375 -78.304688 C 81.769531 -78.496094 82.402344 -78.476562 82.796875 -78.285156 C 83.191406 -78.09375 83.824219 -77.488281 84.214844 -76.921875 C 84.609375 -76.355469 85.242188 -74.945312 85.636719 -74.199219 C 86.03125 -73.457031 86.664062 -72.269531 87.054688 -71.558594 C 87.449219 -70.847656 88.082031 -69.671875 88.476562 -69.082031 C 88.871094 -68.492188 89.5 -67.648438 89.894531 -67.308594 C 90.289062 -66.972656 90.921875 -66.667969 91.316406 -66.648438 C 91.710938 -66.628906 92.339844 -66.960938 92.734375 -67.164062 C 93.128906 -67.371094 93.761719 -67.757812 94.15625 -68.136719 C 94.550781 -68.511719 95.179688 -69.441406 95.574219 -69.886719 C 95.96875 -70.335938 96.601562 -70.949219 96.996094 -71.351562 C 97.390625 -71.757812 98.019531 -72.511719 98.414062 -72.796875 C 98.808594 -73.082031 99.441406 -73.355469 99.835938 -73.414062 C 100.226562 -73.476562 100.859375 -73.328125 101.253906 -73.230469 C 101.648438 -73.132812 102.28125 -72.921875 102.675781 -72.714844 C 103.066406 -72.503906 103.699219 -72.085938 104.09375 -71.722656 C 104.488281 -71.363281 105.121094 -70.53125 105.511719 -70.113281 C 105.90625 -69.699219 106.539062 -69.085938 106.933594 -68.710938 C 107.328125 -68.335938 107.960938 -67.65625 108.351562 -67.414062 C 108.746094 -67.167969 109.378906 -67.058594 109.773438 -66.957031 C 110.167969 -66.859375 110.800781 -66.632812 111.191406 -66.691406 C 111.585938 -66.75 112.21875 -67.199219 112.613281 -67.371094 C 113.007812 -67.542969 113.636719 -67.6875 114.03125 -67.929688 C 114.425781 -68.167969 115.058594 -68.753906 115.453125 -69.105469 C 115.847656 -69.453125 116.476562 -70.089844 116.871094 -70.445312 C 117.265625 -70.800781 117.898438 -71.417969 118.292969 -71.664062 C 118.6875 -71.910156 119.316406 -72.066406 119.710938 -72.21875 C 120.105469 -72.375 120.738281 -72.703125 121.132812 -72.777344 C 121.527344 -72.851562 122.15625 -72.773438 122.550781 -72.753906 C 122.945312 -72.738281 123.578125 -72.746094 123.972656 -72.652344 C 124.363281 -72.558594 124.996094 -72.253906 125.390625 -72.074219 C 125.785156 -71.894531 126.417969 -71.558594 126.8125 -71.351562 C 127.203125 -71.148438 127.835938 -70.761719 128.230469 -70.589844 C 128.625 -70.417969 129.257812 -70.285156 129.648438 -70.113281 C 130.042969 -69.945312 130.675781 -69.511719 131.070312 -69.371094 C 131.464844 -69.230469 132.097656 -69.148438 132.488281 -69.105469 C 132.882812 -69.058594 133.515625 -69.050781 133.910156 -69.042969 C 134.304688 -69.035156 134.933594 -68.992188 135.328125 -69.042969 C 135.722656 -69.089844 136.355469 -69.292969 136.75 -69.394531 C 137.144531 -69.492188 137.773438 -69.664062 138.167969 -69.765625 C 138.5625 -69.863281 139.195312 -70.035156 139.589844 -70.113281 C 139.984375 -70.195312 140.613281 -70.28125 141.007812 -70.34375 C 141.402344 -70.40625 142.035156 -70.539062 142.429688 -70.570312 C 142.824219 -70.601562 143.453125 -70.570312 143.847656 -70.570312 C 144.242188 -70.570312 144.875 -70.578125 145.269531 -70.570312 C 145.660156 -70.5625 146.292969 -70.523438 146.6875 -70.507812 C 147.082031 -70.492188 147.714844 -70.472656 148.109375 -70.464844 C 148.5 -70.460938 149.132812 -70.464844 149.527344 -70.464844 C 149.921875 -70.464844 150.554688 -70.464844 150.949219 -70.464844 C 151.339844 -70.464844 151.972656 -70.46875 152.367188 -70.464844 C 152.761719 -70.464844 153.394531 -70.449219 153.785156 -70.445312 C 154.179688 -70.441406 154.8125 -70.449219 155.207031 -70.445312 C 155.601562 -70.441406 156.234375 -70.410156 156.625 -70.402344 C 157.019531 -70.398438 157.652344 -70.40625 158.046875 -70.402344 C 158.441406 -70.402344 159.070312 -70.382812 159.464844 -70.382812 C 159.859375 -70.382812 160.492188 -70.402344 160.886719 -70.402344 C 161.28125 -70.40625 161.910156 -70.402344 162.304688 -70.402344 C 162.699219 -70.402344 163.332031 -70.402344 163.726562 -70.402344 C 164.121094 -70.402344 164.75 -70.402344 165.144531 -70.402344 C 165.539062 -70.402344 166.171875 -70.402344 166.566406 -70.402344 C 166.960938 -70.402344 167.589844 -70.402344 167.984375 -70.402344 C 168.378906 -70.402344 169.011719 -70.402344 169.40625 -70.402344 C 169.796875 -70.402344 170.429688 -70.402344 170.824219 -70.402344 C 171.21875 -70.402344 171.851562 -70.402344 172.246094 -70.402344 C 172.636719 -70.402344 173.269531 -70.402344 173.664062 -70.402344 C 174.058594 -70.402344 174.691406 -70.402344 175.085938 -70.402344 C 175.476562 -70.402344 176.109375 -70.402344 176.503906 -70.402344 C 176.898438 -70.402344 177.53125 -70.402344 177.921875 -70.402344 C 178.316406 -70.402344 178.949219 -70.402344 179.34375 -70.402344 C 179.738281 -70.402344 180.371094 -70.417969 180.761719 -70.402344 C 181.15625 -70.390625 181.789062 -70.316406 182.183594 -70.300781 C 182.578125 -70.285156 183.207031 -70.300781 183.601562 -70.300781 C 183.996094 -70.300781 184.628906 -70.300781 185.023438 -70.300781 C 185.417969 -70.300781 186.046875 -70.300781 186.441406 -70.300781 C 186.835938 -70.300781 187.46875 -70.300781 187.863281 -70.300781 C 188.257812 -70.300781 188.886719 -70.300781 189.28125 -70.300781 C 189.675781 -70.300781 190.308594 -70.300781 190.703125 -70.300781 C 191.097656 -70.300781 191.726562 -70.300781 192.121094 -70.300781 C 192.515625 -70.300781 193.148438 -70.300781 193.542969 -70.300781 C 193.933594 -70.300781 194.566406 -70.300781 194.960938 -70.300781 C 195.355469 -70.300781 195.988281 -70.300781 196.382812 -70.300781 C 196.773438 -70.300781 197.40625 -70.300781 197.800781 -70.300781 C 198.195312 -70.300781 198.828125 -70.300781 199.21875 -70.300781 C 199.613281 -70.300781 200.246094 -70.300781 200.640625 -70.300781 C 201.035156 -70.300781 201.667969 -70.296875 202.058594 -70.300781 C 202.453125 -70.304688 203.085938 -70.320312 203.480469 -70.320312 C 203.875 -70.324219 204.507812 -70.320312 204.898438 -70.320312 C 205.292969 -70.320312 205.925781 -70.3125 206.320312 -70.320312 C 206.714844 -70.332031 207.34375 -70.375 207.738281 -70.382812 C 208.132812 -70.390625 208.765625 -70.382812 209.160156 -70.382812 C 209.554688 -70.382812 210.183594 -70.382812 210.578125 -70.382812 C 210.972656 -70.382812 211.605469 -70.382812 212 -70.382812 C 212.394531 -70.382812 213.023438 -70.382812 213.417969 -70.382812 C 213.8125 -70.382812 214.445312 -70.382812 214.839844 -70.382812 C 215.234375 -70.382812 215.863281 -70.378906 216.257812 -70.382812 C 216.652344 -70.386719 217.285156 -70.402344 217.679688 -70.402344 C 218.070312 -70.402344 218.703125 -70.386719 219.097656 -70.382812 C 219.492188 -70.378906 220.125 -70.382812 220.519531 -70.382812 C 220.910156 -70.382812 221.542969 -70.382812 221.9375 -70.382812 C 222.332031 -70.382812 222.964844 -70.382812 223.355469 -70.382812 C 223.75 -70.382812 224.382812 -70.378906 224.777344 -70.382812 C 225.171875 -70.390625 225.804688 -70.417969 226.195312 -70.425781 C 226.589844 -70.429688 227.222656 -70.425781 227.617188 -70.425781 C 228.011719 -70.425781 228.640625 -70.425781 229.035156 -70.425781 C 229.429688 -70.425781 230.0625 -70.425781 230.457031 -70.425781 C 230.851562 -70.425781 231.480469 -70.425781 231.875 -70.425781 C 232.269531 -70.425781 232.902344 -70.425781 233.296875 -70.425781 C 233.691406 -70.425781 234.320312 -70.425781 234.714844 -70.425781 C 235.109375 -70.425781 235.742188 -70.425781 236.136719 -70.425781 C 236.53125 -70.425781 237.160156 -70.425781 237.554688 -70.425781 C 237.949219 -70.425781 238.976562 -70.425781 238.976562 -70.425781 " transform="matrix(1,0,0,-1,0,0)"/>
</g>
<path style="fill:none;stroke-width:0.19925;stroke-linecap:butt;stroke-linejoin:miter;stroke:rgb(49.803162%,49.803162%,49.803162%);stroke-opacity:1;stroke-miterlimit:10;" d="M 30.265625 -124.515625 L 30.265625 -120.265625 M 65.757812 -124.515625 L 65.757812 -120.265625 M 101.253906 -124.515625 L 101.253906 -120.265625 M 136.75 -124.515625 L 136.75 -120.265625 M 172.246094 -124.515625 L 172.246094 -120.265625 M 207.738281 -124.515625 L 207.738281 -120.265625 M 30.265625 -1.976562 L 30.265625 -6.226562 M 65.757812 -1.976562 L 65.757812 -6.226562 M 101.253906 -1.976562 L 101.253906 -6.226562 M 136.75 -1.976562 L 136.75 -6.226562 M 172.246094 -1.976562 L 172.246094 -6.226562 M 207.738281 -1.976562 L 207.738281 -6.226562 " transform="matrix(1,0,0,-1,0,0)"/>
<path style="fill:none;stroke-width:0.19925;stroke-linecap:butt;stroke-linejoin:miter;stroke:rgb(49.803162%,49.803162%,49.803162%);stroke-opacity:1;stroke-miterlimit:10;" d="M 30.265625 -124.515625 L 34.515625 -124.515625 M 30.265625 -70.054688 L 34.515625 -70.054688 M 30.265625 -15.589844 L 34.515625 -15.589844 M 238.976562 -124.515625 L 234.722656 -124.515625 M 238.976562 -70.054688 L 234.722656 -70.054688 M 238.976562 -15.589844 L 234.722656 -15.589844 " transform="matrix(1,0,0,-1,0,0)"/>
<path style="fill:none;stroke-width:0.3985;stroke-linecap:butt;stroke-linejoin:miter;stroke:rgb(0%,0%,0%);stroke-opacity:1;stroke-miterlimit:10;" d="M 30.265625 -1.976562 L 238.976562 -1.976562 L 238.976562 -124.515625 L 30.265625 -124.515625 Z M 30.265625 -1.976562 " transform="matrix(1,0,0,-1,0,0)"/>
<path style=" stroke:none;fill-rule:nonzero;fill:rgb(0%,0%,0%);fill-opacity:1;" d="M 31.871094 130.3125 C 31.871094 129.546875 31.777344 128.984375 31.464844 128.5 C 31.246094 128.1875 30.808594 127.90625 30.261719 127.90625 C 28.636719 127.90625 28.636719 129.8125 28.636719 130.3125 C 28.636719 130.8125 28.636719 132.671875 30.261719 132.671875 C 31.871094 132.671875 31.871094 130.8125 31.871094 130.3125 Z M 30.261719 132.46875 C 29.933594 132.46875 29.511719 132.28125 29.371094 131.71875 C 29.277344 131.3125 29.277344 130.734375 29.277344 130.21875 C 29.277344 129.703125 29.277344 129.171875 29.371094 128.796875 C 29.527344 128.25 29.964844 128.09375 30.261719 128.09375 C 30.636719 128.09375 30.996094 128.328125 31.121094 128.734375 C 31.230469 129.109375 31.246094 129.609375 31.246094 130.21875 C 31.246094 130.734375 31.246094 131.25 31.152344 131.6875 C 31.011719 132.328125 30.542969 132.46875 30.261719 132.46875 Z M 30.261719 132.46875 "/>
<path style=" stroke:none;fill-rule:nonzero;fill:rgb(0%,0%,0%);fill-opacity:1;" d="M 66.101562 128.09375 C 66.101562 127.90625 66.101562 127.90625 65.898438 127.90625 C 65.445312 128.34375 64.820312 128.34375 64.539062 128.34375 L 64.539062 128.59375 C 64.695312 128.59375 65.164062 128.59375 65.539062 128.40625 L 65.539062 131.953125 C 65.539062 132.1875 65.539062 132.28125 64.851562 132.28125 L 64.585938 132.28125 L 64.585938 132.53125 C 64.710938 132.53125 65.570312 132.5 65.820312 132.5 C 66.039062 132.5 66.914062 132.53125 67.070312 132.53125 L 67.070312 132.28125 L 66.804688 132.28125 C 66.101562 132.28125 66.101562 132.1875 66.101562 131.953125 Z M 66.101562 128.09375 "/>
<path style=" stroke:none;fill-rule:nonzero;fill:rgb(0%,0%,0%);fill-opacity:1;" d="M 102.785156 131.265625 L 102.550781 131.265625 C 102.535156 131.421875 102.457031 131.828125 102.363281 131.890625 C 102.316406 131.9375 101.785156 131.9375 101.675781 131.9375 L 100.394531 131.9375 C 101.128906 131.296875 101.378906 131.09375 101.785156 130.765625 C 102.300781 130.359375 102.785156 129.921875 102.785156 129.265625 C 102.785156 128.421875 102.050781 127.90625 101.160156 127.90625 C 100.300781 127.90625 99.707031 128.515625 99.707031 129.15625 C 99.707031 129.5 100.003906 129.546875 100.082031 129.546875 C 100.238281 129.546875 100.441406 129.421875 100.441406 129.171875 C 100.441406 129.046875 100.394531 128.796875 100.035156 128.796875 C 100.253906 128.3125 100.722656 128.15625 101.050781 128.15625 C 101.753906 128.15625 102.113281 128.703125 102.113281 129.265625 C 102.113281 129.875 101.675781 130.34375 101.457031 130.59375 L 99.785156 132.265625 C 99.707031 132.328125 99.707031 132.34375 99.707031 132.53125 L 102.582031 132.53125 Z M 102.785156 131.265625 "/>
<path style=" stroke:none;fill-rule:nonzero;fill:rgb(0%,0%,0%);fill-opacity:1;" d="M 136.671875 130.203125 C 137.21875 130.203125 137.609375 130.578125 137.609375 131.328125 C 137.609375 132.1875 137.09375 132.453125 136.703125 132.453125 C 136.421875 132.453125 135.796875 132.375 135.515625 131.953125 C 135.84375 131.953125 135.921875 131.71875 135.921875 131.5625 C 135.921875 131.34375 135.75 131.1875 135.53125 131.1875 C 135.34375 131.1875 135.140625 131.3125 135.140625 131.59375 C 135.140625 132.25 135.859375 132.671875 136.703125 132.671875 C 137.671875 132.671875 138.34375 132.015625 138.34375 131.328125 C 138.34375 130.78125 137.90625 130.234375 137.140625 130.078125 C 137.859375 129.8125 138.125 129.296875 138.125 128.859375 C 138.125 128.3125 137.5 127.90625 136.71875 127.90625 C 135.953125 127.90625 135.359375 128.28125 135.359375 128.84375 C 135.359375 129.078125 135.515625 129.203125 135.71875 129.203125 C 135.9375 129.203125 136.078125 129.046875 136.078125 128.859375 C 136.078125 128.65625 135.9375 128.5 135.71875 128.484375 C 135.96875 128.1875 136.4375 128.109375 136.703125 128.109375 C 137.015625 128.109375 137.453125 128.265625 137.453125 128.859375 C 137.453125 129.15625 137.359375 129.484375 137.171875 129.6875 C 136.953125 129.953125 136.75 129.96875 136.40625 130 C 136.234375 130.015625 136.21875 130.015625 136.1875 130.015625 C 136.171875 130.015625 136.109375 130.03125 136.109375 130.109375 C 136.109375 130.203125 136.171875 130.203125 136.296875 130.203125 Z M 136.671875 130.203125 "/>
<path style=" stroke:none;fill-rule:nonzero;fill:rgb(0%,0%,0%);fill-opacity:1;" d="M 173.945312 131.390625 L 173.945312 131.140625 L 173.164062 131.140625 L 173.164062 128.03125 C 173.164062 127.890625 173.164062 127.828125 173.023438 127.828125 C 172.929688 127.828125 172.898438 127.828125 172.835938 127.9375 L 170.523438 131.140625 L 170.523438 131.390625 L 172.585938 131.390625 L 172.585938 131.953125 C 172.585938 132.203125 172.585938 132.28125 172.007812 132.28125 L 171.820312 132.28125 L 171.820312 132.53125 C 172.179688 132.515625 172.617188 132.5 172.867188 132.5 C 173.132812 132.5 173.570312 132.515625 173.929688 132.53125 L 173.929688 132.28125 L 173.742188 132.28125 C 173.164062 132.28125 173.164062 132.203125 173.164062 131.953125 L 173.164062 131.390625 Z M 172.632812 128.59375 L 172.632812 131.140625 L 170.789062 131.140625 Z M 172.632812 128.59375 "/>
<path style=" stroke:none;fill-rule:nonzero;fill:rgb(0%,0%,0%);fill-opacity:1;" d="M 206.832031 128.640625 C 207.191406 128.734375 207.394531 128.734375 207.503906 128.734375 C 208.425781 128.734375 208.972656 128.109375 208.972656 128 C 208.972656 127.921875 208.925781 127.90625 208.894531 127.90625 C 208.878906 127.90625 208.863281 127.90625 208.832031 127.921875 C 208.660156 127.984375 208.300781 128.125 207.785156 128.125 C 207.582031 128.125 207.222656 128.109375 206.769531 127.9375 C 206.691406 127.90625 206.675781 127.90625 206.675781 127.90625 C 206.582031 127.90625 206.582031 127.984375 206.582031 128.09375 L 206.582031 130.140625 C 206.582031 130.265625 206.582031 130.34375 206.691406 130.34375 C 206.753906 130.34375 206.769531 130.34375 206.832031 130.25 C 207.128906 129.875 207.566406 129.8125 207.800781 129.8125 C 208.222656 129.8125 208.410156 130.140625 208.441406 130.203125 C 208.566406 130.4375 208.613281 130.703125 208.613281 131.109375 C 208.613281 131.3125 208.613281 131.71875 208.394531 132.03125 C 208.222656 132.28125 207.925781 132.453125 207.582031 132.453125 C 207.128906 132.453125 206.660156 132.203125 206.488281 131.734375 C 206.753906 131.75 206.894531 131.578125 206.894531 131.390625 C 206.894531 131.09375 206.628906 131.046875 206.535156 131.046875 C 206.535156 131.046875 206.191406 131.046875 206.191406 131.421875 C 206.191406 132.046875 206.769531 132.671875 207.597656 132.671875 C 208.488281 132.671875 209.269531 132.015625 209.269531 131.125 C 209.269531 130.34375 208.675781 129.625 207.816406 129.625 C 207.503906 129.625 207.144531 129.6875 206.832031 129.953125 Z M 206.832031 128.640625 "/>
<path style=" stroke:none;fill-rule:nonzero;fill:rgb(0%,0%,0%);fill-opacity:1;" d="M 17.761719 124.769531 C 17.871094 124.769531 18.042969 124.769531 18.042969 124.613281 C 18.042969 124.425781 17.871094 124.425781 17.761719 124.425781 L 13.605469 124.425781 C 13.496094 124.425781 13.324219 124.425781 13.324219 124.597656 C 13.324219 124.769531 13.480469 124.769531 13.605469 124.769531 Z M 17.761719 124.769531 "/>
<path style=" stroke:none;fill-rule:nonzero;fill:rgb(0%,0%,0%);fill-opacity:1;" d="M 22.316406 125.082031 L 22.082031 125.082031 C 22.066406 125.238281 21.988281 125.644531 21.894531 125.707031 C 21.847656 125.753906 21.316406 125.753906 21.207031 125.753906 L 19.925781 125.753906 C 20.660156 125.113281 20.910156 124.910156 21.316406 124.582031 C 21.832031 124.175781 22.316406 123.738281 22.316406 123.082031 C 22.316406 122.238281 21.582031 121.722656 20.691406 121.722656 C 19.832031 121.722656 19.238281 122.332031 19.238281 122.972656 C 19.238281 123.316406 19.535156 123.363281 19.613281 123.363281 C 19.769531 123.363281 19.972656 123.238281 19.972656 122.988281 C 19.972656 122.863281 19.925781 122.613281 19.566406 122.613281 C 19.785156 122.128906 20.253906 121.972656 20.582031 121.972656 C 21.285156 121.972656 21.644531 122.519531 21.644531 123.082031 C 21.644531 123.691406 21.207031 124.160156 20.988281 124.410156 L 19.316406 126.082031 C 19.238281 126.144531 19.238281 126.160156 19.238281 126.347656 L 22.113281 126.347656 Z M 22.316406 125.082031 "/>
<path style=" stroke:none;fill-rule:nonzero;fill:rgb(0%,0%,0%);fill-opacity:1;" d="M 26.367188 124.128906 C 26.367188 123.363281 26.273438 122.800781 25.960938 122.316406 C 25.742188 122.003906 25.304688 121.722656 24.757812 121.722656 C 23.132812 121.722656 23.132812 123.628906 23.132812 124.128906 C 23.132812 124.628906 23.132812 126.488281 24.757812 126.488281 C 26.367188 126.488281 26.367188 124.628906 26.367188 124.128906 Z M 24.757812 126.285156 C 24.429688 126.285156 24.007812 126.097656 23.867188 125.535156 C 23.773438 125.128906 23.773438 124.550781 23.773438 124.035156 C 23.773438 123.519531 23.773438 122.988281 23.867188 122.613281 C 24.023438 122.066406 24.460938 121.910156 24.757812 121.910156 C 25.132812 121.910156 25.492188 122.144531 25.617188 122.550781 C 25.726562 122.925781 25.742188 123.425781 25.742188 124.035156 C 25.742188 124.550781 25.742188 125.066406 25.648438 125.503906 C 25.507812 126.144531 25.039062 126.285156 24.757812 126.285156 Z M 24.757812 126.285156 "/>
<path style=" stroke:none;fill-rule:nonzero;fill:rgb(0%,0%,0%);fill-opacity:1;" d="M 26.367188 70.082031 C 26.367188 69.316406 26.273438 68.753906 25.960938 68.269531 C 25.742188 67.957031 25.304688 67.675781 24.757812 67.675781 C 23.132812 67.675781 23.132812 69.582031 23.132812 70.082031 C 23.132812 70.582031 23.132812 72.441406 24.757812 72.441406 C 26.367188 72.441406 26.367188 70.582031 26.367188 70.082031 Z M 24.757812 72.238281 C 24.429688 72.238281 24.007812 72.050781 23.867188 71.488281 C 23.773438 71.082031 23.773438 70.503906 23.773438 69.988281 C 23.773438 69.472656 23.773438 68.941406 23.867188 68.566406 C 24.023438 68.019531 24.460938 67.863281 24.757812 67.863281 C 25.132812 67.863281 25.492188 68.097656 25.617188 68.503906 C 25.726562 68.878906 25.742188 69.378906 25.742188 69.988281 C 25.742188 70.503906 25.742188 71.019531 25.648438 71.457031 C 25.507812 72.097656 25.039062 72.238281 24.757812 72.238281 Z M 24.757812 72.238281 "/>
<path style=" stroke:none;fill-rule:nonzero;fill:rgb(0%,0%,0%);fill-opacity:1;" d="M 22.316406 16.574219 L 22.082031 16.574219 C 22.066406 16.730469 21.988281 17.136719 21.894531 17.199219 C 21.847656 17.246094 21.316406 17.246094 21.207031 17.246094 L 19.925781 17.246094 C 20.660156 16.605469 20.910156 16.402344 21.316406 16.074219 C 21.832031 15.667969 22.316406 15.230469 22.316406 14.574219 C 22.316406 13.730469 21.582031 13.214844 20.691406 13.214844 C 19.832031 13.214844 19.238281 13.824219 19.238281 14.464844 C 19.238281 14.808594 19.535156 14.855469 19.613281 14.855469 C 19.769531 14.855469 19.972656 14.730469 19.972656 14.480469 C 19.972656 14.355469 19.925781 14.105469 19.566406 14.105469 C 19.785156 13.621094 20.253906 13.464844 20.582031 13.464844 C 21.285156 13.464844 21.644531 14.011719 21.644531 14.574219 C 21.644531 15.183594 21.207031 15.652344 20.988281 15.902344 L 19.316406 17.574219 C 19.238281 17.636719 19.238281 17.652344 19.238281 17.839844 L 22.113281 17.839844 Z M 22.316406 16.574219 "/>
<path style=" stroke:none;fill-rule:nonzero;fill:rgb(0%,0%,0%);fill-opacity:1;" d="M 26.367188 15.621094 C 26.367188 14.855469 26.273438 14.292969 25.960938 13.808594 C 25.742188 13.496094 25.304688 13.214844 24.757812 13.214844 C 23.132812 13.214844 23.132812 15.121094 23.132812 15.621094 C 23.132812 16.121094 23.132812 17.980469 24.757812 17.980469 C 26.367188 17.980469 26.367188 16.121094 26.367188 15.621094 Z M 24.757812 17.777344 C 24.429688 17.777344 24.007812 17.589844 23.867188 17.027344 C 23.773438 16.621094 23.773438 16.042969 23.773438 15.527344 C 23.773438 15.011719 23.773438 14.480469 23.867188 14.105469 C 24.023438 13.558594 24.460938 13.402344 24.757812 13.402344 C 25.132812 13.402344 25.492188 13.636719 25.617188 14.042969 C 25.726562 14.417969 25.742188 14.917969 25.742188 15.527344 C 25.742188 16.042969 25.742188 16.558594 25.648438 16.996094 C 25.507812 17.636719 25.039062 17.777344 24.757812 17.777344 Z M 24.757812 17.777344 "/>
<path style=" stroke:none;fill-rule:nonzero;fill:rgb(0%,0%,0%);fill-opacity:1;" d="M 118.527344 138.675781 L 118.574219 139.660156 L 118.574219 144.019531 L 118.480469 145.066406 C 118.667969 145.003906 118.792969 144.957031 118.855469 144.925781 C 118.917969 144.878906 118.996094 144.832031 119.058594 144.785156 L 119.058594 144.144531 L 120.699219 144.144531 L 120.699219 144.785156 C 120.902344 144.722656 121.089844 144.628906 121.246094 144.519531 L 121.214844 143.863281 L 121.214844 139.410156 L 121.402344 139.269531 C 121.480469 139.222656 121.527344 139.191406 121.511719 139.175781 C 121.511719 139.144531 121.496094 139.128906 121.433594 139.082031 L 120.839844 138.675781 L 120.574219 139.082031 L 119.183594 139.082031 Z M 119.058594 143.925781 L 119.058594 141.613281 L 120.699219 141.613281 L 120.699219 143.925781 Z M 119.058594 141.378906 L 119.058594 139.269531 L 120.699219 139.269531 L 120.699219 141.378906 Z M 124.308594 140.128906 L 122.152344 140.128906 L 121.449219 140.097656 L 121.730469 140.410156 C 121.980469 140.363281 122.183594 140.332031 122.339844 140.332031 L 124.308594 140.332031 L 124.308594 144.863281 C 124.308594 144.972656 124.292969 145.050781 124.230469 145.128906 C 124.167969 145.175781 124.042969 145.191406 123.824219 145.175781 C 123.621094 145.144531 123.417969 145.113281 123.246094 145.082031 C 123.058594 145.066406 122.902344 145.035156 122.792969 145.019531 L 122.761719 145.113281 L 123.152344 145.269531 C 123.417969 145.363281 123.605469 145.472656 123.683594 145.535156 C 123.792969 145.628906 123.855469 145.707031 123.886719 145.800781 C 123.933594 145.910156 123.964844 146.019531 123.980469 146.144531 C 124.402344 145.988281 124.667969 145.847656 124.746094 145.691406 C 124.824219 145.535156 124.871094 145.347656 124.871094 145.113281 L 124.871094 140.332031 L 126.339844 140.332031 C 126.402344 140.332031 126.449219 140.332031 126.464844 140.300781 C 126.464844 140.269531 126.464844 140.238281 126.417969 140.207031 L 125.746094 139.550781 L 125.292969 140.128906 L 124.871094 140.128906 L 124.871094 138.316406 L 125.089844 138.160156 C 125.152344 138.113281 125.199219 138.082031 125.199219 138.082031 C 125.183594 138.050781 125.152344 138.035156 125.074219 137.988281 L 124.246094 137.660156 L 124.308594 138.753906 Z M 122.011719 141.410156 L 122.292969 141.785156 C 122.339844 141.863281 122.402344 141.972656 122.464844 142.128906 C 122.527344 142.285156 122.574219 142.457031 122.605469 142.613281 C 122.652344 142.769531 122.667969 142.925781 122.667969 143.050781 C 122.667969 143.191406 122.699219 143.269531 122.714844 143.332031 C 122.746094 143.363281 122.792969 143.394531 122.855469 143.410156 C 122.949219 143.425781 123.042969 143.378906 123.136719 143.253906 C 123.214844 143.144531 123.277344 143.019531 123.277344 142.894531 C 123.308594 142.628906 123.214844 142.378906 123.011719 142.144531 C 122.808594 141.925781 122.496094 141.660156 122.058594 141.347656 Z M 122.011719 141.410156 "/>
<path style=" stroke:none;fill-rule:nonzero;fill:rgb(0%,0%,0%);fill-opacity:1;" d="M 127.632812 144.160156 L 127.570312 146.082031 C 127.804688 146.035156 128.023438 145.957031 128.179688 145.847656 L 128.148438 144.378906 L 128.148438 139.535156 L 128.429688 139.347656 C 128.476562 139.316406 128.507812 139.269531 128.507812 139.253906 C 128.507812 139.222656 128.476562 139.191406 128.445312 139.175781 L 127.570312 138.816406 L 127.632812 140.457031 Z M 128.429688 137.863281 C 128.664062 138.175781 128.820312 138.394531 128.851562 138.472656 C 128.898438 138.550781 128.945312 138.660156 129.007812 138.816406 C 129.070312 138.957031 129.101562 139.082031 129.101562 139.175781 C 129.117188 139.269531 129.132812 139.347656 129.164062 139.394531 C 129.195312 139.441406 129.242188 139.457031 129.320312 139.472656 C 129.382812 139.472656 129.460938 139.441406 129.539062 139.363281 C 129.601562 139.300781 129.664062 139.222656 129.695312 139.144531 C 129.742188 139.019531 129.742188 138.910156 129.710938 138.785156 C 129.679688 138.691406 129.554688 138.535156 129.304688 138.347656 C 129.070312 138.160156 128.789062 137.972656 128.492188 137.785156 Z M 129.492188 144.457031 C 129.726562 144.378906 129.914062 144.300781 130.070312 144.238281 L 130.070312 143.863281 L 132.007812 143.863281 L 132.007812 144.347656 C 132.304688 144.253906 132.507812 144.160156 132.601562 144.082031 L 132.539062 143.238281 L 132.539062 140.707031 L 132.742188 140.519531 C 132.804688 140.472656 132.835938 140.425781 132.835938 140.394531 C 132.820312 140.378906 132.789062 140.332031 132.757812 140.300781 L 132.148438 139.941406 L 131.898438 140.347656 L 130.132812 140.332031 L 129.507812 139.972656 L 129.554688 141.113281 L 129.554688 143.128906 Z M 130.070312 143.660156 L 130.070312 142.144531 L 132.007812 142.144531 L 132.007812 143.660156 Z M 130.070312 141.941406 L 130.070312 140.550781 L 132.007812 140.550781 L 132.007812 141.925781 Z M 131.132812 138.597656 L 130.054688 138.582031 L 130.476562 138.957031 L 130.679688 138.910156 C 130.789062 138.878906 131.132812 138.847656 131.695312 138.816406 L 133.992188 138.816406 L 133.992188 144.894531 C 133.992188 145.050781 133.960938 145.144531 133.914062 145.207031 C 133.851562 145.269531 133.742188 145.300781 133.601562 145.285156 L 132.523438 145.175781 L 132.523438 145.332031 L 132.945312 145.441406 C 133.132812 145.488281 133.273438 145.550781 133.367188 145.628906 C 133.445312 145.691406 133.507812 145.785156 133.539062 145.863281 C 133.570312 145.957031 133.570312 146.035156 133.585938 146.144531 C 133.898438 146.019531 134.117188 145.894531 134.257812 145.800781 C 134.398438 145.691406 134.460938 145.597656 134.507812 145.519531 C 134.523438 145.441406 134.539062 145.300781 134.539062 145.113281 L 134.539062 138.988281 L 134.789062 138.753906 C 134.835938 138.722656 134.867188 138.691406 134.882812 138.675781 C 134.882812 138.660156 134.835938 138.628906 134.773438 138.582031 L 134.164062 138.144531 L 133.820312 138.597656 Z M 131.132812 138.597656 "/>
<path style=" stroke:none;fill-rule:nonzero;fill:rgb(0%,0%,0%);fill-opacity:1;" d="M 141.332031 141.863281 C 141.332031 142.566406 141.425781 143.644531 141.925781 144.660156 C 142.457031 145.753906 143.238281 146.347656 143.316406 146.347656 C 143.378906 146.347656 143.410156 146.316406 143.410156 146.253906 C 143.410156 146.222656 143.410156 146.207031 143.253906 146.050781 C 142.144531 144.925781 141.847656 143.238281 141.847656 141.863281 C 141.847656 140.300781 142.191406 138.738281 143.300781 137.613281 C 143.410156 137.503906 143.410156 137.488281 143.410156 137.472656 C 143.410156 137.410156 143.378906 137.378906 143.316406 137.378906 C 143.238281 137.378906 142.425781 137.988281 141.894531 139.128906 C 141.441406 140.113281 141.332031 141.113281 141.332031 141.863281 Z M 141.332031 141.863281 "/>
<path style=" stroke:none;fill-rule:nonzero;fill:rgb(0%,0%,0%);fill-opacity:1;" d="M 147.925781 143.410156 C 147.925781 143.003906 147.753906 142.753906 147.550781 142.550781 C 147.253906 142.253906 146.925781 142.191406 146.269531 142.066406 C 146.035156 142.019531 145.378906 141.910156 145.378906 141.394531 C 145.378906 141.113281 145.582031 140.722656 146.394531 140.722656 C 147.363281 140.722656 147.425781 141.472656 147.441406 141.691406 C 147.457031 141.800781 147.457031 141.863281 147.566406 141.863281 C 147.691406 141.863281 147.691406 141.800781 147.691406 141.628906 L 147.691406 140.769531 C 147.691406 140.613281 147.691406 140.535156 147.597656 140.535156 C 147.550781 140.535156 147.535156 140.535156 147.410156 140.644531 C 147.394531 140.660156 147.316406 140.738281 147.253906 140.785156 C 146.988281 140.582031 146.707031 140.535156 146.394531 140.535156 C 145.207031 140.535156 144.925781 141.191406 144.925781 141.644531 C 144.925781 141.925781 145.050781 142.160156 145.253906 142.363281 C 145.550781 142.644531 145.894531 142.707031 146.347656 142.785156 C 146.816406 142.878906 146.957031 142.894531 147.160156 143.050781 C 147.253906 143.128906 147.472656 143.300781 147.472656 143.628906 C 147.472656 144.425781 146.566406 144.425781 146.441406 144.425781 C 145.535156 144.425781 145.300781 143.660156 145.191406 143.175781 C 145.160156 143.082031 145.144531 143.035156 145.050781 143.035156 C 144.925781 143.035156 144.925781 143.113281 144.925781 143.269531 L 144.925781 144.410156 C 144.925781 144.566406 144.925781 144.644531 145.019531 144.644531 C 145.082031 144.644531 145.082031 144.644531 145.253906 144.472656 C 145.285156 144.410156 145.378906 144.300781 145.425781 144.253906 C 145.800781 144.628906 146.222656 144.644531 146.441406 144.644531 C 147.550781 144.644531 147.925781 144.003906 147.925781 143.410156 Z M 147.925781 143.410156 "/>
<path style=" stroke:none;fill-rule:nonzero;fill:rgb(0%,0%,0%);fill-opacity:1;" d="M 149.445312 146.253906 C 149.445312 146.316406 149.476562 146.347656 149.539062 146.347656 C 149.617188 146.347656 150.429688 145.738281 150.960938 144.597656 C 151.414062 143.613281 151.523438 142.613281 151.523438 141.863281 C 151.523438 141.160156 151.429688 140.082031 150.929688 139.066406 C 150.398438 137.957031 149.617188 137.378906 149.539062 137.378906 C 149.476562 137.378906 149.445312 137.410156 149.445312 137.472656 C 149.445312 137.488281 149.445312 137.503906 149.617188 137.675781 C 150.492188 138.566406 151.007812 139.988281 151.007812 141.863281 C 151.007812 143.394531 150.679688 144.972656 149.554688 146.097656 C 149.445312 146.207031 149.445312 146.222656 149.445312 146.253906 Z M 149.445312 146.253906 "/>
<path style=" stroke:none;fill-rule:nonzero;fill:rgb(0%,0%,0%);fill-opacity:1;" d="M 6.65625 82.804688 L 7.328125 82.445312 L 7.15625 82.242188 C 7.078125 82.148438 6.890625 81.851562 6.609375 81.367188 L 9.3125 81.367188 C 9.375 81.367188 9.4375 81.398438 9.453125 81.414062 C 9.484375 81.460938 9.5 81.523438 9.515625 81.632812 C 9.515625 81.757812 9.46875 82.054688 9.375 82.539062 L 9.515625 82.554688 C 9.625 82.179688 9.71875 81.945312 9.796875 81.882812 C 9.859375 81.820312 9.9375 81.773438 10.03125 81.757812 C 10.109375 81.757812 10.1875 81.726562 10.25 81.726562 C 10.1875 81.429688 10.09375 81.226562 9.9375 81.070312 C 9.8125 80.914062 9.671875 80.851562 9.515625 80.851562 L 6.34375 80.851562 L 5.640625 79.695312 L 5.53125 79.726562 C 5.6875 80.117188 5.84375 80.476562 6 80.851562 L 4.234375 80.835938 L 4.25 79.460938 L 5.5625 79.476562 C 6.015625 79.476562 6.46875 79.507812 6.921875 79.539062 C 7.375 79.554688 7.828125 79.632812 8.265625 79.757812 C 8.703125 79.882812 9.078125 80.054688 9.375 80.273438 C 9.671875 80.492188 9.9375 80.710938 10.203125 80.929688 L 10.328125 80.867188 C 9.984375 80.476562 9.640625 80.148438 9.28125 79.882812 C 8.90625 79.617188 8.515625 79.414062 8.09375 79.289062 C 7.671875 79.148438 7.265625 79.085938 6.90625 79.054688 C 6.546875 79.023438 6.21875 78.992188 5.921875 78.992188 L 5.921875 78.398438 L 9.1875 78.398438 C 9.3125 78.398438 9.40625 78.429688 9.5 78.445312 C 9.578125 78.476562 9.65625 78.554688 9.71875 78.664062 L 10.265625 78.148438 L 9.921875 77.898438 C 9.890625 77.882812 9.78125 77.757812 9.5625 77.539062 C 9.375 77.320312 9.25 77.179688 9.1875 77.101562 C 9.140625 77.023438 9.046875 76.882812 8.9375 76.695312 L 8.8125 76.757812 C 9.015625 77.148438 9.234375 77.523438 9.4375 77.914062 L 5.921875 77.914062 L 5.921875 77.289062 L 6.28125 77.242188 C 6.515625 77.226562 6.8125 77.179688 7.15625 77.117188 C 7.515625 77.039062 7.859375 76.914062 8.203125 76.742188 C 8.53125 76.554688 8.828125 76.367188 9.078125 76.179688 C 9.328125 75.992188 9.640625 75.710938 10 75.351562 L 9.859375 75.242188 C 9.734375 75.179688 9.703125 74.945312 9.734375 74.539062 L 9.609375 74.507812 C 9.421875 74.898438 9.21875 75.242188 9.015625 75.554688 C 8.8125 75.851562 8.546875 76.085938 8.265625 76.257812 C 7.953125 76.429688 7.71875 76.554688 7.515625 76.664062 L 7.328125 76.304688 L 7.0625 75.648438 C 7.015625 75.570312 6.953125 75.460938 6.875 75.289062 L 6.90625 75.054688 C 6.90625 75.007812 6.90625 74.976562 6.875 74.960938 C 6.859375 74.960938 6.8125 74.976562 6.75 75.023438 L 6.234375 75.445312 C 6.59375 75.742188 6.953125 76.164062 7.328125 76.726562 C 7.078125 76.835938 6.84375 76.914062 6.640625 76.976562 C 6.453125 77.023438 6.203125 77.070312 5.921875 77.117188 L 5.921875 74.742188 C 5.921875 74.710938 5.921875 74.679688 5.890625 74.664062 C 5.859375 74.648438 5.796875 74.695312 5.671875 74.820312 L 5.203125 75.304688 L 5.71875 75.695312 L 5.71875 78.976562 L 4.671875 78.945312 C 4.46875 78.945312 3.921875 78.945312 3.0625 78.929688 L 3.0625 75.117188 C 3.0625 75.101562 3.046875 75.070312 3.015625 75.054688 C 3 75.023438 2.9375 75.070312 2.84375 75.164062 L 2.359375 75.695312 L 2.84375 76.101562 L 2.84375 78.867188 L 2.484375 79.523438 L 3.1875 79.476562 C 3.25 79.476562 3.375 79.476562 3.578125 79.460938 C 3.796875 79.460938 3.984375 79.460938 4.15625 79.460938 L 3.546875 80.070312 L 4.03125 80.429688 L 4.03125 80.835938 L 2.625 80.851562 L 2.46875 80.632812 C 2.4375 80.570312 2.40625 80.539062 2.390625 80.539062 C 2.375 80.539062 2.328125 80.601562 2.265625 80.757812 L 2 81.429688 L 2.921875 81.367188 L 4.03125 81.367188 L 4.03125 82.148438 L 4.015625 82.695312 L 4.359375 82.398438 L 4.28125 82.257812 C 4.265625 82.226562 4.265625 82.039062 4.25 81.695312 L 4.234375 81.367188 L 6.171875 81.367188 C 6.40625 81.914062 6.5625 82.398438 6.65625 82.804688 Z M 4.328125 76.460938 L 4.328125 78.070312 L 4.296875 78.554688 L 4.65625 78.257812 L 4.59375 78.132812 C 4.546875 78.085938 4.53125 77.898438 4.53125 77.570312 L 4.53125 75.523438 C 4.53125 75.476562 4.53125 75.445312 4.5 75.445312 C 4.46875 75.429688 4.390625 75.507812 4.234375 75.679688 L 3.875 76.101562 Z M 4.328125 76.460938 "/>
<path style=" stroke:none;fill-rule:nonzero;fill:rgb(0%,0%,0%);fill-opacity:1;" d="M 3.40625 73.511719 L 4.53125 73.449219 L 7.609375 73.449219 L 8.859375 73.527344 C 8.828125 73.371094 8.796875 73.261719 8.765625 73.214844 C 8.75 73.152344 8.6875 73.058594 8.59375 72.964844 L 7.671875 73.027344 L 3.984375 73.027344 L 3.984375 72.339844 L 9.09375 72.339844 L 10.40625 72.402344 C 10.390625 72.324219 10.359375 72.214844 10.328125 72.121094 C 10.265625 72.027344 10.234375 71.949219 10.21875 71.933594 C 10.203125 71.902344 10.171875 71.871094 10.125 71.824219 L 9.0625 71.886719 L 8.421875 71.886719 L 8.484375 71.636719 C 8.5 71.558594 8.546875 71.480469 8.640625 71.433594 C 8.71875 71.371094 8.8125 71.324219 8.90625 71.292969 C 8.78125 70.996094 8.65625 70.824219 8.53125 70.777344 C 8.390625 70.730469 8.234375 70.699219 8.046875 70.714844 L 4.109375 70.730469 L 3.953125 70.574219 C 3.875 70.496094 3.84375 70.464844 3.8125 70.464844 C 3.796875 70.449219 3.75 70.496094 3.703125 70.574219 L 3.40625 71.011719 L 3.78125 71.292969 L 3.78125 71.886719 L 2.546875 71.886719 L 2.421875 71.714844 C 2.390625 71.652344 2.359375 71.621094 2.34375 71.621094 C 2.3125 71.621094 2.28125 71.667969 2.234375 71.746094 L 1.96875 72.402344 L 3.0625 72.339844 L 3.78125 72.339844 L 3.78125 72.886719 Z M 8.234375 71.886719 L 3.984375 71.886719 L 3.984375 71.167969 L 7.875 71.167969 L 8.265625 71.214844 C 8.328125 71.214844 8.3125 71.433594 8.234375 71.886719 Z M 2.625 70.605469 L 3.0625 70.152344 C 2.9375 69.855469 2.875 69.464844 2.875 68.996094 L 2.875 66.027344 C 2.875 65.949219 2.859375 65.902344 2.84375 65.902344 C 2.828125 65.886719 2.78125 65.917969 2.71875 65.980469 L 2.125 66.574219 L 2.65625 66.949219 L 2.65625 70.089844 Z M 6.265625 69.605469 L 5.875 70.246094 L 6.875 70.183594 L 9.328125 70.183594 L 10.34375 70.246094 C 10.328125 70.136719 10.3125 70.042969 10.265625 69.949219 C 10.21875 69.855469 10.203125 69.777344 10.171875 69.714844 L 9.640625 69.714844 L 9.640625 66.777344 L 10.3125 66.777344 C 10.28125 66.574219 10.203125 66.402344 10.0625 66.246094 L 9.34375 66.308594 L 6.5625 66.308594 L 6.421875 66.121094 C 6.390625 66.058594 6.359375 66.027344 6.34375 66.027344 C 6.3125 66.042969 6.28125 66.074219 6.234375 66.121094 L 5.859375 66.605469 L 6.265625 66.917969 Z M 7.640625 69.714844 L 6.46875 69.714844 L 6.484375 68.542969 L 7.640625 68.542969 Z M 9.4375 69.714844 L 7.875 69.714844 L 7.875 68.542969 L 9.4375 68.542969 Z M 7.640625 68.089844 L 6.484375 68.089844 L 6.484375 66.777344 L 7.640625 66.777344 Z M 9.4375 68.089844 L 7.875 68.089844 L 7.875 66.777344 L 9.4375 66.777344 Z M 3.40625 69.761719 L 4.296875 69.699219 L 5.015625 69.699219 L 5.921875 69.761719 C 5.921875 69.605469 5.859375 69.433594 5.734375 69.261719 L 5.4375 69.261719 L 5.4375 67.324219 L 5.8125 67.324219 C 5.796875 67.214844 5.78125 67.136719 5.75 67.074219 C 5.734375 67.011719 5.671875 66.933594 5.59375 66.855469 L 4.9375 66.886719 L 4.078125 66.886719 L 3.921875 66.667969 C 3.875 66.605469 3.859375 66.574219 3.828125 66.574219 C 3.8125 66.574219 3.765625 66.621094 3.6875 66.699219 L 3.359375 67.121094 L 3.75 67.449219 L 3.765625 69.230469 Z M 5.21875 69.261719 L 3.984375 69.261719 L 3.984375 67.324219 L 5.21875 67.324219 Z M 5.21875 69.261719 "/>
<path style=" stroke:none;fill-rule:nonzero;fill:rgb(0%,0%,0%);fill-opacity:1;" d="M 6.234375 59.574219 C 6.9375 59.574219 8.015625 59.480469 9.03125 58.980469 C 10.125 58.449219 10.71875 57.667969 10.71875 57.589844 C 10.71875 57.527344 10.6875 57.496094 10.625 57.496094 C 10.59375 57.496094 10.578125 57.496094 10.421875 57.652344 C 9.296875 58.761719 7.609375 59.058594 6.234375 59.058594 C 4.671875 59.058594 3.109375 58.714844 1.984375 57.605469 C 1.875 57.496094 1.859375 57.496094 1.84375 57.496094 C 1.78125 57.496094 1.75 57.527344 1.75 57.589844 C 1.75 57.667969 2.359375 58.480469 3.5 59.011719 C 4.484375 59.464844 5.484375 59.574219 6.234375 59.574219 Z M 6.234375 59.574219 "/>
<path style=" stroke:none;fill-rule:nonzero;fill:rgb(0%,0%,0%);fill-opacity:1;" d="M 6.984375 51.484375 C 5.859375 51.484375 4.953125 52.375 4.953125 53.421875 C 4.953125 53.90625 5.15625 54.359375 5.515625 54.703125 L 4.953125 54.703125 L 5.0625 56.03125 L 5.328125 56.03125 C 5.328125 55.390625 5.390625 55.34375 5.78125 55.34375 L 9.96875 55.34375 C 10.390625 55.34375 10.390625 55.4375 10.390625 56.03125 L 10.65625 56.03125 C 10.640625 55.609375 10.640625 55.4375 10.640625 55 C 10.640625 54.578125 10.640625 54.453125 10.65625 53.984375 L 10.390625 53.984375 C 10.390625 54.578125 10.390625 54.671875 9.96875 54.671875 L 8.484375 54.671875 C 8.71875 54.4375 9.015625 54.140625 9.015625 53.546875 C 9.015625 52.46875 8.15625 51.484375 6.984375 51.484375 Z M 6.984375 52.265625 C 8 52.265625 8.796875 52.875 8.796875 53.59375 C 8.796875 54 8.5625 54.34375 8.25 54.5625 C 8.0625 54.671875 8.046875 54.671875 7.875 54.671875 L 5.90625 54.671875 C 5.390625 54.375 5.203125 53.875 5.203125 53.5 C 5.203125 52.796875 6.015625 52.265625 6.984375 52.265625 Z M 6.984375 52.265625 "/>
<path style=" stroke:none;fill-rule:nonzero;fill:rgb(0%,0%,0%);fill-opacity:1;" d="M 8.921875 46.703125 L 8.640625 46.703125 C 8.640625 47.0625 8.640625 47.328125 8.390625 47.53125 L 6.90625 48.703125 C 6.828125 48.765625 6.8125 48.765625 6.8125 48.765625 C 6.8125 48.765625 5.9375 48.0625 5.859375 48 C 5.5625 47.71875 5.34375 47.40625 5.328125 46.859375 L 5.0625 46.859375 C 5.078125 47.125 5.078125 47.359375 5.078125 47.625 C 5.078125 47.96875 5.078125 48.125 5.0625 48.484375 L 5.328125 48.484375 C 5.359375 48.359375 5.421875 48.234375 5.609375 48.234375 C 5.75 48.234375 5.84375 48.3125 5.90625 48.359375 L 6.609375 48.9375 L 5.71875 49.640625 C 5.640625 49.703125 5.625 49.71875 5.5625 49.71875 C 5.453125 49.71875 5.34375 49.609375 5.328125 49.40625 L 5.0625 49.40625 C 5.078125 49.75 5.078125 49.984375 5.078125 50.390625 C 5.078125 50.390625 5.078125 50.921875 5.0625 51.265625 L 5.328125 51.265625 C 5.328125 50.640625 5.359375 50.625 5.875 50.21875 L 7.03125 49.296875 L 8.09375 50.15625 C 8.625 50.609375 8.640625 51.125 8.640625 51.3125 L 8.921875 51.3125 C 8.890625 51.046875 8.890625 50.8125 8.890625 50.546875 C 8.890625 50.265625 8.90625 49.96875 8.921875 49.6875 L 8.640625 49.6875 C 8.609375 49.90625 8.46875 49.9375 8.375 49.9375 C 8.34375 49.9375 8.21875 49.9375 8.0625 49.8125 C 7.78125 49.59375 7.515625 49.359375 7.25 49.125 L 8.15625 48.421875 C 8.34375 48.25 8.359375 48.25 8.421875 48.25 C 8.515625 48.25 8.640625 48.34375 8.640625 48.5625 L 8.921875 48.5625 C 8.90625 48.1875 8.890625 47.96875 8.890625 47.578125 C 8.890625 47.578125 8.890625 47.046875 8.921875 46.703125 Z M 8.921875 46.703125 "/>
<path style=" stroke:none;fill-rule:nonzero;fill:rgb(0%,0%,0%);fill-opacity:1;" d="M 10.625 45.375 C 10.6875 45.375 10.71875 45.34375 10.71875 45.28125 C 10.71875 45.203125 10.109375 44.390625 8.96875 43.859375 C 7.984375 43.40625 6.984375 43.296875 6.234375 43.296875 C 5.53125 43.296875 4.453125 43.390625 3.4375 43.890625 C 2.328125 44.421875 1.75 45.203125 1.75 45.28125 C 1.75 45.34375 1.78125 45.375 1.84375 45.375 C 1.859375 45.375 1.875 45.375 2.046875 45.203125 C 2.9375 44.328125 4.359375 43.8125 6.234375 43.8125 C 7.765625 43.8125 9.34375 44.140625 10.46875 45.265625 C 10.578125 45.375 10.59375 45.375 10.625 45.375 Z M 10.625 45.375 "/>
<path style="fill:none;stroke-width:0.3985;stroke-linecap:butt;stroke-linejoin:miter;stroke:rgb(0%,0%,0%);stroke-opacity:1;stroke-miterlimit:10;" d="M 106.136719 -4.625 L 234.601562 -4.625 L 234.601562 -21.820312 L 106.136719 -21.820312 Z M 106.136719 -4.625 " transform="matrix(1,0,0,-1,0,0)"/>
<path style="fill:none;stroke-width:0.3985;stroke-linecap:butt;stroke-linejoin:miter;stroke:rgb(38.822937%,38.822937%,100%);stroke-opacity:1;stroke-miterlimit:10;" d="M 109.324219 -13.222656 C 109.324219 -13.222656 115.46875 -13.222656 117.828125 -13.222656 C 120.1875 -13.222656 126.332031 -13.222656 126.332031 -13.222656 " transform="matrix(1,0,0,-1,0,0)"/>
<path style=" stroke:none;fill-rule:nonzero;fill:rgb(0%,0%,0%);fill-opacity:1;" d="M 128.914062 17.4375 L 128.976562 17.578125 C 129.789062 17.234375 130.398438 16.9375 130.820312 16.6875 C 131.210938 16.4375 131.617188 16.109375 131.976562 15.703125 C 132.351562 15.3125 132.617188 14.890625 132.773438 14.453125 C 132.929688 14.015625 133.039062 13.625 133.101562 13.3125 C 133.164062 13 133.210938 12.6875 133.257812 12.40625 L 133.992188 12.40625 L 133.992188 16.828125 C 133.992188 17 134.039062 17.125 134.148438 17.203125 C 134.242188 17.265625 134.414062 17.3125 134.648438 17.3125 L 135.445312 17.34375 C 136.554688 17.375 137.257812 17.34375 137.554688 17.234375 C 137.835938 17.140625 138.007812 17.015625 138.070312 16.859375 C 138.117188 16.703125 138.164062 16.578125 138.195312 16.46875 L 138.007812 16.390625 C 137.960938 16.375 137.882812 16.296875 137.820312 16.1875 C 137.742188 16.0625 137.679688 15.90625 137.679688 15.71875 C 137.648438 15.53125 137.648438 15.328125 137.648438 15.125 C 137.648438 14.921875 137.648438 14.734375 137.664062 14.5625 L 137.507812 14.5625 L 137.476562 14.890625 L 137.398438 15.6875 C 137.367188 15.96875 137.335938 16.1875 137.304688 16.3125 C 137.273438 16.4375 137.226562 16.5625 137.132812 16.65625 C 137.039062 16.734375 136.773438 16.796875 136.304688 16.78125 C 135.835938 16.765625 135.523438 16.765625 135.351562 16.78125 C 135.179688 16.78125 135.054688 16.765625 134.960938 16.765625 C 134.820312 16.734375 134.726562 16.703125 134.679688 16.640625 C 134.648438 16.59375 134.617188 16.5 134.617188 16.359375 L 134.617188 12.40625 L 137.492188 12.40625 C 137.585938 12.421875 137.648438 12.40625 137.648438 12.375 C 137.664062 12.34375 137.632812 12.296875 137.554688 12.21875 L 136.914062 11.546875 L 136.335938 12.171875 L 133.273438 12.171875 L 133.351562 11.1875 L 133.460938 9.703125 L 136.804688 9.6875 C 136.914062 9.6875 136.960938 9.6875 136.976562 9.640625 C 136.992188 9.625 136.960938 9.5625 136.882812 9.484375 L 136.195312 8.84375 L 135.632812 9.453125 L 130.882812 9.453125 L 130.085938 9.421875 L 130.460938 9.859375 L 130.585938 9.78125 C 130.601562 9.765625 130.679688 9.75 130.820312 9.71875 C 130.960938 9.703125 131.039062 9.6875 131.085938 9.6875 L 132.789062 9.6875 L 132.773438 10.375 L 132.710938 11.5 C 132.710938 11.5625 132.695312 11.78125 132.664062 12.171875 L 130.257812 12.171875 L 129.429688 12.140625 L 129.898438 12.5625 C 130.101562 12.453125 130.304688 12.40625 130.492188 12.40625 L 132.648438 12.40625 L 132.570312 13.046875 C 132.523438 13.375 132.367188 13.9375 132.085938 14.71875 C 131.820312 15.5 131.039062 16.25 129.789062 16.953125 L 129.101562 17.34375 C 129.054688 17.359375 129.007812 17.390625 128.914062 17.4375 Z M 128.914062 17.4375 "/>
<path style=" stroke:none;fill-rule:nonzero;fill:rgb(0%,0%,0%);fill-opacity:1;" d="M 139.410156 8.84375 L 139.472656 10.46875 L 139.472656 16.296875 L 139.394531 17.90625 C 139.691406 17.8125 139.910156 17.703125 140.035156 17.59375 L 139.957031 16.234375 L 139.957031 14.546875 C 140.394531 14.65625 140.644531 14.78125 140.707031 14.90625 C 140.785156 15.03125 140.832031 15.15625 140.863281 15.296875 C 141.144531 15.203125 141.363281 15.109375 141.503906 15.03125 C 141.644531 14.921875 141.769531 14.78125 141.878906 14.609375 C 142.003906 14.421875 142.050781 14.203125 142.050781 13.984375 C 142.050781 13.75 142.019531 13.515625 141.972656 13.265625 C 141.910156 13.03125 141.816406 12.796875 141.675781 12.578125 C 141.535156 12.359375 141.363281 12.109375 141.144531 11.828125 L 141.863281 10.234375 C 141.957031 10.015625 142.066406 9.859375 142.175781 9.765625 L 142.488281 9.578125 C 142.535156 9.546875 142.550781 9.53125 142.550781 9.53125 C 142.550781 9.5 142.519531 9.46875 142.441406 9.40625 L 141.832031 8.953125 L 141.472656 9.4375 L 140.191406 9.4375 Z M 139.957031 14.328125 L 139.957031 9.6875 L 141.597656 9.6875 L 140.816406 11.796875 L 141.144531 12.359375 C 141.285156 12.609375 141.394531 12.875 141.441406 13.15625 C 141.503906 13.4375 141.535156 13.6875 141.519531 13.90625 C 141.519531 14.125 141.457031 14.265625 141.363281 14.34375 C 141.253906 14.421875 141.128906 14.453125 140.988281 14.46875 C 140.863281 14.484375 140.535156 14.421875 139.957031 14.328125 Z M 140.957031 16.765625 L 141.410156 17.1875 L 141.535156 17.109375 C 141.597656 17.0625 141.785156 17.03125 142.082031 17.03125 L 147.925781 17.03125 C 148.003906 17.03125 148.050781 17.015625 148.050781 17 C 148.066406 16.984375 148.050781 16.9375 147.988281 16.875 L 147.347656 16.21875 L 146.800781 16.796875 L 146.566406 16.796875 L 146.566406 9.875 L 146.894531 9.625 C 146.957031 9.578125 146.988281 9.53125 146.988281 9.5 C 146.988281 9.46875 146.925781 9.421875 146.832031 9.359375 L 146.222656 8.921875 L 145.832031 9.4375 L 143.457031 9.4375 L 142.628906 8.84375 L 142.691406 10.078125 L 142.691406 16.796875 L 141.316406 16.796875 Z M 146.019531 16.796875 L 143.238281 16.796875 L 143.238281 14.21875 L 146.019531 14.21875 Z M 143.238281 13.96875 L 143.238281 12.015625 L 146.019531 12.015625 L 146.019531 13.96875 Z M 143.238281 11.78125 L 143.238281 9.6875 L 146.019531 9.6875 L 146.019531 11.78125 Z M 143.238281 11.78125 "/>
<path style=" stroke:none;fill-rule:nonzero;fill:rgb(0%,0%,0%);fill-opacity:1;" d="M 148.933594 17.375 L 149.027344 17.4375 L 149.324219 17.171875 C 149.777344 16.78125 150.152344 16.28125 150.449219 15.671875 C 150.746094 15.0625 150.949219 14.453125 151.027344 13.8125 C 151.121094 13.1875 151.167969 12.328125 151.183594 11.28125 L 156.121094 11.28125 L 156.121094 11.828125 C 156.167969 11.8125 156.277344 11.796875 156.417969 11.734375 C 156.574219 11.703125 156.652344 11.65625 156.683594 11.640625 C 156.699219 11.609375 156.730469 11.578125 156.761719 11.53125 L 156.730469 10.78125 L 156.730469 9.6875 L 156.996094 9.421875 C 156.996094 9.421875 157.058594 9.359375 157.058594 9.359375 C 157.058594 9.359375 156.996094 9.3125 156.996094 9.3125 L 156.277344 8.8125 L 156.011719 9.3125 L 151.246094 9.3125 L 150.511719 8.921875 L 150.527344 10.03125 C 150.558594 10.71875 150.558594 11.53125 150.542969 12.46875 C 150.527344 13.140625 150.496094 13.703125 150.433594 14.171875 C 150.355469 14.640625 150.246094 15.09375 150.058594 15.546875 C 149.871094 16 149.699219 16.359375 149.527344 16.609375 C 149.339844 16.859375 149.152344 17.109375 148.933594 17.375 Z M 151.183594 11.046875 L 151.214844 9.53125 L 156.121094 9.53125 L 156.121094 11.046875 Z M 152.402344 11.78125 L 152.449219 12.90625 L 152.449219 16.4375 C 152.449219 16.703125 152.527344 16.90625 152.683594 17.03125 C 152.824219 17.15625 153.261719 17.234375 153.964844 17.234375 L 155.371094 17.234375 C 156.089844 17.234375 156.589844 17.203125 156.839844 17.125 C 157.089844 17.0625 157.277344 16.984375 157.402344 16.875 C 157.542969 16.765625 157.621094 16.6875 157.636719 16.625 C 157.683594 16.5625 157.699219 16.5 157.730469 16.40625 C 157.511719 16.21875 157.386719 16.0625 157.339844 15.9375 C 157.308594 15.796875 157.292969 15.640625 157.308594 15.4375 C 157.324219 15.21875 157.339844 15 157.355469 14.734375 L 157.199219 14.734375 L 157.058594 15.5 L 156.949219 16.078125 C 156.917969 16.21875 156.839844 16.359375 156.730469 16.484375 C 156.621094 16.59375 156.277344 16.65625 155.746094 16.65625 C 155.199219 16.65625 154.792969 16.65625 154.542969 16.671875 C 154.074219 16.6875 153.761719 16.6875 153.589844 16.65625 C 153.417969 16.625 153.292969 16.5625 153.230469 16.5 C 153.152344 16.421875 153.121094 16.328125 153.121094 16.21875 L 153.121094 15 C 154.058594 14.515625 154.714844 14.15625 155.042969 13.953125 C 155.371094 13.75 155.808594 13.46875 156.339844 13.078125 L 156.636719 13.046875 C 156.714844 13.046875 156.746094 13.03125 156.746094 13.015625 C 156.746094 12.984375 156.730469 12.96875 156.699219 12.9375 L 155.980469 12.265625 L 155.730469 12.640625 C 155.683594 12.71875 155.480469 12.9375 155.121094 13.28125 C 154.761719 13.625 154.433594 13.90625 154.105469 14.125 C 153.808594 14.328125 153.480469 14.53125 153.121094 14.75 L 153.121094 12.53125 L 153.417969 12.28125 C 153.480469 12.25 153.511719 12.21875 153.496094 12.203125 C 153.496094 12.171875 153.449219 12.15625 153.386719 12.125 Z M 152.402344 11.78125 "/>
<path style=" stroke:none;fill-rule:nonzero;fill:rgb(0%,0%,0%);fill-opacity:1;" d="M 161.847656 12.84375 L 161.566406 13.15625 C 161.316406 13.453125 160.925781 13.796875 160.363281 14.203125 C 159.832031 14.59375 159.222656 14.9375 158.597656 15.21875 L 158.613281 15.375 C 158.972656 15.265625 159.238281 15.171875 159.441406 15.09375 C 159.644531 15 159.878906 14.890625 160.128906 14.765625 L 160.128906 16.953125 L 160.082031 17.890625 L 160.410156 17.78125 C 160.488281 17.765625 160.519531 17.765625 160.550781 17.734375 C 160.566406 17.734375 160.613281 17.703125 160.660156 17.671875 L 160.660156 16.9375 L 162.128906 16.9375 L 162.128906 17.65625 C 162.347656 17.609375 162.472656 17.578125 162.519531 17.5625 C 162.566406 17.5625 162.644531 17.53125 162.738281 17.484375 L 162.691406 16.734375 L 162.675781 14.953125 L 162.878906 14.765625 C 162.941406 14.734375 162.957031 14.703125 162.957031 14.6875 C 162.957031 14.671875 162.910156 14.625 162.832031 14.578125 L 162.300781 14.203125 L 162.003906 14.625 L 160.738281 14.609375 L 160.597656 14.53125 L 160.847656 14.34375 L 161.332031 14.015625 C 161.675781 13.765625 162.082031 13.359375 162.550781 12.828125 L 164.316406 12.84375 L 164.722656 13.40625 C 164.769531 13.46875 164.894531 13.578125 165.113281 13.765625 C 165.316406 13.953125 165.644531 14.15625 166.050781 14.40625 L 165.863281 14.578125 L 164.550781 14.578125 L 163.910156 14.234375 L 163.957031 15.171875 L 163.957031 16.796875 L 163.910156 17.84375 C 164.175781 17.765625 164.363281 17.6875 164.457031 17.59375 L 164.457031 16.9375 L 166.003906 16.9375 L 166.003906 17.625 L 166.097656 17.578125 L 166.332031 17.5 C 166.394531 17.46875 166.488281 17.421875 166.597656 17.375 L 166.550781 16.65625 L 166.550781 15 L 166.660156 14.90625 C 166.691406 14.875 166.707031 14.859375 166.722656 14.84375 C 166.738281 14.8125 166.691406 14.78125 166.628906 14.734375 C 166.738281 14.78125 166.957031 14.875 167.316406 15.015625 C 167.410156 14.84375 167.488281 14.734375 167.550781 14.6875 L 167.785156 14.5625 C 167.894531 14.53125 167.988281 14.515625 168.082031 14.515625 L 168.113281 14.375 C 167.441406 14.3125 166.800781 14.15625 166.207031 13.9375 C 165.597656 13.6875 165.191406 13.484375 165.003906 13.3125 C 164.816406 13.125 164.660156 12.96875 164.550781 12.84375 L 167.691406 12.84375 C 167.785156 12.84375 167.816406 12.828125 167.847656 12.796875 C 167.847656 12.78125 167.816406 12.734375 167.753906 12.6875 L 166.972656 12 L 166.503906 12.609375 L 165.503906 12.609375 C 165.628906 12.4375 165.691406 12.3125 165.691406 12.171875 C 165.691406 12.09375 165.644531 12 165.550781 11.859375 C 165.472656 11.734375 165.113281 11.609375 164.488281 11.484375 L 164.425781 11.59375 C 164.644531 11.75 164.800781 11.890625 164.910156 12.03125 C 165.035156 12.15625 165.128906 12.34375 165.238281 12.609375 L 162.738281 12.609375 L 163.050781 12.203125 L 163.332031 11.84375 C 163.347656 11.78125 163.410156 11.71875 163.488281 11.625 L 163.769531 11.5625 C 163.847656 11.546875 163.878906 11.53125 163.894531 11.515625 C 163.894531 11.484375 163.847656 11.453125 163.769531 11.390625 L 163.019531 10.921875 L 162.878906 11.265625 C 162.863281 11.359375 162.753906 11.53125 162.582031 11.8125 C 162.410156 12.078125 162.222656 12.34375 162.035156 12.609375 L 159.425781 12.609375 L 158.691406 12.578125 L 159.035156 13 C 159.285156 12.890625 159.613281 12.84375 160.019531 12.84375 Z M 160.660156 16.734375 L 160.660156 14.84375 L 162.128906 14.84375 L 162.128906 16.734375 Z M 164.457031 16.71875 L 164.457031 14.796875 L 166.003906 14.796875 L 166.003906 16.71875 Z M 160.050781 8.84375 L 160.097656 9.59375 L 160.097656 11.125 L 160.050781 11.875 L 160.207031 11.84375 L 160.378906 11.78125 C 160.457031 11.75 160.550781 11.703125 160.628906 11.640625 L 160.628906 11.09375 L 162.128906 11.09375 L 162.128906 11.59375 C 162.410156 11.515625 162.628906 11.4375 162.738281 11.375 L 162.691406 10.71875 L 162.691406 9.5625 L 162.910156 9.359375 C 162.957031 9.328125 162.988281 9.296875 162.988281 9.265625 L 162.863281 9.171875 L 162.332031 8.765625 L 162.035156 9.203125 L 160.675781 9.203125 Z M 160.628906 10.859375 L 160.628906 9.4375 L 162.128906 9.4375 L 162.128906 10.859375 Z M 164.144531 8.78125 L 164.191406 9.484375 L 164.191406 10.796875 L 164.144531 11.515625 C 164.332031 11.453125 164.519531 11.390625 164.707031 11.296875 L 164.707031 11.09375 L 166.332031 11.09375 L 166.332031 11.515625 C 166.628906 11.40625 166.800781 11.34375 166.816406 11.34375 C 166.847656 11.328125 166.878906 11.3125 166.910156 11.28125 L 166.863281 10.625 L 166.863281 9.515625 L 167.097656 9.328125 C 167.144531 9.296875 167.175781 9.265625 167.160156 9.234375 C 167.160156 9.203125 167.128906 9.171875 167.050781 9.109375 L 166.503906 8.75 L 166.207031 9.1875 L 164.863281 9.171875 Z M 164.707031 10.859375 L 164.707031 9.40625 L 166.332031 9.40625 L 166.332031 10.859375 Z M 164.707031 10.859375 "/>
<path style="fill:none;stroke-width:0.3985;stroke-linecap:butt;stroke-linejoin:miter;stroke:rgb(100%,38.822937%,38.822937%);stroke-opacity:1;stroke-miterlimit:10;" d="M 170.566406 -13.222656 C 170.566406 -13.222656 176.710938 -13.222656 179.070312 -13.222656 C 181.429688 -13.222656 187.574219 -13.222656 187.574219 -13.222656 " transform="matrix(1,0,0,-1,0,0)"/>
<path style=" stroke:none;fill-rule:nonzero;fill:rgb(0%,0%,0%);fill-opacity:1;" d="M 190.03125 15.109375 L 190.078125 15.234375 C 190.296875 15.125 190.546875 14.96875 190.859375 14.734375 C 191.171875 14.515625 191.453125 14.265625 191.734375 14.015625 C 192.03125 13.765625 192.390625 13.375 192.859375 12.859375 L 192.859375 16.671875 L 192.796875 17.921875 C 193.0625 17.828125 193.265625 17.734375 193.40625 17.625 L 193.390625 16.984375 L 193.375 15.46875 L 196.78125 15.46875 L 196.78125 16.953125 C 196.78125 17.0625 196.75 17.140625 196.71875 17.1875 C 196.671875 17.234375 196.5625 17.25 196.375 17.234375 C 196.1875 17.21875 195.8125 17.15625 195.21875 17.078125 L 195.203125 17.25 C 195.578125 17.328125 195.8125 17.390625 195.953125 17.453125 C 196.0625 17.53125 196.15625 17.609375 196.21875 17.703125 C 196.28125 17.78125 196.3125 17.84375 196.328125 17.890625 C 196.328125 17.9375 196.34375 18.015625 196.359375 18.109375 C 196.609375 18.03125 196.84375 17.953125 197.0625 17.859375 C 197.265625 17.75 197.375 17.59375 197.375 17.375 L 197.375 12.578125 L 197.578125 12.40625 C 197.6875 12.34375 197.734375 12.28125 197.734375 12.28125 C 197.734375 12.265625 197.671875 12.203125 197.546875 12.109375 L 197 11.734375 L 196.640625 12.1875 L 193.34375 12.1875 L 193.90625 11.28125 C 193.96875 11.203125 194.109375 10.96875 194.328125 10.5625 L 199.171875 10.578125 C 199.203125 10.578125 199.234375 10.546875 199.25 10.515625 C 199.28125 10.484375 199.203125 10.390625 199.015625 10.21875 L 198.421875 9.671875 L 197.921875 10.328125 L 194.421875 10.328125 L 194.953125 9.359375 L 195.21875 9.234375 C 195.3125 9.203125 195.375 9.171875 195.375 9.140625 C 195.375 9.125 195.3125 9.09375 195.203125 9.03125 L 194.375 8.609375 L 194.265625 9.0625 C 194.234375 9.171875 194.171875 9.34375 194.09375 9.5625 C 194 9.765625 193.890625 10.03125 193.75 10.328125 L 190.921875 10.328125 L 190.046875 10.28125 L 190.421875 10.71875 L 190.65625 10.625 C 190.75 10.59375 190.96875 10.578125 191.3125 10.578125 L 193.625 10.578125 C 193.390625 11.0625 193.0625 11.640625 192.640625 12.3125 C 192.234375 12.96875 191.765625 13.546875 191.28125 13.984375 C 190.796875 14.453125 190.375 14.8125 190.03125 15.109375 Z M 193.375 15.234375 L 193.375 13.96875 L 196.78125 13.96875 L 196.78125 15.234375 Z M 193.375 13.734375 L 193.375 12.421875 L 196.78125 12.421875 L 196.78125 13.734375 Z M 193.375 13.734375 "/>
<path style=" stroke:none;fill-rule:nonzero;fill:rgb(0%,0%,0%);fill-opacity:1;" d="M 200.652344 8.984375 L 200.714844 10.609375 L 200.714844 16.4375 L 200.636719 18.046875 C 200.933594 17.953125 201.152344 17.84375 201.277344 17.734375 L 201.199219 16.375 L 201.199219 14.6875 C 201.636719 14.796875 201.886719 14.921875 201.949219 15.046875 C 202.027344 15.171875 202.074219 15.296875 202.105469 15.4375 C 202.386719 15.34375 202.605469 15.25 202.746094 15.171875 C 202.886719 15.0625 203.011719 14.921875 203.121094 14.75 C 203.246094 14.5625 203.292969 14.34375 203.292969 14.125 C 203.292969 13.890625 203.261719 13.65625 203.214844 13.40625 C 203.152344 13.171875 203.058594 12.9375 202.917969 12.71875 C 202.777344 12.5 202.605469 12.25 202.386719 11.96875 L 203.105469 10.375 C 203.199219 10.15625 203.308594 10 203.417969 9.90625 L 203.730469 9.71875 C 203.777344 9.6875 203.792969 9.671875 203.792969 9.671875 C 203.792969 9.640625 203.761719 9.609375 203.683594 9.546875 L 203.074219 9.09375 L 202.714844 9.578125 L 201.433594 9.578125 Z M 201.199219 14.46875 L 201.199219 9.828125 L 202.839844 9.828125 L 202.058594 11.9375 L 202.386719 12.5 C 202.527344 12.75 202.636719 13.015625 202.683594 13.296875 C 202.746094 13.578125 202.777344 13.828125 202.761719 14.046875 C 202.761719 14.265625 202.699219 14.40625 202.605469 14.484375 C 202.496094 14.5625 202.371094 14.59375 202.230469 14.609375 C 202.105469 14.625 201.777344 14.5625 201.199219 14.46875 Z M 202.199219 16.90625 L 202.652344 17.328125 L 202.777344 17.25 C 202.839844 17.203125 203.027344 17.171875 203.324219 17.171875 L 209.167969 17.171875 C 209.246094 17.171875 209.292969 17.15625 209.292969 17.140625 C 209.308594 17.125 209.292969 17.078125 209.230469 17.015625 L 208.589844 16.359375 L 208.042969 16.9375 L 207.808594 16.9375 L 207.808594 10.015625 L 208.136719 9.765625 C 208.199219 9.71875 208.230469 9.671875 208.230469 9.640625 C 208.230469 9.609375 208.167969 9.5625 208.074219 9.5 L 207.464844 9.0625 L 207.074219 9.578125 L 204.699219 9.578125 L 203.871094 8.984375 L 203.933594 10.21875 L 203.933594 16.9375 L 202.558594 16.9375 Z M 207.261719 16.9375 L 204.480469 16.9375 L 204.480469 14.359375 L 207.261719 14.359375 Z M 204.480469 14.109375 L 204.480469 12.15625 L 207.261719 12.15625 L 207.261719 14.109375 Z M 204.480469 11.921875 L 204.480469 9.828125 L 207.261719 9.828125 L 207.261719 11.921875 Z M 204.480469 11.921875 "/>
<path style=" stroke:none;fill-rule:nonzero;fill:rgb(0%,0%,0%);fill-opacity:1;" d="M 210.175781 17.515625 L 210.269531 17.578125 L 210.566406 17.3125 C 211.019531 16.921875 211.394531 16.421875 211.691406 15.8125 C 211.988281 15.203125 212.191406 14.59375 212.269531 13.953125 C 212.363281 13.328125 212.410156 12.46875 212.425781 11.421875 L 217.363281 11.421875 L 217.363281 11.96875 C 217.410156 11.953125 217.519531 11.9375 217.660156 11.875 C 217.816406 11.84375 217.894531 11.796875 217.925781 11.78125 C 217.941406 11.75 217.972656 11.71875 218.003906 11.671875 L 217.972656 10.921875 L 217.972656 9.828125 L 218.238281 9.5625 C 218.238281 9.5625 218.300781 9.5 218.300781 9.5 C 218.300781 9.5 218.238281 9.453125 218.238281 9.453125 L 217.519531 8.953125 L 217.253906 9.453125 L 212.488281 9.453125 L 211.753906 9.0625 L 211.769531 10.171875 C 211.800781 10.859375 211.800781 11.671875 211.785156 12.609375 C 211.769531 13.28125 211.738281 13.84375 211.675781 14.3125 C 211.597656 14.78125 211.488281 15.234375 211.300781 15.6875 C 211.113281 16.140625 210.941406 16.5 210.769531 16.75 C 210.582031 17 210.394531 17.25 210.175781 17.515625 Z M 212.425781 11.1875 L 212.457031 9.671875 L 217.363281 9.671875 L 217.363281 11.1875 Z M 213.644531 11.921875 L 213.691406 13.046875 L 213.691406 16.578125 C 213.691406 16.84375 213.769531 17.046875 213.925781 17.171875 C 214.066406 17.296875 214.503906 17.375 215.207031 17.375 L 216.613281 17.375 C 217.332031 17.375 217.832031 17.34375 218.082031 17.265625 C 218.332031 17.203125 218.519531 17.125 218.644531 17.015625 C 218.785156 16.90625 218.863281 16.828125 218.878906 16.765625 C 218.925781 16.703125 218.941406 16.640625 218.972656 16.546875 C 218.753906 16.359375 218.628906 16.203125 218.582031 16.078125 C 218.550781 15.9375 218.535156 15.78125 218.550781 15.578125 C 218.566406 15.359375 218.582031 15.140625 218.597656 14.875 L 218.441406 14.875 L 218.300781 15.640625 L 218.191406 16.21875 C 218.160156 16.359375 218.082031 16.5 217.972656 16.625 C 217.863281 16.734375 217.519531 16.796875 216.988281 16.796875 C 216.441406 16.796875 216.035156 16.796875 215.785156 16.8125 C 215.316406 16.828125 215.003906 16.828125 214.832031 16.796875 C 214.660156 16.765625 214.535156 16.703125 214.472656 16.640625 C 214.394531 16.5625 214.363281 16.46875 214.363281 16.359375 L 214.363281 15.140625 C 215.300781 14.65625 215.957031 14.296875 216.285156 14.09375 C 216.613281 13.890625 217.050781 13.609375 217.582031 13.21875 L 217.878906 13.1875 C 217.957031 13.1875 217.988281 13.171875 217.988281 13.15625 C 217.988281 13.125 217.972656 13.109375 217.941406 13.078125 L 217.222656 12.40625 L 216.972656 12.78125 C 216.925781 12.859375 216.722656 13.078125 216.363281 13.421875 C 216.003906 13.765625 215.675781 14.046875 215.347656 14.265625 C 215.050781 14.46875 214.722656 14.671875 214.363281 14.890625 L 214.363281 12.671875 L 214.660156 12.421875 C 214.722656 12.390625 214.753906 12.359375 214.738281 12.34375 C 214.738281 12.3125 214.691406 12.296875 214.628906 12.265625 Z M 213.644531 11.921875 "/>
<path style=" stroke:none;fill-rule:nonzero;fill:rgb(0%,0%,0%);fill-opacity:1;" d="M 223.089844 12.984375 L 222.808594 13.296875 C 222.558594 13.59375 222.167969 13.9375 221.605469 14.34375 C 221.074219 14.734375 220.464844 15.078125 219.839844 15.359375 L 219.855469 15.515625 C 220.214844 15.40625 220.480469 15.3125 220.683594 15.234375 C 220.886719 15.140625 221.121094 15.03125 221.371094 14.90625 L 221.371094 17.09375 L 221.324219 18.03125 L 221.652344 17.921875 C 221.730469 17.90625 221.761719 17.90625 221.792969 17.875 C 221.808594 17.875 221.855469 17.84375 221.902344 17.8125 L 221.902344 17.078125 L 223.371094 17.078125 L 223.371094 17.796875 C 223.589844 17.75 223.714844 17.71875 223.761719 17.703125 C 223.808594 17.703125 223.886719 17.671875 223.980469 17.625 L 223.933594 16.875 L 223.917969 15.09375 L 224.121094 14.90625 C 224.183594 14.875 224.199219 14.84375 224.199219 14.828125 C 224.199219 14.8125 224.152344 14.765625 224.074219 14.71875 L 223.542969 14.34375 L 223.246094 14.765625 L 221.980469 14.75 L 221.839844 14.671875 L 222.089844 14.484375 L 222.574219 14.15625 C 222.917969 13.90625 223.324219 13.5 223.792969 12.96875 L 225.558594 12.984375 L 225.964844 13.546875 C 226.011719 13.609375 226.136719 13.71875 226.355469 13.90625 C 226.558594 14.09375 226.886719 14.296875 227.292969 14.546875 L 227.105469 14.71875 L 225.792969 14.71875 L 225.152344 14.375 L 225.199219 15.3125 L 225.199219 16.9375 L 225.152344 17.984375 C 225.417969 17.90625 225.605469 17.828125 225.699219 17.734375 L 225.699219 17.078125 L 227.246094 17.078125 L 227.246094 17.765625 L 227.339844 17.71875 L 227.574219 17.640625 C 227.636719 17.609375 227.730469 17.5625 227.839844 17.515625 L 227.792969 16.796875 L 227.792969 15.140625 L 227.902344 15.046875 C 227.933594 15.015625 227.949219 15 227.964844 14.984375 C 227.980469 14.953125 227.933594 14.921875 227.871094 14.875 C 227.980469 14.921875 228.199219 15.015625 228.558594 15.15625 C 228.652344 14.984375 228.730469 14.875 228.792969 14.828125 L 229.027344 14.703125 C 229.136719 14.671875 229.230469 14.65625 229.324219 14.65625 L 229.355469 14.515625 C 228.683594 14.453125 228.042969 14.296875 227.449219 14.078125 C 226.839844 13.828125 226.433594 13.625 226.246094 13.453125 C 226.058594 13.265625 225.902344 13.109375 225.792969 12.984375 L 228.933594 12.984375 C 229.027344 12.984375 229.058594 12.96875 229.089844 12.9375 C 229.089844 12.921875 229.058594 12.875 228.996094 12.828125 L 228.214844 12.140625 L 227.746094 12.75 L 226.746094 12.75 C 226.871094 12.578125 226.933594 12.453125 226.933594 12.3125 C 226.933594 12.234375 226.886719 12.140625 226.792969 12 C 226.714844 11.875 226.355469 11.75 225.730469 11.625 L 225.667969 11.734375 C 225.886719 11.890625 226.042969 12.03125 226.152344 12.171875 C 226.277344 12.296875 226.371094 12.484375 226.480469 12.75 L 223.980469 12.75 L 224.292969 12.34375 L 224.574219 11.984375 C 224.589844 11.921875 224.652344 11.859375 224.730469 11.765625 L 225.011719 11.703125 C 225.089844 11.6875 225.121094 11.671875 225.136719 11.65625 C 225.136719 11.625 225.089844 11.59375 225.011719 11.53125 L 224.261719 11.0625 L 224.121094 11.40625 C 224.105469 11.5 223.996094 11.671875 223.824219 11.953125 C 223.652344 12.21875 223.464844 12.484375 223.277344 12.75 L 220.667969 12.75 L 219.933594 12.71875 L 220.277344 13.140625 C 220.527344 13.03125 220.855469 12.984375 221.261719 12.984375 Z M 221.902344 16.875 L 221.902344 14.984375 L 223.371094 14.984375 L 223.371094 16.875 Z M 225.699219 16.859375 L 225.699219 14.9375 L 227.246094 14.9375 L 227.246094 16.859375 Z M 221.292969 8.984375 L 221.339844 9.734375 L 221.339844 11.265625 L 221.292969 12.015625 L 221.449219 11.984375 L 221.621094 11.921875 C 221.699219 11.890625 221.792969 11.84375 221.871094 11.78125 L 221.871094 11.234375 L 223.371094 11.234375 L 223.371094 11.734375 C 223.652344 11.65625 223.871094 11.578125 223.980469 11.515625 L 223.933594 10.859375 L 223.933594 9.703125 L 224.152344 9.5 C 224.199219 9.46875 224.230469 9.4375 224.230469 9.40625 L 224.105469 9.3125 L 223.574219 8.90625 L 223.277344 9.34375 L 221.917969 9.34375 Z M 221.871094 11 L 221.871094 9.578125 L 223.371094 9.578125 L 223.371094 11 Z M 225.386719 8.921875 L 225.433594 9.625 L 225.433594 10.9375 L 225.386719 11.65625 C 225.574219 11.59375 225.761719 11.53125 225.949219 11.4375 L 225.949219 11.234375 L 227.574219 11.234375 L 227.574219 11.65625 C 227.871094 11.546875 228.042969 11.484375 228.058594 11.484375 C 228.089844 11.46875 228.121094 11.453125 228.152344 11.421875 L 228.105469 10.765625 L 228.105469 9.65625 L 228.339844 9.46875 C 228.386719 9.4375 228.417969 9.40625 228.402344 9.375 C 228.402344 9.34375 228.371094 9.3125 228.292969 9.25 L 227.746094 8.890625 L 227.449219 9.328125 L 226.105469 9.3125 Z M 225.949219 11 L 225.949219 9.546875 L 227.574219 9.546875 L 227.574219 11 Z M 225.949219 11 "/>
</g>
</svg>
