<?xml version="1.0" encoding="UTF-8"?>
<svg xmlns="http://www.w3.org/2000/svg" xmlns:xlink="http://www.w3.org/1999/xlink" width="227.770004pt" height="141.139999pt" viewBox="0 0 227.770004 141.139999" version="1.1">
<defs>
<clipPath id="clip1">
  <path d="M 0.5 0.492188 L 114 0.492188 L 114 94 L 0.5 94 Z M 0.5 0.492188 "/>
</clipPath>
<clipPath id="clip3">
  <path d="M 0.5 0.492188 L 114 0.492188 L 114 94 L 0.5 94 Z M 0.5 0.492188 "/>
</clipPath>
<clipPath id="clip2">
  <rect x="0" y="0" width="114" height="94"/>
</clipPath>
<g id="surface5" clip-path="url(#clip2)">
<g clip-path="url(#clip3)" clip-rule="nonzero">
<path style="fill:none;stroke-width:0.79701;stroke-linecap:butt;stroke-linejoin:miter;stroke:rgb(0%,0%,0%);stroke-opacity:0.3;stroke-miterlimit:10;" d="M 10.136719 -4.660156 L 6.128906 -8.667969 M 10.136719 -8.914062 L 6.128906 -12.921875 M 10.136719 -13.164062 L 6.128906 -17.171875 M 10.136719 -17.417969 L 6.128906 -21.425781 M 10.136719 -21.667969 L 6.128906 -25.675781 M 10.136719 -25.921875 L 6.128906 -29.929688 M 10.136719 -30.171875 L 6.128906 -34.179688 M 10.136719 -34.425781 L 6.128906 -38.433594 M 10.136719 -38.675781 L 6.128906 -42.683594 M 10.136719 -42.929688 L 6.128906 -46.9375 M 10.136719 -47.179688 L 6.128906 -51.191406 M 10.136719 -51.433594 L 6.128906 -55.441406 M 10.136719 -55.683594 L 6.128906 -59.695312 M 10.136719 -59.9375 L 6.128906 -63.945312 M 10.136719 -64.1875 L 6.128906 -68.199219 M 10.136719 -68.441406 L 6.128906 -72.449219 M 10.136719 -72.691406 L 6.128906 -76.703125 M 10.136719 -76.945312 L 6.128906 -80.953125 M 12.972656 -78.363281 L 16.980469 -82.371094 M 17.222656 -78.363281 L 21.230469 -82.371094 M 21.476562 -78.363281 L 25.484375 -82.371094 M 25.726562 -78.363281 L 29.734375 -82.371094 M 29.980469 -78.363281 L 33.988281 -82.371094 M 34.230469 -78.363281 L 38.238281 -82.371094 M 38.484375 -78.363281 L 42.492188 -82.371094 M 42.734375 -78.363281 L 46.742188 -82.371094 M 46.988281 -78.363281 L 50.996094 -82.371094 M 51.238281 -78.363281 L 55.246094 -82.371094 M 55.492188 -78.363281 L 59.5 -82.371094 M 59.742188 -78.363281 L 63.75 -82.371094 M 63.996094 -78.363281 L 68.003906 -82.371094 M 68.246094 -78.363281 L 72.253906 -82.371094 M 72.5 -78.363281 L 76.507812 -82.371094 M 76.75 -78.363281 L 80.757812 -82.371094 M 81.003906 -78.363281 L 85.011719 -82.371094 M 85.253906 -78.363281 L 89.265625 -82.371094 M 89.507812 -78.363281 L 93.515625 -82.371094 M 93.757812 -78.363281 L 97.769531 -82.371094 M 98.011719 -78.363281 L 102.019531 -82.371094 " transform="matrix(1,0,0,-1,0,0)"/>
</g>
</g>
<clipPath id="clip4">
  <path d="M 0.5 30 L 66 30 L 66 57 L 0.5 57 Z M 0.5 30 "/>
</clipPath>
<clipPath id="clip6">
  <path d="M 0.5 0 L 66 0 L 66 27 L 0.5 27 Z M 0.5 0 "/>
</clipPath>
<clipPath id="clip5">
  <rect x="0" y="0" width="66" height="27"/>
</clipPath>
<g id="surface8" clip-path="url(#clip5)">
<g clip-path="url(#clip6)" clip-rule="nonzero">
<path style="fill:none;stroke-width:0.79701;stroke-linecap:butt;stroke-linejoin:miter;stroke:rgb(38.822937%,38.822937%,100%);stroke-opacity:0.5;stroke-miterlimit:10;" d="M 10.136719 -43.355469 L 10.335938 -43.355469 C 10.957031 -43.355469 11.269531 -41.363281 11.890625 -41.363281 C 12.34375 -41.363281 12.730469 -42.335938 13.136719 -43.355469 C 13.542969 -44.375 13.933594 -45.347656 14.382812 -45.347656 C 14.835938 -45.347656 15.222656 -44.375 15.628906 -43.355469 C 16.035156 -42.335938 16.421875 -41.363281 16.875 -41.363281 C 17.324219 -41.363281 17.714844 -42.335938 18.121094 -43.355469 C 18.523438 -44.375 18.914062 -45.347656 19.363281 -45.347656 C 19.816406 -45.347656 20.203125 -44.375 20.609375 -43.355469 C 21.015625 -42.335938 21.40625 -41.363281 21.855469 -41.363281 C 22.304688 -41.363281 22.695312 -42.335938 23.101562 -43.355469 C 23.507812 -44.375 23.894531 -45.347656 24.347656 -45.347656 C 24.796875 -45.347656 25.183594 -44.375 25.589844 -43.355469 C 25.996094 -42.335938 26.386719 -41.363281 26.835938 -41.363281 C 27.289062 -41.363281 27.675781 -42.335938 28.082031 -43.355469 C 28.488281 -44.375 28.875 -45.347656 29.328125 -45.347656 C 29.777344 -45.347656 30.167969 -44.375 30.574219 -43.355469 C 30.980469 -42.335938 31.367188 -41.363281 31.816406 -41.363281 C 32.269531 -41.363281 32.65625 -42.335938 33.0625 -43.355469 C 33.46875 -44.375 33.859375 -45.347656 34.308594 -45.347656 C 34.757812 -45.347656 35.148438 -44.375 35.554688 -43.355469 C 35.960938 -42.335938 36.347656 -41.363281 36.800781 -41.363281 C 37.25 -41.363281 37.640625 -42.335938 38.042969 -43.355469 C 38.449219 -44.375 38.839844 -45.347656 39.289062 -45.347656 C 39.742188 -45.347656 40.128906 -44.375 40.535156 -43.355469 C 40.941406 -42.335938 41.328125 -41.363281 41.78125 -41.363281 C 42.230469 -41.363281 42.621094 -42.335938 43.027344 -43.355469 C 43.433594 -44.375 43.820312 -45.347656 44.269531 -45.347656 C 44.722656 -45.347656 45.109375 -44.375 45.515625 -43.355469 C 45.921875 -42.335938 46.3125 -41.363281 46.761719 -41.363281 C 47.214844 -41.363281 47.601562 -42.335938 48.007812 -43.355469 C 48.414062 -44.375 48.800781 -45.347656 49.253906 -45.347656 C 49.703125 -45.347656 50.09375 -44.375 50.5 -43.355469 C 50.902344 -42.335938 51.292969 -41.363281 51.742188 -41.363281 C 52.367188 -41.363281 52.675781 -43.355469 53.300781 -43.355469 L 54.359375 -43.355469 " transform="matrix(1,0,0,-1,0,-30)"/>
</g>
</g>
<clipPath id="clip7">
  <path d="M 86 106 L 124 106 L 124 140.640625 L 86 140.640625 Z M 86 106 "/>
</clipPath>
<clipPath id="clip8">
  <path d="M 187 103 L 227.273438 103 L 227.273438 140.640625 L 187 140.640625 Z M 187 103 "/>
</clipPath>
</defs>
<g id="surface1">
<path style="fill:none;stroke-width:0.79701;stroke-linecap:butt;stroke-linejoin:miter;stroke:rgb(0%,0%,100%);stroke-opacity:0.3;stroke-miterlimit:10;" d="M 91.207031 -50.722656 L 114.183594 -50.722656 " transform="matrix(1,0,0,-1,0,0)"/>
<path style=" stroke:none;fill-rule:nonzero;fill:rgb(0%,0%,100%);fill-opacity:0.3;" d="M 118.847656 50.722656 C 117.464844 50.464844 115.21875 49.6875 113.667969 48.78125 L 113.667969 52.667969 C 115.21875 51.761719 117.464844 50.984375 118.847656 50.722656 "/>
<path style=" stroke:none;fill-rule:nonzero;fill:rgb(0%,0%,100%);fill-opacity:0.3;" d="M 98.476562 41.28125 L 99.445312 41.28125 C 100.195312 41.28125 100.273438 41.4375 100.273438 41.71875 C 100.273438 41.796875 100.273438 41.90625 100.210938 42.21875 C 100.179688 42.265625 100.179688 42.296875 100.179688 42.328125 C 100.179688 42.40625 100.242188 42.4375 100.289062 42.4375 C 100.398438 42.4375 100.398438 42.40625 100.445312 42.234375 L 100.992188 40.0625 C 101.023438 39.953125 101.023438 39.9375 101.023438 39.90625 C 101.023438 39.890625 101.007812 39.796875 100.898438 39.796875 C 100.804688 39.796875 100.789062 39.84375 100.757812 40.015625 C 100.539062 40.78125 100.320312 40.96875 99.460938 40.96875 L 98.554688 40.96875 L 99.195312 38.4375 C 99.289062 38.078125 99.304688 38.046875 99.742188 38.046875 L 101.054688 38.046875 C 102.273438 38.046875 102.507812 38.375 102.507812 39.140625 C 102.507812 39.375 102.507812 39.40625 102.476562 39.6875 C 102.460938 39.8125 102.460938 39.828125 102.460938 39.859375 C 102.460938 39.90625 102.492188 39.984375 102.585938 39.984375 C 102.695312 39.984375 102.695312 39.921875 102.710938 39.734375 L 102.914062 38 C 102.945312 37.734375 102.898438 37.734375 102.648438 37.734375 L 97.757812 37.734375 C 97.570312 37.734375 97.460938 37.734375 97.460938 37.9375 C 97.460938 38.046875 97.554688 38.046875 97.742188 38.046875 C 98.117188 38.046875 98.398438 38.046875 98.398438 38.21875 C 98.398438 38.265625 98.398438 38.28125 98.335938 38.46875 L 97.023438 43.734375 C 96.929688 44.125 96.914062 44.203125 96.117188 44.203125 C 95.945312 44.203125 95.835938 44.203125 95.835938 44.390625 C 95.835938 44.515625 95.960938 44.515625 95.992188 44.515625 C 96.273438 44.515625 97.023438 44.484375 97.304688 44.484375 C 97.632812 44.484375 98.460938 44.515625 98.789062 44.515625 C 98.882812 44.515625 98.992188 44.515625 98.992188 44.328125 C 98.992188 44.25 98.945312 44.21875 98.945312 44.21875 C 98.914062 44.203125 98.882812 44.203125 98.664062 44.203125 C 98.445312 44.203125 98.398438 44.203125 98.148438 44.1875 C 97.851562 44.15625 97.820312 44.109375 97.820312 43.984375 C 97.820312 43.96875 97.820312 43.90625 97.867188 43.765625 Z M 98.476562 41.28125 "/>
<path style=" stroke:none;fill-rule:nonzero;fill:rgb(0%,0%,100%);fill-opacity:0.3;" d="M 106.546875 46.90625 C 106.546875 46.875 106.546875 46.859375 106.375 46.6875 C 105.140625 45.4375 104.8125 43.546875 104.8125 42.015625 C 104.8125 40.28125 105.1875 38.546875 106.421875 37.3125 C 106.546875 37.1875 106.546875 37.171875 106.546875 37.140625 C 106.546875 37.0625 106.515625 37.03125 106.453125 37.03125 C 106.34375 37.03125 105.453125 37.71875 104.859375 38.984375 C 104.359375 40.078125 104.234375 41.1875 104.234375 42.015625 C 104.234375 42.796875 104.34375 44 104.890625 45.140625 C 105.5 46.359375 106.34375 47.015625 106.453125 47.015625 C 106.515625 47.015625 106.546875 46.984375 106.546875 46.90625 Z M 106.546875 46.90625 "/>
<path style=" stroke:none;fill-rule:nonzero;fill:rgb(0%,0%,100%);fill-opacity:0.3;" d="M 109.167969 40.53125 L 110.105469 40.53125 C 110.308594 40.53125 110.417969 40.53125 110.417969 40.328125 C 110.417969 40.21875 110.308594 40.21875 110.136719 40.21875 L 109.261719 40.21875 C 109.621094 38.796875 109.667969 38.609375 109.667969 38.546875 C 109.667969 38.375 109.542969 38.28125 109.371094 38.28125 C 109.339844 38.28125 109.058594 38.28125 108.980469 38.640625 L 108.589844 40.21875 L 107.652344 40.21875 C 107.449219 40.21875 107.355469 40.21875 107.355469 40.40625 C 107.355469 40.53125 107.433594 40.53125 107.636719 40.53125 L 108.511719 40.53125 C 107.792969 43.359375 107.746094 43.53125 107.746094 43.703125 C 107.746094 44.25 108.121094 44.625 108.667969 44.625 C 109.683594 44.625 110.246094 43.171875 110.246094 43.09375 C 110.246094 42.984375 110.167969 42.984375 110.136719 42.984375 C 110.042969 42.984375 110.027344 43.015625 109.980469 43.125 C 109.558594 44.171875 109.027344 44.40625 108.683594 44.40625 C 108.480469 44.40625 108.371094 44.28125 108.371094 43.953125 C 108.371094 43.703125 108.402344 43.640625 108.433594 43.46875 Z M 109.167969 40.53125 "/>
<path style=" stroke:none;fill-rule:nonzero;fill:rgb(0%,0%,100%);fill-opacity:0.3;" d="M 113.597656 42.015625 C 113.597656 41.25 113.488281 40.046875 112.941406 38.90625 C 112.347656 37.6875 111.488281 37.03125 111.394531 37.03125 C 111.332031 37.03125 111.285156 37.078125 111.285156 37.140625 C 111.285156 37.171875 111.285156 37.1875 111.472656 37.375 C 112.457031 38.359375 113.019531 39.9375 113.019531 42.015625 C 113.019531 43.734375 112.660156 45.484375 111.425781 46.734375 C 111.285156 46.859375 111.285156 46.875 111.285156 46.90625 C 111.285156 46.96875 111.332031 47.015625 111.394531 47.015625 C 111.488281 47.015625 112.394531 46.328125 112.972656 45.0625 C 113.488281 43.96875 113.597656 42.859375 113.597656 42.015625 Z M 113.597656 42.015625 "/>
<path style="fill:none;stroke-width:0.79701;stroke-linecap:butt;stroke-linejoin:miter;stroke:rgb(0%,0%,100%);stroke-opacity:0.3;stroke-miterlimit:10;" d="M 14.800781 -19.402344 L 68.121094 -19.402344 " transform="matrix(1,0,0,-1,0,0)"/>
<path style=" stroke:none;fill-rule:nonzero;fill:rgb(0%,0%,100%);fill-opacity:0.3;" d="M 10.136719 19.402344 C 11.519531 19.660156 13.761719 20.4375 15.316406 21.34375 L 15.316406 17.457031 C 13.761719 18.363281 11.519531 19.140625 10.136719 19.402344 "/>
<path style=" stroke:none;fill-rule:nonzero;fill:rgb(0%,0%,100%);fill-opacity:0.3;" d="M 72.78125 19.402344 C 71.402344 19.140625 69.15625 18.363281 67.601562 17.457031 L 67.601562 21.34375 C 69.15625 20.4375 71.402344 19.660156 72.78125 19.402344 "/>
<path style=" stroke:none;fill-rule:nonzero;fill:rgb(0%,0%,100%);fill-opacity:0.3;" d="M 39.707031 11.171875 C 39.769531 10.921875 40.003906 10 40.691406 10 C 40.738281 10 40.988281 10 41.191406 10.125 C 40.910156 10.1875 40.722656 10.421875 40.722656 10.671875 C 40.722656 10.828125 40.832031 11.015625 41.097656 11.015625 C 41.316406 11.015625 41.628906 10.84375 41.628906 10.4375 C 41.628906 9.921875 41.050781 9.78125 40.707031 9.78125 C 40.128906 9.78125 39.785156 10.3125 39.660156 10.53125 C 39.410156 9.875 38.878906 9.78125 38.582031 9.78125 C 37.550781 9.78125 36.972656 11.0625 36.972656 11.3125 C 36.972656 11.421875 37.082031 11.421875 37.097656 11.421875 C 37.175781 11.421875 37.207031 11.390625 37.222656 11.3125 C 37.566406 10.25 38.222656 10 38.566406 10 C 38.753906 10 39.097656 10.09375 39.097656 10.671875 C 39.097656 10.984375 38.925781 11.640625 38.566406 13.046875 C 38.410156 13.65625 38.050781 14.078125 37.613281 14.078125 C 37.550781 14.078125 37.332031 14.078125 37.113281 13.953125 C 37.363281 13.890625 37.582031 13.6875 37.582031 13.40625 C 37.582031 13.140625 37.363281 13.0625 37.222656 13.0625 C 36.910156 13.0625 36.675781 13.3125 36.675781 13.640625 C 36.675781 14.09375 37.160156 14.296875 37.597656 14.296875 C 38.269531 14.296875 38.628906 13.59375 38.644531 13.546875 C 38.769531 13.90625 39.128906 14.296875 39.722656 14.296875 C 40.753906 14.296875 41.316406 13.015625 41.316406 12.765625 C 41.316406 12.65625 41.238281 12.65625 41.207031 12.65625 C 41.113281 12.65625 41.097656 12.703125 41.066406 12.765625 C 40.738281 13.84375 40.066406 14.078125 39.753906 14.078125 C 39.363281 14.078125 39.207031 13.765625 39.207031 13.421875 C 39.207031 13.203125 39.253906 12.984375 39.363281 12.546875 Z M 39.707031 11.171875 "/>
<path style=" stroke:none;fill-rule:nonzero;fill:rgb(0%,0%,100%);fill-opacity:0.3;" d="M 44.398438 11.246094 C 44.398438 11.058594 44.398438 11.058594 44.195312 11.058594 C 43.742188 11.496094 43.117188 11.496094 42.835938 11.496094 L 42.835938 11.746094 C 42.992188 11.746094 43.460938 11.746094 43.835938 11.558594 L 43.835938 15.105469 C 43.835938 15.339844 43.835938 15.433594 43.148438 15.433594 L 42.882812 15.433594 L 42.882812 15.683594 C 43.007812 15.683594 43.867188 15.652344 44.117188 15.652344 C 44.335938 15.652344 45.210938 15.683594 45.367188 15.683594 L 45.367188 15.433594 L 45.101562 15.433594 C 44.398438 15.433594 44.398438 15.339844 44.398438 15.105469 Z M 44.398438 11.246094 "/>
<path style="fill:none;stroke-width:0.79701;stroke-linecap:butt;stroke-linejoin:miter;stroke:rgb(0%,0%,0%);stroke-opacity:0.3;stroke-miterlimit:10;" d="M 10.136719 -4.660156 L 10.136719 -78.363281 L 102.265625 -78.363281 " transform="matrix(1,0,0,-1,0,0)"/>
<g clip-path="url(#clip1)" clip-rule="nonzero">
<use xlink:href="#surface5"/>
</g>
<path style="fill:none;stroke-width:0.79701;stroke-linecap:butt;stroke-linejoin:miter;stroke:rgb(0%,0%,0%);stroke-opacity:0.3;stroke-miterlimit:10;" d="M 90.65625 -73.757812 C 90.65625 -71.515625 88.839844 -69.703125 86.601562 -69.703125 C 84.363281 -69.703125 82.546875 -71.515625 82.546875 -73.757812 C 82.546875 -75.996094 84.363281 -77.808594 86.601562 -77.808594 C 88.839844 -77.808594 90.65625 -75.996094 90.65625 -73.757812 Z M 63.015625 -73.757812 C 63.015625 -71.515625 61.203125 -69.703125 58.964844 -69.703125 C 56.726562 -69.703125 54.910156 -71.515625 54.910156 -73.757812 C 54.910156 -75.996094 56.726562 -77.808594 58.964844 -77.808594 C 61.203125 -77.808594 63.015625 -75.996094 63.015625 -73.757812 Z M 63.015625 -73.757812 " transform="matrix(1,0,0,-1,0,0)"/>
<path style="fill:none;stroke-width:0.79701;stroke-linecap:butt;stroke-linejoin:miter;stroke:rgb(0%,0%,100%);stroke-opacity:0.3;stroke-miterlimit:10;" d="M 10.136719 -58.09375 L 21.191406 -58.09375 M 35.933594 -60.859375 L 21.191406 -60.859375 L 21.191406 -54.410156 L 35.933594 -54.410156 " transform="matrix(1,0,0,-1,0,0)"/>
<path style="fill:none;stroke-width:0.79701;stroke-linecap:butt;stroke-linejoin:miter;stroke:rgb(0%,0%,100%);stroke-opacity:0.3;stroke-miterlimit:10;" d="M 32.246094 -59.9375 L 32.246094 -56.25 M 32.246094 -58.09375 L 54.359375 -58.09375 " transform="matrix(1,0,0,-1,0,0)"/>
<path style=" stroke:none;fill-rule:nonzero;fill:rgb(0%,0%,100%);fill-opacity:0.3;" d="M 31.808594 66.308594 C 31.636719 66.308594 31.511719 66.308594 31.371094 66.433594 C 31.199219 66.589844 31.183594 66.761719 31.183594 66.824219 C 31.183594 67.074219 31.371094 67.183594 31.558594 67.183594 C 31.839844 67.183594 32.105469 66.933594 32.105469 66.542969 C 32.105469 66.058594 31.636719 65.683594 30.933594 65.683594 C 29.589844 65.683594 28.261719 67.105469 28.261719 68.511719 C 28.261719 69.417969 28.839844 70.199219 29.886719 70.199219 C 31.308594 70.199219 32.136719 69.136719 32.136719 69.027344 C 32.136719 68.964844 32.089844 68.886719 32.027344 68.886719 C 31.964844 68.886719 31.949219 68.917969 31.886719 68.996094 C 31.105469 69.980469 30.011719 69.980469 29.902344 69.980469 C 29.277344 69.980469 28.996094 69.496094 28.996094 68.886719 C 28.996094 68.480469 29.199219 67.511719 29.542969 66.902344 C 29.855469 66.324219 30.402344 65.902344 30.949219 65.902344 C 31.277344 65.902344 31.667969 66.027344 31.808594 66.308594 Z M 31.808594 66.308594 "/>
<path style=" stroke:none;fill-rule:nonzero;fill:rgb(0%,0%,100%);fill-opacity:0.3;" d="M 34.496094 67.144531 C 34.496094 66.957031 34.496094 66.957031 34.292969 66.957031 C 33.839844 67.394531 33.214844 67.394531 32.933594 67.394531 L 32.933594 67.644531 C 33.089844 67.644531 33.558594 67.644531 33.933594 67.457031 L 33.933594 71.003906 C 33.933594 71.238281 33.933594 71.332031 33.246094 71.332031 L 32.980469 71.332031 L 32.980469 71.582031 C 33.105469 71.582031 33.964844 71.550781 34.214844 71.550781 C 34.433594 71.550781 35.308594 71.582031 35.464844 71.582031 L 35.464844 71.332031 L 35.199219 71.332031 C 34.496094 71.332031 34.496094 71.238281 34.496094 71.003906 Z M 34.496094 67.144531 "/>
<g clip-path="url(#clip4)" clip-rule="nonzero">
<use xlink:href="#surface8" transform="matrix(1,0,0,1,0,30)"/>
</g>
<path style=" stroke:none;fill-rule:nonzero;fill:rgb(38.822937%,38.822937%,100%);fill-opacity:0.5;" d="M 30.277344 30.332031 C 30.277344 30.332031 30.277344 30.222656 30.152344 30.222656 C 29.917969 30.222656 29.199219 30.300781 28.933594 30.332031 C 28.855469 30.332031 28.746094 30.347656 28.746094 30.519531 C 28.746094 30.644531 28.839844 30.644531 28.980469 30.644531 C 29.464844 30.644531 29.480469 30.707031 29.480469 30.816406 L 29.449219 31.019531 L 28.011719 36.753906 C 27.964844 36.894531 27.964844 36.910156 27.964844 36.972656 C 27.964844 37.207031 28.167969 37.253906 28.261719 37.253906 C 28.386719 37.253906 28.527344 37.160156 28.589844 37.050781 C 28.636719 36.957031 29.089844 35.113281 29.152344 34.863281 C 29.496094 34.894531 30.308594 35.050781 30.308594 35.707031 C 30.308594 35.785156 30.308594 35.816406 30.277344 35.925781 C 30.261719 36.035156 30.246094 36.160156 30.246094 36.269531 C 30.246094 36.847656 30.636719 37.253906 31.152344 37.253906 C 31.449219 37.253906 31.730469 37.097656 31.949219 36.722656 C 32.199219 36.285156 32.308594 35.738281 32.308594 35.722656 C 32.308594 35.613281 32.214844 35.613281 32.183594 35.613281 C 32.089844 35.613281 32.074219 35.660156 32.042969 35.800781 C 31.839844 36.519531 31.621094 37.035156 31.183594 37.035156 C 30.980469 37.035156 30.855469 36.925781 30.855469 36.566406 C 30.855469 36.394531 30.902344 36.160156 30.933594 36.003906 C 30.980469 35.832031 30.980469 35.800781 30.980469 35.691406 C 30.980469 35.050781 30.355469 34.769531 29.496094 34.644531 C 29.808594 34.472656 30.136719 34.160156 30.355469 33.910156 C 30.839844 33.378906 31.292969 32.957031 31.777344 32.957031 C 31.839844 32.957031 31.855469 32.957031 31.871094 32.972656 C 31.996094 32.988281 31.996094 32.988281 32.089844 33.050781 C 32.105469 33.050781 32.105469 33.066406 32.121094 33.082031 C 31.652344 33.113281 31.558594 33.503906 31.558594 33.628906 C 31.558594 33.785156 31.667969 33.972656 31.933594 33.972656 C 32.199219 33.972656 32.480469 33.753906 32.480469 33.363281 C 32.480469 33.066406 32.246094 32.738281 31.808594 32.738281 C 31.527344 32.738281 31.074219 32.816406 30.355469 33.613281 C 30.011719 33.988281 29.621094 34.394531 29.246094 34.535156 Z M 30.277344 30.332031 "/>
<path style=" stroke:none;fill-rule:nonzero;fill:rgb(38.822937%,38.822937%,100%);fill-opacity:0.5;" d="M 34.933594 34.203125 C 34.933594 34.015625 34.933594 34.015625 34.730469 34.015625 C 34.277344 34.453125 33.652344 34.453125 33.371094 34.453125 L 33.371094 34.703125 C 33.527344 34.703125 33.996094 34.703125 34.371094 34.515625 L 34.371094 38.0625 C 34.371094 38.296875 34.371094 38.390625 33.683594 38.390625 L 33.417969 38.390625 L 33.417969 38.640625 C 33.542969 38.640625 34.402344 38.609375 34.652344 38.609375 C 34.871094 38.609375 35.746094 38.640625 35.902344 38.640625 L 35.902344 38.390625 L 35.636719 38.390625 C 34.933594 38.390625 34.933594 38.296875 34.933594 38.0625 Z M 34.933594 34.203125 "/>
<path style="fill:none;stroke-width:0.79701;stroke-linecap:butt;stroke-linejoin:miter;stroke:rgb(100%,38.822937%,38.822937%);stroke-opacity:1;stroke-miterlimit:10;" d="M 105.027344 -125 L 86.601562 -125 M 86.601562 -126.84375 L 86.601562 -123.15625 " transform="matrix(1,0,0,-1,0,0)"/>
<path style=" stroke:none;fill-rule:nonzero;fill:rgb(100%,38.822937%,38.822937%);fill-opacity:1;" d="M 86.164062 131.367188 C 85.992188 131.367188 85.867188 131.367188 85.726562 131.492188 C 85.554688 131.648438 85.539062 131.820312 85.539062 131.882812 C 85.539062 132.132812 85.726562 132.242188 85.914062 132.242188 C 86.195312 132.242188 86.460938 131.992188 86.460938 131.601562 C 86.460938 131.117188 85.992188 130.742188 85.289062 130.742188 C 83.945312 130.742188 82.617188 132.164062 82.617188 133.570312 C 82.617188 134.476562 83.195312 135.257812 84.242188 135.257812 C 85.664062 135.257812 86.492188 134.195312 86.492188 134.085938 C 86.492188 134.023438 86.445312 133.945312 86.382812 133.945312 C 86.320312 133.945312 86.304688 133.976562 86.242188 134.054688 C 85.460938 135.039062 84.367188 135.039062 84.257812 135.039062 C 83.632812 135.039062 83.351562 134.554688 83.351562 133.945312 C 83.351562 133.539062 83.554688 132.570312 83.898438 131.960938 C 84.210938 131.382812 84.757812 130.960938 85.304688 130.960938 C 85.632812 130.960938 86.023438 131.085938 86.164062 131.367188 Z M 86.164062 131.367188 "/>
<path style=" stroke:none;fill-rule:nonzero;fill:rgb(100%,38.822937%,38.822937%);fill-opacity:1;" d="M 90.039062 135.378906 L 89.804688 135.378906 C 89.789062 135.535156 89.710938 135.941406 89.617188 136.003906 C 89.570312 136.050781 89.039062 136.050781 88.929688 136.050781 L 87.648438 136.050781 C 88.382812 135.410156 88.632812 135.207031 89.039062 134.878906 C 89.554688 134.472656 90.039062 134.035156 90.039062 133.378906 C 90.039062 132.535156 89.304688 132.019531 88.414062 132.019531 C 87.554688 132.019531 86.960938 132.628906 86.960938 133.269531 C 86.960938 133.613281 87.257812 133.660156 87.335938 133.660156 C 87.492188 133.660156 87.695312 133.535156 87.695312 133.285156 C 87.695312 133.160156 87.648438 132.910156 87.289062 132.910156 C 87.507812 132.425781 87.976562 132.269531 88.304688 132.269531 C 89.007812 132.269531 89.367188 132.816406 89.367188 133.378906 C 89.367188 133.988281 88.929688 134.457031 88.710938 134.707031 L 87.039062 136.378906 C 86.960938 136.441406 86.960938 136.457031 86.960938 136.644531 L 89.835938 136.644531 Z M 90.039062 135.378906 "/>
<path style="fill:none;stroke-width:0.79701;stroke-linecap:butt;stroke-linejoin:miter;stroke:rgb(100%,38.822937%,38.822937%);stroke-opacity:1;stroke-miterlimit:10;" d="M 72.78125 -124.980469 L 80.152344 -124.980469 M 94.894531 -128.203125 L 80.152344 -128.203125 L 80.152344 -121.753906 L 94.894531 -121.753906 " transform="matrix(1,0,0,-1,0,0)"/>
<path style="fill:none;stroke-width:0.79701;stroke-linecap:butt;stroke-linejoin:miter;stroke:rgb(100%,49.803162%,0%);stroke-opacity:1;stroke-miterlimit:10;" d="M 72.78125 -96.789062 C 77.632812 -96.789062 82.402344 -95.511719 82.5625 -95.417969 " transform="matrix(1,0,0,-1,0,0)"/>
<path style=" stroke:none;fill-rule:nonzero;fill:rgb(100%,49.803162%,0%);fill-opacity:1;" d="M 86.601562 93.085938 C 85.277344 93.550781 82.945312 94 81.144531 93.992188 L 83.085938 97.359375 C 83.980469 95.796875 85.535156 94 86.601562 93.085938 "/>
<path style=" stroke:none;fill-rule:nonzero;fill:rgb(100%,49.803162%,0%);fill-opacity:1;" d="M 81.992188 101.5 C 81.992188 100.84375 81.820312 99.453125 80.804688 99.453125 C 79.414062 99.453125 77.882812 102.265625 77.882812 104.546875 C 77.882812 105.484375 78.164062 106.59375 79.070312 106.59375 C 80.476562 106.59375 81.992188 103.734375 81.992188 101.5 Z M 78.929688 102.859375 C 79.101562 102.234375 79.304688 101.4375 79.710938 100.71875 C 79.976562 100.234375 80.335938 99.671875 80.789062 99.671875 C 81.273438 99.671875 81.335938 100.3125 81.335938 100.875 C 81.335938 101.375 81.257812 101.875 81.023438 102.859375 Z M 80.929688 103.1875 C 80.820312 103.640625 80.617188 104.484375 80.226562 105.203125 C 79.882812 105.890625 79.507812 106.375 79.070312 106.375 C 78.742188 106.375 78.539062 106.078125 78.539062 105.15625 C 78.539062 104.734375 78.601562 104.15625 78.851562 103.1875 Z M 80.929688 103.1875 "/>
<path style="fill:none;stroke-width:0.79701;stroke-linecap:butt;stroke-linejoin:miter;stroke:rgb(29.019165%,70.979309%,29.019165%);stroke-opacity:1;stroke-miterlimit:10;" d="M 72.78125 -69.148438 L 105.027344 -125 " transform="matrix(1,0,0,-1,0,0)"/>
<path style=" stroke:none;fill-rule:nonzero;fill:rgb(29.019165%,70.979309%,29.019165%);fill-opacity:1;" d="M 92.78125 99.550781 C 92.765625 99.582031 92.734375 99.613281 92.734375 99.644531 C 92.734375 99.691406 92.796875 99.785156 92.859375 99.785156 C 92.90625 99.785156 92.9375 99.753906 93.21875 99.472656 C 93.296875 99.394531 93.5 99.207031 93.578125 99.128906 C 93.671875 99.910156 93.953125 100.660156 94.6875 100.660156 C 95.09375 100.660156 95.4375 100.425781 95.640625 100.269531 C 95.78125 100.175781 96.25 99.785156 96.25 99.691406 C 96.25 99.660156 96.21875 99.566406 96.140625 99.566406 C 96.109375 99.566406 96.09375 99.582031 96 99.660156 C 95.359375 100.285156 95 100.441406 94.703125 100.441406 C 94.265625 100.441406 94.09375 99.910156 94.09375 99.144531 C 94.09375 99.082031 94.125 98.628906 94.15625 98.566406 C 94.171875 98.535156 94.171875 98.519531 94.375 98.316406 C 95.171875 97.519531 96.59375 95.832031 96.59375 94.285156 C 96.59375 94.113281 96.59375 93.503906 96 93.503906 C 95.171875 93.503906 94.4375 95.144531 94.34375 95.378906 C 93.859375 96.472656 93.546875 97.628906 93.546875 98.816406 Z M 94.203125 98.160156 C 94.21875 98.035156 94.65625 95.832031 95.21875 94.660156 C 95.484375 94.128906 95.703125 93.722656 96.015625 93.722656 C 96.359375 93.722656 96.359375 94.082031 96.359375 94.238281 C 96.359375 95.910156 94.671875 97.660156 94.203125 98.160156 Z M 94.203125 98.160156 "/>
<path style=" stroke:none;fill-rule:nonzero;fill:rgb(100%,94.116211%,0%);fill-opacity:1;" d="M 112.398438 125 C 112.398438 120.929688 109.097656 117.628906 105.027344 117.628906 C 100.957031 117.628906 97.65625 120.929688 97.65625 125 C 97.65625 129.070312 100.957031 132.371094 105.027344 132.371094 C 109.097656 132.371094 112.398438 129.070312 112.398438 125 Z M 112.398438 125 "/>
<g clip-path="url(#clip7)" clip-rule="nonzero">
<path style="fill:none;stroke-width:0.79701;stroke-linecap:butt;stroke-linejoin:miter;stroke:rgb(100%,49.803162%,0%);stroke-opacity:1;stroke-miterlimit:10;" d="M 112.398438 -125 C 112.398438 -120.929688 109.097656 -117.628906 105.027344 -117.628906 C 100.957031 -117.628906 97.65625 -120.929688 97.65625 -125 C 97.65625 -129.070312 100.957031 -132.371094 105.027344 -132.371094 C 109.097656 -132.371094 112.398438 -129.070312 112.398438 -125 Z M 112.398438 -125 " transform="matrix(1,0,0,-1,0,0)"/>
</g>
<path style=" stroke:none;fill-rule:nonzero;fill:rgb(100%,49.803162%,0%);fill-opacity:1;" d="M 117.09375 125.804688 C 117.0625 125.960938 117 126.195312 117 126.242188 C 117 126.414062 117.140625 126.507812 117.296875 126.507812 C 117.421875 126.507812 117.59375 126.429688 117.671875 126.226562 C 117.671875 126.210938 117.796875 125.742188 117.859375 125.492188 L 118.078125 124.601562 C 118.125 124.367188 118.1875 124.148438 118.25 123.929688 C 118.28125 123.757812 118.359375 123.460938 118.375 123.429688 C 118.515625 123.117188 119.046875 122.210938 120 122.210938 C 120.453125 122.210938 120.53125 122.585938 120.53125 122.914062 C 120.53125 123.164062 120.46875 123.445312 120.390625 123.742188 L 120.109375 124.898438 L 119.90625 125.648438 C 119.875 125.851562 119.78125 126.195312 119.78125 126.242188 C 119.78125 126.414062 119.921875 126.507812 120.0625 126.507812 C 120.375 126.507812 120.4375 126.257812 120.515625 125.945312 C 120.65625 125.382812 121.03125 123.929688 121.109375 123.539062 C 121.140625 123.414062 121.671875 122.210938 122.765625 122.210938 C 123.1875 122.210938 123.296875 122.554688 123.296875 122.914062 C 123.296875 123.476562 122.875 124.617188 122.671875 125.148438 C 122.59375 125.382812 122.546875 125.492188 122.546875 125.695312 C 122.546875 126.164062 122.890625 126.507812 123.359375 126.507812 C 124.296875 126.507812 124.671875 125.054688 124.671875 124.976562 C 124.671875 124.867188 124.578125 124.867188 124.546875 124.867188 C 124.453125 124.867188 124.453125 124.898438 124.40625 125.054688 C 124.25 125.585938 123.9375 126.289062 123.390625 126.289062 C 123.21875 126.289062 123.140625 126.195312 123.140625 125.960938 C 123.140625 125.710938 123.234375 125.476562 123.328125 125.257812 C 123.515625 124.726562 123.9375 123.632812 123.9375 123.054688 C 123.9375 122.414062 123.53125 121.992188 122.78125 121.992188 C 122.046875 121.992188 121.53125 122.429688 121.15625 122.960938 C 121.15625 122.835938 121.125 122.492188 120.84375 122.257812 C 120.59375 122.039062 120.28125 121.992188 120.03125 121.992188 C 119.125 121.992188 118.640625 122.632812 118.46875 122.867188 C 118.421875 122.289062 118 121.992188 117.546875 121.992188 C 117.09375 121.992188 116.90625 122.382812 116.8125 122.554688 C 116.640625 122.914062 116.515625 123.492188 116.515625 123.523438 C 116.515625 123.632812 116.609375 123.632812 116.625 123.632812 C 116.734375 123.632812 116.734375 123.617188 116.796875 123.398438 C 116.96875 122.695312 117.171875 122.210938 117.53125 122.210938 C 117.6875 122.210938 117.828125 122.289062 117.828125 122.664062 C 117.828125 122.882812 117.796875 122.992188 117.671875 123.507812 Z M 117.09375 125.804688 "/>
<path style=" stroke:none;fill-rule:nonzero;fill:rgb(100%,49.803162%,0%);fill-opacity:1;" d="M 128.480469 126.625 L 128.246094 126.625 C 128.230469 126.78125 128.152344 127.1875 128.058594 127.25 C 128.011719 127.296875 127.480469 127.296875 127.371094 127.296875 L 126.089844 127.296875 C 126.824219 126.65625 127.074219 126.453125 127.480469 126.125 C 127.996094 125.71875 128.480469 125.28125 128.480469 124.625 C 128.480469 123.78125 127.746094 123.265625 126.855469 123.265625 C 125.996094 123.265625 125.402344 123.875 125.402344 124.515625 C 125.402344 124.859375 125.699219 124.90625 125.777344 124.90625 C 125.933594 124.90625 126.136719 124.78125 126.136719 124.53125 C 126.136719 124.40625 126.089844 124.15625 125.730469 124.15625 C 125.949219 123.671875 126.417969 123.515625 126.746094 123.515625 C 127.449219 123.515625 127.808594 124.0625 127.808594 124.625 C 127.808594 125.234375 127.371094 125.703125 127.152344 125.953125 L 125.480469 127.625 C 125.402344 127.6875 125.402344 127.703125 125.402344 127.890625 L 128.277344 127.890625 Z M 128.480469 126.625 "/>
<path style="fill:none;stroke-width:0.79701;stroke-linecap:butt;stroke-linejoin:miter;stroke:rgb(0%,0%,0%);stroke-opacity:1;stroke-miterlimit:10;" d="M 72.78125 -135.480469 L 72.78125 -6.503906 " transform="matrix(1,0,0,-1,0,0)"/>
<path style="fill-rule:nonzero;fill:rgb(84.312439%,84.312439%,100%);fill-opacity:1;stroke-width:0.79701;stroke-linecap:butt;stroke-linejoin:miter;stroke:rgb(38.822937%,38.822937%,100%);stroke-opacity:1;stroke-miterlimit:10;" d="M 54.359375 -32.300781 L 91.207031 -32.300781 L 91.207031 -69.148438 L 54.359375 -69.148438 Z M 54.359375 -32.300781 " transform="matrix(1,0,0,-1,0,0)"/>
<path style=" stroke:none;fill-rule:nonzero;fill:rgb(38.822937%,38.822937%,100%);fill-opacity:1;" d="M 67.050781 51.527344 C 67.019531 51.683594 66.957031 51.917969 66.957031 51.964844 C 66.957031 52.136719 67.097656 52.230469 67.253906 52.230469 C 67.378906 52.230469 67.550781 52.152344 67.628906 51.949219 C 67.628906 51.933594 67.753906 51.464844 67.816406 51.214844 L 68.035156 50.324219 C 68.082031 50.089844 68.144531 49.871094 68.207031 49.652344 C 68.238281 49.480469 68.316406 49.183594 68.332031 49.152344 C 68.472656 48.839844 69.003906 47.933594 69.957031 47.933594 C 70.410156 47.933594 70.488281 48.308594 70.488281 48.636719 C 70.488281 48.886719 70.425781 49.167969 70.347656 49.464844 L 70.066406 50.621094 L 69.863281 51.371094 C 69.832031 51.574219 69.738281 51.917969 69.738281 51.964844 C 69.738281 52.136719 69.878906 52.230469 70.019531 52.230469 C 70.332031 52.230469 70.394531 51.980469 70.472656 51.667969 C 70.613281 51.105469 70.988281 49.652344 71.066406 49.261719 C 71.097656 49.136719 71.628906 47.933594 72.722656 47.933594 C 73.144531 47.933594 73.253906 48.277344 73.253906 48.636719 C 73.253906 49.199219 72.832031 50.339844 72.628906 50.871094 C 72.550781 51.105469 72.503906 51.214844 72.503906 51.417969 C 72.503906 51.886719 72.847656 52.230469 73.316406 52.230469 C 74.253906 52.230469 74.628906 50.777344 74.628906 50.699219 C 74.628906 50.589844 74.535156 50.589844 74.503906 50.589844 C 74.410156 50.589844 74.410156 50.621094 74.363281 50.777344 C 74.207031 51.308594 73.894531 52.011719 73.347656 52.011719 C 73.175781 52.011719 73.097656 51.917969 73.097656 51.683594 C 73.097656 51.433594 73.191406 51.199219 73.285156 50.980469 C 73.472656 50.449219 73.894531 49.355469 73.894531 48.777344 C 73.894531 48.136719 73.488281 47.714844 72.738281 47.714844 C 72.003906 47.714844 71.488281 48.152344 71.113281 48.683594 C 71.113281 48.558594 71.082031 48.214844 70.800781 47.980469 C 70.550781 47.761719 70.238281 47.714844 69.988281 47.714844 C 69.082031 47.714844 68.597656 48.355469 68.425781 48.589844 C 68.378906 48.011719 67.957031 47.714844 67.503906 47.714844 C 67.050781 47.714844 66.863281 48.105469 66.769531 48.277344 C 66.597656 48.636719 66.472656 49.214844 66.472656 49.246094 C 66.472656 49.355469 66.566406 49.355469 66.582031 49.355469 C 66.691406 49.355469 66.691406 49.339844 66.753906 49.121094 C 66.925781 48.417969 67.128906 47.933594 67.488281 47.933594 C 67.644531 47.933594 67.785156 48.011719 67.785156 48.386719 C 67.785156 48.605469 67.753906 48.714844 67.628906 49.230469 Z M 67.050781 51.527344 "/>
<path style=" stroke:none;fill-rule:nonzero;fill:rgb(38.822937%,38.822937%,100%);fill-opacity:1;" d="M 77.25 49.179688 C 77.25 48.992188 77.25 48.992188 77.046875 48.992188 C 76.59375 49.429688 75.96875 49.429688 75.6875 49.429688 L 75.6875 49.679688 C 75.84375 49.679688 76.3125 49.679688 76.6875 49.492188 L 76.6875 53.039062 C 76.6875 53.273438 76.6875 53.367188 76 53.367188 L 75.734375 53.367188 L 75.734375 53.617188 C 75.859375 53.617188 76.71875 53.585938 76.96875 53.585938 C 77.1875 53.585938 78.0625 53.617188 78.21875 53.617188 L 78.21875 53.367188 L 77.953125 53.367188 C 77.25 53.367188 77.25 53.273438 77.25 53.039062 Z M 77.25 49.179688 "/>
<path style="fill:none;stroke-width:0.79701;stroke-linecap:butt;stroke-linejoin:miter;stroke:rgb(29.019165%,70.979309%,29.019165%);stroke-opacity:1;stroke-miterlimit:10;" d="M 162.925781 -42.21875 L 179.019531 -70.097656 " transform="matrix(1,0,0,-1,0,0)"/>
<path style=" stroke:none;fill-rule:nonzero;fill:rgb(29.019165%,70.979309%,29.019165%);fill-opacity:1;" d="M 181.351562 74.132812 C 180.886719 72.808594 180.4375 70.476562 180.445312 68.675781 L 177.078125 70.617188 C 178.640625 71.511719 180.4375 73.066406 181.351562 74.132812 "/>
<path style=" stroke:none;fill-rule:nonzero;fill:rgb(29.019165%,70.979309%,29.019165%);fill-opacity:1;" d="M 182 78.613281 C 182.078125 78.332031 182.109375 78.269531 182.234375 78.238281 C 182.328125 78.222656 182.65625 78.222656 182.859375 78.222656 C 183.875 78.222656 184.3125 78.253906 184.3125 79.035156 C 184.3125 79.191406 184.28125 79.582031 184.234375 79.832031 C 184.234375 79.878906 184.203125 79.988281 184.203125 80.019531 C 184.203125 80.082031 184.234375 80.160156 184.328125 80.160156 C 184.4375 80.160156 184.453125 80.082031 184.484375 79.925781 L 184.75 78.191406 C 184.765625 78.144531 184.765625 78.050781 184.765625 78.019531 C 184.765625 77.910156 184.671875 77.910156 184.5 77.910156 L 178.96875 77.910156 C 178.734375 77.910156 178.71875 77.925781 178.640625 78.113281 L 178.046875 79.863281 C 178.046875 79.878906 177.984375 80.019531 177.984375 80.050781 C 177.984375 80.097656 178.046875 80.160156 178.109375 80.160156 C 178.203125 80.160156 178.21875 80.097656 178.28125 79.941406 C 178.8125 78.394531 179.078125 78.222656 180.546875 78.222656 L 180.9375 78.222656 C 181.21875 78.222656 181.21875 78.253906 181.21875 78.347656 C 181.21875 78.394531 181.1875 78.519531 181.171875 78.550781 L 179.84375 83.878906 C 179.75 84.238281 179.71875 84.347656 178.65625 84.347656 C 178.296875 84.347656 178.234375 84.347656 178.234375 84.535156 C 178.234375 84.660156 178.34375 84.660156 178.40625 84.660156 C 178.671875 84.660156 178.953125 84.644531 179.21875 84.644531 C 179.5 84.644531 179.796875 84.628906 180.078125 84.628906 C 180.359375 84.628906 180.625 84.644531 180.90625 84.644531 C 181.1875 84.644531 181.484375 84.660156 181.765625 84.660156 C 181.859375 84.660156 181.984375 84.660156 181.984375 84.457031 C 181.984375 84.347656 181.90625 84.347656 181.640625 84.347656 C 181.40625 84.347656 181.265625 84.347656 181.015625 84.332031 C 180.71875 84.300781 180.640625 84.269531 180.640625 84.113281 C 180.640625 84.097656 180.640625 84.050781 180.6875 83.910156 Z M 182 78.613281 "/>
<path style="fill:none;stroke-width:0.79701;stroke-linecap:butt;stroke-linejoin:miter;stroke:rgb(100%,38.822937%,38.822937%);stroke-opacity:1;stroke-miterlimit:10;" d="M 181.351562 -23.792969 L 202.484375 -23.792969 " transform="matrix(1,0,0,-1,0,0)"/>
<path style=" stroke:none;fill-rule:nonzero;fill:rgb(100%,38.822937%,38.822937%);fill-opacity:1;" d="M 207.148438 23.792969 C 205.765625 23.535156 203.519531 22.757812 201.964844 21.851562 L 201.964844 25.738281 C 203.519531 24.832031 205.765625 24.054688 207.148438 23.792969 "/>
<path style=" stroke:none;fill-rule:nonzero;fill:rgb(100%,38.822937%,38.822937%);fill-opacity:1;" d="M 213.882812 22.71875 L 214.851562 22.71875 C 215.601562 22.71875 215.679688 22.875 215.679688 23.15625 C 215.679688 23.234375 215.679688 23.34375 215.617188 23.65625 C 215.585938 23.703125 215.585938 23.734375 215.585938 23.765625 C 215.585938 23.84375 215.648438 23.875 215.695312 23.875 C 215.804688 23.875 215.804688 23.84375 215.851562 23.671875 L 216.398438 21.5 C 216.429688 21.390625 216.429688 21.375 216.429688 21.34375 C 216.429688 21.328125 216.414062 21.234375 216.304688 21.234375 C 216.210938 21.234375 216.195312 21.28125 216.164062 21.453125 C 215.945312 22.21875 215.726562 22.40625 214.867188 22.40625 L 213.960938 22.40625 L 214.601562 19.875 C 214.695312 19.515625 214.710938 19.484375 215.148438 19.484375 L 216.460938 19.484375 C 217.679688 19.484375 217.914062 19.8125 217.914062 20.578125 C 217.914062 20.8125 217.914062 20.84375 217.882812 21.125 C 217.867188 21.25 217.867188 21.265625 217.867188 21.296875 C 217.867188 21.34375 217.898438 21.421875 217.992188 21.421875 C 218.101562 21.421875 218.101562 21.359375 218.117188 21.171875 L 218.320312 19.4375 C 218.351562 19.171875 218.304688 19.171875 218.054688 19.171875 L 213.164062 19.171875 C 212.976562 19.171875 212.867188 19.171875 212.867188 19.375 C 212.867188 19.484375 212.960938 19.484375 213.148438 19.484375 C 213.523438 19.484375 213.804688 19.484375 213.804688 19.65625 C 213.804688 19.703125 213.804688 19.71875 213.742188 19.90625 L 212.429688 25.171875 C 212.335938 25.5625 212.320312 25.640625 211.523438 25.640625 C 211.351562 25.640625 211.242188 25.640625 211.242188 25.828125 C 211.242188 25.953125 211.367188 25.953125 211.398438 25.953125 C 211.679688 25.953125 212.429688 25.921875 212.710938 25.921875 C 213.039062 25.921875 213.867188 25.953125 214.195312 25.953125 C 214.289062 25.953125 214.398438 25.953125 214.398438 25.765625 C 214.398438 25.6875 214.351562 25.65625 214.351562 25.65625 C 214.320312 25.640625 214.289062 25.640625 214.070312 25.640625 C 213.851562 25.640625 213.804688 25.640625 213.554688 25.625 C 213.257812 25.59375 213.226562 25.546875 213.226562 25.421875 C 213.226562 25.40625 213.226562 25.34375 213.273438 25.203125 Z M 213.882812 22.71875 "/>
<path style=" stroke:none;fill-rule:nonzero;fill:rgb(100%,38.822937%,38.822937%);fill-opacity:1;" d="M 220.320312 24.777344 C 220.070312 24.824219 219.976562 25.011719 219.976562 25.167969 C 219.976562 25.355469 220.117188 25.433594 220.242188 25.433594 C 220.398438 25.433594 220.632812 25.324219 220.632812 24.980469 C 220.632812 24.511719 220.101562 24.371094 219.726562 24.371094 C 218.679688 24.371094 217.710938 25.339844 217.710938 26.308594 C 217.710938 26.902344 218.117188 27.511719 218.992188 27.511719 C 220.179688 27.511719 220.726562 26.824219 220.726562 26.730469 C 220.726562 26.683594 220.664062 26.605469 220.601562 26.605469 C 220.570312 26.605469 220.554688 26.621094 220.492188 26.683594 C 219.945312 27.324219 219.132812 27.324219 219.007812 27.324219 C 218.507812 27.324219 218.289062 26.980469 218.289062 26.542969 C 218.289062 26.355469 218.382812 25.589844 218.742188 25.105469 C 219.007812 24.761719 219.367188 24.574219 219.726562 24.574219 C 219.820312 24.574219 220.148438 24.589844 220.320312 24.777344 Z M 220.320312 24.777344 "/>
<path style=" stroke:none;fill-rule:nonzero;fill:rgb(100%,38.822937%,38.822937%);fill-opacity:1;" d="M 223.769531 27.476562 L 223.550781 27.476562 C 223.550781 27.570312 223.488281 27.882812 223.410156 27.929688 C 223.378906 27.960938 222.957031 27.960938 222.878906 27.960938 L 221.910156 27.960938 C 222.238281 27.726562 222.597656 27.445312 222.894531 27.242188 C 223.347656 26.929688 223.769531 26.648438 223.769531 26.117188 C 223.769531 25.476562 223.160156 25.132812 222.457031 25.132812 C 221.785156 25.132812 221.285156 25.507812 221.285156 26.007812 C 221.285156 26.257812 221.503906 26.304688 221.582031 26.304688 C 221.707031 26.304688 221.863281 26.210938 221.863281 26.007812 C 221.863281 25.835938 221.738281 25.726562 221.582031 25.726562 C 221.722656 25.492188 222.019531 25.351562 222.347656 25.351562 C 222.832031 25.351562 223.238281 25.632812 223.238281 26.117188 C 223.238281 26.539062 222.941406 26.867188 222.566406 27.179688 L 221.347656 28.210938 C 221.300781 28.257812 221.285156 28.257812 221.285156 28.289062 L 221.285156 28.445312 L 223.597656 28.445312 Z M 223.769531 27.476562 "/>
<path style="fill-rule:nonzero;fill:rgb(84.312439%,84.312439%,100%);fill-opacity:1;stroke-width:0.79701;stroke-linecap:butt;stroke-linejoin:miter;stroke:rgb(38.822937%,38.822937%,100%);stroke-opacity:1;stroke-miterlimit:10;" d="M 144.5 -5.371094 L 181.351562 -5.371094 L 181.351562 -42.21875 L 144.5 -42.21875 Z M 144.5 -5.371094 " transform="matrix(1,0,0,-1,0,0)"/>
<path style=" stroke:none;fill-rule:nonzero;fill:rgb(38.822937%,38.822937%,100%);fill-opacity:1;" d="M 157.191406 24.597656 C 157.160156 24.753906 157.097656 24.988281 157.097656 25.035156 C 157.097656 25.207031 157.238281 25.300781 157.394531 25.300781 C 157.519531 25.300781 157.691406 25.222656 157.769531 25.019531 C 157.769531 25.003906 157.894531 24.535156 157.957031 24.285156 L 158.175781 23.394531 C 158.222656 23.160156 158.285156 22.941406 158.347656 22.722656 C 158.378906 22.550781 158.457031 22.253906 158.472656 22.222656 C 158.613281 21.910156 159.144531 21.003906 160.097656 21.003906 C 160.550781 21.003906 160.628906 21.378906 160.628906 21.707031 C 160.628906 21.957031 160.566406 22.238281 160.488281 22.535156 L 160.207031 23.691406 L 160.003906 24.441406 C 159.972656 24.644531 159.878906 24.988281 159.878906 25.035156 C 159.878906 25.207031 160.019531 25.300781 160.160156 25.300781 C 160.472656 25.300781 160.535156 25.050781 160.613281 24.738281 C 160.753906 24.175781 161.128906 22.722656 161.207031 22.332031 C 161.238281 22.207031 161.769531 21.003906 162.863281 21.003906 C 163.285156 21.003906 163.394531 21.347656 163.394531 21.707031 C 163.394531 22.269531 162.972656 23.410156 162.769531 23.941406 C 162.691406 24.175781 162.644531 24.285156 162.644531 24.488281 C 162.644531 24.957031 162.988281 25.300781 163.457031 25.300781 C 164.394531 25.300781 164.769531 23.847656 164.769531 23.769531 C 164.769531 23.660156 164.675781 23.660156 164.644531 23.660156 C 164.550781 23.660156 164.550781 23.691406 164.503906 23.847656 C 164.347656 24.378906 164.035156 25.082031 163.488281 25.082031 C 163.316406 25.082031 163.238281 24.988281 163.238281 24.753906 C 163.238281 24.503906 163.332031 24.269531 163.425781 24.050781 C 163.613281 23.519531 164.035156 22.425781 164.035156 21.847656 C 164.035156 21.207031 163.628906 20.785156 162.878906 20.785156 C 162.144531 20.785156 161.628906 21.222656 161.253906 21.753906 C 161.253906 21.628906 161.222656 21.285156 160.941406 21.050781 C 160.691406 20.832031 160.378906 20.785156 160.128906 20.785156 C 159.222656 20.785156 158.738281 21.425781 158.566406 21.660156 C 158.519531 21.082031 158.097656 20.785156 157.644531 20.785156 C 157.191406 20.785156 157.003906 21.175781 156.910156 21.347656 C 156.738281 21.707031 156.613281 22.285156 156.613281 22.316406 C 156.613281 22.425781 156.707031 22.425781 156.722656 22.425781 C 156.832031 22.425781 156.832031 22.410156 156.894531 22.191406 C 157.066406 21.488281 157.269531 21.003906 157.628906 21.003906 C 157.785156 21.003906 157.925781 21.082031 157.925781 21.457031 C 157.925781 21.675781 157.894531 21.785156 157.769531 22.300781 Z M 157.191406 24.597656 "/>
<path style=" stroke:none;fill-rule:nonzero;fill:rgb(38.822937%,38.822937%,100%);fill-opacity:1;" d="M 167.394531 22.25 C 167.394531 22.0625 167.394531 22.0625 167.191406 22.0625 C 166.738281 22.5 166.113281 22.5 165.832031 22.5 L 165.832031 22.75 C 165.988281 22.75 166.457031 22.75 166.832031 22.5625 L 166.832031 26.109375 C 166.832031 26.34375 166.832031 26.4375 166.144531 26.4375 L 165.878906 26.4375 L 165.878906 26.6875 C 166.003906 26.6875 166.863281 26.65625 167.113281 26.65625 C 167.332031 26.65625 168.207031 26.6875 168.363281 26.6875 L 168.363281 26.4375 L 168.097656 26.4375 C 167.394531 26.4375 167.394531 26.34375 167.394531 26.109375 Z M 167.394531 22.25 "/>
<path style="fill:none;stroke-width:0.79701;stroke-linecap:butt;stroke-linejoin:miter;stroke:rgb(29.019165%,70.979309%,29.019165%);stroke-opacity:1;stroke-miterlimit:10;" d="M 204.382812 -116.132812 L 188.289062 -88.257812 " transform="matrix(1,0,0,-1,0,0)"/>
<path style=" stroke:none;fill-rule:nonzero;fill:rgb(29.019165%,70.979309%,29.019165%);fill-opacity:1;" d="M 185.957031 84.21875 C 186.425781 85.546875 186.875 87.878906 186.867188 89.679688 L 190.230469 87.734375 C 188.667969 86.84375 186.871094 85.285156 185.957031 84.21875 "/>
<path style="fill:none;stroke-width:0.79701;stroke-linecap:butt;stroke-linejoin:miter;stroke:rgb(100%,38.822937%,38.822937%);stroke-opacity:1;stroke-miterlimit:10;" d="M 201.441406 -132.8125 L 180.308594 -132.8125 " transform="matrix(1,0,0,-1,0,0)"/>
<path style=" stroke:none;fill-rule:nonzero;fill:rgb(100%,38.822937%,38.822937%);fill-opacity:1;" d="M 175.648438 132.8125 C 177.027344 133.074219 179.273438 133.851562 180.828125 134.757812 L 180.828125 130.871094 C 179.273438 131.777344 177.027344 132.554688 175.648438 132.8125 "/>
<path style=" stroke:none;fill-rule:nonzero;fill:rgb(100%,38.822937%,38.822937%);fill-opacity:1;" d="M 160.589844 131.738281 L 161.558594 131.738281 C 162.308594 131.738281 162.386719 131.894531 162.386719 132.175781 C 162.386719 132.253906 162.386719 132.363281 162.324219 132.675781 C 162.292969 132.722656 162.292969 132.753906 162.292969 132.785156 C 162.292969 132.863281 162.355469 132.894531 162.402344 132.894531 C 162.511719 132.894531 162.511719 132.863281 162.558594 132.691406 L 163.105469 130.519531 C 163.136719 130.410156 163.136719 130.394531 163.136719 130.363281 C 163.136719 130.347656 163.121094 130.253906 163.011719 130.253906 C 162.917969 130.253906 162.902344 130.300781 162.871094 130.472656 C 162.652344 131.238281 162.433594 131.425781 161.574219 131.425781 L 160.667969 131.425781 L 161.308594 128.894531 C 161.402344 128.535156 161.417969 128.503906 161.855469 128.503906 L 163.167969 128.503906 C 164.386719 128.503906 164.621094 128.832031 164.621094 129.597656 C 164.621094 129.832031 164.621094 129.863281 164.589844 130.144531 C 164.574219 130.269531 164.574219 130.285156 164.574219 130.316406 C 164.574219 130.363281 164.605469 130.441406 164.699219 130.441406 C 164.808594 130.441406 164.808594 130.378906 164.824219 130.191406 L 165.027344 128.457031 C 165.058594 128.191406 165.011719 128.191406 164.761719 128.191406 L 159.871094 128.191406 C 159.683594 128.191406 159.574219 128.191406 159.574219 128.394531 C 159.574219 128.503906 159.667969 128.503906 159.855469 128.503906 C 160.230469 128.503906 160.511719 128.503906 160.511719 128.675781 C 160.511719 128.722656 160.511719 128.738281 160.449219 128.925781 L 159.136719 134.191406 C 159.042969 134.582031 159.027344 134.660156 158.230469 134.660156 C 158.058594 134.660156 157.949219 134.660156 157.949219 134.847656 C 157.949219 134.972656 158.074219 134.972656 158.105469 134.972656 C 158.386719 134.972656 159.136719 134.941406 159.417969 134.941406 C 159.746094 134.941406 160.574219 134.972656 160.902344 134.972656 C 160.996094 134.972656 161.105469 134.972656 161.105469 134.785156 C 161.105469 134.707031 161.058594 134.675781 161.058594 134.675781 C 161.027344 134.660156 160.996094 134.660156 160.777344 134.660156 C 160.558594 134.660156 160.511719 134.660156 160.261719 134.644531 C 159.964844 134.613281 159.933594 134.566406 159.933594 134.441406 C 159.933594 134.425781 159.933594 134.363281 159.980469 134.222656 Z M 160.589844 131.738281 "/>
<path style=" stroke:none;fill-rule:nonzero;fill:rgb(100%,38.822937%,38.822937%);fill-opacity:1;" d="M 167.027344 133.796875 C 166.777344 133.84375 166.683594 134.03125 166.683594 134.1875 C 166.683594 134.375 166.824219 134.453125 166.949219 134.453125 C 167.105469 134.453125 167.339844 134.34375 167.339844 134 C 167.339844 133.53125 166.808594 133.390625 166.433594 133.390625 C 165.386719 133.390625 164.417969 134.359375 164.417969 135.328125 C 164.417969 135.921875 164.824219 136.53125 165.699219 136.53125 C 166.886719 136.53125 167.433594 135.84375 167.433594 135.75 C 167.433594 135.703125 167.371094 135.625 167.308594 135.625 C 167.277344 135.625 167.261719 135.640625 167.199219 135.703125 C 166.652344 136.34375 165.839844 136.34375 165.714844 136.34375 C 165.214844 136.34375 164.996094 136 164.996094 135.5625 C 164.996094 135.375 165.089844 134.609375 165.449219 134.125 C 165.714844 133.78125 166.074219 133.59375 166.433594 133.59375 C 166.527344 133.59375 166.855469 133.609375 167.027344 133.796875 Z M 167.027344 133.796875 "/>
<path style=" stroke:none;fill-rule:nonzero;fill:rgb(100%,38.822937%,38.822937%);fill-opacity:1;" d="M 170.476562 136.496094 L 170.257812 136.496094 C 170.257812 136.589844 170.195312 136.902344 170.117188 136.949219 C 170.085938 136.980469 169.664062 136.980469 169.585938 136.980469 L 168.617188 136.980469 C 168.945312 136.746094 169.304688 136.464844 169.601562 136.261719 C 170.054688 135.949219 170.476562 135.667969 170.476562 135.136719 C 170.476562 134.496094 169.867188 134.152344 169.164062 134.152344 C 168.492188 134.152344 167.992188 134.527344 167.992188 135.027344 C 167.992188 135.277344 168.210938 135.324219 168.289062 135.324219 C 168.414062 135.324219 168.570312 135.230469 168.570312 135.027344 C 168.570312 134.855469 168.445312 134.746094 168.289062 134.746094 C 168.429688 134.511719 168.726562 134.371094 169.054688 134.371094 C 169.539062 134.371094 169.945312 134.652344 169.945312 135.136719 C 169.945312 135.558594 169.648438 135.886719 169.273438 136.199219 L 168.054688 137.230469 C 168.007812 137.277344 167.992188 137.277344 167.992188 137.308594 L 167.992188 137.464844 L 170.304688 137.464844 Z M 170.476562 136.496094 "/>
<path style="fill:none;stroke-width:0.79701;stroke-linecap:butt;stroke-linejoin:miter;stroke:rgb(38.822937%,38.822937%,100%);stroke-opacity:1;stroke-miterlimit:10;" d="M 201.441406 -118.601562 L 180.308594 -118.601562 " transform="matrix(1,0,0,-1,0,0)"/>
<path style=" stroke:none;fill-rule:nonzero;fill:rgb(38.822937%,38.822937%,100%);fill-opacity:1;" d="M 175.648438 118.601562 C 177.027344 118.859375 179.273438 119.636719 180.828125 120.542969 L 180.828125 116.660156 C 179.273438 117.566406 177.027344 118.34375 175.648438 118.601562 "/>
<path style=" stroke:none;fill-rule:nonzero;fill:rgb(38.822937%,38.822937%,100%);fill-opacity:1;" d="M 149.421875 120.589844 C 149.390625 120.746094 149.328125 120.980469 149.328125 121.027344 C 149.328125 121.199219 149.46875 121.292969 149.625 121.292969 C 149.75 121.292969 149.921875 121.214844 150 121.011719 C 150 120.996094 150.125 120.527344 150.1875 120.277344 L 150.40625 119.386719 C 150.453125 119.152344 150.515625 118.933594 150.578125 118.714844 C 150.609375 118.542969 150.6875 118.246094 150.703125 118.214844 C 150.84375 117.902344 151.375 116.996094 152.328125 116.996094 C 152.78125 116.996094 152.859375 117.371094 152.859375 117.699219 C 152.859375 117.949219 152.796875 118.230469 152.71875 118.527344 L 152.4375 119.683594 L 152.234375 120.433594 C 152.203125 120.636719 152.109375 120.980469 152.109375 121.027344 C 152.109375 121.199219 152.25 121.292969 152.390625 121.292969 C 152.703125 121.292969 152.765625 121.042969 152.84375 120.730469 C 152.984375 120.167969 153.359375 118.714844 153.4375 118.324219 C 153.46875 118.199219 154 116.996094 155.09375 116.996094 C 155.515625 116.996094 155.625 117.339844 155.625 117.699219 C 155.625 118.261719 155.203125 119.402344 155 119.933594 C 154.921875 120.167969 154.875 120.277344 154.875 120.480469 C 154.875 120.949219 155.21875 121.292969 155.6875 121.292969 C 156.625 121.292969 157 119.839844 157 119.761719 C 157 119.652344 156.90625 119.652344 156.875 119.652344 C 156.78125 119.652344 156.78125 119.683594 156.734375 119.839844 C 156.578125 120.371094 156.265625 121.074219 155.71875 121.074219 C 155.546875 121.074219 155.46875 120.980469 155.46875 120.746094 C 155.46875 120.496094 155.5625 120.261719 155.65625 120.042969 C 155.84375 119.511719 156.265625 118.417969 156.265625 117.839844 C 156.265625 117.199219 155.859375 116.777344 155.109375 116.777344 C 154.375 116.777344 153.859375 117.214844 153.484375 117.746094 C 153.484375 117.621094 153.453125 117.277344 153.171875 117.042969 C 152.921875 116.824219 152.609375 116.777344 152.359375 116.777344 C 151.453125 116.777344 150.96875 117.417969 150.796875 117.652344 C 150.75 117.074219 150.328125 116.777344 149.875 116.777344 C 149.421875 116.777344 149.234375 117.167969 149.140625 117.339844 C 148.96875 117.699219 148.84375 118.277344 148.84375 118.308594 C 148.84375 118.417969 148.9375 118.417969 148.953125 118.417969 C 149.0625 118.417969 149.0625 118.402344 149.125 118.183594 C 149.296875 117.480469 149.5 116.996094 149.859375 116.996094 C 150.015625 116.996094 150.15625 117.074219 150.15625 117.449219 C 150.15625 117.667969 150.125 117.777344 150 118.292969 Z M 149.421875 120.589844 "/>
<path style=" stroke:none;fill-rule:nonzero;fill:rgb(38.822937%,38.822937%,100%);fill-opacity:1;" d="M 160.808594 121.410156 L 160.574219 121.410156 C 160.558594 121.566406 160.480469 121.972656 160.386719 122.035156 C 160.339844 122.082031 159.808594 122.082031 159.699219 122.082031 L 158.417969 122.082031 C 159.152344 121.441406 159.402344 121.238281 159.808594 120.910156 C 160.324219 120.503906 160.808594 120.066406 160.808594 119.410156 C 160.808594 118.566406 160.074219 118.050781 159.183594 118.050781 C 158.324219 118.050781 157.730469 118.660156 157.730469 119.300781 C 157.730469 119.644531 158.027344 119.691406 158.105469 119.691406 C 158.261719 119.691406 158.464844 119.566406 158.464844 119.316406 C 158.464844 119.191406 158.417969 118.941406 158.058594 118.941406 C 158.277344 118.457031 158.746094 118.300781 159.074219 118.300781 C 159.777344 118.300781 160.136719 118.847656 160.136719 119.410156 C 160.136719 120.019531 159.699219 120.488281 159.480469 120.738281 L 157.808594 122.410156 C 157.730469 122.472656 157.730469 122.488281 157.730469 122.675781 L 160.605469 122.675781 Z M 160.808594 121.410156 "/>
<path style=" stroke:none;fill-rule:nonzero;fill:rgb(38.822937%,38.822937%,100%);fill-opacity:1;" d="M 164.429688 115.011719 C 164.429688 114.777344 164.226562 114.511719 163.929688 114.511719 C 163.648438 114.511719 163.429688 114.730469 163.429688 115.011719 C 163.429688 115.292969 163.648438 115.511719 163.929688 115.511719 C 164.226562 115.511719 164.429688 115.246094 164.429688 115.011719 Z M 166.351562 115.011719 C 166.351562 114.730469 166.132812 114.511719 165.851562 114.511719 C 165.554688 114.511719 165.351562 114.777344 165.351562 115.011719 C 165.351562 115.246094 165.554688 115.511719 165.851562 115.511719 C 166.132812 115.511719 166.351562 115.292969 166.351562 115.011719 Z M 166.351562 115.011719 "/>
<path style=" stroke:none;fill-rule:nonzero;fill:rgb(38.822937%,38.822937%,100%);fill-opacity:1;" d="M 165.089844 118.167969 C 165.152344 117.917969 165.386719 116.996094 166.074219 116.996094 C 166.121094 116.996094 166.371094 116.996094 166.574219 117.121094 C 166.292969 117.183594 166.105469 117.417969 166.105469 117.667969 C 166.105469 117.824219 166.214844 118.011719 166.480469 118.011719 C 166.699219 118.011719 167.011719 117.839844 167.011719 117.433594 C 167.011719 116.917969 166.433594 116.777344 166.089844 116.777344 C 165.511719 116.777344 165.167969 117.308594 165.042969 117.527344 C 164.792969 116.871094 164.261719 116.777344 163.964844 116.777344 C 162.933594 116.777344 162.355469 118.058594 162.355469 118.308594 C 162.355469 118.417969 162.464844 118.417969 162.480469 118.417969 C 162.558594 118.417969 162.589844 118.386719 162.605469 118.308594 C 162.949219 117.246094 163.605469 116.996094 163.949219 116.996094 C 164.136719 116.996094 164.480469 117.089844 164.480469 117.667969 C 164.480469 117.980469 164.308594 118.636719 163.949219 120.042969 C 163.792969 120.652344 163.433594 121.074219 162.996094 121.074219 C 162.933594 121.074219 162.714844 121.074219 162.496094 120.949219 C 162.746094 120.886719 162.964844 120.683594 162.964844 120.402344 C 162.964844 120.136719 162.746094 120.058594 162.605469 120.058594 C 162.292969 120.058594 162.058594 120.308594 162.058594 120.636719 C 162.058594 121.089844 162.542969 121.292969 162.980469 121.292969 C 163.652344 121.292969 164.011719 120.589844 164.027344 120.542969 C 164.152344 120.902344 164.511719 121.292969 165.105469 121.292969 C 166.136719 121.292969 166.699219 120.011719 166.699219 119.761719 C 166.699219 119.652344 166.621094 119.652344 166.589844 119.652344 C 166.496094 119.652344 166.480469 119.699219 166.449219 119.761719 C 166.121094 120.839844 165.449219 121.074219 165.136719 121.074219 C 164.746094 121.074219 164.589844 120.761719 164.589844 120.417969 C 164.589844 120.199219 164.636719 119.980469 164.746094 119.542969 Z M 165.089844 118.167969 "/>
<path style=" stroke:none;fill-rule:nonzero;fill:rgb(38.822937%,38.822937%,100%);fill-opacity:1;" d="M 169.785156 118.238281 C 169.785156 118.050781 169.785156 118.050781 169.582031 118.050781 C 169.128906 118.488281 168.503906 118.488281 168.222656 118.488281 L 168.222656 118.738281 C 168.378906 118.738281 168.847656 118.738281 169.222656 118.550781 L 169.222656 122.097656 C 169.222656 122.332031 169.222656 122.425781 168.535156 122.425781 L 168.269531 122.425781 L 168.269531 122.675781 C 168.394531 122.675781 169.253906 122.644531 169.503906 122.644531 C 169.722656 122.644531 170.597656 122.675781 170.753906 122.675781 L 170.753906 122.425781 L 170.488281 122.425781 C 169.785156 122.425781 169.785156 122.332031 169.785156 122.097656 Z M 169.785156 118.238281 "/>
<path style=" stroke:none;fill-rule:nonzero;fill:rgb(100%,94.116211%,0%);fill-opacity:1;" d="M 220.964844 125.707031 C 220.964844 119.601562 216.015625 114.652344 209.910156 114.652344 C 203.804688 114.652344 198.855469 119.601562 198.855469 125.707031 C 198.855469 131.8125 203.804688 136.761719 209.910156 136.761719 C 216.015625 136.761719 220.964844 131.8125 220.964844 125.707031 Z M 220.964844 125.707031 "/>
<g clip-path="url(#clip8)" clip-rule="nonzero">
<path style="fill:none;stroke-width:0.79701;stroke-linecap:butt;stroke-linejoin:miter;stroke:rgb(100%,49.803162%,0%);stroke-opacity:1;stroke-miterlimit:10;" d="M 220.964844 -125.707031 C 220.964844 -119.601562 216.015625 -114.652344 209.910156 -114.652344 C 203.804688 -114.652344 198.855469 -119.601562 198.855469 -125.707031 C 198.855469 -131.8125 203.804688 -136.761719 209.910156 -136.761719 C 216.015625 -136.761719 220.964844 -131.8125 220.964844 -125.707031 Z M 220.964844 -125.707031 " transform="matrix(1,0,0,-1,0,0)"/>
</g>
<path style=" stroke:none;fill-rule:nonzero;fill:rgb(100%,49.803162%,0%);fill-opacity:1;" d="M 204.175781 126.511719 C 204.144531 126.667969 204.082031 126.902344 204.082031 126.949219 C 204.082031 127.121094 204.222656 127.214844 204.378906 127.214844 C 204.503906 127.214844 204.675781 127.136719 204.753906 126.933594 C 204.753906 126.917969 204.878906 126.449219 204.941406 126.199219 L 205.160156 125.308594 C 205.207031 125.074219 205.269531 124.855469 205.332031 124.636719 C 205.363281 124.464844 205.441406 124.167969 205.457031 124.136719 C 205.597656 123.824219 206.128906 122.917969 207.082031 122.917969 C 207.535156 122.917969 207.613281 123.292969 207.613281 123.621094 C 207.613281 123.871094 207.550781 124.152344 207.472656 124.449219 L 207.191406 125.605469 L 206.988281 126.355469 C 206.957031 126.558594 206.863281 126.902344 206.863281 126.949219 C 206.863281 127.121094 207.003906 127.214844 207.144531 127.214844 C 207.457031 127.214844 207.519531 126.964844 207.597656 126.652344 C 207.738281 126.089844 208.113281 124.636719 208.191406 124.246094 C 208.222656 124.121094 208.753906 122.917969 209.847656 122.917969 C 210.269531 122.917969 210.378906 123.261719 210.378906 123.621094 C 210.378906 124.183594 209.957031 125.324219 209.753906 125.855469 C 209.675781 126.089844 209.628906 126.199219 209.628906 126.402344 C 209.628906 126.871094 209.972656 127.214844 210.441406 127.214844 C 211.378906 127.214844 211.753906 125.761719 211.753906 125.683594 C 211.753906 125.574219 211.660156 125.574219 211.628906 125.574219 C 211.535156 125.574219 211.535156 125.605469 211.488281 125.761719 C 211.332031 126.292969 211.019531 126.996094 210.472656 126.996094 C 210.300781 126.996094 210.222656 126.902344 210.222656 126.667969 C 210.222656 126.417969 210.316406 126.183594 210.410156 125.964844 C 210.597656 125.433594 211.019531 124.339844 211.019531 123.761719 C 211.019531 123.121094 210.613281 122.699219 209.863281 122.699219 C 209.128906 122.699219 208.613281 123.136719 208.238281 123.667969 C 208.238281 123.542969 208.207031 123.199219 207.925781 122.964844 C 207.675781 122.746094 207.363281 122.699219 207.113281 122.699219 C 206.207031 122.699219 205.722656 123.339844 205.550781 123.574219 C 205.503906 122.996094 205.082031 122.699219 204.628906 122.699219 C 204.175781 122.699219 203.988281 123.089844 203.894531 123.261719 C 203.722656 123.621094 203.597656 124.199219 203.597656 124.230469 C 203.597656 124.339844 203.691406 124.339844 203.707031 124.339844 C 203.816406 124.339844 203.816406 124.324219 203.878906 124.105469 C 204.050781 123.402344 204.253906 122.917969 204.613281 122.917969 C 204.769531 122.917969 204.910156 122.996094 204.910156 123.371094 C 204.910156 123.589844 204.878906 123.699219 204.753906 124.214844 Z M 204.175781 126.511719 "/>
<path style=" stroke:none;fill-rule:nonzero;fill:rgb(100%,49.803162%,0%);fill-opacity:1;" d="M 215.566406 127.335938 L 215.332031 127.335938 C 215.316406 127.492188 215.238281 127.898438 215.144531 127.960938 C 215.097656 128.007812 214.566406 128.007812 214.457031 128.007812 L 213.175781 128.007812 C 213.910156 127.367188 214.160156 127.164062 214.566406 126.835938 C 215.082031 126.429688 215.566406 125.992188 215.566406 125.335938 C 215.566406 124.492188 214.832031 123.976562 213.941406 123.976562 C 213.082031 123.976562 212.488281 124.585938 212.488281 125.226562 C 212.488281 125.570312 212.785156 125.617188 212.863281 125.617188 C 213.019531 125.617188 213.222656 125.492188 213.222656 125.242188 C 213.222656 125.117188 213.175781 124.867188 212.816406 124.867188 C 213.035156 124.382812 213.503906 124.226562 213.832031 124.226562 C 214.535156 124.226562 214.894531 124.773438 214.894531 125.335938 C 214.894531 125.945312 214.457031 126.414062 214.238281 126.664062 L 212.566406 128.335938 C 212.488281 128.398438 212.488281 128.414062 212.488281 128.601562 L 215.363281 128.601562 Z M 215.566406 127.335938 "/>
</g>
</svg>
