<?xml version="1.0" encoding="UTF-8"?>
<svg xmlns="http://www.w3.org/2000/svg" xmlns:xlink="http://www.w3.org/1999/xlink" width="227.770004pt" height="141.139999pt" viewBox="0 0 227.770004 141.139999" version="1.1">
<defs>
<clipPath id="clip1">
  <path d="M 128 102 L 227.273438 102 L 227.273438 140.640625 L 128 140.640625 Z M 128 102 "/>
</clipPath>
<clipPath id="clip2">
  <path d="M 133 0.492188 L 221 0.492188 L 221 132 L 133 132 Z M 133 0.492188 "/>
</clipPath>
<clipPath id="clip3">
  <path d="M 183 93 L 227.273438 93 L 227.273438 140.640625 L 183 140.640625 Z M 183 93 "/>
</clipPath>
<clipPath id="clip4">
  <path d="M 113 0.492188 L 179 0.492188 L 179 20 L 113 20 Z M 113 0.492188 "/>
</clipPath>
</defs>
<g id="surface1">
<g clip-path="url(#clip1)" clip-rule="nonzero">
<path style="fill:none;stroke-width:0.3985;stroke-linecap:butt;stroke-linejoin:miter;stroke:rgb(0%,0%,0%);stroke-opacity:1;stroke-dasharray:2.98883,1.99255;stroke-miterlimit:10;" d="M 226.234375 -108.4375 C 200.261719 -129.472656 167.121094 -139.601562 133.824219 -136.691406 " transform="matrix(1,0,0,-1,0,0)"/>
</g>
<path style="fill:none;stroke-width:0.79701;stroke-linecap:butt;stroke-linejoin:miter;stroke:rgb(100%,49.803162%,0%);stroke-opacity:1;stroke-miterlimit:10;" d="M 145.066406 -63.480469 C 154.769531 -63.480469 164.304688 -60.925781 168.667969 -58.40625 " transform="matrix(1,0,0,-1,0,0)"/>
<path style=" stroke:none;fill-rule:nonzero;fill:rgb(100%,49.803162%,0%);fill-opacity:1;" d="M 172.707031 56.074219 C 171.378906 56.542969 169.046875 56.992188 167.246094 56.984375 L 169.191406 60.347656 C 170.082031 58.785156 171.636719 56.988281 172.707031 56.074219 "/>
<path style=" stroke:none;fill-rule:nonzero;fill:rgb(100%,49.803162%,0%);fill-opacity:1;" d="M 161.429688 67.25 C 161.429688 66.59375 161.257812 65.203125 160.242188 65.203125 C 158.851562 65.203125 157.320312 68.015625 157.320312 70.296875 C 157.320312 71.234375 157.601562 72.34375 158.507812 72.34375 C 159.914062 72.34375 161.429688 69.484375 161.429688 67.25 Z M 158.367188 68.609375 C 158.539062 67.984375 158.742188 67.1875 159.148438 66.46875 C 159.414062 65.984375 159.773438 65.421875 160.226562 65.421875 C 160.710938 65.421875 160.773438 66.0625 160.773438 66.625 C 160.773438 67.125 160.695312 67.625 160.460938 68.609375 Z M 160.367188 68.9375 C 160.257812 69.390625 160.054688 70.234375 159.664062 70.953125 C 159.320312 71.640625 158.945312 72.125 158.507812 72.125 C 158.179688 72.125 157.976562 71.828125 157.976562 70.90625 C 157.976562 70.484375 158.039062 69.90625 158.289062 68.9375 Z M 160.367188 68.9375 "/>
<g clip-path="url(#clip2)" clip-rule="nonzero">
<path style="fill:none;stroke-width:0.79701;stroke-linecap:butt;stroke-linejoin:miter;stroke:rgb(29.019165%,70.979309%,29.019165%);stroke-opacity:1;stroke-miterlimit:10;" d="M 145.066406 -8.203125 L 209.554688 -119.902344 " transform="matrix(1,0,0,-1,0,0)"/>
</g>
<path style=" stroke:none;fill-rule:nonzero;fill:rgb(29.019165%,70.979309%,29.019165%);fill-opacity:1;" d="M 181.1875 66.527344 C 181.171875 66.558594 181.140625 66.589844 181.140625 66.621094 C 181.140625 66.667969 181.203125 66.761719 181.265625 66.761719 C 181.3125 66.761719 181.34375 66.730469 181.625 66.449219 C 181.703125 66.371094 181.90625 66.183594 181.984375 66.105469 C 182.078125 66.886719 182.359375 67.636719 183.09375 67.636719 C 183.5 67.636719 183.84375 67.402344 184.046875 67.246094 C 184.1875 67.152344 184.65625 66.761719 184.65625 66.667969 C 184.65625 66.636719 184.625 66.542969 184.546875 66.542969 C 184.515625 66.542969 184.5 66.558594 184.40625 66.636719 C 183.765625 67.261719 183.40625 67.417969 183.109375 67.417969 C 182.671875 67.417969 182.5 66.886719 182.5 66.121094 C 182.5 66.058594 182.53125 65.605469 182.5625 65.542969 C 182.578125 65.511719 182.578125 65.496094 182.78125 65.292969 C 183.578125 64.496094 185 62.808594 185 61.261719 C 185 61.089844 185 60.480469 184.40625 60.480469 C 183.578125 60.480469 182.84375 62.121094 182.75 62.355469 C 182.265625 63.449219 181.953125 64.605469 181.953125 65.792969 Z M 182.609375 65.136719 C 182.625 65.011719 183.0625 62.808594 183.625 61.636719 C 183.890625 61.105469 184.109375 60.699219 184.421875 60.699219 C 184.765625 60.699219 184.765625 61.058594 184.765625 61.214844 C 184.765625 62.886719 183.078125 64.636719 182.609375 65.136719 Z M 182.609375 65.136719 "/>
<path style="fill:none;stroke-width:0.79701;stroke-linecap:butt;stroke-linejoin:miter;stroke:rgb(100%,38.822937%,38.822937%);stroke-opacity:1;stroke-miterlimit:10;" d="M 209.554688 -119.902344 L 172.707031 -119.902344 M 172.707031 -123.589844 L 172.707031 -116.21875 " transform="matrix(1,0,0,-1,0,0)"/>
<path style=" stroke:none;fill-rule:nonzero;fill:rgb(100%,38.822937%,38.822937%);fill-opacity:1;" d="M 172.269531 102.242188 C 172.097656 102.242188 171.972656 102.242188 171.832031 102.367188 C 171.660156 102.523438 171.644531 102.695312 171.644531 102.757812 C 171.644531 103.007812 171.832031 103.117188 172.019531 103.117188 C 172.300781 103.117188 172.566406 102.867188 172.566406 102.476562 C 172.566406 101.992188 172.097656 101.617188 171.394531 101.617188 C 170.050781 101.617188 168.722656 103.039062 168.722656 104.445312 C 168.722656 105.351562 169.300781 106.132812 170.347656 106.132812 C 171.769531 106.132812 172.597656 105.070312 172.597656 104.960938 C 172.597656 104.898438 172.550781 104.820312 172.488281 104.820312 C 172.425781 104.820312 172.410156 104.851562 172.347656 104.929688 C 171.566406 105.914062 170.472656 105.914062 170.363281 105.914062 C 169.738281 105.914062 169.457031 105.429688 169.457031 104.820312 C 169.457031 104.414062 169.660156 103.445312 170.003906 102.835938 C 170.316406 102.257812 170.863281 101.835938 171.410156 101.835938 C 171.738281 101.835938 172.128906 101.960938 172.269531 102.242188 Z M 172.269531 102.242188 "/>
<path style=" stroke:none;fill-rule:nonzero;fill:rgb(100%,38.822937%,38.822937%);fill-opacity:1;" d="M 176.140625 106.253906 L 175.90625 106.253906 C 175.890625 106.410156 175.8125 106.816406 175.71875 106.878906 C 175.671875 106.925781 175.140625 106.925781 175.03125 106.925781 L 173.75 106.925781 C 174.484375 106.285156 174.734375 106.082031 175.140625 105.753906 C 175.65625 105.347656 176.140625 104.910156 176.140625 104.253906 C 176.140625 103.410156 175.40625 102.894531 174.515625 102.894531 C 173.65625 102.894531 173.0625 103.503906 173.0625 104.144531 C 173.0625 104.488281 173.359375 104.535156 173.4375 104.535156 C 173.59375 104.535156 173.796875 104.410156 173.796875 104.160156 C 173.796875 104.035156 173.75 103.785156 173.390625 103.785156 C 173.609375 103.300781 174.078125 103.144531 174.40625 103.144531 C 175.109375 103.144531 175.46875 103.691406 175.46875 104.253906 C 175.46875 104.863281 175.03125 105.332031 174.8125 105.582031 L 173.140625 107.253906 C 173.0625 107.316406 173.0625 107.332031 173.0625 107.519531 L 175.9375 107.519531 Z M 176.140625 106.253906 "/>
<path style="fill:none;stroke-width:0.79701;stroke-linecap:butt;stroke-linejoin:miter;stroke:rgb(100%,38.822937%,38.822937%);stroke-opacity:1;stroke-miterlimit:10;" d="M 145.066406 -119.863281 L 159.808594 -119.863281 M 189.289062 -126.3125 L 159.808594 -126.3125 L 159.808594 -113.414062 L 189.289062 -113.414062 " transform="matrix(1,0,0,-1,0,0)"/>
<path style=" stroke:none;fill-rule:nonzero;fill:rgb(100%,96.076965%,39.99939%);fill-opacity:1;" d="M 224.296875 119.902344 C 224.296875 111.761719 217.695312 105.164062 209.554688 105.164062 C 201.414062 105.164062 194.816406 111.761719 194.816406 119.902344 C 194.816406 128.042969 201.414062 134.644531 209.554688 134.644531 C 217.695312 134.644531 224.296875 128.042969 224.296875 119.902344 Z M 224.296875 119.902344 "/>
<g clip-path="url(#clip3)" clip-rule="nonzero">
<path style="fill:none;stroke-width:0.79701;stroke-linecap:butt;stroke-linejoin:miter;stroke:rgb(100%,49.803162%,0%);stroke-opacity:1;stroke-miterlimit:10;" d="M 224.296875 -119.902344 C 224.296875 -111.761719 217.695312 -105.164062 209.554688 -105.164062 C 201.414062 -105.164062 194.816406 -111.761719 194.816406 -119.902344 C 194.816406 -128.042969 201.414062 -134.644531 209.554688 -134.644531 C 217.695312 -134.644531 224.296875 -128.042969 224.296875 -119.902344 Z M 224.296875 -119.902344 " transform="matrix(1,0,0,-1,0,0)"/>
</g>
<path style=" stroke:none;fill-rule:nonzero;fill:rgb(100%,49.803162%,0%);fill-opacity:1;" d="M 203.824219 120.707031 C 203.792969 120.863281 203.730469 121.097656 203.730469 121.144531 C 203.730469 121.316406 203.871094 121.410156 204.027344 121.410156 C 204.152344 121.410156 204.324219 121.332031 204.402344 121.128906 C 204.402344 121.113281 204.527344 120.644531 204.589844 120.394531 L 204.808594 119.503906 C 204.855469 119.269531 204.917969 119.050781 204.980469 118.832031 C 205.011719 118.660156 205.089844 118.363281 205.105469 118.332031 C 205.246094 118.019531 205.777344 117.113281 206.730469 117.113281 C 207.183594 117.113281 207.261719 117.488281 207.261719 117.816406 C 207.261719 118.066406 207.199219 118.347656 207.121094 118.644531 L 206.839844 119.800781 L 206.636719 120.550781 C 206.605469 120.753906 206.511719 121.097656 206.511719 121.144531 C 206.511719 121.316406 206.652344 121.410156 206.792969 121.410156 C 207.105469 121.410156 207.167969 121.160156 207.246094 120.847656 C 207.386719 120.285156 207.761719 118.832031 207.839844 118.441406 C 207.871094 118.316406 208.402344 117.113281 209.496094 117.113281 C 209.917969 117.113281 210.027344 117.457031 210.027344 117.816406 C 210.027344 118.378906 209.605469 119.519531 209.402344 120.050781 C 209.324219 120.285156 209.277344 120.394531 209.277344 120.597656 C 209.277344 121.066406 209.621094 121.410156 210.089844 121.410156 C 211.027344 121.410156 211.402344 119.957031 211.402344 119.878906 C 211.402344 119.769531 211.308594 119.769531 211.277344 119.769531 C 211.183594 119.769531 211.183594 119.800781 211.136719 119.957031 C 210.980469 120.488281 210.667969 121.191406 210.121094 121.191406 C 209.949219 121.191406 209.871094 121.097656 209.871094 120.863281 C 209.871094 120.613281 209.964844 120.378906 210.058594 120.160156 C 210.246094 119.628906 210.667969 118.535156 210.667969 117.957031 C 210.667969 117.316406 210.261719 116.894531 209.511719 116.894531 C 208.777344 116.894531 208.261719 117.332031 207.886719 117.863281 C 207.886719 117.738281 207.855469 117.394531 207.574219 117.160156 C 207.324219 116.941406 207.011719 116.894531 206.761719 116.894531 C 205.855469 116.894531 205.371094 117.535156 205.199219 117.769531 C 205.152344 117.191406 204.730469 116.894531 204.277344 116.894531 C 203.824219 116.894531 203.636719 117.285156 203.542969 117.457031 C 203.371094 117.816406 203.246094 118.394531 203.246094 118.425781 C 203.246094 118.535156 203.339844 118.535156 203.355469 118.535156 C 203.464844 118.535156 203.464844 118.519531 203.527344 118.300781 C 203.699219 117.597656 203.902344 117.113281 204.261719 117.113281 C 204.417969 117.113281 204.558594 117.191406 204.558594 117.566406 C 204.558594 117.785156 204.527344 117.894531 204.402344 118.410156 Z M 203.824219 120.707031 "/>
<path style=" stroke:none;fill-rule:nonzero;fill:rgb(100%,49.803162%,0%);fill-opacity:1;" d="M 215.210938 121.53125 L 214.976562 121.53125 C 214.960938 121.6875 214.882812 122.09375 214.789062 122.15625 C 214.742188 122.203125 214.210938 122.203125 214.101562 122.203125 L 212.820312 122.203125 C 213.554688 121.5625 213.804688 121.359375 214.210938 121.03125 C 214.726562 120.625 215.210938 120.1875 215.210938 119.53125 C 215.210938 118.6875 214.476562 118.171875 213.585938 118.171875 C 212.726562 118.171875 212.132812 118.78125 212.132812 119.421875 C 212.132812 119.765625 212.429688 119.8125 212.507812 119.8125 C 212.664062 119.8125 212.867188 119.6875 212.867188 119.4375 C 212.867188 119.3125 212.820312 119.0625 212.460938 119.0625 C 212.679688 118.578125 213.148438 118.421875 213.476562 118.421875 C 214.179688 118.421875 214.539062 118.96875 214.539062 119.53125 C 214.539062 120.140625 214.101562 120.609375 213.882812 120.859375 L 212.210938 122.53125 C 212.132812 122.59375 212.132812 122.609375 212.132812 122.796875 L 215.007812 122.796875 Z M 215.210938 121.53125 "/>
<path style="fill:none;stroke-width:0.79701;stroke-linecap:butt;stroke-linejoin:miter;stroke:rgb(0%,0%,0%);stroke-opacity:1;stroke-miterlimit:10;" d="M 145.066406 -8.203125 L 145.066406 -137.183594 " transform="matrix(1,0,0,-1,0,0)"/>
<path style="fill:none;stroke-width:0.79701;stroke-linecap:butt;stroke-linejoin:miter;stroke:rgb(0%,0%,0%);stroke-opacity:1;stroke-miterlimit:10;" d="M 167.179688 -8.203125 L 122.957031 -8.203125 " transform="matrix(1,0,0,-1,0,0)"/>
<g clip-path="url(#clip4)" clip-rule="nonzero">
<path style="fill:none;stroke-width:0.79701;stroke-linecap:butt;stroke-linejoin:miter;stroke:rgb(0%,0%,0%);stroke-opacity:1;stroke-miterlimit:10;" d="M 167.179688 -8.203125 L 163.167969 -4.195312 M 162.925781 -8.203125 L 158.917969 -4.195312 M 158.675781 -8.203125 L 154.664062 -4.195312 M 154.421875 -8.203125 L 150.414062 -4.195312 M 150.171875 -8.203125 L 146.160156 -4.195312 M 145.917969 -8.203125 L 141.910156 -4.195312 M 141.664062 -8.203125 L 137.65625 -4.195312 M 137.414062 -8.203125 L 133.40625 -4.195312 M 133.160156 -8.203125 L 129.152344 -4.195312 M 128.910156 -8.203125 L 124.902344 -4.195312 " transform="matrix(1,0,0,-1,0,0)"/>
</g>
<path style="fill:none;stroke-width:0.3985;stroke-linecap:butt;stroke-linejoin:miter;stroke:rgb(29.019165%,70.979309%,29.019165%);stroke-opacity:0.25;stroke-dasharray:2.98883,1.99255;stroke-miterlimit:10;" d="M 37.492188 -6.296875 L 61.585938 -6.296875 L 61.585938 -48.03125 L 37.492188 -48.03125 Z M 37.492188 -6.296875 " transform="matrix(1,0,0,-1,0,0)"/>
<path style="fill:none;stroke-width:0.3985;stroke-linecap:butt;stroke-linejoin:miter;stroke:rgb(29.019165%,70.979309%,29.019165%);stroke-opacity:0.25;stroke-miterlimit:10;" d="M 61.585938 -48.03125 L 39.285156 -9.40625 " transform="matrix(1,0,0,-1,0,0)"/>
<path style=" stroke:none;fill-rule:nonzero;fill:rgb(29.019165%,70.979309%,29.019165%);fill-opacity:0.25;" d="M 37.492188 6.300781 C 37.851562 7.320312 38.195312 9.113281 38.191406 10.496094 L 40.777344 9.003906 C 39.578125 8.316406 38.195312 7.121094 37.492188 6.300781 "/>
<path style="fill:none;stroke-width:0.79701;stroke-linecap:butt;stroke-linejoin:miter;stroke:rgb(29.019165%,70.979309%,29.019165%);stroke-opacity:1;stroke-miterlimit:10;" d="M 61.585938 -48.03125 L 42.15625 -48.03125 " transform="matrix(1,0,0,-1,0,0)"/>
<path style=" stroke:none;fill-rule:nonzero;fill:rgb(29.019165%,70.979309%,29.019165%);fill-opacity:1;" d="M 37.492188 48.03125 C 38.875 48.292969 41.117188 49.066406 42.671875 49.976562 L 42.671875 46.089844 C 41.117188 46.996094 38.875 47.773438 37.492188 48.03125 "/>
<path style=" stroke:none;fill-rule:nonzero;fill:rgb(29.019165%,70.979309%,29.019165%);fill-opacity:1;" d="M 10.308594 38.15625 C 10.386719 37.875 10.417969 37.8125 10.542969 37.78125 C 10.636719 37.765625 10.964844 37.765625 11.167969 37.765625 C 12.183594 37.765625 12.621094 37.796875 12.621094 38.578125 C 12.621094 38.734375 12.589844 39.125 12.542969 39.375 C 12.542969 39.421875 12.511719 39.53125 12.511719 39.5625 C 12.511719 39.625 12.542969 39.703125 12.636719 39.703125 C 12.746094 39.703125 12.761719 39.625 12.792969 39.46875 L 13.058594 37.734375 C 13.074219 37.6875 13.074219 37.59375 13.074219 37.5625 C 13.074219 37.453125 12.980469 37.453125 12.808594 37.453125 L 7.277344 37.453125 C 7.042969 37.453125 7.027344 37.46875 6.949219 37.65625 L 6.355469 39.40625 C 6.355469 39.421875 6.292969 39.5625 6.292969 39.59375 C 6.292969 39.640625 6.355469 39.703125 6.417969 39.703125 C 6.511719 39.703125 6.527344 39.640625 6.589844 39.484375 C 7.121094 37.9375 7.386719 37.765625 8.855469 37.765625 L 9.246094 37.765625 C 9.527344 37.765625 9.527344 37.796875 9.527344 37.890625 C 9.527344 37.9375 9.496094 38.0625 9.480469 38.09375 L 8.152344 43.421875 C 8.058594 43.78125 8.027344 43.890625 6.964844 43.890625 C 6.605469 43.890625 6.542969 43.890625 6.542969 44.078125 C 6.542969 44.203125 6.652344 44.203125 6.714844 44.203125 C 6.980469 44.203125 7.261719 44.1875 7.527344 44.1875 C 7.808594 44.1875 8.105469 44.171875 8.386719 44.171875 C 8.667969 44.171875 8.933594 44.1875 9.214844 44.1875 C 9.496094 44.1875 9.792969 44.203125 10.074219 44.203125 C 10.167969 44.203125 10.292969 44.203125 10.292969 44 C 10.292969 43.890625 10.214844 43.890625 9.949219 43.890625 C 9.714844 43.890625 9.574219 43.890625 9.324219 43.875 C 9.027344 43.84375 8.949219 43.8125 8.949219 43.65625 C 8.949219 43.640625 8.949219 43.59375 8.996094 43.453125 Z M 10.308594 38.15625 "/>
<path style=" stroke:none;fill-rule:nonzero;fill:rgb(29.019165%,70.979309%,29.019165%);fill-opacity:1;" d="M 18.519531 42.921875 C 18.519531 42.40625 18.222656 42.09375 18.097656 41.984375 C 17.769531 41.65625 17.378906 41.578125 16.957031 41.5 C 16.394531 41.390625 15.738281 41.265625 15.738281 40.6875 C 15.738281 40.328125 15.988281 39.921875 16.847656 39.921875 C 17.941406 39.921875 18.003906 40.828125 18.019531 41.125 C 18.019531 41.21875 18.128906 41.21875 18.128906 41.21875 C 18.269531 41.21875 18.269531 41.171875 18.269531 40.984375 L 18.269531 39.96875 C 18.269531 39.8125 18.269531 39.734375 18.160156 39.734375 C 18.113281 39.734375 18.082031 39.734375 17.957031 39.859375 C 17.925781 39.890625 17.832031 39.984375 17.785156 40.015625 C 17.410156 39.734375 17.003906 39.734375 16.847656 39.734375 C 15.628906 39.734375 15.253906 40.40625 15.253906 40.96875 C 15.253906 41.3125 15.410156 41.59375 15.675781 41.8125 C 16.003906 42.0625 16.285156 42.125 17.003906 42.265625 C 17.222656 42.3125 18.035156 42.46875 18.035156 43.1875 C 18.035156 43.6875 17.691406 44.09375 16.910156 44.09375 C 16.066406 44.09375 15.707031 43.53125 15.519531 42.671875 C 15.488281 42.546875 15.488281 42.515625 15.378906 42.515625 C 15.253906 42.515625 15.253906 42.578125 15.253906 42.75 L 15.253906 44.078125 C 15.253906 44.25 15.253906 44.3125 15.363281 44.3125 C 15.410156 44.3125 15.425781 44.296875 15.613281 44.109375 C 15.628906 44.09375 15.628906 44.078125 15.816406 43.890625 C 16.253906 44.296875 16.707031 44.3125 16.910156 44.3125 C 18.050781 44.3125 18.519531 43.640625 18.519531 42.921875 Z M 18.519531 42.921875 "/>
<path style=" stroke:none;fill-rule:nonzero;fill:rgb(29.019165%,70.979309%,29.019165%);fill-opacity:1;" d="M 21.316406 44.203125 L 21.316406 43.890625 C 20.644531 43.890625 20.613281 43.84375 20.613281 43.453125 L 20.613281 39.796875 L 19.222656 39.90625 L 19.222656 40.21875 C 19.863281 40.21875 19.957031 40.28125 19.957031 40.765625 L 19.957031 43.453125 C 19.957031 43.890625 19.847656 43.890625 19.175781 43.890625 L 19.175781 44.203125 L 20.269531 44.171875 C 20.628906 44.171875 20.972656 44.1875 21.316406 44.203125 Z M 20.753906 38.1875 C 20.753906 37.90625 20.535156 37.65625 20.238281 37.65625 C 19.894531 37.65625 19.691406 37.9375 19.691406 38.1875 C 19.691406 38.453125 19.925781 38.703125 20.222656 38.703125 C 20.566406 38.703125 20.753906 38.4375 20.753906 38.1875 Z M 20.753906 38.1875 "/>
<path style=" stroke:none;fill-rule:nonzero;fill:rgb(29.019165%,70.979309%,29.019165%);fill-opacity:1;" d="M 26.945312 44.203125 L 26.945312 43.890625 C 26.429688 43.890625 26.179688 43.890625 26.179688 43.59375 L 26.179688 41.6875 C 26.179688 40.828125 26.179688 40.53125 25.867188 40.171875 C 25.726562 40 25.398438 39.796875 24.820312 39.796875 C 24.085938 39.796875 23.617188 40.21875 23.335938 40.84375 L 23.335938 39.796875 L 21.929688 39.90625 L 21.929688 40.21875 C 22.632812 40.21875 22.710938 40.28125 22.710938 40.78125 L 22.710938 43.453125 C 22.710938 43.890625 22.601562 43.890625 21.929688 43.890625 L 21.929688 44.203125 L 23.070312 44.171875 L 24.179688 44.203125 L 24.179688 43.890625 C 23.507812 43.890625 23.398438 43.890625 23.398438 43.453125 L 23.398438 41.609375 C 23.398438 40.578125 24.117188 40.015625 24.742188 40.015625 C 25.382812 40.015625 25.492188 40.546875 25.492188 41.125 L 25.492188 43.453125 C 25.492188 43.890625 25.382812 43.890625 24.710938 43.890625 L 24.710938 44.203125 L 25.835938 44.171875 Z M 26.945312 44.203125 "/>
<path style=" stroke:none;fill-rule:nonzero;fill:rgb(29.019165%,70.979309%,29.019165%);fill-opacity:1;" d="M 33.347656 39.21875 C 33.347656 38.5625 33.175781 37.171875 32.160156 37.171875 C 30.769531 37.171875 29.238281 39.984375 29.238281 42.265625 C 29.238281 43.203125 29.519531 44.3125 30.425781 44.3125 C 31.832031 44.3125 33.347656 41.453125 33.347656 39.21875 Z M 30.285156 40.578125 C 30.457031 39.953125 30.660156 39.15625 31.066406 38.4375 C 31.332031 37.953125 31.691406 37.390625 32.144531 37.390625 C 32.628906 37.390625 32.691406 38.03125 32.691406 38.59375 C 32.691406 39.09375 32.613281 39.59375 32.378906 40.578125 Z M 32.285156 40.90625 C 32.175781 41.359375 31.972656 42.203125 31.582031 42.921875 C 31.238281 43.609375 30.863281 44.09375 30.425781 44.09375 C 30.097656 44.09375 29.894531 43.796875 29.894531 42.875 C 29.894531 42.453125 29.957031 41.875 30.207031 40.90625 Z M 32.285156 40.90625 "/>
<path style="fill:none;stroke-width:0.79701;stroke-linecap:butt;stroke-linejoin:miter;stroke:rgb(29.019165%,70.979309%,29.019165%);stroke-opacity:1;stroke-miterlimit:10;" d="M 61.585938 -48.03125 L 61.585938 -10.175781 " transform="matrix(1,0,0,-1,0,0)"/>
<path style=" stroke:none;fill-rule:nonzero;fill:rgb(29.019165%,70.979309%,29.019165%);fill-opacity:1;" d="M 61.585938 5.511719 C 61.328125 6.894531 60.550781 9.136719 59.644531 10.691406 L 63.53125 10.691406 C 62.625 9.136719 61.847656 6.894531 61.585938 5.511719 "/>
<path style=" stroke:none;fill-rule:nonzero;fill:rgb(29.019165%,70.979309%,29.019165%);fill-opacity:1;" d="M 69.554688 24.128906 C 69.632812 23.847656 69.664062 23.785156 69.789062 23.753906 C 69.882812 23.738281 70.210938 23.738281 70.414062 23.738281 C 71.429688 23.738281 71.867188 23.769531 71.867188 24.550781 C 71.867188 24.707031 71.835938 25.097656 71.789062 25.347656 C 71.789062 25.394531 71.757812 25.503906 71.757812 25.535156 C 71.757812 25.597656 71.789062 25.675781 71.882812 25.675781 C 71.992188 25.675781 72.007812 25.597656 72.039062 25.441406 L 72.304688 23.707031 C 72.320312 23.660156 72.320312 23.566406 72.320312 23.535156 C 72.320312 23.425781 72.226562 23.425781 72.054688 23.425781 L 66.523438 23.425781 C 66.289062 23.425781 66.273438 23.441406 66.195312 23.628906 L 65.601562 25.378906 C 65.601562 25.394531 65.539062 25.535156 65.539062 25.566406 C 65.539062 25.613281 65.601562 25.675781 65.664062 25.675781 C 65.757812 25.675781 65.773438 25.613281 65.835938 25.457031 C 66.367188 23.910156 66.632812 23.738281 68.101562 23.738281 L 68.492188 23.738281 C 68.773438 23.738281 68.773438 23.769531 68.773438 23.863281 C 68.773438 23.910156 68.742188 24.035156 68.726562 24.066406 L 67.398438 29.394531 C 67.304688 29.753906 67.273438 29.863281 66.210938 29.863281 C 65.851562 29.863281 65.789062 29.863281 65.789062 30.050781 C 65.789062 30.175781 65.898438 30.175781 65.960938 30.175781 C 66.226562 30.175781 66.507812 30.160156 66.773438 30.160156 C 67.054688 30.160156 67.351562 30.144531 67.632812 30.144531 C 67.914062 30.144531 68.179688 30.160156 68.460938 30.160156 C 68.742188 30.160156 69.039062 30.175781 69.320312 30.175781 C 69.414062 30.175781 69.539062 30.175781 69.539062 29.972656 C 69.539062 29.863281 69.460938 29.863281 69.195312 29.863281 C 68.960938 29.863281 68.820312 29.863281 68.570312 29.847656 C 68.273438 29.816406 68.195312 29.785156 68.195312 29.628906 C 68.195312 29.613281 68.195312 29.566406 68.242188 29.425781 Z M 69.554688 24.128906 "/>
<path style=" stroke:none;fill-rule:nonzero;fill:rgb(29.019165%,70.979309%,29.019165%);fill-opacity:1;" d="M 78.3125 28.988281 C 78.3125 28.894531 78.203125 28.894531 78.171875 28.894531 C 78.09375 28.894531 78.0625 28.925781 78.046875 28.988281 C 77.765625 29.910156 77.109375 30.035156 76.75 30.035156 C 76.21875 30.035156 75.34375 29.613281 75.34375 28.003906 C 75.34375 26.378906 76.15625 25.957031 76.6875 25.957031 C 76.78125 25.957031 77.40625 25.972656 77.75 26.332031 C 77.34375 26.363281 77.28125 26.660156 77.28125 26.785156 C 77.28125 27.050781 77.46875 27.238281 77.734375 27.238281 C 78 27.238281 78.203125 27.082031 78.203125 26.769531 C 78.203125 26.097656 77.4375 25.707031 76.671875 25.707031 C 75.421875 25.707031 74.515625 26.785156 74.515625 28.019531 C 74.515625 29.300781 75.5 30.285156 76.65625 30.285156 C 77.984375 30.285156 78.3125 29.082031 78.3125 28.988281 Z M 78.3125 28.988281 "/>
<path style=" stroke:none;fill-rule:nonzero;fill:rgb(29.019165%,70.979309%,29.019165%);fill-opacity:1;" d="M 83.28125 28.035156 C 83.28125 26.769531 82.296875 25.707031 81.09375 25.707031 C 79.84375 25.707031 78.875 26.800781 78.875 28.035156 C 78.875 29.332031 79.90625 30.285156 81.078125 30.285156 C 82.28125 30.285156 83.28125 29.300781 83.28125 28.035156 Z M 82.46875 27.957031 C 82.46875 28.316406 82.46875 28.863281 82.25 29.300781 C 82.015625 29.753906 81.578125 30.035156 81.09375 30.035156 C 80.65625 30.035156 80.21875 29.832031 79.953125 29.363281 C 79.703125 28.925781 79.703125 28.316406 79.703125 27.957031 C 79.703125 27.566406 79.703125 27.035156 79.9375 26.597656 C 80.203125 26.144531 80.671875 25.925781 81.078125 25.925781 C 81.515625 25.925781 81.9375 26.144531 82.203125 26.582031 C 82.46875 27.003906 82.46875 27.582031 82.46875 27.957031 Z M 82.46875 27.957031 "/>
<path style=" stroke:none;fill-rule:nonzero;fill:rgb(29.019165%,70.979309%,29.019165%);fill-opacity:1;" d="M 87.171875 28.894531 C 87.171875 28.378906 86.875 28.066406 86.75 27.957031 C 86.421875 27.628906 86.03125 27.550781 85.609375 27.472656 C 85.046875 27.363281 84.390625 27.238281 84.390625 26.660156 C 84.390625 26.300781 84.640625 25.894531 85.5 25.894531 C 86.59375 25.894531 86.65625 26.800781 86.671875 27.097656 C 86.671875 27.191406 86.78125 27.191406 86.78125 27.191406 C 86.921875 27.191406 86.921875 27.144531 86.921875 26.957031 L 86.921875 25.941406 C 86.921875 25.785156 86.921875 25.707031 86.8125 25.707031 C 86.765625 25.707031 86.734375 25.707031 86.609375 25.832031 C 86.578125 25.863281 86.484375 25.957031 86.4375 25.988281 C 86.0625 25.707031 85.65625 25.707031 85.5 25.707031 C 84.28125 25.707031 83.90625 26.378906 83.90625 26.941406 C 83.90625 27.285156 84.0625 27.566406 84.328125 27.785156 C 84.65625 28.035156 84.9375 28.097656 85.65625 28.238281 C 85.875 28.285156 86.6875 28.441406 86.6875 29.160156 C 86.6875 29.660156 86.34375 30.066406 85.5625 30.066406 C 84.71875 30.066406 84.359375 29.503906 84.171875 28.644531 C 84.140625 28.519531 84.140625 28.488281 84.03125 28.488281 C 83.90625 28.488281 83.90625 28.550781 83.90625 28.722656 L 83.90625 30.050781 C 83.90625 30.222656 83.90625 30.285156 84.015625 30.285156 C 84.0625 30.285156 84.078125 30.269531 84.265625 30.082031 C 84.28125 30.066406 84.28125 30.050781 84.46875 29.863281 C 84.90625 30.269531 85.359375 30.285156 85.5625 30.285156 C 86.703125 30.285156 87.171875 29.613281 87.171875 28.894531 Z M 87.171875 28.894531 "/>
<path style=" stroke:none;fill-rule:nonzero;fill:rgb(29.019165%,70.979309%,29.019165%);fill-opacity:1;" d="M 93.691406 25.191406 C 93.691406 24.535156 93.519531 23.144531 92.503906 23.144531 C 91.113281 23.144531 89.582031 25.957031 89.582031 28.238281 C 89.582031 29.175781 89.863281 30.285156 90.769531 30.285156 C 92.175781 30.285156 93.691406 27.425781 93.691406 25.191406 Z M 90.628906 26.550781 C 90.800781 25.925781 91.003906 25.128906 91.410156 24.410156 C 91.675781 23.925781 92.035156 23.363281 92.488281 23.363281 C 92.972656 23.363281 93.035156 24.003906 93.035156 24.566406 C 93.035156 25.066406 92.957031 25.566406 92.722656 26.550781 Z M 92.628906 26.878906 C 92.519531 27.332031 92.316406 28.175781 91.925781 28.894531 C 91.582031 29.582031 91.207031 30.066406 90.769531 30.066406 C 90.441406 30.066406 90.238281 29.769531 90.238281 28.847656 C 90.238281 28.425781 90.300781 27.847656 90.550781 26.878906 Z M 92.628906 26.878906 "/>
<path style="fill:none;stroke-width:0.3985;stroke-linecap:butt;stroke-linejoin:miter;stroke:rgb(0%,67.0578%,93.331909%);stroke-opacity:0.25;stroke-dasharray:0.3985,0.99628;stroke-miterlimit:10;" d="M 12.488281 -76.09375 L 61.585938 -76.09375 L 61.585938 -104.441406 L 12.488281 -104.441406 Z M 12.488281 -76.09375 " transform="matrix(1,0,0,-1,0,0)"/>
<path style="fill:none;stroke-width:0.3985;stroke-linecap:butt;stroke-linejoin:miter;stroke:rgb(0%,67.0578%,93.331909%);stroke-opacity:0.25;stroke-dasharray:2.98883,1.99255;stroke-miterlimit:10;" d="M 61.585938 -76.09375 L 15.59375 -102.648438 " transform="matrix(1,0,0,-1,0,0)"/>
<path style=" stroke:none;fill-rule:nonzero;fill:rgb(0%,67.0578%,93.331909%);fill-opacity:0.25;" d="M 12.488281 104.441406 C 13.507812 104.082031 15.304688 103.734375 16.6875 103.742188 L 15.191406 101.152344 C 14.507812 102.355469 13.308594 103.738281 12.488281 104.441406 "/>
<path style="fill:none;stroke-width:0.79701;stroke-linecap:butt;stroke-linejoin:miter;stroke:rgb(0%,67.0578%,93.331909%);stroke-opacity:1;stroke-dasharray:2.98883,1.99255;stroke-miterlimit:10;" d="M 61.585938 -76.09375 L 16.640625 -76.09375 " transform="matrix(1,0,0,-1,0,0)"/>
<path style=" stroke:none;fill-rule:nonzero;fill:rgb(0%,67.0578%,93.331909%);fill-opacity:1;" d="M 11.980469 76.09375 C 13.363281 76.351562 15.605469 77.128906 17.160156 78.035156 L 17.160156 74.152344 C 15.605469 75.058594 13.363281 75.835938 11.980469 76.09375 "/>
<path style=" stroke:none;fill-rule:nonzero;fill:rgb(0%,67.0578%,93.331909%);fill-opacity:1;" d="M 5.734375 72.277344 C 5.703125 72.433594 5.640625 72.667969 5.640625 72.714844 C 5.640625 72.886719 5.78125 72.980469 5.9375 72.980469 C 6.0625 72.980469 6.234375 72.902344 6.3125 72.699219 C 6.3125 72.683594 6.4375 72.214844 6.5 71.964844 L 6.71875 71.074219 C 6.765625 70.839844 6.828125 70.621094 6.890625 70.402344 C 6.921875 70.230469 7 69.933594 7.015625 69.902344 C 7.15625 69.589844 7.6875 68.683594 8.640625 68.683594 C 9.09375 68.683594 9.171875 69.058594 9.171875 69.386719 C 9.171875 69.636719 9.109375 69.917969 9.03125 70.214844 L 8.75 71.371094 L 8.546875 72.121094 C 8.515625 72.324219 8.421875 72.667969 8.421875 72.714844 C 8.421875 72.886719 8.5625 72.980469 8.703125 72.980469 C 9.015625 72.980469 9.078125 72.730469 9.15625 72.417969 C 9.296875 71.855469 9.671875 70.402344 9.75 70.011719 C 9.78125 69.886719 10.3125 68.683594 11.40625 68.683594 C 11.828125 68.683594 11.9375 69.027344 11.9375 69.386719 C 11.9375 69.949219 11.515625 71.089844 11.3125 71.621094 C 11.234375 71.855469 11.1875 71.964844 11.1875 72.167969 C 11.1875 72.636719 11.53125 72.980469 12 72.980469 C 12.9375 72.980469 13.3125 71.527344 13.3125 71.449219 C 13.3125 71.339844 13.21875 71.339844 13.1875 71.339844 C 13.09375 71.339844 13.09375 71.371094 13.046875 71.527344 C 12.890625 72.058594 12.578125 72.761719 12.03125 72.761719 C 11.859375 72.761719 11.78125 72.667969 11.78125 72.433594 C 11.78125 72.183594 11.875 71.949219 11.96875 71.730469 C 12.15625 71.199219 12.578125 70.105469 12.578125 69.527344 C 12.578125 68.886719 12.171875 68.464844 11.421875 68.464844 C 10.6875 68.464844 10.171875 68.902344 9.796875 69.433594 C 9.796875 69.308594 9.765625 68.964844 9.484375 68.730469 C 9.234375 68.511719 8.921875 68.464844 8.671875 68.464844 C 7.765625 68.464844 7.28125 69.105469 7.109375 69.339844 C 7.0625 68.761719 6.640625 68.464844 6.1875 68.464844 C 5.734375 68.464844 5.546875 68.855469 5.453125 69.027344 C 5.28125 69.386719 5.15625 69.964844 5.15625 69.996094 C 5.15625 70.105469 5.25 70.105469 5.265625 70.105469 C 5.375 70.105469 5.375 70.089844 5.4375 69.871094 C 5.609375 69.167969 5.8125 68.683594 6.171875 68.683594 C 6.328125 68.683594 6.46875 68.761719 6.46875 69.136719 C 6.46875 69.355469 6.4375 69.464844 6.3125 69.980469 Z M 5.734375 72.277344 "/>
<path style=" stroke:none;fill-rule:nonzero;fill:rgb(0%,67.0578%,93.331909%);fill-opacity:1;" d="M 17.121094 73.101562 L 16.886719 73.101562 C 16.871094 73.257812 16.792969 73.664062 16.699219 73.726562 C 16.652344 73.773438 16.121094 73.773438 16.011719 73.773438 L 14.730469 73.773438 C 15.464844 73.132812 15.714844 72.929688 16.121094 72.601562 C 16.636719 72.195312 17.121094 71.757812 17.121094 71.101562 C 17.121094 70.257812 16.386719 69.742188 15.496094 69.742188 C 14.636719 69.742188 14.042969 70.351562 14.042969 70.992188 C 14.042969 71.335938 14.339844 71.382812 14.417969 71.382812 C 14.574219 71.382812 14.777344 71.257812 14.777344 71.007812 C 14.777344 70.882812 14.730469 70.632812 14.371094 70.632812 C 14.589844 70.148438 15.058594 69.992188 15.386719 69.992188 C 16.089844 69.992188 16.449219 70.539062 16.449219 71.101562 C 16.449219 71.710938 16.011719 72.179688 15.792969 72.429688 L 14.121094 74.101562 C 14.042969 74.164062 14.042969 74.179688 14.042969 74.367188 L 16.917969 74.367188 Z M 17.121094 73.101562 "/>
<path style=" stroke:none;fill-rule:nonzero;fill:rgb(0%,67.0578%,93.331909%);fill-opacity:1;" d="M 18.230469 71.886719 C 18.214844 71.917969 18.183594 71.949219 18.183594 71.980469 C 18.183594 72.027344 18.246094 72.121094 18.308594 72.121094 C 18.355469 72.121094 18.386719 72.089844 18.667969 71.808594 C 18.746094 71.730469 18.949219 71.542969 19.027344 71.464844 C 19.121094 72.246094 19.402344 72.996094 20.136719 72.996094 C 20.542969 72.996094 20.886719 72.761719 21.089844 72.605469 C 21.230469 72.511719 21.699219 72.121094 21.699219 72.027344 C 21.699219 71.996094 21.667969 71.902344 21.589844 71.902344 C 21.558594 71.902344 21.542969 71.917969 21.449219 71.996094 C 20.808594 72.621094 20.449219 72.777344 20.152344 72.777344 C 19.714844 72.777344 19.542969 72.246094 19.542969 71.480469 C 19.542969 71.417969 19.574219 70.964844 19.605469 70.902344 C 19.621094 70.871094 19.621094 70.855469 19.824219 70.652344 C 20.621094 69.855469 22.042969 68.167969 22.042969 66.621094 C 22.042969 66.449219 22.042969 65.839844 21.449219 65.839844 C 20.621094 65.839844 19.886719 67.480469 19.792969 67.714844 C 19.308594 68.808594 18.996094 69.964844 18.996094 71.152344 Z M 19.652344 70.496094 C 19.667969 70.371094 20.105469 68.167969 20.667969 66.996094 C 20.933594 66.464844 21.152344 66.058594 21.464844 66.058594 C 21.808594 66.058594 21.808594 66.417969 21.808594 66.574219 C 21.808594 68.246094 20.121094 69.996094 19.652344 70.496094 Z M 19.652344 70.496094 "/>
<path style=" stroke:none;fill-rule:nonzero;fill:rgb(0%,67.0578%,93.331909%);fill-opacity:1;" d="M 25.074219 64.070312 C 25.074219 63.835938 24.871094 63.570312 24.574219 63.570312 C 24.292969 63.570312 24.074219 63.789062 24.074219 64.070312 C 24.074219 64.351562 24.292969 64.570312 24.574219 64.570312 C 24.871094 64.570312 25.074219 64.304688 25.074219 64.070312 Z M 26.996094 64.070312 C 26.996094 63.789062 26.777344 63.570312 26.496094 63.570312 C 26.199219 63.570312 25.996094 63.835938 25.996094 64.070312 C 25.996094 64.304688 26.199219 64.570312 26.496094 64.570312 C 26.777344 64.570312 26.996094 64.351562 26.996094 64.070312 Z M 26.996094 64.070312 "/>
<path style=" stroke:none;fill-rule:nonzero;fill:rgb(0%,67.0578%,93.331909%);fill-opacity:1;" d="M 26.757812 67.886719 C 26.757812 67.230469 26.585938 65.839844 25.570312 65.839844 C 24.179688 65.839844 22.648438 68.652344 22.648438 70.933594 C 22.648438 71.871094 22.929688 72.980469 23.835938 72.980469 C 25.242188 72.980469 26.757812 70.121094 26.757812 67.886719 Z M 23.695312 69.246094 C 23.867188 68.621094 24.070312 67.824219 24.476562 67.105469 C 24.742188 66.621094 25.101562 66.058594 25.554688 66.058594 C 26.039062 66.058594 26.101562 66.699219 26.101562 67.261719 C 26.101562 67.761719 26.023438 68.261719 25.789062 69.246094 Z M 25.695312 69.574219 C 25.585938 70.027344 25.382812 70.871094 24.992188 71.589844 C 24.648438 72.277344 24.273438 72.761719 23.835938 72.761719 C 23.507812 72.761719 23.304688 72.464844 23.304688 71.542969 C 23.304688 71.121094 23.367188 70.542969 23.617188 69.574219 Z M 25.695312 69.574219 "/>
<path style=" stroke:none;fill-rule:nonzero;fill:rgb(0%,67.0578%,93.331909%);fill-opacity:1;" d="M 32.980469 71.683594 C 32.980469 71.589844 32.871094 71.589844 32.839844 71.589844 C 32.761719 71.589844 32.730469 71.621094 32.714844 71.683594 C 32.433594 72.605469 31.777344 72.730469 31.417969 72.730469 C 30.886719 72.730469 30.011719 72.308594 30.011719 70.699219 C 30.011719 69.074219 30.824219 68.652344 31.355469 68.652344 C 31.449219 68.652344 32.074219 68.667969 32.417969 69.027344 C 32.011719 69.058594 31.949219 69.355469 31.949219 69.480469 C 31.949219 69.746094 32.136719 69.933594 32.402344 69.933594 C 32.667969 69.933594 32.871094 69.777344 32.871094 69.464844 C 32.871094 68.792969 32.105469 68.402344 31.339844 68.402344 C 30.089844 68.402344 29.183594 69.480469 29.183594 70.714844 C 29.183594 71.996094 30.167969 72.980469 31.324219 72.980469 C 32.652344 72.980469 32.980469 71.777344 32.980469 71.683594 Z M 32.980469 71.683594 "/>
<path style=" stroke:none;fill-rule:nonzero;fill:rgb(0%,67.0578%,93.331909%);fill-opacity:1;" d="M 37.949219 70.730469 C 37.949219 69.464844 36.964844 68.402344 35.761719 68.402344 C 34.511719 68.402344 33.542969 69.496094 33.542969 70.730469 C 33.542969 72.027344 34.574219 72.980469 35.746094 72.980469 C 36.949219 72.980469 37.949219 71.996094 37.949219 70.730469 Z M 37.136719 70.652344 C 37.136719 71.011719 37.136719 71.558594 36.917969 71.996094 C 36.683594 72.449219 36.246094 72.730469 35.761719 72.730469 C 35.324219 72.730469 34.886719 72.527344 34.621094 72.058594 C 34.371094 71.621094 34.371094 71.011719 34.371094 70.652344 C 34.371094 70.261719 34.371094 69.730469 34.605469 69.292969 C 34.871094 68.839844 35.339844 68.621094 35.746094 68.621094 C 36.183594 68.621094 36.605469 68.839844 36.871094 69.277344 C 37.136719 69.699219 37.136719 70.277344 37.136719 70.652344 Z M 37.136719 70.652344 "/>
<path style=" stroke:none;fill-rule:nonzero;fill:rgb(0%,67.0578%,93.331909%);fill-opacity:1;" d="M 41.839844 71.589844 C 41.839844 71.074219 41.542969 70.761719 41.417969 70.652344 C 41.089844 70.324219 40.699219 70.246094 40.277344 70.167969 C 39.714844 70.058594 39.058594 69.933594 39.058594 69.355469 C 39.058594 68.996094 39.308594 68.589844 40.167969 68.589844 C 41.261719 68.589844 41.324219 69.496094 41.339844 69.792969 C 41.339844 69.886719 41.449219 69.886719 41.449219 69.886719 C 41.589844 69.886719 41.589844 69.839844 41.589844 69.652344 L 41.589844 68.636719 C 41.589844 68.480469 41.589844 68.402344 41.480469 68.402344 C 41.433594 68.402344 41.402344 68.402344 41.277344 68.527344 C 41.246094 68.558594 41.152344 68.652344 41.105469 68.683594 C 40.730469 68.402344 40.324219 68.402344 40.167969 68.402344 C 38.949219 68.402344 38.574219 69.074219 38.574219 69.636719 C 38.574219 69.980469 38.730469 70.261719 38.996094 70.480469 C 39.324219 70.730469 39.605469 70.792969 40.324219 70.933594 C 40.542969 70.980469 41.355469 71.136719 41.355469 71.855469 C 41.355469 72.355469 41.011719 72.761719 40.230469 72.761719 C 39.386719 72.761719 39.027344 72.199219 38.839844 71.339844 C 38.808594 71.214844 38.808594 71.183594 38.699219 71.183594 C 38.574219 71.183594 38.574219 71.246094 38.574219 71.417969 L 38.574219 72.746094 C 38.574219 72.917969 38.574219 72.980469 38.683594 72.980469 C 38.730469 72.980469 38.746094 72.964844 38.933594 72.777344 C 38.949219 72.761719 38.949219 72.746094 39.136719 72.558594 C 39.574219 72.964844 40.027344 72.980469 40.230469 72.980469 C 41.371094 72.980469 41.839844 72.308594 41.839844 71.589844 Z M 41.839844 71.589844 "/>
<path style=" stroke:none;fill-rule:nonzero;fill:rgb(0%,67.0578%,93.331909%);fill-opacity:1;" d="M 48.359375 67.886719 C 48.359375 67.230469 48.1875 65.839844 47.171875 65.839844 C 45.78125 65.839844 44.25 68.652344 44.25 70.933594 C 44.25 71.871094 44.53125 72.980469 45.4375 72.980469 C 46.84375 72.980469 48.359375 70.121094 48.359375 67.886719 Z M 45.296875 69.246094 C 45.46875 68.621094 45.671875 67.824219 46.078125 67.105469 C 46.34375 66.621094 46.703125 66.058594 47.15625 66.058594 C 47.640625 66.058594 47.703125 66.699219 47.703125 67.261719 C 47.703125 67.761719 47.625 68.261719 47.390625 69.246094 Z M 47.296875 69.574219 C 47.1875 70.027344 46.984375 70.871094 46.59375 71.589844 C 46.25 72.277344 45.875 72.761719 45.4375 72.761719 C 45.109375 72.761719 44.90625 72.464844 44.90625 71.542969 C 44.90625 71.121094 44.96875 70.542969 45.21875 69.574219 Z M 47.296875 69.574219 "/>
<path style="fill:none;stroke-width:0.79701;stroke-linecap:butt;stroke-linejoin:miter;stroke:rgb(0%,67.0578%,93.331909%);stroke-opacity:1;stroke-dasharray:2.98883,1.99255;stroke-miterlimit:10;" d="M 61.585938 -76.09375 L 61.585938 -99.777344 " transform="matrix(1,0,0,-1,0,0)"/>
<path style=" stroke:none;fill-rule:nonzero;fill:rgb(0%,67.0578%,93.331909%);fill-opacity:1;" d="M 61.585938 104.441406 C 61.847656 103.058594 62.625 100.8125 63.53125 99.261719 L 59.644531 99.261719 C 60.550781 100.8125 61.328125 103.058594 61.585938 104.441406 "/>
<path style=" stroke:none;fill-rule:nonzero;fill:rgb(0%,67.0578%,93.331909%);fill-opacity:1;" d="M 15.910156 116.847656 C 15.878906 117.003906 15.816406 117.238281 15.816406 117.285156 C 15.816406 117.457031 15.957031 117.550781 16.113281 117.550781 C 16.238281 117.550781 16.410156 117.472656 16.488281 117.269531 C 16.488281 117.253906 16.613281 116.785156 16.675781 116.535156 L 16.894531 115.644531 C 16.941406 115.410156 17.003906 115.191406 17.066406 114.972656 C 17.097656 114.800781 17.175781 114.503906 17.191406 114.472656 C 17.332031 114.160156 17.863281 113.253906 18.816406 113.253906 C 19.269531 113.253906 19.347656 113.628906 19.347656 113.957031 C 19.347656 114.207031 19.285156 114.488281 19.207031 114.785156 L 18.925781 115.941406 L 18.722656 116.691406 C 18.691406 116.894531 18.597656 117.238281 18.597656 117.285156 C 18.597656 117.457031 18.738281 117.550781 18.878906 117.550781 C 19.191406 117.550781 19.253906 117.300781 19.332031 116.988281 C 19.472656 116.425781 19.847656 114.972656 19.925781 114.582031 C 19.957031 114.457031 20.488281 113.253906 21.582031 113.253906 C 22.003906 113.253906 22.113281 113.597656 22.113281 113.957031 C 22.113281 114.519531 21.691406 115.660156 21.488281 116.191406 C 21.410156 116.425781 21.363281 116.535156 21.363281 116.738281 C 21.363281 117.207031 21.707031 117.550781 22.175781 117.550781 C 23.113281 117.550781 23.488281 116.097656 23.488281 116.019531 C 23.488281 115.910156 23.394531 115.910156 23.363281 115.910156 C 23.269531 115.910156 23.269531 115.941406 23.222656 116.097656 C 23.066406 116.628906 22.753906 117.332031 22.207031 117.332031 C 22.035156 117.332031 21.957031 117.238281 21.957031 117.003906 C 21.957031 116.753906 22.050781 116.519531 22.144531 116.300781 C 22.332031 115.769531 22.753906 114.675781 22.753906 114.097656 C 22.753906 113.457031 22.347656 113.035156 21.597656 113.035156 C 20.863281 113.035156 20.347656 113.472656 19.972656 114.003906 C 19.972656 113.878906 19.941406 113.535156 19.660156 113.300781 C 19.410156 113.082031 19.097656 113.035156 18.847656 113.035156 C 17.941406 113.035156 17.457031 113.675781 17.285156 113.910156 C 17.238281 113.332031 16.816406 113.035156 16.363281 113.035156 C 15.910156 113.035156 15.722656 113.425781 15.628906 113.597656 C 15.457031 113.957031 15.332031 114.535156 15.332031 114.566406 C 15.332031 114.675781 15.425781 114.675781 15.441406 114.675781 C 15.550781 114.675781 15.550781 114.660156 15.613281 114.441406 C 15.785156 113.738281 15.988281 113.253906 16.347656 113.253906 C 16.503906 113.253906 16.644531 113.332031 16.644531 113.707031 C 16.644531 113.925781 16.613281 114.035156 16.488281 114.550781 Z M 15.910156 116.847656 "/>
<path style=" stroke:none;fill-rule:nonzero;fill:rgb(0%,67.0578%,93.331909%);fill-opacity:1;" d="M 27.300781 117.671875 L 27.066406 117.671875 C 27.050781 117.828125 26.972656 118.234375 26.878906 118.296875 C 26.832031 118.34375 26.300781 118.34375 26.191406 118.34375 L 24.910156 118.34375 C 25.644531 117.703125 25.894531 117.5 26.300781 117.171875 C 26.816406 116.765625 27.300781 116.328125 27.300781 115.671875 C 27.300781 114.828125 26.566406 114.3125 25.675781 114.3125 C 24.816406 114.3125 24.222656 114.921875 24.222656 115.5625 C 24.222656 115.90625 24.519531 115.953125 24.597656 115.953125 C 24.753906 115.953125 24.957031 115.828125 24.957031 115.578125 C 24.957031 115.453125 24.910156 115.203125 24.550781 115.203125 C 24.769531 114.71875 25.238281 114.5625 25.566406 114.5625 C 26.269531 114.5625 26.628906 115.109375 26.628906 115.671875 C 26.628906 116.28125 26.191406 116.75 25.972656 117 L 24.300781 118.671875 C 24.222656 118.734375 24.222656 118.75 24.222656 118.9375 L 27.097656 118.9375 Z M 27.300781 117.671875 "/>
<path style=" stroke:none;fill-rule:nonzero;fill:rgb(0%,67.0578%,93.331909%);fill-opacity:1;" d="M 28.410156 116.457031 C 28.394531 116.488281 28.363281 116.519531 28.363281 116.550781 C 28.363281 116.597656 28.425781 116.691406 28.488281 116.691406 C 28.535156 116.691406 28.566406 116.660156 28.847656 116.378906 C 28.925781 116.300781 29.128906 116.113281 29.207031 116.035156 C 29.300781 116.816406 29.582031 117.566406 30.316406 117.566406 C 30.722656 117.566406 31.066406 117.332031 31.269531 117.175781 C 31.410156 117.082031 31.878906 116.691406 31.878906 116.597656 C 31.878906 116.566406 31.847656 116.472656 31.769531 116.472656 C 31.738281 116.472656 31.722656 116.488281 31.628906 116.566406 C 30.988281 117.191406 30.628906 117.347656 30.332031 117.347656 C 29.894531 117.347656 29.722656 116.816406 29.722656 116.050781 C 29.722656 115.988281 29.753906 115.535156 29.785156 115.472656 C 29.800781 115.441406 29.800781 115.425781 30.003906 115.222656 C 30.800781 114.425781 32.222656 112.738281 32.222656 111.191406 C 32.222656 111.019531 32.222656 110.410156 31.628906 110.410156 C 30.800781 110.410156 30.066406 112.050781 29.972656 112.285156 C 29.488281 113.378906 29.175781 114.535156 29.175781 115.722656 Z M 29.832031 115.066406 C 29.847656 114.941406 30.285156 112.738281 30.847656 111.566406 C 31.113281 111.035156 31.332031 110.628906 31.644531 110.628906 C 31.988281 110.628906 31.988281 110.988281 31.988281 111.144531 C 31.988281 112.816406 30.300781 114.566406 29.832031 115.066406 Z M 29.832031 115.066406 "/>
<path style=" stroke:none;fill-rule:nonzero;fill:rgb(0%,67.0578%,93.331909%);fill-opacity:1;" d="M 35.253906 108.640625 C 35.253906 108.40625 35.050781 108.140625 34.753906 108.140625 C 34.472656 108.140625 34.253906 108.359375 34.253906 108.640625 C 34.253906 108.921875 34.472656 109.140625 34.753906 109.140625 C 35.050781 109.140625 35.253906 108.875 35.253906 108.640625 Z M 37.175781 108.640625 C 37.175781 108.359375 36.957031 108.140625 36.675781 108.140625 C 36.378906 108.140625 36.175781 108.40625 36.175781 108.640625 C 36.175781 108.875 36.378906 109.140625 36.675781 109.140625 C 36.957031 109.140625 37.175781 108.921875 37.175781 108.640625 Z M 37.175781 108.640625 "/>
<path style=" stroke:none;fill-rule:nonzero;fill:rgb(0%,67.0578%,93.331909%);fill-opacity:1;" d="M 36.9375 112.457031 C 36.9375 111.800781 36.765625 110.410156 35.75 110.410156 C 34.359375 110.410156 32.828125 113.222656 32.828125 115.503906 C 32.828125 116.441406 33.109375 117.550781 34.015625 117.550781 C 35.421875 117.550781 36.9375 114.691406 36.9375 112.457031 Z M 33.875 113.816406 C 34.046875 113.191406 34.25 112.394531 34.65625 111.675781 C 34.921875 111.191406 35.28125 110.628906 35.734375 110.628906 C 36.21875 110.628906 36.28125 111.269531 36.28125 111.832031 C 36.28125 112.332031 36.203125 112.832031 35.96875 113.816406 Z M 35.875 114.144531 C 35.765625 114.597656 35.5625 115.441406 35.171875 116.160156 C 34.828125 116.847656 34.453125 117.332031 34.015625 117.332031 C 33.6875 117.332031 33.484375 117.035156 33.484375 116.113281 C 33.484375 115.691406 33.546875 115.113281 33.796875 114.144531 Z M 35.875 114.144531 "/>
<path style=" stroke:none;fill-rule:nonzero;fill:rgb(0%,67.0578%,93.331909%);fill-opacity:1;" d="M 42.613281 116.160156 C 42.613281 115.644531 42.316406 115.332031 42.191406 115.222656 C 41.863281 114.894531 41.472656 114.816406 41.050781 114.738281 C 40.488281 114.628906 39.832031 114.503906 39.832031 113.925781 C 39.832031 113.566406 40.082031 113.160156 40.941406 113.160156 C 42.035156 113.160156 42.097656 114.066406 42.113281 114.363281 C 42.113281 114.457031 42.222656 114.457031 42.222656 114.457031 C 42.363281 114.457031 42.363281 114.410156 42.363281 114.222656 L 42.363281 113.207031 C 42.363281 113.050781 42.363281 112.972656 42.253906 112.972656 C 42.207031 112.972656 42.175781 112.972656 42.050781 113.097656 C 42.019531 113.128906 41.925781 113.222656 41.878906 113.253906 C 41.503906 112.972656 41.097656 112.972656 40.941406 112.972656 C 39.722656 112.972656 39.347656 113.644531 39.347656 114.207031 C 39.347656 114.550781 39.503906 114.832031 39.769531 115.050781 C 40.097656 115.300781 40.378906 115.363281 41.097656 115.503906 C 41.316406 115.550781 42.128906 115.707031 42.128906 116.425781 C 42.128906 116.925781 41.785156 117.332031 41.003906 117.332031 C 40.160156 117.332031 39.800781 116.769531 39.613281 115.910156 C 39.582031 115.785156 39.582031 115.753906 39.472656 115.753906 C 39.347656 115.753906 39.347656 115.816406 39.347656 115.988281 L 39.347656 117.316406 C 39.347656 117.488281 39.347656 117.550781 39.457031 117.550781 C 39.503906 117.550781 39.519531 117.535156 39.707031 117.347656 C 39.722656 117.332031 39.722656 117.316406 39.910156 117.128906 C 40.347656 117.535156 40.800781 117.550781 41.003906 117.550781 C 42.144531 117.550781 42.613281 116.878906 42.613281 116.160156 Z M 42.613281 116.160156 "/>
<path style=" stroke:none;fill-rule:nonzero;fill:rgb(0%,67.0578%,93.331909%);fill-opacity:1;" d="M 45.414062 117.441406 L 45.414062 117.128906 C 44.742188 117.128906 44.710938 117.082031 44.710938 116.691406 L 44.710938 113.035156 L 43.320312 113.144531 L 43.320312 113.457031 C 43.960938 113.457031 44.054688 113.519531 44.054688 114.003906 L 44.054688 116.691406 C 44.054688 117.128906 43.945312 117.128906 43.273438 117.128906 L 43.273438 117.441406 L 44.367188 117.410156 C 44.726562 117.410156 45.070312 117.425781 45.414062 117.441406 Z M 44.851562 111.425781 C 44.851562 111.144531 44.632812 110.894531 44.335938 110.894531 C 43.992188 110.894531 43.789062 111.175781 43.789062 111.425781 C 43.789062 111.691406 44.023438 111.941406 44.320312 111.941406 C 44.664062 111.941406 44.851562 111.675781 44.851562 111.425781 Z M 44.851562 111.425781 "/>
<path style=" stroke:none;fill-rule:nonzero;fill:rgb(0%,67.0578%,93.331909%);fill-opacity:1;" d="M 51.042969 117.441406 L 51.042969 117.128906 C 50.527344 117.128906 50.277344 117.128906 50.277344 116.832031 L 50.277344 114.925781 C 50.277344 114.066406 50.277344 113.769531 49.964844 113.410156 C 49.824219 113.238281 49.496094 113.035156 48.917969 113.035156 C 48.183594 113.035156 47.714844 113.457031 47.433594 114.082031 L 47.433594 113.035156 L 46.027344 113.144531 L 46.027344 113.457031 C 46.730469 113.457031 46.808594 113.519531 46.808594 114.019531 L 46.808594 116.691406 C 46.808594 117.128906 46.699219 117.128906 46.027344 117.128906 L 46.027344 117.441406 L 47.167969 117.410156 L 48.277344 117.441406 L 48.277344 117.128906 C 47.605469 117.128906 47.496094 117.128906 47.496094 116.691406 L 47.496094 114.847656 C 47.496094 113.816406 48.214844 113.253906 48.839844 113.253906 C 49.480469 113.253906 49.589844 113.785156 49.589844 114.363281 L 49.589844 116.691406 C 49.589844 117.128906 49.480469 117.128906 48.808594 117.128906 L 48.808594 117.441406 L 49.933594 117.410156 Z M 51.042969 117.441406 "/>
<path style=" stroke:none;fill-rule:nonzero;fill:rgb(0%,67.0578%,93.331909%);fill-opacity:1;" d="M 57.445312 112.457031 C 57.445312 111.800781 57.273438 110.410156 56.257812 110.410156 C 54.867188 110.410156 53.335938 113.222656 53.335938 115.503906 C 53.335938 116.441406 53.617188 117.550781 54.523438 117.550781 C 55.929688 117.550781 57.445312 114.691406 57.445312 112.457031 Z M 54.382812 113.816406 C 54.554688 113.191406 54.757812 112.394531 55.164062 111.675781 C 55.429688 111.191406 55.789062 110.628906 56.242188 110.628906 C 56.726562 110.628906 56.789062 111.269531 56.789062 111.832031 C 56.789062 112.332031 56.710938 112.832031 56.476562 113.816406 Z M 56.382812 114.144531 C 56.273438 114.597656 56.070312 115.441406 55.679688 116.160156 C 55.335938 116.847656 54.960938 117.332031 54.523438 117.332031 C 54.195312 117.332031 53.992188 117.035156 53.992188 116.113281 C 53.992188 115.691406 54.054688 115.113281 54.304688 114.144531 Z M 56.382812 114.144531 "/>
<path style="fill:none;stroke-width:0.3985;stroke-linecap:butt;stroke-linejoin:miter;stroke:rgb(38.822937%,38.822937%,100%);stroke-opacity:0.25;stroke-dasharray:0.3985,0.99628;stroke-miterlimit:10;" d="M 89.648438 -76.09375 L 117.996094 -76.09375 L 117.996094 -125.191406 L 89.648438 -125.191406 Z M 89.648438 -76.09375 " transform="matrix(1,0,0,-1,0,0)"/>
<path style="fill:none;stroke-width:0.3985;stroke-linecap:butt;stroke-linejoin:miter;stroke:rgb(38.822937%,38.822937%,100%);stroke-opacity:0.25;stroke-dasharray:2.98883,1.99255;stroke-miterlimit:10;" d="M 89.648438 -76.09375 L 116.203125 -122.085938 " transform="matrix(1,0,0,-1,0,0)"/>
<path style=" stroke:none;fill-rule:nonzero;fill:rgb(38.822937%,38.822937%,100%);fill-opacity:0.25;" d="M 117.996094 125.191406 C 117.636719 124.171875 117.289062 122.378906 117.296875 120.992188 L 114.707031 122.488281 C 115.910156 123.175781 117.292969 124.371094 117.996094 125.191406 "/>
<path style="fill:none;stroke-width:0.79701;stroke-linecap:butt;stroke-linejoin:miter;stroke:rgb(38.822937%,38.822937%,100%);stroke-opacity:1;stroke-dasharray:2.98883,1.99255;stroke-miterlimit:10;" d="M 89.648438 -76.09375 L 113.332031 -76.09375 " transform="matrix(1,0,0,-1,0,0)"/>
<path style=" stroke:none;fill-rule:nonzero;fill:rgb(38.822937%,38.822937%,100%);fill-opacity:1;" d="M 117.996094 76.09375 C 116.613281 75.835938 114.367188 75.058594 112.816406 74.152344 L 112.816406 78.035156 C 114.367188 77.128906 116.613281 76.351562 117.996094 76.09375 "/>
<path style="fill:none;stroke-width:0.79701;stroke-linecap:butt;stroke-linejoin:miter;stroke:rgb(38.822937%,38.822937%,100%);stroke-opacity:1;stroke-dasharray:2.98883,1.99255;stroke-miterlimit:10;" d="M 89.648438 -76.09375 L 89.648438 -118.203125 " transform="matrix(1,0,0,-1,0,0)"/>
<path style=" stroke:none;fill-rule:nonzero;fill:rgb(38.822937%,38.822937%,100%);fill-opacity:1;" d="M 89.648438 122.867188 C 89.90625 121.484375 90.683594 119.238281 91.589844 117.683594 L 87.707031 117.683594 C 88.613281 119.238281 89.390625 121.484375 89.648438 122.867188 "/>
<path style=" stroke:none;fill-rule:nonzero;fill:rgb(38.822937%,38.822937%,100%);fill-opacity:1;" d="M 66.324219 135.273438 C 66.292969 135.429688 66.230469 135.664062 66.230469 135.710938 C 66.230469 135.882812 66.371094 135.976562 66.527344 135.976562 C 66.652344 135.976562 66.824219 135.898438 66.902344 135.695312 C 66.902344 135.679688 67.027344 135.210938 67.089844 134.960938 L 67.308594 134.070312 C 67.355469 133.835938 67.417969 133.617188 67.480469 133.398438 C 67.511719 133.226562 67.589844 132.929688 67.605469 132.898438 C 67.746094 132.585938 68.277344 131.679688 69.230469 131.679688 C 69.683594 131.679688 69.761719 132.054688 69.761719 132.382812 C 69.761719 132.632812 69.699219 132.914062 69.621094 133.210938 L 69.339844 134.367188 L 69.136719 135.117188 C 69.105469 135.320312 69.011719 135.664062 69.011719 135.710938 C 69.011719 135.882812 69.152344 135.976562 69.292969 135.976562 C 69.605469 135.976562 69.667969 135.726562 69.746094 135.414062 C 69.886719 134.851562 70.261719 133.398438 70.339844 133.007812 C 70.371094 132.882812 70.902344 131.679688 71.996094 131.679688 C 72.417969 131.679688 72.527344 132.023438 72.527344 132.382812 C 72.527344 132.945312 72.105469 134.085938 71.902344 134.617188 C 71.824219 134.851562 71.777344 134.960938 71.777344 135.164062 C 71.777344 135.632812 72.121094 135.976562 72.589844 135.976562 C 73.527344 135.976562 73.902344 134.523438 73.902344 134.445312 C 73.902344 134.335938 73.808594 134.335938 73.777344 134.335938 C 73.683594 134.335938 73.683594 134.367188 73.636719 134.523438 C 73.480469 135.054688 73.167969 135.757812 72.621094 135.757812 C 72.449219 135.757812 72.371094 135.664062 72.371094 135.429688 C 72.371094 135.179688 72.464844 134.945312 72.558594 134.726562 C 72.746094 134.195312 73.167969 133.101562 73.167969 132.523438 C 73.167969 131.882812 72.761719 131.460938 72.011719 131.460938 C 71.277344 131.460938 70.761719 131.898438 70.386719 132.429688 C 70.386719 132.304688 70.355469 131.960938 70.074219 131.726562 C 69.824219 131.507812 69.511719 131.460938 69.261719 131.460938 C 68.355469 131.460938 67.871094 132.101562 67.699219 132.335938 C 67.652344 131.757812 67.230469 131.460938 66.777344 131.460938 C 66.324219 131.460938 66.136719 131.851562 66.042969 132.023438 C 65.871094 132.382812 65.746094 132.960938 65.746094 132.992188 C 65.746094 133.101562 65.839844 133.101562 65.855469 133.101562 C 65.964844 133.101562 65.964844 133.085938 66.027344 132.867188 C 66.199219 132.164062 66.402344 131.679688 66.761719 131.679688 C 66.917969 131.679688 67.058594 131.757812 67.058594 132.132812 C 67.058594 132.351562 67.027344 132.460938 66.902344 132.976562 Z M 66.324219 135.273438 "/>
<path style=" stroke:none;fill-rule:nonzero;fill:rgb(38.822937%,38.822937%,100%);fill-opacity:1;" d="M 77.710938 136.097656 L 77.476562 136.097656 C 77.460938 136.253906 77.382812 136.660156 77.289062 136.722656 C 77.242188 136.769531 76.710938 136.769531 76.601562 136.769531 L 75.320312 136.769531 C 76.054688 136.128906 76.304688 135.925781 76.710938 135.597656 C 77.226562 135.191406 77.710938 134.753906 77.710938 134.097656 C 77.710938 133.253906 76.976562 132.738281 76.085938 132.738281 C 75.226562 132.738281 74.632812 133.347656 74.632812 133.988281 C 74.632812 134.332031 74.929688 134.378906 75.007812 134.378906 C 75.164062 134.378906 75.367188 134.253906 75.367188 134.003906 C 75.367188 133.878906 75.320312 133.628906 74.960938 133.628906 C 75.179688 133.144531 75.648438 132.988281 75.976562 132.988281 C 76.679688 132.988281 77.039062 133.535156 77.039062 134.097656 C 77.039062 134.707031 76.601562 135.175781 76.382812 135.425781 L 74.710938 137.097656 C 74.632812 137.160156 74.632812 137.175781 74.632812 137.363281 L 77.507812 137.363281 Z M 77.710938 136.097656 "/>
<path style=" stroke:none;fill-rule:nonzero;fill:rgb(38.822937%,38.822937%,100%);fill-opacity:1;" d="M 78.820312 134.882812 C 78.804688 134.914062 78.773438 134.945312 78.773438 134.976562 C 78.773438 135.023438 78.835938 135.117188 78.898438 135.117188 C 78.945312 135.117188 78.976562 135.085938 79.257812 134.804688 C 79.335938 134.726562 79.539062 134.539062 79.617188 134.460938 C 79.710938 135.242188 79.992188 135.992188 80.726562 135.992188 C 81.132812 135.992188 81.476562 135.757812 81.679688 135.601562 C 81.820312 135.507812 82.289062 135.117188 82.289062 135.023438 C 82.289062 134.992188 82.257812 134.898438 82.179688 134.898438 C 82.148438 134.898438 82.132812 134.914062 82.039062 134.992188 C 81.398438 135.617188 81.039062 135.773438 80.742188 135.773438 C 80.304688 135.773438 80.132812 135.242188 80.132812 134.476562 C 80.132812 134.414062 80.164062 133.960938 80.195312 133.898438 C 80.210938 133.867188 80.210938 133.851562 80.414062 133.648438 C 81.210938 132.851562 82.632812 131.164062 82.632812 129.617188 C 82.632812 129.445312 82.632812 128.835938 82.039062 128.835938 C 81.210938 128.835938 80.476562 130.476562 80.382812 130.710938 C 79.898438 131.804688 79.585938 132.960938 79.585938 134.148438 Z M 80.242188 133.492188 C 80.257812 133.367188 80.695312 131.164062 81.257812 129.992188 C 81.523438 129.460938 81.742188 129.054688 82.054688 129.054688 C 82.398438 129.054688 82.398438 129.414062 82.398438 129.570312 C 82.398438 131.242188 80.710938 132.992188 80.242188 133.492188 Z M 80.242188 133.492188 "/>
<path style=" stroke:none;fill-rule:nonzero;fill:rgb(38.822937%,38.822937%,100%);fill-opacity:1;" d="M 86.648438 127.097656 C 86.648438 126.832031 86.429688 126.566406 86.132812 126.566406 C 85.789062 126.566406 85.585938 126.847656 85.585938 127.097656 C 85.585938 127.363281 85.820312 127.628906 86.117188 127.628906 C 86.460938 127.628906 86.648438 127.347656 86.648438 127.097656 Z M 86.648438 127.097656 "/>
<path style=" stroke:none;fill-rule:nonzero;fill:rgb(38.822937%,38.822937%,100%);fill-opacity:1;" d="M 87.347656 130.882812 C 87.347656 130.226562 87.175781 128.835938 86.160156 128.835938 C 84.769531 128.835938 83.238281 131.648438 83.238281 133.929688 C 83.238281 134.867188 83.519531 135.976562 84.425781 135.976562 C 85.832031 135.976562 87.347656 133.117188 87.347656 130.882812 Z M 84.285156 132.242188 C 84.457031 131.617188 84.660156 130.820312 85.066406 130.101562 C 85.332031 129.617188 85.691406 129.054688 86.144531 129.054688 C 86.628906 129.054688 86.691406 129.695312 86.691406 130.257812 C 86.691406 130.757812 86.613281 131.257812 86.378906 132.242188 Z M 86.285156 132.570312 C 86.175781 133.023438 85.972656 133.867188 85.582031 134.585938 C 85.238281 135.273438 84.863281 135.757812 84.425781 135.757812 C 84.097656 135.757812 83.894531 135.460938 83.894531 134.539062 C 83.894531 134.117188 83.957031 133.539062 84.207031 132.570312 Z M 86.285156 132.570312 "/>
<path style=" stroke:none;fill-rule:nonzero;fill:rgb(38.822937%,38.822937%,100%);fill-opacity:1;" d="M 91.285156 130.988281 L 91.050781 130.988281 C 91.035156 131.144531 90.957031 131.550781 90.863281 131.613281 C 90.816406 131.660156 90.285156 131.660156 90.175781 131.660156 L 88.894531 131.660156 C 89.628906 131.019531 89.878906 130.816406 90.285156 130.488281 C 90.800781 130.082031 91.285156 129.644531 91.285156 128.988281 C 91.285156 128.144531 90.550781 127.628906 89.660156 127.628906 C 88.800781 127.628906 88.207031 128.238281 88.207031 128.878906 C 88.207031 129.222656 88.503906 129.269531 88.582031 129.269531 C 88.738281 129.269531 88.941406 129.144531 88.941406 128.894531 C 88.941406 128.769531 88.894531 128.519531 88.535156 128.519531 C 88.753906 128.035156 89.222656 127.878906 89.550781 127.878906 C 90.253906 127.878906 90.613281 128.425781 90.613281 128.988281 C 90.613281 129.597656 90.175781 130.066406 89.957031 130.316406 L 88.285156 131.988281 C 88.207031 132.050781 88.207031 132.066406 88.207031 132.253906 L 91.082031 132.253906 Z M 91.285156 130.988281 "/>
<path style=" stroke:none;fill-rule:nonzero;fill:rgb(38.822937%,38.822937%,100%);fill-opacity:1;" d="M 98.042969 134.679688 C 98.042969 134.585938 97.933594 134.585938 97.902344 134.585938 C 97.824219 134.585938 97.792969 134.617188 97.777344 134.679688 C 97.496094 135.601562 96.839844 135.726562 96.480469 135.726562 C 95.949219 135.726562 95.074219 135.304688 95.074219 133.695312 C 95.074219 132.070312 95.886719 131.648438 96.417969 131.648438 C 96.511719 131.648438 97.136719 131.664062 97.480469 132.023438 C 97.074219 132.054688 97.011719 132.351562 97.011719 132.476562 C 97.011719 132.742188 97.199219 132.929688 97.464844 132.929688 C 97.730469 132.929688 97.933594 132.773438 97.933594 132.460938 C 97.933594 131.789062 97.167969 131.398438 96.402344 131.398438 C 95.152344 131.398438 94.246094 132.476562 94.246094 133.710938 C 94.246094 134.992188 95.230469 135.976562 96.386719 135.976562 C 97.714844 135.976562 98.042969 134.773438 98.042969 134.679688 Z M 98.042969 134.679688 "/>
<path style=" stroke:none;fill-rule:nonzero;fill:rgb(38.822937%,38.822937%,100%);fill-opacity:1;" d="M 103.011719 133.726562 C 103.011719 132.460938 102.027344 131.398438 100.824219 131.398438 C 99.574219 131.398438 98.605469 132.492188 98.605469 133.726562 C 98.605469 135.023438 99.636719 135.976562 100.808594 135.976562 C 102.011719 135.976562 103.011719 134.992188 103.011719 133.726562 Z M 102.199219 133.648438 C 102.199219 134.007812 102.199219 134.554688 101.980469 134.992188 C 101.746094 135.445312 101.308594 135.726562 100.824219 135.726562 C 100.386719 135.726562 99.949219 135.523438 99.683594 135.054688 C 99.433594 134.617188 99.433594 134.007812 99.433594 133.648438 C 99.433594 133.257812 99.433594 132.726562 99.667969 132.289062 C 99.933594 131.835938 100.402344 131.617188 100.808594 131.617188 C 101.246094 131.617188 101.667969 131.835938 101.933594 132.273438 C 102.199219 132.695312 102.199219 133.273438 102.199219 133.648438 Z M 102.199219 133.648438 "/>
<path style=" stroke:none;fill-rule:nonzero;fill:rgb(38.822937%,38.822937%,100%);fill-opacity:1;" d="M 106.898438 134.585938 C 106.898438 134.070312 106.601562 133.757812 106.476562 133.648438 C 106.148438 133.320312 105.757812 133.242188 105.335938 133.164062 C 104.773438 133.054688 104.117188 132.929688 104.117188 132.351562 C 104.117188 131.992188 104.367188 131.585938 105.226562 131.585938 C 106.320312 131.585938 106.382812 132.492188 106.398438 132.789062 C 106.398438 132.882812 106.507812 132.882812 106.507812 132.882812 C 106.648438 132.882812 106.648438 132.835938 106.648438 132.648438 L 106.648438 131.632812 C 106.648438 131.476562 106.648438 131.398438 106.539062 131.398438 C 106.492188 131.398438 106.460938 131.398438 106.335938 131.523438 C 106.304688 131.554688 106.210938 131.648438 106.164062 131.679688 C 105.789062 131.398438 105.382812 131.398438 105.226562 131.398438 C 104.007812 131.398438 103.632812 132.070312 103.632812 132.632812 C 103.632812 132.976562 103.789062 133.257812 104.054688 133.476562 C 104.382812 133.726562 104.664062 133.789062 105.382812 133.929688 C 105.601562 133.976562 106.414062 134.132812 106.414062 134.851562 C 106.414062 135.351562 106.070312 135.757812 105.289062 135.757812 C 104.445312 135.757812 104.085938 135.195312 103.898438 134.335938 C 103.867188 134.210938 103.867188 134.179688 103.757812 134.179688 C 103.632812 134.179688 103.632812 134.242188 103.632812 134.414062 L 103.632812 135.742188 C 103.632812 135.914062 103.632812 135.976562 103.742188 135.976562 C 103.789062 135.976562 103.804688 135.960938 103.992188 135.773438 C 104.007812 135.757812 104.007812 135.742188 104.195312 135.554688 C 104.632812 135.960938 105.085938 135.976562 105.289062 135.976562 C 106.429688 135.976562 106.898438 135.304688 106.898438 134.585938 Z M 106.898438 134.585938 "/>
<path style=" stroke:none;fill-rule:nonzero;fill:rgb(38.822937%,38.822937%,100%);fill-opacity:1;" d="M 113.421875 130.882812 C 113.421875 130.226562 113.25 128.835938 112.234375 128.835938 C 110.84375 128.835938 109.3125 131.648438 109.3125 133.929688 C 109.3125 134.867188 109.59375 135.976562 110.5 135.976562 C 111.90625 135.976562 113.421875 133.117188 113.421875 130.882812 Z M 110.359375 132.242188 C 110.53125 131.617188 110.734375 130.820312 111.140625 130.101562 C 111.40625 129.617188 111.765625 129.054688 112.21875 129.054688 C 112.703125 129.054688 112.765625 129.695312 112.765625 130.257812 C 112.765625 130.757812 112.6875 131.257812 112.453125 132.242188 Z M 112.359375 132.570312 C 112.25 133.023438 112.046875 133.867188 111.65625 134.585938 C 111.3125 135.273438 110.9375 135.757812 110.5 135.757812 C 110.171875 135.757812 109.96875 135.460938 109.96875 134.539062 C 109.96875 134.117188 110.03125 133.539062 110.28125 132.570312 Z M 112.359375 132.570312 "/>
<path style="fill:none;stroke-width:0.79701;stroke-linecap:butt;stroke-linejoin:miter;stroke:rgb(100%,38.822937%,38.822937%);stroke-opacity:1;stroke-miterlimit:10;" d="M 55.773438 -62.0625 L 16.5 -62.0625 " transform="matrix(1,0,0,-1,0,0)"/>
<path style=" stroke:none;fill-rule:nonzero;fill:rgb(100%,38.822937%,38.822937%);fill-opacity:1;" d="M 11.835938 62.0625 C 13.21875 62.320312 15.464844 63.097656 17.019531 64.003906 L 17.019531 60.121094 C 15.464844 61.027344 13.21875 61.804688 11.835938 62.0625 "/>
<path style=" stroke:none;fill-rule:nonzero;fill:rgb(100%,38.822937%,38.822937%);fill-opacity:1;" d="M 12.035156 55.0625 C 11.863281 55.0625 11.738281 55.0625 11.597656 55.1875 C 11.425781 55.34375 11.410156 55.515625 11.410156 55.578125 C 11.410156 55.828125 11.597656 55.9375 11.785156 55.9375 C 12.066406 55.9375 12.332031 55.6875 12.332031 55.296875 C 12.332031 54.8125 11.863281 54.4375 11.160156 54.4375 C 9.816406 54.4375 8.488281 55.859375 8.488281 57.265625 C 8.488281 58.171875 9.066406 58.953125 10.113281 58.953125 C 11.535156 58.953125 12.363281 57.890625 12.363281 57.78125 C 12.363281 57.71875 12.316406 57.640625 12.253906 57.640625 C 12.191406 57.640625 12.175781 57.671875 12.113281 57.75 C 11.332031 58.734375 10.238281 58.734375 10.128906 58.734375 C 9.503906 58.734375 9.222656 58.25 9.222656 57.640625 C 9.222656 57.234375 9.425781 56.265625 9.769531 55.65625 C 10.082031 55.078125 10.628906 54.65625 11.175781 54.65625 C 11.503906 54.65625 11.894531 54.78125 12.035156 55.0625 Z M 12.035156 55.0625 "/>
<path style=" stroke:none;fill-rule:nonzero;fill:rgb(100%,38.822937%,38.822937%);fill-opacity:1;" d="M 15.910156 59.070312 L 15.675781 59.070312 C 15.660156 59.226562 15.582031 59.632812 15.488281 59.695312 C 15.441406 59.742188 14.910156 59.742188 14.800781 59.742188 L 13.519531 59.742188 C 14.253906 59.101562 14.503906 58.898438 14.910156 58.570312 C 15.425781 58.164062 15.910156 57.726562 15.910156 57.070312 C 15.910156 56.226562 15.175781 55.710938 14.285156 55.710938 C 13.425781 55.710938 12.832031 56.320312 12.832031 56.960938 C 12.832031 57.304688 13.128906 57.351562 13.207031 57.351562 C 13.363281 57.351562 13.566406 57.226562 13.566406 56.976562 C 13.566406 56.851562 13.519531 56.601562 13.160156 56.601562 C 13.378906 56.117188 13.847656 55.960938 14.175781 55.960938 C 14.878906 55.960938 15.238281 56.507812 15.238281 57.070312 C 15.238281 57.679688 14.800781 58.148438 14.582031 58.398438 L 12.910156 60.070312 C 12.832031 60.132812 12.832031 60.148438 12.832031 60.335938 L 15.707031 60.335938 Z M 15.910156 59.070312 "/>
<path style=" stroke:none;fill-rule:nonzero;fill:rgb(100%,38.822937%,38.822937%);fill-opacity:1;" d="M 17.019531 57.859375 C 17.003906 57.890625 16.972656 57.921875 16.972656 57.953125 C 16.972656 58 17.035156 58.09375 17.097656 58.09375 C 17.144531 58.09375 17.175781 58.0625 17.457031 57.78125 C 17.535156 57.703125 17.738281 57.515625 17.816406 57.4375 C 17.910156 58.21875 18.191406 58.96875 18.925781 58.96875 C 19.332031 58.96875 19.675781 58.734375 19.878906 58.578125 C 20.019531 58.484375 20.488281 58.09375 20.488281 58 C 20.488281 57.96875 20.457031 57.875 20.378906 57.875 C 20.347656 57.875 20.332031 57.890625 20.238281 57.96875 C 19.597656 58.59375 19.238281 58.75 18.941406 58.75 C 18.503906 58.75 18.332031 58.21875 18.332031 57.453125 C 18.332031 57.390625 18.363281 56.9375 18.394531 56.875 C 18.410156 56.84375 18.410156 56.828125 18.613281 56.625 C 19.410156 55.828125 20.832031 54.140625 20.832031 52.59375 C 20.832031 52.421875 20.832031 51.8125 20.238281 51.8125 C 19.410156 51.8125 18.675781 53.453125 18.582031 53.6875 C 18.097656 54.78125 17.785156 55.9375 17.785156 57.125 Z M 18.441406 56.46875 C 18.457031 56.34375 18.894531 54.140625 19.457031 52.96875 C 19.722656 52.4375 19.941406 52.03125 20.253906 52.03125 C 20.597656 52.03125 20.597656 52.390625 20.597656 52.546875 C 20.597656 54.21875 18.910156 55.96875 18.441406 56.46875 Z M 18.441406 56.46875 "/>
<path style=" stroke:none;fill-rule:nonzero;fill:rgb(100%,38.822937%,38.822937%);fill-opacity:1;" d="M 24.84375 50.074219 C 24.84375 49.808594 24.625 49.542969 24.328125 49.542969 C 23.984375 49.542969 23.78125 49.824219 23.78125 50.074219 C 23.78125 50.339844 24.015625 50.605469 24.3125 50.605469 C 24.65625 50.605469 24.84375 50.324219 24.84375 50.074219 Z M 24.84375 50.074219 "/>
<path style=" stroke:none;fill-rule:nonzero;fill:rgb(100%,38.822937%,38.822937%);fill-opacity:1;" d="M 25.546875 53.859375 C 25.546875 53.203125 25.375 51.8125 24.359375 51.8125 C 22.96875 51.8125 21.4375 54.625 21.4375 56.90625 C 21.4375 57.84375 21.71875 58.953125 22.625 58.953125 C 24.03125 58.953125 25.546875 56.09375 25.546875 53.859375 Z M 22.484375 55.21875 C 22.65625 54.59375 22.859375 53.796875 23.265625 53.078125 C 23.53125 52.59375 23.890625 52.03125 24.34375 52.03125 C 24.828125 52.03125 24.890625 52.671875 24.890625 53.234375 C 24.890625 53.734375 24.8125 54.234375 24.578125 55.21875 Z M 24.484375 55.546875 C 24.375 56 24.171875 56.84375 23.78125 57.5625 C 23.4375 58.25 23.0625 58.734375 22.625 58.734375 C 22.296875 58.734375 22.09375 58.4375 22.09375 57.515625 C 22.09375 57.09375 22.15625 56.515625 22.40625 55.546875 Z M 24.484375 55.546875 "/>
<path style=" stroke:none;fill-rule:nonzero;fill:rgb(100%,38.822937%,38.822937%);fill-opacity:1;" d="M 31.769531 57.65625 C 31.769531 57.5625 31.660156 57.5625 31.628906 57.5625 C 31.550781 57.5625 31.519531 57.59375 31.503906 57.65625 C 31.222656 58.578125 30.566406 58.703125 30.207031 58.703125 C 29.675781 58.703125 28.800781 58.28125 28.800781 56.671875 C 28.800781 55.046875 29.613281 54.625 30.144531 54.625 C 30.238281 54.625 30.863281 54.640625 31.207031 55 C 30.800781 55.03125 30.738281 55.328125 30.738281 55.453125 C 30.738281 55.71875 30.925781 55.90625 31.191406 55.90625 C 31.457031 55.90625 31.660156 55.75 31.660156 55.4375 C 31.660156 54.765625 30.894531 54.375 30.128906 54.375 C 28.878906 54.375 27.972656 55.453125 27.972656 56.6875 C 27.972656 57.96875 28.957031 58.953125 30.113281 58.953125 C 31.441406 58.953125 31.769531 57.75 31.769531 57.65625 Z M 31.769531 57.65625 "/>
<path style=" stroke:none;fill-rule:nonzero;fill:rgb(100%,38.822937%,38.822937%);fill-opacity:1;" d="M 36.738281 56.703125 C 36.738281 55.4375 35.753906 54.375 34.550781 54.375 C 33.300781 54.375 32.332031 55.46875 32.332031 56.703125 C 32.332031 58 33.363281 58.953125 34.535156 58.953125 C 35.738281 58.953125 36.738281 57.96875 36.738281 56.703125 Z M 35.925781 56.625 C 35.925781 56.984375 35.925781 57.53125 35.707031 57.96875 C 35.472656 58.421875 35.035156 58.703125 34.550781 58.703125 C 34.113281 58.703125 33.675781 58.5 33.410156 58.03125 C 33.160156 57.59375 33.160156 56.984375 33.160156 56.625 C 33.160156 56.234375 33.160156 55.703125 33.394531 55.265625 C 33.660156 54.8125 34.128906 54.59375 34.535156 54.59375 C 34.972656 54.59375 35.394531 54.8125 35.660156 55.25 C 35.925781 55.671875 35.925781 56.25 35.925781 56.625 Z M 35.925781 56.625 "/>
<path style=" stroke:none;fill-rule:nonzero;fill:rgb(100%,38.822937%,38.822937%);fill-opacity:1;" d="M 40.628906 57.5625 C 40.628906 57.046875 40.332031 56.734375 40.207031 56.625 C 39.878906 56.296875 39.488281 56.21875 39.066406 56.140625 C 38.503906 56.03125 37.847656 55.90625 37.847656 55.328125 C 37.847656 54.96875 38.097656 54.5625 38.957031 54.5625 C 40.050781 54.5625 40.113281 55.46875 40.128906 55.765625 C 40.128906 55.859375 40.238281 55.859375 40.238281 55.859375 C 40.378906 55.859375 40.378906 55.8125 40.378906 55.625 L 40.378906 54.609375 C 40.378906 54.453125 40.378906 54.375 40.269531 54.375 C 40.222656 54.375 40.191406 54.375 40.066406 54.5 C 40.035156 54.53125 39.941406 54.625 39.894531 54.65625 C 39.519531 54.375 39.113281 54.375 38.957031 54.375 C 37.738281 54.375 37.363281 55.046875 37.363281 55.609375 C 37.363281 55.953125 37.519531 56.234375 37.785156 56.453125 C 38.113281 56.703125 38.394531 56.765625 39.113281 56.90625 C 39.332031 56.953125 40.144531 57.109375 40.144531 57.828125 C 40.144531 58.328125 39.800781 58.734375 39.019531 58.734375 C 38.175781 58.734375 37.816406 58.171875 37.628906 57.3125 C 37.597656 57.1875 37.597656 57.15625 37.488281 57.15625 C 37.363281 57.15625 37.363281 57.21875 37.363281 57.390625 L 37.363281 58.71875 C 37.363281 58.890625 37.363281 58.953125 37.472656 58.953125 C 37.519531 58.953125 37.535156 58.9375 37.722656 58.75 C 37.738281 58.734375 37.738281 58.71875 37.925781 58.53125 C 38.363281 58.9375 38.816406 58.953125 39.019531 58.953125 C 40.160156 58.953125 40.628906 58.28125 40.628906 57.5625 Z M 40.628906 57.5625 "/>
<path style=" stroke:none;fill-rule:nonzero;fill:rgb(100%,38.822937%,38.822937%);fill-opacity:1;" d="M 47.148438 53.859375 C 47.148438 53.203125 46.976562 51.8125 45.960938 51.8125 C 44.570312 51.8125 43.039062 54.625 43.039062 56.90625 C 43.039062 57.84375 43.320312 58.953125 44.226562 58.953125 C 45.632812 58.953125 47.148438 56.09375 47.148438 53.859375 Z M 44.085938 55.21875 C 44.257812 54.59375 44.460938 53.796875 44.867188 53.078125 C 45.132812 52.59375 45.492188 52.03125 45.945312 52.03125 C 46.429688 52.03125 46.492188 52.671875 46.492188 53.234375 C 46.492188 53.734375 46.414062 54.234375 46.179688 55.21875 Z M 46.085938 55.546875 C 45.976562 56 45.773438 56.84375 45.382812 57.5625 C 45.039062 58.25 44.664062 58.734375 44.226562 58.734375 C 43.898438 58.734375 43.695312 58.4375 43.695312 57.515625 C 43.695312 57.09375 43.757812 56.515625 44.007812 55.546875 Z M 46.085938 55.546875 "/>
<path style="fill:none;stroke-width:0.79701;stroke-linecap:butt;stroke-linejoin:miter;stroke:rgb(0%,0%,0%);stroke-opacity:1;stroke-miterlimit:10;" d="M 75.617188 -81.90625 L 75.617188 -105.589844 " transform="matrix(1,0,0,-1,0,0)"/>
<path style=" stroke:none;fill-rule:nonzero;fill:rgb(0%,0%,0%);fill-opacity:1;" d="M 75.617188 110.253906 C 75.875 108.871094 76.652344 106.625 77.558594 105.070312 L 73.675781 105.070312 C 74.582031 106.625 75.359375 108.871094 75.617188 110.253906 "/>
<path style=" stroke:none;fill-rule:nonzero;fill:rgb(0%,0%,0%);fill-opacity:1;" d="M 67.328125 117.667969 C 67.296875 117.824219 67.234375 118.058594 67.234375 118.105469 C 67.234375 118.277344 67.375 118.371094 67.53125 118.371094 C 67.65625 118.371094 67.828125 118.292969 67.90625 118.089844 C 67.90625 118.074219 68.03125 117.605469 68.09375 117.355469 L 68.3125 116.464844 C 68.359375 116.230469 68.421875 116.011719 68.484375 115.792969 C 68.515625 115.621094 68.59375 115.324219 68.609375 115.292969 C 68.75 114.980469 69.28125 114.074219 70.234375 114.074219 C 70.6875 114.074219 70.765625 114.449219 70.765625 114.777344 C 70.765625 115.027344 70.703125 115.308594 70.625 115.605469 L 70.34375 116.761719 L 70.140625 117.511719 C 70.109375 117.714844 70.015625 118.058594 70.015625 118.105469 C 70.015625 118.277344 70.15625 118.371094 70.296875 118.371094 C 70.609375 118.371094 70.671875 118.121094 70.75 117.808594 C 70.890625 117.246094 71.265625 115.792969 71.34375 115.402344 C 71.375 115.277344 71.90625 114.074219 73 114.074219 C 73.421875 114.074219 73.53125 114.417969 73.53125 114.777344 C 73.53125 115.339844 73.109375 116.480469 72.90625 117.011719 C 72.828125 117.246094 72.78125 117.355469 72.78125 117.558594 C 72.78125 118.027344 73.125 118.371094 73.59375 118.371094 C 74.53125 118.371094 74.90625 116.917969 74.90625 116.839844 C 74.90625 116.730469 74.8125 116.730469 74.78125 116.730469 C 74.6875 116.730469 74.6875 116.761719 74.640625 116.917969 C 74.484375 117.449219 74.171875 118.152344 73.625 118.152344 C 73.453125 118.152344 73.375 118.058594 73.375 117.824219 C 73.375 117.574219 73.46875 117.339844 73.5625 117.121094 C 73.75 116.589844 74.171875 115.496094 74.171875 114.917969 C 74.171875 114.277344 73.765625 113.855469 73.015625 113.855469 C 72.28125 113.855469 71.765625 114.292969 71.390625 114.824219 C 71.390625 114.699219 71.359375 114.355469 71.078125 114.121094 C 70.828125 113.902344 70.515625 113.855469 70.265625 113.855469 C 69.359375 113.855469 68.875 114.496094 68.703125 114.730469 C 68.65625 114.152344 68.234375 113.855469 67.78125 113.855469 C 67.328125 113.855469 67.140625 114.246094 67.046875 114.417969 C 66.875 114.777344 66.75 115.355469 66.75 115.386719 C 66.75 115.496094 66.84375 115.496094 66.859375 115.496094 C 66.96875 115.496094 66.96875 115.480469 67.03125 115.261719 C 67.203125 114.558594 67.40625 114.074219 67.765625 114.074219 C 67.921875 114.074219 68.0625 114.152344 68.0625 114.527344 C 68.0625 114.746094 68.03125 114.855469 67.90625 115.371094 Z M 67.328125 117.667969 "/>
<path style=" stroke:none;fill-rule:nonzero;fill:rgb(0%,0%,0%);fill-opacity:1;" d="M 78.71875 118.492188 L 78.484375 118.492188 C 78.46875 118.648438 78.390625 119.054688 78.296875 119.117188 C 78.25 119.164062 77.71875 119.164062 77.609375 119.164062 L 76.328125 119.164062 C 77.0625 118.523438 77.3125 118.320312 77.71875 117.992188 C 78.234375 117.585938 78.71875 117.148438 78.71875 116.492188 C 78.71875 115.648438 77.984375 115.132812 77.09375 115.132812 C 76.234375 115.132812 75.640625 115.742188 75.640625 116.382812 C 75.640625 116.726562 75.9375 116.773438 76.015625 116.773438 C 76.171875 116.773438 76.375 116.648438 76.375 116.398438 C 76.375 116.273438 76.328125 116.023438 75.96875 116.023438 C 76.1875 115.539062 76.65625 115.382812 76.984375 115.382812 C 77.6875 115.382812 78.046875 115.929688 78.046875 116.492188 C 78.046875 117.101562 77.609375 117.570312 77.390625 117.820312 L 75.71875 119.492188 C 75.640625 119.554688 75.640625 119.570312 75.640625 119.757812 L 78.515625 119.757812 Z M 78.71875 118.492188 "/>
<path style=" stroke:none;fill-rule:nonzero;fill:rgb(0%,0%,0%);fill-opacity:1;" d="M 84.359375 114.496094 C 84.375 114.449219 84.390625 114.386719 84.390625 114.324219 C 84.390625 114.152344 84.28125 114.058594 84.109375 114.058594 C 84.015625 114.058594 83.734375 114.121094 83.703125 114.480469 C 83.515625 114.121094 83.171875 113.855469 82.765625 113.855469 C 81.640625 113.855469 80.40625 115.246094 80.40625 116.683594 C 80.40625 117.667969 81 118.261719 81.71875 118.261719 C 82.3125 118.261719 82.78125 117.792969 82.875 117.683594 L 82.890625 117.699219 C 82.6875 118.574219 82.5625 118.996094 82.5625 119.011719 C 82.515625 119.105469 82.1875 120.089844 81.125 120.089844 C 80.9375 120.089844 80.609375 120.074219 80.328125 119.980469 C 80.625 119.902344 80.734375 119.636719 80.734375 119.464844 C 80.734375 119.308594 80.625 119.121094 80.359375 119.121094 C 80.140625 119.121094 79.828125 119.292969 79.828125 119.699219 C 79.828125 120.105469 80.1875 120.308594 81.140625 120.308594 C 82.390625 120.308594 83.109375 119.527344 83.265625 118.933594 Z M 83.078125 116.980469 C 83.015625 117.246094 82.78125 117.496094 82.5625 117.683594 C 82.359375 117.855469 82.046875 118.042969 81.75 118.042969 C 81.25 118.042969 81.109375 117.527344 81.109375 117.121094 C 81.109375 116.652344 81.390625 115.464844 81.671875 114.964844 C 81.9375 114.480469 82.359375 114.074219 82.78125 114.074219 C 83.4375 114.074219 83.578125 114.886719 83.578125 114.933594 C 83.578125 114.980469 83.5625 115.042969 83.546875 115.074219 Z M 83.078125 116.980469 "/>
<path style="fill-rule:nonzero;fill:rgb(100%,96.076965%,39.99939%);fill-opacity:1;stroke-width:0.79701;stroke-linecap:butt;stroke-linejoin:miter;stroke:rgb(100%,49.803162%,0%);stroke-opacity:1;stroke-miterlimit:10;" d="M 95.460938 -62.0625 C 95.460938 -51.105469 86.578125 -42.21875 75.617188 -42.21875 C 64.660156 -42.21875 55.773438 -51.105469 55.773438 -62.0625 C 55.773438 -73.023438 64.660156 -81.90625 75.617188 -81.90625 C 86.578125 -81.90625 95.460938 -73.023438 95.460938 -62.0625 Z M 95.460938 -62.0625 " transform="matrix(1,0,0,-1,0,0)"/>
<path style=" stroke:none;fill-rule:nonzero;fill:rgb(38.822937%,38.822937%,100%);fill-opacity:1;" d="M 74.214844 72.421875 C 74.183594 72.578125 74.121094 72.8125 74.121094 72.859375 C 74.121094 73.03125 74.261719 73.125 74.417969 73.125 C 74.542969 73.125 74.714844 73.046875 74.792969 72.84375 C 74.792969 72.828125 74.917969 72.359375 74.980469 72.109375 L 75.199219 71.21875 C 75.246094 70.984375 75.308594 70.765625 75.371094 70.546875 C 75.402344 70.375 75.480469 70.078125 75.496094 70.046875 C 75.636719 69.734375 76.167969 68.828125 77.121094 68.828125 C 77.574219 68.828125 77.652344 69.203125 77.652344 69.53125 C 77.652344 69.78125 77.589844 70.0625 77.511719 70.359375 L 77.230469 71.515625 L 77.027344 72.265625 C 76.996094 72.46875 76.902344 72.8125 76.902344 72.859375 C 76.902344 73.03125 77.042969 73.125 77.183594 73.125 C 77.496094 73.125 77.558594 72.875 77.636719 72.5625 C 77.777344 72 78.152344 70.546875 78.230469 70.15625 C 78.261719 70.03125 78.792969 68.828125 79.886719 68.828125 C 80.308594 68.828125 80.417969 69.171875 80.417969 69.53125 C 80.417969 70.09375 79.996094 71.234375 79.792969 71.765625 C 79.714844 72 79.667969 72.109375 79.667969 72.3125 C 79.667969 72.78125 80.011719 73.125 80.480469 73.125 C 81.417969 73.125 81.792969 71.671875 81.792969 71.59375 C 81.792969 71.484375 81.699219 71.484375 81.667969 71.484375 C 81.574219 71.484375 81.574219 71.515625 81.527344 71.671875 C 81.371094 72.203125 81.058594 72.90625 80.511719 72.90625 C 80.339844 72.90625 80.261719 72.8125 80.261719 72.578125 C 80.261719 72.328125 80.355469 72.09375 80.449219 71.875 C 80.636719 71.34375 81.058594 70.25 81.058594 69.671875 C 81.058594 69.03125 80.652344 68.609375 79.902344 68.609375 C 79.167969 68.609375 78.652344 69.046875 78.277344 69.578125 C 78.277344 69.453125 78.246094 69.109375 77.964844 68.875 C 77.714844 68.65625 77.402344 68.609375 77.152344 68.609375 C 76.246094 68.609375 75.761719 69.25 75.589844 69.484375 C 75.542969 68.90625 75.121094 68.609375 74.667969 68.609375 C 74.214844 68.609375 74.027344 69 73.933594 69.171875 C 73.761719 69.53125 73.636719 70.109375 73.636719 70.140625 C 73.636719 70.25 73.730469 70.25 73.746094 70.25 C 73.855469 70.25 73.855469 70.234375 73.917969 70.015625 C 74.089844 69.3125 74.292969 68.828125 74.652344 68.828125 C 74.808594 68.828125 74.949219 68.90625 74.949219 69.28125 C 74.949219 69.5 74.917969 69.609375 74.792969 70.125 Z M 74.214844 72.421875 "/>
<path style=" stroke:none;fill-rule:nonzero;fill:rgb(38.822937%,38.822937%,100%);fill-opacity:1;" d="M 85.605469 73.246094 L 85.371094 73.246094 C 85.355469 73.402344 85.277344 73.808594 85.183594 73.871094 C 85.136719 73.917969 84.605469 73.917969 84.496094 73.917969 L 83.214844 73.917969 C 83.949219 73.277344 84.199219 73.074219 84.605469 72.746094 C 85.121094 72.339844 85.605469 71.902344 85.605469 71.246094 C 85.605469 70.402344 84.871094 69.886719 83.980469 69.886719 C 83.121094 69.886719 82.527344 70.496094 82.527344 71.136719 C 82.527344 71.480469 82.824219 71.527344 82.902344 71.527344 C 83.058594 71.527344 83.261719 71.402344 83.261719 71.152344 C 83.261719 71.027344 83.214844 70.777344 82.855469 70.777344 C 83.074219 70.292969 83.542969 70.136719 83.871094 70.136719 C 84.574219 70.136719 84.933594 70.683594 84.933594 71.246094 C 84.933594 71.855469 84.496094 72.324219 84.277344 72.574219 L 82.605469 74.246094 C 82.527344 74.308594 82.527344 74.324219 82.527344 74.511719 L 85.402344 74.511719 Z M 85.605469 73.246094 "/>
<path style=" stroke:none;fill-rule:nonzero;fill:rgb(38.822937%,38.822937%,100%);fill-opacity:1;" d="M 86.714844 72.03125 C 86.699219 72.0625 86.667969 72.09375 86.667969 72.125 C 86.667969 72.171875 86.730469 72.265625 86.792969 72.265625 C 86.839844 72.265625 86.871094 72.234375 87.152344 71.953125 C 87.230469 71.875 87.433594 71.6875 87.511719 71.609375 C 87.605469 72.390625 87.886719 73.140625 88.621094 73.140625 C 89.027344 73.140625 89.371094 72.90625 89.574219 72.75 C 89.714844 72.65625 90.183594 72.265625 90.183594 72.171875 C 90.183594 72.140625 90.152344 72.046875 90.074219 72.046875 C 90.042969 72.046875 90.027344 72.0625 89.933594 72.140625 C 89.292969 72.765625 88.933594 72.921875 88.636719 72.921875 C 88.199219 72.921875 88.027344 72.390625 88.027344 71.625 C 88.027344 71.5625 88.058594 71.109375 88.089844 71.046875 C 88.105469 71.015625 88.105469 71 88.308594 70.796875 C 89.105469 70 90.527344 68.3125 90.527344 66.765625 C 90.527344 66.59375 90.527344 65.984375 89.933594 65.984375 C 89.105469 65.984375 88.371094 67.625 88.277344 67.859375 C 87.792969 68.953125 87.480469 70.109375 87.480469 71.296875 Z M 88.136719 70.640625 C 88.152344 70.515625 88.589844 68.3125 89.152344 67.140625 C 89.417969 66.609375 89.636719 66.203125 89.949219 66.203125 C 90.292969 66.203125 90.292969 66.5625 90.292969 66.71875 C 90.292969 68.390625 88.605469 70.140625 88.136719 70.640625 Z M 88.136719 70.640625 "/>
<path style=" stroke:none;fill-rule:nonzero;fill:rgb(38.822937%,38.822937%,100%);fill-opacity:1;" d="M 94.539062 64.246094 C 94.539062 63.980469 94.320312 63.714844 94.023438 63.714844 C 93.679688 63.714844 93.476562 63.996094 93.476562 64.246094 C 93.476562 64.511719 93.710938 64.777344 94.007812 64.777344 C 94.351562 64.777344 94.539062 64.496094 94.539062 64.246094 Z M 94.539062 64.246094 "/>
<path style=" stroke:none;fill-rule:nonzero;fill:rgb(38.822937%,38.822937%,100%);fill-opacity:1;" d="M 95.242188 68.03125 C 95.242188 67.375 95.070312 65.984375 94.054688 65.984375 C 92.664062 65.984375 91.132812 68.796875 91.132812 71.078125 C 91.132812 72.015625 91.414062 73.125 92.320312 73.125 C 93.726562 73.125 95.242188 70.265625 95.242188 68.03125 Z M 92.179688 69.390625 C 92.351562 68.765625 92.554688 67.96875 92.960938 67.25 C 93.226562 66.765625 93.585938 66.203125 94.039062 66.203125 C 94.523438 66.203125 94.585938 66.84375 94.585938 67.40625 C 94.585938 67.90625 94.507812 68.40625 94.273438 69.390625 Z M 94.179688 69.71875 C 94.070312 70.171875 93.867188 71.015625 93.476562 71.734375 C 93.132812 72.421875 92.757812 72.90625 92.320312 72.90625 C 91.992188 72.90625 91.789062 72.609375 91.789062 71.6875 C 91.789062 71.265625 91.851562 70.6875 92.101562 69.71875 Z M 94.179688 69.71875 "/>
<path style=" stroke:none;fill-rule:nonzero;fill:rgb(38.822937%,38.822937%,100%);fill-opacity:1;" d="M 99.175781 68.132812 L 98.941406 68.132812 C 98.925781 68.289062 98.847656 68.695312 98.753906 68.757812 C 98.707031 68.804688 98.175781 68.804688 98.066406 68.804688 L 96.785156 68.804688 C 97.519531 68.164062 97.769531 67.960938 98.175781 67.632812 C 98.691406 67.226562 99.175781 66.789062 99.175781 66.132812 C 99.175781 65.289062 98.441406 64.773438 97.550781 64.773438 C 96.691406 64.773438 96.097656 65.382812 96.097656 66.023438 C 96.097656 66.367188 96.394531 66.414062 96.472656 66.414062 C 96.628906 66.414062 96.832031 66.289062 96.832031 66.039062 C 96.832031 65.914062 96.785156 65.664062 96.425781 65.664062 C 96.644531 65.179688 97.113281 65.023438 97.441406 65.023438 C 98.144531 65.023438 98.503906 65.570312 98.503906 66.132812 C 98.503906 66.742188 98.066406 67.210938 97.847656 67.460938 L 96.175781 69.132812 C 96.097656 69.195312 96.097656 69.210938 96.097656 69.398438 L 98.972656 69.398438 Z M 99.175781 68.132812 "/>
<path style=" stroke:none;fill-rule:nonzero;fill:rgb(38.822937%,38.822937%,100%);fill-opacity:1;" d="M 105.386719 71.734375 C 105.386719 71.21875 105.089844 70.90625 104.964844 70.796875 C 104.636719 70.46875 104.246094 70.390625 103.824219 70.3125 C 103.261719 70.203125 102.605469 70.078125 102.605469 69.5 C 102.605469 69.140625 102.855469 68.734375 103.714844 68.734375 C 104.808594 68.734375 104.871094 69.640625 104.886719 69.9375 C 104.886719 70.03125 104.996094 70.03125 104.996094 70.03125 C 105.136719 70.03125 105.136719 69.984375 105.136719 69.796875 L 105.136719 68.78125 C 105.136719 68.625 105.136719 68.546875 105.027344 68.546875 C 104.980469 68.546875 104.949219 68.546875 104.824219 68.671875 C 104.792969 68.703125 104.699219 68.796875 104.652344 68.828125 C 104.277344 68.546875 103.871094 68.546875 103.714844 68.546875 C 102.496094 68.546875 102.121094 69.21875 102.121094 69.78125 C 102.121094 70.125 102.277344 70.40625 102.542969 70.625 C 102.871094 70.875 103.152344 70.9375 103.871094 71.078125 C 104.089844 71.125 104.902344 71.28125 104.902344 72 C 104.902344 72.5 104.558594 72.90625 103.777344 72.90625 C 102.933594 72.90625 102.574219 72.34375 102.386719 71.484375 C 102.355469 71.359375 102.355469 71.328125 102.246094 71.328125 C 102.121094 71.328125 102.121094 71.390625 102.121094 71.5625 L 102.121094 72.890625 C 102.121094 73.0625 102.121094 73.125 102.230469 73.125 C 102.277344 73.125 102.292969 73.109375 102.480469 72.921875 C 102.496094 72.90625 102.496094 72.890625 102.683594 72.703125 C 103.121094 73.109375 103.574219 73.125 103.777344 73.125 C 104.917969 73.125 105.386719 72.453125 105.386719 71.734375 Z M 105.386719 71.734375 "/>
<path style=" stroke:none;fill-rule:nonzero;fill:rgb(38.822937%,38.822937%,100%);fill-opacity:1;" d="M 108.1875 73.015625 L 108.1875 72.703125 C 107.515625 72.703125 107.484375 72.65625 107.484375 72.265625 L 107.484375 68.609375 L 106.09375 68.71875 L 106.09375 69.03125 C 106.734375 69.03125 106.828125 69.09375 106.828125 69.578125 L 106.828125 72.265625 C 106.828125 72.703125 106.71875 72.703125 106.046875 72.703125 L 106.046875 73.015625 L 107.140625 72.984375 C 107.5 72.984375 107.84375 73 108.1875 73.015625 Z M 107.625 67 C 107.625 66.71875 107.40625 66.46875 107.109375 66.46875 C 106.765625 66.46875 106.5625 66.75 106.5625 67 C 106.5625 67.265625 106.796875 67.515625 107.09375 67.515625 C 107.4375 67.515625 107.625 67.25 107.625 67 Z M 107.625 67 "/>
<path style=" stroke:none;fill-rule:nonzero;fill:rgb(38.822937%,38.822937%,100%);fill-opacity:1;" d="M 113.816406 73.015625 L 113.816406 72.703125 C 113.300781 72.703125 113.050781 72.703125 113.050781 72.40625 L 113.050781 70.5 C 113.050781 69.640625 113.050781 69.34375 112.738281 68.984375 C 112.597656 68.8125 112.269531 68.609375 111.691406 68.609375 C 110.957031 68.609375 110.488281 69.03125 110.207031 69.65625 L 110.207031 68.609375 L 108.800781 68.71875 L 108.800781 69.03125 C 109.503906 69.03125 109.582031 69.09375 109.582031 69.59375 L 109.582031 72.265625 C 109.582031 72.703125 109.472656 72.703125 108.800781 72.703125 L 108.800781 73.015625 L 109.941406 72.984375 L 111.050781 73.015625 L 111.050781 72.703125 C 110.378906 72.703125 110.269531 72.703125 110.269531 72.265625 L 110.269531 70.421875 C 110.269531 69.390625 110.988281 68.828125 111.613281 68.828125 C 112.253906 68.828125 112.363281 69.359375 112.363281 69.9375 L 112.363281 72.265625 C 112.363281 72.703125 112.253906 72.703125 111.582031 72.703125 L 111.582031 73.015625 L 112.707031 72.984375 Z M 113.816406 73.015625 "/>
<path style=" stroke:none;fill-rule:nonzero;fill:rgb(38.822937%,38.822937%,100%);fill-opacity:1;" d="M 120.21875 68.03125 C 120.21875 67.375 120.046875 65.984375 119.03125 65.984375 C 117.640625 65.984375 116.109375 68.796875 116.109375 71.078125 C 116.109375 72.015625 116.390625 73.125 117.296875 73.125 C 118.703125 73.125 120.21875 70.265625 120.21875 68.03125 Z M 117.15625 69.390625 C 117.328125 68.765625 117.53125 67.96875 117.9375 67.25 C 118.203125 66.765625 118.5625 66.203125 119.015625 66.203125 C 119.5 66.203125 119.5625 66.84375 119.5625 67.40625 C 119.5625 67.90625 119.484375 68.40625 119.25 69.390625 Z M 119.15625 69.71875 C 119.046875 70.171875 118.84375 71.015625 118.453125 71.734375 C 118.109375 72.421875 117.734375 72.90625 117.296875 72.90625 C 116.96875 72.90625 116.765625 72.609375 116.765625 71.6875 C 116.765625 71.265625 116.828125 70.6875 117.078125 69.71875 Z M 119.15625 69.71875 "/>
</g>
</svg>
